<?xml version="1.0" encoding="UTF-8" standalone="no"?>
<!DOCTYPE svg PUBLIC "-//W3C//DTD SVG 1.1//EN"
"http://www.w3.org/Graphics/SVG/1.1/DTD/svg11.dtd">
<svg viewBox="0 0 1466 825" version="1.1" xmlns="http://www.w3.org/2000/svg" xmlns:xlink="http://www.w3.org/1999/xlink">
<defs>
<clipPath id="c0_34"><path d="M233.7 830.5V5.5h999.4v825Z"/></clipPath>
<clipPath id="c1_34"><path d="M1166.7 157.5v-3.6h3.6v3.6Zm-113 -2.3c1.1 0 1.6 -.4 1.6 -1.2c0 -.8 -.5 -1.2 -1.7 -1.2H1051v2.4Zm-112 .3c.7 0 1.4 -.2 1.9 -.6c.3 -.5 .7 -1 .7 -1.6v-.7c-.6 -.3 -1.3 -.4 -2.1 -.4c-.8 0 -1.3 .1 -1.7 .4c-.4 .3 -.6 .8 -.6 1.3c-.1 .5 .2 .9 .5 1.2c.3 .2 .8 .4 1.3 .4Zm191.7 -.7c1.1 0 1.8 -.4 1.8 -1.4c0 -.5 -.2 -.7 -.5 -.9c-.4 -.2 -.7 -.3 -1.3 -.3h-2.2v2.6Zm-164.7 .1c.8 -.1 1.7 -.4 2.2 -1c.6 -.6 .9 -1.4 .9 -2.3c0 -1 -.3 -1.7 -.9 -2.3c-.6 -.7 -1.4 -1 -2.3 -1q-.1 0 -.1 0c-1 0 -1.6 .3 -2.2 .9c-.6 .6 -.8 1.4 -.8 2.4c-.1 .8 .3 1.6 .8 2.3c.6 .6 1.4 1 2.4 1Zm112 -.1c.7 0 1.5 -.3 2 -.9c.5 -.6 .8 -1.4 .8 -2.4c0 -.9 -.2 -1.7 -.8 -2.3c-.6 -.6 -1.2 -.9 -2 -.9q-.1 0 -.1 0c-.8 0 -1.4 .3 -1.9 .9c-.6 .6 -.8 1.4 -.8 2.4c-.1 .9 .2 1.7 .8 2.3c.5 .6 1.2 .9 2 .9Zm-82 -4c-.2 -.7 -.4 -1.4 -.8 -1.8c-.6 -.5 -1 -.7 -1.7 -.7q-.1 0 -.2 0c-.6 0 -1.1 .2 -1.5 .7c-.5 .4 -.8 1 -.9 1.8Zm70 0c-.2 -.7 -.4 -1.4 -.8 -1.8c-.6 -.5 -1 -.7 -1.7 -.7q-.1 0 -.2 0c-.6 0 -1.1 .2 -1.5 .7c-.5 .4 -.8 1 -.9 1.8Zm-34.2 .4v-3h-2.4c-.7 0 -1.1 .1 -1.5 .4c-.4 .2 -.5 .6 -.5 1.1c-.1 .4 .2 .8 .5 1.1c.3 .1 .9 .4 1.5 .4Zm18.8 -.7c.3 0 .8 -.1 1 -.3c.1 -.4 .3 -.6 .3 -.9c0 -.4 -.1 -.6 -.3 -.8c-.2 -.3 -.5 -.3 -1 -.3H1051v2.3Zm106.7 .7v-3h-2.4c-.7 0 -1.1 .1 -1.4 .4c-.4 .2 -.5 .6 -.5 1.1c-.2 .4 .1 .8 .5 1.1c.3 .1 .8 .4 1.5 .4Zm-210.4 6.3l4.2 -6.1l-4.1 -5.9h3.7l2.2 3.5l2.2 -3.5h3.5l-4 5.8l4.2 6.2h-3.6l-2.4 -3.8l-2.4 3.8Zm34.9 0v-4.2c-1 .5 -2.1 .8 -3.2 .8c-1.2 -.1 -2.2 -.3 -3 -1c-.8 -.8 -1.1 -1.6 -1.1 -2.9v-4.7h3.3v3.7c-.1 1.3 .6 2 1.7 2c.8 0 1.5 -.2 2.3 -.6v-5.1h3.3v12Zm21.9 .1v-9.1h-3.6v-3h10.3v3h-3.3v9.1Zm19.8 -.1l3 -4.5c-1.6 -.7 -2.4 -1.8 -2.4 -3.6c0 -1.3 .4 -2.1 1.2 -2.8c.8 -.8 2.1 -1.1 3.6 -1.1h6.2v12h-3.3v-4h-1.9l-2.5 4Zm21.5 .3V145.5h6.4c1.1 0 2.1 .3 2.8 .8c.6 .5 1.1 1.4 1.1 2.3c-.1 1.3 -.6 2.3 -1.7 2.9c1.4 .3 2.3 1.5 2.3 3c-.1 1 -.4 1.8 -1.2 2.4c-.8 .6 -1.8 .9 -3.2 .9Zm41.8 -.3v-12h3.3v4.4h4.4v-4.4h3.3v12h-3.3v-4.7h-4.4v4.7Zm16.6 3.6c-1.1 0 -2.1 -.3 -3 -.8l1.1 -2.6c.5 .2 1 .5 1.5 .5c.4 0 .9 -.3 1.2 -.8l-4.7 -11.9h3.6l2.7 8.1l2.6 -8.1h3.5l-4.6 12.3c-.5 1.1 -1 2.1 -1.5 2.6c-.6 .4 -1.4 .7 -2.4 .7Zm13 -3.5v-9.1h-3.7v-3h10.3v3h-3.3v9.1Zm8.8 -.1v-12h3.3v4h2.5c1.4 0 2.6 .3 3.5 1c.9 .7 1.3 1.6 1.3 2.9c-.1 1.2 -.4 2.3 -1.2 3c-.9 .6 -2 1.1 -3.4 1.1Zm23.9 0l3 -4.5c-1.7 -.7 -2.5 -1.8 -2.5 -3.6c0 -1.3 .5 -2.1 1.3 -2.8c.7 -.8 2 -1.1 3.5 -1.1h6.2v12H1160v-4h-1.9l-2.5 4Zm-131.5 .3c-1.8 0 -3.2 -.6 -4.4 -1.8c-1.2 -1.3 -1.8 -2.7 -1.8 -4.4c0 -1.8 .6 -3.2 1.8 -4.4c1.2 -1.4 2.7 -1.9 4.5 -1.9c0 0 .1 0 .2 0c1.7 0 3.3 .8 4.5 2.2l-2 2c-.9 -.9 -1.7 -1.2 -2.8 -1.2c0 0 -.1 0 -.1 0c-.8 0 -1.4 .3 -1.9 .9c-.6 .7 -.8 1.5 -.8 2.4c-.2 .9 .2 1.7 .8 2.3c.5 .6 1.3 1 2.2 1c.9 -.1 1.8 -.5 2.7 -1.3l2 2c-.7 .7 -1.4 1.3 -2.1 1.6c-.9 .4 -1.7 .6 -2.8 .6Zm125.6 0c-1.9 0 -3.3 -.6 -4.5 -1.8c-1.2 -1.3 -1.7 -2.7 -1.7 -4.4c0 -1.8 .6 -3.2 1.7 -4.4c1.2 -1.4 2.7 -1.9 4.5 -1.9q.1 0 .2 0c1.7 0 3.3 .8 4.5 2.2l-1.9 2c-1 -.9 -1.8 -1.2 -2.8 -1.2q-.1 0 -.2 0c-.8 0 -1.4 .3 -1.9 .9c-.6 .7 -.8 1.5 -.8 2.4c-.1 .9 .3 1.7 .8 2.3c.5 .6 1.3 1 2.2 1c.9 -.1 1.9 -.5 2.7 -1.3l2 2c-.7 .7 -1.3 1.3 -2.1 1.6c-.8 .4 -1.6 .6 -2.7 .6Zm-149.4 .3c-1.9 0 -3.3 -.5 -4.5 -1.7c-1.1 -1.3 -1.7 -2.8 -1.7 -4.7c0 -1.8 .5 -3.3 1.7 -4.5c1 -1.3 2.5 -1.9 4.2 -1.9c0 0 .1 0 .2 0c1.7 0 3.1 .7 4.1 1.9c.9 1.3 1.4 2.9 1.4 4.7c-.1 .2 0 .5 0 .9h-8.3c.2 .8 .5 1.4 1 1.8c.5 .4 1.2 .6 1.9 .6c1 0 2 -.4 2.9 -1.3l1.9 1.8c-1.2 1.6 -2.8 2.4 -4.8 2.4Zm70 0c-1.9 0 -3.3 -.5 -4.5 -1.7c-1.1 -1.3 -1.7 -2.8 -1.7 -4.7c0 -1.8 .6 -3.3 1.7 -4.5c.9 -1.3 2.5 -1.9 4.2 -1.9c0 0 .1 0 .2 0c1.7 0 3.1 .7 4.1 1.9c.9 1.3 1.4 2.9 1.4 4.7c-.1 .2 0 .5 0 .9h-8.3c.2 .8 .5 1.4 1 1.8c.5 .4 1.2 .6 1.9 .6c1 0 2 -.4 2.9 -1.3l1.9 1.8c-1.2 1.6 -2.8 2.4 -4.8 2.4Zm-97.9 -.3c-1.9 0 -3.4 -.6 -4.6 -1.8c-1.3 -1.3 -1.9 -2.7 -1.9 -4.4c0 -1.8 .7 -3.2 1.9 -4.5c1.2 -1.3 2.8 -1.8 4.6 -1.8c.1 0 .2 0 .3 0c1.7 0 3.2 .7 4.4 1.8c1.1 1.1 1.8 2.7 1.8 4.5c-.1 1.7 -.6 3.2 -1.9 4.4c-1.2 1.1 -2.7 1.8 -4.6 1.8Zm106 3.3V145.5h3.3v1.8c.8 -1.4 2.1 -2 3.6 -2q.1 0 .2 0c1.3 0 2.6 .6 3.6 1.7c1 1.1 1.6 2.7 1.6 4.6c-.2 1.9 -.6 3.4 -1.6 4.5c-1.1 1 -2.3 1.7 -3.8 1.7c-1.5 -.1 -2.6 -.6 -3.6 -1.9v5.2ZM940.7 157.8c-1.2 0 -2.1 -.3 -2.9 -1c-.8 -.7 -1.2 -1.6 -1.2 -2.8c0 -1.3 .4 -2.2 1.3 -2.9c.8 -.7 2 -.9 3.5 -.9c.9 0 1.9 .1 2.9 .4v-.2c0 -1.5 -.9 -2.1 -2.6 -2.1c0 0 -.1 0 -.2 0c-.9 0 -1.9 .2 -3 .6l-.8 -2.6c1.4 -.7 2.9 -1 4.6 -1c.1 0 .2 0 .2 0c1.7 0 3 .5 3.8 1.4c.9 .8 1.3 2.2 1.3 3.9v7h-3.3v-1.3c-.9 1 -2.1 1.5 -3.6 1.5Zm-10.5 0c-2.3 0 -4.1 -.6 -5.5 -1.9l1.5 -2.2c1 .9 2.3 1.5 3.7 1.5c.4 0 .9 -.2 1.3 -.4c.3 -.4 .5 -.6 .5 -1c0 -.5 -.2 -.7 -.6 -.9c-.4 -.3 -.8 -.4 -1.5 -.4h-1.4v-2h1.4c.4 0 .9 -.1 1.3 -.4c.2 -.3 .4 -.5 .4 -.9c0 -.3 -.1 -.6 -.4 -.8c-.4 -.3 -.7 -.4 -1.1 -.4c-.1 0 -.2 0 -.2 0c-1.3 0 -2.2 .5 -3.1 1.3l-1.4 -2.1c1.3 -1.3 3 -1.9 5 -1.9c.1 0 .2 0 .3 0c1.1 0 2.1 .4 3 1c.8 .6 1.3 1.4 1.3 2.3c-.1 1.2 -.6 2.2 -1.8 2.7c1.3 .5 2.1 1.5 2.1 2.8c-.1 1 -.5 1.9 -1.4 2.7c-1 .6 -2 1 -3.4 1Zm237.3 -5.6l-1 -9.8V142h3.9v.4l-1 9.8ZM1044.1 122.3l-.3 -1.4c1.4 -.3 2.2 -.8 2.2 -2v-.2h-1.4v-3.6h3.6v3c-.1 1.4 -.3 2.5 -1 3.1c-.8 .6 -1.7 1 -3.1 1.1Zm-21.1 -6c1 0 1.6 -.4 1.6 -1.1c0 -.9 -.6 -1.2 -1.7 -1.2h-2.7v2.3Zm41 0c1 0 1.6 -.4 1.6 -1.1c0 -.9 -.6 -1.2 -1.7 -1.2h-2.7v2.3Zm-93.8 .4c.7 0 1.4 -.2 1.8 -.6c.4 -.5 .7 -1 .7 -1.6v-.7c-.6 -.3 -1.3 -.5 -2 -.5c-.8 0 -1.3 .2 -1.7 .5c-.5 .3 -.6 .8 -.6 1.3c-.1 .5 .2 .9 .5 1.2c.3 .2 .8 .4 1.3 .4Zm-51.7 -.6c.8 -.1 1.7 -.4 2.2 -1c.6 -.7 .9 -1.4 .9 -2.3c0 -1 -.3 -1.7 -.9 -2.4c-.6 -.6 -1.4 -.9 -2.3 -.9q-.1 0 -.2 0c-.9 0 -1.5 .3 -2.1 .9c-.6 .6 -.8 1.4 -.8 2.4c-.1 .8 .3 1.6 .9 2.3c.5 .6 1.3 1 2.3 1Zm117.6 0c.8 -.1 1.7 -.4 2.2 -1c.6 -.7 .9 -1.4 .9 -2.3c0 -1 -.3 -1.7 -.9 -2.4c-.6 -.6 -1.4 -.9 -2.3 -.9c0 0 -.1 0 -.2 0c-.9 0 -1.5 .3 -2.1 .9c-.6 .6 -.8 1.4 -.8 2.4c-.1 .8 .3 1.6 .9 2.3c.5 .6 1.3 1 2.3 1Zm60.5 0c.9 -.1 1.7 -.4 2.3 -1c.5 -.7 .8 -1.4 .8 -2.3c0 -1 -.3 -1.7 -.8 -2.4c-.7 -.6 -1.4 -.9 -2.3 -.9q-.1 0 -.2 0c-.9 0 -1.6 .3 -2.1 .9c-.7 .6 -.9 1.4 -.9 2.4c-.1 .8 .3 1.6 .9 2.3c.5 .6 1.4 1 2.3 1Zm25 0c.9 -.1 1.7 -.4 2.3 -1c.5 -.7 .8 -1.4 .8 -2.3c0 -1 -.3 -1.7 -.9 -2.4c-.6 -.6 -1.3 -.9 -2.3 -.9c0 0 -.1 0 -.1 0c-.9 0 -1.6 .3 -2.2 .9c-.6 .6 -.8 1.4 -.8 2.4c-.1 .8 .3 1.6 .9 2.3c.5 .6 1.3 1 2.3 1Zm29.7 0c.8 -.1 1.7 -.4 2.2 -1c.6 -.7 .9 -1.4 .9 -2.3c0 -1 -.3 -1.7 -.9 -2.4c-.6 -.6 -1.4 -.9 -2.3 -.9c0 0 -.1 0 -.1 0c-1 0 -1.6 .3 -2.2 .9c-.6 .6 -.8 1.4 -.8 2.4c-.1 .8 .3 1.6 .9 2.3c.5 .6 1.3 1 2.3 1ZM903.8 116c.7 0 1.4 -.3 2 -.9c.5 -.6 .8 -1.4 .8 -2.4c0 -.9 -.3 -1.7 -.8 -2.3c-.6 -.6 -1.2 -.9 -2 -.9q-.1 0 -.2 0c-.7 0 -1.3 .3 -1.8 .9c-.6 .6 -.8 1.4 -.8 2.4c-.1 .9 .2 1.7 .8 2.3c.5 .6 1.2 .9 2 .9Zm53.5 0c.7 0 1.4 -.3 2 -.9c.5 -.6 .8 -1.4 .8 -2.4c0 -.9 -.3 -1.7 -.8 -2.3c-.6 -.6 -1.2 -.9 -2 -.9q-.1 0 -.2 0c-.8 0 -1.3 .3 -1.8 .9c-.6 .6 -.9 1.4 -.9 2.4c-.1 .9 .3 1.7 .9 2.3c.5 .6 1.2 .9 2 .9Zm179.3 0c.7 0 1.5 -.3 2 -.9c.5 -.6 .8 -1.4 .8 -2.4c0 -.9 -.2 -1.7 -.8 -2.3c-.6 -.6 -1.2 -.9 -2 -.9q-.1 0 -.1 0c-.8 0 -1.4 .3 -1.9 .9c-.6 .6 -.8 1.4 -.8 2.4c-.1 .9 .2 1.7 .8 2.3c.5 .6 1.2 .9 2 .9Zm31.2 -4c-.1 -.8 -.3 -1.4 -.8 -1.8c-.5 -.5 -1 -.7 -1.7 -.7c0 0 -.1 0 -.1 0c-.7 0 -1.1 .2 -1.5 .7c-.6 .4 -.8 1 -.9 1.8Zm-145.3 -.3c.4 0 .8 -.1 1 -.4c.2 -.3 .4 -.5 .4 -.8c0 -.4 -.1 -.6 -.3 -.8c-.3 -.3 -.6 -.3 -1 -.3h-2.4v2.3Zm41 0c.4 0 .8 -.1 1.1 -.4c.1 -.3 .3 -.5 .3 -.8c0 -.4 -.1 -.6 -.3 -.8c-.2 -.3 -.6 -.3 -1 -.3h-2.4v2.3Zm-179.7 7.1V106.7h10.7v12.1h-3.4v-9.2h-4v9.2Zm58.5 0v-9.2h-3.6v-2.9H949v2.9h-3.4v9.2Zm36.9 -.1v-12h3.3v4.4h4.4v-4.4h3.3v12h-3.3V114h-4.4v4.7Zm28.9 .1v-9.2h-3.7v-2.9h10.4v2.9h-3.4v9.2Zm8.8 .2V106.7h6.4c1.2 0 2.2 .3 2.9 .8c.6 .5 1 1.4 1 2.3c-.1 1.3 -.5 2.3 -1.7 2.9c1.5 .3 2.4 1.4 2.4 3c-.1 1 -.4 1.8 -1.2 2.4c-.9 .6 -1.9 .9 -3.3 .9Zm41 0V106.7h6.4c1.2 0 2.2 .3 2.9 .8c.6 .5 1 1.4 1 2.3c-.1 1.3 -.5 2.3 -1.7 2.9c1.5 .3 2.4 1.4 2.4 3c-.1 1 -.4 1.8 -1.2 2.4c-.8 .6 -1.9 .9 -3.3 .9Zm20 -.3v-12h3.3v4.9l4.3 -4.9h3.8l-4.3 4.9l4.9 7.1h-4l-3.2 -4.6l-1.5 1.7v2.9Zm29.5 .1v-9.2h-3.7v-2.9H1114v2.9h-3.3v9.2ZM932.8 119c-1.8 0 -3.2 -.6 -4.4 -1.8c-1.2 -1.3 -1.7 -2.7 -1.7 -4.4c0 -1.8 .6 -3.2 1.7 -4.4c1.2 -1.4 2.7 -1.9 4.5 -1.9c0 0 .1 0 .2 0c1.7 0 3.3 .8 4.5 2.2l-2 2c-.9 -.9 -1.7 -1.2 -2.7 -1.2q-.1 0 -.2 0c-.8 0 -1.4 .3 -1.9 .9c-.6 .6 -.8 1.4 -.8 2.4c-.1 .9 .3 1.7 .8 2.3c.5 .6 1.3 1 2.2 1c.9 -.1 1.8 -.5 2.7 -1.3l2 2c-.7 .7 -1.3 1.3 -2.1 1.6c-.8 .4 -1.6 .6 -2.8 .6Zm65.8 0c-1.8 0 -3.2 -.6 -4.4 -1.8c-1.2 -1.3 -1.8 -2.7 -1.8 -4.4c0 -1.8 .6 -3.2 1.8 -4.4c1.2 -1.4 2.7 -1.9 4.5 -1.9c0 0 .1 0 .2 0c1.7 0 3.3 .8 4.5 2.2l-2 2c-.9 -.9 -1.7 -1.2 -2.7 -1.2q-.1 0 -.2 0c-.8 0 -1.4 .3 -1.9 .9c-.6 .6 -.8 1.4 -.8 2.4c-.1 .9 .2 1.7 .8 2.3c.5 .6 1.3 1 2.2 1c.9 -.1 1.8 -.5 2.7 -1.3l2 2c-.7 .7 -1.4 1.3 -2.1 1.6c-.8 .4 -1.7 .6 -2.8 .6Zm167.1 .3c-1.9 0 -3.3 -.6 -4.5 -1.7c-1.2 -1.3 -1.7 -2.8 -1.7 -4.7c0 -1.8 .5 -3.3 1.6 -4.5c1 -1.3 2.5 -1.9 4.2 -1.9c.1 0 .2 0 .2 0c1.8 0 3.2 .7 4.1 1.9c1 1.3 1.5 2.9 1.5 4.7c-.1 .2 0 .5 0 .9h-8.3c.2 .8 .5 1.4 1 1.8c.5 .3 1.2 .6 1.9 .6c1 0 2 -.4 2.9 -1.3l1.9 1.8c-1.2 1.6 -2.8 2.4 -4.8 2.4ZM918.4 119c-1.9 0 -3.4 -.6 -4.6 -1.8c-1.3 -1.3 -1.9 -2.7 -1.9 -4.4c0 -1.8 .7 -3.3 1.9 -4.5c1.2 -1.3 2.8 -1.8 4.6 -1.8c.1 0 .2 0 .2 0c1.8 0 3.3 .7 4.5 1.8c1.1 1.1 1.8 2.7 1.8 4.5c-.1 1.7 -.6 3.2 -1.9 4.4c-1.2 1.1 -2.7 1.8 -4.6 1.8Zm117.6 0c-1.9 0 -3.4 -.6 -4.6 -1.8c-1.3 -1.3 -1.9 -2.7 -1.9 -4.4c0 -1.8 .7 -3.3 1.9 -4.5c1.2 -1.3 2.8 -1.8 4.6 -1.8c.1 0 .2 0 .2 0c1.8 0 3.3 .7 4.5 1.8c1.1 1.1 1.8 2.7 1.8 4.5c-.1 1.7 -.6 3.2 -1.9 4.4c-1.2 1.1 -2.7 1.8 -4.6 1.8Zm60.6 0c-1.9 0 -3.4 -.6 -4.7 -1.8c-1.2 -1.3 -1.8 -2.7 -1.8 -4.4c0 -1.8 .6 -3.3 1.9 -4.5c1.1 -1.3 2.8 -1.8 4.6 -1.8q.1 0 .2 0c1.7 0 3.2 .7 4.4 1.8c1.2 1.1 1.9 2.7 1.9 4.5c-.1 1.7 -.7 3.2 -1.9 4.4c-1.3 1.1 -2.8 1.8 -4.6 1.8Zm24.9 0c-1.9 0 -3.4 -.6 -4.6 -1.8c-1.3 -1.3 -1.8 -2.7 -1.8 -4.4c0 -1.8 .6 -3.3 1.8 -4.5c1.2 -1.3 2.8 -1.8 4.7 -1.8c0 0 .1 0 .2 0c1.7 0 3.2 .7 4.4 1.8c1.2 1.1 1.8 2.7 1.8 4.5c-.1 1.7 -.6 3.2 -1.8 4.4c-1.3 1.1 -2.8 1.8 -4.7 1.8Zm29.7 0c-1.9 0 -3.4 -.6 -4.6 -1.8c-1.3 -1.3 -1.8 -2.7 -1.8 -4.4c0 -1.8 .6 -3.3 1.8 -4.5c1.2 -1.3 2.8 -1.8 4.7 -1.8c0 0 .1 0 .2 0c1.7 0 3.2 .7 4.4 1.8c1.2 1.1 1.8 2.7 1.8 4.5c-.1 1.7 -.6 3.2 -1.9 4.4c-1.2 1.1 -2.7 1.8 -4.6 1.8Zm-253.6 3.3V106.7H901v1.8c.8 -1.4 2.1 -2 3.6 -2q.1 0 .2 0c1.3 0 2.6 .6 3.6 1.7c1 1.1 1.5 2.6 1.5 4.6c-.1 1.8 -.5 3.4 -1.5 4.5c-1.1 1 -2.3 1.7 -3.8 1.7c-1.6 -.1 -2.7 -.6 -3.6 -1.9v5.2Zm53.5 0V106.7h3.3v1.8c.9 -1.4 2.2 -2 3.7 -2c0 0 .1 0 .2 0c1.2 0 2.5 .6 3.5 1.7c1.1 1.1 1.6 2.6 1.6 4.6c-.1 1.8 -.5 3.4 -1.5 4.5c-1.1 1 -2.3 1.7 -3.8 1.7c-1.6 -.1 -2.7 -.6 -3.7 -1.9v5.2Zm179.4 0V106.7h3.3v1.8c.8 -1.4 2.1 -2 3.6 -2q.1 0 .2 0c1.3 0 2.6 .6 3.6 1.7c1 1.1 1.5 2.6 1.5 4.6c-.1 1.8 -.5 3.4 -1.5 4.5c-1.1 1 -2.3 1.7 -3.8 1.7c-1.5 -.1 -2.7 -.6 -3.6 -1.9v5.2ZM969.2 119c-1.2 0 -2.2 -.3 -3 -1c-.8 -.7 -1.1 -1.6 -1.1 -2.8c0 -1.3 .4 -2.2 1.3 -2.9c.7 -.7 2 -.9 3.5 -.9c.9 0 1.9 .1 2.8 .4v-.2c0 -1.5 -.8 -2.1 -2.5 -2.1q-.1 0 -.2 0c-1 0 -1.9 .2 -3 .6l-.9 -2.6c1.5 -.7 3 -1 4.7 -1c0 0 .1 0 .2 0c1.7 0 2.9 .5 3.8 1.4c.8 .8 1.3 2.1 1.3 3.8v7.1h-3.4v-1.3c-.9 1 -2.1 1.5 -3.5 1.5ZM979.6 76.9c1.6 0 2.5 -.6 2.5 -1.7c0 -1.2 -.8 -1.7 -2.6 -1.7h-4v3.4Zm101.4 .3c.9 0 1.7 -.3 2.3 -.9c.5 -.7 .8 -1.4 .8 -2.3c0 -1 -.3 -1.7 -.9 -2.4c-.6 -.6 -1.3 -.9 -2.3 -.9c0 0 -.1 0 -.1 0c-.9 0 -1.6 .3 -2.2 .9c-.6 .6 -.8 1.4 -.8 2.4c-.1 .8 .3 1.6 .9 2.3c.5 .6 1.3 .9 2.3 .9Zm53.5 0c.8 0 1.7 -.3 2.2 -.9c.6 -.7 .9 -1.4 .9 -2.3c0 -1 -.3 -1.7 -.9 -2.4c-.6 -.6 -1.4 -.9 -2.3 -.9c0 0 -.1 0 -.2 0c-.9 0 -1.5 .3 -2.1 .9c-.6 .6 -.8 1.4 -.8 2.4c-.1 .8 .3 1.6 .9 2.3c.5 .6 1.3 .9 2.3 .9Zm-14.7 0c.7 0 1.5 -.3 2 -.9c.5 -.6 .8 -1.4 .8 -2.4c0 -.9 -.2 -1.7 -.8 -2.3c-.6 -.6 -1.2 -.9 -2 -.9q-.1 0 -.2 0c-.7 0 -1.3 .3 -1.8 .9c-.6 .6 -.8 1.4 -.8 2.4c-.1 .9 .2 1.7 .8 2.3c.5 .6 1.2 .9 2 .9Zm-108 -4c-.1 -.8 -.3 -1.4 -.8 -1.8c-.5 -.5 -1 -.7 -1.7 -.7c0 0 -.1 0 -.1 0c-.7 0 -1.1 .2 -1.6 .7c-.5 .4 -.7 1 -.8 1.8Zm37 0c-.1 -.8 -.4 -1.4 -.8 -1.8c-.5 -.5 -1 -.7 -1.7 -.7q-.1 0 -.2 0c-.6 0 -1.1 .2 -1.5 .7c-.5 .4 -.8 1 -.9 1.8Zm-61 6.7v-12h3.4l3.3 5l3.3 -5h3.3v12h-3.3V72.7l-3.4 4.9l-3.3 -4.9v7.2Zm44.9 .1V70.8h-3.6V67.9h10.3v2.9H1036V80Zm28.6 0V67.9H1072V80h-3.4V70.8h-4V80Zm43.5 0V70.8h-3.6V67.9h10.3v2.9h-3.3V80Zm38.5 -.1v-12h3.4v7l4.4 -7h3.2v12H1151v-7l-4.4 7Zm14.1 0v-12h3.4l3.3 5l3.3 -5h3.3v12h-3.3V72.7l-3.4 4.9l-3.3 -4.9v7.2Zm-134.2 .3c-1.8 0 -3.2 -.6 -4.4 -1.8c-1.2 -1.3 -1.7 -2.7 -1.7 -4.4c0 -1.8 .6 -3.2 1.7 -4.5c1.2 -1.3 2.7 -1.8 4.5 -1.8c0 0 .1 0 .2 0c1.7 0 3.3 .8 4.5 2.1l-2 2c-.9 -.8 -1.7 -1.1 -2.7 -1.1q-.1 0 -.2 0c-.8 0 -1.4 .3 -1.9 .9c-.6 .6 -.8 1.4 -.8 2.4c-.1 .9 .3 1.7 .8 2.3c.5 .6 1.3 .9 2.2 .9c.9 0 1.8 -.4 2.7 -1.2l2 2c-.7 .7 -1.4 1.3 -2.1 1.6c-.8 .4 -1.7 .6 -2.8 .6Zm72.2 0c-1.9 0 -3.3 -.6 -4.5 -1.8c-1.2 -1.3 -1.7 -2.7 -1.7 -4.4c0 -1.8 .6 -3.2 1.8 -4.5c1.1 -1.3 2.6 -1.8 4.4 -1.8q.1 0 .2 0c1.7 0 3.3 .8 4.5 2.1l-1.9 2c-1 -.8 -1.8 -1.1 -2.8 -1.1q-.1 0 -.1 0c-.9 0 -1.5 .3 -2 .9c-.6 .6 -.8 1.4 -.8 2.4c-.1 .9 .3 1.7 .8 2.3c.5 .6 1.3 .9 2.2 .9c1 0 1.9 -.4 2.8 -1.2l1.9 2c-.6 .7 -1.3 1.3 -2.1 1.6c-.8 .4 -1.6 .6 -2.7 .6Zm-85.7 .3c-1.9 0 -3.3 -.6 -4.5 -1.7c-1.2 -1.3 -1.7 -2.8 -1.7 -4.7c0 -1.8 .5 -3.3 1.6 -4.5c1 -1.3 2.5 -1.9 4.2 -1.9c.1 0 .2 0 .2 0c1.7 0 3.2 .7 4.1 1.9c1 1.3 1.5 2.8 1.5 4.7c-.1 .2 0 .5 0 .9h-8.3c.2 .8 .5 1.4 1 1.8c.5 .3 1.1 .6 1.9 .6c1 0 2 -.4 2.9 -1.3l1.9 1.8c-1.2 1.5 -2.8 2.4 -4.8 2.4Zm36.9 0c-1.9 0 -3.3 -.6 -4.4 -1.7c-1.2 -1.3 -1.8 -2.8 -1.8 -4.7c0 -1.8 .6 -3.3 1.7 -4.5c1 -1.3 2.5 -1.9 4.2 -1.9c0 0 .1 0 .2 0c1.7 0 3.1 .7 4.1 1.9c.9 1.3 1.4 2.8 1.4 4.7c-.1 .2 0 .5 0 .9h-8.2c.1 .8 .4 1.4 .9 1.8c.5 .3 1.2 .6 2 .6c.9 0 2 -.4 2.8 -1.3l2 1.8c-1.3 1.5 -2.9 2.4 -4.9 2.4Zm34.3 -.3c-1.9 0 -3.4 -.6 -4.6 -1.8c-1.3 -1.3 -1.8 -2.7 -1.8 -4.4c0 -1.8 .6 -3.3 1.8 -4.5c1.2 -1.3 2.8 -1.8 4.7 -1.8c0 0 .1 0 .2 0c1.7 0 3.2 .7 4.4 1.8c1.2 1.1 1.8 2.7 1.8 4.5c-.1 1.7 -.6 3.2 -1.8 4.4c-1.3 1.1 -2.8 1.8 -4.7 1.8Zm53.5 0c-1.9 0 -3.4 -.6 -4.6 -1.8c-1.3 -1.3 -1.9 -2.7 -1.9 -4.4c0 -1.8 .7 -3.3 1.9 -4.5c1.2 -1.3 2.8 -1.8 4.6 -1.8c.1 0 .2 0 .3 0c1.7 0 3.2 .7 4.4 1.8c1.1 1.1 1.8 2.7 1.8 4.5c-.1 1.7 -.6 3.2 -1.9 4.4c-1.2 1.1 -2.7 1.8 -4.6 1.8Zm-20.8 3.3V67.9h3.4v1.8c.8 -1.4 2.1 -2 3.6 -2q.1 0 .2 0c1.3 0 2.6 .6 3.6 1.7c1 1.1 1.5 2.6 1.5 4.6c-.1 1.8 -.5 3.4 -1.5 4.5c-1.1 1 -2.3 1.7 -3.8 1.7c-1.6 -.1 -2.7 -.7 -3.6 -1.9v5.2Zm-135 -13c1.6 0 2.5 -.5 2.5 -1.7c0 -.6 -.2 -.9 -.6 -1.2c-.4 -.3 -.9 -.4 -1.6 -.4h-3.4v3.3Zm-6.5 9.4V64.2h7.2c1.7 0 3.2 .5 4.1 1.4c.6 .7 1 1.6 1 2.7c-.1 1.5 -.6 2.6 -1.8 3.4c.9 .3 1.6 .9 2.1 1.5c.4 .5 .7 1.4 .7 2.4c-.1 1.4 -.5 2.4 -1.5 3.2c-1.1 .6 -2.5 1.1 -4.3 1.1Z"/></clipPath>
<clipPath id="c2_34"><path d="M470 184.7v-6.2h6.3v6.2ZM426.8 173.6l-3.6 -8.9l-3.6 8.9Zm44.8 1.9l-1.9 -17.2v-.7h6.9v.7l-1.8 17.2Zm-146.8 9.2V157.4h20.4v5.3H330.6v5.7h13v5.3h-13v5.7h14.8v5.3Zm26.8 0V157.4h5.8v17.9l12 -17.9h5.5v27.3H369V166.8l-11.9 17.9Zm46.3 0v-10c-2.8 1.2 -5.1 2 -7.2 2c-2.8 0 -5 -.8 -6.6 -2.3c-1.7 -1.5 -2.5 -3.8 -2.5 -6.9V157.4h5.8v8.3c0 3.5 1.5 5.4 4.5 5.4c2.4 0 4.5 -.6 6 -1.8V157.4h5.8v27.3Zm11 .2l11.7 -27.5h5.5l11.6 27.5h-6.3L429 178.7H417.5l-2.5 6.2ZM308 185c-4.1 0 -7.3 -1.3 -10 -4c-2.7 -2.9 -4 -6.1 -4 -10.1c0 -4 1.4 -7.3 4.1 -10c2.6 -2.8 6 -4.1 10.1 -4.1q.1 0 .1 0c2.2 0 4.3 .4 5.9 1.1c1.5 .8 3.1 1.9 4.6 3.4l-3.6 4.1c-1.2 -1 -2.2 -1.8 -3.3 -2.3c-1.1 -.5 -2.2 -.7 -3.7 -.7c-2.3 0 -4.1 .8 -5.6 2.5c-1.6 1.6 -2.2 3.6 -2.2 6c0 2.3 .7 4.4 2.2 6c1.4 1.6 3.4 2.5 5.6 2.5c1.4 0 2.7 -.3 3.8 -.8c.9 -.6 2.2 -1.3 3.4 -2.4l3.8 4.1c-1.6 1.5 -3.1 2.8 -4.8 3.6c-1.8 .7 -3.9 1.1 -6.4 1.1Zm145.8 0c-4.1 0 -7.3 -1.3 -9.9 -4c-2.8 -2.9 -4 -6.1 -4 -10.1c0 -4 1.3 -7.3 4 -10c2.6 -2.8 6 -4.1 10.2 -4.1c2.3 0 4.3 .4 5.9 1.1c1.6 .8 3.2 1.9 4.6 3.4l-3.6 4.1c-1.2 -1 -2.2 -1.8 -3.2 -2.3c-1.1 -.5 -2.3 -.7 -3.7 -.7c-2.4 0 -4.2 .8 -5.7 2.5c-1.5 1.6 -2.2 3.6 -2.2 6c0 2.3 .7 4.4 2.2 6c1.4 1.6 3.4 2.5 5.7 2.5c1.3 0 2.7 -.3 3.7 -.8c1 -.6 2.2 -1.3 3.4 -2.4l3.8 4.1c-1.5 1.5 -3.1 2.8 -4.8 3.6c-1.7 .7 -3.9 1.1 -6.4 1.1ZM363.3 155.4c-1.8 0 -3.3 -.5 -4.4 -1.5c-1.2 -1.1 -1.9 -2.6 -2.1 -4.4l3.4 -.7c.6 1.8 1.6 2.6 3.1 2.6c1.5 0 2.5 -.8 3.1 -2.6l3.4 .7c-.3 1.8 -.9 3.3 -2.1 4.4c-1.2 1 -2.6 1.5 -4.4 1.5Zm-55 -27.1c2.7 -.1 4.2 -1 4.2 -3.1c0 -2 -1.5 -3 -4.4 -3h-6.9v6.1Zm161.4 0c2.7 -.1 4.2 -1 4.2 -3.1c-.1 -2 -1.5 -3 -4.4 -3h-6.9v6.1Zm130.9 -.2c2.7 0 4.2 -1.1 4.2 -3.4c0 -2.3 -1.4 -3.3 -4.3 -3.3h-6.7v6.7Zm-248.3 0V111.5h-8v2.8c-.1 5.1 -.8 9.8 -2.5 13.8Zm308.7 0V111.5h-8v2.8c0 5.1 -.8 9.8 -2.5 13.8Zm-354.3 -11c2.9 0 4.3 -1 4.3 -3c-.1 -1 -.3 -1.6 -1 -2.1c-.8 -.6 -1.6 -.7 -2.9 -.7h-5.9v5.8Zm161.4 0c2.8 0 4.3 -1 4.3 -3c-.1 -1 -.3 -1.6 -1 -2.1c-.8 -.6 -1.7 -.7 -2.9 -.7h-5.9v5.8Zm-31.9 11c2.3 0 4.3 -.8 5.8 -2.4c1.5 -1.8 2.3 -3.7 2.3 -6.1c-.1 -2.4 -.8 -4.4 -2.3 -6c-1.6 -1.7 -3.5 -2.5 -5.9 -2.5c-2.4 0 -4.3 .9 -5.8 2.5c-1.7 1.6 -2.3 3.6 -2.3 6c0 2.3 .8 4.4 2.3 6c1.4 1.6 3.5 2.5 5.9 2.5Zm92.8 0c2.3 0 4.3 -.8 5.8 -2.4c1.5 -1.8 2.3 -3.7 2.3 -6.1c-.1 -2.4 -.8 -4.4 -2.3 -6c-1.5 -1.7 -3.5 -2.5 -5.9 -2.5c-2.4 0 -4.3 .9 -5.8 2.5c-1.6 1.6 -2.3 3.6 -2.3 6c0 2.3 .8 4.4 2.3 6c1.5 1.6 3.5 2.5 5.9 2.5Zm-233.6 5.3V106.1h12.5c3 0 5.5 .9 7.1 2.5c1.1 1.2 1.8 2.8 1.8 4.7c0 2.5 -1.1 4.5 -3.5 5.9c1.7 .6 2.9 1.5 3.8 2.5c.8 1 1.2 2.5 1.2 4.2c-.1 2.4 -.9 4.3 -2.7 5.6c-1.9 1.3 -4.2 1.9 -7.4 1.9Zm37.6 5.7v-11h2.5c1.1 -2.5 1.8 -5.1 2.3 -7.9c.3 -2.8 .7 -6.4 .7 -10.8v-3.3h19.6v22h3.3l-.8 11h-5v-5.7H338.7l-.4 5.7Zm60.6 -5.7l9.5 -13.9L394 106.1h7l5.7 8.9l5.7 -8.9h6.8l-9.1 13.4l9.5 13.9h-7l-6.1 -9.3l-6.1 9.3Zm63.2 0V106.1h12.5c3 0 5.5 .9 7.1 2.5c1.1 1.2 1.8 2.8 1.8 4.7c0 2.5 -1.2 4.5 -3.5 5.9c1.7 .6 2.9 1.5 3.8 2.5c.8 1 1.2 2.5 1.2 4.2c-.1 2.4 -.9 4.3 -2.7 5.6c-1.9 1.3 -4.3 1.9 -7.4 1.9Zm28.8 0V106.1h5.8v10.7h11.3V106.1h5.8v27.3h-5.8v-11H491.4v11Zm64 0V106.1h20.5v5.4H555.4v5.6h13v5.3h-13v5.7h14.8v5.3Zm38.4 0V106.1h20.8v5.4h-15v4.8h7.3c.1 0 .2 0 .3 0c2.9 0 5.1 .9 6.7 2.3c1.7 1.5 2.5 3.6 2.5 6.2c-.1 2.7 -.8 4.9 -2.6 6.4c-1.9 1.4 -4.3 2.2 -7.4 2.2Zm53.7 5.7v-11h2.5c1.1 -2.5 1.8 -5.1 2.3 -7.9c.4 -2.8 .7 -6.4 .7 -10.8v-3.3h19.6v22h3.3l-.8 11h-4.9v-5.7h-17l-.4 5.7Zm97.6 0v-5.7H704.5V106.1h5.8v22h9.8v-22h5.8v22h10v-22h5.8v22h3.2l-.7 11ZM750 133.4V106.1h20.4v5.4H755.8v5.6h12.9v5.3H755.8v5.7h14.8v5.3Zm26.7 0V106.1h20.5v5.4H782.6v5.6h12.9v5.3H782.6v5.7h14.8v5.3Zm-405.1 .3c-2.1 0 -4 -.5 -5.8 -1.6l2.3 -4.4c.9 .5 2 .9 3.2 .9c1.3 0 2.5 -.7 3.4 -2.1L363.8 106h6.7l7.4 14.4L384.4 106h6.5l-10.4 21.1c-1.2 2.3 -2.5 4 -3.9 5.1c-1.4 1 -3 1.5 -5 1.5Zm250 0c-2.1 0 -4 -.5 -5.9 -1.6l2.3 -4.4c.9 .5 2.1 .9 3.3 .9c1.2 0 2.4 -.7 3.4 -2.1L613.8 106h6.7l7.4 14.4L634.4 106h6.5l-10.5 21.1c-1.1 2.3 -2.4 4 -3.8 5.1c-1.5 1 -3.1 1.5 -5 1.5Zm58.7 0c-2.1 0 -4 -.5 -5.8 -1.6l2.3 -4.4c.9 .5 2.1 .9 3.2 .9c1.3 0 2.5 -.7 3.4 -2.1L672.6 106h6.6l7.4 14.4L693.2 106h6.5l-10.5 21.1c-1.2 2.3 -2.4 4 -3.8 5.1c-1.5 1 -3.1 1.5 -5.1 1.5Zm-244.2 0c-4.2 0 -7.6 -1.3 -10.3 -4.1c-2.8 -2.8 -4.1 -6 -4.1 -10c0 -4 1.3 -7.3 4.1 -10c2.7 -2.8 6.2 -4.1 10.4 -4.1c4 0 7.6 1.4 10.3 4.1c2.7 2.7 4.1 6.1 4.1 10c-.1 3.9 -1.4 7.3 -4.1 10c-2.9 2.7 -6.3 4.1 -10.4 4.1Zm92.8 0c-4.2 0 -7.6 -1.3 -10.3 -4.1c-2.8 -2.8 -4.1 -6 -4.1 -10c0 -4 1.4 -7.3 4.1 -10c2.8 -2.8 6.3 -4.1 10.4 -4.1c4.1 0 7.6 1.4 10.3 4.1c2.7 2.7 4.1 6.1 4.1 10c-.1 3.9 -1.3 7.3 -4.1 10c-2.8 2.7 -6.2 4.1 -10.4 4.1ZM369.3 77c2.7 0 4.2 -1 4.2 -3.1C373.4 71.9 372 71 369.1 71h-6.9v6ZM507.9 68.5c1.5 0 2.8 -.4 3.6 -1.2c.9 -.8 1.3 -1.8 1.3 -3c-.1 -1.4 -.4 -2.3 -1.3 -3c-.9 -.8 -2.1 -1.1 -3.7 -1.1H503v8.3ZM367.7 65.8c2.8 0 4.3 -1 4.3 -3c-.1 -1 -.4 -1.6 -1 -2.1c-.8 -.5 -1.7 -.7 -2.9 -.7h-5.9v5.8ZM295.4 82.1V54.9h5.8V72.7l12 -17.8h5.5V82.1h-5.9V64.3L300.9 82.1Zm30.7 0V54.9h5.8V65.5h11.3V54.9H349V82.1h-5.8V71.2H331.9V82.1Zm59 0V54.9h20.5v5.3H391v5.6h12.9v5.4H391v5.6h14.8v5.3Zm61.8 .2V60.5h-8.3V54.9h22.6v5.6h-8.5V82.3Zm19.6 -.2V54.9h5.8V72.7l12 -17.8h5.5V82.1H484V64.3L472 82.1Zm85.9 0V54.9h5.8V72.7l12 -17.8h5.5V82.1h-5.8V64.3l-12 17.8Zm37 .2V60.5h-8.3V54.9h22.6v5.6h-8.5V82.3ZM609 82.1V54.9h20.5v5.3H614.8v5.6h13v5.4h-13v5.6h14.8v5.3ZM497.2 82V54.9h11.2c3.1 0 5.7 .8 7.6 2.6c1.8 1.6 2.8 4 2.8 6.8c-.1 3 -1 5.4 -3.1 7c-2.2 1.6 -4.8 2.5 -8.1 2.5H503V82Zm-140.9 .1V54.9h12.6c3 0 5.4 .8 7 2.4c1.2 1.2 1.9 2.8 1.9 4.7c-.1 2.5 -1.2 4.5 -3.5 5.9c1.7 .6 2.9 1.5 3.7 2.5c.9 1 1.3 2.5 1.3 4.3c-.1 2.3 -.9 4.3 -2.7 5.5c-1.9 1.3 -4.3 1.9 -7.4 1.9Zm172 .4c-2.1 0 -4 -.6 -5.9 -1.6l2.3 -4.4c.9 .5 2.1 .9 3.3 .9c1.2 -.1 2.4 -.8 3.4 -2.2L520.5 54.7h6.7l7.3 14.4l6.6 -14.4h6.5L537.1 75.8c-1.1 2.4 -2.4 4.1 -3.8 5.1c-1.5 1 -3.1 1.6 -5 1.6Zm-104.5 0c-4.1 0 -7.3 -1.4 -10 -4.1c-2.8 -2.8 -4 -6.1 -4 -10.1c0 -4 1.4 -7.3 4 -10c2.7 -2.8 6.1 -4.1 10.2 -4.1h.1c2.2 0 4.3 .4 5.9 1.2c1.5 .7 3.1 1.9 4.6 3.3L431 62.9c-1.2 -1.1 -2.3 -1.9 -3.3 -2.3c-1.1 -.5 -2.2 -.7 -3.7 -.7c-2.3 0 -4.1 .8 -5.6 2.4c-1.6 1.6 -2.3 3.6 -2.3 6c0 2.3 .8 4.4 2.3 6c1.4 1.6 3.3 2.5 5.6 2.5c1.4 0 2.7 -.2 3.8 -.8c.9 -.5 2.2 -1.3 3.3 -2.3l3.9 4c-1.6 1.6 -3.1 2.8 -4.9 3.6c-1.7 .7 -3.8 1.2 -6.3 1.2ZM564.1 52.9c-1.8 0 -3.2 -.6 -4.4 -1.6c-1.1 -1.1 -1.8 -2.5 -2.1 -4.4l3.5 -.6c.5 1.7 1.5 2.6 3 2.6c1.5 0 2.6 -.9 3.1 -2.6l3.5 .6c-.4 1.9 -1 3.3 -2.1 4.4c-1.3 1 -2.7 1.6 -4.5 1.6Z"/></clipPath>
<clipPath id="c3_34"><path d="M400.2 361.9c.9 -.1 1.7 -.3 2.3 -.7c.7 -.6 1 -1.1 1 -1.9v-.9c-1 -.2 -1.9 -.4 -2.9 -.4c-.9 0 -1.6 .2 -2.1 .6c-.6 .3 -.8 .8 -.8 1.4c-.1 .5 .3 1 .7 1.4c.4 .2 1.1 .5 1.8 .5Zm-71.5 -.2v-7.3h-4.2v1.4c0 2.4 -.4 4.4 -1.2 5.9Zm12.2 0v-7.3h-4.1v1.4c-.1 2.4 -.4 4.4 -1.3 5.9Zm-26.6 .2c1 -.1 1.9 -.4 2.6 -1.1c.6 -.8 1.1 -1.7 1.1 -2.7c0 -1.1 -.4 -2 -1.1 -2.8c-.8 -.8 -1.6 -1.1 -2.7 -1.1c0 0 -.1 0 -.2 0c-1 0 -1.8 .4 -2.4 1.1c-.8 .7 -1.1 1.7 -1.1 2.8c0 1 .4 1.9 1.1 2.7c.6 .7 1.6 1.1 2.7 1.1Zm48.2 0c1 -.1 1.9 -.4 2.6 -1.1c.5 -.7 1 -1.6 1 -2.8c0 -1.2 -.4 -2 -1.1 -2.7c-.7 -.8 -1.5 -1.1 -2.5 -1.1c0 0 -.1 0 -.1 0c-1 0 -1.7 .4 -2.4 1.1c-.8 .6 -1.1 1.6 -1.1 2.8c0 1.1 .4 2 1.1 2.7c.6 .7 1.6 1.1 2.5 1.1Zm-9.1 -4.5c-.2 -.9 -.4 -1.7 -1 -2.3c-.6 -.6 -1.3 -.9 -2.3 -.9q-.1 0 -.2 0c-.8 0 -1.4 .4 -2 .9c-.7 .6 -1 1.4 -1.1 2.3ZM297.6 363v-9.9h8.7V363h-1.5v-8.6h-5.6V363Zm22.9 2.7v-4h1.1c.9 -1.6 1.4 -3.9 1.4 -6.9v-1.7h7.2v8.6h1.5v4h-1.5V363h-8.1l-.3 2.7Zm12.3 0v-4h1.1c.8 -1.6 1.4 -3.9 1.4 -6.9v-1.7h7.1v8.6h1.5v4h-1.5V363h-8.1l-.3 2.7ZM368.6 363l4.1 -5.7l-3.9 -4.2h1.8l5.1 5.7v-5.7h1.5v5.7l5.1 -5.7h1.8l-3.9 4.2l4.2 5.7h-1.8l-3.3 -4.6l-2.1 2.2V363h-1.5v-2.4l-2 -2.2l-3.4 4.6Zm17.6 0v-9.9h1.6v5.7l5.4 -5.7h1.9l-4.2 4.3l4.3 5.6h-1.8l-3.5 -4.5l-2.1 2.1V363Zm-72 .2c-1.5 -.1 -2.7 -.5 -3.7 -1.5C309.4 360.6 309 359.5 309 358c0 -1.4 .5 -2.6 1.5 -3.6c1 -1 2.3 -1.5 3.8 -1.5c0 0 .1 0 .2 0c1.3 0 2.6 .5 3.5 1.5c1 1 1.5 2.2 1.5 3.6c0 1.5 -.5 2.7 -1.5 3.7c-1 .9 -2.3 1.5 -3.8 1.5Zm36.1 0c-1.4 -.1 -2.6 -.5 -3.6 -1.4c-1 -1 -1.4 -2.2 -1.4 -3.8c0 -1.4 .4 -2.6 1.4 -3.6c.9 -1 2.1 -1.5 3.4 -1.5c.1 0 .2 0 .2 0c1.3 0 2.5 .5 3.3 1.5c.9 1 1.3 2.3 1.3 3.8c0 .1 0 .4 0 .5h-8.1c0 1 .5 1.7 1.2 2.3c.6 .5 1.5 .9 2.4 .9c1.2 -.1 2.3 -.5 3.2 -1.4l1 .8c-1.3 1.2 -2.6 1.9 -4.3 1.9Zm7.1 2.8V353.1h1.5v2c1 -1.5 2.3 -2.2 3.9 -2.2q.1 0 .2 0c1.2 0 2.2 .5 3.2 1.4c.9 .8 1.4 2.2 1.4 3.8c-.1 1.5 -.5 2.7 -1.4 3.7c-1 .9 -2.1 1.4 -3.4 1.4c-1.6 -.1 -2.9 -.7 -3.9 -2.1V366Zm42.5 -2.8c-1 -.1 -1.9 -.3 -2.6 -.8c-.8 -.7 -1.1 -1.4 -1.1 -2.4c0 -1.1 .4 -1.9 1.1 -2.4c.8 -.7 1.9 -.9 3.1 -.9c1 0 2.1 .2 3.1 .5v-.3c0 -.9 -.3 -1.5 -.8 -2c-.6 -.5 -1.2 -.7 -2.1 -.7c-.1 0 -.2 0 -.3 0c-.9 0 -1.8 .3 -2.8 .7l-.4 -1.2c1.2 -.5 2.4 -.8 3.6 -.8c.1 0 .2 0 .3 0c1.2 0 2.3 .4 3 1.1c.6 .6 1 1.7 1 2.9V363h-1.5v-1.6c-.9 1.2 -2.1 1.8 -3.6 1.8ZM402.3 334c.6 0 1.2 -.2 1.6 -.4c.4 -.4 .6 -.7 .6 -1.2c0 -.5 -.2 -.8 -.6 -1c-.5 -.3 -1 -.4 -1.8 -.4H399v3Zm-46.4 .1c.9 0 1.7 -.2 2.3 -.7c.6 -.5 1 -1.1 1 -1.8v-.9c-1 -.3 -2 -.4 -2.9 -.4c-1 0 -1.6 .2 -2.1 .5c-.7 .3 -.8 .9 -.8 1.5c-.1 .4 .2 1 .7 1.3c.4 .3 1.1 .5 1.8 .5Zm92 0c.9 0 1.7 -.2 2.3 -.7c.6 -.5 1 -1.1 1 -1.8v-.9c-1 -.3 -2 -.4 -2.9 -.4c-1 0 -1.6 .2 -2.2 .5c-.6 .3 -.7 .9 -.7 1.5c-.1 .4 .2 1 .7 1.3c.4 .3 1.1 .5 1.8 .5ZM347.5 334v-7.3h-4.1V328c-.1 2.5 -.4 4.5 -1.3 6Zm54.6 -4.3c.5 0 1.1 -.2 1.4 -.5c.4 -.3 .6 -.6 .6 -1.1c0 -.5 -.2 -.8 -.5 -1.1c-.4 -.2 -.9 -.3 -1.5 -.3H399v3Zm60 .6v-3.6H459c-.8 0 -1.3 .1 -1.8 .4c-.4 .3 -.6 .8 -.6 1.4c-.1 .5 .2 1 .7 1.3c.4 .3 1 .5 1.7 .5Zm-151.3 3.8c1 0 1.9 -.3 2.6 -1.1c.6 -.7 1.1 -1.6 1.1 -2.7c0 -1 -.4 -1.9 -1.1 -2.7c-.8 -.8 -1.6 -1.1 -2.7 -1.1c0 0 -.1 0 -.2 0c-1 0 -1.8 .4 -2.4 1.1c-.8 .7 -1.1 1.7 -1.1 2.7c0 1.1 .4 2 1.1 2.7c.6 .8 1.6 1.1 2.7 1.1Zm58.1 0c1 0 1.8 -.3 2.5 -1c.6 -.7 1 -1.6 1 -2.8c0 -1.2 -.3 -2 -1 -2.7c-.8 -.8 -1.5 -1.1 -2.5 -1.1q-.1 0 -.2 0c-.9 0 -1.7 .4 -2.3 1.1c-.8 .6 -1.1 1.6 -1.1 2.7c-.1 1.1 .4 2.1 1.1 2.8c.6 .7 1.5 1 2.5 1Zm47.3 -4.4c-.1 -1 -.4 -1.7 -.9 -2.3c-.6 -.6 -1.4 -.9 -2.3 -.9q-.1 0 -.2 0c-.8 0 -1.5 .3 -2 .9c-.8 .6 -1 1.3 -1.1 2.3Zm-84.9 8.6c-.8 0 -1.4 -.2 -2.1 -.5l.5 -1.2c.4 .2 1 .4 1.6 .4c.4 0 .8 -.2 1.1 -.4c.2 -.4 .6 -.8 .9 -1.5l-4.5 -9.8h1.6l3.7 8.2l3.2 -8.2h1.6l-4.2 10.2c-.5 1 -.9 1.7 -1.5 2.2c-.5 .4 -1.1 .6 -1.9 .6Zm8.1 -.3v-4h1.1c.8 -1.7 1.4 -4 1.4 -6.9v-1.8H349V334h1.5v4H349v-2.7h-8.1l-.3 2.7Zm51 -2.7v-8.6h-3.7v-1.4h8.7v1.4h-3.5v8.6Zm7 0v-10h4.9c.9 0 1.8 .3 2.4 .7c.5 .5 .9 1.1 .9 1.9c-.1 1 -.5 1.8 -1.7 2.3c1.4 .3 2.2 1.2 2.2 2.4c0 .8 -.4 1.5 -1 2c-.7 .4 -1.6 .7 -2.7 .7Zm22.9 0v-10h1.5v4.4h5.8v-4.4h1.5v10h-1.5V331h-5.8v4.3Zm12.1 0v-10h1.5v4.4h5.8v-4.4h1.6v10h-1.6V331h-5.8v4.3Zm22.3 0l3.1 -3.9c-.8 -.2 -1.5 -.5 -2 -1c-.5 -.6 -.7 -1.2 -.7 -2c0 -.9 .3 -1.6 1 -2.2c.7 -.6 1.6 -.9 2.8 -.9h4.7v10h-1.5v-3.6h-2.8c-.2 .1 -.5 .6 -1.2 1.5c-.7 .9 -1.2 1.6 -1.5 2.1Zm-131.5 .2c-1.5 -.1 -2.7 -.5 -3.7 -1.5c-1 -1.2 -1.5 -2.3 -1.5 -3.7c0 -1.4 .5 -2.6 1.5 -3.6c1 -1 2.2 -1.5 3.7 -1.5c0 0 .1 0 .2 0c1.4 0 2.7 .6 3.8 1.8l-1 .9c-1 -1 -1.9 -1.4 -3 -1.4c-.1 0 -.2 0 -.2 0c-1 0 -1.7 .4 -2.4 1.1c-.8 .7 -1 1.7 -1 2.7c-.1 1.1 .3 2 1 2.7c.6 .8 1.6 1.1 2.6 1.1c1 0 2.1 -.4 3.1 -1.4l1 .9c-1.3 1.2 -2.6 1.9 -4.1 1.9Zm57.9 0c-1.5 -.1 -2.6 -.5 -3.6 -1.5c-1.1 -1.2 -1.5 -2.3 -1.5 -3.7c0 -1.4 .5 -2.6 1.5 -3.6c.9 -1 2.2 -1.5 3.6 -1.5q.1 0 .2 0c1.4 0 2.8 .6 3.8 1.8l-.9 .9c-1 -1 -2 -1.4 -3.1 -1.4q-.1 0 -.2 0c-.9 0 -1.7 .4 -2.4 1.1c-.7 .7 -1 1.7 -1 2.7c-.1 1.1 .4 2 1.1 2.7c.6 .8 1.5 1.1 2.6 1.1c1 0 2.1 -.4 3 -1.4l1 .9c-1.2 1.2 -2.5 1.9 -4.1 1.9Zm-70.4 0C309.1 335.4 308 335 307 334c-1.1 -1.1 -1.5 -2.3 -1.5 -3.7c0 -1.4 .5 -2.6 1.5 -3.6c1 -1 2.3 -1.5 3.8 -1.5c0 0 .1 0 .2 0c1.3 0 2.6 .5 3.5 1.5c1 1 1.5 2.2 1.5 3.6c-.1 1.4 -.5 2.7 -1.5 3.7c-1 .9 -2.3 1.5 -3.8 1.5Zm102.5 0c-1.4 -.1 -2.6 -.5 -3.6 -1.5c-1 -.9 -1.5 -2.2 -1.5 -3.7c0 -1.4 .5 -2.6 1.4 -3.6c.9 -1 2.1 -1.5 3.5 -1.5c.1 0 .2 0 .2 0c1.3 0 2.5 .5 3.3 1.5c.8 1 1.3 2.2 1.3 3.8c0 .1 0 .3 0 .5h-8.1c0 1 .5 1.7 1.2 2.3c.6 .5 1.4 .8 2.4 .8c1.1 0 2.3 -.4 3.2 -1.3l.9 .8c-1.2 1.2 -2.5 1.9 -4.2 1.9Zm-49.4 2.8v-13h1.5v2.1c.9 -1.5 2.3 -2.2 3.8 -2.2c.1 0 .2 0 .2 0c1.2 0 2.3 .5 3.2 1.4c.9 .8 1.4 2.2 1.4 3.7c0 1.6 -.4 2.8 -1.4 3.8c-1 .9 -2.1 1.4 -3.4 1.4c-1.6 -.1 -2.8 -.7 -3.8 -2.1v4.9Zm-8.2 -2.8c-1.1 -.1 -1.9 -.3 -2.6 -.9c-.8 -.6 -1.1 -1.3 -1.1 -2.3c0 -1.2 .3 -1.9 1.1 -2.4c.7 -.7 1.8 -.9 3.1 -.9c1 0 2.1 .2 3.1 .5v-.3c0 -1 -.3 -1.6 -.8 -2c-.6 -.5 -1.2 -.7 -2.2 -.7q-.1 0 -.2 0c-.9 0 -1.8 .3 -2.8 .7l-.4 -1.2c1.1 -.6 2.4 -.8 3.6 -.8c.1 0 .2 0 .3 0c1.2 0 2.3 .4 3 1.1c.6 .6 1 1.6 1 2.9v6.1h-1.5v-1.6c-.9 1.2 -2.1 1.8 -3.6 1.8Zm92 0c-1.1 -.1 -1.9 -.3 -2.7 -.9c-.7 -.6 -1.1 -1.3 -1.1 -2.3c0 -1.2 .4 -1.9 1.2 -2.4c.7 -.7 1.8 -.9 3.1 -.9c1 0 2.1 .2 3.1 .5v-.3c0 -1 -.3 -1.6 -.8 -2c-.6 -.5 -1.2 -.7 -2.2 -.7q-.1 0 -.2 0c-.9 0 -1.8 .3 -2.8 .7l-.5 -1.2c1.2 -.6 2.5 -.8 3.7 -.8c.1 0 .2 0 .2 0c1.3 0 2.4 .4 3 1.1c.7 .6 1.1 1.6 1.1 2.9v6.1h-1.5v-1.6c-.9 1.2 -2.1 1.8 -3.6 1.8ZM298 335.3V321.7h8.6V323h-7.1v12.3Zm41.6 -56.8c.7 0 1.3 -.1 1.7 -.4c.4 -.3 .6 -.6 .6 -1.1c0 -.5 -.2 -.8 -.6 -1.1c-.5 -.2 -1.1 -.4 -1.9 -.4h-3.1v3Zm43.9 .2c.9 0 1.7 -.2 2.3 -.7c.7 -.5 1 -1.1 1 -1.8v-.9c-1 -.3 -1.9 -.4 -2.9 -.4c-.9 0 -1.6 .2 -2.1 .5c-.6 .3 -.8 .8 -.8 1.4c-.1 .5 .2 1.1 .7 1.4c.4 .2 1.1 .5 1.8 .5Zm44.8 -.2c.7 0 1.3 -.1 1.8 -.4c.4 -.4 .6 -.8 .6 -1.5c0 -.6 -.2 -1 -.7 -1.3c-.4 -.3 -1 -.4 -1.8 -.4h-2.6v3.6Zm55.9 0c.6 0 1.3 -.1 1.7 -.4c.4 -.4 .7 -.8 .7 -1.5c0 -.6 -.3 -1 -.7 -1.3c-.4 -.3 -1 -.4 -1.8 -.4h-2.7v3.6Zm84.6 .2c.9 0 1.7 -.2 2.3 -.7c.7 -.5 1 -1.1 1 -1.8v-.9c-1 -.3 -1.9 -.4 -2.9 -.4c-.9 0 -1.6 .2 -2.1 .5c-.6 .3 -.8 .8 -.8 1.4c-.1 .5 .2 1.1 .7 1.4c.4 .2 1.1 .5 1.8 .5ZM339.4 274.2c.5 0 1.1 -.1 1.5 -.4c.3 -.4 .6 -.7 .6 -1.2c0 -.4 -.2 -.7 -.6 -1c-.4 -.3 -.8 -.4 -1.4 -.4h-3.2v3Zm111.8 4.5c1 0 2 -.4 2.7 -1.1c.6 -.7 1 -1.6 1 -2.7c0 -1.1 -.4 -2 -1.1 -2.7c-.8 -.9 -1.6 -1.1 -2.6 -1.1c-.1 0 -.2 0 -.2 0c-1.1 0 -1.9 .4 -2.5 1.1c-.8 .6 -1 1.6 -1 2.7c-.1 1 .3 2 1 2.7c.7 .7 1.6 1.1 2.7 1.1Zm74.5 0c1 0 2 -.4 2.7 -1.1c.6 -.7 1 -1.6 1 -2.7c0 -1.1 -.4 -2 -1.1 -2.7c-.8 -.9 -1.6 -1.1 -2.6 -1.1c-.1 0 -.2 0 -.2 0c-1.1 0 -1.9 .4 -2.5 1.1c-.8 .6 -1 1.6 -1 2.7c-.1 1 .3 2 1 2.7c.7 .7 1.6 1.1 2.7 1.1Zm-210.9 0c1 0 1.8 -.3 2.5 -1c.6 -.8 1 -1.7 1 -2.8c0 -1.3 -.3 -2.1 -1 -2.8c-.8 -.8 -1.5 -1 -2.5 -1c0 0 -.1 0 -.2 0c-.9 0 -1.6 .4 -2.3 1c-.8 .7 -1.1 1.7 -1.1 2.8c-.1 1.1 .4 2 1.1 2.7c.6 .7 1.5 1.1 2.5 1.1Zm198.5 0c1 0 1.9 -.3 2.6 -1c.5 -.8 1 -1.7 1 -2.8c0 -1.3 -.4 -2.1 -1.1 -2.8c-.8 -.8 -1.5 -1 -2.5 -1c0 0 -.1 0 -.1 0c-1 0 -1.7 .4 -2.4 1c-.8 .7 -1.1 1.7 -1.1 2.8c0 1.1 .4 2 1.1 2.7c.6 .7 1.6 1.1 2.5 1.1ZM365.5 274.2c-.2 -.9 -.4 -1.6 -1 -2.2c-.6 -.7 -1.3 -.9 -2.3 -.9c0 0 -.1 -.1 -.2 -.1c-.8 0 -1.4 .4 -2 1c-.7 .5 -1 1.3 -1.1 2.2Zm42.6 0c-.1 -.9 -.4 -1.6 -.9 -2.2c-.7 -.7 -1.4 -.9 -2.3 -.9c-.1 0 -.1 -.1 -.2 -.1c-.8 0 -1.5 .4 -2.1 1c-.7 .5 -.9 1.3 -1 2.2Zm133 0c-.2 -.9 -.4 -1.6 -1 -2.2c-.6 -.7 -1.3 -.9 -2.3 -.9c0 0 -.1 -.1 -.2 -.1c-.8 0 -1.4 .4 -2 1c-.7 .5 -1 1.3 -1.1 2.2Zm-243.5 5.7v-10h8.7v10h-1.5v-8.7h-5.6v8.7Zm25 0v-10h1.5v7.9l5.8 -7.9h1.5v10h-1.5V272l-5.9 7.9Zm12.2 0v-10h4.9c.9 0 1.8 .2 2.4 .7c.5 .4 .9 1.1 .9 1.8c-.1 1.1 -.6 1.9 -1.7 2.4c1.4 .3 2.2 1.2 2.2 2.4c0 .7 -.4 1.5 -1 1.9c-.7 .4 -1.6 .8 -2.7 .8Zm10.8 .1c-.4 0 -.8 0 -1.2 -.1l.2 -1.3c.3 .1 .5 .1 .7 .1c.2 0 .5 0 .7 -.1c.1 -.1 .4 -.3 .6 -.6c.2 -.3 .4 -.7 .5 -1.2c0 -.7 .2 -1.4 .3 -2.4c0 -1.1 .1 -2.2 .1 -3.7v-.8h7.2v10h-1.5v-8.7H349v.3c0 1.4 0 2.8 -.1 3.8c-.2 1.1 -.3 1.9 -.5 2.5c-.2 .5 -.4 1.1 -.7 1.4c-.4 .4 -.7 .6 -1 .7c-.3 .1 -.6 .1 -1.1 .1Zm23.9 -.1v-10h1.6v5.7l5.4 -5.7h1.9l-4.2 4.3l4.3 5.7h-1.8l-3.5 -4.6l-2.1 2.2v2.4Zm24.5 0v-8.7h-3.6v-1.3H399v1.3h-3.4v8.7Zm17.6 .1c-.4 0 -.8 0 -1.2 -.1l.2 -1.3c.3 .1 .5 .1 .7 .1c.2 0 .5 0 .7 -.1c.1 -.1 .4 -.3 .6 -.6c.2 -.3 .4 -.7 .5 -1.2c0 -.7 .2 -1.4 .3 -2.4c0 -1.1 .1 -2.2 .1 -3.7v-.8h7.2v10h-1.5v-8.7H415v.3c0 1.4 0 2.8 -.1 3.8c-.2 1.1 -.3 1.9 -.5 2.5c-.2 .5 -.4 1.1 -.7 1.4c-.4 .4 -.7 .6 -1 .7c-.3 .1 -.6 .1 -1.1 .1Zm12.4 -.1v-10h1.6v3.7h2.7c1 0 2.1 .2 2.8 .7c.7 .5 1.1 1.3 1.1 2.3c0 1 -.3 1.8 -1 2.4c-.8 .5 -1.6 .9 -2.8 .9Zm10.5 0v-10H436v4.3h5.8v-4.3h1.5v10h-1.5v-4.4H436v4.4Zm38.4 0v-8.7h-3.7v-1.3h8.7v1.3h-3.5v8.7Zm7 0v-10h1.5v3.7h2.7c1.1 0 2.1 .2 2.9 .7c.7 .5 1.1 1.3 1.1 2.3c-.1 1 -.4 1.8 -1 2.4c-.8 .5 -1.7 .9 -2.8 .9Zm16.3 0v-10h8.6v10h-1.5v-8.7h-5.6v8.7Zm48.9 0v-10h1.5v5.7l5.5 -5.7H554l-4.2 4.3l4.3 5.7h-1.8l-3.5 -4.6l-2.2 2.2v2.4Zm13.7 0v-8.7h-3.7v-1.3h8.7v1.3h-3.5v8.7Zm-95.2 .1c-1.5 0 -2.7 -.5 -3.7 -1.5c-1 -1.1 -1.4 -2.2 -1.4 -3.6c0 -1.4 .5 -2.6 1.4 -3.7c1 -1 2.2 -1.5 3.7 -1.5q.1 0 .2 0c1.4 0 2.7 .7 3.8 1.8l-.9 1c-1 -1.1 -2 -1.4 -3.1 -1.4q-.1 0 -.2 0c-1 0 -1.7 .4 -2.4 1.1c-.7 .6 -1 1.6 -1 2.7c-.1 1 .3 2 1 2.7c.7 .7 1.6 1.1 2.7 1.1c1 0 2.1 -.5 3 -1.5l1 .9c-1.3 1.2 -2.5 1.9 -4.1 1.9Zm-12.4 0c-1.6 0 -2.8 -.5 -3.8 -1.5c-1 -1.1 -1.5 -2.2 -1.5 -3.6c0 -1.4 .5 -2.6 1.5 -3.7c1 -1 2.3 -1.5 3.8 -1.5c0 0 .1 0 .2 0c1.3 0 2.6 .6 3.5 1.5c1 1 1.5 2.3 1.5 3.7c0 1.4 -.5 2.6 -1.5 3.6c-1 .9 -2.3 1.5 -3.7 1.5Zm74.5 0c-1.6 0 -2.8 -.5 -3.8 -1.5c-1 -1.1 -1.5 -2.2 -1.5 -3.6c0 -1.4 .5 -2.6 1.5 -3.7c1 -1 2.3 -1.5 3.8 -1.5c0 0 .1 0 .2 0c1.3 0 2.6 .6 3.5 1.5c1 1 1.5 2.3 1.5 3.7c0 1.4 -.5 2.6 -1.5 3.6c-1 .9 -2.3 1.5 -3.7 1.5Zm-163.2 0c-1.5 0 -2.7 -.4 -3.7 -1.4c-1 -1 -1.4 -2.2 -1.4 -3.7c0 -1.5 .4 -2.7 1.4 -3.7c.9 -1 2.1 -1.5 3.5 -1.5c0 0 .1 0 .1 0c1.3 0 2.5 .6 3.3 1.5c.9 1 1.3 2.3 1.3 3.8c0 .2 0 .4 0 .5h-8.1c0 1 .5 1.8 1.2 2.4c.6 .4 1.5 .8 2.4 .8c1.2 0 2.3 -.4 3.2 -1.3l1 .8c-1.3 1.1 -2.6 1.8 -4.2 1.8Zm42.6 0c-1.5 0 -2.6 -.4 -3.6 -1.4c-1 -1 -1.5 -2.2 -1.5 -3.7c0 -1.5 .5 -2.7 1.4 -3.7c.9 -1 2.1 -1.5 3.5 -1.5q.1 0 .2 0c1.3 0 2.5 .6 3.3 1.5c.8 1 1.3 2.3 1.3 3.8c0 .2 0 .4 0 .5h-8.1c0 1 .5 1.8 1.1 2.4c.7 .4 1.5 .8 2.5 .8c1.1 0 2.2 -.4 3.2 -1.3l.9 .8c-1.2 1.1 -2.5 1.8 -4.2 1.8ZM538 280c-1.4 0 -2.6 -.4 -3.6 -1.4c-1 -1 -1.4 -2.2 -1.4 -3.7c0 -1.5 .4 -2.7 1.4 -3.7c.9 -1 2.1 -1.5 3.5 -1.5c0 0 .1 0 .1 0c1.3 0 2.5 .6 3.3 1.5c.9 1 1.3 2.3 1.3 3.8c0 .2 0 .4 0 .5h-8.1c0 1 .5 1.8 1.2 2.4c.6 .4 1.5 .8 2.4 .8c1.2 0 2.3 -.4 3.2 -1.3l1 .8c-1.3 1.1 -2.6 1.8 -4.3 1.8Zm-228.3 2.9v-13h1.5v2c.9 -1.5 2.3 -2.2 3.9 -2.2c0 0 .1 0 .1 0c1.2 0 2.3 .5 3.2 1.4c.9 .9 1.5 2.2 1.5 3.8c-.1 1.5 -.5 2.8 -1.5 3.7c-1 .9 -2.1 1.4 -3.3 1.4c-1.6 0 -2.9 -.7 -3.9 -2.1v5Zm198.5 0v-13h1.5v2c1 -1.5 2.3 -2.2 3.9 -2.2c0 0 .1 0 .2 0c1.2 0 2.2 .5 3.1 1.4c1 .9 1.5 2.2 1.5 3.8c-.1 1.5 -.5 2.8 -1.5 3.7c-.9 .9 -2 1.4 -3.3 1.4c-1.6 0 -2.9 -.7 -3.9 -2.1v5ZM383.2 280c-1 0 -1.9 -.2 -2.6 -.8c-.8 -.7 -1.1 -1.3 -1.1 -2.3c0 -1.2 .4 -1.9 1.1 -2.5c.8 -.6 1.8 -.8 3.1 -.8c1 0 2.1 .1 3.1 .4v-.3c0 -.9 -.3 -1.5 -.8 -2c-.6 -.5 -1.2 -.6 -2.2 -.6c0 0 -.1 -.1 -.2 -.1c-.9 0 -1.8 .3 -2.8 .7l-.4 -1.1c1.1 -.6 2.4 -.9 3.6 -.9c.1 0 .2 0 .3 0c1.2 0 2.3 .4 3 1.1c.6 .6 1 1.7 1 3v6.1h-1.5v-1.7c-.9 1.2 -2.1 1.8 -3.6 1.8Zm185.3 0c-1 0 -1.9 -.2 -2.6 -.8c-.8 -.7 -1.1 -1.3 -1.1 -2.3c0 -1.2 .4 -1.9 1.1 -2.5c.7 -.6 1.8 -.8 3.1 -.8c1 0 2.1 .1 3.1 .4v-.3c0 -.9 -.3 -1.5 -.8 -2c-.6 -.5 -1.2 -.6 -2.2 -.6c0 0 -.1 -.1 -.2 -.1c-.9 0 -1.8 .3 -2.8 .7l-.4 -1.1c1.1 -.6 2.4 -.9 3.6 -.9c.1 0 .2 0 .2 0c1.3 0 2.4 .4 3.1 1.1c.6 .6 1 1.7 1 3v6.1h-1.5v-1.7c-.9 1.2 -2.1 1.8 -3.6 1.8ZM418.2 250.8c.7 0 1.3 -.1 1.7 -.4c.4 -.4 .6 -.6 .6 -1.1c0 -.5 -.2 -.8 -.6 -1.1c-.5 -.3 -1.1 -.4 -1.9 -.4h-3.1v3Zm-102.3 0c.7 0 1.4 -.1 1.8 -.5c.4 -.3 .6 -.8 .6 -1.4c0 -.6 -.2 -1 -.6 -1.3c-.5 -.3 -1.1 -.4 -1.9 -.4h-2.6v3.6ZM364 251c.9 -.1 1.7 -.3 2.3 -.7c.7 -.5 1 -1.1 1 -1.9v-.8c-1 -.3 -1.9 -.4 -2.9 -.4c-.9 0 -1.6 .1 -2.1 .5c-.6 .3 -.8 .8 -.8 1.4c0 .5 .3 1 .7 1.4c.4 .2 1.1 .5 1.8 .5Zm169.8 0c.9 -.1 1.7 -.3 2.4 -.7c.6 -.5 .9 -1.1 .9 -1.9v-.8c-.9 -.3 -1.9 -.4 -2.9 -.4c-.9 0 -1.6 .1 -2.1 .5c-.6 .3 -.7 .8 -.7 1.4c-.1 .5 .2 1 .7 1.4c.4 .2 1 .5 1.7 .5Zm-229.7 -.2c1 0 1.8 -.2 2.4 -.7c.5 -.5 .9 -1 .9 -1.8c0 -.9 -.3 -1.4 -.9 -1.8c-.7 -.6 -1.5 -.7 -2.7 -.7h-4.3v5Zm74.1 -3.6v-3.7h-3.1c-.8 0 -1.3 .2 -1.7 .5c-.5 .3 -.6 .7 -.6 1.3c-.1 .5 .2 1 .6 1.4c.4 .2 1 .5 1.7 .5Zm39.8 -.7c.5 0 1.1 -.1 1.5 -.4c.3 -.4 .6 -.7 .6 -1.2c0 -.4 -.2 -.8 -.6 -1c-.4 -.3 -.8 -.4 -1.4 -.4h-3.2v3Zm130 .7v-3.7h-3.1c-.8 0 -1.3 .2 -1.7 .5c-.5 .3 -.6 .7 -.6 1.3c-.1 .5 .2 1 .7 1.4c.3 .2 1 .5 1.7 .5ZM342.1 251c1 -.1 2 -.4 2.7 -1.1c.6 -.8 1 -1.7 1 -2.7c0 -1.1 -.3 -2 -1.1 -2.7c-.8 -.9 -1.6 -1.2 -2.6 -1.2c-.1 0 -.2 0 -.2 0c-1.1 0 -1.8 .4 -2.5 1.1c-.8 .7 -1 1.7 -1 2.8c-.1 1 .3 1.9 1 2.7c.7 .7 1.6 1.1 2.7 1.1Zm156.2 0c1 -.1 2 -.4 2.7 -1.1c.6 -.8 1 -1.7 1 -2.7c0 -1.1 -.3 -2 -1 -2.7c-.8 -.9 -1.7 -1.2 -2.7 -1.2q-.1 0 -.2 0c-1.1 0 -1.8 .4 -2.5 1.1c-.7 .7 -1 1.7 -1 2.8c-.1 1 .4 1.9 1.1 2.7c.6 .7 1.6 1.1 2.6 1.1Zm-66.1 -4.5c-.1 -.9 -.4 -1.7 -1 -2.3c-.6 -.6 -1.3 -.9 -2.2 -.9c-.1 0 -.2 0 -.2 0c-.9 0 -1.5 .4 -2.1 .9c-.7 .6 -.9 1.4 -1.1 2.3Zm-120.5 5.7v-10h1.5v3.6h2.7c1.1 0 2.1 .3 2.8 .8c.7 .5 1.1 1.2 1.1 2.3c0 1 -.3 1.8 -1 2.4c-.7 .5 -1.6 .9 -2.8 .9Zm9.9 0v-10h1.6v10Zm28.4 0v-10h1.6v5.7l5.5 -5.7h1.8l-4.2 4.3l4.3 5.7h-1.8l-3.5 -4.6l-2.1 2.1v2.5Zm20.8 0l3.1 -4c-.8 -.2 -1.4 -.5 -1.9 -1c-.6 -.5 -.8 -1.2 -.8 -1.9c0 -1 .4 -1.7 1 -2.3c.7 -.6 1.6 -.8 2.8 -.8h4.7v10h-1.5v-3.7h-2.7c-.2 .1 -.6 .7 -1.2 1.6c-.7 .8 -1.2 1.6 -1.6 2.1Zm18.2 0v-10h1.6v7.9l5.8 -7.9h1.5v10h-1.5v-7.9l-5.9 7.9Zm12.3 0v-10h1.5v4.3h5.8v-4.3h1.5v10h-1.5v-4.4h-5.8v4.4Zm12.1 0v-10h4.9c.9 0 1.8 .2 2.4 .7c.5 .4 .9 1 .9 1.8c-.1 1 -.6 1.9 -1.7 2.4c1.4 .3 2.2 1.2 2.2 2.4c0 .7 -.4 1.4 -1 1.9c-.7 .4 -1.6 .8 -2.7 .8Zm36.6 0v-8.7h-3.7v-1.3H455v1.3h-3.5v8.7Zm7 0v-10h1.6v7.9l5.8 -7.9h1.5v10h-1.5v-7.9l-5.9 7.9Zm20.9 2.6v-2.6h-8.6v-10h1.5v8.6h5.6v-8.6h1.5v8.6h1.6v4Zm3.6 -2.6v-10H483v7.9l5.8 -7.9h1.5v10h-1.5v-7.9l-5.8 7.9Zm24.8 0v-10h1.5v4.3h5.8v-4.3h1.5v10h-1.5v-4.4h-5.8v4.4Zm12.1 0v-10h1.5v4.3h5.8v-4.3h1.5v10h-1.5v-4.4h-5.8v4.4Zm22.3 0l3.1 -4c-.9 -.2 -1.5 -.5 -2 -1c-.5 -.5 -.7 -1.2 -.7 -1.9c0 -1 .3 -1.7 1 -2.3c.6 -.6 1.6 -.8 2.7 -.8h4.8v10H548v-3.7h-2.7c-.2 .1 -.5 .7 -1.2 1.6c-.7 .8 -1.2 1.6 -1.6 2.1Zm-209.8 .1c-1.5 0 -2.7 -.5 -3.7 -1.5c-1 -1.1 -1.4 -2.2 -1.4 -3.6c0 -1.4 .4 -2.7 1.4 -3.7c1 -1 2.2 -1.5 3.7 -1.5q.1 0 .2 0c1.4 0 2.7 .6 3.8 1.8l-.9 1c-1 -1.1 -2 -1.5 -3.1 -1.5q-.1 0 -.2 0c-1 0 -1.7 .4 -2.4 1.1c-.7 .7 -1 1.7 -1 2.8c-.1 1 .3 1.9 1 2.7c.7 .7 1.6 1.1 2.7 1.1c1 -.1 2.1 -.5 3 -1.5l1 .9c-1.3 1.2 -2.5 1.9 -4.1 1.9Zm109.8 0c-1.5 0 -2.6 -.5 -3.6 -1.5c-1.1 -1.1 -1.5 -2.2 -1.5 -3.6c0 -1.4 .5 -2.7 1.5 -3.7c.9 -1 2.2 -1.5 3.6 -1.5c.1 0 .2 0 .2 0c1.4 0 2.8 .6 3.8 1.8l-.9 1c-1 -1.1 -2 -1.5 -3.1 -1.5c0 0 -.1 0 -.2 0c-.9 0 -1.7 .4 -2.3 1.1c-.8 .7 -1.1 1.7 -1.1 2.8c0 1 .4 1.9 1.1 2.7c.6 .7 1.6 1.1 2.6 1.1c1 -.1 2.1 -.5 3 -1.5l1 .9c-1.2 1.2 -2.5 1.9 -4.1 1.9Zm-98.6 0c-1.6 0 -2.8 -.5 -3.8 -1.5c-1 -1.1 -1.5 -2.2 -1.5 -3.6c0 -1.4 .5 -2.7 1.5 -3.7c1 -1 2.3 -1.5 3.8 -1.5q.1 0 .2 0c1.3 0 2.6 .6 3.5 1.5c1 1 1.6 2.2 1.6 3.7c-.1 1.4 -.6 2.6 -1.6 3.6c-1 .9 -2.2 1.5 -3.7 1.5Zm156.2 0c-1.6 0 -2.8 -.5 -3.7 -1.5c-1.1 -1.1 -1.5 -2.2 -1.5 -3.6c0 -1.4 .5 -2.7 1.5 -3.7c.9 -1 2.2 -1.5 3.7 -1.5c.1 0 .2 0 .2 0c1.3 0 2.6 .6 3.6 1.5c1 1 1.5 2.2 1.5 3.7c-.1 1.4 -.5 2.6 -1.5 3.6c-1.1 .9 -2.3 1.5 -3.8 1.5Zm-69.1 0c-1.5 0 -2.6 -.5 -3.6 -1.4c-1 -1 -1.5 -2.2 -1.5 -3.7c0 -1.5 .5 -2.7 1.4 -3.7c.9 -1 2.1 -1.5 3.5 -1.5q.1 0 .2 0c1.3 0 2.5 .6 3.3 1.5c.8 1 1.3 2.3 1.3 3.8c0 .1 -.1 .4 -.1 .5h-8.1c.1 1 .5 1.8 1.2 2.3c.7 .5 1.5 .9 2.4 .9c1.2 -.1 2.3 -.5 3.3 -1.4l.9 .8c-1.2 1.2 -2.5 1.9 -4.2 1.9Zm-65.5 0c-1 0 -1.9 -.3 -2.6 -.8c-.8 -.7 -1.1 -1.4 -1.1 -2.4c0 -1.1 .4 -1.8 1.1 -2.4c.8 -.6 1.9 -.9 3.2 -.9c.9 0 2 .2 3 .5V246c0 -.9 -.3 -1.5 -.8 -2c-.6 -.5 -1.2 -.7 -2.1 -.7c-.1 0 -.2 0 -.3 0c-.9 0 -1.8 .3 -2.8 .7l-.4 -1.2c1.2 -.5 2.5 -.8 3.6 -.8c.1 0 .2 0 .3 0c1.2 0 2.3 .4 3 1.1c.6 .6 1 1.7 1 3v6.1h-1.5v-1.7c-.9 1.2 -2.1 1.8 -3.6 1.8Zm169.8 0c-1 0 -1.9 -.3 -2.6 -.8c-.8 -.7 -1.1 -1.4 -1.1 -2.4c0 -1.1 .4 -1.8 1.2 -2.4c.7 -.6 1.8 -.9 3.1 -.9c.9 0 2 .2 3 .5V246c0 -.9 -.2 -1.5 -.7 -2c-.6 -.5 -1.3 -.7 -2.2 -.7c-.1 0 -.2 0 -.2 0c-1 0 -1.9 .3 -2.8 .7l-.5 -1.2c1.2 -.5 2.5 -.8 3.7 -.8q.1 0 .2 0c1.3 0 2.3 .4 3 1.1c.7 .6 1.1 1.7 1.1 3v6.1h-1.6v-1.7c-.9 1.2 -2.1 1.8 -3.6 1.8Zm-230 -7.8c.9 0 1.7 -.2 2.3 -.6c.5 -.5 .8 -1.1 .8 -1.9c0 -.7 -.2 -1.2 -.8 -1.6c-.6 -.4 -1.2 -.6 -2.2 -.6h-4.1v4.7Zm-5.5 7.7V238.5h5.7c1.6 0 2.8 .4 3.6 1.2c.5 .5 .9 1.3 .9 2.2c-.1 1.4 -.8 2.5 -2.2 3.1c2 .5 3 1.7 3 3.4c0 1.1 -.5 2.1 -1.4 2.7c-1 .6 -2.1 1.1 -3.6 1.1Z"/></clipPath>
<clipPath id="c4_34"><path d="M1168.7 361.7c.7 0 1.3 -.1 1.7 -.4c.3 -.4 .6 -.7 .6 -1.2c0 -.5 -.2 -.8 -.7 -1c-.4 -.3 -1 -.4 -1.8 -.4h-3.1v3Zm-100.4 0c.7 0 1.4 -.2 1.8 -.5c.4 -.4 .6 -.8 .6 -1.4c0 -.6 -.2 -1 -.6 -1.3c-.5 -.3 -1.1 -.5 -1.9 -.5h-2.6v3.7Zm100.2 -4.3c.5 0 1.1 -.2 1.5 -.4c.3 -.4 .5 -.7 .5 -1.2c0 -.5 -.1 -.8 -.5 -1c-.4 -.3 -.8 -.4 -1.5 -.4h-3.1v3Zm-149.9 4.5c1 -.1 2 -.4 2.7 -1.1c.6 -.8 1 -1.7 1 -2.7c0 -1.1 -.4 -2 -1.1 -2.8c-.8 -.8 -1.6 -1.1 -2.7 -1.1c0 0 -.1 0 -.2 0c-1 0 -1.8 .4 -2.4 1.1c-.8 .7 -1 1.7 -1 2.8c-.1 1 .3 1.9 1 2.7c.6 .7 1.6 1.1 2.7 1.1Zm25.4 0c1 -.1 2 -.4 2.7 -1.1c.6 -.8 1 -1.7 1 -2.7c0 -1.1 -.3 -2 -1.1 -2.8c-.8 -.8 -1.6 -1.1 -2.6 -1.1c-.1 0 -.2 0 -.2 0c-1.1 0 -1.8 .4 -2.5 1.1c-.8 .7 -1 1.7 -1 2.8c-.1 1 .3 1.9 1 2.7c.7 .7 1.6 1.1 2.7 1.1Zm111.9 0c1 -.1 2 -.4 2.7 -1.1c.6 -.8 1.1 -1.7 1.1 -2.7c0 -1.1 -.4 -2 -1.1 -2.8c-.8 -.8 -1.6 -1.1 -2.7 -1.1q-.1 0 -.2 0c-1.1 0 -1.8 .4 -2.5 1.1c-.7 .7 -1 1.7 -1 2.8c-.1 1 .4 1.9 1.1 2.7c.6 .7 1.6 1.1 2.6 1.1Zm-124.2 0c.9 -.1 1.8 -.4 2.5 -1.1c.5 -.7 1 -1.6 1 -2.8c0 -1.2 -.4 -2 -1.1 -2.7c-.7 -.8 -1.5 -1.1 -2.4 -1.1c-.1 0 -.2 0 -.2 0c-1 0 -1.7 .4 -2.4 1.1c-.8 .6 -1 1.6 -1 2.8c-.1 1.1 .3 2 1 2.7c.7 .7 1.6 1.1 2.6 1.1Zm79.2 0c1 -.1 1.9 -.4 2.6 -1.1c.5 -.7 1 -1.6 1 -2.8c0 -1.2 -.4 -2 -1.1 -2.7c-.7 -.8 -1.5 -1.1 -2.5 -1.1c0 0 -.1 0 -.1 0c-1 0 -1.7 .4 -2.4 1.1c-.8 .6 -1.1 1.6 -1.1 2.8c0 1.1 .4 2 1.1 2.7c.7 .7 1.6 1.1 2.5 1.1ZM1007.3 363v-8.6h-3.6v-1.3h8.6v1.3h-3.4V363Zm44.6 0v-9.9h1.6v4.3h5.8v-4.3h1.5V363h-1.5v-4.3h-5.8V363Zm12.2 0v-9.9h1.5v3.6h2.7c1.1 0 2.1 .3 2.8 .8c.7 .4 1.1 1.2 1.1 2.2c0 1 -.3 1.9 -1 2.4c-.7 .6 -1.6 .9 -2.8 .9Zm9.9 0v-9.9h1.6V363Zm13.3 0v-8.6h-3.7v-1.3h8.7v1.3h-3.5V363Zm8.6 3c-.8 0 -1.4 -.1 -2.1 -.5l.5 -1.2c.4 .2 1 .4 1.5 .4c.4 0 .9 -.1 1.2 -.4c.2 -.4 .6 -.8 .9 -1.4l-4.6 -9.8h1.7l3.6 8.2l3.3 -8.2h1.5l-4.2 10.1c-.5 1 -.9 1.8 -1.4 2.2c-.5 .4 -1.1 .6 -1.9 .6Zm22.8 -3v-9.9h1.5v7.8l5.9 -7.8h1.5V363H1126v-7.9l-5.8 7.9Zm26 0v-8.6H1141v-1.3h8.7v1.3h-3.5V363Zm19.2 0v-9.9h4.9c.9 0 1.8 .2 2.4 .6c.5 .5 .9 1.1 .9 1.9c-.1 1 -.6 1.9 -1.7 2.3c1.4 .4 2.1 1.2 2.1 2.5c0 .7 -.3 1.4 -1 1.9c-.6 .4 -1.5 .7 -2.6 .7Zm-165.8 .2c-1.5 -.1 -2.7 -.5 -3.7 -1.5c-1 -1.1 -1.5 -2.2 -1.5 -3.7c0 -1.4 .5 -2.6 1.5 -3.6c.9 -1 2.2 -1.5 3.7 -1.5c0 0 .1 0 .1 0c1.5 0 2.8 .6 3.9 1.8l-1 1c-1 -1.1 -1.9 -1.5 -3.1 -1.5c0 0 -.1 0 -.1 0c-1 0 -1.8 .4 -2.4 1.1c-.8 .7 -1 1.7 -1 2.8c-.1 1 .3 1.9 1 2.7c.6 .7 1.6 1.1 2.6 1.1c1 -.1 2.1 -.5 3.1 -1.5l.9 .9c-1.2 1.2 -2.5 1.9 -4 1.9Zm137.3 0c-1.5 -.1 -2.6 -.5 -3.6 -1.5c-1.1 -1.1 -1.5 -2.2 -1.5 -3.7c0 -1.4 .5 -2.6 1.5 -3.6c.9 -1 2.2 -1.5 3.6 -1.5q.1 0 .2 0c1.4 0 2.8 .6 3.8 1.8l-.9 1c-1 -1.1 -2 -1.5 -3.1 -1.5q-.1 0 -.2 0c-.9 0 -1.7 .4 -2.4 1.1c-.7 .7 -1 1.7 -1 2.8c-.1 1 .4 1.9 1.1 2.7c.6 .7 1.5 1.1 2.6 1.1c1 -.1 2.1 -.5 3 -1.5l1 .9c-1.2 1.2 -2.5 1.9 -4.1 1.9Zm-116.9 0c-1.5 -.1 -2.7 -.5 -3.7 -1.5c-1 -1.1 -1.5 -2.2 -1.5 -3.7c0 -1.4 .5 -2.6 1.5 -3.6c1 -1 2.3 -1.5 3.8 -1.5c0 0 .1 0 .2 0c1.3 0 2.6 .5 3.5 1.5c1 1 1.5 2.2 1.5 3.6c0 1.5 -.5 2.7 -1.5 3.7c-1 .9 -2.3 1.5 -3.8 1.5Zm25.5 0c-1.6 -.1 -2.8 -.5 -3.8 -1.5c-1 -1.1 -1.5 -2.2 -1.5 -3.7c0 -1.4 .5 -2.6 1.6 -3.6c.9 -1 2.2 -1.5 3.7 -1.5q.1 0 .2 0c1.3 0 2.6 .5 3.6 1.5c.9 1 1.5 2.2 1.5 3.6c-.1 1.5 -.6 2.7 -1.6 3.7c-1 .9 -2.2 1.5 -3.7 1.5Zm111.9 0c-1.6 -.1 -2.7 -.5 -3.7 -1.5c-1.1 -1.1 -1.5 -2.2 -1.5 -3.7c0 -1.4 .5 -2.6 1.5 -3.6c.9 -1 2.2 -1.5 3.7 -1.5c.1 0 .2 0 .2 0c1.4 0 2.6 .5 3.6 1.5c1 1 1.5 2.2 1.5 3.6c-.1 1.5 -.5 2.7 -1.5 3.7c-1 .9 -2.3 1.5 -3.8 1.5ZM1026.5 366V353.1h1.6v2c.9 -1.5 2.2 -2.2 3.8 -2.2q.1 0 .2 0c1.2 0 2.2 .5 3.2 1.4c.9 .8 1.4 2.2 1.4 3.8c-.1 1.5 -.5 2.7 -1.4 3.7c-1 .9 -2.1 1.4 -3.4 1.4c-1.6 -.1 -2.9 -.7 -3.8 -2.1V366Zm79.3 0V353.1h1.5v2c1 -1.5 2.3 -2.2 3.9 -2.2q.1 0 .2 0c1.2 0 2.2 .5 3.2 1.4c.9 .8 1.4 2.2 1.4 3.8c-.1 1.5 -.5 2.7 -1.4 3.7c-1 .9 -2.1 1.4 -3.4 1.4c-1.6 -.1 -2.9 -.7 -3.9 -2.1V366Zm-45.7 -32c.6 0 1.2 -.2 1.6 -.4c.4 -.4 .6 -.7 .6 -1.2c0 -.5 -.2 -.8 -.6 -1c-.5 -.3 -1 -.4 -1.8 -.4h-3.1v3Zm9.9 .1c.9 0 1.6 -.2 2.3 -.7c.6 -.5 .9 -1.1 .9 -1.8v-.9c-.9 -.3 -1.9 -.4 -2.8 -.4c-1 0 -1.7 .2 -2.2 .5c-.6 .3 -.7 .9 -.7 1.5c-.1 .4 .2 1 .7 1.3c.4 .3 1.1 .5 1.8 .5Zm69.6 -.1c.7 0 1.4 -.2 1.8 -.5c.4 -.4 .6 -.8 .6 -1.4c0 -.6 -.2 -1 -.6 -1.3c-.5 -.4 -1.1 -.5 -1.8 -.5h-2.7V334Zm-174.8 0c1.1 0 1.9 -.2 2.5 -.7c.5 -.6 .9 -1.1 .9 -1.9c0 -.8 -.3 -1.4 -.9 -1.8c-.7 -.5 -1.5 -.6 -2.7 -.6h-4.3v5Zm70.1 .1c1 0 1.9 -.3 2.5 -1c.6 -.8 1 -1.6 1 -2.7c0 -1.1 -.3 -1.9 -1 -2.6c-.8 -.8 -1.5 -1.1 -2.5 -1.1c-1.1 0 -1.9 .3 -2.6 1c-.7 .7 -1 1.7 -1 2.7c0 1 .4 1.9 1.1 2.7c.6 .7 1.5 1 2.5 1Zm24.9 -4.4c.6 0 1.2 -.2 1.5 -.5c.4 -.3 .6 -.6 .6 -1.1c0 -.5 -.2 -.8 -.5 -1.1c-.4 -.2 -.9 -.3 -1.5 -.3h-3.1v3ZM977 334.1c1 0 2 -.3 2.7 -1.1c.6 -.7 1 -1.6 1 -2.7c0 -1 -.3 -1.9 -1 -2.7c-.8 -.8 -1.7 -1.1 -2.7 -1.1q-.1 0 -.2 0c-1.1 0 -1.8 .4 -2.5 1.1c-.7 .7 -1 1.7 -1 2.7c-.1 1.1 .4 2 1.1 2.7c.6 .8 1.6 1.1 2.6 1.1Zm70.3 0c1 0 2 -.3 2.7 -1.1c.6 -.7 1 -1.6 1 -2.7c0 -1 -.4 -1.9 -1.1 -2.7c-.8 -.8 -1.6 -1.1 -2.7 -1.1c0 0 -.1 0 -.2 0c-1 0 -1.8 .4 -2.4 1.1c-.8 .7 -1 1.7 -1 2.7c-.1 1.1 .3 2 1 2.7c.6 .8 1.6 1.1 2.7 1.1Zm59.4 0c.9 0 1.9 -.3 2.6 -1.1c.6 -.7 1.1 -1.6 1.1 -2.7c0 -1 -.4 -1.9 -1.1 -2.7c-.8 -.8 -1.6 -1.1 -2.7 -1.1q-.1 0 -.2 0c-1 0 -1.8 .4 -2.4 1.1c-.8 .7 -1.1 1.7 -1.1 2.7c-.1 1.1 .4 2 1.1 2.7c.6 .8 1.6 1.1 2.7 1.1Zm60.6 0c1 0 2 -.3 2.7 -1.1c.6 -.7 1 -1.6 1 -2.7c0 -1 -.3 -1.9 -1.1 -2.7c-.8 -.8 -1.6 -1.1 -2.6 -1.1c-.1 0 -.2 0 -.2 0c-1.1 0 -1.8 .4 -2.5 1.1c-.8 .7 -1 1.7 -1 2.7c-.1 1.1 .3 2 1.1 2.7c.6 .8 1.6 1.1 2.6 1.1Zm-156.4 0c.9 0 1.8 -.3 2.5 -1c.6 -.7 1 -1.6 1 -2.8c0 -1.2 -.3 -2 -1 -2.7c-.8 -.8 -1.5 -1.1 -2.5 -1.1q-.1 0 -.2 0c-.9 0 -1.7 .4 -2.3 1.1c-.8 .6 -1.1 1.6 -1.1 2.7c-.1 1.1 .3 2.1 1.1 2.8c.6 .7 1.5 1 2.5 1Zm15.2 -4.4c-.1 -1 -.4 -1.7 -1 -2.3c-.6 -.6 -1.3 -.9 -2.3 -.9c0 0 -.1 0 -.2 0c-.8 0 -1.4 .3 -2 .9c-.7 .6 -1 1.3 -1.1 2.3Zm-27.4 5.6v-8.6h-3.6v-1.4h8.6v1.4h-3.5v8.6Zm56.5 0v-10h4.9c.9 0 1.8 .3 2.4 .7c.5 .5 .9 1.1 .9 1.9c-.1 1 -.6 1.8 -1.7 2.3c1.4 .3 2.2 1.2 2.2 2.4c0 .8 -.4 1.5 -1 2c-.7 .4 -1.6 .7 -2.7 .7Zm22.6 0v-10h1.6v4.4h5.7v-4.4h1.6v10h-1.6V331h-5.7v4.3Zm12.1 0v-10h1.6v4.4h5.8v-4.4h1.5v10h-1.5V331h-5.8v4.3Zm38.4 0v-8.6h-3.6v-1.4h8.6v1.4h-3.4v8.6Zm7.1 0v-10h1.5V329h2.7c1.1 0 2.1 .2 2.8 .7c.8 .5 1.2 1.3 1.2 2.3c-.1 1 -.4 1.8 -1.1 2.4c-.7 .6 -1.6 .9 -2.8 .9Zm-146 .2c-1.5 -.1 -2.6 -.5 -3.6 -1.5c-1.1 -1.2 -1.5 -2.3 -1.5 -3.7c0 -1.4 .5 -2.6 1.5 -3.6c.9 -1 2.2 -1.5 3.6 -1.5c.1 0 .2 0 .2 0c1.5 0 2.8 .6 3.8 1.8l-.9 .9c-1 -1 -2 -1.4 -3.1 -1.4c0 0 -.1 0 -.2 0c-.9 0 -1.7 .4 -2.3 1.1c-.8 .7 -1.1 1.7 -1.1 2.7c0 1.1 .4 2 1.1 2.7c.6 .8 1.6 1.1 2.6 1.1c1 0 2.1 -.4 3 -1.4l1 .9c-1.2 1.2 -2.5 1.9 -4.1 1.9Zm129.7 0c-1.5 -.1 -2.7 -.5 -3.7 -1.5c-1 -1.2 -1.5 -2.3 -1.5 -3.7c0 -1.4 .5 -2.6 1.5 -3.6c.9 -1 2.2 -1.5 3.7 -1.5c0 0 .1 0 .1 0c1.5 0 2.8 .6 3.9 1.8l-1 .9c-1 -1 -1.9 -1.4 -3.1 -1.4c0 0 -.1 0 -.1 0c-1 0 -1.8 .4 -2.4 1.1c-.8 .7 -1 1.7 -1 2.7c-.1 1.1 .3 2 1 2.7c.6 .8 1.6 1.1 2.6 1.1c1 0 2.1 -.4 3.1 -1.4l.9 .9c-1.2 1.2 -2.5 1.9 -4 1.9Zm37 0c-1.5 -.1 -2.7 -.5 -3.6 -1.5c-1.1 -1.2 -1.5 -2.3 -1.5 -3.7c0 -1.4 .5 -2.6 1.5 -3.6c.9 -1 2.2 -1.5 3.6 -1.5q.1 0 .2 0c1.4 0 2.7 .6 3.8 1.8l-.9 .9c-1 -1 -2 -1.4 -3.1 -1.4q-.1 0 -.2 0c-1 0 -1.7 .4 -2.4 1.1c-.7 .7 -1 1.7 -1 2.7c-.1 1.1 .4 2 1.1 2.7c.6 .8 1.5 1.1 2.6 1.1c1 0 2.1 -.4 3 -1.4l1 .9c-1.2 1.2 -2.5 1.9 -4.1 1.9Zm-179.1 0c-1.6 -.1 -2.7 -.5 -3.7 -1.5c-1.1 -1.1 -1.5 -2.3 -1.5 -3.7c0 -1.4 .5 -2.6 1.5 -3.6c.9 -1 2.2 -1.5 3.7 -1.5c.1 0 .2 0 .2 0c1.4 0 2.6 .5 3.6 1.5c1 1 1.5 2.2 1.5 3.6c-.1 1.4 -.5 2.7 -1.5 3.7c-1.1 .9 -2.3 1.5 -3.8 1.5Zm70.2 0c-1.5 -.1 -2.7 -.5 -3.7 -1.5c-1 -1.1 -1.5 -2.3 -1.5 -3.7c0 -1.4 .5 -2.6 1.5 -3.6c1 -1 2.3 -1.5 3.8 -1.5c0 0 .1 0 .2 0c1.3 0 2.6 .5 3.5 1.5c1 1 1.5 2.2 1.5 3.6c0 1.4 -.5 2.7 -1.5 3.7c-1 .9 -2.3 1.5 -3.8 1.5Zm59.4 0c-1.6 -.1 -2.7 -.5 -3.7 -1.5c-1.1 -1.1 -1.5 -2.3 -1.5 -3.7c0 -1.4 .5 -2.6 1.5 -3.6c.9 -1 2.3 -1.5 3.8 -1.5c0 0 .1 0 .1 0c1.4 0 2.6 .5 3.6 1.5c1 1 1.5 2.2 1.5 3.6c-.1 1.4 -.5 2.7 -1.5 3.7c-1 .9 -2.3 1.5 -3.8 1.5Zm60.7 0c-1.6 -.1 -2.8 -.5 -3.8 -1.5c-1 -1.1 -1.5 -2.3 -1.5 -3.7c0 -1.4 .6 -2.6 1.6 -3.6c.9 -1 2.2 -1.5 3.7 -1.5q.1 0 .2 0c1.3 0 2.6 .5 3.6 1.5c1 1 1.5 2.2 1.5 3.6c-.1 1.4 -.5 2.7 -1.6 3.7c-1 .9 -2.2 1.5 -3.7 1.5Zm-144.2 0c-1.5 -.1 -2.7 -.5 -3.7 -1.5c-1 -.9 -1.4 -2.2 -1.4 -3.7c0 -1.4 .4 -2.6 1.4 -3.6c.9 -1 2.1 -1.5 3.5 -1.5c0 0 .1 0 .2 0c1.3 0 2.4 .5 3.2 1.5c.9 1 1.3 2.2 1.3 3.8c0 .1 0 .3 0 .5h-8.1c.1 1 .5 1.7 1.2 2.3c.6 .5 1.5 .8 2.4 .8c1.2 0 2.3 -.4 3.2 -1.3l1 .8c-1.3 1.2 -2.6 1.9 -4.2 1.9Zm-17.3 2.8v-13h1.5v2.1c.9 -1.5 2.3 -2.2 3.8 -2.2c.1 0 .2 0 .2 0c1.2 0 2.3 .5 3.2 1.4c.9 .8 1.4 2.2 1.4 3.7c0 1.6 -.4 2.8 -1.4 3.8c-1 .9 -2.1 1.4 -3.4 1.4c-1.6 -.1 -2.8 -.7 -3.8 -2.1v4.9Zm63.9 -2.8c-1.1 -.1 -1.9 -.3 -2.7 -.9c-.7 -.6 -1.1 -1.3 -1.1 -2.3c0 -1.2 .4 -1.9 1.2 -2.4c.7 -.7 1.8 -.9 3.1 -.9c.9 0 2 .2 3 .5v-.3c0 -1 -.2 -1.6 -.7 -2c-.6 -.5 -1.3 -.7 -2.2 -.7c-.1 0 -.2 0 -.3 0c-.9 0 -1.8 .3 -2.7 .7l-.5 -1.2c1.2 -.6 2.5 -.8 3.7 -.8q.1 0 .2 0c1.3 0 2.3 .4 3 1.1c.7 .6 1.1 1.6 1.1 2.9v6.1h-1.6v-1.6c-.8 1.2 -2 1.8 -3.5 1.8ZM964.3 327.7c.9 0 1.7 -.3 2.2 -.7c.6 -.4 .9 -1 .9 -1.8c0 -.7 -.3 -1.2 -.8 -1.6c-.6 -.5 -1.2 -.6 -2.2 -.6h-4.1v4.7Zm-5.5 7.6V321.7h5.7c1.6 0 2.8 .4 3.6 1.2c.4 .5 .8 1.3 .8 2.1c0 1.5 -.7 2.5 -2.1 3.2c1.9 .5 2.9 1.7 2.9 3.3c0 1.1 -.4 2.1 -1.3 2.8c-1 .6 -2.1 1 -3.6 1Zm76.1 .2c-1.6 -.1 -2.8 -.5 -3.7 -1.5c-1 -1.2 -1.4 -2.4 -1.4 -4.2c0 -.7 0 -1.2 0 -1.6c0 -.5 0 -.9 .1 -1.5c0 -.5 .2 -1 .4 -1.4c.1 -.5 .4 -.8 .6 -1.1c.3 -.5 .6 -.7 1.1 -1c.3 -.3 .9 -.4 1.5 -.6l5.6 -1.3l.3 1.3l-5.4 1.3c-1.1 .2 -1.8 .7 -2.2 1.3c-.4 .5 -.7 1.4 -.8 2.4c.8 -1.6 2.3 -2.3 4.2 -2.3c1.3 0 2.4 .5 3.4 1.5c.9 .9 1.4 2.1 1.4 3.5c-.1 1.4 -.5 2.7 -1.5 3.7c-1 .9 -2.2 1.5 -3.6 1.5Zm7.5 -57c.7 0 1.3 -.1 1.7 -.4c.3 -.3 .6 -.6 .6 -1.1c0 -.5 -.2 -.8 -.6 -1.1c-.5 -.2 -1.1 -.4 -1.9 -.4h-3.1v3Zm-55.4 0c.6 0 1.3 -.1 1.7 -.4c.4 -.4 .7 -.8 .7 -1.5c0 -.6 -.3 -1 -.7 -1.3c-.4 -.3 -1 -.4 -1.8 -.4h-2.7v3.6Zm127.3 0c.6 0 1.3 -.1 1.7 -.4c.4 -.4 .7 -.8 .7 -1.5c0 -.6 -.3 -1 -.7 -1.3c-.4 -.3 -1 -.4 -1.8 -.4h-2.7v3.6Zm-141 .2c.9 0 1.8 -.4 2.5 -1.1c.6 -.7 1 -1.6 1 -2.6c0 -1.1 -.3 -2 -1 -2.7c-.8 -.7 -1.6 -1.1 -2.6 -1.1c-1 0 -1.8 .4 -2.5 1.1c-.7 .7 -1 1.6 -1 2.7c-.1 1 .3 1.9 1 2.6c.6 .7 1.6 1.1 2.6 1.1Zm68.9 -4.5c.5 0 1.1 -.1 1.5 -.4c.3 -.4 .5 -.7 .5 -1.2c0 -.4 -.1 -.7 -.5 -1c-.4 -.3 -.8 -.4 -1.5 -.4h-3.1v3Zm128 4.3v-7.3h-4.1v1.4c0 2.5 -.4 4.5 -1.2 5.9Zm-209.6 .2c.9 0 1.9 -.4 2.6 -1.1c.6 -.7 1.1 -1.6 1.1 -2.7c0 -1.1 -.4 -2 -1.1 -2.7c-.8 -.9 -1.6 -1.1 -2.7 -1.1c0 0 -.1 0 -.2 0c-1 0 -1.8 .4 -2.4 1.1c-.8 .6 -1.1 1.6 -1.1 2.7c0 1 .4 2 1.1 2.7c.6 .7 1.6 1.1 2.7 1.1Zm69 0c1 0 2 -.4 2.7 -1.1c.6 -.7 1.1 -1.6 1.1 -2.7c0 -1.1 -.4 -2 -1.1 -2.7c-.8 -.9 -1.6 -1.1 -2.7 -1.1q-.1 0 -.2 0c-1 0 -1.8 .4 -2.5 1.1c-.7 .6 -1 1.6 -1 2.7c-.1 1 .4 2 1.1 2.7c.6 .7 1.6 1.1 2.6 1.1Zm126.2 0c1 0 2 -.4 2.7 -1.1c.6 -.7 1.1 -1.6 1.1 -2.7c0 -1.1 -.4 -2 -1.1 -2.7c-.8 -.9 -1.6 -1.1 -2.7 -1.1q-.1 0 -.2 0c-1 0 -1.8 .4 -2.5 1.1c-.7 .6 -1 1.6 -1 2.7c-.1 1 .4 2 1.1 2.7c.6 .7 1.6 1.1 2.6 1.1Zm-84.9 0c1 0 1.9 -.3 2.5 -1c.6 -.8 1 -1.7 1 -2.8c0 -1.3 -.3 -2.1 -1 -2.8c-.8 -.8 -1.5 -1 -2.5 -1c0 0 -.1 0 -.2 0c-.9 0 -1.6 .4 -2.3 1c-.8 .7 -1.1 1.7 -1.1 2.8c-.1 1.1 .4 2 1.1 2.7c.6 .7 1.5 1.1 2.5 1.1Zm-70.2 -4.5c-.2 -.9 -.4 -1.6 -1 -2.2c-.6 -.7 -1.3 -.9 -2.3 -.9c0 0 -.1 -.1 -.2 -.1c-.8 0 -1.4 .4 -2 1c-.7 .5 -1 1.3 -1.1 2.2Zm-18 5.7v-8.7h-3v-1.3h4.5v3.7h2.7c1.1 0 2.2 .2 2.9 .7c.7 .5 1.1 1.3 1.1 2.3c-.1 1 -.4 1.8 -1 2.4c-.8 .5 -1.7 .9 -2.8 .9Zm22 0v-10h1.6v5.7l5.4 -5.7h1.9l-4.2 4.3l4.3 5.7h-1.8l-3.5 -4.6l-2.1 2.2v2.4Zm13.7 0v-8.7h-3.7v-1.3h8.7v1.3h-3.5v8.7Zm19.2 0v-10h4.9c.9 0 1.8 .2 2.4 .7c.5 .4 .9 1.1 .9 1.8c-.1 1.1 -.6 1.9 -1.7 2.4c1.4 .3 2.1 1.2 2.1 2.4c0 .7 -.3 1.5 -1 1.9c-.6 .4 -1.5 .8 -2.6 .8Zm17.2 0v-10h1.5v5.7l5.5 -5.7h1.8l-4.2 4.3l4.4 5.7H1062l-3.6 -4.6l-2.1 2.2v2.4Zm25 3c-.8 0 -1.4 -.2 -2.1 -.5l.5 -1.2c.4 .1 1 .3 1.6 .3c.4 0 .8 -.1 1.1 -.4c.2 -.3 .6 -.7 .9 -1.4l-4.5 -9.8h1.6l3.7 8.2l3.2 -8.2h1.6l-4.2 10.2c-.5 .9 -.9 1.7 -1.5 2.1c-.5 .4 -1.1 .7 -1.9 .7Zm9.9 -3v-10h6.9v1.3h-5.3v8.7Zm7.9 .1c-.4 0 -.8 0 -1.2 -.1l.2 -1.3c.2 .1 .5 .1 .7 .1c.2 0 .5 0 .7 -.1c.1 -.1 .3 -.3 .6 -.6c.1 -.3 .3 -.7 .4 -1.2c.1 -.7 .3 -1.4 .3 -2.4c.1 -1.1 .2 -2.2 .2 -3.7v-.8h7.2v10h-1.6v-8.7H1101v.3c-.1 1.4 0 2.8 -.2 3.8c-.1 1.1 -.2 1.9 -.4 2.5c-.3 .5 -.4 1.1 -.8 1.4c-.3 .4 -.6 .6 -.9 .7c-.4 .1 -.7 .1 -1.1 .1Zm12.4 -.1v-10h1.5v3.7h2.7c1.1 0 2.1 .2 2.9 .7c.7 .5 1.1 1.3 1.1 2.3c-.1 1 -.4 1.8 -1 2.4c-.8 .5 -1.7 .9 -2.8 .9Zm10 0v-10h1.5v10Zm4.8 0v-10h1.5v7.9l5.8 -7.9h1.5v10h-1.5V272l-5.8 7.9Zm18 0v-10h6.9v1.3h-5.3v8.7Zm19.3 2.6v-4h1.1c.8 -1.6 1.4 -3.9 1.4 -6.9v-1.7h7.2v8.6h1.4v4h-1.4v-2.6h-8.2l-.2 2.6ZM960.5 280c-1.6 0 -2.7 -.5 -3.7 -1.5c-1.1 -1.1 -1.5 -2.2 -1.5 -3.6c0 -1.4 .5 -2.6 1.5 -3.7c.9 -1 2.3 -1.5 3.8 -1.5c0 0 .1 0 .1 0c1.4 0 2.6 .6 3.6 1.5c1 1 1.5 2.3 1.5 3.7c-.1 1.4 -.5 2.6 -1.5 3.6c-1 .9 -2.3 1.5 -3.8 1.5Zm69.1 0c-1.6 0 -2.7 -.5 -3.7 -1.5c-1.1 -1.1 -1.5 -2.2 -1.5 -3.6c0 -1.4 .5 -2.6 1.5 -3.7c.9 -1 2.3 -1.5 3.7 -1.5c.1 0 .2 0 .2 0c1.4 0 2.6 .6 3.6 1.5c1 1 1.5 2.3 1.5 3.7c-.1 1.4 -.5 2.6 -1.5 3.6c-1 .9 -2.3 1.5 -3.8 1.5Zm126.2 0c-1.6 0 -2.7 -.5 -3.7 -1.5c-1.1 -1.1 -1.5 -2.2 -1.5 -3.6c0 -1.4 .5 -2.6 1.5 -3.7c.9 -1 2.3 -1.5 3.7 -1.5c.1 0 .2 0 .2 0c1.4 0 2.6 .6 3.6 1.5c1 1 1.5 2.3 1.5 3.7c-.1 1.4 -.5 2.6 -1.5 3.6c-1 .9 -2.3 1.5 -3.8 1.5Zm-158.1 0c-1.5 0 -2.7 -.4 -3.7 -1.4c-1 -1 -1.4 -2.2 -1.4 -3.7c0 -1.5 .4 -2.7 1.4 -3.7c.9 -1 2.1 -1.5 3.5 -1.5c0 0 .1 0 .1 0c1.3 0 2.5 .6 3.3 1.5c.9 1 1.3 2.3 1.3 3.8c0 .2 0 .4 0 .5h-8.1c0 1 .5 1.8 1.2 2.4c.6 .4 1.5 .8 2.4 .8c1.2 0 2.3 -.4 3.2 -1.3l1 .8c-1.3 1.1 -2.6 1.8 -4.2 1.8Zm68.1 2.9v-13h1.5v2c1 -1.5 2.3 -2.2 3.9 -2.2c0 0 .1 0 .1 0c1.2 0 2.3 .5 3.2 1.4c.9 .9 1.5 2.2 1.5 3.8c-.1 1.5 -.5 2.8 -1.5 3.7c-1 .9 -2.1 1.4 -3.3 1.4c-1.6 0 -2.9 -.7 -3.9 -2.1v5ZM973.2 280c-1.5 0 -2.7 -.5 -3.7 -1.5c-.9 -1.1 -1.3 -2.4 -1.3 -4.1c0 -.7 0 -1.2 0 -1.6c0 -.6 0 -1 .1 -1.5c0 -.6 .2 -1 .3 -1.4c.2 -.5 .4 -.8 .7 -1.2c.2 -.4 .6 -.7 1 -.9c.4 -.4 1 -.5 1.5 -.6l5.7 -1.3l.2 1.2l-5.4 1.4c-1 .2 -1.7 .7 -2.1 1.3c-.5 .5 -.7 1.3 -.8 2.3c.8 -1.5 2.2 -2.2 4.2 -2.2c1.2 0 2.4 .5 3.3 1.5c.9 .9 1.4 2.1 1.4 3.5c0 1.4 -.4 2.6 -1.4 3.6c-1 .9 -2.2 1.5 -3.7 1.5Zm156 -11.8c-.8 0 -1.3 -.2 -1.8 -.7c-.6 -.5 -.8 -1 -.9 -1.8l1 -.2c.2 .8 .8 1.4 1.7 1.4c.8 0 1.4 -.5 1.6 -1.4l1 .2c-.1 .7 -.4 1.4 -.9 1.8c-.5 .4 -1.1 .7 -1.7 .7ZM1071.7 251c.9 -.1 1.7 -.3 2.3 -.7c.7 -.5 1 -1.1 1 -1.9v-.8c-1 -.3 -1.9 -.4 -2.9 -.4c-.9 0 -1.6 .1 -2.1 .5c-.6 .3 -.8 .8 -.8 1.4c-.1 .5 .2 1 .7 1.4c.4 .2 1.1 .5 1.8 .5Zm-24.9 .2c.5 0 1 -.2 1.3 -.7c.3 -.4 .5 -1 .5 -1.7c-.1 -.6 -.2 -1.2 -.5 -1.7c-.4 -.5 -.8 -.6 -1.3 -.6q-.1 -.1 -.2 -.1c-.4 0 -.8 .3 -1.1 .7c-.4 .4 -.5 1.1 -.5 1.7c-.1 .7 .2 1.3 .5 1.7c.3 .5 .8 .7 1.3 .7Zm0 1.1c-.9 0 -1.6 -.3 -2.2 -1c-.6 -.7 -.9 -1.5 -.9 -2.5c0 -.9 .3 -1.7 .9 -2.4c.5 -.8 1.3 -1 2.2 -1q.1 0 .2 0c.8 0 1.5 .4 2 1c.5 .6 .9 1.5 .9 2.4c-.1 1 -.3 1.8 -.9 2.5c-.7 .6 -1.3 1 -2.2 1Zm49.4 -1.3c1 -.1 2 -.4 2.7 -1.1c.6 -.8 1 -1.7 1 -2.7c0 -1.1 -.3 -2 -1.1 -2.7c-.8 -.9 -1.6 -1.2 -2.6 -1.2c-.1 0 -.2 0 -.2 0c-1.1 0 -1.8 .4 -2.5 1.1c-.8 .7 -1 1.7 -1 2.8c-.1 1 .3 1.9 1 2.7c.7 .7 1.7 1.1 2.7 1.1Zm39.2 -4.5c-.2 -.9 -.5 -1.7 -1 -2.3c-.6 -.6 -1.3 -.9 -2.3 -.9q-.1 0 -.2 0c-.8 0 -1.4 .4 -2 .9c-.7 .6 -1 1.4 -1.1 2.3Zm35.8 0c-.1 -.9 -.4 -1.7 -1 -2.3c-.6 -.6 -1.3 -.9 -2.2 -.9c-.1 0 -.2 0 -.2 0c-.9 0 -1.5 .4 -2.1 .9c-.7 .6 -1 1.4 -1.1 2.3Zm-91.6 5.7v-10h8.6v10h-1.5v-8.7h-5.6v8.7Zm23.8 .1c-.4 0 -.8 0 -1.2 -.1l.2 -1.3c.2 0 .5 .1 .7 .1c.2 -.1 .5 0 .7 -.1c.1 -.1 .3 -.3 .6 -.6c.1 -.3 .3 -.7 .5 -1.3c0 -.6 .2 -1.3 .3 -2.3c0 -1.1 .1 -2.2 .1 -3.7v-.8h7.2v10h-1.6v-8.7h-4.1v.2c-.1 1.5 0 2.8 -.2 3.9c-.1 1 -.2 1.9 -.4 2.5c-.3 .5 -.4 1.1 -.8 1.4c-.3 .4 -.6 .6 -.9 .7c-.4 .1 -.6 .1 -1.1 .1Zm12.4 -.1v-10h1.5v4.3h5.8v-4.3h1.6v10h-1.6v-4.4h-5.8v4.4Zm23.6 0v-10h1.5v4.3h5.8v-4.3h1.6v10h-1.6v-4.4h-5.8v4.4Zm12.1 0v-10h1.6v7.9l5.8 -7.9h1.5v10h-1.6v-7.9l-5.8 7.9Zm-55.3 .1c-1.6 0 -2.8 -.5 -3.8 -1.5c-1 -1.1 -1.5 -2.2 -1.5 -3.6c0 -1.4 .5 -2.7 1.6 -3.7c.9 -1 2.2 -1.5 3.7 -1.5q.1 0 .2 0c1.3 0 2.6 .6 3.6 1.5c.9 1 1.5 2.2 1.5 3.7c-.1 1.4 -.5 2.6 -1.6 3.6c-1 .9 -2.2 1.5 -3.7 1.5Zm36.1 0c-1.4 0 -2.6 -.5 -3.6 -1.4c-1 -1 -1.4 -2.2 -1.4 -3.7c0 -1.5 .4 -2.7 1.4 -3.7c.9 -1 2.1 -1.5 3.4 -1.5c.1 0 .2 0 .2 0c1.3 0 2.5 .6 3.3 1.5c.9 1 1.3 2.3 1.3 3.8c0 .1 0 .4 0 .5h-8.1c0 1 .5 1.8 1.2 2.3c.6 .5 1.4 .9 2.4 .9c1.2 -.1 2.3 -.5 3.2 -1.4l.9 .8c-1.2 1.2 -2.5 1.9 -4.2 1.9Zm35.9 0c-1.5 0 -2.7 -.5 -3.6 -1.4c-1.1 -1 -1.5 -2.2 -1.5 -3.7c0 -1.5 .5 -2.7 1.4 -3.7c.9 -1 2.1 -1.5 3.5 -1.5q.1 0 .2 0c1.3 0 2.4 .6 3.3 1.5c.8 1 1.2 2.3 1.2 3.8c0 .1 0 .4 0 .5h-8.1c.1 1 .5 1.8 1.2 2.3c.7 .5 1.5 .9 2.4 .9c1.2 -.1 2.3 -.5 3.2 -1.4l1 .8c-1.3 1.2 -2.6 1.9 -4.2 1.9Zm-96.8 0c-1 0 -1.9 -.3 -2.6 -.8c-.8 -.7 -1.1 -1.4 -1.1 -2.4c0 -1.1 .4 -1.8 1.1 -2.4c.8 -.6 1.8 -.9 3.1 -.9c1 0 2.1 .2 3.1 .5V246c0 -.9 -.3 -1.5 -.8 -2c-.6 -.5 -1.2 -.7 -2.2 -.7c0 0 -.1 0 -.2 0c-.9 0 -1.8 .3 -2.8 .7l-.4 -1.2c1.1 -.5 2.4 -.8 3.6 -.8c.1 0 .2 0 .3 0c1.2 0 2.3 .4 3 1.1c.6 .6 1 1.7 1 3v6.1H1075v-1.7c-.9 1.2 -2.1 1.8 -3.6 1.8Zm-9.9 0c-1.6 0 -2.9 -.5 -4.2 -1.5l.8 -1.1c1 .8 2.2 1.3 3.4 1.3c.7 -.1 1.3 -.2 1.8 -.5c.4 -.3 .8 -.8 .8 -1.3c0 -.6 -.3 -1 -.7 -1.3c-.6 -.3 -1.1 -.4 -2 -.4h-1.3v-1.3h1.3c.7 0 1.3 -.2 1.7 -.5c.4 -.3 .6 -.6 .6 -1.1c0 -.4 -.2 -.7 -.6 -.9c-.4 -.3 -.9 -.4 -1.6 -.4q-.1 0 -.2 0c-1.2 0 -2.1 .4 -2.9 .9l-.7 -.9c1 -.9 2.4 -1.3 3.9 -1.3c.1 0 .2 0 .3 0c.9 0 1.8 .3 2.4 .7c.6 .4 1 1.1 1 1.8c-.1 1 -.6 1.8 -1.6 2.2c1.2 .4 1.9 1.3 1.9 2.5c-.1 .9 -.4 1.6 -1.1 2.2c-.8 .5 -1.7 .9 -3 .9ZM1013.9 251c1.2 -.1 2.3 -.6 3 -1.6c.7 -1.2 1.1 -2.5 1.1 -4c0 -1.6 -.3 -2.9 -1.1 -4c-.9 -1.2 -1.8 -1.7 -3 -1.7q-.1 0 -.2 0c-1.2 0 -2.1 .7 -2.8 1.7c-.8 1 -1.1 2.4 -1.1 4c-.1 1.4 .4 2.8 1.1 3.9c.7 1.1 1.8 1.7 3 1.7Zm13.9 0c1.1 -.1 2.2 -.6 3 -1.6c.7 -1.2 1.1 -2.5 1.1 -4c0 -1.6 -.4 -2.9 -1.1 -4c-.9 -1.2 -1.8 -1.7 -3 -1.7c-.1 0 -.2 0 -.2 0c-1.2 0 -2.1 .7 -2.8 1.7c-.9 1 -1.2 2.4 -1.2 4c0 1.4 .4 2.8 1.2 3.9c.7 1.1 1.8 1.7 3 1.7Zm11 -6.7c.5 -.1 1 -.2 1.3 -.7c.3 -.5 .5 -1 .5 -1.7c-.1 -.7 -.2 -1.2 -.5 -1.7c-.4 -.5 -.8 -.7 -1.3 -.7c-.5 0 -.9 .2 -1.3 .7c-.3 .5 -.5 1 -.5 1.7c-.1 .7 .2 1.2 .6 1.7c.3 .4 .7 .7 1.2 .7Zm-1.7 7.9l10 -13.6h1.4l-10 13.6Zm-33.6 0V240.1l-2.6 .8l-.3 -1.3l3.3 -1.1h1.1v13.7Zm35.3 -6.8c-.9 -.1 -1.6 -.4 -2.2 -1.1c-.6 -.7 -.9 -1.4 -.9 -2.4c0 -1 .3 -1.8 .9 -2.4c.5 -.8 1.3 -1.1 2.2 -1.1c.1 0 .2 0 .3 0c.7 0 1.4 .4 1.9 1.1c.5 .5 .9 1.4 .9 2.4c-.1 .9 -.3 1.8 -.9 2.4c-.7 .7 -1.3 1.1 -2.2 1.1Zm-24.9 7c-1.8 -.1 -3.1 -.7 -4.1 -2c-1.1 -1.5 -1.6 -3.1 -1.6 -5c-.1 -2 .5 -3.6 1.6 -5c1 -1.4 2.4 -2 4.1 -2c.1 -.1 .2 -.1 .2 -.1c1.6 0 3 .8 4 2.1c1 1.3 1.5 3 1.5 5c0 1.9 -.5 3.6 -1.6 4.9c-1 1.3 -2.4 2.1 -4.1 2.1Zm13.9 0c-1.8 -.1 -3.1 -.7 -4.2 -2c-1.1 -1.5 -1.5 -3.1 -1.5 -5c-.1 -2 .5 -3.6 1.6 -5c1 -1.4 2.4 -2 4.1 -2q.1 -.1 .2 -.1c1.5 0 2.9 .8 3.9 2.1c1.1 1.3 1.6 3 1.6 5c0 1.9 -.5 3.6 -1.6 4.9c-1.1 1.3 -2.4 2.1 -4.1 2.1Z"/></clipPath>
</defs>
<image preserveAspectRatio="none" x="150" y="0" width="1167" height="825" xlink:href="img/1.jpg"/>
<image clip-path="url(#c0_34)" preserveAspectRatio="none" x="150" y="5" width="1167" height="825" xlink:href="img/2.jpg"/>
<image clip-path="url(#c1_34)" preserveAspectRatio="none" x="150" y="0" width="1167" height="825" xlink:href="img/3.jpg"/>
<image clip-path="url(#c2_34)" preserveAspectRatio="none" x="150" y="0" width="1167" height="825" xlink:href="img/4.jpg"/>
<image clip-path="url(#c3_34)" preserveAspectRatio="none" x="150" y="0" width="1167" height="825" xlink:href="img/5.jpg"/>
<image clip-path="url(#c4_34)" preserveAspectRatio="none" x="150" y="0" width="1167" height="825" xlink:href="img/6.jpg"/>
</svg>