<?xml version="1.0" encoding="UTF-8" standalone="no"?>
<!DOCTYPE svg PUBLIC "-//W3C//DTD SVG 1.1//EN"
"http://www.w3.org/Graphics/SVG/1.1/DTD/svg11.dtd">
<svg viewBox="0 0 1466 825" version="1.1" xmlns="http://www.w3.org/2000/svg" xmlns:xlink="http://www.w3.org/1999/xlink">
<defs>
<clipPath id="c0_28"><path d="M149.9 825V0h1167V825Z"/></clipPath>
<clipPath id="c1_28"><path d="M236.7 825c-1.8 0 -3.3 -1.5 -3.3 -3.3V86.5c0 -1.8 1.5 -3.3 3.3 -3.3H1316.9V825Z"/></clipPath>
<clipPath id="c2_28"><path d="M600.3 817V372.2h351V817Z"/></clipPath>
<clipPath id="c3_28"><path d="M241.9 817V372.2h351V817Z"/></clipPath>
<clipPath id="c4_28"><path d="M957.9 817V372.2h351V817Z"/></clipPath>
<clipPath id="c5_28"><path d="M461.2 155.9c2.7 -.1 4.2 -1.1 4.2 -3.1c-.1 -2.1 -1.5 -3 -4.4 -3h-6.9v6.1Zm27.1 -.3c2.9 0 4.6 -1.2 4.6 -3.8c-.1 -2.5 -1.6 -3.7 -4.6 -3.7h-5.4v7.5ZM364.1 149.9L360.5 141l-3.6 8.9Zm-28.8 -2.6c1.5 0 2.7 -.3 3.6 -1.1c.9 -.9 1.3 -1.8 1.3 -3.1c-.1 -1.3 -.4 -2.3 -1.3 -3c-.9 -.7 -2.1 -1.1 -3.7 -1.1h-4.8v8.3Zm124.3 -2.6c2.8 0 4.3 -1 4.3 -3c-.1 -1.1 -.4 -1.7 -1 -2.2c-.8 -.5 -1.7 -.7 -2.9 -.7h-5.9v5.9Zm-31.9 10.9c2.3 0 4.3 -.8 5.8 -2.4c1.5 -1.7 2.3 -3.6 2.3 -6c-.1 -2.5 -.8 -4.4 -2.3 -6c-1.6 -1.7 -3.5 -2.5 -5.9 -2.5c-2.4 0 -4.3 .8 -5.8 2.4c-1.7 1.6 -2.3 3.7 -2.3 6.1c0 2.3 .8 4.3 2.3 6c1.4 1.6 3.5 2.4 5.9 2.4Zm170 0c2.4 0 4.4 -.8 5.9 -2.4c1.5 -1.7 2.3 -3.6 2.3 -6c-.2 -2.5 -.8 -4.4 -2.4 -6c-1.5 -1.7 -3.5 -2.5 -5.8 -2.5c-2.4 0 -4.3 .8 -5.9 2.4c-1.6 1.6 -2.2 3.7 -2.2 6.1c0 2.3 .7 4.3 2.3 6c1.4 1.6 3.5 2.4 5.8 2.4ZM293.3 161l9.4 -13.9l-9 -13.4h7l5.7 8.8l5.7 -8.8h6.8L309.8 147l9.5 14h-7l-6.1 -9.4l-6.1 9.4Zm52.9 .1l11.6 -27.4h5.5L375 161.1h-6.3L366.2 155H354.8l-2.5 6.1ZM380 161V133.7h6.4l7.2 11.5l7.2 -11.5h6.3V161h-5.8V143.2l-7.7 11.6h-.1l-7.7 -11.5V161Zm97.1 0V133.7h5.8V143h5.8c3 0 5.6 .8 7.3 2.4c1.8 1.6 2.7 3.7 2.7 6.4c-.1 2.8 -.9 5.1 -2.8 6.7c-1.9 1.6 -4.3 2.5 -7.5 2.5Zm24.7 0V133.7h5.9V161Zm13.3 0V133.7h5.8v17.9l12 -17.9h5.4V161h-5.8V143.1L520.6 161Zm42.3 0V133.7h5.8v11.9l11 -11.9h7.2l-11 11.6L581.9 161h-7.1l-8.4 -11.6l-3.2 3.2V161Zm60.9 0V133.7h6.4l7.2 11.5l7.2 -11.5h6.3V161h-5.8V143.2l-7.7 11.6h-.1l-7.6 -11.5V161Zm34.5 -.2V133.7h22.6v27.1h-5.8V139h-11v21.8Zm30.4 .5c-1.2 0 -2.2 -.1 -3.1 -.3l.4 -4.9c.3 0 .6 .1 .9 .1c.8 -.1 1.6 -.2 2.1 -.6c.6 -.4 1.1 -1.1 1.6 -2.3c.4 -1.1 .8 -2.8 1 -5.1c.2 -2.3 .3 -5.2 .3 -8.8v-5.7h19.3V161h-5.8V139h-7.8v2.1c0 5.3 -.3 9.5 -1 12.4c-.6 2.9 -1.5 5 -2.8 6.1c-1.3 1 -2.9 1.7 -5.1 1.7Zm29.9 -.3V133.7h20.4V139H718.9v5.7h13V150h-13v5.6h14.8V161Zm26.8 0V133.7h5.8v11.9l11 -11.9h7.2l-11 11.6L764.4 161h-7.2l-8.4 -11.6l-3.1 3.2V161Zm-415.3 -.2V133.7h11.2c3.1 0 5.7 .9 7.6 2.6c1.8 1.6 2.8 4 2.8 6.8c-.1 3 -1 5.4 -3.1 7.1c-2.2 1.6 -4.8 2.5 -8.1 2.5h-4.6v8.1Zm123.7 .2V133.7h12.5c3 0 5.5 .8 7.1 2.4c1.1 1.2 1.8 2.8 1.8 4.7c0 2.6 -1.2 4.6 -3.5 5.9c1.7 .7 2.9 1.5 3.7 2.6c.9 .9 1.3 2.4 1.3 4.2c-.1 2.4 -.9 4.3 -2.7 5.6c-1.9 1.2 -4.3 1.9 -7.4 1.9Zm-20.7 .3c-4.2 0 -7.6 -1.4 -10.3 -4.1c-2.8 -2.8 -4.1 -6.1 -4.1 -10c0 -4 1.3 -7.3 4.1 -10c2.7 -2.8 6.2 -4.2 10.4 -4.2c4.1 0 7.6 1.4 10.3 4.1c2.7 2.7 4.1 6.1 4.1 10.1c-.1 3.8 -1.4 7.2 -4.2 10c-2.8 2.7 -6.2 4.1 -10.3 4.1Zm170.1 0c-4.2 0 -7.6 -1.4 -10.4 -4.1c-2.7 -2.8 -4.1 -6.1 -4.1 -10c0 -4 1.4 -7.3 4.2 -10c2.7 -2.8 6.2 -4.2 10.3 -4.2c0 0 .1 0 .1 0c4 0 7.5 1.4 10.3 4.1c2.6 2.7 4.1 6.1 4.1 10.1c-.1 3.8 -1.4 7.2 -4.2 10c-2.8 2.7 -6.2 4.1 -10.3 4.1Zm182 0c-4.1 0 -7.4 -1.4 -10 -4.1c-2.8 -2.8 -4 -6.1 -4 -10c0 -4 1.3 -7.3 4 -10.1c2.7 -2.7 6.1 -4.1 10.2 -4.1c2.3 0 4.4 .4 6 1.2c1.5 .7 3.1 1.9 4.5 3.4l-3.5 4.1c-1.3 -1.1 -2.3 -1.8 -3.3 -2.3c-1.1 -.5 -2.3 -.7 -3.7 -.7c-2.4 0 -4.2 .8 -5.6 2.4c-1.6 1.6 -2.3 3.7 -2.3 6.1c0 2.3 .8 4.3 2.3 6c1.4 1.6 3.3 2.4 5.6 2.4c1.4 0 2.7 -.2 3.8 -.7c.9 -.6 2.1 -1.3 3.3 -2.4l3.8 4.1c-1.5 1.5 -3 2.8 -4.8 3.6c-1.7 .7 -3.8 1.1 -6.3 1.1ZM526.8 131.7c-1.8 0 -3.3 -.5 -4.4 -1.6c-1.2 -1 -1.9 -2.5 -2.1 -4.4l3.4 -.6c.6 1.7 1.6 2.6 3.1 2.6c1.5 0 2.5 -.9 3.1 -2.6l3.4 .6c-.3 1.9 -.9 3.4 -2.1 4.4c-1.2 1.1 -2.6 1.6 -4.4 1.6Z"/></clipPath>
<clipPath id="c6_28"><path d="M356.4 338.1l-.3 -.8c1 -.4 1.6 -1 1.6 -1.8v-.3h-.9v-2.4H359v2.1c-.1 .8 -.2 1.7 -.6 2.2c-.5 .4 -1.1 .8 -2 1Zm504.3 0l-.3 -.8c1 -.4 1.6 -1 1.6 -1.8v-.3h-.9v-2.4h2.2v2.1c-.1 .8 -.2 1.7 -.6 2.2c-.5 .4 -1.1 .8 -2 1Zm267.2 -2.9v-2.4h2.2v2.4ZM553.5 333.7c.8 -.1 1.5 -.2 2 -.6c.4 -.4 .8 -.8 .8 -1.4c0 -.6 -.3 -1.1 -.8 -1.4c-.6 -.3 -1.3 -.5 -2.2 -.5h-3.8v3.9Zm127.1 0c.8 -.1 1.5 -.2 2 -.6c.5 -.4 .8 -.8 .8 -1.4c0 -.6 -.3 -1.1 -.8 -1.4c-.6 -.3 -1.3 -.5 -2.2 -.5h-3.8v3.9Zm173 0c.8 -.1 1.5 -.2 2 -.6c.5 -.4 .8 -.8 .8 -1.4c0 -.6 -.3 -1.1 -.8 -1.4c-.6 -.3 -1.2 -.5 -2.2 -.5h-3.8v3.9Zm26 0c.7 -.1 1.5 -.2 2 -.6c.4 -.4 .7 -.8 .7 -1.4c0 -.6 -.2 -1.1 -.7 -1.4c-.6 -.3 -1.3 -.5 -2.3 -.5h-3.8v3.9ZM331.1 334c1 0 2 -.3 2.8 -.9c.6 -.6 1.1 -1.3 1.1 -2.3v-1c-1.2 -.4 -2.3 -.5 -3.4 -.5c-1.1 0 -2 .2 -2.6 .6c-.6 .3 -.9 1 -.9 1.8c-.1 .6 .3 1.2 .8 1.7c.6 .3 1.3 .6 2.2 .6Zm200.1 0c1.1 0 2.1 -.3 2.8 -.9c.7 -.6 1.2 -1.3 1.2 -2.3v-1c-1.2 -.4 -2.3 -.5 -3.5 -.5c-1.1 0 -1.9 .2 -2.5 .6c-.7 .3 -1 1 -1 1.8c0 .6 .3 1.2 .9 1.7c.6 .3 1.3 .6 2.1 .6Zm408.1 0c1.1 0 2.1 -.3 2.8 -.9c.7 -.6 1.2 -1.3 1.2 -2.3v-1c-1.2 -.4 -2.3 -.5 -3.5 -.5c-1.1 0 -1.9 .2 -2.5 .6c-.7 .3 -1 1 -1 1.8c0 .6 .3 1.2 .9 1.7c.6 .3 1.3 .6 2.1 .6Zm43.5 0c1 0 2 -.3 2.8 -.9c.6 -.6 1.1 -1.3 1.1 -2.3v-1c-1.2 -.4 -2.3 -.5 -3.4 -.5c-1.1 0 -2 .2 -2.6 .6c-.6 .3 -.9 1 -.9 1.8c-.1 .6 .3 1.2 .9 1.7c.5 .3 1.2 .6 2.1 .6Zm101.7 0c1 0 2 -.3 2.8 -.9c.6 -.6 1.1 -1.3 1.1 -2.3v-1c-1.2 -.4 -2.3 -.5 -3.5 -.5c-1 0 -1.9 .2 -2.5 .6c-.6 .3 -.9 1 -.9 1.8c-.1 .6 .3 1.2 .8 1.7c.6 .3 1.3 .6 2.2 .6Zm-675 -4.9v-1.9h6.6v1.9Zm143.7 -.8c.6 0 1.3 -.2 1.7 -.5c.5 -.4 .7 -.8 .7 -1.3c0 -.6 -.2 -.9 -.6 -1.2c-.5 -.3 -1 -.4 -1.8 -.4h-3.7v3.4Zm127.1 0c.7 0 1.3 -.2 1.8 -.5c.4 -.4 .6 -.8 .6 -1.3c0 -.6 -.2 -.9 -.6 -1.2c-.4 -.3 -1 -.4 -1.8 -.4h-3.7v3.4Zm173 0c.7 0 1.3 -.2 1.8 -.5c.4 -.4 .6 -.8 .6 -1.3c0 -.6 -.2 -.9 -.6 -1.2c-.4 -.3 -1 -.4 -1.8 -.4h-3.7v3.4Zm25.9 0c.7 0 1.4 -.2 1.8 -.5c.4 -.4 .7 -.8 .7 -1.3c0 -.6 -.2 -.9 -.7 -1.2c-.4 -.3 -1 -.4 -1.7 -.4h-3.8v3.4ZM400.7 334c1.3 0 2.3 -.5 3.2 -1.4c.7 -.9 1.2 -2 1.2 -3.3c0 -1.3 -.4 -2.4 -1.3 -3.3c-.9 -1 -1.9 -1.4 -3.2 -1.4c-1.4 0 -2.3 .5 -3.2 1.4c-.8 .9 -1.2 2 -1.2 3.3c-.1 1.3 .4 2.4 1.3 3.3c.8 .9 1.9 1.4 3.2 1.4Zm34.3 0c1.3 0 2.4 -.5 3.2 -1.4c.8 -.9 1.3 -2 1.3 -3.3c-.1 -1.3 -.5 -2.4 -1.3 -3.3c-1 -1 -2 -1.4 -3.2 -1.4c-1.4 0 -2.4 .5 -3.2 1.4c-.9 .9 -1.3 2 -1.3 3.3c0 1.3 .5 2.4 1.3 3.3c.8 .9 1.9 1.4 3.2 1.4Zm131.9 0c1.3 0 2.3 -.5 3.2 -1.4c.7 -.9 1.2 -2 1.2 -3.3c0 -1.3 -.4 -2.4 -1.3 -3.3c-.9 -1 -1.9 -1.4 -3.2 -1.4c-1.4 0 -2.3 .5 -3.2 1.4c-.8 .9 -1.2 2 -1.2 3.3c-.1 1.3 .4 2.4 1.3 3.3c.8 .9 1.9 1.4 3.2 1.4Zm28.9 0c1.3 0 2.3 -.5 3.2 -1.4c.7 -.9 1.2 -2 1.2 -3.3c0 -1.3 -.4 -2.4 -1.3 -3.3c-.9 -1 -1.9 -1.4 -3.2 -1.4c-1.4 0 -2.3 .5 -3.2 1.4c-.8 .9 -1.2 2 -1.2 3.3c-.1 1.3 .4 2.4 1.3 3.3c.8 .9 1.9 1.4 3.2 1.4Zm69.6 0c1.3 0 2.4 -.5 3.2 -1.4c.8 -.9 1.3 -2 1.3 -3.3c-.1 -1.3 -.5 -2.4 -1.3 -3.3c-1 -1 -2 -1.4 -3.2 -1.4c-1.4 0 -2.4 .5 -3.2 1.4c-.9 .9 -1.3 2 -1.3 3.3c0 1.3 .5 2.4 1.3 3.3c.8 .9 2 1.4 3.2 1.4Zm71.2 0c1.3 0 2.4 -.5 3.2 -1.4c.8 -.9 1.3 -2 1.3 -3.3c-.1 -1.3 -.4 -2.4 -1.3 -3.3c-.9 -1 -1.9 -1.4 -3.2 -1.4c-1.4 0 -2.4 .5 -3.2 1.4c-.9 .9 -1.2 2 -1.2 3.3c-.1 1.3 .4 2.4 1.3 3.3c.8 .9 1.9 1.4 3.1 1.4Zm29 0c1.2 0 2.3 -.5 3.1 -1.4c.8 -.9 1.3 -2 1.3 -3.3c0 -1.3 -.4 -2.4 -1.3 -3.3c-.9 -1 -1.9 -1.4 -3.2 -1.4c-1.4 0 -2.4 .5 -3.2 1.4c-.8 .9 -1.2 2 -1.2 3.3c-.1 1.3 .4 2.4 1.3 3.3c.8 .9 1.9 1.4 3.2 1.4Zm72.8 0c1.3 0 2.4 -.5 3.2 -1.4c.8 -.9 1.3 -2 1.3 -3.3c-.1 -1.3 -.5 -2.4 -1.3 -3.3c-.9 -1 -2 -1.4 -3.2 -1.4c-1.4 0 -2.4 .5 -3.2 1.4c-.9 .9 -1.2 2 -1.2 3.3c-.1 1.3 .4 2.4 1.2 3.3c.9 .9 2 1.4 3.2 1.4Zm199.7 0c1.3 0 2.4 -.5 3.2 -1.4c.8 -.9 1.3 -2 1.3 -3.3c-.1 -1.3 -.5 -2.4 -1.3 -3.3c-1 -1 -2 -1.4 -3.2 -1.4c-1.4 0 -2.4 .5 -3.2 1.4c-.9 .9 -1.3 2 -1.3 3.3c0 1.3 .5 2.4 1.3 3.3c.8 .9 1.9 1.4 3.2 1.4ZM318 333.9c1.2 0 2.2 -.4 3.1 -1.3c.7 -.8 1.2 -2 1.2 -3.4c-.1 -1.5 -.4 -2.5 -1.3 -3.4c-.9 -.9 -1.8 -1.3 -3 -1.3q-.1 0 -.2 0c-1.1 0 -2 .5 -2.8 1.4c-.9 .8 -1.3 2 -1.3 3.3c-.1 1.3 .4 2.5 1.3 3.4c.8 .9 1.9 1.3 3 1.3Zm332.5 0c1.2 0 2.3 -.4 3.1 -1.3c.7 -.8 1.2 -2 1.2 -3.4c-.1 -1.5 -.4 -2.5 -1.3 -3.4c-.8 -.9 -1.8 -1.3 -3 -1.3c0 0 -.1 0 -.2 0c-1.1 0 -2 .5 -2.8 1.4c-.9 .8 -1.3 2 -1.3 3.3c-.1 1.3 .4 2.5 1.3 3.4c.8 .9 1.9 1.3 3 1.3Zm304.6 0c1.1 0 2.2 -.4 3 -1.3c.8 -.8 1.2 -2 1.2 -3.4c0 -1.5 -.4 -2.5 -1.2 -3.4c-.9 -.9 -1.8 -1.3 -3 -1.3c-.1 0 -.2 0 -.3 0c-1.1 0 -1.9 .5 -2.7 1.4c-1 .8 -1.3 2 -1.3 3.3c-.1 1.3 .4 2.5 1.3 3.4c.8 .9 1.8 1.3 3 1.3Zm143.6 0c.9 0 1.9 -.4 2.6 -1.2v-7c-.7 -.8 -1.6 -1.2 -2.6 -1.2c-.1 0 -.2 0 -.3 0c-1.1 0 -1.8 .5 -2.3 1.3c-.6 .8 -.9 2 -.9 3.5c0 3.1 1.2 4.6 3.5 4.6Zm7.2 0c2.2 0 3.4 -1.5 3.4 -4.7c0 -1.5 -.3 -2.6 -.8 -3.4c-.7 -.9 -1.5 -1.3 -2.6 -1.3c-.1 0 -.2 0 -.3 0c-.9 0 -1.7 .5 -2.4 1.2v7c.7 .8 1.7 1.2 2.7 1.2ZM639.7 328.6c-.1 -1.2 -.5 -2.1 -1.1 -2.9c-.8 -.8 -1.6 -1.2 -2.8 -1.2c-.1 0 -.2 0 -.2 0c-1 0 -1.8 .5 -2.5 1.2c-.8 .7 -1.2 1.7 -1.3 2.9Zm256.7 0c-.2 -1.2 -.5 -2.1 -1.2 -2.9c-.8 -.8 -1.6 -1.2 -2.8 -1.2c0 0 -.1 0 -.2 0c-1 0 -1.8 .5 -2.4 1.2c-.8 .7 -1.2 1.7 -1.4 2.9Zm23.9 0c-.2 -1.2 -.5 -2.1 -1.2 -2.9c-.8 -.8 -1.6 -1.2 -2.7 -1.2c-.1 0 -.2 0 -.3 0c-1 0 -1.7 .5 -2.4 1.2c-.8 .7 -1.2 1.7 -1.3 2.9Zm136.3 0c-.2 -1.2 -.6 -2.1 -1.2 -2.9c-.8 -.8 -1.6 -1.2 -2.8 -1.2c-.1 0 -.2 0 -.2 0c-1 0 -1.8 .5 -2.5 1.2c-.8 .7 -1.2 1.7 -1.3 2.9Zm66.9 0c-.2 -1.2 -.5 -2.1 -1.2 -2.9c-.8 -.8 -1.6 -1.2 -2.7 -1.2c-.1 0 -.2 0 -.3 0c-1 0 -1.7 .5 -2.4 1.2c-.8 .7 -1.2 1.7 -1.3 2.9Zm-704.1 6.8V323.3h8.3v1.6h-6.5v10.5Zm41.1 0V324.9h-4.3v-1.6h10.7v1.6h-4.5v10.5Zm114.8 .2c-.5 0 -.9 -.1 -1.5 -.2l.2 -1.6c.4 .1 .7 .2 .9 .2c.3 0 .6 0 .9 -.1c.1 -.2 .4 -.3 .7 -.7c.2 -.5 .4 -.9 .6 -1.6c.1 -.6 .2 -1.6 .3 -2.8c.1 -1.3 .2 -2.7 .2 -4.5v-1h8.7v12.1h-1.9V324.9h-4.9v.3c-.1 1.7 -.1 3.4 -.3 4.7c-.2 1.2 -.3 2.3 -.5 3c-.2 .7 -.5 1.3 -.9 1.7c-.5 .4 -.8 .7 -1.1 .8c-.4 .1 -.8 .2 -1.4 .2Zm47.2 -.2V324.9h-4.3v-1.6h10.7v1.6h-4.5v10.5Zm94.1 0V323.3h10.5v12.1h-1.8V324.9h-6.8v10.5Zm28.5 .2c-.5 0 -1 -.1 -1.5 -.2l.2 -1.6c.4 .1 .7 .2 .9 .2c.2 0 .6 0 .8 -.1c.2 -.2 .5 -.3 .8 -.7c.2 -.5 .4 -.9 .6 -1.6c.1 -.6 .2 -1.6 .3 -2.8c.1 -1.3 .2 -2.7 .2 -4.5v-1H756v12.1h-1.8V324.9h-5v.3c0 1.7 0 3.4 -.2 4.7c-.2 1.2 -.3 2.3 -.5 3c-.3 .7 -.5 1.3 -.9 1.7c-.5 .4 -.8 .7 -1.1 .8c-.4 .1 -.9 .2 -1.4 .2ZM901 335.4V323.3h8.3v1.6h-6.5v10.5Zm26.4 0V324.9h-4.3v-1.6h10.6v1.6h-4.4v10.5Zm-586.8 -.2V323.3h1.8l4.5 6.3l4.5 -6.3h1.7v11.9h-1.8v-9.1l-4.4 6.1l-4.4 -6.1v9.1Zm42 0V323.3h1.9v6.9l6.6 -6.9h2.3l-5.1 5.2l5.2 6.7h-2.1L387 329.8l-2.5 2.6v2.8Zm86.5 0V323.3H471v9.4l7.1 -9.4h1.8v11.9h-1.8v-9.4l-7.2 9.4Zm14.6 0V323.3h1.9v5h6.9v-5h1.9v11.9h-1.9v-5.3h-6.9v5.3Zm14.5 0V323.3h1.9v9.4l7.1 -9.4H509v11.9h-1.8v-9.4l-7.2 9.4Zm49.4 0V323.3h5.9c1.1 0 2.2 .2 2.9 .8c.7 .5 1.1 1.2 1.1 2.1c-.1 1.2 -.7 2.2 -2.1 2.7c1.8 .5 2.7 1.5 2.7 3c0 1 -.4 1.9 -1.2 2.5c-.9 .5 -1.8 .8 -3.2 .8Zm57.5 0V323.3h1.8v5h7v-5h1.8v11.9h-1.8v-5.3h-7v5.3Zm69.6 0V323.3h5.9c1.1 0 2.2 .2 2.9 .8c.7 .5 1.1 1.2 1.1 2.1c-.1 1.2 -.7 2.2 -2.1 2.7c1.8 .5 2.7 1.5 2.7 3c0 1 -.4 1.9 -1.2 2.5c-.9 .5 -1.8 .8 -3.2 .8Zm20.4 0V323.3H697v9.4l7.2 -9.4H706v11.9h-1.9v-9.4l-7.2 9.4Zm79.8 0V323.3h1.8l4.4 6.3l4.5 -6.3h1.8v11.9h-1.9v-9.1l-4.4 6.1l-4.4 -6.1v9.1Zm16.3 0V323.3h1.9v5H800v-5h1.9v11.9H800v-5.3h-6.9v5.3Zm14.5 0V323.3h1.9v9.4l7.1 -9.4h1.9v11.9h-1.9v-9.4l-7.2 9.4Zm14.6 0V323.3h1.9v6.9l6.7 -6.9h2.2l-5.1 5.2l5.2 6.7h-2.1l-4.3 -5.4l-2.6 2.6v2.8Zm27.4 0V323.3h5.9c1.2 0 2.2 .2 2.9 .8c.7 .5 1.1 1.2 1.1 2.1c-.1 1.2 -.7 2.2 -2.1 2.7c1.8 .5 2.8 1.5 2.8 3c-.1 1 -.4 1.9 -1.2 2.5c-1 .5 -1.9 .8 -3.3 .8Zm26 0V323.3h5.9c1.1 0 2.1 .2 2.8 .8c.7 .5 1.1 1.2 1.1 2.1c0 1.2 -.7 2.2 -2 2.7c1.7 .5 2.7 1.5 2.7 3c-.1 1 -.4 1.9 -1.2 2.5c-.9 .5 -1.9 .8 -3.2 .8Zm90.6 0V323.3h1.9v9.4l7.1 -9.4h1.8v11.9h-1.8v-9.4l-7.2 9.4Zm28 0V323.3h1.9v5h6.9v-5h1.9v11.9h-1.9v-5.3h-6.9v5.3Zm27.7 0V323.3h1.9v6.9l6.6 -6.9h2.3l-5.1 5.2l5.2 6.7h-2.1l-4.3 -5.4l-2.6 2.6v2.8Zm48 0V323.3h1.8v6.9l6.7 -6.9h2.2l-5.1 5.2l5.3 6.7h-2.2l-4.3 -5.4l-2.6 2.6v2.8Zm-544.5 3v-3H512.8V323.1h1.9v10.6h6.8V323.1h1.8v10.6h1.8v4.5Zm-73.6 -2.6c-1.8 0 -3.2 -.6 -4.4 -1.9c-1.3 -1.3 -1.8 -2.7 -1.8 -4.4c0 -1.7 .6 -3.2 1.8 -4.4c1.1 -1.4 2.6 -1.9 4.4 -1.9c0 0 .1 0 .1 0c1.8 0 3.4 .8 4.8 2.2l-1.2 1.2c-1.2 -1.2 -2.4 -1.8 -3.7 -1.8c-1.3 0 -2.3 .5 -3.1 1.4c-.9 .9 -1.3 2 -1.3 3.3c0 1.3 .5 2.4 1.3 3.3c.8 .9 1.9 1.4 3.2 1.4c1.3 0 2.5 -.6 3.7 -1.8l1.2 1.1c-1.5 1.5 -3.1 2.3 -5 2.3Zm562.5 0c-1.9 0 -3.3 -.6 -4.5 -1.9c-1.2 -1.3 -1.8 -2.7 -1.8 -4.4c0 -1.7 .6 -3.2 1.8 -4.4c1.2 -1.4 2.7 -1.9 4.5 -1.9h.1c1.7 0 3.4 .8 4.8 2.2l-1.2 1.2c-1.2 -1.2 -2.4 -1.8 -3.7 -1.8c-1.3 0 -2.3 .5 -3.1 1.4c-.9 .9 -1.3 2 -1.3 3.3c-.1 1.3 .4 2.4 1.3 3.3c.8 .9 1.9 1.4 3.2 1.4c1.3 0 2.5 -.6 3.6 -1.8l1.2 1.1c-1.4 1.5 -3 2.3 -4.9 2.3Zm-611.8 0c-1.9 0 -3.3 -.6 -4.5 -1.9c-1.2 -1.2 -1.8 -2.7 -1.8 -4.4c0 -1.7 .7 -3.2 1.9 -4.4c1.1 -1.4 2.7 -1.9 4.5 -1.9h.1c1.7 0 3.2 .7 4.4 1.9c1.1 1.1 1.8 2.7 1.8 4.4c0 1.7 -.6 3.2 -1.8 4.4c-1.3 1.2 -2.8 1.9 -4.6 1.9Zm34.4 0c-1.9 0 -3.3 -.6 -4.5 -1.9c-1.3 -1.2 -1.8 -2.7 -1.8 -4.4c0 -1.7 .6 -3.2 1.8 -4.4c1.2 -1.4 2.7 -1.9 4.5 -1.9c0 0 .1 0 .1 0c1.8 0 3.2 .7 4.4 1.9c1.2 1.1 1.8 2.7 1.8 4.4c0 1.7 -.6 3.2 -1.8 4.4c-1.3 1.2 -2.7 1.9 -4.5 1.9Zm131.8 0c-1.9 0 -3.3 -.6 -4.5 -1.9c-1.2 -1.2 -1.8 -2.7 -1.8 -4.4c0 -1.7 .6 -3.2 1.8 -4.4c1.2 -1.4 2.8 -1.9 4.6 -1.9h.1c1.7 0 3.2 .7 4.4 1.9c1.1 1.1 1.8 2.7 1.8 4.4c0 1.7 -.6 3.2 -1.9 4.4c-1.2 1.2 -2.7 1.9 -4.5 1.9Zm28.9 0c-1.9 0 -3.3 -.6 -4.5 -1.9c-1.2 -1.2 -1.8 -2.7 -1.8 -4.4c0 -1.7 .6 -3.2 1.9 -4.4c1.1 -1.4 2.7 -1.9 4.5 -1.9h.1c1.7 0 3.2 .7 4.4 1.9c1.1 1.1 1.8 2.7 1.8 4.4c0 1.7 -.6 3.2 -1.9 4.4c-1.2 1.2 -2.7 1.9 -4.5 1.9Zm69.7 0c-1.9 0 -3.3 -.6 -4.5 -1.9c-1.3 -1.2 -1.8 -2.7 -1.8 -4.4c0 -1.7 .6 -3.2 1.8 -4.4c1.2 -1.4 2.7 -1.9 4.5 -1.9c0 0 .1 0 .1 0c1.8 0 3.2 .7 4.4 1.9c1.2 1.1 1.8 2.7 1.8 4.4c0 1.7 -.6 3.2 -1.8 4.4c-1.3 1.2 -2.7 1.9 -4.5 1.9Zm71.2 0c-1.9 0 -3.3 -.6 -4.5 -1.9c-1.2 -1.2 -1.8 -2.7 -1.8 -4.4c0 -1.7 .6 -3.2 1.8 -4.4c1.2 -1.4 2.7 -1.9 4.5 -1.9q.1 0 .1 0c1.8 0 3.3 .7 4.4 1.9c1.2 1.1 1.8 2.7 1.8 4.4c0 1.7 -.6 3.2 -1.8 4.4c-1.3 1.2 -2.7 1.9 -4.5 1.9Zm28.9 0c-1.9 0 -3.3 -.6 -4.5 -1.9c-1.2 -1.2 -1.8 -2.7 -1.8 -4.4c0 -1.7 .6 -3.2 1.8 -4.4c1.2 -1.4 2.8 -1.9 4.6 -1.9c1.8 0 3.3 .7 4.5 1.9c1.1 1.1 1.8 2.7 1.8 4.4c0 1.7 -.7 3.2 -1.9 4.4c-1.2 1.2 -2.7 1.9 -4.5 1.9Zm72.9 0c-1.9 0 -3.3 -.6 -4.5 -1.9c-1.3 -1.2 -1.8 -2.7 -1.8 -4.4c0 -1.7 .6 -3.2 1.8 -4.4c1.2 -1.4 2.7 -1.9 4.5 -1.9q.1 0 .1 0c1.8 0 3.2 .7 4.4 1.9c1.2 1.1 1.8 2.7 1.8 4.4c0 1.7 -.6 3.2 -1.8 4.4c-1.3 1.2 -2.7 1.9 -4.5 1.9Zm199.7 0c-1.9 0 -3.3 -.6 -4.5 -1.9c-1.3 -1.2 -1.8 -2.7 -1.8 -4.4c0 -1.7 .6 -3.2 1.8 -4.4c1.2 -1.4 2.7 -1.9 4.5 -1.9c0 0 .1 0 .1 0c1.8 0 3.2 .7 4.4 1.9c1.2 1.1 1.8 2.7 1.8 4.4c0 1.7 -.6 3.2 -1.8 4.4c-1.3 1.2 -2.7 1.9 -4.5 1.9Zm-707.4 0c-1.3 0 -2.3 -.4 -3.1 -1c-1 -.8 -1.4 -1.7 -1.4 -2.9c0 -1.3 .5 -2.3 1.4 -3c.9 -.7 2.2 -1 3.8 -1c0 0 .1 0 .1 0c1.2 0 2.4 .2 3.5 .5v-.3c0 -1.2 -.3 -1.9 -.9 -2.5c-.7 -.6 -1.5 -.8 -2.6 -.8c-1.3 0 -2.4 .3 -3.6 .8l-.6 -1.4c1.5 -.7 3 -1 4.4 -1q.1 0 .1 0c1.6 0 2.9 .5 3.8 1.4c.8 .8 1.3 2 1.3 3.5v7.4H335v-1.9c-1.1 1.4 -2.5 2.2 -4.3 2.2Zm200.2 0c-1.3 0 -2.3 -.4 -3.2 -1c-1 -.8 -1.3 -1.7 -1.3 -2.9c0 -1.3 .4 -2.3 1.4 -3c.9 -.7 2.1 -1 3.7 -1q.1 0 .2 0c1.1 0 2.3 .2 3.5 .5v-.3c-.1 -1.2 -.3 -1.9 -1 -2.5c-.6 -.6 -1.4 -.8 -2.6 -.8c-1.2 0 -2.3 .3 -3.6 .8l-.5 -1.4c1.4 -.7 2.9 -1 4.4 -1h.1c1.6 0 2.9 .5 3.8 1.4c.8 .8 1.2 2 1.2 3.5v7.4h-1.8v-1.9c-1.1 1.4 -2.5 2.2 -4.3 2.2Zm408.1 0c-1.3 0 -2.3 -.4 -3.2 -1c-1 -.8 -1.3 -1.7 -1.3 -2.9c0 -1.3 .5 -2.3 1.4 -3c.9 -.7 2.2 -1 3.7 -1q.1 0 .2 0c1.1 0 2.3 .2 3.5 .5v-.3c-.1 -1.2 -.3 -1.9 -.9 -2.5c-.7 -.6 -1.5 -.8 -2.7 -.8c-1.2 0 -2.3 .3 -3.6 .8l-.5 -1.4c1.4 -.7 2.9 -1 4.4 -1c0 0 .1 0 .1 0c1.6 0 2.9 .5 3.8 1.4c.8 .8 1.2 2 1.2 3.5v7.4h-1.8v-1.9c-1.1 1.4 -2.5 2.2 -4.3 2.2Zm43.4 0c-1.3 0 -2.3 -.4 -3.1 -1c-1 -.8 -1.4 -1.7 -1.4 -2.9c0 -1.3 .5 -2.3 1.4 -3c.9 -.7 2.2 -1 3.8 -1c0 0 .1 0 .1 0c1.2 0 2.4 .2 3.5 .5v-.3c0 -1.2 -.3 -1.9 -.9 -2.5c-.7 -.6 -1.5 -.8 -2.6 -.8c-1.3 0 -2.4 .3 -3.6 .8L979 324c1.5 -.7 3 -1 4.4 -1q.1 0 .1 0c1.6 0 3 .5 3.8 1.4c.8 .8 1.3 2 1.3 3.5v7.4h-1.9v-1.9c-1.1 1.4 -2.5 2.2 -4.3 2.2Zm101.7 0c-1.3 0 -2.3 -.4 -3.2 -1c-.9 -.8 -1.3 -1.7 -1.3 -2.9c0 -1.3 .5 -2.3 1.4 -3c.9 -.7 2.2 -1 3.8 -1c0 0 .1 0 .1 0c1.2 0 2.4 .2 3.5 .5v-.3c0 -1.2 -.3 -1.9 -.9 -2.5c-.7 -.6 -1.5 -.8 -2.6 -.8c-1.3 0 -2.4 .3 -3.6 .8l-.6 -1.4c1.5 -.7 3 -1 4.4 -1q.1 0 .1 0c1.6 0 2.9 .5 3.8 1.4c.8 .8 1.3 2 1.3 3.5v7.4h-1.9v-1.9c-1.1 1.4 -2.5 2.2 -4.3 2.2Zm-772.3 3.3V323.3h1.9v2.3c1.1 -1.8 2.7 -2.7 4.6 -2.7c1.5 0 2.9 .6 4.1 1.8c1.1 1.1 1.7 2.6 1.7 4.5c0 1.8 -.6 3.4 -1.7 4.6c-1.3 1.1 -2.5 1.7 -4.1 1.7c-1.9 -.1 -3.4 -.8 -4.6 -2.5v5.9Zm61.4 -3.3c-1.2 0 -2 -.2 -2.8 -.6c-.8 -.4 -1.5 -1 -2.1 -1.8l1.2 -1.1c1.1 1.2 2.3 1.9 3.6 1.9c1.1 0 2.1 -.4 3 -1.2c.8 -.8 1.3 -1.7 1.4 -2.9H372v-1.6h5.5c-.2 -1 -.6 -1.9 -1.4 -2.7c-.9 -.7 -1.8 -1.1 -2.9 -1.1c-.1 0 -.2 0 -.3 0c-1.3 0 -2.4 .7 -3.4 1.8l-1.1 -1.2c1.3 -1.5 2.9 -2.2 4.9 -2.2c1.6 0 3.2 .7 4.3 1.9c1.1 1.2 1.8 2.8 1.8 4.5c0 1.7 -.6 3.2 -1.8 4.4c-1.3 1.2 -2.7 1.9 -4.4 1.9Zm262.9 0c-1.8 0 -3.2 -.6 -4.4 -1.8c-1.2 -1.2 -1.7 -2.7 -1.7 -4.5c0 -1.8 .5 -3.3 1.7 -4.5c1.1 -1.3 2.5 -1.9 4.2 -1.9c1.6 0 3.1 .7 4.2 1.9c1 1.2 1.5 2.8 1.5 4.7c0 .2 0 .5 0 .7h-9.8c.1 1.1 .6 2.1 1.4 2.8c.8 .6 1.8 1 3 1c1.4 0 2.7 -.5 3.8 -1.6l1.2 .9c-1.5 1.5 -3.1 2.3 -5.1 2.3Zm8.2 3.3V323.3h1.9v2.3c1.2 -1.8 2.8 -2.7 4.6 -2.7c1.5 0 2.9 .6 4.1 1.8c1.1 1.1 1.7 2.6 1.7 4.5c0 1.8 -.5 3.4 -1.7 4.6c-1.2 1.1 -2.5 1.7 -4.1 1.7c-1.9 -.1 -3.4 -.8 -4.6 -2.5v5.9Zm248.4 -3.3c-1.7 0 -3.2 -.6 -4.3 -1.8c-1.3 -1.2 -1.8 -2.7 -1.8 -4.5c0 -1.8 .6 -3.3 1.7 -4.5c1.1 -1.3 2.5 -1.9 4.2 -1.9c1.7 0 3.2 .7 4.2 1.9c1 1.2 1.5 2.8 1.5 4.7c0 .2 0 .5 0 .7h-9.8c.1 1.1 .6 2.1 1.5 2.8c.7 .6 1.8 1 2.9 1c1.4 0 2.8 -.5 3.9 -1.6l1.1 .9c-1.5 1.5 -3.1 2.3 -5.1 2.3Zm23.9 0c-1.7 0 -3.1 -.6 -4.3 -1.8c-1.2 -1.2 -1.8 -2.7 -1.8 -4.5c0 -1.8 .6 -3.3 1.7 -4.5c1.1 -1.3 2.5 -1.9 4.2 -1.9c1.7 0 3.2 .7 4.2 1.9c1 1.2 1.6 2.8 1.6 4.7c0 .2 -.1 .5 -.1 .7h-9.7c0 1.1 .6 2.1 1.4 2.8c.7 .6 1.8 1 2.9 1c1.4 0 2.8 -.5 3.9 -1.6l1.1 .9c-1.4 1.5 -3.1 2.3 -5.1 2.3Zm32.3 3.3V323.3h1.9v2.3c1.1 -1.8 2.7 -2.7 4.6 -2.7c1.5 0 2.9 .6 4.1 1.8c1 1.1 1.7 2.6 1.7 4.5c0 1.8 -.6 3.4 -1.7 4.6c-1.3 1.1 -2.5 1.7 -4.1 1.7c-2 -.1 -3.5 -.8 -4.6 -2.5v5.9Zm104 -3.3c-1.8 0 -3.2 -.6 -4.4 -1.8c-1.2 -1.2 -1.7 -2.7 -1.7 -4.5c0 -1.8 .5 -3.3 1.6 -4.5c1.2 -1.3 2.6 -1.9 4.3 -1.9c1.6 0 3.1 .7 4.2 1.9c1 1.2 1.5 2.8 1.5 4.7c0 .2 0 .5 0 .7h-9.8c.1 1.1 .6 2.1 1.4 2.8c.8 .6 1.8 1 3 1c1.4 0 2.7 -.5 3.8 -1.6l1.2 .9c-1.5 1.5 -3.1 2.3 -5.1 2.3Zm66.9 0c-1.7 0 -3.1 -.6 -4.3 -1.8c-1.2 -1.2 -1.8 -2.7 -1.8 -4.5c0 -1.8 .6 -3.3 1.7 -4.5c1.1 -1.3 2.5 -1.9 4.2 -1.9c1.7 0 3.2 .7 4.2 1.9c1 1.2 1.5 2.8 1.5 4.7c0 .2 0 .5 0 .7h-9.7c0 1.1 .5 2.1 1.4 2.8c.7 .6 1.8 1 2.9 1c1.4 0 2.8 -.5 3.9 -1.6l1.1 .9c-1.4 1.5 -3.1 2.3 -5.1 2.3Zm-825.7 -.4l6.3 -8.3l-6.1 -8h2.2l5 6.7l5.1 -6.7h2.1l-6.1 8l6.4 8.3h-2.3l-5.2 -7l-5.3 7Zm807.2 3.7v-4.6c-.9 .8 -1.9 1.2 -3 1.2c-1.6 -.1 -2.7 -.6 -3.6 -1.7c-.9 -1.2 -1.3 -2.7 -1.3 -4.6c0 -2 .4 -3.5 1.3 -4.6c.9 -1.1 2.1 -1.7 3.6 -1.7c1 0 2.1 .5 3 1.3v-5.4h1.9v5.4c.9 -.9 2 -1.3 3 -1.3c1.4 0 2.7 .6 3.6 1.7c.9 1.1 1.4 2.7 1.4 4.6c-.1 1.9 -.5 3.5 -1.4 4.6c-.9 1.1 -2.1 1.7 -3.6 1.7c-.7 -.1 -1.2 -.1 -1.6 -.3c-.5 -.3 -.9 -.5 -1.4 -.9v4.6Zm-340 -42.5V294h2.1v2.4ZM569.2 294.9c.8 -.1 1.5 -.2 2 -.6c.4 -.4 .8 -.8 .8 -1.4c0 -.6 -.3 -1.1 -.8 -1.4c-.6 -.3 -1.3 -.5 -2.2 -.5h-3.8v3.9Zm-173.4 .3c1.2 0 2.3 -.5 3.1 -1.3c.7 -.9 1.2 -2 1.2 -3.2c0 -1.4 -.4 -2.4 -1.2 -3.3c-.9 -.9 -1.9 -1.3 -3.1 -1.3c-1.3 0 -2.3 .5 -3.1 1.3c-.8 .8 -1.2 2 -1.2 3.3c0 1.1 .4 2.3 1.3 3.2c.8 .8 1.8 1.3 3 1.3ZM516 294.9V286h-4.9v1.7c-.1 2.9 -.5 5.4 -1.5 7.2Zm52.9 -5.4c.6 0 1.3 -.2 1.7 -.5c.5 -.4 .7 -.8 .7 -1.4c0 -.5 -.2 -.8 -.6 -1.1c-.5 -.3 -1 -.5 -1.8 -.5h-3.7v3.5Zm96.1 5.4V286h-4.9v1.7c-.1 2.9 -.5 5.4 -1.5 7.2Zm14.7 0V286h-5v1.7c0 2.9 -.5 5.4 -1.5 7.2ZM495.3 290.5V286h-3.7c-.1 0 -.2 0 -.3 0c-.8 0 -1.4 .3 -1.8 .6c-.6 .4 -.8 1 -.8 1.6c0 .7 .3 1.3 .8 1.7c.6 .4 1.3 .6 2.1 .6Zm-136.4 4.7c1.3 0 2.3 -.5 3.2 -1.4c.7 -.9 1.2 -2 1.2 -3.3c0 -1.3 -.4 -2.4 -1.3 -3.3c-.9 -1 -1.9 -1.4 -3.2 -1.4c-1.4 0 -2.3 .4 -3.2 1.4c-.8 .9 -1.2 2 -1.2 3.3c-.1 1.3 .4 2.4 1.3 3.3c.8 .9 1.9 1.4 3.2 1.4Zm21.8 0c1.3 0 2.3 -.5 3.2 -1.4c.7 -.9 1.2 -2 1.2 -3.3c0 -1.3 -.4 -2.4 -1.3 -3.3c-.9 -1 -1.9 -1.4 -3.2 -1.4c-1.4 0 -2.3 .4 -3.2 1.4c-.8 .9 -1.2 2 -1.2 3.3c-.1 1.3 .4 2.4 1.3 3.3c.8 .9 1.9 1.4 3.2 1.4Zm173.3 0c1.3 0 2.4 -.5 3.2 -1.4c.8 -.9 1.2 -2 1.2 -3.3c0 -1.3 -.4 -2.4 -1.3 -3.3c-.9 -1 -1.9 -1.4 -3.2 -1.4c-1.3 0 -2.3 .4 -3.1 1.4c-.9 .9 -1.3 2 -1.3 3.3c0 1.3 .5 2.4 1.3 3.3c.8 .9 1.9 1.4 3.2 1.4Zm43 0c1.3 0 2.4 -.5 3.2 -1.4c.8 -.9 1.3 -2 1.3 -3.3c-.1 -1.3 -.5 -2.4 -1.3 -3.3c-1 -1 -2 -1.4 -3.2 -1.4c-1.4 0 -2.4 .4 -3.2 1.4c-.9 .9 -1.3 2 -1.3 3.3c0 1.3 .5 2.4 1.3 3.3c.8 .9 2 1.4 3.2 1.4Zm50.8 0c1.3 0 2.4 -.5 3.2 -1.4c.8 -.9 1.3 -2 1.3 -3.3c-.1 -1.3 -.4 -2.4 -1.3 -3.3c-.9 -1 -1.9 -1.4 -3.2 -1.4c-1.4 0 -2.4 .4 -3.2 1.4c-.9 .9 -1.2 2 -1.2 3.3c-.1 1.3 .4 2.4 1.3 3.3c.8 .9 1.9 1.4 3.1 1.4Zm-236.6 -.1c1.2 0 2.2 -.4 3 -1.3c.8 -.8 1.3 -2 1.3 -3.4c-.1 -1.5 -.5 -2.5 -1.3 -3.4c-.9 -.9 -1.8 -1.3 -3 -1.3c-.1 0 -.2 0 -.2 0c-1.2 0 -2 .5 -2.8 1.3c-1 .9 -1.3 2.1 -1.3 3.4c-.1 1.3 .4 2.5 1.3 3.4c.8 .9 1.9 1.3 3 1.3Zm294.2 0c1.1 0 2.2 -.4 3 -1.3c.8 -.8 1.2 -2 1.2 -3.4c0 -1.5 -.4 -2.5 -1.2 -3.4c-.9 -.9 -1.8 -1.3 -3 -1.3c-.1 0 -.2 0 -.2 0c-1.2 0 -2 .5 -2.8 1.3c-1 .9 -1.3 2.1 -1.3 3.4c-.1 1.3 .4 2.5 1.3 3.4c.8 .9 1.8 1.3 3 1.3ZM324.3 289.8c-.1 -1.2 -.5 -2.2 -1.2 -2.9c-.7 -.8 -1.6 -1.2 -2.7 -1.2c-.1 0 -.2 0 -.3 0c-1 0 -1.7 .5 -2.4 1.2c-.8 .7 -1.2 1.7 -1.3 2.9Zm105.2 0c-.1 -1.2 -.5 -2.2 -1.1 -2.9c-.8 -.8 -1.6 -1.2 -2.8 -1.2c-.1 0 -.2 0 -.2 0c-1 0 -1.8 .5 -2.5 1.2c-.8 .7 -1.2 1.7 -1.3 2.9Zm24.4 0c-.2 -1.2 -.6 -2.2 -1.2 -2.9c-.8 -.8 -1.6 -1.2 -2.8 -1.2q-.1 0 -.2 0c-1 0 -1.8 .5 -2.5 1.2c-.8 .7 -1.2 1.7 -1.3 2.9Zm240.7 0c-.2 -1.2 -.5 -2.2 -1.2 -2.9c-.8 -.8 -1.6 -1.2 -2.7 -1.2c-.1 0 -.2 0 -.3 0c-1 0 -1.7 .5 -2.4 1.2c-.8 .7 -1.2 1.7 -1.3 2.9Zm-349.5 6.8V286.1h-4.3v-1.6h10.6v1.6H347v10.5Zm91.5 0V286.1h-4.3v-1.6H443v1.6h-4.5v10.5Zm191.2 0V284.5h10.5v12.1h-1.9V286.1h-6.7v10.5Zm-169.4 -.2V284.5h1.9v5h6.9v-5h1.9v11.9h-1.9v-5.3h-6.9v5.3Zm14.5 0V284.5h1.9v9.4l7.1 -9.4h1.8v11.9h-1.8V287l-7.2 9.4Zm13.5 0l3.8 -4.6c-1.1 -.2 -1.8 -.6 -2.4 -1.3c-.7 -.6 -.9 -1.4 -.9 -2.3c0 -1.1 .4 -2 1.2 -2.7c.7 -.7 1.9 -1 3.4 -1h5.7v11.9h-1.9v-4.3H492c-.2 .2 -.6 .8 -1.4 1.9c-.9 1 -1.5 1.9 -1.9 2.4Zm19.8 3v-4.5h1.4c1.1 -2 1.6 -4.8 1.6 -8.4v-2h8.7v10.4h1.6v4.5h-1.6v-3h-9.8l-.4 3Zm28.2 -3l4.8 -6.1l-4.6 -5.8h2.1l3.6 4.6l3.6 -4.6h2l-4.6 5.8l4.8 6.1H544l-3.8 -4.8l-3.7 4.8Zm28.9 0V284.5h5.9c1.1 0 2.2 .2 2.9 .8c.7 .4 1.1 1.2 1.1 2.1c-.1 1.2 -.7 2.2 -2.1 2.7c1.8 .5 2.7 1.5 2.7 3c0 1 -.4 1.8 -1.2 2.4c-.9 .6 -1.8 .9 -3.2 .9Zm13.6 0V284.5h1.8v5h7v-5h1.8v11.9h-1.8v-5.3h-7v5.3Zm29.4 0V284.5h1.9v9.4l7.2 -9.4h1.8v11.9h-1.9V287l-7.2 9.4Zm49 3v-4.5h1.3c1.1 -2 1.7 -4.8 1.7 -8.4v-2h8.6v10.4h1.7v4.5h-1.7v-3h-9.8l-.3 3Zm14.6 0v-4.5h1.3c1.1 -2 1.7 -4.8 1.7 -8.4v-2h8.6v10.4h1.7v4.5h-1.7v-3h-9.8l-.3 3Zm42.3 -3l5 -6.8l-4.7 -5.1h2.2l6.2 6.9v-6.9h1.8v6.9l6.2 -6.9h2.2l-4.7 5.1l5 6.8h-2.1l-4.1 -5.5l-2.5 2.6v2.9h-1.8v-2.9l-2.5 -2.6l-4 5.5Zm21.5 0V284.5h1.9v6.9l6.6 -6.9h2.3l-5.1 5.1l5.2 6.8h-2.1l-4.4 -5.5l-2.5 2.6v2.9Zm13.1 0V284.5h1.9v9.4l7.2 -9.4h1.8v11.9h-1.9V287l-7.2 9.4Zm-223.1 3.7c-.9 0 -1.7 -.2 -2.6 -.6l.7 -1.4c.4 .2 1.2 .4 1.9 .4c.5 0 1 -.2 1.3 -.5c.3 -.4 .8 -.9 1.2 -1.7l-5.6 -12h2l4.4 10l4 -10h1.9l-5.1 12.4c-.6 1.1 -1.1 2.1 -1.7 2.6c-.7 .5 -1.4 .8 -2.4 .8ZM334.5 296.8c-1.9 0 -3.3 -.6 -4.5 -1.9c-1.2 -1.3 -1.8 -2.7 -1.8 -4.4c0 -1.7 .6 -3.2 1.8 -4.4c1.2 -1.4 2.7 -1.9 4.5 -1.9h.1c1.7 0 3.4 .7 4.7 2.2l-1.1 1.2c-1.2 -1.3 -2.4 -1.8 -3.7 -1.8c-1.3 0 -2.3 .4 -3.1 1.4c-.9 .9 -1.3 2 -1.3 3.3c-.1 1.3 .4 2.4 1.3 3.3c.8 .9 1.9 1.4 3.2 1.4c1.3 0 2.5 -.6 3.6 -1.8l1.2 1.1c-1.4 1.5 -3 2.3 -4.9 2.3Zm24.3 0c-1.9 0 -3.3 -.6 -4.5 -1.9c-1.2 -1.3 -1.8 -2.7 -1.8 -4.4c0 -1.7 .6 -3.2 1.8 -4.4c1.2 -1.4 2.8 -1.9 4.6 -1.9h.1c1.7 0 3.2 .6 4.4 1.8c1.1 1.2 1.8 2.8 1.8 4.5c0 1.7 -.6 3.2 -1.9 4.4c-1.2 1.2 -2.7 1.9 -4.5 1.9Zm21.8 0c-1.9 0 -3.3 -.6 -4.5 -1.9c-1.2 -1.3 -1.8 -2.7 -1.8 -4.4c0 -1.7 .7 -3.2 1.9 -4.4c1.1 -1.4 2.7 -1.9 4.5 -1.9h.1c1.7 0 3.2 .6 4.4 1.8c1.1 1.2 1.8 2.8 1.8 4.5c0 1.7 -.6 3.2 -1.8 4.4c-1.3 1.2 -2.8 1.9 -4.6 1.9Zm173.3 0c-1.9 0 -3.2 -.6 -4.4 -1.9c-1.3 -1.3 -1.8 -2.7 -1.8 -4.4c0 -1.7 .6 -3.2 1.8 -4.4c1.1 -1.4 2.7 -1.9 4.5 -1.9c0 0 .1 0 .1 0c1.7 0 3.2 .6 4.4 1.8c1.1 1.2 1.8 2.8 1.8 4.5c0 1.7 -.6 3.2 -1.8 4.4c-1.3 1.2 -2.8 1.9 -4.6 1.9Zm43.1 0c-1.9 0 -3.3 -.6 -4.5 -1.9c-1.3 -1.3 -1.8 -2.7 -1.8 -4.4c0 -1.7 .6 -3.2 1.8 -4.4c1.2 -1.4 2.7 -1.9 4.5 -1.9q.1 0 .1 0c1.8 0 3.2 .6 4.4 1.8c1.2 1.2 1.8 2.8 1.8 4.5c0 1.7 -.6 3.2 -1.8 4.4c-1.3 1.2 -2.7 1.9 -4.5 1.9Zm50.8 0c-1.9 0 -3.3 -.6 -4.5 -1.9c-1.2 -1.3 -1.8 -2.7 -1.8 -4.4c0 -1.7 .6 -3.2 1.8 -4.4c1.2 -1.4 2.7 -1.9 4.5 -1.9q.1 0 .1 0c1.8 0 3.3 .6 4.4 1.8c1.2 1.2 1.8 2.8 1.8 4.5c0 1.7 -.6 3.2 -1.8 4.4c-1.3 1.2 -2.7 1.9 -4.5 1.9Zm-327.1 0c-1.8 0 -3.2 -.6 -4.4 -1.8c-1.2 -1.2 -1.8 -2.7 -1.8 -4.5c0 -1.8 .6 -3.3 1.7 -4.5c1.1 -1.3 2.5 -1.9 4.2 -1.9c1.7 0 3.2 .7 4.2 1.9c1 1.2 1.6 2.8 1.6 4.7c0 .2 0 .5 -.1 .7h-9.7c0 1.1 .6 2.1 1.4 2.8c.7 .6 1.8 1 2.9 1c1.4 0 2.8 -.6 3.9 -1.6l1.1 .9c-1.4 1.5 -3 2.3 -5 2.3Zm84.3 3.3V284.5h1.9v2.3c1.1 -1.8 2.7 -2.7 4.6 -2.7c1.5 0 2.9 .6 4.1 1.7c1 1.2 1.7 2.7 1.7 4.6c0 1.8 -.6 3.4 -1.7 4.6c-1.3 1.1 -2.5 1.7 -4.1 1.7c-2 -.1 -3.4 -.9 -4.6 -2.6v6Zm20.9 -3.3c-1.8 0 -3.2 -.6 -4.4 -1.8c-1.2 -1.2 -1.8 -2.7 -1.8 -4.5c0 -1.8 .6 -3.3 1.7 -4.5c1.2 -1.3 2.6 -1.9 4.3 -1.9c1.6 0 3.1 .7 4.1 1.9c1 1.2 1.6 2.8 1.6 4.7c0 .2 0 .5 0 .7h-9.8c.1 1.1 .6 2.1 1.4 2.8c.7 .6 1.8 1 2.9 1c1.4 0 2.8 -.6 3.9 -1.6l1.2 .9c-1.5 1.5 -3.1 2.3 -5.1 2.3Zm24.3 0c-1.8 0 -3.2 -.6 -4.4 -1.8c-1.2 -1.2 -1.7 -2.7 -1.7 -4.5c0 -1.8 .5 -3.3 1.7 -4.5c1.1 -1.3 2.5 -1.9 4.2 -1.9c1.6 0 3.1 .7 4.2 1.9c1 1.2 1.5 2.8 1.5 4.7c0 .2 0 .5 0 .7h-9.8c.1 1.1 .6 2.1 1.4 2.8c.8 .6 1.8 1 3 1c1.4 0 2.7 -.6 3.8 -1.6l1.2 .9c-1.5 1.5 -3.1 2.3 -5.1 2.3Zm240.8 0c-1.8 0 -3.2 -.6 -4.4 -1.8c-1.2 -1.2 -1.8 -2.7 -1.8 -4.5c0 -1.8 .6 -3.3 1.7 -4.5c1.1 -1.3 2.5 -1.9 4.2 -1.9c1.7 0 3.2 .7 4.2 1.9c1 1.2 1.6 2.8 1.6 4.7c0 .2 -.1 .5 -.1 .7h-9.7c0 1.1 .6 2.1 1.4 2.8c.7 .6 1.8 1 2.9 1c1.4 0 2.8 -.6 3.9 -1.6l1.1 .9c-1.4 1.5 -3 2.3 -5 2.3Zm8.2 3.3V284.5h1.9v2.3c1.1 -1.8 2.7 -2.7 4.6 -2.7c1.5 0 2.9 .6 4.1 1.7c1 1.2 1.7 2.7 1.7 4.6c0 1.8 -.6 3.4 -1.7 4.6c-1.3 1.1 -2.6 1.7 -4.1 1.7c-2 -.1 -3.5 -.9 -4.6 -2.6v6ZM295.3 296.4V280.1h1.9l6 8.9l6.1 -8.9h1.8v16.3h-1.8V283.2l-6 8.8h-.1l-6 -8.7v13.1Zm100.5 .4c-1.9 0 -3.4 -.6 -4.5 -1.9c-1.1 -1.2 -1.6 -2.8 -1.6 -4.9c0 -.9 0 -1.4 0 -2c0 -.6 0 -1.1 .1 -1.8c.1 -.7 .2 -1.2 .5 -1.7c.1 -.4 .4 -.9 .7 -1.3c.3 -.5 .8 -.9 1.3 -1.2c.4 -.4 1.1 -.5 1.8 -.7l6.8 -1.6l.3 1.5l-6.5 1.7c-1.2 .3 -2.1 .8 -2.6 1.5c-.6 .6 -.8 1.6 -.9 2.8c1 -1.8 2.7 -2.7 5 -2.7h.1c1.5 0 2.9 .7 4 1.8c1 1.1 1.7 2.6 1.7 4.2c0 1.7 -.6 3.2 -1.8 4.4c-1.3 1.2 -2.7 1.9 -4.4 1.9ZM611.7 282.7c-.9 -.1 -1.6 -.3 -2.2 -.8c-.6 -.6 -1 -1.3 -1.1 -2.1l1.2 -.3c.2 1.1 1 1.6 2.1 1.6c1 0 1.7 -.5 2.1 -1.6l1.2 .3c-.2 .7 -.5 1.5 -1.1 2.1c-.7 .5 -1.3 .8 -2.2 .8Z"/></clipPath>
<clipPath id="c7_28"><path d="M967.1 206c1.2 0 1.8 -.5 1.8 -1.4c0 -.9 -.6 -1.3 -1.9 -1.3h-3.1V206Zm-601.2 .6c.9 0 1.6 -.2 2.2 -.6c.5 -.6 .8 -1.1 .8 -1.8v-.7c-.7 -.4 -1.5 -.5 -2.4 -.5c-1 0 -1.5 .2 -2 .5c-.6 .3 -.7 .8 -.7 1.5c-.1 .4 .2 .9 .6 1.2c.3 .2 .9 .4 1.5 .4Zm62.5 0c.9 0 1.6 -.2 2.2 -.6c.5 -.6 .8 -1.1 .8 -1.8v-.7c-.7 -.4 -1.5 -.5 -2.4 -.5c-1 0 -1.5 .2 -2 .5c-.6 .3 -.7 .8 -.7 1.5c-.1 .4 .2 .9 .6 1.2c.3 .2 .9 .4 1.5 .4Zm175.4 0c.8 0 1.6 -.2 2.1 -.6c.5 -.6 .9 -1.1 .9 -1.8v-.7c-.8 -.4 -1.6 -.5 -2.5 -.5c-.9 0 -1.5 .2 -1.9 .5c-.6 .3 -.7 .8 -.7 1.5c-.1 .4 .2 .9 .6 1.2c.3 .2 .9 .4 1.5 .4Zm47 0c.9 0 1.6 -.2 2.2 -.6c.5 -.6 .8 -1.1 .8 -1.8v-.7c-.7 -.4 -1.5 -.5 -2.4 -.5c-.9 0 -1.5 .2 -2 .5c-.5 .3 -.6 .8 -.6 1.5c-.1 .4 .1 .9 .5 1.2c.3 .2 .9 .4 1.5 .4Zm136.1 0c.9 0 1.6 -.2 2.2 -.6c.5 -.6 .8 -1.1 .8 -1.8v-.7c-.7 -.4 -1.5 -.5 -2.4 -.5c-1 0 -1.5 .2 -2 .5c-.6 .3 -.7 .8 -.7 1.5c-.1 .4 .2 .9 .6 1.2c.3 .2 .9 .4 1.5 .4Zm119.1 0c.9 0 1.6 -.2 2.2 -.6c.5 -.6 .8 -1.1 .8 -1.8v-.7c-.7 -.4 -1.5 -.5 -2.4 -.5c-1 0 -1.5 .2 -2 .5c-.6 .3 -.7 .8 -.7 1.5c-.1 .4 .2 .9 .6 1.2c.3 .2 .9 .4 1.5 .4Zm74.9 0c.8 0 1.6 -.2 2.1 -.6c.5 -.6 .9 -1.1 .9 -1.8v-.7c-.8 -.4 -1.6 -.5 -2.5 -.5c-.9 0 -1.5 .2 -1.9 .5c-.6 .3 -.7 .8 -.7 1.5c-.1 .4 .2 .9 .6 1.2c.3 .2 .8 .4 1.5 .4ZM398.8 206c1.3 0 2.1 -.6 2.1 -1.7c0 -.6 -.2 -.9 -.6 -1.2c-.4 -.3 -.8 -.4 -1.5 -.4h-2.6V206Zm332.1 -.1c.5 -.1 1.2 -.2 1.8 -.6V199c-.7 -.4 -1.2 -.7 -1.8 -.7c-1 0 -1.7 .4 -2.2 1.1c-.6 .6 -.8 1.6 -.8 2.7c-.1 1.1 .3 2.1 .8 2.8c.5 .6 1.2 1 2.2 1Zm7.4 0c1 -.1 1.7 -.4 2.3 -1c.4 -.8 .7 -1.6 .7 -2.8c0 -1.2 -.2 -2 -.7 -2.7c-.7 -.7 -1.3 -1.1 -2.3 -1.1c-.5 0 -1.1 .3 -1.7 .7v6.3c.6 .3 1.1 .6 1.7 .6Zm-38.7 0c1.1 -.1 2 -.4 2.7 -1.1c.5 -.8 1 -1.7 1 -2.8c0 -1.1 -.4 -2 -1.1 -2.8c-.8 -.8 -1.6 -1.1 -2.6 -1.1q-.1 0 -.2 0c-1.1 0 -1.9 .4 -2.5 1.1c-.8 .7 -1 1.7 -1 2.8c-.1 1.1 .3 2 1 2.7c.6 .8 1.6 1.2 2.7 1.2Zm145.6 0c1.1 -.1 1.9 -.4 2.6 -1.1c.6 -.8 1 -1.7 1 -2.8c0 -1.1 -.3 -2 -1 -2.8c-.8 -.8 -1.6 -1.1 -2.7 -1.1c0 0 -.1 0 -.1 0c-1.2 0 -1.9 .4 -2.6 1.1c-.7 .7 -1 1.7 -1 2.8c0 1.1 .4 2 1.1 2.7c.6 .8 1.6 1.2 2.7 1.2ZM516.3 206c.9 0 1.8 -.4 2.5 -1.1c.6 -.8 1 -1.7 1 -2.9c0 -1.1 -.3 -2.1 -1 -2.8c-.8 -.8 -1.5 -1.1 -2.5 -1.1c0 0 -.1 0 -.1 0c-1 0 -1.7 .4 -2.4 1.1c-.8 .7 -1 1.7 -1 2.9c-.1 1.1 .3 2.1 1 2.8c.6 .6 1.5 1.1 2.5 1.1Zm255.2 0c.9 0 1.8 -.4 2.5 -1.1c.6 -.8 1 -1.7 1 -2.9c0 -1.1 -.3 -2.1 -1 -2.8c-.8 -.8 -1.5 -1.1 -2.5 -1.1q-.1 0 -.1 0c-1 0 -1.8 .4 -2.4 1.1c-.8 .7 -1 1.7 -1 2.9c-.1 1.1 .3 2.1 1 2.8c.5 .6 1.5 1.1 2.5 1.1Zm56.6 0c.9 0 1.8 -.4 2.5 -1.1c.6 -.8 1 -1.7 1 -2.9c0 -1.1 -.3 -2.1 -1 -2.8c-.8 -.8 -1.5 -1.1 -2.5 -1.1c0 0 -.1 0 -.1 0c-1 0 -1.7 .4 -2.4 1.1c-.8 .7 -1 1.7 -1 2.9c-.1 1.1 .3 2.1 1 2.8c.6 .6 1.5 1.1 2.5 1.1Zm62.5 0c.9 0 1.8 -.4 2.5 -1.1c.6 -.8 1 -1.7 1 -2.9c0 -1.1 -.3 -2.1 -1 -2.8c-.8 -.8 -1.5 -1.1 -2.5 -1.1q-.1 0 -.1 0c-1 0 -1.8 .4 -2.4 1.1c-.8 .7 -1 1.7 -1 2.9c-.1 1.1 .3 2.1 1 2.8c.6 .6 1.5 1.1 2.5 1.1ZM447.1 201.3V198h-2.8c-.8 0 -1.3 .1 -1.7 .4c-.5 .3 -.6 .7 -.6 1.3c-.1 .5 .2 .9 .6 1.2c.3 .2 1 .4 1.7 .4Zm55.2 -.3c-.1 -.9 -.4 -1.6 -.9 -2.2c-.6 -.6 -1.2 -.8 -2.1 -.8c-.8 0 -1.4 .3 -2 .8c-.5 .5 -.9 1.3 -1 2.2Zm45.1 0c-.1 -.9 -.4 -1.6 -.9 -2.2c-.6 -.6 -1.2 -.8 -2.1 -.8c-.8 0 -1.5 .3 -2 .8c-.5 .5 -.9 1.3 -1 2.2Zm210.1 0c-.1 -.9 -.4 -1.6 -1 -2.2c-.5 -.6 -1.2 -.8 -2 -.8c-.8 0 -1.5 .3 -2 .8c-.6 .5 -.9 1.3 -1.1 2.2Zm209.2 -.3c.5 0 .9 -.2 1.2 -.4c.2 -.4 .4 -.6 .4 -1c0 -.5 -.1 -.7 -.4 -.9c-.4 -.3 -.7 -.4 -1.2 -.4h-2.8v2.7ZM312.3 209V195h3.9v5.2h5V195h4v14h-4v-5.3h-5V209Zm16.2 0V195h4v8.2l5.4 -8.2h3.9v14h-4v-8.2l-5.5 8.2Zm16.5 0V195h3.9v5.7L354 195h4.6l-5.2 5.7l5.8 8.3h-4.7l-3.8 -5.3l-1.8 1.9V209Zm47.2 0V195h4v4.7h2.9c1.7 0 3.1 .3 4.2 1.1c1 .7 1.5 1.9 1.5 3.5c-.1 1.3 -.5 2.6 -1.4 3.4c-1 .8 -2.3 1.3 -4 1.3Zm14.6 0V195h3.9v5.2h5.1V195h3.9v14h-3.9v-5.3h-5.1V209Zm30.6 -.2l3.5 -5.2c-2 -.8 -2.9 -2.1 -2.9 -4c0 -1.5 .5 -2.5 1.5 -3.4c1 -.9 2.4 -1.2 4.2 -1.2H451v13.8h-3.9v-4.5h-2.2l-3 4.5Zm39.3 .2V195h4v5.2h5V195h3.9v14h-3.9v-5.3h-5V209Zm89.7 0V195h3.9v8.2l5.5 -8.2h3.8v14h-3.9v-8.2l-5.5 8.2Zm16.4 0V195h4v5.7l5 -5.7h4.6l-5.1 5.7l5.8 8.3h-4.7l-3.8 -5.3l-1.8 1.9V209Zm38.6 0V195h3.9v8.2l5.5 -8.2h3.8v14h-3.9v-8.2l-5.5 8.2Zm52.1 0V195h4l3.8 5.9l3.9 -5.9h3.9v14h-3.9v-8.4l-3.9 5.7l-3.9 -5.6V209ZM916 209V195h3.9v5.2H925V195h3.9v14H925v-5.3h-5.1V209Zm44 0V195h7.6c1.4 0 2.6 .3 3.4 1c.8 .5 1.3 1.5 1.3 2.6c0 1.4 -.7 2.5 -2.1 3.2c1.7 .5 2.7 1.7 2.7 3.4c-.1 1.1 -.5 2.1 -1.4 2.8c-1 .6 -2.2 1 -3.9 1Zm-433.6 0V194.9h10.3v3.4h-6.4V209Zm30 0V198.3h-4.3v-3.4h12.3v3.4h-4V209Zm107.1 0V198.3h-4.3v-3.4h12.3v3.4h-4V209Zm141 0V194.9h12.9V209h-3.9V198.3h-5V209Zm68.7 0V198.3h-4.4v-3.4h12.3v3.4h-4V209Zm76.8 0V198.3h-4.3v-3.4H958v3.4h-4.1V209Zm-585.3 .3c-1.4 0 -2.5 -.4 -3.5 -1.1c-.9 -.8 -1.3 -1.8 -1.3 -3.2c0 -1.4 .5 -2.5 1.5 -3.2c.9 -.8 2.4 -1.1 4.1 -1.1c1.1 0 2.3 .1 3.4 .5V201c0 -1.9 -1 -2.7 -3 -2.7c-1.2 0 -2.4 .3 -3.8 .8l-1 -3.1c1.6 -.7 3.5 -1.1 5.5 -1.1c.1 0 .2 0 .3 0c1.9 0 3.4 .6 4.4 1.6c1 .9 1.5 2.5 1.5 4.4v8.2h-3.9v-1.5c-1.1 1 -2.5 1.7 -4.2 1.7Zm62.5 0c-1.4 0 -2.5 -.4 -3.5 -1.1c-.9 -.8 -1.3 -1.8 -1.3 -3.2c0 -1.4 .5 -2.5 1.5 -3.2c1 -.8 2.4 -1.1 4.1 -1.1c1.1 0 2.3 .1 3.4 .5V201c0 -1.9 -1 -2.7 -3 -2.7c-1.2 0 -2.4 .3 -3.8 .8l-1 -3.1c1.6 -.7 3.5 -1.1 5.5 -1.1c.1 0 .2 0 .3 0c1.9 0 3.4 .6 4.4 1.6c1 .9 1.5 2.5 1.5 4.4v8.2h-3.9v-1.5c-1.1 1 -2.5 1.7 -4.2 1.7Zm175.3 0c-1.4 0 -2.5 -.4 -3.4 -1.1c-.9 -.8 -1.4 -1.8 -1.4 -3.2c0 -1.4 .5 -2.5 1.6 -3.2c.9 -.8 2.3 -1.1 4.1 -1.1c1 0 2.3 .1 3.4 .5V201c0 -1.9 -1 -2.7 -3 -2.7c-1.2 0 -2.4 .3 -3.8 .8L599 196c1.6 -.7 3.5 -1.1 5.4 -1.1c.2 0 .3 0 .4 0c1.9 0 3.4 .6 4.4 1.6c1 .9 1.5 2.5 1.5 4.4v8.2h-3.9v-1.5c-1.1 1 -2.5 1.7 -4.3 1.7Zm47.1 0c-1.4 0 -2.5 -.4 -3.4 -1.1c-.9 -.8 -1.4 -1.8 -1.4 -3.2c0 -1.4 .5 -2.5 1.5 -3.2c1 -.8 2.4 -1.1 4.1 -1.1c1.1 0 2.3 .1 3.4 .5V201c0 -1.9 -1 -2.7 -2.9 -2.7c-1.2 0 -2.5 .3 -3.8 .8L646 196c1.7 -.7 3.6 -1.1 5.5 -1.1c.1 0 .2 0 .3 0c2 0 3.5 .6 4.5 1.6c.9 .9 1.5 2.5 1.5 4.4v8.2h-4v-1.5c-1 1 -2.4 1.7 -4.2 1.7Zm136.1 0c-1.5 0 -2.5 -.4 -3.5 -1.1c-.9 -.8 -1.3 -1.8 -1.3 -3.2c0 -1.4 .5 -2.5 1.5 -3.2c.9 -.8 2.4 -1.1 4.1 -1.1c1.1 0 2.3 .1 3.4 .5V201c0 -1.9 -1 -2.7 -3 -2.7c-1.2 0 -2.4 .3 -3.8 .8l-1 -3.1c1.6 -.7 3.5 -1.1 5.5 -1.1c.1 0 .2 0 .3 0c1.9 0 3.4 .6 4.4 1.6c1 .9 1.5 2.5 1.5 4.4v8.2h-3.9v-1.5c-1.1 1 -2.5 1.7 -4.2 1.7Zm119.1 0c-1.4 0 -2.5 -.4 -3.5 -1.1c-.9 -.8 -1.3 -1.8 -1.3 -3.2c0 -1.4 .5 -2.5 1.5 -3.2c1 -.8 2.4 -1.1 4.1 -1.1c1.1 0 2.3 .1 3.4 .5V201c0 -1.9 -1 -2.7 -3 -2.7c-1.2 0 -2.4 .3 -3.8 .8l-1 -3.1c1.6 -.7 3.6 -1.1 5.5 -1.1c.1 0 .2 0 .3 0c1.9 0 3.4 .6 4.4 1.6c1 .9 1.5 2.5 1.5 4.4v8.2H909v-1.5c-1.1 1 -2.5 1.7 -4.2 1.7Zm74.8 0c-1.4 0 -2.5 -.4 -3.4 -1.1c-.9 -.8 -1.4 -1.8 -1.4 -3.2c0 -1.4 .5 -2.5 1.6 -3.2c.9 -.8 2.3 -1.1 4.1 -1.1c1 0 2.2 .1 3.4 .5V201c-.1 -1.9 -1 -2.7 -3 -2.7c-1.2 0 -2.5 .3 -3.8 .8l-1 -3.1c1.6 -.7 3.5 -1.1 5.4 -1.1c.1 0 .3 0 .4 0c1.9 0 3.4 .6 4.4 1.6c1 .9 1.5 2.5 1.5 4.4v8.2h-3.9v-1.5c-1.1 1 -2.5 1.7 -4.3 1.7ZM376.3 209c-.8 0 -1.4 -.1 -2 -.3l.2 -3.2c.3 0 .7 0 .9 0c.4 0 .8 -.1 1.1 -.3c.1 -.3 .5 -.6 .7 -1.3c.1 -.8 .3 -1.8 .3 -3.3c0 -1.6 0 -3.5 0 -5.9h11.3v14.1h-3.9V198.1h-3.4c-.1 1.8 -.1 3.4 -.2 4.7c-.2 1.3 -.4 2.4 -.6 3.2c-.3 .7 -.6 1.4 -1.1 1.8c-.4 .4 -.9 .8 -1.4 .9c-.5 .2 -1.1 .3 -1.9 .3Zm90.5 .3c-2.5 0 -4.3 -.9 -5.9 -2.6l2.3 -2.3c.9 1 2.2 1.5 3.4 1.5c.8 -.1 1.6 -.3 2.2 -.7c.5 -.6 1.1 -1.1 1.3 -1.9h-4.9v-2.6h4.9c-.4 -.8 -.7 -1.4 -1.3 -1.9c-.6 -.5 -1.3 -.7 -2 -.7q-.1 0 -.2 0c-1.3 0 -2.4 .5 -3.3 1.3L461.2 197c1.5 -1.7 3.4 -2.3 5.5 -2.3c2.1 0 3.9 .7 5.3 2.1c1.4 1.4 2.1 3.2 2.1 5.2c0 2 -.7 3.8 -2.1 5.2c-1.4 1.3 -3.1 2.1 -5.2 2.1Zm32.9 0c-2.2 0 -3.9 -.7 -5.3 -2c-1.4 -1.5 -2.1 -3.1 -2.1 -5.3c0 -2.1 .7 -3.8 2 -5.2c1.2 -1.5 3 -2.1 5 -2.1c2.3 0 4 .7 5.2 2.2c1.1 1.4 1.8 3.2 1.8 5.4c0 .1 0 .5 -.1 1h-9.9c.2 .9 .6 1.5 1.2 2c.5 .3 1.4 .7 2.3 .7c1.2 0 2.4 -.5 3.4 -1.4l2.4 2c-1.6 1.7 -3.4 2.7 -5.9 2.7Zm9.2 4V195h3.9v2c1 -1.6 2.6 -2.3 4.5 -2.3c1.7 0 3.3 .6 4.6 2c1.2 1.2 1.9 3.1 1.9 5.4c-.1 2.2 -.7 4 -1.9 5.3c-1.3 1.3 -2.8 2 -4.6 2c-1.9 0 -3.3 -.7 -4.5 -2.1v6Zm35.9 -4c-2.2 0 -3.9 -.7 -5.3 -2c-1.4 -1.5 -2.1 -3.1 -2.1 -5.3c0 -2.1 .7 -3.8 2 -5.2c1.2 -1.5 3 -2.1 5 -2.1c2.3 0 4 .7 5.2 2.2c1.1 1.4 1.8 3.2 1.8 5.4c0 .1 0 .5 -.1 1h-9.9c.2 .9 .6 1.5 1.2 2c.5 .3 1.4 .7 2.3 .7c1.2 0 2.4 -.5 3.4 -1.4l2.4 2c-1.6 1.7 -3.4 2.7 -5.9 2.7Zm154.8 0c-2.3 0 -4 -.7 -5.5 -2.1C692.6 205.7 692 204.1 692 202c0 -2.1 .7 -3.8 2.1 -5.2c1.4 -1.5 3.3 -2.1 5.5 -2.1c2.2 0 4 .7 5.4 2.1c1.4 1.3 2.2 3.1 2.2 5.2c-.1 2 -.7 3.8 -2.2 5.2c-1.5 1.3 -3.3 2.1 -5.4 2.1Zm16.9 0c-2.1 0 -3.8 -.7 -5.2 -2.1c-1.5 -1.5 -2.1 -3.2 -2.1 -5.2c0 -2 .7 -3.8 2.1 -5.2c1.4 -1.5 3.2 -2.1 5.3 -2.1c2.2 0 4.1 .8 5.6 2.4l-2.4 2.4c-1 -1 -2 -1.4 -3.3 -1.4h-.1c-.9 0 -1.7 .4 -2.3 1.1c-.7 .7 -1 1.7 -1 2.8c-.1 1.1 .4 2 1 2.8c.6 .7 1.5 1.1 2.6 1.1c1 -.1 2.2 -.5 3.2 -1.5l2.4 2.3c-.8 .8 -1.6 1.5 -2.5 2c-1 .4 -2 .6 -3.3 .6Zm38.4 0c-2.2 0 -3.9 -.7 -5.3 -2c-1.5 -1.5 -2.1 -3.1 -2.1 -5.3c0 -2.1 .6 -3.8 2 -5.2c1.2 -1.5 3 -2.1 5 -2.1c2.2 0 4 .7 5.2 2.2c1.1 1.4 1.7 3.2 1.7 5.4c0 .1 0 .5 0 1h-9.9c.2 .9 .6 1.5 1.2 2c.5 .3 1.3 .7 2.3 .7c1.2 0 2.4 -.5 3.4 -1.4l2.3 2c-1.5 1.7 -3.3 2.7 -5.8 2.7Zm9.1 4V195h4v2c1 -1.6 2.6 -2.3 4.4 -2.3c1.8 0 3.3 .6 4.6 2c1.3 1.2 1.9 3.1 1.9 5.4c0 2.2 -.6 4 -1.9 5.3c-1.2 1.3 -2.8 2 -4.6 2c-1.8 0 -3.2 -.7 -4.4 -2.1v6Zm56.7 0V195h3.9v2c1 -1.6 2.6 -2.3 4.5 -2.3c1.7 0 3.3 .6 4.6 2c1.2 1.2 1.9 3.1 1.9 5.4c-.1 2.2 -.7 4 -1.9 5.3c-1.3 1.3 -2.8 2 -4.6 2c-1.9 0 -3.3 -.7 -4.5 -2.1v6Zm24.4 -4c-2.3 0 -4 -.7 -5.4 -2.1c-1.5 -1.5 -2.2 -3.1 -2.2 -5.2c0 -2.1 .7 -3.8 2.2 -5.2c1.4 -1.5 3.3 -2.1 5.5 -2.1c2.1 0 3.9 .7 5.4 2.1c1.4 1.3 2.2 3.1 2.2 5.2c-.1 2 -.8 3.8 -2.2 5.2c-1.5 1.3 -3.3 2.1 -5.5 2.1Zm17 0c-2.1 0 -3.9 -.7 -5.3 -2.1c-1.4 -1.5 -2.1 -3.2 -2.1 -5.2c0 -2 .7 -3.8 2.1 -5.2c1.4 -1.5 3.2 -2.1 5.3 -2.1c2.3 0 4.2 .8 5.6 2.4l-2.3 2.4c-1 -1 -2.1 -1.4 -3.3 -1.4c0 0 -.1 0 -.1 0c-1 0 -1.7 .4 -2.4 1.1c-.7 .7 -.9 1.7 -.9 2.8c-.1 1.1 .3 2 1 2.8c.5 .7 1.5 1.1 2.6 1.1c1 -.1 2.1 -.5 3.2 -1.5l2.3 2.3c-.8 .8 -1.6 1.5 -2.4 2c-1 .4 -2 .6 -3.3 .6Zm21 4V195h4v2c1 -1.6 2.6 -2.3 4.4 -2.3c1.8 0 3.3 .6 4.6 2c1.3 1.2 1.9 3.1 1.9 5.4c0 2.2 -.6 4 -1.9 5.3c-1.2 1.3 -2.8 2 -4.6 2c-1.8 0 -3.2 -.7 -4.4 -2.1v6Zm55.8 -4c-2.1 0 -3.9 -.7 -5.3 -2.1c-1.4 -1.5 -2 -3.2 -2 -5.2c0 -2 .7 -3.8 2.1 -5.2c1.3 -1.5 3.1 -2.1 5.2 -2.1c2.3 0 4.2 .8 5.7 2.4l-2.4 2.4c-1 -1 -2.1 -1.4 -3.3 -1.4c0 0 -.1 0 -.1 0c-.9 0 -1.7 .4 -2.3 1.1c-.8 .7 -1 1.7 -1 2.8c-.1 1.1 .3 2 1 2.8c.6 .7 1.5 1.1 2.6 1.1c1 -.1 2.2 -.5 3.2 -1.5l2.4 2.3c-.9 .8 -1.6 1.5 -2.5 2c-1 .4 -2 .6 -3.3 .6Zm-640.2 0c-1.4 0 -2.7 -.4 -4 -1.1l1.6 -2.9c.7 .3 1.4 .6 2.2 .6c.8 -.1 1.7 -.5 2.3 -1.5l-7.3 -13.7H298l5 9.7l4.4 -9.7h4.4l-7.1 14.2c-.8 1.5 -1.6 2.7 -2.6 3.4c-1 .6 -2.1 1 -3.4 1Zm434 4v-5.2c-.4 .3 -.8 .6 -1.3 .9c-.6 .1 -1.1 .3 -1.8 .3c-1.7 0 -3 -.6 -4.1 -1.9c-1.1 -1.3 -1.5 -3 -1.5 -5.3c0 -2.3 .5 -4 1.5 -5.3c1 -1.3 2.5 -1.9 4.2 -1.9q.1 0 .2 0c.5 0 1 .2 1.5 .4c.5 .2 1 .6 1.3 1v-5.6h3.9v5.6c.3 -.5 .7 -.7 1.3 -1c.4 -.4 1.1 -.4 1.7 -.4c0 0 .1 0 .2 0c1.5 0 2.9 .7 3.9 1.9c1 1.3 1.6 3.1 1.6 5.3c0 2.2 -.5 4 -1.6 5.3c-1.1 1.2 -2.4 1.9 -4.1 1.9c-.6 0 -1.2 -.1 -1.7 -.3c-.7 -.4 -1 -.5 -1.3 -.9v5.2Z"/></clipPath>
<clipPath id="c8_28"><path d="M149.9 781.2V716h333c18 0 32.6 14.6 32.6 32.6c0 18 -14.6 32.6 -32.6 32.6Z"/></clipPath>
<clipPath id="c9_28"><path d="M356.1 754.4v-3.1h3.1v3.1Zm100.5 0v-3.1h3.2v3.1Zm25.7 0v-3.1h3.1v3.1ZM450.4 752c.8 0 1.4 -.3 1.4 -1c0 -.7 -.5 -1 -1.5 -1H448v2Zm-210.1 .5c.6 0 1.2 -.1 1.6 -.5c.4 -.4 .6 -.8 .6 -1.3v-.6c-.6 -.3 -1.2 -.4 -1.8 -.4c-.7 0 -1.1 .1 -1.5 .4c-.3 .2 -.5 .6 -.5 1.1c-.1 .4 .2 .8 .5 1c.2 .2 .6 .3 1.1 .3Zm25 -.5c1 0 1.5 -.4 1.5 -1.2c0 -.4 -.1 -.6 -.4 -.8c-.3 -.3 -.6 -.3 -1.1 -.3h-1.9V752Zm39.1 .5c.6 0 1.2 -.1 1.6 -.5c.4 -.4 .6 -.8 .6 -1.3v-.6c-.5 -.3 -1.1 -.4 -1.8 -.4c-.6 0 -1.1 .1 -1.4 .4c-.4 .2 -.5 .6 -.5 1.1c-.1 .4 .1 .8 .4 1c.3 .2 .7 .3 1.1 .3Zm44 0c.6 0 1.2 -.1 1.6 -.5c.4 -.4 .6 -.8 .6 -1.3v-.6c-.5 -.3 -1.1 -.4 -1.8 -.4c-.7 0 -1.1 .1 -1.4 .4c-.4 .2 -.5 .6 -.5 1.1c-.1 .4 .1 .8 .4 1c.3 .2 .6 .3 1.1 .3Zm-93.8 -.7v-5.2h-2.7v.2c-.1 2.2 -.3 3.9 -.8 5ZM210 752c.8 -.1 1.5 -.3 2 -.8c.4 -.6 .7 -1.2 .7 -2c0 -.8 -.2 -1.4 -.7 -1.9c-.6 -.7 -1.2 -.9 -2 -.9h-.1c-.8 0 -1.4 .3 -1.8 .8c-.6 .5 -.8 1.2 -.8 2c-.1 .7 .3 1.4 .8 2c.5 .5 1.2 .8 1.9 .8Zm240.2 -3.9c.3 0 .7 -.1 .9 -.3c.2 -.2 .3 -.4 .3 -.6c0 -.3 -.1 -.4 -.3 -.6c-.2 -.2 -.5 -.2 -.9 -.2H448v1.7Zm-76.1 .9v-4.2l-3.6 4.2Zm-193.4 5.4V744.1h9.4v10.3h-2.9v-7.8h-3.5v7.8Zm12.2 0c-.5 0 -1 0 -1.5 -.1l.2 -2.5c.2 0 .5 0 .7 0c.3 0 .6 -.1 .7 -.2c.2 -.2 .4 -.5 .6 -1c.1 -.6 .2 -1.3 .2 -2.3c0 -1.2 0 -2.5 0 -4.2h8.4v10.3h-3v-7.8h-2.5c0 1.3 0 2.5 -.1 3.4c-.1 .8 -.3 1.6 -.4 2.2c-.3 .5 -.5 1 -.8 1.4c-.4 .2 -.7 .5 -1.1 .6c-.4 .1 -.8 .2 -1.4 .2Zm39 2.4v-2.4H218V744.1h2.9v7.7h3.4v-7.7h2.9v7.7h3.4v-7.7h2.9v7.7h1.1v5Zm14.9 0v-5h1.1c.6 -1.4 1.1 -3.7 1.1 -6.9v-.8h8.5v7.7h1.1v5H256v-2.4h-6.4l-.3 2.4Zm13.7 -2.4V744.1h2.9v3.3h2.1c1.3 0 2.3 .3 3.1 .9c.7 .5 1.1 1.4 1.1 2.5c-.1 1.1 -.3 2 -1 2.6c-.8 .6 -1.7 1 -3 1Zm19.2 3c-1 0 -1.8 -.3 -2.6 -.8l1 -2.2c.4 .3 .9 .4 1.2 .4c.5 0 .8 -.2 1.1 -.6l-4.1 -10.1h3.1l2.4 6.8l2.2 -6.8h3.1l-4 10.4c-.5 1 -.8 1.8 -1.3 2.2c-.6 .4 -1.2 .7 -2.1 .7Zm15.3 -3v-3.7c-1 .3 -1.9 .7 -2.8 .7c-1.2 0 -2 -.3 -2.7 -.9c-.6 -.6 -.9 -1.4 -.9 -2.4v-4h2.9v3.1c-.1 1 .4 1.6 1.4 1.6c.7 0 1.4 -.1 2.1 -.5v-4.2h2.9v10.3Zm30.3 0v-7.8h-3.1v-2.5h9.3v2.5h-3.3v7.8Zm7.7 0V744.1h2.9v4.2l3.7 -4.2H343l-3.8 4.2l4.3 6.1H340l-2.8 -4l-1.3 1.5v2.5Zm100.3 0V744.1h2.9v4.2l3.7 -4.2h3.4l-3.8 4.2l4.3 6.1h-3.5l-2.8 -4l-1.3 1.5v2.5Zm11.8 0V744.1h5.7c1.1 0 2 .2 2.6 .6c.5 .5 .9 1.1 .9 1.9c0 1 -.5 1.8 -1.6 2.3c1.2 .3 2 1.3 2 2.6c-.1 .9 -.4 1.6 -1.1 2.1c-.7 .4 -1.6 .8 -2.8 .8Zm23 0V744.1h3l2.8 4.3l2.9 -4.3h2.9v10.3h-2.9v-6.2l-2.9 4.2L471 748.2v6.2Zm-112 -7.3V744h3.1v3.1Zm-39.2 7.4c-1.6 0 -2.9 -.5 -3.9 -1.5c-1.1 -1.1 -1.5 -2.3 -1.5 -3.8c0 -1.5 .5 -2.7 1.5 -3.8c1 -1 2.3 -1.5 3.9 -1.5q.1 0 .2 0c1.5 0 2.9 .7 3.9 1.8l-1.7 1.7c-.8 -.6 -1.5 -1 -2.4 -1c0 0 -.1 0 -.1 0c-.7 0 -1.2 .3 -1.7 .9c-.6 .4 -.7 1.1 -.7 1.9c-.1 .7 .2 1.5 .7 2c.4 .5 1.1 .8 1.9 .8c.7 -.1 1.6 -.4 2.4 -1.1l1.7 1.7c-.6 .6 -1.2 1.1 -1.8 1.5c-.7 .3 -1.5 .4 -2.4 .4Zm-106.9 0c-1.7 0 -2.9 -.5 -4 -1.5c-1.1 -1.1 -1.6 -2.3 -1.6 -3.8c0 -1.5 .6 -2.7 1.6 -3.8c1 -1 2.4 -1.5 4 -1.5c.1 0 .2 0 .2 0c1.5 0 2.8 .6 3.8 1.5c1 1 1.6 2.3 1.6 3.8c0 1.4 -.5 2.8 -1.6 3.8c-1.1 .9 -2.4 1.5 -4 1.5Zm29.4 0c-1.1 0 -1.9 -.2 -2.6 -.8c-.6 -.7 -1 -1.4 -1 -2.4c0 -1.1 .4 -1.9 1.1 -2.4c.8 -.6 1.8 -.8 3.1 -.8c.8 0 1.7 .1 2.5 .4v-.2c0 -1.3 -.8 -1.9 -2.2 -1.9c0 0 -.1 0 -.1 0c-.9 0 -1.8 .2 -2.7 .6l-.8 -2.3c1.2 -.5 2.6 -.8 4.1 -.8c0 0 .1 0 .2 0c1.4 0 2.5 .4 3.3 1.2c.7 .6 1.1 1.8 1.1 3.3v6h-2.9v-1.1c-.8 .7 -1.8 1.2 -3.1 1.2Zm64.1 0c-1.1 0 -1.8 -.2 -2.5 -.8c-.7 -.7 -1 -1.4 -1 -2.4c0 -1.1 .4 -1.9 1.1 -2.4c.7 -.6 1.8 -.8 3 -.8c.8 0 1.7 .1 2.5 .4v-.2c0 -1.3 -.7 -1.9 -2.2 -1.9h-.1c-.8 0 -1.7 .2 -2.7 .6l-.7 -2.3c1.2 -.5 2.6 -.8 4 -.8c.1 0 .2 0 .3 0c1.3 0 2.5 .4 3.2 1.2c.7 .6 1.1 1.8 1.1 3.3v6h-2.9v-1.1c-.7 .7 -1.8 1.2 -3.1 1.2Zm44 0c-1.1 0 -1.9 -.2 -2.5 -.8c-.7 -.7 -1 -1.4 -1 -2.4c0 -1.1 .3 -1.9 1.1 -2.4c.7 -.6 1.7 -.8 3 -.8c.8 0 1.7 .1 2.5 .4v-.2c0 -1.3 -.7 -1.9 -2.2 -1.9c0 0 -.1 0 -.1 0c-.9 0 -1.7 .2 -2.7 .6l-.7 -2.3c1.1 -.5 2.6 -.8 4 -.8c.1 0 .2 0 .2 0c1.4 0 2.6 .4 3.3 1.2c.7 .6 1.1 1.8 1.1 3.3v6h-2.9v-1.1c-.8 .7 -1.8 1.2 -3.1 1.2Zm57.4 -2.6c.8 -.1 1.6 -.4 2.1 -1.2c.5 -.9 .8 -1.8 .8 -3.1c0 -1.3 -.3 -2.3 -.8 -3.1c-.7 -.9 -1.3 -1.2 -2.2 -1.2c0 0 -.1 0 -.2 0c-.8 0 -1.4 .4 -1.9 1.2c-.6 .8 -.8 1.8 -.8 3.1c-.1 1.2 .2 2.3 .8 3.1c.5 .7 1.3 1.2 2.2 1.2Zm14.1 0c.9 -.1 1.6 -.4 2.2 -1.2c.4 -.9 .8 -1.8 .8 -3.1c0 -1.3 -.3 -2.3 -.9 -3.1c-.6 -.9 -1.2 -1.2 -2.1 -1.2q-.1 0 -.2 0c-.8 0 -1.4 .4 -1.9 1.2c-.7 .8 -.9 1.8 -.9 3.1c0 1.2 .3 2.3 .9 3.1c.4 .7 1.2 1.2 2.1 1.2Zm-27.6 2.7c-2 -.1 -3.6 -.7 -5 -2l1.8 -2.2c1 1 2.1 1.5 3.2 1.5c.6 -.1 1.3 -.2 1.7 -.5c.3 -.4 .6 -.8 .6 -1.4c-.1 -.7 -.2 -1 -.7 -1.4c-.5 -.4 -1 -.5 -1.7 -.5q-.1 0 -.2 0c-.7 0 -1.4 .2 -2.1 .5l-1.7 -1.1l.4 -6.7H396v2.6h-5.8l-.1 2.4c.5 -.2 1.2 -.3 1.8 -.3c0 0 .1 0 .2 0c1.3 0 2.4 .4 3.2 1.1c.8 .7 1.3 1.8 1.3 3.3c0 1.4 -.5 2.6 -1.4 3.4c-.9 .8 -2.2 1.3 -3.8 1.3Zm-17.3 -.2v-3h-6.7l-.5 -2.1l7.5 -8.6h2.5V749h1.8v2.4h-1.8v3Zm30.7 .2c-1.8 -.1 -3.2 -.7 -4.3 -2c-1.2 -1.4 -1.7 -3 -1.7 -5c0 -2.1 .6 -3.7 1.7 -5c1.1 -1.4 2.6 -2 4.4 -2c0 0 .1 0 .2 0c1.6 0 3 .7 4.1 2c1.1 1.2 1.7 3 1.7 5c-.1 1.9 -.6 3.7 -1.7 5c-1.2 1.3 -2.6 2 -4.4 2Zm14.2 0c-1.8 -.1 -3.2 -.7 -4.4 -2c-1.1 -1.4 -1.6 -3 -1.6 -5c0 -2.1 .5 -3.7 1.7 -5c1.1 -1.4 2.5 -2 4.3 -2c.1 0 .2 0 .2 0c1.7 0 3.1 .7 4.2 2c1 1.2 1.6 3 1.6 5c0 1.9 -.5 3.7 -1.7 5c-1.1 1.3 -2.5 2 -4.3 2Z"/></clipPath>
</defs>
<image clip-path="url(#c0_28)" preserveAspectRatio="none" x="150" y="0" width="1167" height="825" xlink:href="img/1.jpg"/>
<image clip-path="url(#c1_28)" preserveAspectRatio="none" x="150" y="0" width="1167" height="825" xlink:href="img/2.jpg"/>
<image clip-path="url(#c2_28)" preserveAspectRatio="none" x="150" y="0" width="1167" height="825" xlink:href="img/3.jpg"/>
<image clip-path="url(#c3_28)" preserveAspectRatio="none" x="150" y="0" width="1167" height="825" xlink:href="img/4.jpg"/>
<image clip-path="url(#c4_28)" preserveAspectRatio="none" x="150" y="0" width="1167" height="825" xlink:href="img/5.jpg"/>
<image clip-path="url(#c5_28)" preserveAspectRatio="none" x="150" y="0" width="1167" height="825" xlink:href="img/6.jpg"/>
<image clip-path="url(#c6_28)" preserveAspectRatio="none" x="150" y="0" width="1167" height="825" xlink:href="img/7.jpg"/>
<image clip-path="url(#c7_28)" preserveAspectRatio="none" x="150" y="0" width="1167" height="825" xlink:href="img/8.jpg"/>
<image clip-path="url(#c8_28)" preserveAspectRatio="none" x="150" y="0" width="1167" height="825" xlink:href="img/9.jpg"/>
<image clip-path="url(#c9_28)" preserveAspectRatio="none" x="150" y="0" width="1167" height="825" xlink:href="img/10.jpg"/>
</svg>