<?xml version="1.0" encoding="UTF-8" standalone="no"?>
<!DOCTYPE svg PUBLIC "-//W3C//DTD SVG 1.1//EN"
"http://www.w3.org/Graphics/SVG/1.1/DTD/svg11.dtd">
<svg viewBox="0 0 1466 825" version="1.1" xmlns="http://www.w3.org/2000/svg" xmlns:xlink="http://www.w3.org/1999/xlink">
<defs>
<clipPath id="c0_23"><path d="M149.9 825V0h1167V825Z"/></clipPath>
<clipPath id="c1_23"><path d="M149.9 741.8V0h1167V741.8Z"/></clipPath>
<clipPath id="c2_23"><path d="M157.9 734.2v-489H1309.2v489Z"/></clipPath>
<clipPath id="c3_23"><path d="M1201.1 155.4v-6.2h6.3v6.2ZM486.4 150.2c2.7 0 4.1 -1 4.1 -3.1c0 -2 -1.4 -3 -4.3 -3h-6.9v6.1ZM446.8 150c2.8 -.1 4.4 -1.2 4.4 -3.8c0 -2.4 -1.5 -3.6 -4.5 -3.6h-5.2V150Zm287.7 0c2.9 -.1 4.5 -1.2 4.5 -3.8c0 -2.4 -1.5 -3.6 -4.5 -3.6h-5.2V150Zm183.3 0c2.8 -.1 4.4 -1.2 4.4 -3.8c0 -2.4 -1.5 -3.6 -4.5 -3.6h-5.2V150ZM306.1 144.2l-3.6 -8.9l-3.6 8.9Zm211 0l-3.6 -8.9l-3.6 8.9Zm577 0l-3.6 -8.9l-3.6 8.9Zm107 -3.4v-6.2h6.3v6.2Zm-399.2 1.3c1.4 0 2.6 -.4 3.5 -1.1c.7 -.9 1.3 -1.8 1.3 -3.1c-.1 -1.3 -.5 -2.3 -1.3 -3c-1 -.8 -2.1 -1.1 -3.6 -1.1h-4.7v8.3Zm-317 -2.9c2.8 -.1 4.3 -1 4.3 -3c-.2 -.9 -.4 -1.5 -1.1 -2c-.7 -.5 -1.6 -.7 -2.9 -.7h-5.9v5.7Zm543.9 11.1c2.3 -.1 4.3 -.9 5.9 -2.5c1.5 -1.7 2.3 -3.7 2.3 -6.1c-.2 -2.5 -.8 -4.4 -2.4 -6.1c-1.6 -1.7 -3.5 -2.5 -5.9 -2.5c-2.4 0 -4.3 .9 -5.8 2.5c-1.6 1.6 -2.3 3.7 -2.3 6.1c-.1 2.3 .8 4.4 2.3 6.1c1.5 1.5 3.5 2.5 5.9 2.5Zm-182.5 5.3V128.4h22.6v27.2h-6V133.8H852.3v21.8Zm-55.2 0V128.4h11.2c.1 0 .2 0 .4 0c2.9 0 5.4 1 7.2 2.6c1.8 1.7 2.8 4 2.8 6.9c-.1 3 -1 5.4 -3.1 7c-2.2 1.7 -4.7 2.5 -8 2.5h-4.5v8.2Zm-193.8 -.2V128.3h6V150H613V128.3h5.9V150h9.7V128.3h6v27.1Zm126 0V128.3h6v9.2H735c3.1 0 5.5 .8 7.3 2.4c1.7 1.5 2.6 3.7 2.6 6.4c-.1 2.7 -.9 5 -2.8 6.7c-1.9 1.5 -4.3 2.4 -7.5 2.4Zm406.8 5.7v-5.7H1110V128.3h6V150h10.6V128.3h6V150h3.2l-.8 11.1ZM415.9 155.4V133.8h-8.3v-5.5h22.5v5.5h-8.2v21.6Zm150.2 0V133.8h-8.3v-5.5h22.5v5.5h-8.2v21.6Zm137.6 0V133.8h-8.3v-5.5h22.5v5.5h-8.2v21.6Zm-443.4 0V128.3h6v10.6h11V128.3h5.9v27.1h-5.9V144.5h-11v10.9Zm105.2 0v-10c-2.9 1.2 -5.1 2 -7.2 2c-2.8 -.1 -5 -.8 -6.7 -2.3c-1.6 -1.6 -2.4 -3.8 -2.4 -6.9v-9.9h6v8.2c-.1 3.5 1.4 5.3 4.4 5.3c2.4 0 4.4 -.6 5.9 -1.8V128.3h6v27.1Zm13.4 0V128.3h5.9v17.8l11.8 -17.8h5.6v27.1h-5.9V137.6l-11.8 17.8Zm56.6 0V128.3h6v9.2h5.8c3 0 5.5 .8 7.2 2.4c1.8 1.5 2.6 3.7 2.6 6.4c-.1 2.7 -.9 5 -2.7 6.7c-1.9 1.5 -4.4 2.4 -7.5 2.4Zm24.7 0V128.3h5.9v27.1Zm301.8 0V128.3h6v11.9l11 -11.9h7.2l-11.1 11.5l11.6 15.6h-7.2l-8.4 -11.5l-3.1 3.2v8.3Zm114.3 0V128.3h5.9v10.6h11V128.3h6v27.1h-6V144.5h-11v10.9Zm30.2 0V128.3h6v9.2h5.8c3 0 5.5 .8 7.2 2.4c1.8 1.5 2.6 3.7 2.6 6.4c-.1 2.7 -.9 5 -2.7 6.7c-1.9 1.5 -4.4 2.4 -7.5 2.4Zm24.7 0V128.3h5.9v27.1Zm11.2 0l9.5 -13.8l-9.1 -13.3h7l5.7 8.8l5.7 -8.8H968l-9.1 13.2l9.5 13.9h-7l-6.1 -9.3l-6.1 9.3Zm107 0V128.3h6v11.9l11 -11.9h7.2l-11 11.5l11.5 15.6H1067l-8.4 -11.5l-3.2 3.2v8.3Zm91.4 0V128.3h5.9v17.8l11.9 -17.8h5.5v27.1h-5.9V137.6l-11.7 17.8Zm30.7 0V128.3h5.9v17.8l11.9 -17.8h5.5v27.1h-5.9V137.6l-11.7 17.8Zm-698 0V128.3h12.6c.1 0 .1 -.1 .2 -.1c3 0 5.4 .9 6.9 2.4c1.2 1.2 1.9 2.8 1.9 4.7c-.1 2.5 -1.2 4.5 -3.7 5.8c1.6 .7 3 1.5 3.8 2.6c.8 1 1.3 2.5 1.3 4.2c-.1 2.4 -.9 4.3 -2.7 5.6c-1.9 1.3 -4.3 1.9 -7.4 1.9Zm59.5 0V128.2h20.4v5.3H538.9v5.6h12.9v5.4H538.9v5.6h14.7v5.3Zm108.9 0V128.2h20.5v5.3H647.9v5.6h12.8v5.4H647.9v5.6h14.7v5.3Zm-353.7 .2l11.6 -27.4h5.5l11.6 27.4h-6.2l-2.5 -6.2H296.7l-2.4 6.2Zm210.9 0l11.7 -27.4h5.5l11.6 27.4h-6.2l-2.5 -6.2H507.7l-2.5 6.2Zm323.1 .2c-2.1 0 -4 -.6 -5.9 -1.6l2.3 -4.4c.9 .6 2.1 .9 3.2 .9c1.3 -.1 2.5 -.7 3.5 -2.2L814.4 128.2h6.7l7.3 14.3L835 128.2h6.5l-10.5 21c-1.1 2.3 -2.4 4 -3.8 5c-1.5 1 -3.1 1.6 -5 1.6Zm163.6 0c-1.3 0 -2.3 -.2 -3.1 -.4l.3 -4.9c.4 0 .7 .1 1 .1c.8 -.1 1.6 -.2 2.1 -.6c.5 -.5 1.1 -1.1 1.6 -2.3c.4 -1.2 .8 -2.8 1 -5.1c.2 -2.3 .3 -5.2 .3 -8.8v-5.6h19.3v27.2h-6V133.5h-7.7v2.1c-.1 5.3 -.3 9.5 -.9 12.4c-.8 2.9 -1.6 5 -2.8 6.1c-1.3 1 -2.9 1.7 -5.1 1.7Zm90.4 -.2l11.6 -27.4h5.5l11.6 27.4h-6.2l-2.5 -6.2h-11.5l-2.5 6.2Zm-47.5 .2c-4.1 0 -7.5 -1.4 -10.3 -4.1c-2.7 -2.8 -4.1 -6.1 -4.1 -10c0 -4 1.4 -7.2 4.2 -10c2.7 -2.8 6.2 -4.1 10.3 -4.1c.1 0 .2 0 .2 0c4 0 7.4 1.5 10.1 4.1c2.7 2.7 4.1 6.1 4.1 10c-.1 3.8 -1.4 7.2 -4.1 10c-2.8 2.6 -6.2 4.1 -10.4 4.1Zm-695.7 0c-4 0 -7.3 -1.4 -9.9 -4.1c-2.8 -2.8 -4 -6 -4 -10c0 -4 1.3 -7.3 4 -10c2.7 -2.8 6.1 -4.1 10.2 -4.1c.1 0 .2 0 .3 0c2.2 0 4.1 .5 5.6 1.2c1.6 .6 3.1 1.8 4.6 3.3l-3.6 4.1c-1.2 -1.1 -2.2 -1.9 -3.3 -2.3c-1.1 -.5 -2.2 -.8 -3.7 -.8c-2.3 0 -4.1 .9 -5.6 2.5c-1.6 1.6 -2.2 3.7 -2.2 6.1c-.1 2.3 .7 4.4 2.2 6.1c1.4 1.5 3.3 2.5 5.6 2.5c1.4 -.1 2.7 -.3 3.8 -.8c1 -.6 2.2 -1.3 3.4 -2.4l3.8 4c-1.5 1.6 -3.1 2.8 -4.8 3.5c-1.8 .7 -3.9 1.2 -6.4 1.2Zm347.5 0c-4 0 -7.3 -1.4 -9.9 -4.1c-2.8 -2.8 -4 -6 -4 -10c0 -4 1.3 -7.3 4 -10c2.7 -2.8 6.1 -4.1 10.2 -4.1c.1 0 .2 0 .3 0c2.2 0 4.1 .5 5.6 1.2c1.6 .6 3.1 1.8 4.6 3.3l-3.6 4.1c-1.2 -1.1 -2.3 -1.9 -3.3 -2.3c-1.1 -.5 -2.2 -.8 -3.7 -.8c-2.3 0 -4.1 .9 -5.6 2.5c-1.6 1.6 -2.2 3.7 -2.2 6.1c-.1 2.3 .7 4.4 2.2 6.1c1.4 1.5 3.3 2.5 5.6 2.5c1.4 -.1 2.7 -.3 3.8 -.8c1 -.6 2.2 -1.3 3.4 -2.4l3.8 4c-1.5 1.6 -3.1 2.8 -4.8 3.5c-1.9 .7 -3.9 1.2 -6.4 1.2Zm502.8 -29.6c-1.8 0 -3.2 -.6 -4.4 -1.6c-1.1 -1.1 -1.8 -2.5 -2.1 -4.3l3.4 -.6c.6 1.6 1.6 2.6 3.1 2.6c1.4 -.1 2.5 -.9 3 -2.6l3.5 .6c-.4 1.8 -1 3.3 -2.1 4.3c-1.2 1 -2.6 1.6 -4.4 1.6ZM719.7 101.9V96.2h11.9v5.7Zm272.7 7.6l-6.5 -8.7v-.3l6.5 -8.7l4.5 2.2l-5.1 6.6l5.1 6.7l-4.5 2.2Zm10.5 0l-6.5 -8.7v-.3l6.5 -8.7l4.5 2.2l-5 6.6l5 6.7l-4.5 2.2Zm202.7 0l-4.5 -2.1l5.1 -6.7l-5.1 -6.6l4.5 -2.3l6.5 8.7v.3l-6.5 8.7Zm10.6 0l-4.5 -2.1l5 -6.7l-5 -6.6l4.5 -2.3l6.5 8.7v.3l-6.5 8.7Zm-59.8 -9.7L1152.8 91l-3.6 8.8ZM312 97.8c1.4 0 2.6 -.4 3.5 -1.2c.7 -.8 1.3 -1.8 1.3 -3c-.1 -1.4 -.5 -2.4 -1.3 -3.1c-1 -.7 -2.1 -1 -3.6 -1h-4.7v8.3Zm815.7 0c1.4 0 2.6 -.4 3.5 -1.2c.7 -.8 1.2 -1.8 1.2 -3c0 -1.4 -.4 -2.4 -1.3 -3.1c-.9 -.7 -2 -1 -3.6 -1h-4.6v8.3Zm60.9 7.9V89.2h-7.9V92c0 5.1 -.8 9.7 -2.4 13.7Zm-487.8 .2c2.3 0 4.3 -.8 5.9 -2.5c1.5 -1.6 2.3 -3.6 2.3 -6c-.1 -2.5 -.8 -4.5 -2.4 -6.1c-1.6 -1.7 -3.5 -2.5 -5.9 -2.5c-2.4 0 -4.3 .8 -5.8 2.5c-1.6 1.6 -2.3 3.6 -2.3 6.1c-.1 2.3 .8 4.4 2.3 6c1.5 1.6 3.5 2.5 5.9 2.5Zm76.8 0c2.3 0 4.3 -.8 5.8 -2.5c1.6 -1.6 2.3 -3.6 2.3 -6c-.1 -2.5 -.7 -4.5 -2.3 -6.1c-1.7 -1.7 -3.5 -2.5 -5.9 -2.5c-2.4 0 -4.3 .8 -5.8 2.5c-1.6 1.6 -2.3 3.6 -2.3 6.1c-.1 2.3 .7 4.4 2.3 6c1.5 1.6 3.5 2.5 5.9 2.5Zm248.6 0c2.3 0 4.3 -.8 5.8 -2.5c1.5 -1.6 2.3 -3.6 2.3 -6c-.1 -2.5 -.8 -4.5 -2.3 -6.1c-1.7 -1.7 -3.5 -2.5 -5.9 -2.5c-2.4 0 -4.4 .8 -5.9 2.5c-1.6 1.6 -2.3 3.6 -2.3 6.1c-.1 2.3 .8 4.4 2.4 6c1.4 1.6 3.5 2.5 5.9 2.5Zm-193.5 5.3V84.1h22.6v27.1h-6V89.5H838.7v21.7Zm260.2 0V84.1h18.9v5.4h-12.9v21.7Zm-791.7 0V84.1h11.2c.1 0 .2 0 .4 0c3 0 5.4 .9 7.2 2.6c1.8 1.6 2.8 4 2.8 6.8c-.1 3 -1 5.4 -3.1 7.1c-2.2 1.6 -4.7 2.5 -7.9 2.5h-4.6v8.1Zm815.7 0V84.1H1128c.2 0 .3 0 .4 0c3 0 5.5 .9 7.3 2.6c1.8 1.6 2.8 4 2.8 6.8c-.1 3 -1 5.4 -3.1 7.1c-2.2 1.6 -4.8 2.5 -8 2.5h-4.5v8.1Zm-864.6 -.1V89.5H244V84h22.5v5.5h-8.2v21.6Zm142.1 0V89.5H386V84h22.5v5.5h-8.2v21.6Zm-66.5 0V83.9h5.9v17.8L345.6 83.9h5.6v27.2h-5.9V93.3l-11.8 17.8Zm86.1 0V83.9h5.9v17.8L431.7 83.9h5.5v27.2h-5.9V93.3l-11.7 17.8Zm46.3 0V101c-2.9 1.3 -5.1 2 -7.2 2c-2.8 -.1 -5 -.7 -6.7 -2.3C444.8 99.1 444 96.9 444 93.9v-10h6v8.2c-.1 3.6 1.4 5.3 4.4 5.3c2.4 0 4.4 -.5 5.9 -1.7V83.9h6v27.2Zm68.8 0V83.9h6V95.8l11 -11.9h7.2l-11 11.5l11.5 15.7h-7.2L538.2 99.5l-3.1 3.3v8.3Zm29.1 0V83.9h5.9v17.8L576 83.9h5.5v27.2h-5.9V93.3l-11.7 17.8Zm30.7 0V83.9h5.9v17.8L606.7 83.9h5.5v27.2h-5.9V93.3l-11.7 17.8Zm71.6 0V83.9h6V95.8l11 -11.9h7.2l-11 11.5l11.5 15.7H678L669.6 99.5l-3.1 3.3v8.3Zm76.8 0V83.9h6V95.8l11 -11.9h7.2L750.4 95.4L762 111.1h-7.2L746.4 99.5l-3.1 3.3v8.3Zm60.9 0V83.9h6.5l7.1 11.5L819 83.9h6.4v27.2h-5.9V93.4l-7.7 11.5h-.1L804.1 93.5v17.6Zm121.5 0V83.9h6V95.8l11 -11.9h7.2l-11 11.5l11.5 15.7h-7.1L928.9 99.5l-3.2 3.3v8.3Zm127.1 0V83.9h6.4l7.2 11.5l7.2 -11.5h6.4v27.2h-5.9V93.4l-7.7 11.5h-.2l-7.6 -11.4v17.6Zm-573.1 0V83.8h20.5v5.3H479.6v5.7h12.9v5.3H479.6v5.7h14.7v5.3Zm419.3 0V83.8h20.4v5.3H898.9v5.7h12.9v5.3H898.9v5.7h14.7v5.3Zm-615.9 .3c-2.1 0 -4 -.5 -5.9 -1.6l2.3 -4.4c.9 .6 2.1 .9 3.3 .9c1.3 -.1 2.4 -.7 3.4 -2.1L269.3 83.8H276l7.4 14.4l6.5 -14.4h6.5l-10.4 21c-1.2 2.3 -2.5 4 -3.9 5.1c-1.5 1 -3.1 1.5 -5 1.5Zm586 0c-1.3 0 -2.3 -.1 -3.2 -.3l.4 -5c.4 .1 .7 .1 1 .1c.8 0 1.6 -.2 2.1 -.5c.5 -.5 1.1 -1.2 1.6 -2.3c.3 -1.3 .8 -2.9 1 -5.2c.2 -2.3 .3 -5.2 .3 -8.7V83.8h19.3v27.3h-6V89.2h-7.7v2.1c-.1 5.2 -.3 9.4 -1 12.4c-.7 2.8 -1.5 4.9 -2.7 6c-1.3 1 -2.9 1.7 -5.1 1.7Zm275.4 -.2l11.6 -27.4h5.5l11.6 27.4H1161l-2.5 -6.1H1147l-2.4 6.1Zm31 5.5v-11h2.5c1 -2.6 1.8 -5.1 2.3 -7.8c.3 -2.8 .7 -6.4 .7 -10.9V83.8h19.6v21.9h3.2l-.7 11h-5v-5.6h-16.9l-.4 5.6Zm-529 -5.3c-2.6 0 -4.7 -.4 -6.4 -1.1c-1.9 -.8 -3.4 -1.9 -4.9 -3.5l3.7 -4c1.1 1.1 2.4 1.9 3.5 2.5c1.1 .4 2.4 .8 3.9 .8c1.9 -.1 3.6 -.6 5 -1.8c1.4 -1.2 2.3 -2.7 2.8 -4.6H636.9V94.8H648c-.5 -1.8 -1.4 -3.2 -2.8 -4.3c-1.5 -1.2 -3 -1.7 -4.9 -1.7c-2.6 0 -4.9 .9 -7 2.8l-3.4 -4c3 -2.8 6.4 -4.2 10.4 -4.2c.1 0 .3 0 .4 0c3.9 0 7.2 1.5 9.8 4.1c2.6 2.7 4 6 4 9.9c-.1 3.9 -1.4 7.3 -4 10c-2.7 2.6 -6 4 -10 4Zm60.2 0c-4.1 0 -7.5 -1.3 -10.3 -4.1c-2.7 -2.8 -4.1 -6 -4.1 -9.9c0 -4 1.4 -7.3 4.2 -10c2.7 -2.8 6.2 -4.1 10.3 -4.1c.1 0 .2 0 .2 0c4 0 7.4 1.4 10.1 4.1c2.7 2.6 4.1 6 4.1 10c-.1 3.8 -1.4 7.2 -4.1 9.9c-2.8 2.7 -6.2 4.1 -10.4 4.1Zm76.8 0c-4.2 0 -7.6 -1.3 -10.3 -4.1c-2.8 -2.8 -4.1 -6 -4.1 -9.9c0 -4 1.4 -7.3 4.2 -10c2.7 -2.8 6.2 -4.1 10.3 -4.1q.1 0 .2 0c4 0 7.4 1.4 10.1 4.1c2.7 2.6 4.1 6 4.1 10c-.1 3.8 -1.4 7.2 -4.2 9.9c-2.7 2.7 -6.2 4.1 -10.3 4.1Zm248.6 0c-4.2 0 -7.6 -1.3 -10.3 -4.1c-2.8 -2.8 -4.1 -6 -4.1 -9.9c0 -4 1.4 -7.3 4.1 -10c2.7 -2.8 6.2 -4.1 10.3 -4.1c.1 0 .2 0 .3 0c4 0 7.4 1.4 10.1 4.1c2.6 2.6 4 6 4 10c0 3.8 -1.3 7.2 -4.1 9.9c-2.8 2.7 -6.2 4.1 -10.3 4.1Zm-654.9 0c-4.1 0 -7.3 -1.3 -9.9 -4.1c-2.8 -2.7 -4 -6 -4 -9.9c0 -4.1 1.3 -7.3 4 -10c2.6 -2.8 6 -4.1 10.1 -4.1c.2 0 .3 0 .4 0c2.1 0 4.1 .4 5.6 1.1c1.5 .7 3.1 1.9 4.5 3.3l-3.5 4.1c-1.2 -1.1 -2.3 -1.8 -3.3 -2.3c-1.1 -.5 -2.3 -.7 -3.7 -.7c-2.3 0 -4.2 .8 -5.6 2.5c-1.6 1.6 -2.3 3.6 -2.3 6.1c-.1 2.3 .8 4.4 2.3 6c1.4 1.6 3.3 2.5 5.6 2.5c1.4 0 2.7 -.3 3.8 -.8c.9 -.5 2.1 -1.3 3.3 -2.4l3.8 4.1c-1.5 1.6 -3 2.7 -4.8 3.5c-1.8 .7 -3.8 1.1 -6.3 1.1Zm141.1 0c-4.1 0 -7.3 -1.3 -10 -4.1c-2.7 -2.7 -3.9 -6 -3.9 -9.9c0 -4.1 1.3 -7.3 4 -10c2.6 -2.8 6 -4.1 10.1 -4.1c.1 0 .3 0 .4 0c2.1 0 4 .4 5.6 1.1c1.5 .7 3.1 1.9 4.5 3.3l-3.5 4.1c-1.2 -1.1 -2.3 -1.8 -3.3 -2.3c-1.1 -.5 -2.3 -.7 -3.7 -.7c-2.3 0 -4.2 .8 -5.7 2.5c-1.5 1.6 -2.2 3.6 -2.2 6.1c-.1 2.3 .8 4.4 2.2 6c1.5 1.6 3.4 2.5 5.7 2.5c1.4 0 2.7 -.3 3.7 -.8c1 -.5 2.2 -1.3 3.4 -2.4l3.8 4.1c-1.5 1.6 -3.1 2.7 -4.8 3.5c-1.8 .7 -3.8 1.1 -6.3 1.1Zm447.2 0c-4.1 0 -7.3 -1.3 -9.9 -4.1c-2.8 -2.7 -4 -6 -4 -9.9c0 -4.1 1.3 -7.3 4 -10c2.6 -2.8 6 -4.1 10.1 -4.1c.2 0 .3 0 .4 0c2.1 0 4.1 .4 5.6 1.1c1.5 .7 3.1 1.9 4.5 3.3l-3.5 4.1c-1.2 -1.1 -2.3 -1.8 -3.3 -2.3c-1.1 -.5 -2.3 -.7 -3.7 -.7c-2.3 0 -4.2 .8 -5.6 2.5c-1.6 1.6 -2.3 3.6 -2.3 6.1c-.1 2.3 .8 4.4 2.3 6c1.4 1.6 3.3 2.5 5.6 2.5c1.4 0 2.7 -.3 3.8 -.8c.9 -.5 2.1 -1.3 3.3 -2.4l3.8 4.1c-1.5 1.6 -3 2.7 -4.8 3.5c-1.8 .7 -3.8 1.1 -6.3 1.1ZM600.7 81.8c-1.8 0 -3.3 -.5 -4.4 -1.5c-1.2 -1.1 -1.8 -2.5 -2.1 -4.4l3.4 -.6c.6 1.7 1.6 2.6 3.1 2.6c1.4 0 2.5 -.9 3 -2.6l3.4 .6c-.3 1.8 -.9 3.3 -2.1 4.4c-1.1 1 -2.6 1.5 -4.3 1.5Z"/></clipPath>
<clipPath id="c4_23"><path d="M508.6 377.4c-.7 0 -1.4 -.2 -1.9 -.6c0 0 -14.2 -10.1 -15.8 -11.2H387c-3.3 0 -6.5 -.7 -9.6 -1.9c-2.9 -1.3 -5.5 -3.1 -7.8 -5.3c-2.2 -2.3 -4 -4.9 -5.3 -7.8c-1.2 -3.1 -1.9 -6.3 -1.9 -9.6V274.7c0 -4.9 1 -9.7 2.9 -14.2c.9 -2.2 2 -4.3 3.4 -6.3c1.3 -1.9 2.8 -3.7 4.4 -5.4c1.7 -1.6 3.5 -3.1 5.4 -4.4c2 -1.4 4.1 -2.5 6.3 -3.4c4.5 -1.9 9.3 -2.9 14.2 -2.9h76.1c5 0 9.8 1 14.3 2.9c2.2 .9 4.2 2 6.2 3.4c1.9 1.3 3.8 2.8 5.4 4.4c1.7 1.7 3.2 3.5 4.5 5.4c1.3 2 2.4 4.1 3.4 6.3c1.9 4.5 2.8 9.3 2.8 14.2v79.6l.2 19.8c0 1.2 -.7 2.4 -1.8 2.9c-.5 .3 -1 .4 -1.5 .4Z"/></clipPath>
<clipPath id="c5_23"><path d="M508.6 374.1L492 362.3H387c-11.7 0 -21.3 -9.6 -21.3 -21.3V274.7c0 -18.4 14.9 -33.3 33.3 -33.3h76.1c18.4 0 33.3 14.9 33.3 33.3v79.6l.2 19.8Z"/></clipPath>
<clipPath id="c6_23"><path d="M425.7 351.2v-1.8h3.8v1.8Zm49.4 -.8l-1.2 -2.5l-1.1 2.5Zm-38.2 1.4c.7 0 1.2 -.2 1.6 -.6c.5 -.4 .7 -.8 .7 -1.5c0 -.7 -.2 -1 -.7 -1.4c-.4 -.4 -.9 -.5 -1.6 -.5v4Zm-1.9 0v-4c-.1 -.1 -.2 -.1 -.3 -.1c-.6 0 -1 .3 -1.3 .6c-.5 .3 -.6 .8 -.6 1.4c-.1 .6 .2 1.2 .6 1.5c.3 .3 .9 .6 1.6 .6Zm-15.1 .6c.7 -.1 1.3 -.3 1.8 -.7c.5 -.6 .7 -1.1 .7 -1.8c0 -.7 -.2 -1.2 -.7 -1.7c-.6 -.5 -1.1 -.7 -1.8 -.7q-.1 0 -.1 0c-.8 0 -1.3 .2 -1.8 .7c-.4 .4 -.7 1 -.7 1.7c-.1 .6 .3 1.3 .8 1.8c.4 .3 1 .7 1.8 .7Zm34.5 -2.6c.3 0 .8 -.1 1.1 -.4c.2 -.2 .4 -.5 .4 -.8c-.1 -.4 -.2 -.7 -.4 -.9c-.3 -.3 -.6 -.3 -1.1 -.3h-1.5v2.4Zm-53.5 4.3c-.8 0 -1.5 -.1 -2 -.4c-.6 -.3 -1.1 -.6 -1.5 -1l1.1 -1.3c.4 .2 .8 .6 1.1 .8c.3 .1 .8 .2 1.2 .2c.6 -.1 1.2 -.2 1.6 -.5c.3 -.4 .7 -.9 .9 -1.5h-3.5v-1.5h3.4c-.2 -.5 -.4 -.8 -.8 -1.1c-.6 -.3 -1 -.4 -1.6 -.4c-.8 0 -1.5 .3 -2.2 .7l-1 -1.1c.9 -.9 2 -1.2 3.2 -1.2c1.3 0 2.4 .4 3.2 1.2c.8 .7 1.3 1.8 1.3 2.9c-.1 1.1 -.5 2.2 -1.3 3c-.9 .7 -1.9 1.2 -3.1 1.2Zm6.3 0v-8.3h1.9v3.6l3.4 -3.6h2.3l-3.5 3.5l3.6 4.8h-2.2l-2.6 -3.6l-1 1v2.6Zm12.7 0c-1.4 0 -2.4 -.4 -3.2 -1.2c-1 -.9 -1.3 -1.8 -1.3 -3c0 -1.2 .4 -2.1 1.3 -2.9c.7 -.9 1.9 -1.2 3.2 -1.2c1.2 0 2.3 .4 3.2 1.2c.8 .7 1.3 1.8 1.3 2.9c0 1.1 -.5 2.2 -1.3 3c-.9 .7 -2 1.2 -3.2 1.2Zm22.8 0v-8.3H449v1.6h-4.4v1.7h3.9v1.7h-3.9v1.6h4.6v1.7Zm8.4 0v-8.3h3.4c1 0 1.8 .2 2.4 .7c.5 .5 .8 1.2 .8 2.1c0 .8 -.3 1.6 -.9 2.1c-.7 .4 -1.5 .7 -2.5 .7h-1.4v2.7Zm8.3 0v-8.3h2l2.3 3.5l2.2 -3.5h2v8.3h-1.8v-5.5l-2.4 3.6h-.1l-2.4 -3.5v5.4Zm10.1 0l3.6 -8.3h1.7l3.7 8.3h-2l-.8 -2h-3.6l-.7 2Zm-34.5 .3v-1c-1.3 0 -2.3 -.3 -3 -1c-.8 -.8 -1.1 -1.6 -1.1 -2.7c0 -1.1 .3 -1.9 1.1 -2.6c.7 -.7 1.7 -1 3 -1v-.8h1.9v.8c1.2 0 2.3 .3 3 1c.8 .7 1.2 1.6 1.2 2.6c-.1 1 -.4 2 -1.1 2.7c-.9 .6 -1.9 1 -3.1 1v1Z"/></clipPath>
<clipPath id="c7_23"><path d="M376.5 338.2c-.5 0 -.9 -.4 -.9 -.9V275.1c0 -3 .6 -5.9 1.8 -8.6c1.1 -2.6 2.7 -5 4.7 -7c2 -2.1 4.4 -3.7 7 -4.8c2.8 -1.1 5.7 -1.7 8.7 -1.7h77.1c3 0 5.9 .6 8.6 1.7c2.7 1.1 5 2.7 7.1 4.8c2 2 3.6 4.4 4.7 7c1.2 2.7 1.8 5.6 1.8 8.6v62.2c0 .5 -.4 .9 -.9 .9Z"/></clipPath>
<clipPath id="c8_23"><path d="M376.5 337.3V275.1c0 -11.7 9.5 -21.3 21.3 -21.3h77.1c11.8 0 21.3 9.6 21.3 21.3v62.2Z"/></clipPath>
<clipPath id="c9_23"><path d="M377.3 336.5c0 -1.6 0 -61.4 0 -61.4c0 -2.8 .5 -5.4 1.6 -8c1 -2.4 2.5 -4.6 4.4 -6.5c1.9 -1.8 4.1 -3.3 6.5 -4.3c2.5 -1.1 5.2 -1.6 8 -1.6h77.1c2.8 0 5.5 .5 8 1.6c2.4 1 4.6 2.5 6.5 4.3c1.9 1.9 3.3 4.1 4.4 6.5c1 2.6 1.6 5.2 1.6 8c0 0 0 59.8 0 61.4Z"/></clipPath>
<clipPath id="ca_23"><path d="M724.2 559.7c-.7 0 -1.4 -.2 -2 -.6c0 0 -14.1 -10.1 -15.7 -11.2H602.3c-3.3 0 -6.5 -.7 -9.5 -1.9c-2.9 -1.2 -5.5 -3 -7.7 -5.2c-2.2 -2.3 -4 -4.8 -5.2 -7.7c-1.3 -3 -1.9 -6.2 -1.9 -9.5V457c0 -4.9 .9 -9.7 2.8 -14.2c1 -2.2 2.1 -4.3 3.4 -6.3c1.3 -1.9 2.8 -3.7 4.5 -5.4c1.6 -1.6 3.5 -3.1 5.4 -4.4c2 -1.4 4 -2.5 6.2 -3.4c4.5 -1.9 9.3 -2.9 14.3 -2.9h76.1c4.9 0 9.7 1 14.3 2.9c2.1 .9 4.2 2 6.2 3.4c1.9 1.3 3.7 2.8 5.4 4.4c1.6 1.7 3.1 3.5 4.4 5.4c1.4 2 2.5 4.1 3.4 6.3c1.9 4.5 2.9 9.3 2.9 14.2v79.6l.2 19.8c0 1.2 -.7 2.4 -1.8 2.9c-.5 .3 -1 .4 -1.5 .4Z"/></clipPath>
<clipPath id="cb_23"><path d="M724.2 556.4L707.6 544.6H602.3c-11.6 0 -21 -9.4 -21 -21V457c0 -18.4 14.9 -33.3 33.3 -33.3h76.1c18.4 0 33.3 14.9 33.3 33.3v79.6l.2 19.8Z"/></clipPath>
<clipPath id="cc_23"><path d="M688.5 534.7c.9 -.1 1.5 -.4 1.5 -1.2c0 -.8 -.5 -1.1 -1.5 -1.1h-1.7v2.3Zm-45.1 -1.2v-1.8h3.8v1.8Zm-5.8 1.2c.7 -.1 1.3 -.3 1.8 -.7c.5 -.6 .7 -1.1 .7 -1.8c0 -.7 -.2 -1.2 -.7 -1.7c-.6 -.5 -1.1 -.7 -1.8 -.7q-.1 0 -.1 0c-.8 0 -1.3 .2 -1.8 .7c-.4 .4 -.7 1 -.7 1.7c-.1 .6 .3 1.3 .7 1.8c.5 .3 1.1 .7 1.9 .7Zm15.5 0c.6 -.1 1.3 -.3 1.8 -.7c.5 -.6 .7 -1.1 .7 -1.8c0 -.7 -.3 -1.2 -.7 -1.7c-.6 -.5 -1.1 -.7 -1.9 -.7c-.8 0 -1.3 .2 -1.8 .7c-.5 .4 -.7 1 -.7 1.7c-.1 .6 .2 1.3 .7 1.8c.5 .3 1.1 .7 1.9 .7Zm-34.5 1.7c-.8 0 -1.5 -.1 -2 -.4c-.6 -.3 -1.1 -.6 -1.5 -1l1.1 -1.3c.4 .2 .7 .6 1.1 .8c.3 .1 .8 .2 1.2 .2c.6 -.1 1.2 -.2 1.6 -.5c.3 -.5 .7 -.9 .9 -1.5h-3.5v-1.5h3.4c-.2 -.5 -.4 -.8 -.8 -1.1c-.6 -.3 -1 -.4 -1.6 -.4c-.8 0 -1.5 .3 -2.2 .7l-1 -1.1c.9 -.9 2 -1.2 3.2 -1.2c1.3 0 2.4 .4 3.2 1.2c.8 .7 1.2 1.8 1.2 2.9c0 1.1 -.4 2.2 -1.2 3c-.9 .7 -1.9 1.2 -3.1 1.2Zm6.3 0v-8.3h1.9v3.6l3.4 -3.6h2.3l-3.5 3.5l3.6 4.8h-2.2l-2.6 -3.6l-1 1v2.6Zm12.7 0c-1.4 0 -2.4 -.4 -3.2 -1.2c-1 -.9 -1.3 -1.8 -1.3 -3c0 -1.2 .4 -2.1 1.3 -2.9c.7 -.9 1.9 -1.2 3.2 -1.2c1.2 0 2.3 .4 3.2 1.2c.8 .7 1.3 1.8 1.3 2.9c0 1.1 -.5 2.2 -1.3 3c-.9 .7 -2 1.2 -3.2 1.2Zm15.4 0c-1.3 0 -2.3 -.4 -3.2 -1.2c-.9 -.9 -1.2 -1.8 -1.2 -3c0 -1.2 .4 -2.1 1.2 -2.9c.8 -.9 2 -1.2 3.3 -1.2c1.2 0 2.3 .4 3.2 1.2c.8 .7 1.2 1.8 1.2 2.9c0 1.1 -.4 2.2 -1.2 3c-.9 .7 -2 1.2 -3.3 1.2Zm8.1 0v-6.6h-2.7v-1.7h7v1.7h-2.5v6.6Zm6.1 0v-8.3h6.3v1.6H669v1.7h4v1.7h-4v1.6h4.6v1.7Zm7.3 0l.2 -1.7c0 0 .2 .1 .2 .1c.3 -.1 .5 -.1 .7 -.2c.2 -.2 .3 -.4 .5 -.7c.1 -.4 .3 -.8 .3 -1.5c0 -.8 .1 -1.6 .1 -2.7v-1.6h6v8.3h-1.9v-6.7h-2.3v.7c-.1 1.4 -.1 2.8 -.3 3.7c-.3 .8 -.5 1.4 -.9 1.8c-.5 .3 -.9 .5 -1.6 .5Zm10.5 0v-8.3h1.8v2.7h2c.9 0 1.6 .3 2.2 .7c.5 .5 .8 1.2 .8 2c0 .9 -.3 1.6 -.9 2.1c-.6 .4 -1.3 .8 -2.3 .8Z"/></clipPath>
<clipPath id="cd_23"><path d="M592 520.4c-.4 0 -.8 -.3 -.8 -.8V457.4c0 -3 .6 -5.9 1.7 -8.6c1.1 -2.6 2.7 -5 4.8 -7c2 -2.1 4.4 -3.7 7 -4.8c2.7 -1.1 5.6 -1.7 8.6 -1.7h77.2c3 0 5.9 .6 8.6 1.7c2.6 1.1 5 2.7 7 4.8c2.1 2 3.7 4.4 4.8 7c1.1 2.7 1.7 5.6 1.7 8.6v62.2c0 .5 -.4 .8 -.8 .8Z"/></clipPath>
<clipPath id="ce_23"><path d="M592 519.6V457.4c0 -11.8 9.6 -21.3 21.3 -21.3h77.2c11.8 0 21.3 9.5 21.3 21.3v62.2Z"/></clipPath>
<clipPath id="cf_23"><path d="M592.9 518.8c0 -1.6 0 -61.4 0 -61.4c0 -2.8 .5 -5.4 1.6 -8c1 -2.4 2.5 -4.6 4.3 -6.5c1.9 -1.8 4.1 -3.3 6.6 -4.3c2.5 -1.1 5.2 -1.6 7.9 -1.6h77.2c2.8 0 5.4 .5 8 1.6c2.4 1 4.6 2.5 6.5 4.3c1.8 1.9 3.3 4.1 4.3 6.5c1.1 2.6 1.7 5.2 1.7 8c0 0 0 59.8 0 61.4Z"/></clipPath>
<clipPath id="cg_23"><path d="M1176.9 529.8c-.7 0 -1.4 -.2 -1.9 -.6c0 0 -14.2 -10.1 -15.7 -11.2H1055c-3.3 0 -6.5 -.7 -9.5 -2c-2.8 -1.2 -5.4 -2.9 -7.7 -5.2c-2.2 -2.2 -3.9 -4.8 -5.2 -7.7c-1.2 -3 -1.9 -6.2 -1.9 -9.4V427.1c0 -5 1 -9.8 2.9 -14.3c.9 -2.1 2.1 -4.2 3.4 -6.2c1.3 -1.9 2.8 -3.7 4.4 -5.4c1.7 -1.7 3.5 -3.2 5.4 -4.5c2 -1.3 4.1 -2.4 6.3 -3.3c4.5 -2 9.3 -2.9 14.2 -2.9h76.2c4.9 0 9.7 .9 14.2 2.9c2.2 .9 4.3 2 6.2 3.3c2 1.3 3.8 2.8 5.4 4.5c1.7 1.7 3.2 3.5 4.5 5.4c1.3 2 2.5 4.1 3.4 6.2c1.9 4.5 2.8 9.3 2.8 14.3v79.5l.2 19.8c0 1.3 -.7 2.4 -1.8 3c-.4 .2 -1 .4 -1.5 .4Z"/></clipPath>
<clipPath id="ch_23"><path d="M1176.9 526.4l-16.6 -11.8H1055c-11.6 0 -21 -9.4 -21 -20.9V427.1c0 -18.4 14.9 -33.3 33.3 -33.3h76.2c18.3 0 33.2 14.9 33.2 33.3v79.5l.2 19.8Z"/></clipPath>
<clipPath id="ci_23"><path d="M1086.1 503.4c.6 0 1.1 -.3 1.1 -.8c0 -.5 -.4 -.7 -1.2 -.7h-1.7v1.5Zm6.7 -.1c.7 -.1 1.1 -.3 1.1 -1c0 -.7 -.4 -.9 -1.1 -.9h-1.4v1.9Zm-30.5 -1.6l-.9 -2l-.9 2Zm15.8 1.6c.5 -.1 1.1 -.2 1.5 -.6c.3 -.3 .5 -.8 .5 -1.3c0 -.6 -.2 -1 -.5 -1.4c-.5 -.5 -.9 -.6 -1.5 -.6c0 0 -.1 0 -.1 0c-.6 0 -1 .2 -1.4 .6c-.4 .2 -.6 .8 -.6 1.4c0 .5 .2 1 .6 1.3c.4 .4 .9 .6 1.5 .6Zm41.9 0c.5 -.1 1.1 -.2 1.5 -.6c.3 -.3 .6 -.8 .6 -1.3c0 -.6 -.2 -1 -.6 -1.4c-.4 -.5 -.9 -.6 -1.5 -.6h-.1c-.6 0 -1 .2 -1.4 .6c-.4 .2 -.5 .8 -.5 1.4c-.1 .5 .2 1 .5 1.3c.4 .4 .9 .6 1.5 .6Zm-65 -1.9c.2 0 .6 -.1 .8 -.3c.2 -.2 .3 -.5 .3 -.7c0 -.5 -.1 -.6 -.3 -.8c-.2 -.2 -.5 -.2 -.8 -.2h-1.2v2Zm30.6 -.7c.7 0 1.1 -.2 1.1 -.7c-.1 -.3 -.1 -.4 -.3 -.5c-.2 -.2 -.4 -.2 -.7 -.2h-1.4v1.4Zm-40.8 4l2.3 -3.4l-2.2 -3.3h1.7l1.4 2.2l1.5 -2.2h1.7l-2.3 3.3l2.3 3.4h-1.7l-1.5 -2.3l-1.5 2.3Zm13 0l2.9 -6.7h1.4l2.9 6.7h-1.6l-.6 -1.7h-2.9l-.6 1.7Zm8.2 0V498h1.6l1.8 2.8l1.8 -2.8h1.6v6.7h-1.5v-4.4l-1.9 2.9h-.1l-1.9 -2.8v4.3Zm23.9 0V498h1.5v2.1h1.6c.6 0 1.3 .2 1.7 .6c.4 .4 .7 .9 .7 1.6c0 .6 -.2 1.3 -.7 1.7c-.5 .5 -1.1 .7 -1.9 .7Zm6.2 0V498h1.5v6.7Zm3.2 0V498h1.5v4.4l2.9 -4.4h1.4v6.7h-1.4v-4.4l-3 4.4Zm10.4 0V498h1.5v2.9L1114 498h1.8l-2.8 2.8l2.9 3.9h-1.8l-2.1 -2.9l-.8 .8v2.1Zm15 0V498h1.7l1.7 2.8l1.8 -2.8h1.6v6.7h-1.4v-4.4l-2 2.9l-1.9 -2.8v4.3Zm8.6 0V498h5.6v6.7h-1.5v-5.3h-2.7v5.3Zm6.8 0l.1 -1.3c0 0 .1 0 .2 0c.2 0 .4 -.1 .5 -.2c.1 -.1 .3 -.2 .4 -.5c0 -.3 .2 -.7 .3 -1.2c-.1 -.6 0 -1.3 0 -2.1V498h4.9v6.7H1145v-5.3h-2v.5c0 1.2 0 2.2 -.2 2.9c-.2 .7 -.4 1.2 -.7 1.5c-.3 .2 -.7 .4 -1.3 .4Zm8 0V498h5.2v1.4h-3.7v1.3h3.2V502h-3.2v1.4h3.7v1.3Zm6.6 0V498h1.5v2.9L1159 498h1.8l-2.8 2.8l2.9 3.9h-1.8l-2.1 -2.9l-.8 .8v2.1Zm-76.6 0c-1.1 0 -1.9 -.3 -2.6 -1c-.7 -.6 -1 -1.4 -1 -2.3c0 -1 .3 -1.8 1 -2.4c.7 -.8 1.6 -1 2.6 -1c.1 0 .2 0 .3 0c.8 0 1.7 .4 2.3 1c.6 .5 1 1.4 1 2.4c-.1 .9 -.3 1.7 -1 2.3c-.8 .6 -1.6 1 -2.6 1Zm41.9 0c-1.1 0 -1.9 -.3 -2.6 -1c-.7 -.6 -1 -1.4 -1 -2.3c0 -1 .3 -1.8 1 -2.4c.7 -.8 1.6 -1 2.6 -1c.1 0 .2 0 .3 0c.9 0 1.7 .4 2.3 1c.6 .5 1 1.4 1 2.4c-.1 .9 -.3 1.7 -1 2.3c-.8 .6 -1.6 1 -2.6 1Zm-67.7 0V498h2.8c.1 0 .2 0 .3 0c.6 0 1.1 .3 1.5 .7c.4 .3 .7 .9 .7 1.6c0 .7 -.2 1.4 -.7 1.8c-.6 .4 -1.2 .6 -2 .6h-1.1v2Zm30.5 0V498h3.1c.1 0 .2 0 .3 0c.6 0 1.1 .3 1.5 .6c.2 .2 .5 .7 .5 1.2c0 .6 -.3 1.1 -.9 1.4c.4 .1 .8 .4 1 .6c.2 .2 .3 .6 .3 1c0 .6 -.2 1.1 -.7 1.4c-.4 .3 -1 .5 -1.8 .5Zm82.1 0c-1.1 0 -1.8 -.3 -2.5 -1c-.8 -.6 -1 -1.4 -1 -2.3c0 -1 .3 -1.8 1 -2.4c.7 -.8 1.5 -1 2.5 -1c.1 0 .2 0 .3 0c.5 0 .9 .2 1.2 .3c.4 .1 .8 .5 1.2 .8l-.9 1c-.4 -.3 -.6 -.4 -.8 -.5c-.3 -.2 -.5 -.2 -.8 -.2q-.1 0 -.2 0c-.6 0 -1 .2 -1.4 .6c-.4 .2 -.5 .8 -.5 1.4c-.1 .5 .2 1 .5 1.3c.4 .4 .9 .6 1.4 .6c.3 -.1 .7 -.1 1 -.2c.2 -.1 .5 -.3 .8 -.5l1 .9c-.5 .4 -.8 .7 -1.2 .9c-.5 .2 -1 .3 -1.6 .3Zm-62.7 -7.3c-.5 -.2 -.8 -.2 -1 -.4c-.4 -.4 -.5 -.6 -.6 -1.1l.9 -.2c.1 .5 .4 .7 .7 .7c.3 0 .7 -.2 .8 -.7l.9 .2c-.2 .4 -.3 .8 -.6 1.1c-.3 .1 -.6 .4 -1.1 .4Z"/></clipPath>
<clipPath id="cj_23"><path d="M1044.8 490.5c-.5 0 -.9 -.4 -.9 -.8V427.5c0 -3 .6 -5.9 1.8 -8.6c1.1 -2.7 2.7 -5 4.7 -7.1c2.1 -2 4.4 -3.6 7.1 -4.7c2.7 -1.2 5.6 -1.8 8.6 -1.8h77.1c3 0 5.9 .6 8.7 1.8c2.6 1.1 5 2.7 7 4.7c2 2.1 3.6 4.4 4.7 7.1c1.2 2.7 1.8 5.6 1.8 8.6v62.2c0 .4 -.4 .8 -.9 .8Z"/></clipPath>
<clipPath id="ck_23"><path d="M1044.8 489.7V427.5c0 -11.8 9.5 -21.3 21.3 -21.3h77.1c11.8 0 21.3 9.5 21.3 21.3v62.2Z"/></clipPath>
<clipPath id="cl_23"><path d="M1045.6 488.8c0 -1.6 0 -61.3 0 -61.3c0 -2.8 .6 -5.5 1.6 -8c1 -2.4 2.5 -4.6 4.4 -6.5c1.9 -1.9 4.1 -3.4 6.5 -4.4c2.5 -1 5.2 -1.6 8 -1.6h77.1c2.8 0 5.5 .6 8 1.6c2.4 1 4.6 2.5 6.5 4.4c1.9 1.9 3.4 4.1 4.4 6.5c1.1 2.5 1.6 5.2 1.6 8c0 0 0 59.7 0 61.3Z"/></clipPath>
<clipPath id="cm_23"><path d="M811.4 492.5c-.6 0 -1.1 -.2 -1.6 -.4c-1.1 -.6 -1.8 -1.7 -1.8 -3l.2 -19.8V389.8c0 -5 1 -9.8 2.9 -14.3c.9 -2.2 2 -4.2 3.4 -6.2c1.3 -1.9 2.8 -3.8 4.4 -5.4c1.7 -1.7 3.5 -3.2 5.4 -4.5c2 -1.3 4.1 -2.4 6.3 -3.4c4.5 -1.9 9.3 -2.8 14.2 -2.8h76.1c5 0 9.8 .9 14.3 2.8c2.2 1 4.2 2.1 6.2 3.4c1.9 1.3 3.8 2.8 5.4 4.5c1.7 1.6 3.2 3.5 4.5 5.4c1.3 2 2.4 4 3.4 6.2c1.9 4.5 2.8 9.3 2.8 14.3v66.6c0 3.2 -.6 6.4 -1.9 9.4c-1.2 2.9 -2.9 5.5 -5.2 7.7c-2.2 2.3 -4.8 4 -7.7 5.2c-3 1.3 -6.2 1.9 -9.4 1.9H829c-1.6 1.1 -15.7 11.2 -15.7 11.2c-.6 .4 -1.3 .7 -1.9 .7Z"/></clipPath>
<clipPath id="cn_23"><path d="M811.4 489.1l.1 -19.8V389.8c0 -18.4 14.9 -33.3 33.3 -33.3h76.1c18.4 0 33.3 14.9 33.3 33.3v66.6c0 11.5 -9.4 20.9 -20.9 20.9H827.9l-16.5 11.8Z"/></clipPath>
<clipPath id="co_23"><path d="M934.8 467.5c.9 0 1.3 -.3 1.3 -.9c0 -.7 -.4 -.9 -1.4 -.9h-2.1v1.8Zm-94 -2l-1.1 -2.6l-1.1 2.6Zm63.8 0l-1.2 -2.6l-1.1 2.6Zm19.8 1.9c.7 -.1 1.4 -.2 1.8 -.7c.5 -.5 .8 -1 .8 -1.7c-.1 -.8 -.3 -1.3 -.8 -1.8c-.6 -.5 -1.1 -.7 -1.8 -.7h-.1c-.7 0 -1.3 .3 -1.7 .7c-.5 .5 -.7 1.1 -.7 1.8c-.1 .6 .2 1.2 .7 1.7c.5 .4 1.1 .7 1.8 .7Zm-75.3 -2.6c.3 0 .8 -.1 1 -.3c.3 -.2 .4 -.5 .4 -.9c0 -.4 -.1 -.6 -.4 -.8c-.2 -.3 -.6 -.3 -1 -.3c0 0 -.1 0 -.1 0h-1.4v2.3Zm46.4 0c.4 0 .8 -.1 1.1 -.3c.2 -.2 .4 -.5 .4 -.9c-.1 -.4 -.2 -.6 -.4 -.8c-.3 -.3 -.6 -.3 -1.1 -.3h-1.4v2.3Zm38.8 -.7c.8 0 1.3 -.3 1.3 -.8c-.1 -.3 -.1 -.5 -.3 -.6c-.3 -.2 -.5 -.3 -.9 -.3h-1.8v1.7Zm-107.7 5v-8.3h7v8.3h-1.9v-6.6h-3.3v6.6Zm8.6 0l3.7 -8.3h1.7l3.6 8.3h-1.9l-.8 -2h-3.6l-.8 2Zm10.5 0v-8.3h3.5c.9 0 1.8 .3 2.3 .8c.6 .5 .9 1.2 .9 2c0 .9 -.3 1.6 -1 2.1c-.6 .4 -1.4 .8 -2.4 .8h-1.4v2.6Zm8.4 0v-8.3h1.8v3.6l3.5 -3.6h2.2l-3.4 3.5l3.6 4.8h-2.3l-2.6 -3.5l-1 1v2.5Zm28.4 0l2.9 -4.2l-2.8 -4.1h2.2l1.7 2.7l1.8 -2.7h2.2l-2.9 4.1l3 4.2h-2.2l-1.9 -2.8l-1.9 2.8Zm9.7 0v-8.3h3.4c1 0 1.8 .3 2.4 .8c.5 .5 .9 1.2 .9 2c0 .9 -.4 1.6 -1 2.1c-.7 .4 -1.5 .8 -2.4 .8h-1.4v2.6Zm6.8 0l3.6 -8.3h1.7l3.7 8.3h-2l-.8 -2h-3.5l-.8 2Zm10.5 0v-8.3h2l2.2 3.5l2.3 -3.5h2v8.3h-1.8v-5.4l-2.5 3.5l-2.4 -3.5v5.4Zm14.9 0c-1.3 0 -2.4 -.4 -3.2 -1.2c-.9 -.8 -1.3 -1.8 -1.3 -2.9c0 -1.2 .4 -2.2 1.3 -3c.8 -.9 1.9 -1.2 3.2 -1.2c1.3 0 2.4 .4 3.2 1.2c.9 .7 1.3 1.8 1.3 3c0 1.1 -.4 2.1 -1.3 2.9c-.9 .8 -1.9 1.2 -3.2 1.2Zm6.4 0v-8.3h3.9c.9 0 1.7 .3 2.2 .7c.3 .4 .5 .9 .5 1.5c0 .7 -.3 1.3 -1 1.8c.4 .1 .9 .4 1.2 .7c.2 .3 .4 .8 .4 1.3c-.1 .8 -.3 1.4 -.9 1.7c-.5 .4 -1.3 .6 -2.3 .6Zm-63 0v-6.6l-1.4 .3l-.4 -1.5l2.4 -.7h1.3v8.5Zm3.6 0v-1.5l2.8 -2.3c.5 -.5 .9 -.8 1.2 -1.1c.1 -.3 .3 -.6 .3 -.9c-.1 -.4 -.1 -.6 -.3 -.8c-.3 -.2 -.5 -.3 -.9 -.3h-.1c-.3 0 -.5 .1 -.7 .3c-.4 0 -.6 .4 -.9 .8l-1.3 -1c.4 -.7 .9 -1.1 1.4 -1.3c.4 -.4 1 -.5 1.7 -.5q.1 0 .1 0c.8 0 1.6 .3 2.1 .8c.4 .4 .8 1.1 .8 1.9c-.1 .4 -.1 .8 -.3 1.2c-.2 .3 -.4 .7 -.7 1c-.3 .2 -.7 .6 -1.3 1l-1.3 1.1h3.7v1.6Z"/></clipPath>
<clipPath id="cp_23"><path d="M823.7 453.2c-.4 0 -.8 -.4 -.8 -.8V390.2c0 -3 .6 -5.9 1.7 -8.7c1.1 -2.6 2.7 -5 4.8 -7c2 -2 4.4 -3.6 7 -4.7c2.7 -1.2 5.6 -1.8 8.6 -1.8h77.2c3 0 5.9 .6 8.6 1.8c2.6 1.1 5 2.7 7 4.7c2.1 2 3.7 4.4 4.8 7c1.1 2.8 1.7 5.7 1.7 8.7v62.2c0 .4 -.4 .8 -.8 .8Z"/></clipPath>
<clipPath id="cq_23"><path d="M823.7 452.4V390.2c0 -11.8 9.6 -21.3 21.3 -21.3h77.2c11.8 0 21.3 9.5 21.3 21.3v62.2Z"/></clipPath>
<clipPath id="cr_23"><path d="M824.6 451.5c0 -1.6 0 -61.3 0 -61.3c0 -2.8 .5 -5.5 1.6 -8c1 -2.4 2.5 -4.6 4.3 -6.5c1.9 -1.9 4.1 -3.4 6.5 -4.4c2.6 -1.1 5.3 -1.6 8 -1.6h77.2c2.8 0 5.4 .5 8 1.6c2.4 1 4.6 2.5 6.5 4.4c1.8 1.9 3.3 4.1 4.3 6.5c1.1 2.5 1.6 5.2 1.6 8c0 0 0 59.7 0 61.3Z"/></clipPath>
<clipPath id="cs_23"><path d="M864.1 707.9c-3.4 0 -6.6 -.7 -9.6 -1.9c-3 -1.3 -5.6 -3.1 -7.8 -5.3c-2.3 -2.3 -4.1 -4.9 -5.3 -7.8c-1.3 -3.1 -2 -6.3 -2 -9.6V617c0 -4.9 1 -9.7 2.9 -14.2c.9 -2.2 2.1 -4.3 3.4 -6.2c1.3 -2 2.8 -3.8 4.5 -5.5c1.6 -1.6 3.4 -3.1 5.4 -4.4c1.9 -1.3 4 -2.5 6.2 -3.4c4.5 -1.9 9.3 -2.9 14.2 -2.9h99.4c1.4 -1 8.2 -5.9 8.2 -5.9c.6 -.4 1.3 -.7 2 -.7c.5 0 1 .2 1.5 .4c1.1 .6 1.8 1.7 1.8 3l-.1 13.2v92.9c0 3.3 -.7 6.5 -2 9.6c-1.2 2.9 -3 5.5 -5.2 7.8c-2.3 2.2 -4.9 4 -7.9 5.3c-3 1.2 -6.2 1.9 -9.5 1.9Z"/></clipPath>
<clipPath id="ct_23"><path d="M864.1 704.6c-11.8 0 -21.3 -9.6 -21.3 -21.3V617c0 -18.4 14.9 -33.2 33.2 -33.2H976.5l9.1 -6.6l-.2 13.3v92.8c0 11.7 -9.5 21.3 -21.2 21.3Z"/></clipPath>
<clipPath id="cu_23"><path d="M931 693.4c.8 0 1.4 -.3 1.4 -1c-.2 -.7 -.5 -1.1 -1.4 -1.1h-1.6v2.1Zm30.5 0c.8 0 1.3 -.3 1.3 -1c-.1 -.7 -.4 -1.1 -1.3 -1.1h-1.6v2.1Zm-65.6 -2.3c.4 0 .7 -.1 1 -.3c.1 -.2 .3 -.5 .3 -.8c0 -.4 -.1 -.6 -.3 -.8c-.4 -.3 -.6 -.3 -1 -.3h-1.3v2.2Zm11 0c.4 0 .7 -.1 .9 -.3c.2 -.2 .4 -.5 .4 -.8c0 -.4 -.1 -.6 -.4 -.8c-.3 -.3 -.5 -.3 -1 -.3h-1.2v2.2Zm46.7 0c.4 0 .7 -.1 .9 -.3c.2 -.2 .4 -.5 .4 -.8c0 -.4 -.1 -.6 -.4 -.8c-.3 -.3 -.5 -.3 -1 -.3h-1.2v2.2Zm-87.4 5.5V695h-5.8v-7.7h1.7v6.1H865v-6.1h1.7v6.1h1v3.2Zm3 -1.6v-7.7H875v1.5h-4.1v1.5h3.6v1.5h-3.6v1.7H875V695Zm7.6 0v-7.7h1.8v3h3.2v-3h1.7V695h-1.7v-3.1h-3.2V695Zm10.4 0v-6.1h-2.4v-1.6h6.5v1.6h-2.4V695Zm5.7 0v-7.7H896c.9 0 1.6 .3 2.2 .8c.4 .4 .8 1.1 .8 1.9c-.1 .7 -.3 1.5 -.9 2c-.7 .3 -1.3 .7 -2.2 .7h-1.3V695Zm11 0v-7.7H907c.8 0 1.6 .3 2.1 .8c.5 .4 .8 1.1 .8 1.9c0 .7 -.3 1.5 -.9 2c-.6 .3 -1.3 .7 -2.2 .7h-1.2V695Zm8.8 0c-.6 0 -1.2 -.2 -1.7 -.5l.7 -1.2c.2 .1 .6 .2 .9 .2c.3 0 .7 -.2 1 -.6l-3.1 -5.6h1.9l2.1 4.1l1.8 -4.1h1.9l-3 5.9c-.4 .5 -.7 1.1 -1.1 1.4c-.5 .2 -.9 .4 -1.4 .4Zm5.5 0l.2 -1.5c0 0 .2 0 .2 0c.2 -.1 .5 -.1 .6 -.2c.1 -.1 .3 -.3 .5 -.6c0 -.3 .2 -.8 .3 -1.4c0 -.7 .1 -1.4 .1 -2.4v-1.6h5.6V695H924v-6.1h-2.3v.5c-.1 1.5 -.1 2.6 -.3 3.5c-.3 .7 -.5 1.3 -.8 1.6c-.4 .3 -.8 .5 -1.5 .5Zm9.5 0v-7.7h1.7v2.6h1.7c.1 0 .2 0 .3 0c.7 0 1.4 .2 1.9 .6c.4 .4 .7 1.1 .7 1.9c0 .8 -.2 1.4 -.8 1.9c-.6 .3 -1.2 .7 -2.2 .7Zm8.7 0v-6.1h-2.3v-1.6h6.4v1.6h-2.3V695Zm7.2 0c-.6 0 -1.1 -.2 -1.7 -.5l.7 -1.2c.3 .1 .6 .2 .9 .2c.3 0 .7 -.2 1 -.6l-3.1 -5.6h1.9l2.1 4.1l1.9 -4.1h1.8l-3 5.9c-.4 .5 -.7 1.1 -1.1 1.4c-.4 .2 -.8 .4 -1.4 .4Zm6.9 0v-7.7h3.2c.8 0 1.6 .3 2.1 .8c.4 .4 .8 1.1 .8 1.9c0 .7 -.3 1.5 -.9 2c-.6 .3 -1.3 .7 -2.2 .7h-1.2V695Zm7.7 0v-7.7h1.7v2.6h1.7q.1 0 .2 0c.8 0 1.5 .2 1.9 .6c.5 .4 .8 1.1 .8 1.9c0 .8 -.3 1.4 -.8 1.9c-.6 .3 -1.3 .7 -2.2 .7Zm7 0v-7.7h1.7V695Z"/></clipPath>
<clipPath id="cv_23"><path d="M853.5 680.5c-.5 0 -.8 -.4 -.8 -.9V617.4c0 -3 .6 -5.9 1.7 -8.6c1.1 -2.6 2.7 -5 4.7 -7c2.1 -2.1 4.4 -3.6 7.1 -4.8c2.7 -1.1 5.6 -1.7 8.6 -1.7H952c3 0 5.8 .6 8.6 1.7c2.6 1.2 5 2.7 7 4.8c2 2 3.6 4.4 4.7 7c1.2 2.7 1.8 5.6 1.8 8.6v62.2c0 .5 -.4 .9 -.8 .9Z"/></clipPath>
<clipPath id="cw_23"><path d="M853.5 679.6V617.4c0 -11.7 9.5 -21.3 21.3 -21.3H952c11.7 0 21.3 9.6 21.3 21.3v62.2Z"/></clipPath>
<clipPath id="cx_23"><path d="M854.3 678.8c0 -1.6 0 -61.4 0 -61.4c0 -2.7 .6 -5.4 1.6 -7.9c1.1 -2.5 2.5 -4.7 4.4 -6.5c1.9 -1.9 4.1 -3.4 6.5 -4.4c2.5 -1.1 5.2 -1.6 8 -1.6H952c2.7 0 5.4 .5 7.9 1.6c2.5 1 4.7 2.5 6.5 4.4c1.9 1.8 3.4 4 4.4 6.5c1.1 2.5 1.6 5.2 1.6 7.9c0 0 0 59.8 0 61.4Z"/></clipPath>
<clipPath id="cy_23"><path d="M1125.5 707.9c-3.3 0 -6.5 -.7 -9.6 -1.9c-2.9 -1.3 -5.5 -3.1 -7.8 -5.3c-2.2 -2.3 -4 -4.9 -5.3 -7.8c-1.2 -3.1 -1.9 -6.3 -1.9 -9.6V617c0 -4.9 1 -9.7 2.9 -14.2c.9 -2.2 2 -4.3 3.4 -6.2c1.3 -2 2.8 -3.8 4.4 -5.5c1.7 -1.6 3.5 -3.1 5.4 -4.4c2 -1.3 4.1 -2.5 6.3 -3.4c4.5 -1.9 9.3 -2.9 14.2 -2.9h99.4c1.4 -1 8.2 -5.9 8.2 -5.9c.6 -.4 1.2 -.7 1.9 -.7c.6 0 1.1 .2 1.6 .4c1.1 .6 1.8 1.7 1.8 3l-.2 13.2v92.9c0 3.3 -.6 6.5 -1.9 9.6c-1.2 2.9 -3 5.5 -5.3 7.8c-2.2 2.2 -4.9 4 -7.8 5.3c-3 1.2 -6.3 1.9 -9.6 1.9Z"/></clipPath>
<clipPath id="cz_23"><path d="M1125.5 704.6c-11.7 0 -21.3 -9.6 -21.3 -21.3V617c0 -18.4 14.9 -33.2 33.3 -33.2h100.4l9.1 -6.6l-.1 13.3v92.8c0 11.7 -9.5 21.3 -21.3 21.3Z"/></clipPath>
<clipPath id="c10_23"><path d="M1148.4 692.4v-1.7h3.4v1.7Zm-5.2 1c.6 0 1.2 -.2 1.7 -.6c.3 -.5 .6 -1 .6 -1.6c0 -.7 -.2 -1.2 -.6 -1.6c-.6 -.6 -1.1 -.7 -1.8 -.7c0 0 -.1 0 -.2 0c-.6 0 -1.1 .3 -1.5 .7c-.4 .3 -.6 .9 -.6 1.6c-.1 .5 .2 1.1 .7 1.6c.4 .4 1 .6 1.7 .6Zm22.7 0c.6 0 1.3 -.2 1.7 -.6c.4 -.5 .7 -1 .7 -1.6c-.1 -.7 -.3 -1.2 -.7 -1.6c-.5 -.6 -1 -.7 -1.7 -.7c-.1 0 -.2 0 -.3 0c-.6 0 -1 .3 -1.4 .7c-.5 .3 -.7 .9 -.7 1.6c0 .5 .2 1.1 .7 1.6c.4 .4 1 .6 1.7 .6Zm-40 1.6c-.7 0 -1.3 -.1 -1.8 -.3c-.6 -.3 -1 -.6 -1.4 -1l1 -1.2c.3 .3 .7 .6 1 .7c.3 .1 .7 .3 1.2 .3c.4 -.1 1 -.2 1.4 -.5c.4 -.5 .6 -.8 .8 -1.3h-3.2v-1.5h3.2c-.2 -.5 -.5 -.7 -.9 -1c-.4 -.3 -.8 -.3 -1.3 -.3c-.1 0 -.2 -.1 -.3 -.1c-.7 0 -1.2 .3 -1.8 .7l-.9 -1c.8 -.8 1.8 -1.2 3 -1.2c1 0 2.1 .4 2.8 1.1c.7 .7 1.2 1.7 1.2 2.8c0 1 -.4 1.9 -1.1 2.7c-.9 .6 -1.7 1.1 -2.9 1.1Zm5.7 0v-7.7h1.7v3.4l3.1 -3.4h2.1l-3.2 3.3l3.3 4.4h-2l-2.4 -3.3l-.9 .9V695Zm11.5 0c-1.2 0 -2.1 -.4 -2.9 -1.1c-.9 -.8 -1.2 -1.7 -1.2 -2.7c0 -1.2 .4 -2 1.2 -2.8c.7 -.7 1.8 -1.1 3 -1.1c1.1 0 2.2 .4 2.9 1.1c.8 .7 1.2 1.7 1.2 2.8c0 1 -.4 1.9 -1.2 2.7c-.8 .6 -1.8 1.1 -3 1.1Zm10.4 0v-7.7h6.4V695h-1.7v-6.1h-3V695Zm12.4 0c-1.3 0 -2.2 -.4 -3 -1.1c-.8 -.8 -1.2 -1.7 -1.2 -2.7c0 -1.2 .4 -2 1.2 -2.8c.8 -.7 1.8 -1.1 3 -1.1c1.1 0 2.2 .4 3 1.1c.7 .7 1.1 1.7 1.1 2.8c0 1 -.4 1.9 -1.2 2.7c-.8 .6 -1.7 1.1 -2.9 1.1Zm9.4 0c-1.2 0 -2 -.4 -2.8 -1.1c-.8 -.8 -1.1 -1.7 -1.1 -2.7c0 -1.2 .4 -2 1.1 -2.8c.7 -.7 1.7 -1.1 2.9 -1.1c.7 0 1.3 .1 1.7 .4c.4 .1 .9 .5 1.3 .9l-1 1.1c-.4 -.3 -.7 -.5 -.9 -.6c-.4 -.2 -.7 -.2 -1.1 -.2q-.1 0 -.2 0c-.6 0 -1 .3 -1.4 .7c-.5 .3 -.6 .9 -.6 1.6c-.1 .5 .2 1.1 .6 1.6c.4 .4 1 .6 1.6 .6c.4 0 .8 -.1 1.1 -.2c.2 -.2 .6 -.3 .9 -.6l1.1 1.1c-.5 .4 -.9 .7 -1.3 1c-.6 .2 -1.1 .3 -1.9 .3Zm4.8 0v-7.7h5.8v1.5h-4.1v1.5h3.6v1.5h-3.6v1.7h4.1V695Zm6.8 0l.2 -1.5c0 0 .2 0 .2 0c.2 -.1 .5 -.1 .6 -.2c.1 -.1 .3 -.3 .5 -.6c0 -.3 .2 -.8 .3 -1.4c-.1 -.7 .1 -1.4 .1 -2.4v-1.6h5.6V695h-1.7v-6.1h-2.4v.5c0 1.5 0 2.6 -.2 3.5c-.3 .7 -.5 1.3 -.8 1.6c-.4 .3 -.8 .5 -1.5 .5Zm9.5 0v-7.7h5.8v1.5h-4.1v1.5h3.6v1.5h-3.6v1.7h4.1V695Zm7.7 0v-7.7h1.7v3h3.2v-3h1.7V695H1209v-3.1h-3.2V695Zm8.6 0v-7.7h1.7v5l3.4 -5h1.6V695h-1.7v-5l-3.4 5Zm8.8 0v-7.7h5.8v1.5h-4.1v1.5h3.6v1.5h-3.6v1.7h4.1V695Z"/></clipPath>
<clipPath id="c11_23"><path d="M1115 680.5c-.5 0 -.9 -.4 -.9 -.9V617.4c0 -3 .6 -5.9 1.8 -8.6c1.1 -2.6 2.7 -5 4.7 -7c2 -2.1 4.4 -3.6 7 -4.8c2.8 -1.1 5.7 -1.7 8.7 -1.7h77.1c3 0 5.9 .6 8.6 1.7c2.7 1.2 5 2.7 7.1 4.8c2 2 3.6 4.4 4.7 7c1.2 2.7 1.8 5.6 1.8 8.6v62.2c0 .5 -.4 .9 -.9 .9Z"/></clipPath>
<clipPath id="c12_23"><path d="M1115 679.6V617.4c0 -11.7 9.5 -21.3 21.3 -21.3h77.1c11.8 0 21.3 9.6 21.3 21.3v62.2Z"/></clipPath>
<clipPath id="c13_23"><path d="M1115.8 678.8c0 -1.6 0 -61.4 0 -61.4c0 -2.7 .5 -5.4 1.6 -7.9c1 -2.5 2.5 -4.7 4.4 -6.5c1.9 -1.9 4.1 -3.4 6.5 -4.4c2.5 -1.1 5.2 -1.6 8 -1.6h77.1c2.8 0 5.5 .5 8 1.6c2.4 1 4.6 2.5 6.5 4.4c1.9 1.8 3.4 4 4.4 6.5c1.1 2.5 1.6 5.2 1.6 7.9c0 0 0 59.8 0 61.4Z"/></clipPath>
<clipPath id="c14_23"><path d="M286.5 671.7v-3.2h6.8v3.2ZM276 674.2c1.2 -.1 2.4 -.5 3.3 -1.4c.9 -1 1.3 -2.1 1.3 -3.5c-.1 -1.3 -.4 -2.5 -1.3 -3.4c-1 -1 -2 -1.4 -3.4 -1.4q-.1 0 -.2 0c-1.3 0 -2.3 .5 -3.2 1.4c-.9 .9 -1.3 2.1 -1.3 3.4c-.1 1.4 .5 2.5 1.4 3.5c.8 .9 2 1.4 3.4 1.4Zm45.4 0c1.3 -.1 2.5 -.5 3.4 -1.4c.8 -1 1.3 -2.1 1.3 -3.5c-.1 -1.3 -.5 -2.5 -1.4 -3.4c-.9 -1 -2 -1.4 -3.3 -1.4c-.1 0 -.2 0 -.2 0c-1.4 0 -2.4 .5 -3.2 1.4c-1 .9 -1.3 2.1 -1.3 3.4c-.1 1.4 .4 2.5 1.3 3.5c.8 .9 2 1.4 3.4 1.4Zm-24.7 3V661.6h12.9v15.6h-3.4V664.7h-6.1v12.5Zm68.6 .1c-.7 0 -1.3 0 -1.8 -.2l.3 -2.8h.1c.1 0 .3 .1 .4 .1c.5 -.1 .9 -.2 1.2 -.4c.3 -.2 .6 -.6 .9 -1.3c.2 -.6 .5 -1.6 .6 -2.9c.1 -1.3 .2 -2.9 .2 -5v-3.2h11v15.5h-3.4V664.7h-4.4v1.2c-.1 2.9 -.2 5.3 -.6 7c-.4 1.6 -.9 2.8 -1.6 3.5c-.7 .6 -1.6 .9 -2.9 .9ZM252.8 677V661.5h3.4v6.8l6.3 -6.8h4.1l-6.3 6.6l6.6 8.9h-4.1L258 670.4l-1.8 1.8V677Zm145 0V661.5h3.4v6.2h6.2v-6.2h3.5V677h-3.5v-6.2h-6.2V677Zm17.3 0V661.5h3.4v10.2l6.8 -10.2h3.1V677h-3.3V666.8L418.3 677Zm-139.2 .3c-2.5 0 -4.3 -.7 -5.9 -2.3c-1.6 -1.5 -2.3 -3.4 -2.3 -5.7c0 -2.2 .8 -4.1 2.3 -5.6c1.6 -1.6 3.6 -2.3 6 -2.3c2.2 0 4.3 .7 5.9 2.3c1.4 1.4 2.3 3.4 2.3 5.6c-.1 2.3 -.8 4.1 -2.4 5.7c-1.6 1.5 -3.5 2.3 -5.9 2.3Zm45.5 0c-2.5 0 -4.4 -.7 -5.9 -2.3c-1.6 -1.5 -2.4 -3.4 -2.4 -5.7c0 -2.2 .8 -4.1 2.4 -5.6c1.5 -1.6 3.5 -2.3 5.9 -2.3c2.3 0 4.3 .7 5.9 2.3c1.5 1.4 2.4 3.4 2.4 5.6c-.1 2.3 -.8 4.1 -2.4 5.7c-1.7 1.5 -3.6 2.3 -5.9 2.3Zm19 0c-2.4 0 -4.2 -.7 -5.7 -2.3c-1.6 -1.5 -2.3 -3.4 -2.3 -5.7c0 -2.2 .8 -4.1 2.3 -5.6c1.4 -1.7 3.4 -2.3 5.8 -2.3c1.3 0 2.5 .2 3.4 .6c.8 .3 1.8 1.1 2.6 1.9l-2 2.3c-.7 -.7 -1.3 -1 -1.9 -1.3c-.7 -.3 -1.3 -.4 -2.1 -.4q-.1 0 -.2 0c-1.2 0 -2.2 .5 -3.1 1.4c-.9 .9 -1.2 2.1 -1.2 3.4c-.1 1.4 .4 2.5 1.2 3.5c.8 .9 2 1.4 3.3 1.4c.8 -.1 1.5 -.2 2.1 -.5c.5 -.3 1.3 -.7 1.9 -1.3l2.2 2.3c-.8 .9 -1.7 1.6 -2.7 2c-1.1 .4 -2.2 .6 -3.6 .6Zm9.5 -.3V661.4h11.6v3h-8.2v3.3h7.2v3h-7.2V674h8.4v3Zm32.6 0V661.4h11.6v3h-8.2v3.3h7.2v3h-7.2V674h8.4v3Zm50.1 0V661.4h11.7v3H436v3.3h7.3v3H436V674h8.4v3Zm-191.4 .3c-1.5 0 -2.7 -.2 -3.7 -.6c-1.1 -.5 -2 -1.1 -2.8 -2l2.1 -2.3c.7 .6 1.3 1.1 2 1.4c.6 .3 1.4 .5 2.3 .5c1 -.1 2 -.4 2.8 -1c.7 -.8 1.3 -1.6 1.6 -2.6h-6.4v-2.9h6.3c-.2 -1.1 -.8 -1.8 -1.6 -2.5c-.8 -.7 -1.7 -1 -2.7 -1c-1.6 0 -2.9 .6 -4.1 1.7l-1.9 -2.4c1.7 -1.6 3.7 -2.3 5.9 -2.3c.1 0 .2 0 .3 0c2.2 0 4.1 .8 5.5 2.3c1.5 1.5 2.3 3.5 2.3 5.7c0 2.2 -.7 4.2 -2.3 5.7c-1.5 1.5 -3.4 2.3 -5.6 2.3Zm45.3 -44.4v-3.2h6.8v3.2Zm90.3 -1.1l-2.1 -5l-2 5Zm-70.1 2.3c1.3 0 2.3 -.3 3.1 -1c.7 -.8 1.2 -1.6 1.2 -2.8c-.1 -1.1 -.4 -2 -1.2 -2.7c-.8 -.7 -1.8 -1 -3.1 -1v7.5Zm-3.4 0v-7.5h-.1c-1.2 0 -2.1 .3 -2.9 1c-.9 .7 -1.1 1.6 -1.1 2.7c-.1 1.2 .3 2.1 1.1 2.8c.7 .6 1.8 1 3 1ZM276 635.4c1.2 -.1 2.4 -.5 3.3 -1.4c.9 -1 1.3 -2.1 1.3 -3.5c-.1 -1.3 -.4 -2.5 -1.3 -3.4c-1 -1 -2 -1.4 -3.4 -1.4q-.1 0 -.2 0c-1.3 0 -2.3 .5 -3.2 1.4c-.9 .8 -1.3 2.1 -1.3 3.4c-.1 1.4 .5 2.5 1.4 3.5c.8 .9 2 1.4 3.4 1.4Zm63.2 -4.9c.8 -.1 1.5 -.2 2 -.7c.4 -.5 .7 -1 .7 -1.8c0 -.8 -.2 -1.3 -.7 -1.7c-.5 -.5 -1.2 -.7 -2.1 -.7h-2.6v4.9Zm27.4 7.8l6.6 -15.6h3.1l6.7 15.6h-3.6L378 634.9h-6.6l-1.4 3.4Zm-113.8 -.1V622.7h3.4v6.7l6.3 -6.7h4.1l-6.3 6.6l6.6 8.9h-4.1L258 631.6l-1.8 1.8v4.8Zm95.5 0V622.7H352l4.1 6.5l4.2 -6.5H364v15.5h-3.4V628.1l-4.5 6.6l-4.4 -6.6v10.1Zm-72.4 .3c-2.5 0 -4.3 -.8 -5.9 -2.3c-1.6 -1.6 -2.3 -3.4 -2.3 -5.7c0 -2.2 .8 -4.1 2.3 -5.6c1.6 -1.6 3.6 -2.4 6 -2.4c2.2 0 4.3 .8 5.9 2.4c1.4 1.4 2.3 3.4 2.3 5.6c-.1 2.3 -.8 4.1 -2.4 5.7c-1.6 1.5 -3.5 2.3 -5.9 2.3Zm41.9 -.3V622.5h11.6v3.1h-8.2v3.3h7.2v3h-7.2v3.2h8.4v3.1Zm15.3 0V622.5h6.3c1.8 0 3.3 .5 4.4 1.5c1 1 1.6 2.4 1.6 4c-.1 1.7 -.6 3.1 -1.8 4.1c-1.3 .9 -2.7 1.4 -4.5 1.4h-2.6v4.7Zm-91.9 .3c-1.5 0 -2.7 -.2 -3.7 -.6c-1.1 -.5 -2 -1.1 -2.8 -2l2.1 -2.3c.7 .6 1.3 1.1 2 1.4c.6 .3 1.4 .5 2.3 .5c1 -.1 2 -.4 2.8 -1c.7 -.8 1.3 -1.6 1.6 -2.6h-6.4V629h6.3c-.2 -1.1 -.8 -1.8 -1.6 -2.5c-.8 -.7 -1.7 -1 -2.7 -1c-1.6 0 -2.9 .6 -4.1 1.7l-1.9 -2.4c1.7 -1.6 3.7 -2.3 5.9 -2.3c.1 0 .2 0 .4 0c2.1 0 4 .8 5.4 2.3c1.5 1.5 2.3 3.5 2.3 5.7c0 2.2 -.7 4.2 -2.3 5.7c-1.5 1.5 -3.4 2.3 -5.6 2.3Zm62.1 .3v-1.6c-2.3 0 -4.2 -.7 -5.6 -2c-1.4 -1.3 -2 -2.9 -2 -4.9c0 -2 .7 -3.6 2 -4.9c1.4 -1.3 3.3 -1.9 5.6 -1.9v-1.4h3.4v1.4c2.4 0 4.3 .7 5.7 1.9c1.4 1.2 2.1 2.9 2.1 4.9c-.1 2 -.7 3.6 -2.1 4.9c-1.4 1.3 -3.3 2 -5.7 2v1.6Zm213 -42.4c1.6 0 2.5 -.6 2.5 -1.8c-.1 -1.2 -.9 -1.7 -2.6 -1.7h-4v3.5Zm158.9 0c1.6 0 2.5 -.6 2.5 -1.8c-.1 -1.2 -.9 -1.7 -2.6 -1.7h-4v3.5Zm-306 -.1c1.6 -.1 2.5 -.7 2.5 -2.2c0 -1.4 -.9 -2 -2.6 -2h-3v4.2Zm-82.7 -2.2v-3.2h6.8v3.2Zm107.6 2.3v-9.3h-4.6v1.5c0 2.9 -.5 5.5 -1.4 7.8ZM276 596.6c1.2 -.1 2.4 -.5 3.3 -1.4c.9 -1 1.3 -2.1 1.3 -3.5c-.1 -1.3 -.4 -2.5 -1.3 -3.4c-1 -1 -2 -1.4 -3.4 -1.4q-.1 0 -.2 0c-1.3 0 -2.3 .5 -3.2 1.4c-.9 .8 -1.3 2.1 -1.3 3.4c-.1 1.4 .5 2.5 1.4 3.5c.8 .9 2 1.4 3.4 1.4Zm28.3 0c1.3 -.1 2.5 -.5 3.4 -1.4c.8 -1 1.3 -2.1 1.3 -3.5c-.1 -1.3 -.5 -2.5 -1.4 -3.4c-1 -1 -2 -1.4 -3.4 -1.4c0 0 -.1 0 -.1 0c-1.4 0 -2.4 .5 -3.2 1.4c-1 .8 -1.3 2.1 -1.3 3.4c-.1 1.4 .4 2.5 1.3 3.5c.8 .9 2 1.4 3.4 1.4Zm192.9 0c1.3 -.1 2.5 -.5 3.4 -1.4c.8 -1 1.3 -2.1 1.3 -3.5c-.1 -1.3 -.5 -2.5 -1.4 -3.4c-1 -1 -2 -1.4 -3.4 -1.4c0 0 -.1 0 -.1 0c-1.4 0 -2.4 .5 -3.2 1.4c-1 .8 -1.3 2.1 -1.3 3.4c-.1 1.4 .4 2.5 1.3 3.5c.8 .9 2 1.4 3.4 1.4Zm158.9 0c1.2 -.1 2.5 -.5 3.3 -1.4c.9 -1 1.4 -2.1 1.4 -3.5c-.2 -1.3 -.5 -2.5 -1.4 -3.4c-1 -1 -2 -1.4 -3.4 -1.4c0 0 -.1 0 -.2 0c-1.3 0 -2.3 .5 -3.1 1.4c-1 .8 -1.3 2.1 -1.3 3.4c-.1 1.4 .4 2.5 1.3 3.5c.8 .9 2 1.4 3.4 1.4ZM480.4 591.7c.8 -.1 1.6 -.2 2 -.7c.5 -.5 .8 -1 .8 -1.8c-.1 -.8 -.3 -1.3 -.8 -1.8c-.5 -.4 -1.1 -.6 -2 -.6h-2.7v4.9Zm81.9 0c.8 -.1 1.5 -.2 2 -.7c.4 -.5 .7 -1 .7 -1.8c-.1 -.8 -.2 -1.3 -.7 -1.8c-.6 -.4 -1.2 -.6 -2.1 -.6h-2.6v4.9Zm45.3 0c.8 -.1 1.6 -.2 2 -.7c.5 -.5 .8 -1 .8 -1.8c-.1 -.8 -.3 -1.3 -.8 -1.8c-.5 -.4 -1.1 -.6 -2 -.6h-2.7v4.9Zm-179.1 -.3v-4.6h-3.4c0 0 -.1 0 -.1 0c-.8 0 -1.4 .2 -1.8 .6c-.6 .4 -.8 1 -.8 1.7c0 .7 .3 1.3 .7 1.7c.5 .4 1.2 .6 2 .6Zm86.8 -1.3c1.6 0 2.5 -.6 2.5 -1.8c-.1 -.6 -.2 -.9 -.6 -1.2c-.4 -.3 -.9 -.4 -1.7 -.4h-3.3v3.4Zm158.9 0c1.6 0 2.5 -.6 2.5 -1.8c-.1 -.6 -.2 -.9 -.6 -1.2c-.4 -.3 -1 -.4 -1.7 -.4h-3.3v3.4Zm-328.6 9.6c-.8 0 -1.3 -.1 -1.8 -.2l.2 -2.8h.1c.1 0 .3 0 .4 0c.5 0 .9 -.1 1.2 -.3c.4 -.2 .7 -.6 .9 -1.3c.2 -.7 .5 -1.6 .6 -2.9c.1 -1.3 .2 -3 .2 -5V584h11.1v15.5H355V587.1h-4.4v1.1c-.1 3 -.2 5.4 -.6 7.1c-.4 1.6 -.8 2.8 -1.5 3.5c-.8 .6 -1.7 .9 -2.9 .9Zm37.6 3v-6.3h1.4c.5 -1.4 1 -2.9 1.2 -4.5c.2 -1.6 .4 -3.6 .4 -6.1V584h11.3v12.4h1.9l-.4 6.3h-2.9v-3.2h-9.7v3.2Zm19.3 -3c-.8 0 -1.3 -.1 -1.8 -.2l.2 -2.8c0 0 .1 0 .1 0c.2 0 .3 0 .4 0c.5 0 1 -.1 1.3 -.3c.3 -.2 .6 -.6 .9 -1.3c.2 -.7 .4 -1.6 .6 -2.9c0 -1.3 .1 -3 .1 -5V584h11.1v15.5H412V587.1h-4.5v1.1c0 3 -.2 5.4 -.5 7.1c-.5 1.6 -.9 2.8 -1.6 3.5c-.7 .6 -1.7 .9 -2.9 .9Zm-83.9 -.3V587.1H314v-3.2h12.8v3.2H322v12.3Zm127.5 0V587.1h-4.6v-3.2h12.8v3.2h-4.8v12.3Zm143.9 0V587.1h-4.6v-3.2h12.8v3.2h-4.8v12.3Zm47.6 0V587.1H633v-3.2h12.8v3.2H641v12.3Zm-274.9 0V583.9h3.4v5.2h3.3q.1 0 .1 0c1.7 0 3.1 .5 4.1 1.4c.9 .9 1.5 2.1 1.5 3.7c0 1.5 -.5 2.8 -1.6 3.8c-1.1 .8 -2.5 1.4 -4.3 1.4Zm97.7 .3c-1.2 0 -2.3 -.3 -3.3 -.9l1.3 -2.5c.5 .2 1.2 .5 1.8 .5c.7 0 1.5 -.4 2 -1.2L456 583.9h3.8l4.2 8.2l3.8 -8.2h3.7l-6 12c-.7 1.3 -1.4 2.3 -2.2 2.9c-.8 .6 -1.8 .9 -2.9 .9Zm-207.6 -.3V583.9h3.4v6.7l6.3 -6.7h4.1l-6.3 6.5l6.6 9h-4.1L258 592.8l-1.8 1.8v4.8Zm279.2 0V583.9h3.3V594l6.8 -10.1h3.2v15.5h-3.4V589.2l-6.7 10.2Zm84.8 0V583.9h3.3V594l6.8 -10.1h3.2v15.5h-3.4V589.2L620 599.4Zm-107.9 0V583.7h7.2c1.7 0 3.1 .5 4 1.4c.6 .7 1.1 1.6 1.1 2.7c-.2 1.5 -.7 2.6 -2 3.4c1 .3 1.7 .9 2.2 1.5c.4 .5 .8 1.4 .8 2.4c-.2 1.4 -.6 2.4 -1.6 3.2c-1.1 .6 -2.5 1.1 -4.3 1.1Zm158.8 0V583.7H675c1.7 0 3.1 .5 4 1.4c.6 .7 1 1.6 1 2.7c-.1 1.5 -.6 2.6 -1.9 3.4c1 .3 1.7 .9 2.2 1.5c.4 .5 .7 1.4 .7 2.4c-.1 1.4 -.5 2.4 -1.5 3.2c-1.1 .6 -2.5 1.1 -4.3 1.1Zm-391.8 .3c-2.5 0 -4.3 -.8 -5.9 -2.3c-1.6 -1.6 -2.3 -3.4 -2.3 -5.7c0 -2.2 .8 -4.1 2.3 -5.6c1.6 -1.6 3.6 -2.4 6 -2.4c2.2 0 4.3 .8 5.9 2.4c1.4 1.4 2.3 3.4 2.3 5.6c-.1 2.2 -.8 4.1 -2.4 5.7c-1.6 1.5 -3.5 2.3 -5.9 2.3Zm28.3 0c-2.4 0 -4.3 -.8 -5.9 -2.3C296.8 595.8 296 594 296 591.7c0 -2.2 .8 -4.1 2.4 -5.6c1.5 -1.6 3.5 -2.4 5.9 -2.4c2.3 0 4.3 .8 5.9 2.4c1.5 1.4 2.3 3.4 2.3 5.6c0 2.2 -.8 4.1 -2.3 5.7c-1.7 1.5 -3.6 2.3 -6 2.3Zm25.9 -.3V583.7h11.6v3.1h-8.2v3.3h7.2v3h-7.2v3.2h8.4v3.1Zm88.4 0l3.8 -5.6c-2.3 -.9 -3.3 -2.5 -3.3 -4.9c0 -1.7 .5 -2.9 1.6 -3.8c.9 -.9 2.4 -1.4 4.3 -1.4H432v15.7h-3.5v-5h-2.6l-3.4 5Zm55.8 0V583.7h6.4c1.8 0 3.2 .5 4.3 1.5c1.1 1 1.6 2.4 1.6 4c-.1 1.7 -.6 3.1 -1.8 4.1c-1.2 .9 -2.7 1.4 -4.5 1.4h-2.6v4.7Zm22.8 .3c-2.4 0 -4.3 -.8 -5.9 -2.3c-1.5 -1.6 -2.3 -3.4 -2.3 -5.7c0 -2.2 .8 -4.1 2.4 -5.6c1.5 -1.6 3.5 -2.4 5.9 -2.4c2.3 0 4.3 .8 5.9 2.4c1.5 1.4 2.3 3.4 2.3 5.6c0 2.2 -.8 4.1 -2.3 5.7c-1.7 1.5 -3.6 2.3 -6 2.3Zm59.1 -.3V583.7h6.3c1.8 0 3.3 .5 4.4 1.5c1 1 1.6 2.4 1.6 4c-.2 1.7 -.6 3.1 -1.8 4.1c-1.3 .9 -2.7 1.4 -4.5 1.4h-2.6v4.7Zm15.2 0V583.7H583v3.1h-8.2v3.3H582v3h-7.2v3.2h8.4v3.1Zm30.1 0V583.7h6.4c1.8 0 3.3 .5 4.3 1.5c1.1 1 1.6 2.4 1.6 4c-.1 1.7 -.6 3.1 -1.8 4.1c-1.2 .9 -2.6 1.4 -4.5 1.4h-2.6v4.7Zm54.5 .3c-2.4 0 -4.3 -.8 -5.9 -2.3c-1.5 -1.6 -2.3 -3.4 -2.3 -5.7c0 -2.2 .8 -4.1 2.4 -5.6c1.5 -1.6 3.5 -2.4 5.9 -2.4c2.2 0 4.3 .8 5.9 2.4c1.5 1.4 2.3 3.4 2.3 5.6c-.1 2.2 -.8 4.1 -2.3 5.7c-1.7 1.5 -3.6 2.3 -6 2.3Zm-414.8 0c-1.5 0 -2.7 -.2 -3.7 -.6c-1.1 -.5 -2 -1.1 -2.8 -2l2.1 -2.3c.7 .6 1.3 1.1 2 1.4c.6 .2 1.4 .4 2.3 .4c1 0 2 -.3 2.8 -1c.7 -.7 1.3 -1.5 1.6 -2.5h-6.4v-2.9h6.3c-.2 -1.1 -.8 -1.9 -1.6 -2.5c-.8 -.7 -1.7 -1 -2.7 -1c-1.6 0 -2.9 .6 -4.1 1.7L235.1 586c1.7 -1.6 3.7 -2.3 5.9 -2.3c.1 0 .2 0 .4 0c2.1 0 4 .8 5.4 2.3c1.5 1.5 2.3 3.4 2.3 5.7c0 2.2 -.7 4.2 -2.3 5.7c-1.5 1.5 -3.4 2.3 -5.6 2.3Zm89.7 -42.1c1.6 0 2.4 -.6 2.4 -1.8c-.1 -1.2 -.8 -1.7 -2.5 -1.7h-4v3.5Zm15.4 -.1c1.7 -.1 2.6 -.7 2.6 -2.2c0 -1.4 -.9 -2.1 -2.6 -2.1h-3v4.3Zm-71 -3.3l-2.1 -5l-2.1 5Zm36.5 3.6c1.2 -.1 2.5 -.5 3.3 -1.4c.9 -1 1.3 -2.1 1.3 -3.5c-.1 -1.3 -.4 -2.5 -1.3 -3.4c-1 -1 -2 -1.4 -3.4 -1.4c0 0 -.1 0 -.2 0c-1.3 0 -2.3 .5 -3.1 1.4c-1 .8 -1.4 2 -1.4 3.4c0 1.4 .5 2.5 1.4 3.4c.8 .9 2 1.5 3.4 1.5Zm97.1 0c1.3 -.1 2.5 -.5 3.4 -1.4c.9 -1 1.3 -2.1 1.3 -3.5c-.1 -1.3 -.4 -2.5 -1.3 -3.4c-1 -1 -2.1 -1.4 -3.4 -1.4q-.1 0 -.2 0c-1.4 0 -2.4 .5 -3.2 1.4c-.9 .8 -1.3 2 -1.3 3.4c-.1 1.4 .4 2.5 1.3 3.4c.8 .9 2.1 1.5 3.4 1.5Zm-150 -4.9c.8 -.1 1.5 -.3 2 -.7c.4 -.6 .7 -1.1 .7 -1.8c0 -.8 -.2 -1.3 -.7 -1.8c-.5 -.4 -1.2 -.6 -2.1 -.6h-2.6v4.9Zm71 -1.7c1.6 0 2.4 -.5 2.4 -1.7c0 -.6 -.1 -.9 -.5 -1.2c-.4 -.3 -1 -.4 -1.7 -.4h-3.3v3.3Zm110.4 9.5V545.2h12.9v15.5h-3.4V548.3h-6.1v12.4Zm17.2 .2c-.7 0 -1.2 -.1 -1.8 -.2l.3 -2.8h.1c.1 0 .3 0 .4 0c.5 0 .9 -.1 1.2 -.3c.4 -.2 .6 -.6 .9 -1.3c.2 -.7 .5 -1.6 .6 -2.9c.1 -1.3 .2 -3 .2 -5v-3.2h11v15.5H467V548.3h-4.4v1.1c-.1 3 -.2 5.4 -.6 7.1c-.4 1.6 -.9 2.8 -1.6 3.4c-.7 .7 -1.6 1 -2.9 1ZM265 560.7l6.7 -15.6h3.1l6.7 15.6h-3.6l-1.4 -3.5h-6.6l-1.4 3.5Zm-30.2 -.1l5.4 -7.9L235 545.1h4l3.3 5l3.3 -5h3.8l-5.2 7.5l5.4 8h-3.9l-3.5 -5.4l-3.5 5.4Zm49.6 0V545.1h3.7l4.2 6.5l4.1 -6.5h3.7v15.5h-3.4V550.4l-4.4 6.7h-.1l-4.4 -6.6v10.1Zm55.5 0V545.1h3.4v5.2h3.3c0 0 .1 0 .1 0c1.7 0 3.1 .5 4 1.4c1 .9 1.5 2.1 1.5 3.7c0 1.5 -.5 2.8 -1.5 3.8c-1.1 .8 -2.5 1.4 -4.3 1.4Zm14.2 0V545.1h3.4v15.5Zm7.5 0V545.1H365v10.1l6.8 -10.1h3.1v15.5h-3.3V550.4l-6.8 10.2Zm24.2 0V545.1h3.4v6.7l6.3 -6.7h4.1l-6.3 6.5l6.6 9h-4.1L391 554l-1.8 1.8v4.8Zm34.8 0V545.1h3.7l4.1 6.5l4.1 -6.5h3.7v15.5h-3.4V550.4l-4.4 6.7h-.1l-4.4 -6.6v10.1Zm69.4 0V545.1h3.4v6.7l6.3 -6.7h4.1l-6.3 6.5l6.6 9H500L495.2 554l-1.8 1.8v4.8Zm-166.6 0V544.9h7.2c1.7 0 3.2 .5 4.1 1.4c.6 .7 1 1.6 1 2.7c-.1 1.5 -.6 2.6 -1.9 3.4c.9 .3 1.7 .8 2.2 1.4c.4 .6 .7 1.5 .7 2.5c-.1 1.4 -.5 2.4 -1.5 3.2c-1.1 .6 -2.5 1.1 -4.3 1.1Zm-70.6 0V544.9h6.3c1.9 0 3.3 .5 4.4 1.5c1 1 1.6 2.3 1.6 4c-.1 1.7 -.6 3.1 -1.8 4.1c-1.2 .9 -2.7 1.4 -4.5 1.4h-2.6v4.7Zm58.9 .3c-2.4 0 -4.3 -.8 -5.9 -2.3c-1.6 -1.6 -2.3 -3.5 -2.3 -5.7c0 -2.2 .8 -4.1 2.3 -5.6c1.6 -1.6 3.6 -2.4 6 -2.4c2.2 0 4.3 .8 5.9 2.3c1.5 1.5 2.3 3.5 2.3 5.7c-.1 2.2 -.8 4.1 -2.4 5.7c-1.6 1.5 -3.5 2.3 -5.9 2.3Zm97.2 0c-2.5 0 -4.4 -.8 -5.9 -2.3c-1.6 -1.6 -2.4 -3.5 -2.4 -5.7c0 -2.2 .8 -4.1 2.4 -5.6c1.6 -1.6 3.6 -2.4 5.9 -2.4c2.3 0 4.4 .8 5.9 2.3c1.5 1.5 2.4 3.5 2.4 5.7c-.1 2.2 -.8 4.1 -2.4 5.7c-1.6 1.5 -3.6 2.3 -5.9 2.3Zm65.8 -.3V544.9h11.6V548h-8.2v3.2h7.3v3.1h-7.3v3.2h8.4v3.1Zm38.1 .3c-2.4 0 -4.2 -.8 -5.7 -2.3c-1.6 -1.6 -2.2 -3.4 -2.2 -5.7c0 -2.2 .7 -4.1 2.2 -5.7c1.5 -1.6 3.5 -2.3 5.9 -2.3c1.3 0 2.4 .2 3.3 .7c.9 .3 1.8 1 2.7 1.9l-2.1 2.3c-.7 -.7 -1.3 -1 -1.9 -1.3c-.6 -.4 -1.2 -.4 -2.1 -.4c0 0 -.1 0 -.1 0c-1.3 0 -2.3 .5 -3.1 1.4c-.9 .8 -1.3 2 -1.3 3.4c-.1 1.4 .5 2.5 1.3 3.4c.8 .9 1.9 1.5 3.2 1.5c.8 -.1 1.6 -.2 2.2 -.5c.5 -.3 1.2 -.7 1.9 -1.4l2.2 2.4c-.9 .9 -1.8 1.5 -2.8 2c-1 .4 -2.1 .6 -3.6 .6ZM368.3 543.8c-1 0 -1.8 -.3 -2.5 -.8c-.7 -.6 -1.1 -1.5 -1.2 -2.5l2 -.4c.2 .9 .9 1.5 1.7 1.5c.8 0 1.5 -.5 1.8 -1.5l1.9 .4c-.2 1 -.5 1.9 -1.2 2.5c-.7 .5 -1.5 .8 -2.5 .8Zm66 -25c1.6 0 2.5 -.6 2.5 -1.8c-.1 -1.2 -.9 -1.7 -2.6 -1.7h-4v3.5ZM262 515.4l-2.1 -5l-2 5Zm116.7 0l-2.1 -5l-2 5Zm36.5 3.5c1.3 0 2.5 -.4 3.4 -1.4c.8 -.9 1.3 -2 1.3 -3.4c-.1 -1.3 -.5 -2.5 -1.4 -3.4c-1 -1 -2 -1.4 -3.3 -1.4c-.1 0 -.2 0 -.2 0c-1.4 0 -2.4 .5 -3.2 1.4c-1 .8 -1.3 2 -1.3 3.4c-.1 1.4 .4 2.5 1.3 3.4c.8 .9 2 1.4 3.4 1.4ZM277.3 514.1c.8 -.1 1.5 -.3 2 -.7c.4 -.6 .7 -1.1 .7 -1.8c0 -.8 -.2 -1.4 -.7 -1.8c-.5 -.4 -1.2 -.6 -2 -.6h-2.7v4.9Zm85.1 0c.7 -.1 1.5 -.3 1.9 -.7c.5 -.6 .8 -1.1 .8 -1.8c-.1 -.8 -.3 -1.4 -.8 -1.8c-.5 -.4 -1.1 -.6 -2 -.6h-2.7v4.9Zm70.9 -1.7c1.6 0 2.5 -.5 2.5 -1.7c-.1 -.6 -.2 -.9 -.6 -1.2c-.4 -.3 -.9 -.4 -1.6 -.4h-3.4v3.3Zm-197.2 9.5V506.4h13v15.5h-3.4V509.4h-6.2v12.5Zm15.7 0l6.6 -15.6h3.2l6.6 15.6h-3.6l-1.4 -3.5h-6.5l-1.5 3.5Zm116.7 0l6.6 -15.6h3.2l6.6 15.6h-3.6l-1.4 -3.5h-6.5l-1.5 3.5Zm-82.1 -.1V506.2h3.5V513l6.2 -6.8h4.2l-6.3 6.6l6.6 9h-4.1l-4.8 -6.6l-1.8 1.8v4.8Zm51.8 0l5.4 -7.9l-5.1 -7.7h3.9l3.3 5.1l3.3 -5.1h3.9l-5.2 7.6l5.4 8h-4l-3.5 -5.4l-3.5 5.4Zm49.7 0V506.2h3.7l4.1 6.6l4.1 -6.6h3.7v15.6h-3.4V511.6l-4.4 6.7h-.1l-4.4 -6.6v10.1Zm-76.4 0V509.6l-2.8 .7l-.7 -2.8l4.5 -1.4h2.3v15.7Zm115.4 0V506.1h7.2c1.7 0 3.1 .5 4 1.4c.6 .7 1.1 1.6 1.1 2.7c-.1 1.4 -.7 2.6 -2 3.4c1 .3 1.7 .8 2.2 1.4c.4 .6 .8 1.5 .8 2.5c-.1 1.4 -.6 2.4 -1.6 3.2c-1.1 .6 -2.5 1.1 -4.3 1.1Zm-155.7 0V506.1h6.3c1.9 0 3.3 .5 4.4 1.5c1 1 1.6 2.3 1.6 4c-.1 1.7 -.6 3.1 -1.8 4.1c-1.2 .8 -2.7 1.4 -4.5 1.4h-2.6v4.7Zm85 0V506.1h6.4c1.8 0 3.3 .5 4.3 1.5c1.1 1 1.6 2.3 1.6 4c-.1 1.7 -.6 3.1 -1.8 4.1c-1.2 .8 -2.6 1.4 -4.5 1.4h-2.6v4.7Zm59 .3c-2.5 0 -4.4 -.8 -5.9 -2.3c-1.6 -1.6 -2.4 -3.5 -2.4 -5.7c0 -2.2 .8 -4.1 2.4 -5.6c1.5 -1.6 3.5 -2.4 5.9 -2.4c2.3 0 4.3 .8 5.9 2.3c1.5 1.5 2.3 3.5 2.3 5.7c0 2.2 -.7 4.1 -2.3 5.7c-1.7 1.5 -3.6 2.3 -5.9 2.3Zm-97.3 -.3v-2.7l5.2 -4.3c.9 -.8 1.7 -1.5 2.1 -2c.4 -.5 .6 -1.1 .6 -1.7c-.1 -.7 -.2 -1.1 -.6 -1.5c-.4 -.4 -.9 -.5 -1.5 -.5c-.1 0 -.2 0 -.3 0c-.5 0 -.9 .2 -1.3 .5c-.5 .2 -1 .8 -1.6 1.6l-2.4 -2c.8 -1.1 1.7 -1.9 2.6 -2.4c.8 -.5 1.9 -.8 3.2 -.8c.1 0 .2 0 .3 0c1.5 0 2.7 .5 3.6 1.3c.9 .8 1.5 2.1 1.5 3.6c-.1 .8 -.2 1.6 -.5 2.2c-.4 .7 -.8 1.3 -1.3 1.8c-.5 .5 -1.3 1.2 -2.3 2l-2.5 1.9h6.7v3ZM379 479.9c1.7 -.1 2.6 -.8 2.6 -2.2c0 -1.4 -.9 -2.1 -2.6 -2.1h-3v4.3Zm61 0c1.6 -.1 2.5 -.8 2.5 -2.2c0 -1.4 -.9 -2.1 -2.6 -2.1h-3v4.3ZM307.3 475.3c.8 -.1 1.5 -.3 2 -.7c.4 -.6 .7 -1.1 .7 -1.8c-.1 -.8 -.3 -1.4 -.7 -1.8c-.6 -.4 -1.2 -.6 -2.1 -.6h-2.6v4.9Zm117.1 0c.8 -.1 1.5 -.3 2 -.7c.4 -.6 .7 -1.1 .7 -1.8c-.1 -.8 -.2 -1.4 -.7 -1.8c-.6 -.4 -1.2 -.6 -2.1 -.6h-2.6v4.9Zm-69 8c-.7 0 -1.3 -.1 -1.8 -.2l.3 -2.8q0 -.1 .1 -.1c.1 0 .3 .1 .4 .1c.5 0 .9 -.1 1.2 -.3c.3 -.2 .6 -.7 .9 -1.3c.2 -.7 .5 -1.6 .6 -2.9c.1 -1.4 .2 -3 .2 -5v-3.2h11v15.5h-3.4V470.6h-4.4v1.2c-.1 3 -.2 5.4 -.6 7.1c-.4 1.6 -.9 2.8 -1.6 3.4c-.7 .6 -1.6 1 -2.9 1Zm-65.7 -.4V470.6H285v-3.1h12.8v3.1h-4.7v12.3Zm100.4 0V470.6h-4.7v-3.1h12.8v3.1h-4.7v12.3Zm-142.5 3.4V483H236.1V467.5h3.4V480h6.2V467.5h3.4V480h1.8l-.4 6.3Zm94.9 -3c-1.2 0 -2.3 -.3 -3.3 -.9l1.3 -2.5c.5 .2 1.2 .5 1.8 .5c.7 -.1 1.5 -.4 2 -1.3l-6.2 -11.6h3.8l4.2 8.2l3.7 -8.2h3.7l-5.9 12c-.8 1.3 -1.4 2.3 -2.2 2.9c-.8 .5 -1.8 .9 -2.9 .9Zm30.1 -.4V467.5H376v5.2h3.3q.1 0 .1 0c1.7 0 3.1 .5 4.1 1.4c.9 .8 1.5 2.1 1.5 3.6c0 1.6 -.6 2.9 -1.6 3.8c-1.1 .9 -2.5 1.4 -4.3 1.4Zm31.8 .4c-1.2 0 -2.3 -.3 -3.4 -.9l1.4 -2.5c.5 .2 1.1 .5 1.8 .5c.7 -.1 1.4 -.4 1.9 -1.3l-6.2 -11.6h3.9l4.2 8.2l3.7 -8.2h3.7l-5.9 12c-.8 1.3 -1.5 2.3 -2.3 2.9c-.8 .5 -1.7 .9 -2.8 .9ZM269 482.9V467.4h3.5v6.2h6.2v-6.2h3.4v15.5h-3.4v-6.1h-6.2v6.1Zm54.1 0V467.4h3.4v6.8l6.3 -6.8h4.1l-6.3 6.6l6.6 8.9h-4.1l-4.8 -6.6l-1.8 1.9v4.7Zm110.4 0V467.4h3.4v5.3h3.3q.1 0 .1 0c1.7 0 3.1 .5 4.1 1.4c.9 .8 1.5 2.1 1.5 3.6c0 1.6 -.5 2.9 -1.6 3.8c-1.1 .9 -2.5 1.4 -4.3 1.4Zm14.2 0V467.4h3.4v15.5Zm-194 0V467.3h11.7v3h-8.3v3.3h7.3v3.1h-7.3v3.2h8.4v3Zm47.4 0V467.3h6.4c1.8 0 3.3 .5 4.3 1.5c1.1 1 1.6 2.3 1.6 4c-.1 1.7 -.5 3.1 -1.7 4c-1.3 .9 -2.7 1.5 -4.5 1.5h-2.6v4.6Zm117.2 0V467.3h6.3c1.8 0 3.3 .5 4.4 1.5c1 1 1.6 2.3 1.6 4c-.1 1.7 -.6 3.1 -1.8 4c-1.3 .9 -2.7 1.5 -4.5 1.5h-2.6v4.6Z"/></clipPath>
</defs>
<image clip-path="url(#c0_23)" preserveAspectRatio="none" x="150" y="0" width="1167" height="825" xlink:href="img/1.jpg"/>
<image clip-path="url(#c1_23)" preserveAspectRatio="none" x="150" y="0" width="1167" height="825" xlink:href="img/2.jpg"/>
<image clip-path="url(#c2_23)" preserveAspectRatio="none" x="150" y="0" width="1167" height="825" xlink:href="img/3.jpg"/>
<image clip-path="url(#c3_23)" preserveAspectRatio="none" x="150" y="0" width="1167" height="825" xlink:href="img/4.jpg"/>
<image clip-path="url(#c4_23)" preserveAspectRatio="none" x="150" y="0" width="1167" height="825" xlink:href="img/5.jpg"/>
<image clip-path="url(#c5_23)" preserveAspectRatio="none" x="150" y="0" width="1167" height="825" xlink:href="img/6.jpg"/>
<image clip-path="url(#c6_23)" preserveAspectRatio="none" x="150" y="0" width="1167" height="825" xlink:href="img/7.jpg"/>
<image clip-path="url(#c7_23)" preserveAspectRatio="none" x="150" y="0" width="1167" height="825" xlink:href="img/8.jpg"/>
<image clip-path="url(#c8_23)" preserveAspectRatio="none" x="150" y="0" width="1167" height="825" xlink:href="img/9.jpg"/>
<image clip-path="url(#c9_23)" preserveAspectRatio="none" x="150" y="0" width="1167" height="825" xlink:href="img/10.jpg"/>
<image clip-path="url(#ca_23)" preserveAspectRatio="none" x="150" y="0" width="1167" height="825" xlink:href="img/11.jpg"/>
<image clip-path="url(#cb_23)" preserveAspectRatio="none" x="150" y="0" width="1167" height="825" xlink:href="img/12.jpg"/>
<image clip-path="url(#cc_23)" preserveAspectRatio="none" x="150" y="0" width="1167" height="825" xlink:href="img/13.jpg"/>
<image clip-path="url(#cd_23)" preserveAspectRatio="none" x="150" y="0" width="1167" height="825" xlink:href="img/14.jpg"/>
<image clip-path="url(#ce_23)" preserveAspectRatio="none" x="150" y="0" width="1167" height="825" xlink:href="img/15.jpg"/>
<image clip-path="url(#cf_23)" preserveAspectRatio="none" x="150" y="0" width="1167" height="825" xlink:href="img/16.jpg"/>
<image clip-path="url(#cg_23)" preserveAspectRatio="none" x="150" y="0" width="1167" height="825" xlink:href="img/17.jpg"/>
<image clip-path="url(#ch_23)" preserveAspectRatio="none" x="150" y="0" width="1167" height="825" xlink:href="img/18.jpg"/>
<image clip-path="url(#ci_23)" preserveAspectRatio="none" x="150" y="0" width="1167" height="825" xlink:href="img/19.jpg"/>
<image clip-path="url(#cj_23)" preserveAspectRatio="none" x="150" y="0" width="1167" height="825" xlink:href="img/20.jpg"/>
<image clip-path="url(#ck_23)" preserveAspectRatio="none" x="150" y="0" width="1167" height="825" xlink:href="img/21.jpg"/>
<image clip-path="url(#cl_23)" preserveAspectRatio="none" x="150" y="0" width="1167" height="825" xlink:href="img/22.jpg"/>
<image clip-path="url(#cm_23)" preserveAspectRatio="none" x="150" y="0" width="1167" height="825" xlink:href="img/23.jpg"/>
<image clip-path="url(#cn_23)" preserveAspectRatio="none" x="150" y="0" width="1167" height="825" xlink:href="img/24.jpg"/>
<image clip-path="url(#co_23)" preserveAspectRatio="none" x="150" y="0" width="1167" height="825" xlink:href="img/25.jpg"/>
<image clip-path="url(#cp_23)" preserveAspectRatio="none" x="150" y="0" width="1167" height="825" xlink:href="img/26.jpg"/>
<image clip-path="url(#cq_23)" preserveAspectRatio="none" x="150" y="0" width="1167" height="825" xlink:href="img/27.jpg"/>
<image clip-path="url(#cr_23)" preserveAspectRatio="none" x="150" y="0" width="1167" height="825" xlink:href="img/28.jpg"/>
<image clip-path="url(#cs_23)" preserveAspectRatio="none" x="150" y="0" width="1167" height="825" xlink:href="img/29.jpg"/>
<image clip-path="url(#ct_23)" preserveAspectRatio="none" x="150" y="0" width="1167" height="825" xlink:href="img/30.jpg"/>
<image clip-path="url(#cu_23)" preserveAspectRatio="none" x="150" y="0" width="1167" height="825" xlink:href="img/31.jpg"/>
<image clip-path="url(#cv_23)" preserveAspectRatio="none" x="150" y="0" width="1167" height="825" xlink:href="img/32.jpg"/>
<image clip-path="url(#cw_23)" preserveAspectRatio="none" x="150" y="0" width="1167" height="825" xlink:href="img/33.jpg"/>
<image clip-path="url(#cx_23)" preserveAspectRatio="none" x="150" y="0" width="1167" height="825" xlink:href="img/34.jpg"/>
<image clip-path="url(#cy_23)" preserveAspectRatio="none" x="150" y="0" width="1167" height="825" xlink:href="img/35.jpg"/>
<image clip-path="url(#cz_23)" preserveAspectRatio="none" x="150" y="0" width="1167" height="825" xlink:href="img/36.jpg"/>
<image clip-path="url(#c10_23)" preserveAspectRatio="none" x="150" y="0" width="1167" height="825" xlink:href="img/37.jpg"/>
<image clip-path="url(#c11_23)" preserveAspectRatio="none" x="150" y="0" width="1167" height="825" xlink:href="img/38.jpg"/>
<image clip-path="url(#c12_23)" preserveAspectRatio="none" x="150" y="0" width="1167" height="825" xlink:href="img/39.jpg"/>
<image clip-path="url(#c13_23)" preserveAspectRatio="none" x="150" y="0" width="1167" height="825" xlink:href="img/40.jpg"/>
<image clip-path="url(#c14_23)" preserveAspectRatio="none" x="150" y="0" width="1167" height="825" xlink:href="img/41.jpg"/>
</svg>