<?xml version="1.0" encoding="UTF-8" standalone="no"?>
<!DOCTYPE svg PUBLIC "-//W3C//DTD SVG 1.1//EN"
"http://www.w3.org/Graphics/SVG/1.1/DTD/svg11.dtd">
<svg viewBox="0 0 1466 825" version="1.1" xmlns="http://www.w3.org/2000/svg" xmlns:xlink="http://www.w3.org/1999/xlink">
<defs>
<clipPath id="c0_19"><path d="M149.9 825V0h1167V825Z"/></clipPath>
<clipPath id="c1_19"><path d="M149.9 741.8V0H1229.7c1.9 0 3.4 1.5 3.4 3.3V738.5c0 1.8 -1.5 3.3 -3.4 3.3Z"/></clipPath>
<clipPath id="c2_19"><path d="M1172.2 111.1v-6.2h6.3v6.2Zm-842 -5.3c3 0 4.6 -1.3 4.6 -3.9c-.1 -2.5 -1.5 -3.7 -4.6 -3.7h-5.4v7.6Zm826.7 0c3 0 4.6 -1.3 4.6 -3.9c-.1 -2.5 -1.5 -3.7 -4.6 -3.7h-5.4v7.6ZM393.3 100l-3.6 -8.9l-3.6 8.9ZM420 97.4c1.5 0 2.7 -.3 3.6 -1.1c.8 -.9 1.3 -1.8 1.3 -3.1c-.1 -1.3 -.5 -2.3 -1.4 -3c-.8 -.7 -2.1 -1.1 -3.7 -1.1h-4.7v8.3Zm347.2 0c1.5 0 2.7 -.3 3.5 -1.1c.9 -.9 1.4 -1.8 1.4 -3.1c-.2 -1.3 -.5 -2.3 -1.4 -3c-.9 -.7 -2.1 -1.1 -3.7 -1.1h-4.8v8.3Zm91.8 8.4V89.1h-8v2.8c-.1 5.2 -.8 9.8 -2.5 13.9Zm180.3 -8.5V89.1h-6c-1.6 0 -2.7 .4 -3.5 1.1c-1 .7 -1.3 1.7 -1.3 3.1c0 1.2 .4 2.2 1.3 2.9c.7 .7 1.9 1.1 3.4 1.1Zm-555.7 8.5c2.3 0 4.3 -.9 5.8 -2.5c1.5 -1.7 2.3 -3.6 2.3 -6c-.1 -2.4 -.8 -4.4 -2.3 -6c-1.6 -1.7 -3.5 -2.5 -5.9 -2.5c-2.4 0 -4.3 .8 -5.8 2.4c-1.6 1.6 -2.3 3.7 -2.3 6.1c0 2.3 .8 4.3 2.3 6c1.5 1.6 3.5 2.5 5.9 2.5Zm154 0c2.3 0 4.4 -.9 5.9 -2.5c1.5 -1.7 2.2 -3.6 2.2 -6c-.1 -2.4 -.7 -4.4 -2.3 -6c-1.5 -1.7 -3.5 -2.5 -5.8 -2.5c-2.4 0 -4.4 .8 -5.9 2.4c-1.6 1.6 -2.3 3.7 -2.3 6.1c0 2.3 .8 4.3 2.4 6c1.4 1.6 3.5 2.5 5.8 2.5Zm56.6 0c2.3 0 4.3 -.9 5.9 -2.5c1.5 -1.7 2.2 -3.6 2.2 -6c-.1 -2.4 -.7 -4.4 -2.3 -6c-1.5 -1.7 -3.5 -2.5 -5.9 -2.5c-2.4 0 -4.3 .8 -5.8 2.4c-1.6 1.6 -2.3 3.7 -2.3 6.1c0 2.3 .8 4.3 2.4 6c1.4 1.6 3.5 2.5 5.8 2.5Zm128.1 0c2.3 0 4.3 -.9 5.8 -2.5c1.5 -1.7 2.3 -3.6 2.3 -6c-.1 -2.4 -.8 -4.4 -2.3 -6c-1.5 -1.7 -3.5 -2.5 -5.9 -2.5c-2.4 0 -4.3 .8 -5.8 2.4c-1.6 1.6 -2.3 3.7 -2.3 6.1c0 2.3 .8 4.3 2.3 6c1.5 1.6 3.5 2.5 5.9 2.5Zm64.1 0c2.3 0 4.3 -.9 5.8 -2.5c1.5 -1.7 2.3 -3.6 2.3 -6c-.1 -2.4 -.8 -4.4 -2.4 -6c-1.5 -1.7 -3.5 -2.5 -5.8 -2.5c-2.4 0 -4.3 .8 -5.9 2.4c-1.6 1.6 -2.2 3.7 -2.2 6.1c0 2.3 .7 4.3 2.3 6c1.4 1.6 3.5 2.5 5.9 2.5Zm287.3 -3.9l-1.8 -17.2v-.8h6.9v.8l-1.9 17.2Zm-939.9 9V83.8h22.7v27.1h-5.9V89.1H239.7v21.8Zm65.6 .3V89.5h-8.3V83.8h22.6v5.7h-8.5v21.7Zm19.6 -.1V83.8h5.8v9.3h5.8c3 0 5.6 .8 7.4 2.4c1.7 1.6 2.6 3.7 2.6 6.4c-.1 2.8 -.9 5.1 -2.8 6.7c-1.9 1.6 -4.3 2.5 -7.5 2.5Zm38.7 -.2V83.8h18.9v5.3H363.5v21.8Zm17.7 .3L387 83.8h5.5l11.7 27.4h-6.3l-2.4 -6.1H384l-2.5 6.1Zm60.5 -.1V83.8h6.4l7.2 11.5l7.2 -11.5H463v27.3h-5.8V93.3l-7.7 11.6h-.1L441.8 93.4v17.7Zm68.3 0V83.8H510V94.4h11.3V83.8h5.8v27.3h-5.8v-11H510v11Zm30.3 0V83.8h5.8v17.9l12 -17.9h5.4v27.3h-5.8V93.2L540 111.1Zm46.3 0v-10c-2.9 1.2 -5.1 2 -7.2 2c-2.9 0 -5 -.8 -6.7 -2.3c-1.6 -1.6 -2.4 -3.9 -2.4 -6.9V83.8h5.8v8.3c-.1 3.5 1.5 5.3 4.5 5.3c2.4 0 4.5 -.5 6 -1.7V83.8h5.8v27.3Zm13.4 0V83.8H600V94.4h11.3V83.8h5.8v27.3h-5.8v-11H600v11Zm64 -.2V83.8h19v5.3H664v21.8Zm68.3 0V83.8h22.6v27.1h-5.8V89.1h-11v21.8Zm56.6 .2V83.8h20.5v5.3H788.9v5.7h13v5.3h-13v5.7h14.9v5.3Zm56.6 5.6V105.8h2.5c1.1 -2.5 1.8 -5.1 2.3 -7.9c.3 -2.8 .7 -6.4 .7 -10.9V83.8h19.6v22h3.3l-.8 10.9h-5v-5.6H845.4l-.4 5.6Zm66.5 -5.3c-1.2 0 -2.2 -.1 -3.1 -.3l.4 -4.9c.3 0 .6 .1 .9 .1c.8 -.1 1.6 -.2 2.1 -.6c.6 -.4 1.1 -1.1 1.6 -2.2c.4 -1.2 .8 -2.9 1 -5.2c.2 -2.3 .3 -5.2 .3 -8.8V83.8h19.3v27.3h-5.8v-22h-7.8v2.1c0 5.3 -.3 9.5 -1 12.4c-.6 2.9 -1.5 5 -2.7 6.1c-1.4 1 -3 1.7 -5.2 1.7Zm29.9 -.3V83.8h20.4v5.3H941.9v5.7h13v5.3h-13v5.7h14.8v5.3Zm26.8 0V83.8h5.8V94.4H980V83.8h5.8v27.3H980v-11H968.7v11Zm30.3 0V83.8H999v17.9l12 -17.9h5.4v27.3h-5.8V93.2l-11.9 17.9Zm28.5 0l6.6 -9.6c-3.9 -1.5 -5.8 -4.4 -5.8 -8.6c0 -2.9 .9 -5.1 2.7 -6.7c1.8 -1.6 4.4 -2.4 7.5 -2.4h12.4v27.3h-5.8v-8.7h-4.8l-5.9 8.7Zm42.6 0V83.8h20.5v5.3h-14.6v5.7h12.9v5.3h-12.9v5.7H1085v5.3Zm61.8 .1V89.5h-8.3V83.8h22.6v5.7h-8.5v21.7Zm19.6 -.1V83.8h5.8v9.3h5.8c3 0 5.6 .8 7.4 2.4c1.7 1.6 2.6 3.7 2.6 6.4c-.1 2.8 -.9 5.1 -2.8 6.7c-1.9 1.6 -4.3 2.5 -7.5 2.5Zm-736.5 -.2V83.8h11.2c3.2 0 5.8 .9 7.6 2.6c1.9 1.6 2.9 4 2.9 6.8c-.2 3 -1.1 5.4 -3.2 7.1c-2.2 1.6 -4.8 2.5 -8 2.5h-4.6v8.1Zm347.2 0V83.8h11.2c3.2 0 5.8 .9 7.6 2.6c1.8 1.6 2.8 4 2.8 6.8c-.1 3 -1 5.4 -3.1 7.1c-2.2 1.6 -4.8 2.5 -8 2.5h-4.7v8.1Zm-487.5 .5c-2.1 0 -4 -.5 -5.8 -1.6l2.3 -4.4c.9 .5 2.1 .9 3.2 .9c1.3 -.1 2.5 -.7 3.4 -2.2L261.2 83.6h6.6l7.4 14.5l6.6 -14.5h6.4l-10.4 21.2c-1.2 2.3 -2.4 4 -3.8 5c-1.5 1.1 -3.1 1.6 -5.1 1.6Zm214.6 0c-4.2 0 -7.6 -1.4 -10.3 -4.1c-2.8 -2.8 -4.1 -6.1 -4.1 -10c0 -4 1.4 -7.3 4.1 -10c2.7 -2.8 6.2 -4.2 10.4 -4.2c4.1 0 7.6 1.4 10.3 4.1c2.7 2.7 4.1 6.1 4.1 10.1c-.1 3.8 -1.4 7.2 -4.1 10c-2.9 2.7 -6.3 4.1 -10.4 4.1Zm154.1 0c-4.2 0 -7.6 -1.4 -10.4 -4.1c-2.7 -2.8 -4.1 -6.1 -4.1 -10c0 -4 1.4 -7.3 4.2 -10c2.7 -2.8 6.2 -4.2 10.3 -4.2c4.1 0 7.6 1.4 10.4 4.1c2.6 2.7 4.1 6.1 4.1 10.1c-.1 3.8 -1.4 7.2 -4.2 10c-2.8 2.7 -6.2 4.1 -10.3 4.1Zm56.5 0c-4.1 0 -7.5 -1.4 -10.3 -4.1c-2.7 -2.8 -4.1 -6.1 -4.1 -10c0 -4 1.4 -7.3 4.2 -10c2.7 -2.8 6.2 -4.2 10.3 -4.2c4.1 0 7.6 1.4 10.4 4.1c2.6 2.7 4.1 6.1 4.1 10.1c-.2 3.8 -1.4 7.2 -4.2 10c-2.8 2.7 -6.2 4.1 -10.4 4.1Zm128.1 0c-4.2 0 -7.6 -1.4 -10.3 -4.1c-2.8 -2.8 -4.1 -6.1 -4.1 -10c0 -4 1.4 -7.3 4.1 -10c2.8 -2.8 6.3 -4.2 10.4 -4.2c4.1 0 7.6 1.4 10.3 4.1c2.7 2.7 4.1 6.1 4.1 10.1c-.1 3.8 -1.3 7.2 -4.1 10c-2.8 2.7 -6.2 4.1 -10.4 4.1Zm64.1 0c-4.2 0 -7.6 -1.4 -10.4 -4.1c-2.7 -2.8 -4.1 -6.1 -4.1 -10c0 -4 1.4 -7.3 4.2 -10c2.7 -2.8 6.2 -4.2 10.3 -4.2q.1 0 .1 0c4 0 7.5 1.4 10.3 4.1c2.6 2.7 4.1 6.1 4.1 10.1c-.1 3.8 -1.4 7.2 -4.2 10c-2.8 2.7 -6.2 4.1 -10.3 4.1Zm216.7 0c-4.1 0 -7.3 -1.3 -10 -4.1c-2.8 -2.8 -4 -6 -4 -10c0 -4 1.3 -7.3 4 -10.1c2.7 -2.7 6.1 -4.1 10.2 -4.1c2.3 0 4.4 .4 6 1.2c1.5 .7 3.1 1.9 4.6 3.4l-3.6 4.1c-1.3 -1.1 -2.3 -1.8 -3.3 -2.3c-1.1 -.5 -2.3 -.7 -3.7 -.7c-2.3 0 -4.2 .8 -5.6 2.4c-1.6 1.6 -2.3 3.7 -2.3 6.1c0 2.3 .8 4.3 2.3 6c1.4 1.6 3.3 2.5 5.6 2.5c1.4 0 2.7 -.3 3.8 -.8c.9 -.6 2.1 -1.3 3.3 -2.4l3.8 4.1c-1.5 1.5 -3 2.8 -4.8 3.6c-1.7 .7 -3.8 1.1 -6.3 1.1Z"/></clipPath>
<clipPath id="c3_19"><path d="M242.6 207.7c.9 0 1.8 -.2 2.3 -.5c.5 -.5 .8 -.9 .8 -1.6c0 -.6 -.3 -1.1 -.8 -1.4c-.7 -.5 -1.4 -.5 -2.5 -.5h-4.2v4Zm370.6 0c.9 0 1.7 -.2 2.3 -.5c.5 -.5 .8 -.9 .8 -1.6c0 -.6 -.3 -1.1 -.8 -1.4c-.7 -.5 -1.5 -.5 -2.5 -.5h-4.2v4Zm115 .4c1.2 -.1 2.3 -.4 3.2 -1c.8 -.7 1.3 -1.4 1.3 -2.4v-1.2c-1.4 -.3 -2.6 -.5 -3.9 -.5c-.1 0 -.2 0 -.3 0c-1.1 0 -2 .3 -2.6 .7c-.7 .4 -1 1.1 -1 1.9c-.1 .7 .3 1.3 .9 1.8c.7 .4 1.5 .7 2.4 .7Zm45.5 0c1.2 -.1 2.3 -.4 3.2 -1c.7 -.7 1.3 -1.4 1.3 -2.4v-1.2c-1.4 -.3 -2.6 -.5 -3.9 -.5c-.1 0 -.2 0 -.3 0c-1.1 0 -2 .3 -2.6 .7c-.7 .4 -1.1 1.1 -1.1 1.9c0 .7 .4 1.3 1 1.8c.7 .4 1.5 .7 2.4 .7Zm-276.8 -.4c1 0 1.9 -.2 2.4 -.6c.6 -.6 .9 -1.1 .9 -2c0 -.9 -.3 -1.4 -.9 -1.8c-.6 -.4 -1.4 -.6 -2.4 -.6h-3.6v5ZM242.3 201.9c.8 0 1.5 -.2 2 -.6c.4 -.4 .8 -.9 .8 -1.7c0 -.6 -.3 -1 -.7 -1.4c-.6 -.3 -1.2 -.5 -2 -.5h-4.2v4.2Zm370.6 0c.8 0 1.5 -.2 2 -.6c.4 -.4 .8 -.9 .8 -1.7c0 -.6 -.3 -1 -.7 -1.4c-.6 -.3 -1.2 -.5 -2 -.5h-4.2v4.2Zm-309.3 6.2c1.3 -.1 2.5 -.5 3.4 -1.5c.8 -1 1.3 -2.2 1.3 -3.8c0 -1.6 -.4 -2.8 -1.3 -3.8c-1.1 -1 -2.1 -1.4 -3.4 -1.4c-1.4 0 -2.5 .4 -3.4 1.4c-1.1 1 -1.5 2.3 -1.5 3.8c0 1.4 .5 2.8 1.5 3.8c.9 1 2.1 1.5 3.4 1.5Zm249.1 -.4V197.6h-5.6v1.9c0 3.4 -.6 6.2 -1.7 8.2Zm195.3 0V197.6h-5.6v1.9c0 3.4 -.5 6.2 -1.7 8.2Zm-280.3 .4c1.4 -.1 2.7 -.6 3.7 -1.6c.9 -1.1 1.4 -2.3 1.4 -3.8c-.1 -1.5 -.5 -2.7 -1.5 -3.8c-1 -1 -2.2 -1.5 -3.6 -1.5q-.1 -.1 -.2 -.1c-1.4 0 -2.5 .6 -3.5 1.6c-1 1 -1.4 2.3 -1.4 3.8c0 1.4 .5 2.8 1.5 3.8c.9 .9 2.2 1.6 3.6 1.6Zm128.1 0c1.5 -.1 2.7 -.6 3.7 -1.6c.9 -1.1 1.4 -2.3 1.4 -3.8c-.1 -1.5 -.5 -2.7 -1.5 -3.8c-1 -1 -2.2 -1.5 -3.6 -1.5q-.1 -.1 -.2 -.1c-1.4 0 -2.5 .6 -3.4 1.6c-1 1 -1.5 2.3 -1.5 3.8c0 1.4 .5 2.8 1.5 3.8c.9 .9 2.2 1.6 3.6 1.6Zm48.9 0c1.4 -.1 2.7 -.6 3.7 -1.6c.8 -1.1 1.4 -2.3 1.4 -3.8c-.1 -1.5 -.5 -2.7 -1.5 -3.8c-1 -1 -2.2 -1.5 -3.6 -1.5q-.1 -.1 -.2 -.1c-1.4 0 -2.6 .6 -3.5 1.6c-1 1 -1.4 2.3 -1.4 3.8c0 1.4 .5 2.8 1.5 3.8c.9 .9 2.2 1.6 3.6 1.6Zm28.4 0c1.5 -.1 2.7 -.6 3.7 -1.6c.9 -1.1 1.4 -2.3 1.4 -3.8c-.1 -1.5 -.5 -2.7 -1.5 -3.8c-1 -1 -2.2 -1.5 -3.6 -1.5q-.1 -.1 -.2 -.1c-1.4 0 -2.5 .6 -3.4 1.6c-1 1 -1.4 2.3 -1.4 3.8c-.1 1.4 .4 2.8 1.4 3.8c.9 .9 2.2 1.6 3.6 1.6Zm-349 -6.2c-.2 -1.3 -.6 -2.4 -1.3 -3.3c-.9 -.8 -1.8 -1.2 -3.1 -1.2c0 -.1 -.1 -.1 -.1 -.1c-1.2 0 -2.1 .5 -2.9 1.3c-.9 .8 -1.3 2 -1.4 3.3Zm48.5 0c-.2 -1.3 -.6 -2.4 -1.4 -3.3c-.8 -.8 -1.7 -1.2 -3 -1.2q-.1 -.1 -.2 -.1c-1.1 0 -2 .5 -2.8 1.3c-.9 .8 -1.3 2 -1.5 3.3Zm-136.5 7.6V195.9h6.6c1.3 0 2.4 .3 3.2 .9c.8 .6 1.3 1.5 1.3 2.6c-.1 1.4 -.8 2.6 -2.3 3.2c1.9 .5 2.9 1.7 2.9 3.3c0 1.1 -.4 2 -1.3 2.7c-.9 .6 -2.1 .9 -3.6 .9Zm15.4 0V195.9h2.1v5.8h7.8v-5.8h2.1v13.6h-2.1v-6h-7.8v6Zm18.5 4.4c-1 0 -1.9 -.3 -2.9 -.7l.7 -1.7c.6 .4 1.4 .6 2.1 .6c.5 -.1 1.2 -.2 1.6 -.6c.3 -.5 .8 -1.1 1.2 -2l-6.2 -13.6h2.3l4.9 11.4l4.4 -11.4h2.1L274.5 210c-.6 1.3 -1.2 2.4 -1.9 3c-.8 .5 -1.6 .9 -2.6 .9Zm59.8 -4.4V195.9h2.1v5.8h7.8v-5.8h2.1v13.6h-2.1v-6h-7.8v6Zm16.4 0V195.9h2.1v5.8h7.8v-5.8h2.1v13.6h-2.1v-6h-7.8v6Zm32 0V195.9h2.1v10.8l8 -10.8h2v13.6h-2.1V198.7l-8 10.8Zm42.9 4.4c-1 0 -1.9 -.3 -2.9 -.7l.7 -1.7c.6 .4 1.4 .6 2.2 .6c.5 -.1 1.1 -.2 1.5 -.6c.4 -.5 .8 -1.1 1.2 -2l-6.1 -13.6h2.2l4.9 11.4l4.4 -11.4h2.2L425.7 210c-.7 1.3 -1.3 2.4 -2 3c-.8 .5 -1.5 .9 -2.6 .9Zm70.1 -4.4V195.9h2.1v5h3.6c1.6 0 2.9 .3 3.9 1c.9 .7 1.5 1.7 1.5 3.1c-.1 1.4 -.5 2.5 -1.4 3.3c-1 .8 -2.2 1.2 -3.8 1.2Zm13.6 0V195.9h2v13.6Zm14.4 0V195.9h2v10.8l8 -10.8h2v13.6h-2.1V198.7l-7.9 10.8Zm42.3 4.4c-1 0 -1.9 -.3 -2.8 -.7l.6 -1.7c.6 .4 1.4 .6 2.2 .6c.5 -.1 1.1 -.2 1.5 -.6c.4 -.5 .9 -1.1 1.3 -2l-6.2 -13.6h2.2l5 11.4l4.3 -11.4h2.2L566.1 210c-.7 1.3 -1.2 2.4 -2 3c-.8 .5 -1.5 .9 -2.6 .9Zm12.3 -4.4l5.3 -6.9L574 195.9h2.3l4 5.3l4.1 -5.3h2.2l-5.1 6.6l5.3 7h-2.3L580.3 204l-4.3 5.5Zm32.9 0V195.9h6.6c1.2 0 2.4 .3 3.2 .9c.8 .6 1.2 1.5 1.2 2.6c0 1.4 -.7 2.6 -2.2 3.2c1.9 .5 2.9 1.7 2.9 3.3c0 1.1 -.4 2 -1.3 2.7c-1 .6 -2.1 .9 -3.6 .9Zm15.4 0V195.9h2.1v5.8H632v-5.8h2.1v13.6H632v-6h-7.8v6Zm71.8 4.4c-1 0 -1.9 -.3 -2.9 -.7l.7 -1.7c.6 .4 1.4 .6 2.1 .6c.6 -.1 1.2 -.2 1.6 -.6c.4 -.5 .8 -1.1 1.2 -2l-6.1 -13.6h2.2l4.9 11.4L702 195.9h2.2L698.4 210c-.6 1.3 -1.2 2.4 -1.9 3c-.8 .5 -1.5 .9 -2.6 .9Zm61 -4.4V195.9h2v7.8l7.5 -7.8h2.5l-5.7 5.9l5.8 7.7h-2.3l-4.9 -6.2l-2.9 2.9v3.3Zm-468.1 -.1V197.6h-4.9v-1.8h11.6v1.8h-4.6v11.8Zm116 0V195.8h11.7v13.6h-2.1V197.6h-7.6v11.8Zm49.4 0V197.6h-5v-1.8h11.7v1.8h-4.7v11.8Zm29.1 0V197.6h-4.9v-1.8H488v1.8h-4.6v11.8Zm60.4 3.5v-5.2h1.5c1.1 -2.3 1.8 -5.4 1.8 -9.5v-2.4h9.7v11.9h1.9v5.2h-1.9v-3.4h-11l-.3 3.4Zm113.9 -3.5V195.8h9.3v1.8h-7.3v11.8Zm51.9 0V195.8h11.7v13.6h-2.1V197.6h-7.6v11.8Zm29.5 3.5v-5.2h1.5c1.2 -2.3 1.9 -5.4 1.9 -9.5v-2.4h9.7v11.9H752v5.2h-1.9v-3.4h-11l-.4 3.4Zm-440.3 1v-18h2.1v2.9c1.3 -2.1 3.1 -3 5.2 -3c0 -.1 .1 -.1 .2 -.1c1.5 0 3 .7 4.3 2c1.2 1.2 1.9 3 1.9 5.1c0 2 -.6 3.8 -1.9 5.1c-1.4 1.3 -2.8 2 -4.5 2c-2.3 0 -3.9 -1 -5.2 -2.9v6.9Zm431.1 -4c-1.4 0 -2.5 -.4 -3.5 -1.2c-1.1 -.8 -1.5 -1.7 -1.5 -3.1c0 -1.4 .5 -2.5 1.5 -3.2c1 -.9 2.5 -1.2 4.3 -1.2c1.3 0 2.7 .2 4.1 .7v-.5c-.1 -1.3 -.4 -2.2 -1.1 -2.9c-.7 -.6 -1.6 -.9 -2.9 -.9c-1.4 0 -2.7 .3 -4.1 1l-.6 -1.7c1.6 -.9 3.3 -1.1 5 -1.1c0 -.1 .1 -.1 .2 -.1c1.8 0 3.2 .6 4.1 1.5c.9 1 1.5 2.3 1.5 4v8.3h-2.1v-2.1c-1.3 1.6 -2.8 2.5 -4.9 2.5Zm45.5 0c-1.4 0 -2.6 -.4 -3.5 -1.2c-1.1 -.8 -1.5 -1.7 -1.5 -3.1c0 -1.4 .5 -2.5 1.5 -3.2c1 -.9 2.5 -1.2 4.2 -1.2c1.4 0 2.8 .2 4.2 .7v-.5c-.1 -1.3 -.4 -2.2 -1.1 -2.9c-.7 -.6 -1.6 -.9 -2.9 -.9c-1.4 0 -2.7 .3 -4.1 1l-.6 -1.7c1.6 -.9 3.3 -1.1 4.9 -1.1c.1 -.1 .2 -.1 .3 -.1c1.8 0 3.2 .6 4.1 1.5c.9 1 1.4 2.3 1.4 4v8.3h-2v-2.1c-1.3 1.6 -2.9 2.5 -4.9 2.5Zm-453.3 0c-2 0 -3.5 -.7 -4.8 -2c-1.5 -1.5 -2 -3.1 -2 -5.2c0 -2 .6 -3.7 1.9 -5.1c1.2 -1.4 2.8 -2 4.7 -2c1.8 0 3.5 .7 4.6 2.1c1.1 1.3 1.8 3.1 1.8 5.2c0 .3 0 .6 -.1 .8H315.3c.1 1.3 .6 2.4 1.5 3.2c.8 .8 2 1.2 3.3 1.2c1.6 -.1 3.1 -.7 4.3 -1.9l1.3 1.1c-1.6 1.7 -3.4 2.6 -5.7 2.6Zm48.5 0c-2 0 -3.6 -.7 -4.9 -2c-1.4 -1.5 -1.9 -3.1 -1.9 -5.2c0 -2 .6 -3.7 1.8 -5.1c1.2 -1.4 2.9 -2 4.7 -2c1.9 0 3.6 .7 4.7 2.1c1.1 1.3 1.7 3.1 1.7 5.2c0 .3 0 .6 0 .8H363.7c.1 1.3 .7 2.4 1.6 3.2c.8 .8 2 1.2 3.3 1.2c1.5 -.1 3 -.7 4.3 -1.9l1.2 1.1c-1.6 1.7 -3.4 2.6 -5.6 2.6Zm71.3 0c-2 0 -3.6 -.7 -4.9 -2.1c-1.4 -1.5 -2 -3.1 -2 -5.1c0 -2 .6 -3.6 2 -5c1.3 -1.5 3 -2.1 4.9 -2.1c2 0 4 .8 5.5 2.4l-1.3 1.4c-1.3 -1.4 -2.6 -2 -4.2 -2c0 -.1 -.1 -.1 -.1 -.1c-1.4 0 -2.4 .6 -3.3 1.6c-1 1 -1.4 2.3 -1.4 3.8c-.1 1.4 .4 2.8 1.4 3.8c.9 .9 2.1 1.6 3.6 1.6c1.4 -.1 2.8 -.7 4.1 -2.1l1.3 1.2c-1.7 1.8 -3.4 2.7 -5.6 2.7Zm27.9 0c-2.1 0 -3.8 -.7 -5.1 -2.1c-1.4 -1.5 -2 -3.1 -2 -5.1c0 -2 .6 -3.6 2 -5c1.4 -1.5 3.1 -2.1 5.1 -2.1c2 0 3.8 .7 5.1 2c1.3 1.4 2.1 3.1 2.1 5.1c0 1.9 -.7 3.6 -2.1 5.1c-1.5 1.3 -3.1 2.1 -5.1 2.1Zm128.1 0c-2.1 0 -3.7 -.7 -5.1 -2.1c-1.4 -1.5 -2 -3.1 -2 -5.1c0 -2 .7 -3.6 2 -5c1.4 -1.5 3.1 -2.1 5.1 -2.1c2 0 3.8 .7 5.1 2c1.3 1.4 2.1 3.1 2.1 5.1c0 1.9 -.7 3.6 -2.1 5.1c-1.5 1.3 -3.1 2.1 -5.1 2.1Zm48.9 0c-2.1 0 -3.8 -.7 -5.1 -2.1c-1.4 -1.5 -2 -3.1 -2 -5.1c0 -2 .6 -3.6 2 -5c1.4 -1.5 3.1 -2.1 5.1 -2.1c2 0 3.8 .7 5.1 2c1.3 1.4 2.1 3.1 2.1 5.1c0 1.9 -.7 3.6 -2.1 5.1c-1.5 1.3 -3.1 2.1 -5.1 2.1Zm28.4 0c-2.1 0 -3.7 -.7 -5.1 -2.1c-1.4 -1.5 -2 -3.1 -2 -5.1c0 -2 .7 -3.6 2 -5c1.4 -1.5 3.1 -2.1 5.1 -2.1c2 0 3.8 .7 5.1 2c1.3 1.4 2.1 3.1 2.1 5.1c0 1.9 -.7 3.6 -2.1 5.1c-1.5 1.3 -3.1 2.1 -5.1 2.1Zm-288.9 -16c-1 0 -1.8 -.3 -2.4 -.9c-.8 -.7 -1.1 -1.5 -1.2 -2.5l1.3 -.3c.4 1.3 1.1 1.9 2.3 1.9c1.1 -.1 1.9 -.6 2.3 -1.9l1.4 .3c-.3 .9 -.6 1.8 -1.3 2.5c-.7 .6 -1.4 .9 -2.4 .9Zm163.7 -25c.9 0 1.7 -.2 2.2 -.5c.5 -.5 .9 -.9 .9 -1.6c0 -.6 -.3 -1.1 -.9 -1.4c-.6 -.5 -1.4 -.5 -2.5 -.5h-4.2v4Zm288.9 0c1 0 1.9 -.2 2.4 -.7c.6 -.5 .9 -1 .9 -1.9c0 -.9 -.3 -1.4 -.9 -1.8c-.6 -.5 -1.4 -.6 -2.4 -.6h-3.6v5ZM547.6 163.1c.7 0 1.5 -.2 2 -.6c.4 -.4 .7 -.9 .7 -1.7c0 -.6 -.2 -1 -.7 -1.4c-.6 -.3 -1.1 -.5 -2 -.5h-4.2v4.2Zm362.6 6.2c1.3 -.1 2.5 -.5 3.4 -1.5c.8 -1.1 1.4 -2.3 1.4 -3.7c0 -1.5 -.5 -2.7 -1.4 -3.7c-1 -1.1 -2.1 -1.5 -3.4 -1.5q-.1 0 -.2 0c-1.3 0 -2.4 .5 -3.2 1.5c-1 .9 -1.4 2.2 -1.4 3.7c0 1.4 .5 2.6 1.4 3.6c.9 1 2.1 1.6 3.4 1.6ZM340.4 163.9v-5h-4.2c-.1 0 -.2 0 -.3 0c-.9 0 -1.6 .2 -2.1 .6c-.6 .4 -.8 1.1 -.8 1.9c-.1 .6 .3 1.4 .9 1.8c.5 .4 1.4 .7 2.3 .7Zm346.5 0v-5h-4.3c-.1 0 -.2 0 -.2 0c-1 0 -1.6 .2 -2.2 .6c-.6 .4 -.8 1.1 -.8 1.9c0 .6 .3 1.4 .9 1.8c.5 .4 1.4 .7 2.4 .7Zm43 0v-5h-4.2c-.1 0 -.2 0 -.3 0c-.9 0 -1.6 .2 -2.1 .6c-.7 .4 -.8 1.1 -.8 1.9c-.1 .6 .3 1.4 .9 1.8c.5 .4 1.4 .7 2.3 .7Zm-421.6 5V158.7h-5.6v2c0 3.4 -.6 6.2 -1.7 8.2Zm93.5 0V158.7h-5.6v2c0 3.4 -.6 6.2 -1.7 8.2Zm231.4 .4c1.3 -.1 2.5 -.5 3.4 -1.5c.8 -1 1.4 -2.2 1.4 -3.8c0 -1.7 -.5 -2.8 -1.4 -3.8c-1 -1 -2.1 -1.5 -3.4 -1.5c-1.4 0 -2.4 .5 -3.4 1.5c-1 1 -1.5 2.3 -1.5 3.8c0 1.4 .5 2.8 1.5 3.8c.9 .9 2.1 1.5 3.4 1.5Zm118 0c1.3 -.1 2.5 -.5 3.4 -1.5c.8 -1 1.4 -2.2 1.4 -3.8c0 -1.7 -.5 -2.8 -1.4 -3.8c-1 -1 -2.1 -1.5 -3.4 -1.5c-1.4 0 -2.4 .5 -3.4 1.5c-1 1 -1.5 2.3 -1.5 3.8c0 1.4 .5 2.8 1.5 3.8c.9 .9 2.1 1.5 3.4 1.5Zm125.2 0c1.3 -.1 2.5 -.5 3.4 -1.5c.8 -1 1.4 -2.2 1.4 -3.8c0 -1.7 -.5 -2.8 -1.4 -3.8c-1 -1 -2.1 -1.5 -3.4 -1.5c-1.4 0 -2.4 .5 -3.4 1.5c-1 1 -1.5 2.3 -1.5 3.8c0 1.4 .5 2.8 1.5 3.8c.9 .9 2.1 1.5 3.4 1.5Zm-587.7 0c1.4 -.1 2.7 -.6 3.6 -1.6c.9 -1.1 1.5 -2.3 1.5 -3.8c-.1 -1.5 -.5 -2.7 -1.5 -3.8c-1 -1 -2.2 -1.6 -3.7 -1.6c0 0 -.1 0 -.1 0c-1.5 0 -2.6 .6 -3.5 1.6c-1 1 -1.4 2.3 -1.4 3.8c0 1.4 .5 2.8 1.5 3.8c.9 .9 2.2 1.6 3.6 1.6Zm290.7 0c1.4 -.1 2.7 -.6 3.6 -1.6c.9 -1.1 1.4 -2.3 1.4 -3.8c-.1 -1.5 -.5 -2.7 -1.5 -3.8c-1 -1 -2.1 -1.6 -3.6 -1.6c0 0 -.1 0 -.2 0c-1.4 0 -2.5 .6 -3.4 1.6c-1 1 -1.4 2.3 -1.4 3.8c0 1.4 .5 2.8 1.4 3.8c1 .9 2.2 1.6 3.7 1.6Zm313.8 0c1.4 -.1 2.7 -.6 3.6 -1.6c.9 -1.1 1.4 -2.3 1.4 -3.8c-.1 -1.5 -.5 -2.7 -1.5 -3.8c-1 -1 -2.1 -1.6 -3.6 -1.6c0 0 -.1 0 -.2 0c-1.4 0 -2.5 .6 -3.4 1.6c-1 1 -1.4 2.3 -1.4 3.8c0 1.4 .5 2.8 1.5 3.8c.9 .9 2.1 1.6 3.6 1.6Zm-510.6 0c1.4 -.1 2.6 -.6 3.4 -1.6c.8 -1.1 1.2 -2.3 1.2 -3.8c0 -1.6 -.4 -2.8 -1.3 -3.8c-.8 -1 -1.9 -1.6 -3.3 -1.6q-.1 0 -.2 0c-1.3 0 -2.3 .6 -3.1 1.6c-.9 1 -1.3 2.3 -1.3 3.8c0 1.5 .5 2.8 1.3 3.8c.8 .9 2 1.6 3.3 1.6ZM265.4 163.1c-.2 -1.3 -.5 -2.4 -1.3 -3.3c-.8 -.9 -1.7 -1.3 -3 -1.3c-.1 0 -.2 0 -.2 0c-1.2 0 -2 .5 -2.8 1.3c-.9 .8 -1.4 2 -1.5 3.3Zm388.3 0c-.2 -1.3 -.5 -2.4 -1.3 -3.3c-.8 -.9 -1.8 -1.3 -3.1 -1.3c0 0 -.1 0 -.1 0c-1.2 0 -2.1 .5 -2.9 1.3c-.9 .8 -1.3 2 -1.4 3.3Zm118 0c-.2 -1.3 -.5 -2.4 -1.3 -3.3c-.8 -.9 -1.8 -1.3 -3.1 -1.3c0 0 -.1 0 -.1 0c-1.2 0 -2.1 .5 -2.9 1.3c-.9 .8 -1.3 2 -1.4 3.3Zm175.4 0c-.2 -1.3 -.6 -2.4 -1.4 -3.3c-.8 -.9 -1.7 -1.3 -3 -1.3q-.1 0 -.2 0c-1.1 0 -2 .5 -2.8 1.3c-.9 .8 -1.3 2 -1.5 3.3Zm-632 7.6V157.1h2.1v5.8H325v-5.8h2.1v13.6H325v-6h-7.8v6Zm15.3 0l4.2 -5.3c-1.1 -.3 -2 -.7 -2.7 -1.4c-.7 -.8 -1 -1.6 -1 -2.7c0 -1.3 .4 -2.3 1.4 -3c.9 -.9 2.1 -1.2 3.8 -1.2h6.4v13.6h-2.1v-5h-3.7c-.2 .2 -.7 1 -1.7 2.2c-.9 1.2 -1.6 2.2 -2.1 2.8Zm23.9 .4c-.6 0 -1.1 -.1 -1.7 -.3l.3 -1.7c.3 .1 .7 .2 .9 .2c.3 -.1 .7 -.1 1 -.2c.1 -.1 .5 -.3 .8 -.8c.2 -.5 .5 -1 .6 -1.7c.2 -.9 .3 -1.9 .5 -3.3c0 -1.5 .1 -3.1 .1 -5.1v-1.1h9.7v13.7h-2.1V158.9h-5.5v.3c0 2.1 -.1 3.9 -.2 5.4c-.3 1.4 -.4 2.6 -.6 3.4c-.4 .8 -.6 1.5 -1.1 2c-.5 .3 -.8 .7 -1.2 .8c-.5 .1 -.9 .3 -1.5 .3Zm54.3 -.4V157.1h2.1v10.8l7.9 -10.8h2.1v13.6h-2.1V159.9l-8 10.8Zm24.5 0V157.1h2.1v10.8l8 -10.8h2v13.6h-2.1V159.9l-8 10.8Zm16.7 0V157.1h2v5.8h7.9v-5.8h2v13.6h-2v-6h-7.9v6Zm31.6 4.3c-1 0 -1.9 -.2 -2.9 -.6l.7 -1.7c.6 .4 1.3 .5 2.1 .5c.5 0 1.1 -.1 1.6 -.5c.3 -.5 .8 -1.1 1.2 -2l-6.2 -13.6h2.3l4.9 11.4l4.4 -11.4h2.1l-5.7 14.1c-.6 1.3 -1.2 2.4 -1.9 3c-.8 .5 -1.6 .8 -2.6 .8Zm13.5 -4.3V157.1H497v10.8l8 -10.8h2v13.6h-2.1V159.9l-8 10.8Zm29.8 0V157.1h2.1v10.8l7.9 -10.8h2.1v13.6h-2.1V159.9l-8 10.8Zm16.6 0V157.1h6.6c1.3 0 2.5 .3 3.3 .9c.7 .6 1.2 1.5 1.2 2.6c0 1.4 -.8 2.6 -2.3 3.2c1.9 .5 3 1.6 3 3.3c-.1 1.1 -.5 2 -1.4 2.6c-.9 .7 -2.1 1 -3.6 1Zm15.5 0V157.1h2v5.8h7.9v-5.8h2v13.6h-2v-6h-7.9v6Zm102.6 0V157.1h2l5.1 7.2l5 -7.2h2v13.6h-2.1V160.3l-5 6.9l-4.9 -6.9v10.4Zm17.4 0l4.2 -5.3c-1.1 -.3 -2 -.7 -2.7 -1.4c-.7 -.8 -1 -1.6 -1 -2.7c0 -1.3 .5 -2.3 1.4 -3c.9 -.9 2.2 -1.2 3.8 -1.2H689v13.6h-2.1v-5h-3.8c-.2 .2 -.7 1 -1.6 2.2c-1 1.2 -1.7 2.2 -2.2 2.8Zm43 0l4.3 -5.3c-1.1 -.3 -2 -.7 -2.7 -1.4c-.7 -.8 -1 -1.6 -1 -2.7c0 -1.3 .4 -2.3 1.4 -3c.9 -.9 2.1 -1.2 3.8 -1.2H732v13.6h-2.1v-5h-3.7c-.2 .2 -.7 1 -1.7 2.2c-1 1.2 -1.6 2.2 -2.1 2.8Zm57.6 0V157.1h2.1v11.8h6.6V157.1h2v11.8h6.6V157.1h2.1v13.6Zm23.9 0V157.1h2.1v10.8l8 -10.8h2v13.6h-2.1V159.9l-8 10.8Zm29.8 0V157.1h2.1v5h3.6c1.6 0 2.9 .3 3.9 1c.9 .7 1.5 1.7 1.5 3.1c-.1 1.3 -.5 2.5 -1.4 3.3c-1 .8 -2.2 1.2 -3.8 1.2Zm89.4 .4c-.6 0 -1.1 -.1 -1.7 -.3l.3 -1.7c.4 .1 .7 .2 1 .2c.2 -.1 .7 -.1 .9 -.2c.2 -.1 .5 -.3 .8 -.8c.3 -.5 .5 -1 .7 -1.7c.1 -.9 .3 -1.9 .4 -3.3c0 -1.5 .2 -3.1 .2 -5.1v-1.1h9.6v13.7h-2.1V158.9h-5.5v.3c0 2.1 -.1 3.9 -.2 5.4c-.2 1.4 -.4 2.6 -.6 3.4c-.3 .8 -.6 1.5 -1 2c-.5 .3 -.9 .7 -1.3 .8c-.5 .1 -.9 .3 -1.5 .3Zm32.2 -.4V157.1h2.1l5 7.2l5 -7.2h2v13.6h-2.1V160.3l-5 6.9l-4.9 -6.9v10.4Zm20.6 4.3c-.9 0 -1.9 -.2 -2.8 -.6l.6 -1.7c.6 .4 1.4 .5 2.2 .5c.5 0 1.1 -.1 1.5 -.5c.4 -.5 .9 -1.1 1.3 -2l-6.2 -13.6h2.2l5 11.4l4.3 -11.4h2.2l-5.7 14.1c-.7 1.3 -1.2 2.4 -1.9 3c-.9 .5 -1.6 .8 -2.7 .8ZM271.1 170.6V156.9h9.3v1.8h-7.2v11.9Zm26.2 3.4v-5.1h1.5c1.1 -2.3 1.8 -5.4 1.8 -9.6v-2.4h9.7v12h2V174h-2v-3.3h-11L299 174Zm93.5 0v-5.1h1.5c1.1 -2.3 1.8 -5.4 1.8 -9.6v-2.4h9.7v12h2V174h-2v-3.3h-11l-.3 3.3Zm78.6 -3.4V158.7h-4.9v-1.8h11.7v1.8h-4.7v11.9Zm45.4 0V158.7h-4.9v-1.8h11.6v1.8h-4.6v11.9Zm101.6 0V158.7h-4.9v-1.8h11.6v1.8h-4.6v11.9Zm80.2 0V158.7h-4.9v-1.8h11.6v1.8h-4.6v11.9Zm124.6 0V158.7h-4.9v-1.8h11.6v1.8h-4.6v11.9Zm32 0V156.9h11.7v13.7h-2.1V158.7h-7.5v11.9ZM626.3 175V157.1h2.1V160c1.3 -2.1 3.1 -3.1 5.2 -3.1q.1 0 .2 0c1.6 0 3.1 .7 4.3 2c1.3 1.2 2 3 2 5.1c-.1 2 -.7 3.8 -2 5.1c-1.3 1.3 -2.8 2 -4.5 2c-2.2 0 -3.9 -1 -5.2 -2.9V175Zm118 0V157.1h2.1V160c1.3 -2.1 3.1 -3.1 5.2 -3.1q.1 0 .2 0c1.6 0 3.1 .7 4.3 2c1.3 1.2 1.9 3 1.9 5.1c0 2 -.6 3.8 -1.9 5.1c-1.3 1.3 -2.8 2 -4.5 2c-2.2 0 -3.9 -1 -5.2 -2.9V175Zm125.2 0V157.1h2.1V160c1.3 -2.1 3.1 -3.1 5.2 -3.1c0 0 .1 0 .2 0c1.5 0 3.1 .7 4.3 2c1.2 1.2 1.9 3 1.9 5.1c0 2 -.6 3.8 -1.9 5.1c-1.3 1.3 -2.8 2 -4.5 2c-2.2 0 -3.9 -1 -5.2 -2.9V175ZM261.4 171.1c-2 0 -3.6 -.7 -4.9 -2c-1.4 -1.5 -2 -3.1 -2 -5.2c0 -2.1 .7 -3.7 1.9 -5.1c1.2 -1.4 2.8 -2.1 4.7 -2.1c1.9 0 3.5 .7 4.7 2.2c1 1.3 1.7 3.1 1.7 5.2c0 .3 0 .6 0 .8H256.6c.1 1.3 .7 2.4 1.6 3.2c.8 .8 2 1.2 3.2 1.2c1.6 -.1 3.1 -.7 4.4 -1.9l1.2 1.1c-1.6 1.7 -3.4 2.6 -5.6 2.6Zm27.2 0c-2 0 -3.7 -.7 -5 -2.1c-1.4 -1.5 -2.1 -3.1 -2.1 -5.1c0 -2 .7 -3.6 2.1 -5c1.3 -1.5 3.1 -2.2 5.1 -2.2c2 0 3.7 .7 5.1 2.1c1.3 1.4 2 3.1 2 5.1c0 1.9 -.7 3.6 -2 5c-1.5 1.4 -3.1 2.2 -5.2 2.2Zm94 0c-1.9 0 -3.4 -.6 -4.6 -1.8c-1.2 -1.3 -1.8 -2.7 -2 -4.6h-3v6h-2.1V157.1H373v5.8h3c.2 -1.8 .9 -3.2 2.1 -4.4c1.1 -1.2 2.7 -1.8 4.5 -1.8c2 0 3.6 .7 4.9 2.1c1.1 1.4 1.8 3.1 1.8 5.1c0 1.9 -.6 3.7 -1.9 5.1c-1.3 1.3 -2.8 2.1 -4.8 2.1Zm196.7 0c-2.1 0 -3.7 -.7 -5.1 -2.1c-1.3 -1.5 -2 -3.1 -2 -5.1c0 -2 .7 -3.6 2.1 -5c1.3 -1.5 3 -2.2 5.1 -2.2c1.9 0 3.7 .7 5.1 2.1c1.2 1.4 2 3.1 2 5.1c0 1.9 -.7 3.6 -2.1 5c-1.4 1.4 -3 2.2 -5.1 2.2Zm24.8 0c-2.1 0 -3.6 -.8 -5 -2.2c-1.3 -1.4 -2 -3 -2 -5c0 -2 .7 -3.6 2 -5c1.4 -1.5 3 -2.2 5 -2.2c2 0 3.9 .9 5.4 2.5l-1.2 1.4c-1.4 -1.4 -2.7 -2.1 -4.2 -2.1q-.1 0 -.2 0c-1.4 0 -2.4 .6 -3.3 1.6c-1 1 -1.4 2.3 -1.4 3.8c0 1.4 .5 2.8 1.4 3.8c.9 .9 2.2 1.6 3.6 1.6c1.4 -.1 2.8 -.7 4.1 -2.1l1.3 1.2c-1.6 1.8 -3.4 2.7 -5.5 2.7Zm45.6 0c-2 0 -3.6 -.7 -4.9 -2c-1.4 -1.5 -2 -3.1 -2 -5.2c0 -2.1 .6 -3.7 1.9 -5.1c1.2 -1.4 2.8 -2.1 4.7 -2.1c1.9 0 3.5 .7 4.7 2.2c1 1.3 1.7 3.1 1.7 5.2c0 .3 0 .6 0 .8H644.9c.1 1.3 .7 2.4 1.6 3.2c.8 .8 2 1.2 3.2 1.2c1.6 -.1 3.1 -.7 4.3 -1.9l1.3 1.1c-1.6 1.7 -3.4 2.6 -5.6 2.6Zm62.3 0c-2.1 0 -3.6 -.8 -5 -2.2c-1.3 -1.4 -2 -3 -2 -5c0 -2 .7 -3.6 2 -5c1.4 -1.5 3 -2.2 5 -2.2c2 0 3.9 .9 5.4 2.5l-1.3 1.4c-1.3 -1.4 -2.6 -2.1 -4.1 -2.1c-.1 0 -.2 0 -.2 0c-1.4 0 -2.4 .6 -3.3 1.6c-1 1 -1.4 2.3 -1.4 3.8c0 1.4 .5 2.8 1.4 3.8c.9 .9 2.2 1.6 3.6 1.6c1.4 -.1 2.8 -.7 4.1 -2.1l1.3 1.2c-1.6 1.8 -3.4 2.7 -5.5 2.7Zm55.7 0c-2 0 -3.6 -.7 -4.9 -2c-1.4 -1.5 -2 -3.1 -2 -5.2c0 -2.1 .6 -3.7 1.9 -5.1c1.2 -1.4 2.8 -2.1 4.7 -2.1c1.9 0 3.5 .7 4.7 2.2c1 1.3 1.7 3.1 1.7 5.2c0 .3 0 .6 0 .8H762.9c.1 1.3 .7 2.4 1.6 3.2c.8 .8 2 1.2 3.2 1.2c1.6 -.1 3.1 -.7 4.3 -1.9l1.3 1.1c-1.6 1.7 -3.4 2.6 -5.6 2.6Zm125.4 0c-2.1 0 -3.7 -.7 -5.1 -2.1c-1.3 -1.5 -2 -3.1 -2 -5.1c0 -2 .7 -3.6 2.1 -5c1.3 -1.5 3 -2.2 5.1 -2.2c1.9 0 3.7 .7 5.1 2.1c1.2 1.4 2 3.1 2 5.1c0 1.9 -.7 3.6 -2.1 5c-1.4 1.4 -3 2.2 -5.1 2.2Zm49.9 0c-2 0 -3.6 -.7 -4.9 -2c-1.4 -1.5 -1.9 -3.1 -1.9 -5.2c0 -2.1 .6 -3.7 1.8 -5.1c1.2 -1.4 2.9 -2.1 4.7 -2.1c1.9 0 3.6 .7 4.7 2.2c1.1 1.3 1.7 3.1 1.7 5.2c0 .3 0 .6 0 .8H938.2c.1 1.3 .7 2.4 1.6 3.2c.8 .8 2 1.2 3.2 1.2c1.6 -.1 3.1 -.7 4.4 -1.9l1.2 1.1c-1.6 1.7 -3.4 2.6 -5.6 2.6Zm-698.4 0c-2.7 0 -4.8 -1 -6.6 -2.8c-1.8 -2 -2.6 -4.2 -2.6 -6.9c0 -2.7 .9 -5 2.7 -6.8c1.6 -2 3.9 -2.8 6.6 -2.8c1.5 0 2.9 .2 3.9 .7c1 .5 2.2 1.2 3.2 2.1l-1.4 1.6c-1.8 -1.8 -3.7 -2.6 -5.8 -2.6c0 0 -.1 0 -.1 0c-2.1 0 -3.6 .8 -5 2.2c-1.4 1.5 -2 3.4 -2 5.6c0 2.2 .7 4.1 2.1 5.6c1.3 1.4 3 2.3 5 2.3c1.2 -.1 2.3 -.3 3.2 -.7c.9 -.5 1.8 -1.2 2.8 -2.1L252 168c-1.2 .9 -2.2 1.8 -3.3 2.3c-1.2 .4 -2.5 .8 -4.1 .8Zm665.6 0c-2.2 0 -3.8 -.7 -5 -2.1c-1.3 -1.5 -1.9 -3.3 -1.9 -5.7c0 -.9 0 -1.6 0 -2.2c0 -.6 .1 -1.3 .2 -2.1c.1 -.8 .3 -1.3 .5 -1.9c.1 -.5 .5 -1 .9 -1.6c.3 -.5 .8 -.9 1.4 -1.3c.5 -.4 1.2 -.6 2 -.8l7.6 -1.8l.4 1.7l-7.3 1.9c-1.5 .3 -2.3 .9 -2.9 1.7c-.6 .7 -.9 1.9 -1.1 3.3c1.2 -2.1 3 -3.1 5.6 -3.1c1.7 0 3.3 .7 4.6 2c1.2 1.3 1.9 3 1.9 4.8c-.1 1.9 -.7 3.7 -2 5.1c-1.4 1.3 -3 2.1 -4.9 2.1Z"/></clipPath>
<clipPath id="c4_19"><path d="M1166.5 283.8v-4.2h4.2v4.2Zm-338.4 -3c1.1 0 1.8 -.4 1.8 -1.3c0 -1 -.6 -1.3 -1.9 -1.3h-3.1v2.6Zm145.3 0c1.2 0 1.9 -.4 1.9 -1.3c0 -1 -.7 -1.3 -2 -1.3h-3.1v2.6Zm130.2 0c1.2 0 1.9 -.4 1.9 -1.3c0 -1 -.7 -1.3 -2 -1.3h-3.1v2.6Zm-315.8 .7c.8 0 1.6 -.2 2.1 -.7c.5 -.5 .9 -1 .9 -1.7v-.7c-.8 -.4 -1.6 -.6 -2.5 -.6c-.9 0 -1.5 .2 -1.9 .5c-.6 .3 -.7 .9 -.7 1.5c-.1 .4 .2 .9 .5 1.2c.4 .3 .9 .5 1.6 .5Zm329.9 0c.8 0 1.6 -.2 2.1 -.7c.5 -.5 .8 -1 .8 -1.7v-.7c-.7 -.4 -1.5 -.6 -2.4 -.6c-.9 0 -1.5 .2 -1.9 .5c-.6 .3 -.7 .9 -.7 1.5c-.1 .4 .2 .9 .5 1.2c.4 .3 .9 .5 1.6 .5Zm33.3 -.7c1.3 0 2 -.5 2 -1.7c0 -.6 -.1 -.9 -.5 -1.2c-.4 -.3 -.9 -.4 -1.6 -.4h-2.6v3.3Zm-268.7 -.1c1 0 1.8 -.3 2.4 -1c.6 -.7 .9 -1.5 .9 -2.6c0 -1.1 -.3 -1.8 -.9 -2.5c-.7 -.8 -1.5 -1.1 -2.5 -1.1c-1 0 -1.7 .4 -2.4 1.1c-.7 .6 -.9 1.5 -.9 2.5c-.1 1 .3 1.9 1 2.6c.5 .6 1.4 1 2.4 1Zm186.5 0c1 0 1.8 -.3 2.4 -1c.6 -.7 .9 -1.5 .9 -2.6c0 -1.1 -.3 -1.8 -.9 -2.5c-.7 -.8 -1.5 -1.1 -2.5 -1.1c-1.1 0 -1.8 .4 -2.4 1.1c-.7 .6 -.9 1.5 -.9 2.5c-.1 1 .3 1.9 .9 2.6c.6 .6 1.5 1 2.5 1Zm-169.3 0c1.1 0 2 -.3 2.7 -1.1c.5 -.8 1 -1.7 1 -2.8c0 -1 -.4 -1.9 -1.1 -2.7c-.8 -.8 -1.6 -1.1 -2.6 -1.1c-.1 0 -.1 -.1 -.2 -.1c-1.1 0 -1.9 .5 -2.5 1.2c-.8 .6 -1 1.6 -1 2.7c-.1 1.1 .3 2 1 2.8c.6 .7 1.6 1.1 2.7 1.1Zm89.6 0c1.1 0 2 -.3 2.6 -1.1c.6 -.8 1 -1.7 1 -2.8c0 -1 -.3 -1.9 -1 -2.7c-.8 -.8 -1.6 -1.1 -2.7 -1.1c0 0 -.1 -.1 -.1 -.1c-1.1 0 -1.9 .5 -2.5 1.2c-.8 .6 -1 1.6 -1 2.7c-.1 1.1 .3 2 1 2.8c.6 .7 1.6 1.1 2.7 1.1Zm96.9 0c1.1 0 2 -.3 2.6 -1.1c.6 -.8 1 -1.7 1 -2.8c0 -1 -.3 -1.9 -1 -2.7c-.8 -.8 -1.6 -1.1 -2.7 -1.1c0 0 -.1 -.1 -.1 -.1c-1.1 0 -1.9 .5 -2.5 1.2c-.8 .6 -1 1.6 -1 2.7c-.1 1.1 .3 2 1 2.8c.6 .7 1.6 1.1 2.7 1.1Zm-50.7 .1c.9 0 1.8 -.3 2.5 -1.1c.6 -.8 1 -1.7 1 -2.8c0 -1.2 -.3 -2.1 -1 -2.9c-.8 -.7 -1.5 -1 -2.5 -1c-.1 0 -.1 -.1 -.1 -.1c-1 0 -1.8 .4 -2.4 1.1c-.8 .7 -1 1.7 -1 2.9c-.1 1.1 .3 2.1 1 2.8c.6 .7 1.5 1.1 2.5 1.1Zm-292.4 -5c-.1 -.9 -.4 -1.6 -.9 -2.1c-.6 -.6 -1.2 -.9 -2.1 -.9c-.8 0 -1.5 .3 -2 .9c-.5 .4 -.9 1.2 -1 2.1Zm84.7 -.3c.5 0 1 -.1 1.3 -.4c.2 -.3 .4 -.6 .4 -1c0 -.4 -.1 -.6 -.4 -.9c-.4 -.2 -.7 -.4 -1.2 -.4h-2.8v2.7Zm32.8 .3c-.2 -.9 -.4 -1.6 -.9 -2.1c-.6 -.6 -1.2 -.9 -2.1 -.9c-.8 0 -1.4 .3 -2 .9c-.6 .4 -.9 1.2 -1 2.1Zm75.1 0c-.2 -.9 -.5 -1.6 -1 -2.1c-.5 -.6 -1.2 -.9 -2 -.9c-.9 0 -1.5 .3 -2.1 .9c-.5 .4 -.9 1.2 -1 2.1Zm16.1 0c-.1 -.9 -.4 -1.6 -.9 -2.1c-.6 -.6 -1.3 -.9 -2.1 -.9c-.8 0 -1.5 .3 -2 .9c-.6 .4 -.9 1.2 -1.1 2.1Zm21.4 -.3c.5 0 .9 -.1 1.2 -.4c.2 -.3 .5 -.6 .5 -1c-.1 -.4 -.2 -.6 -.4 -.9c-.4 -.2 -.7 -.4 -1.2 -.4h-2.9v2.7Zm82 .3c-.1 -.9 -.4 -1.6 -1 -2.1c-.5 -.6 -1.2 -.9 -2 -.9c-.8 0 -1.5 .3 -2 .9c-.6 .4 -.9 1.2 -1.1 2.1Zm48.2 -.3c.5 0 .9 -.1 1.2 -.4c.2 -.3 .4 -.6 .4 -1c0 -.4 -.1 -.6 -.4 -.9c-.3 -.2 -.6 -.4 -1.2 -.4h-2.8v2.7Zm-353.5 8.3V269.9h4V278l5.4 -8.1H763v13.9h-4v-8.1l-5.5 8.1Zm25.1 0V279c-1.3 .6 -2.5 .9 -3.8 .9c-1.5 0 -2.6 -.4 -3.5 -1.2c-1 -.8 -1.4 -1.9 -1.4 -3.3v-5.5H770v4.3c-.1 1.5 .7 2.3 2 2.3c.9 0 1.9 -.2 2.8 -.7v-5.9h3.9v13.9Zm46.1 0V269.9h7.7c1.4 0 2.5 .3 3.4 .9c.8 .6 1.2 1.5 1.2 2.6c0 1.4 -.7 2.6 -2.1 3.2c1.8 .5 2.8 1.7 2.8 3.5c-.1 1.1 -.5 2.1 -1.5 2.7c-1 .7 -2.2 1 -3.8 1Zm145.4 0V269.9h7.6c1.5 0 2.6 .3 3.4 .9c.9 .6 1.3 1.5 1.3 2.6c0 1.4 -.7 2.6 -2.1 3.2c1.7 .5 2.7 1.7 2.7 3.5c-.1 1.1 -.5 2.1 -1.4 2.7c-1 .7 -2.2 1 -3.8 1Zm130.2 0V269.9h7.6c1.5 0 2.6 .3 3.4 .9c.8 .6 1.3 1.5 1.3 2.6c0 1.4 -.7 2.6 -2.1 3.2c1.7 .5 2.7 1.7 2.7 3.5c-.1 1.1 -.5 2.1 -1.4 2.7c-1 .7 -2.2 1 -3.8 1Zm31.4 0V269.9h3.9v5.2h5.1v-5.2h3.9v13.9h-3.9v-5.3h-5.1v5.3Zm16.5 0V269.9h3.9v4.6h3c1.6 0 3.1 .4 4.1 1.2c1 .7 1.6 1.9 1.6 3.4c-.1 1.4 -.5 2.6 -1.5 3.5c-1 .8 -2.3 1.2 -4 1.2Zm14.3 0V269.9h4v13.9Zm-141.1 0V273.2h-4.3v-3.4h12.3v3.4h-4v10.6Zm-231.1 .4c-1.4 0 -2.5 -.4 -3.4 -1.2c-.9 -.8 -1.4 -1.8 -1.4 -3.1c0 -1.5 .5 -2.6 1.5 -3.3c1 -.8 2.4 -1.1 4.1 -1.1c1.1 0 2.3 .2 3.5 .6v-.3c-.1 -1.8 -1 -2.6 -3 -2.6c-1.2 0 -2.5 .2 -3.8 .8l-1 -3.1c1.6 -.8 3.5 -1.1 5.4 -1.1c.1 -.1 .3 -.1 .4 -.1c1.9 0 3.4 .6 4.4 1.6c.9 1 1.5 2.5 1.5 4.5v8.1h-3.9v-1.5c-1.1 1.1 -2.5 1.8 -4.3 1.8Zm329.9 0c-1.4 0 -2.5 -.4 -3.4 -1.2c-.9 -.8 -1.4 -1.8 -1.4 -3.1c0 -1.5 .5 -2.6 1.5 -3.3c1 -.8 2.4 -1.1 4.1 -1.1c1.1 0 2.3 .2 3.4 .6v-.3c0 -1.8 -.9 -2.6 -2.9 -2.6c-1.2 0 -2.5 .2 -3.8 .8l-1 -3.1c1.6 -.8 3.5 -1.1 5.4 -1.1c.1 -.1 .3 -.1 .4 -.1c1.9 0 3.4 .6 4.4 1.6c.9 1 1.5 2.5 1.5 4.5v8.1h-4v-1.5c-1 1.1 -2.4 1.8 -4.2 1.8Zm50.1 -10.3v-4.2h4.2v4.2ZM740.3 284.2c-2.2 0 -3.9 -.7 -5.3 -2.1c-1.4 -1.4 -2.1 -3.1 -2.1 -5.3c0 -2 .7 -3.7 2 -5.2c1.2 -1.4 3 -2.1 5 -2.1c2.3 0 4 .8 5.2 2.2c1.1 1.4 1.8 3.3 1.8 5.4c0 .1 -.1 .6 -.1 1.1h-9.9c.2 .8 .6 1.5 1.2 2c.5 .3 1.4 .6 2.3 .6c1.2 0 2.4 -.4 3.4 -1.4l2.3 2c-1.5 1.8 -3.3 2.8 -5.8 2.8Zm64.4 0c-2.2 0 -3.9 -.7 -5.3 -2.2c-1.4 -1.4 -2.1 -3.1 -2.1 -5.2c0 -2 .7 -3.7 2.1 -5.1c1.4 -1.5 3.2 -2.2 5.3 -2.2c2.2 0 4.1 .8 5.6 2.5l-2.3 2.3c-1 -.9 -2.1 -1.3 -3.3 -1.3c-.1 0 -.1 -.1 -.1 -.1c-1 0 -1.7 .5 -2.4 1.2c-.7 .7 -.9 1.7 -.9 2.7c-.1 1.1 .3 2.1 .9 2.8c.6 .7 1.6 1.1 2.6 1.1c1.1 0 2.2 -.5 3.3 -1.5l2.3 2.4c-.8 .8 -1.6 1.5 -2.5 1.9c-.9 .4 -1.9 .7 -3.2 .7Zm38.7 0c-2.1 0 -3.9 -.7 -5.2 -2.2c-1.5 -1.4 -2.1 -3.1 -2.1 -5.2c0 -2 .7 -3.7 2.1 -5.1c1.3 -1.5 3.1 -2.2 5.3 -2.2c2.2 0 4.1 .8 5.6 2.5l-2.4 2.3c-1 -.9 -2.1 -1.3 -3.3 -1.3c0 0 0 -.1 -.1 -.1c-.9 0 -1.7 .5 -2.3 1.2c-.8 .7 -1 1.7 -1 2.7c-.1 1.1 .3 2.1 1 2.8c.6 .7 1.5 1.1 2.6 1.1c1 0 2.2 -.5 3.2 -1.5l2.4 2.4c-.8 .8 -1.6 1.5 -2.5 1.9c-1 .4 -2 .7 -3.3 .7Zm14.6 0c-2.2 0 -3.9 -.7 -5.3 -2.1c-1.5 -1.4 -2.1 -3.1 -2.1 -5.3c0 -2 .6 -3.7 2 -5.2c1.2 -1.4 3 -2.1 5 -2.1c2.2 0 4 .8 5.2 2.2c1.1 1.4 1.7 3.3 1.7 5.4c0 .1 0 .6 0 1.1H854.4c.2 .8 .6 1.5 1.2 2c.6 .3 1.4 .6 2.3 .6c1.3 0 2.4 -.4 3.5 -1.4l2.4 2c-1.5 1.8 -3.4 2.8 -5.8 2.8Zm41.4 0c-2.2 0 -3.9 -.7 -5.4 -2.1c-1.5 -1.5 -2.2 -3.2 -2.2 -5.3c0 -2 .8 -3.7 2.2 -5.2c1.4 -1.4 3.3 -2.1 5.5 -2.1c2.2 0 4 .7 5.4 2.1c1.4 1.4 2.2 3.2 2.2 5.2c-.1 2.1 -.7 3.8 -2.2 5.2c-1.5 1.4 -3.3 2.2 -5.5 2.2Zm10.5 -.4c-.7 0 -1.4 -.1 -2 -.2l.2 -3.3c.3 0 .7 .1 .9 .1c.4 -.1 .8 -.1 1.1 -.3c.1 -.3 .5 -.7 .7 -1.4c.1 -.8 .3 -1.8 .3 -3.3c0 -1.5 0 -3.4 0 -5.9h11.4v14.2h-4V273h-3.4c-.1 1.8 -.1 3.4 -.2 4.7c-.2 1.2 -.4 2.3 -.6 3.1c-.3 .7 -.6 1.5 -1 1.9c-.5 .4 -1 .7 -1.5 .9c-.5 .1 -1.1 .2 -1.9 .2Zm23 .4c-2.2 0 -4 -.7 -5.4 -2.1c-1.4 -1.4 -2.1 -3.1 -2.1 -5.3c0 -2 .7 -3.7 2 -5.2c1.2 -1.4 3 -2.1 5.1 -2.1c2.2 0 3.9 .8 5.1 2.2c1.1 1.4 1.8 3.3 1.8 5.4c0 .1 0 .6 -.1 1.1h-9.9c.2 .8 .6 1.5 1.2 2c.6 .3 1.4 .6 2.3 .6c1.2 0 2.4 -.4 3.5 -1.4l2.3 2c-1.5 1.8 -3.4 2.8 -5.8 2.8Zm16.1 0c-2.2 0 -3.9 -.7 -5.3 -2.1c-1.5 -1.4 -2.1 -3.1 -2.1 -5.3c0 -2 .6 -3.7 2 -5.2c1.2 -1.4 3 -2.1 5 -2.1c2.2 0 4 .8 5.2 2.2c1.1 1.4 1.7 3.3 1.7 5.4c0 .1 0 .6 0 1.1h-9.9c.2 .8 .6 1.5 1.2 2c.5 .3 1.3 .6 2.3 .6c1.2 0 2.4 -.4 3.4 -1.4l2.3 2c-1.5 1.8 -3.3 2.8 -5.8 2.8Zm40 0c-2.2 0 -4 -.7 -5.4 -2.1c-1.5 -1.5 -2.2 -3.2 -2.2 -5.3c0 -2 .8 -3.7 2.2 -5.2c1.4 -1.4 3.3 -2.1 5.5 -2.1c2.2 0 4 .7 5.4 2.1c1.4 1.4 2.2 3.2 2.2 5.2c-.1 2.1 -.8 3.8 -2.2 5.2c-1.5 1.4 -3.3 2.2 -5.5 2.2Zm17.3 0c-2.2 0 -3.9 -.7 -5.3 -2.2c-1.4 -1.4 -2.1 -3.1 -2.1 -5.2c0 -2 .7 -3.7 2.1 -5.1c1.4 -1.5 3.2 -2.2 5.3 -2.2c2.2 0 4.1 .8 5.6 2.5l-2.3 2.3c-1 -.9 -2.1 -1.3 -3.3 -1.3c-.1 0 -.1 -.1 -.1 -.1c-1 0 -1.7 .5 -2.4 1.2c-.7 .7 -.9 1.7 -.9 2.7c-.1 1.1 .3 2.1 .9 2.8c.6 .7 1.6 1.1 2.6 1.1c1.1 0 2.2 -.5 3.3 -1.5l2.3 2.4c-.8 .8 -1.6 1.5 -2.5 1.9c-.9 .4 -1.9 .7 -3.2 .7Zm21.5 4V269.9h4v2c1 -1.6 2.6 -2.4 4.4 -2.4c1.8 0 3.4 .7 4.6 2c1.3 1.2 2 3.1 2 5.4c-.1 2.3 -.7 4.1 -1.9 5.4c-1.3 1.3 -2.9 2 -4.7 2c-1.8 -.1 -3.2 -.7 -4.4 -2.2v6.1Zm24.6 -4c-2.2 0 -3.9 -.7 -5.3 -2.1c-1.5 -1.4 -2.1 -3.1 -2.1 -5.3c0 -2 .6 -3.7 1.9 -5.2c1.3 -1.4 3.1 -2.1 5.1 -2.1c2.2 0 4 .8 5.1 2.2c1.2 1.4 1.8 3.3 1.8 5.4c0 .1 0 .6 0 1.1H1049c.2 .8 .6 1.5 1.2 2c.5 .3 1.3 .6 2.2 .6c1.2 0 2.5 -.4 3.5 -1.4l2.3 2c-1.5 1.8 -3.4 2.8 -5.8 2.8Zm33.5 0c-2.2 0 -4 -.7 -5.4 -2.1c-1.5 -1.5 -2.2 -3.2 -2.2 -5.3c0 -2 .8 -3.7 2.2 -5.2c1.4 -1.4 3.3 -2.1 5.5 -2.1c2.2 0 4 .7 5.4 2.1c1.4 1.4 2.2 3.2 2.2 5.2c-.1 2.1 -.7 3.8 -2.2 5.2c-1.5 1.4 -3.3 2.2 -5.5 2.2Zm-362.6 0c-2.8 0 -5 -1 -6.8 -2.8c-1.8 -1.9 -2.7 -4 -2.7 -6.7c0 -2.7 .9 -4.9 2.7 -6.8c1.8 -1.8 4.1 -2.7 6.9 -2.7c1.6 0 3 .2 4.1 .8c1.1 .4 2.1 1.2 3.1 2.1l-2.4 2.8c-.8 -.7 -1.5 -1.2 -2.2 -1.6c-.8 -.3 -1.6 -.4 -2.5 -.4c-1.6 0 -2.9 .5 -3.9 1.6c-1 1.2 -1.5 2.5 -1.5 4.2c0 1.5 .5 3 1.5 4.1c1 1 2.3 1.7 3.9 1.7c.9 0 1.8 -.2 2.5 -.5c.6 -.4 1.5 -.9 2.3 -1.7l2.6 2.8c-1.1 1 -2.1 1.8 -3.3 2.3c-1.2 .4 -2.6 .8 -4.3 .8Zm159 0c-2.5 0 -4.2 -.8 -5.5 -2.2c-1.3 -1.5 -1.8 -3.5 -1.8 -6.1c0 -1 0 -1.8 .1 -2.6c0 -.8 .2 -1.5 .4 -2.3c.2 -.9 .6 -1.6 1 -2.1c.3 -.6 1 -1.2 1.7 -1.6c.7 -.5 1.6 -.8 2.6 -1l7.5 -1.4l.6 3.2l-7.6 1.4c-2.1 .5 -3.3 1.6 -3.4 3.3c.2 -.7 .9 -1.1 1.8 -1.6c.9 -.5 2 -.7 3.3 -.7c1.8 0 3.3 .7 4.6 1.9c1.3 1.2 2 2.9 2 4.8c0 1.8 -.7 3.6 -2.1 4.9c-1.5 1.3 -3.1 2.1 -5.2 2.1Zm186.4 0c-2.4 0 -4.1 -.8 -5.4 -2.2c-1.3 -1.5 -1.9 -3.5 -1.9 -6.1c0 -1 .1 -1.8 .1 -2.6c.1 -.8 .3 -1.5 .5 -2.3c.2 -.9 .6 -1.6 1 -2.1c.3 -.6 .9 -1.2 1.7 -1.6c.6 -.5 1.6 -.8 2.6 -1l7.5 -1.4l.6 3.2l-7.6 1.4c-2.2 .5 -3.3 1.6 -3.4 3.3c.2 -.7 .9 -1.1 1.8 -1.6c.8 -.5 2 -.7 3.2 -.7c1.8 0 3.4 .7 4.7 1.9c1.3 1.2 2 2.9 2 4.8c0 1.8 -.7 3.6 -2.1 4.9c-1.5 1.3 -3.2 2.1 -5.3 2.1Zm-216.1 -16v-3.4h4v3.4Zm5.7 0v-3.4h3.9v3.4Zm-101.8 .3c-1.3 0 -2.3 -.3 -3.1 -1c-.8 -.8 -1.2 -1.7 -1.4 -3l2.4 -.4c.3 1.1 1 1.8 2.1 1.8c.9 0 1.7 -.6 2 -1.8l2.4 .4c-.3 1.3 -.7 2.3 -1.4 3c-.9 .6 -1.8 1 -3 1Z"/></clipPath>
<clipPath id="c5_19"><path d="M803.4 408.2c-18.3 0 -33.2 -14.9 -33.2 -33.3v-8.4c0 -18.4 14.9 -33.3 33.2 -33.3h335.9c18.3 0 33.2 14.9 33.2 33.3v41.7Z"/></clipPath>
<clipPath id="c6_19"><path d="M910.1 375.5c1.5 0 2.4 -.5 2.4 -1.7c0 -1.2 -.8 -1.7 -2.6 -1.7h-4v3.4Zm81.3 0c1.6 0 2.4 -.7 2.4 -2c0 -1.4 -.8 -2 -2.4 -2h-3.9v4Zm-66 0c1.7 0 2.6 -.7 2.6 -2.2c0 -1.5 -.9 -2.2 -2.6 -2.2h-3.1v4.4Zm97.5 -3.6l-2.1 -5.2l-2 5.2Zm-166.5 3.6c1.3 0 2.5 -.5 3.3 -1.4c.9 -1 1.3 -2.1 1.3 -3.4c-.1 -1.4 -.4 -2.5 -1.3 -3.4c-.9 -1 -2 -1.4 -3.4 -1.4c-1.4 0 -2.4 .4 -3.3 1.3c-1 1 -1.3 2.1 -1.3 3.5c0 1.3 .5 2.5 1.3 3.4c.8 .8 2 1.4 3.4 1.4Zm17.8 -4.6c.8 0 1.5 -.2 2 -.7c.5 -.5 .8 -1.1 .8 -1.9c0 -.8 -.3 -1.4 -.8 -1.8c-.6 -.5 -1.2 -.6 -2.1 -.6h-2.8v5Zm16.7 4.6c1.4 0 2.5 -.5 3.4 -1.4c.8 -1 1.3 -2.1 1.3 -3.4c-.1 -1.4 -.5 -2.5 -1.4 -3.4c-.8 -1 -2 -1.4 -3.3 -1.4c-1.5 0 -2.5 .4 -3.3 1.3c-1 1 -1.3 2.1 -1.3 3.5c0 1.3 .4 2.5 1.3 3.4c.8 .8 2 1.4 3.3 1.4Zm81.7 0c1.3 0 2.4 -.5 3.3 -1.4c.9 -1 1.3 -2.1 1.3 -3.4c-.1 -1.4 -.4 -2.5 -1.3 -3.4c-.9 -1 -2 -1.4 -3.4 -1.4c-1.4 0 -2.4 .4 -3.3 1.3c-1 1 -1.3 2.1 -1.3 3.5c0 1.3 .4 2.5 1.3 3.4c.8 .8 2 1.4 3.4 1.4Zm34 -4.6c.8 0 1.5 -.2 2 -.7c.5 -.5 .8 -1.1 .8 -1.9c0 -.8 -.3 -1.4 -.8 -1.8c-.6 -.5 -1.2 -.6 -2.1 -.6h-2.8v5Zm-166.1 4.6v-9.7h-4.6v1.6c0 3 -.5 5.8 -1.3 8.1ZM909 369.2c1.6 0 2.5 -.6 2.5 -1.7c0 -.7 -.2 -1 -.6 -1.3c-.4 -.3 -.9 -.4 -1.6 -.4h-3.4v3.4Zm-41 9.3V362.9h6.4c1.8 0 3.3 .5 4.3 1.5c1.1 .9 1.6 2.3 1.6 3.9c-.1 1.7 -.6 3.1 -1.8 4.1c-1.2 .9 -2.7 1.4 -4.5 1.4h-2.7v4.7Zm132.4 0V362.9h6.4c1.8 0 3.3 .5 4.3 1.5c1.1 .9 1.6 2.3 1.6 3.9c-.1 1.7 -.6 3.1 -1.8 4.1c-1.2 .9 -2.7 1.4 -4.5 1.4h-2.7v4.7Zm-170.9 3.3v-6.3h1.4c.6 -1.4 1 -2.9 1.3 -4.5c.1 -1.7 .3 -3.7 .3 -6.3v-1.8h11.3v12.6h1.9l-.4 6.3h-2.9v-3.3h-9.5v3.3Zm73.1 -3.3V362.9h7.1c1.8 0 3.2 .4 4.1 1.3c.6 .7 1 1.7 1 2.8c-.1 1.4 -.6 2.6 -1.8 3.4c.9 .3 1.6 .8 2.1 1.4c.4 .5 .8 1.4 .8 2.4c-.2 1.4 -.6 2.5 -1.6 3.2c-1.1 .7 -2.5 1.1 -4.3 1.1Zm16.4 0V362.9h3.3v5.3h3.3c1.7 0 3.2 .4 4.2 1.4c1 .9 1.5 2.1 1.5 3.7c-.1 1.5 -.5 2.8 -1.6 3.8c-1 .8 -2.4 1.4 -4.2 1.4Zm14.3 0V362.9h3.3v15.6Zm7.4 0V362.9H944v10.2l6.9 -10.2H954v15.6h-3.3V368.2l-6.8 10.3Zm43.5 0V362.9h11.9v2.9h-8.6v2.8h4.2c1.7 0 3.1 .4 4 1.3c.9 .9 1.5 2.1 1.5 3.6c-.2 1.5 -.6 2.8 -1.6 3.7c-1 .9 -2.4 1.3 -4.2 1.3Zm67.2 0l6.1 -8.9l-5.9 -6.7h4.1l6.2 7.3v-7.3h3.3v7.3l6.2 -7.3h4.1l-5.9 6.7l6.1 8.9h-4.1l-4.4 -6.4l-2 2.2v4.2h-3.3v-4.2l-2.1 -2.2l-4.3 6.4Zm27.1 0V362.9h3.3v10.2l6.9 -10.2h3.1v15.6h-3.3V368.2l-6.8 10.3Zm32.5 0V362.9h3.3v5.9h6.3v-5.9h3.3v15.6h-3.3v-6.3h-6.3v6.3Zm17.3 0V362.9h3.3v10.2l6.8 -10.2h3.2v15.6h-3.3V368.2l-6.9 10.3Zm-306.6 .3c-1.6 0 -2.8 -.2 -3.9 -.6c-1.1 -.4 -2 -1.1 -2.9 -1.9l1.8 -2.4c1.3 1.3 3 2 4.9 2c.8 0 1.4 -.2 1.9 -.5c.4 -.4 .7 -.8 .7 -1.4c0 -.7 -.2 -1.1 -.8 -1.4c-.6 -.3 -1.3 -.5 -2.2 -.5h-1.8v-2.9h1.8c1.7 0 2.7 -.6 2.7 -1.9c0 -.6 -.2 -1 -.7 -1.3c-.5 -.4 -1 -.5 -1.8 -.5c-1.7 0 -3 .6 -4.2 1.8l-1.8 -2.2c1.6 -1.8 3.7 -2.5 6.3 -2.5c1.6 0 3 .4 4 1.2c1 .7 1.5 1.8 1.5 3c-.1 1.6 -.8 2.9 -2.5 3.6c1.9 .6 2.9 1.9 2.9 3.7c-.1 1.3 -.6 2.5 -1.6 3.4c-1.1 .9 -2.5 1.3 -4.3 1.3Zm215.4 0c-1.6 0 -2.9 -.2 -3.9 -.6c-1.1 -.4 -2 -1.1 -2.9 -1.9l1.8 -2.4c1.3 1.3 3 2 4.9 2c.8 0 1.4 -.2 1.9 -.5c.4 -.4 .7 -.8 .7 -1.4c0 -.7 -.2 -1.1 -.8 -1.4c-.6 -.3 -1.3 -.5 -2.2 -.5h-1.8v-2.9h1.7c1.8 0 2.8 -.6 2.8 -1.9c0 -.6 -.2 -1 -.7 -1.3c-.6 -.4 -1.1 -.5 -1.8 -.5c-1.7 0 -3.1 .6 -4.2 1.8l-1.8 -2.2c1.6 -1.8 3.7 -2.5 6.2 -2.5q.1 0 .1 0c1.6 0 2.9 .4 4 1.2c1 .7 1.5 1.8 1.5 3c-.1 1.6 -.8 2.9 -2.5 3.6c1.8 .6 2.8 1.9 2.8 3.7c-.1 1.3 -.5 2.5 -1.5 3.4c-1.1 .9 -2.5 1.3 -4.3 1.3Zm64.4 0c-1.6 0 -2.9 -.2 -3.9 -.6c-1.2 -.4 -2 -1.1 -2.9 -1.9l1.8 -2.4c1.3 1.3 3 2 4.9 2c.7 0 1.4 -.2 1.9 -.5c.4 -.4 .7 -.8 .7 -1.4c0 -.7 -.3 -1.1 -.8 -1.4c-.6 -.3 -1.3 -.5 -2.2 -.5h-1.8v-2.9h1.7c1.8 0 2.8 -.6 2.8 -1.9c0 -.6 -.2 -1 -.7 -1.3c-.6 -.4 -1.1 -.5 -1.8 -.5c-1.7 0 -3.1 .6 -4.2 1.8l-1.8 -2.2c1.6 -1.8 3.7 -2.5 6.2 -2.5q.1 0 .1 0c1.6 0 2.9 .4 3.9 1.2c1 .7 1.6 1.8 1.6 3c-.1 1.6 -.8 2.9 -2.5 3.6c1.8 .6 2.8 1.9 2.8 3.7c-.1 1.3 -.5 2.5 -1.5 3.4c-1.1 .9 -2.5 1.3 -4.3 1.3Zm-245.2 0c-2.4 0 -4.3 -.8 -5.9 -2.3c-1.6 -1.7 -2.3 -3.5 -2.3 -5.8c0 -2.3 .7 -4.2 2.3 -5.8c1.6 -1.6 3.6 -2.4 6 -2.4c2.4 0 4.3 .8 5.9 2.4c1.5 1.6 2.4 3.5 2.4 5.8c-.1 2.2 -.8 4.2 -2.4 5.8c-1.7 1.4 -3.6 2.3 -6 2.3Zm34.6 0c-2.5 0 -4.4 -.8 -6 -2.3c-1.5 -1.7 -2.3 -3.5 -2.3 -5.8c0 -2.3 .8 -4.2 2.4 -5.8c1.5 -1.6 3.5 -2.4 5.9 -2.4c2.4 0 4.4 .8 6 2.4c1.4 1.6 2.3 3.5 2.3 5.8c-.1 2.2 -.8 4.2 -2.4 5.8c-1.6 1.4 -3.5 2.3 -5.9 2.3Zm81.6 0c-2.5 0 -4.3 -.8 -5.9 -2.3c-1.6 -1.7 -2.4 -3.5 -2.4 -5.8c0 -2.3 .8 -4.2 2.4 -5.8c1.6 -1.6 3.6 -2.4 6 -2.4c2.3 0 4.3 .8 5.9 2.4c1.5 1.6 2.4 3.5 2.4 5.8c-.1 2.2 -.8 4.2 -2.4 5.8c-1.7 1.4 -3.6 2.3 -6 2.3Zm40.2 -.5l6.6 -15.8h3.2l6.6 15.8h-3.6l-1.4 -3.5h-6.5l-1.5 3.5ZM947.4 361.5c-1 0 -1.8 -.3 -2.5 -.9c-.7 -.6 -1.1 -1.4 -1.2 -2.5l2 -.4c.2 .9 .9 1.5 1.7 1.5c.9 0 1.5 -.5 1.8 -1.5l1.9 .4c-.1 1 -.5 1.9 -1.2 2.5c-.7 .6 -1.5 .9 -2.5 .9Z"/></clipPath>
<clipPath id="c7_19"><path d="M836.7 499.3c-18.4 0 -33.3 -14.9 -33.3 -33.3v-8.3c0 -18.4 14.9 -33.3 33.3 -33.3h302.6c18.3 0 33.2 14.9 33.2 33.3v41.6Z"/></clipPath>
<clipPath id="c8_19"><path d="M983 466.7c1.7 0 2.6 -.8 2.6 -2.3c0 -1.4 -.8 -2.1 -2.6 -2.1h-3v4.4Zm124 0c1.7 0 2.6 -.8 2.6 -2.3c0 -1.4 -.9 -2.1 -2.6 -2.1h-3.1v4.4ZM872.5 462c.9 0 1.6 -.2 2.1 -.7c.4 -.4 .8 -1.1 .8 -1.8c0 -.9 -.3 -1.4 -.8 -1.9c-.6 -.5 -1.2 -.6 -2.1 -.6h-2.8v5Zm45.4 0c.8 0 1.6 -.2 2.1 -.7c.4 -.4 .7 -1.1 .7 -1.8c0 -.9 -.2 -1.4 -.7 -1.9c-.6 -.5 -1.3 -.6 -2.2 -.6h-2.7v5Zm173.6 0c.8 0 1.6 -.2 2.1 -.7c.4 -.4 .7 -1.1 .7 -1.8c0 -.9 -.2 -1.4 -.8 -1.9c-.5 -.5 -1.2 -.6 -2.1 -.6h-2.7v5Zm-225.1 7.6V454h6.3c0 0 .1 0 .1 0c1.8 0 3.2 .6 4.3 1.5c1 1 1.6 2.4 1.6 4c-.1 1.7 -.6 3.1 -1.8 4c-1.3 .9 -2.7 1.5 -4.6 1.5h-2.6v4.6Zm45.3 0V454h6.4c1.8 0 3.3 .6 4.3 1.5c1.1 1 1.6 2.4 1.6 4c-.1 1.7 -.6 3.1 -1.8 4c-1.2 .9 -2.7 1.5 -4.5 1.5h-2.6v4.6Zm173.6 0V454h6.4c1.8 0 3.3 .6 4.3 1.5c1.1 1 1.6 2.4 1.6 4c-.1 1.7 -.6 3.1 -1.8 4c-1.2 .9 -2.7 1.5 -4.5 1.5h-2.6v4.6Zm-203.7 0V454h11.7v3H885v3.4h7.3v2.9H885v3.4h8.4v2.9Zm45.4 0V454h3.3v10.3L937.2 454h3.1v15.6H937V459.4l-6.8 10.2Zm32.3 0V454h3.4v6H969v-6h3.3v15.6H969v-6.3h-6.3v6.3Zm17.3 0V454H980v5.3h3.3c1.6 0 3.1 .5 4.1 1.4c1 .9 1.5 2.1 1.5 3.7c-.1 1.6 -.5 2.9 -1.5 3.8c-1.1 .9 -2.5 1.4 -4.3 1.4Zm14.3 0V454h3.4v15.6Zm7.4 0V454H1010v3h-8.3v3.4h7.3v2.9h-7.3v3.4h8.5v2.9Zm39.6 0V454h11.7v3h-8.4v3.4h7.4v2.9h-7.4v3.4h8.5v2.9Zm15.3 0V454h3.3v6h6.4v-6h3.3v15.6h-3.3v-6.3h-6.4v6.3Zm47.4 0V454h3.3v5.3h3.3c1.7 0 3.2 .5 4.2 1.4c.9 .9 1.5 2.1 1.5 3.7c-.1 1.6 -.5 2.9 -1.6 3.8c-1.1 .9 -2.5 1.4 -4.3 1.4Zm14.3 0V454h3.3v15.6Zm-83 3.4v-3.4h-11.6V453.8h3.3v12.8h6.3V453.8h3.4v12.8h1.8l-.4 6.4ZM900.3 469.6V457h-4.7v-3.3h13V457h-5v12.6Zm47.6 0V457h-4.7v-3.3h13V457h-5v12.6Zm126 0V457h-4.7v-3.3h13V457h-5v12.6Z"/></clipPath>
<clipPath id="c9_19"><path d="M866.6 590.5c-18.3 0 -33.2 -14.9 -33.2 -33.3v-8.4c0 -18.4 14.9 -33.3 33.2 -33.3h272.7c18.3 0 33.2 14.9 33.2 33.3v41.7Z"/></clipPath>
<clipPath id="ca_19"><path d="M1041.4 557.8c1.6 0 2.5 -.5 2.5 -1.7c0 -1.2 -.9 -1.7 -2.6 -1.7h-4.1v3.4Zm-89.3 0c1.7 0 2.6 -.7 2.6 -2.2c0 -1.5 -.9 -2.2 -2.6 -2.2H949v4.4Zm135.9 0c1.7 0 2.6 -.7 2.6 -2.2c0 -1.5 -.8 -2.2 -2.6 -2.2h-3v4.4ZM936.6 553.2c.8 0 1.5 -.3 2.1 -.7c.4 -.5 .7 -1.1 .7 -1.9c0 -.8 -.3 -1.4 -.8 -1.8c-.6 -.5 -1.2 -.7 -2.1 -.7h-2.8v5.1Zm62.2 4.6c1.4 0 2.5 -.5 3.4 -1.4c.8 -1 1.3 -2.1 1.3 -3.4c-.2 -1.4 -.5 -2.5 -1.4 -3.5c-.8 -.9 -2 -1.4 -3.3 -1.4c-1.5 0 -2.5 .5 -3.4 1.4c-.9 .9 -1.3 2.1 -1.3 3.5c0 1.3 .5 2.5 1.4 3.4c.7 .8 2 1.4 3.3 1.4Zm41.6 -6.3c1.6 0 2.5 -.6 2.5 -1.8c0 -.6 -.2 -.9 -.6 -1.2c-.4 -.3 -.9 -.4 -1.7 -.4h-3.4v3.4Zm18.9 1.3v-4.7h-3.5c-.1 0 -.2 0 -.3 0c-.8 0 -1.3 .3 -1.8 .6c-.5 .3 -.7 1 -.7 1.8c-.1 .7 .3 1.3 .7 1.7c.5 .4 1.2 .6 2 .6Zm-85.3 8V545.2h13v15.6h-3.3V548.1h-6.3v12.7Zm-43.6 0V545.2h6.4c1.8 0 3.3 .5 4.3 1.5c1.1 .9 1.6 2.3 1.6 3.9c-.1 1.7 -.6 3.1 -1.8 4.1c-1.2 .9 -2.7 1.4 -4.5 1.4h-2.7v4.7Zm-13.9 .3c-1.2 0 -2.2 -.3 -3.3 -.9l1.3 -2.5c.5 .2 1.2 .5 1.9 .5c.6 0 1.4 -.5 1.9 -1.3l-6.2 -11.7h3.8l4.2 8.3l3.8 -8.3h3.7l-6 12.1c-.7 1.3 -1.4 2.3 -2.2 2.9c-.8 .6 -1.8 .9 -2.9 .9Zm29.2 -.3V545.2H949v5.3h3.3c1.7 0 3.2 .4 4.2 1.3c.9 1 1.5 2.2 1.5 3.7c-.1 1.6 -.5 2.9 -1.6 3.9c-1.1 .8 -2.5 1.4 -4.3 1.4Zm14.3 0V545.2h3.3v15.6Zm73.9 0V545.2h7.2c1.7 0 3.1 .4 4 1.3c.7 .7 1.1 1.7 1.1 2.8c-.1 1.4 -.6 2.6 -1.9 3.3c.9 .4 1.7 .9 2.2 1.5c.4 .5 .7 1.4 .7 2.4c-.1 1.4 -.5 2.5 -1.6 3.2c-1 .6 -2.4 1.1 -4.2 1.1Zm15.3 0l3.7 -5.6c-2.2 -.8 -3.2 -2.4 -3.2 -4.9c0 -1.6 .5 -2.9 1.6 -3.8c.9 -.9 2.4 -1.3 4.3 -1.3h7.1v15.6h-3.4v-5h-2.8l-3.4 5Zm32.4 0V545.2h3.4v5.3h3.3c1.6 0 3.1 .4 4.1 1.3c1 1 1.5 2.2 1.5 3.7c-.1 1.6 -.5 2.9 -1.5 3.9c-1.1 .8 -2.5 1.4 -4.3 1.4Zm14.3 0V545.2h3.4v15.6Zm7.4 0V545.2h3.7l4.2 6.6l4.2 -6.6h3.6v15.6h-3.3V550.6l-4.5 6.7h-.1l-4.4 -6.7v10.2Zm-201.1 0V548.1h-4.6v-3.3h12.9v3.3h-5v12.7Zm96.6 .3c-2.5 0 -4.4 -.8 -6 -2.3c-1.5 -1.7 -2.3 -3.5 -2.3 -5.8c0 -2.4 .8 -4.2 2.4 -5.8c1.5 -1.6 3.5 -2.4 5.9 -2.4c2.4 0 4.4 .8 6 2.4c1.4 1.5 2.3 3.5 2.3 5.8c-.1 2.2 -.8 4.2 -2.4 5.7c-1.6 1.5 -3.5 2.4 -5.9 2.4Zm25.6 0c-2.3 0 -4.2 -.8 -5.7 -2.3c-1.6 -1.7 -2.3 -3.5 -2.3 -5.8c0 -2.4 .8 -4.2 2.3 -5.8c1.5 -1.6 3.5 -2.4 5.9 -2.4c1.3 0 2.5 .3 3.4 .7c.8 .5 1.8 1.1 2.6 2l-2 2.4c-.7 -.7 -1.3 -1.1 -1.9 -1.3c-.7 -.3 -1.3 -.5 -2.1 -.5c-1.4 0 -2.4 .5 -3.2 1.4c-1 .9 -1.3 2.1 -1.3 3.5c0 1.3 .4 2.5 1.3 3.4c.7 .8 1.9 1.4 3.2 1.4c.8 0 1.5 -.2 2.1 -.4c.5 -.4 1.3 -.8 2 -1.4l2.1 2.3c-.9 .9 -1.7 1.7 -2.7 2.1c-1 .4 -2.2 .7 -3.7 .7Zm45.8 -.3V548.1h-4.7v-3.3h13v3.3h-5v12.7Z"/></clipPath>
<clipPath id="cb_19"><path d="M903.2 681.6C884.8 681.6 870 666.7 870 648.3V640c0 -18.4 14.8 -33.3 33.2 -33.3h236.1c18.3 0 33.2 14.9 33.2 33.3v41.6Z"/></clipPath>
<clipPath id="cc_19"><path d="M962.2 648.9c1.3 0 2.5 -.4 3.3 -1.3c.9 -1.1 1.3 -2.1 1.3 -3.5c-.1 -1.4 -.4 -2.5 -1.3 -3.4c-.9 -1 -2 -1.4 -3.3 -1.4c-1.5 0 -2.5 .5 -3.4 1.4c-.9 .9 -1.3 2.1 -1.3 3.4c0 1.3 .5 2.5 1.3 3.4c.8 .9 2 1.4 3.4 1.4Zm36.4 0c1.4 0 2.5 -.4 3.3 -1.3c.9 -1.1 1.3 -2.1 1.3 -3.5c-.1 -1.4 -.4 -2.5 -1.3 -3.4c-.9 -1 -2 -1.4 -3.3 -1.4c-1.5 0 -2.5 .5 -3.4 1.4c-.9 .9 -1.3 2.1 -1.3 3.4c0 1.3 .5 2.5 1.4 3.4c.7 .9 2 1.4 3.3 1.4ZM1118.8 644v-4.7h-3.6c-.1 -.1 -.2 -.1 -.3 -.1c-.8 0 -1.3 .3 -1.7 .7c-.5 .3 -.8 1 -.8 1.8c-.1 .7 .3 1.2 .8 1.7c.4 .4 1.1 .6 2 .6Zm-145 7.9V636.3h13v15.6h-3.3V639.3h-6.4v12.6Zm68.7 .4c-.8 0 -1.3 -.1 -1.8 -.2l.2 -2.8c0 0 .1 -.1 .1 -.1c.2 0 .3 .1 .4 .1c.5 0 1 -.1 1.3 -.3c.3 -.2 .6 -.7 .9 -1.3c.2 -.7 .4 -1.7 .5 -3c.1 -1.3 .2 -3 .2 -5.1v-3.3h11v15.8H1052V639.3h-4.4v1.2c-.1 3.1 -.1 5.5 -.5 7.2c-.4 1.7 -.9 2.9 -1.6 3.6c-.8 .6 -1.7 1 -3 1ZM939 651.9V636.3h3.3v6.8l6.3 -6.8h4.1l-6.3 6.6l6.6 9h-4.1l-4.8 -6.6l-1.8 1.9v4.7Zm88 0V636.3h11.7v3h-8.4v3.4h7.4v2.9h-7.4V649h8.5v2.9Zm32.6 0V636.3h11.7v3H1063v3.4h7.3v2.9H1063V649h8.4v2.9Zm15.3 0V636.3h3.4v6h6.3v-6h3.3v15.6h-3.3v-6.3h-6.3v6.3Zm17.3 0V636.3h3.4v10.3l6.8 -10.3h3.1v15.6h-3.3V641.7l-6.8 10.2Zm16.4 0l3.7 -5.5c-2.2 -.9 -3.2 -2.5 -3.2 -4.9c0 -1.7 .5 -2.9 1.6 -3.8c.9 -.9 2.5 -1.4 4.3 -1.4h7.1v15.6h-3.3V647H1116l-3.5 4.9Zm-181.3 .4c-1.4 0 -2.6 -.2 -3.6 -.6c-1.1 -.5 -2 -1.1 -2.8 -2l2.1 -2.3c.7 .6 1.3 1.1 2 1.5c.6 .2 1.4 .4 2.2 .4c1 0 2.1 -.3 2.9 -1c.7 -.8 1.3 -1.6 1.5 -2.7h-6.3v-3h6.3c-.4 -1.1 -.8 -1.9 -1.6 -2.6c-.8 -.7 -1.7 -1 -2.8 -1c-1.5 0 -2.8 .5 -4 1.7l-1.9 -2.4c1.7 -1.6 3.6 -2.3 5.9 -2.3h.1c2.2 0 4.2 .8 5.7 2.4c1.5 1.5 2.3 3.5 2.3 5.7c-.1 2.3 -.8 4.3 -2.3 5.8c-1.5 1.5 -3.4 2.4 -5.7 2.4Zm34.9 0c-2.5 0 -4.4 -.8 -6 -2.4c-1.6 -1.7 -2.3 -3.5 -2.3 -5.8c0 -2.3 .8 -4.2 2.3 -5.8c1.6 -1.5 3.6 -2.3 6 -2.3c2.4 0 4.4 .8 5.9 2.3c1.5 1.6 2.4 3.5 2.4 5.8c-.1 2.2 -.8 4.2 -2.4 5.8c-1.7 1.5 -3.6 2.4 -5.9 2.4Zm36.4 0c-2.5 0 -4.4 -.8 -6 -2.4c-1.6 -1.7 -2.3 -3.5 -2.3 -5.8c0 -2.3 .8 -4.2 2.3 -5.8c1.6 -1.5 3.6 -2.3 6 -2.3c2.4 0 4.4 .8 5.9 2.3c1.5 1.6 2.4 3.5 2.4 5.8c-.1 2.2 -.8 4.2 -2.4 5.8c-1.7 1.5 -3.6 2.4 -5.9 2.4Zm19 0c-2.3 0 -4.2 -.8 -5.8 -2.4c-1.6 -1.6 -2.2 -3.5 -2.2 -5.8c0 -2.3 .7 -4.2 2.3 -5.8c1.4 -1.5 3.4 -2.3 5.8 -2.3c1.3 0 2.5 .2 3.4 .7c.8 .4 1.8 1.1 2.6 1.9l-2 2.4c-.7 -.6 -1.3 -1 -1.9 -1.3c-.7 -.3 -1.3 -.4 -2.1 -.4c-1.3 0 -2.4 .5 -3.2 1.4c-1 .9 -1.3 2.1 -1.3 3.4c0 1.3 .4 2.5 1.3 3.4c.7 .9 1.9 1.4 3.2 1.4c.8 0 1.6 -.1 2.2 -.4c.5 -.4 1.2 -.7 1.9 -1.4l2.2 2.4c-.9 .9 -1.8 1.6 -2.8 2.1c-1 .3 -2.2 .7 -3.6 .7Z"/></clipPath>
</defs>
<image clip-path="url(#c0_19)" preserveAspectRatio="none" x="150" y="0" width="1167" height="825" xlink:href="img/1.jpg"/>
<image clip-path="url(#c1_19)" preserveAspectRatio="none" x="150" y="0" width="1167" height="825" xlink:href="img/2.jpg"/>
<image clip-path="url(#c2_19)" preserveAspectRatio="none" x="150" y="0" width="1167" height="825" xlink:href="img/3.jpg"/>
<image clip-path="url(#c3_19)" preserveAspectRatio="none" x="150" y="0" width="1167" height="825" xlink:href="img/4.jpg"/>
<image clip-path="url(#c4_19)" preserveAspectRatio="none" x="150" y="0" width="1167" height="825" xlink:href="img/5.jpg"/>
<image clip-path="url(#c5_19)" preserveAspectRatio="none" x="150" y="0" width="1167" height="825" xlink:href="img/6.jpg"/>
<image clip-path="url(#c6_19)" preserveAspectRatio="none" x="150" y="0" width="1167" height="825" xlink:href="img/7.jpg"/>
<image clip-path="url(#c7_19)" preserveAspectRatio="none" x="150" y="0" width="1167" height="825" xlink:href="img/8.jpg"/>
<image clip-path="url(#c8_19)" preserveAspectRatio="none" x="150" y="0" width="1167" height="825" xlink:href="img/9.jpg"/>
<image clip-path="url(#c9_19)" preserveAspectRatio="none" x="150" y="0" width="1167" height="825" xlink:href="img/10.jpg"/>
<image clip-path="url(#ca_19)" preserveAspectRatio="none" x="150" y="0" width="1167" height="825" xlink:href="img/11.jpg"/>
<image clip-path="url(#cb_19)" preserveAspectRatio="none" x="150" y="0" width="1167" height="825" xlink:href="img/12.jpg"/>
<image clip-path="url(#cc_19)" preserveAspectRatio="none" x="150" y="0" width="1167" height="825" xlink:href="img/13.jpg"/>
</svg>