<?xml version="1.0" encoding="UTF-8" standalone="no"?>
<!DOCTYPE svg PUBLIC "-//W3C//DTD SVG 1.1//EN"
"http://www.w3.org/Graphics/SVG/1.1/DTD/svg11.dtd">
<svg viewBox="0 0 1466 825" version="1.1" xmlns="http://www.w3.org/2000/svg" xmlns:xlink="http://www.w3.org/1999/xlink">
<defs>
<clipPath id="c0_4"><path d="M0 825V0H1466.7V825Z"/></clipPath>
<clipPath id="c1_4"><path d="M0 272.9V0H1466.7V272.9Z"/></clipPath>
<style type="text/css"><![CDATA[
.g0_4{
fill: #FFF;
}
.g1_4{
fill: #385723;
}
]]></style>
</defs>
<path clip-path="url(#c0_4)" fill-rule="evenodd" d="M0 825H1466.7V0H0V825Z" class="g0_4"/>
<image x="0" y="0" width="1467" height="273" xlink:href="shade/1.png"/>
<image clip-path="url(#c1_4)" preserveAspectRatio="none" x="0" y="0" width="1467" height="273" xlink:href="img/1.jpg"/>
<image preserveAspectRatio="none" x="117" y="389" width="187" height="146" xlink:href="img/2.png"/>
<image preserveAspectRatio="none" x="1110" y="479" width="254" height="55" xlink:href="img/3.png"/>
<image preserveAspectRatio="none" x="544" y="388" width="145" height="146" xlink:href="img/4.png"/>
<image preserveAspectRatio="none" x="900" y="375" width="218" height="173" xlink:href="img/5.png"/>
<path fill-rule="evenodd" d="M654.9 725.7c0 0 .2 0 .5 0c.2 0 .5 0 .7 0c.4 .1 .8 .1 1.1 .3c.2 .1 .4 .4 .5 .7q0 .1 0 .2c.1 .1 .1 .2 .1 .3c.1 .2 .1 .4 .2 .4c0 .1 .1 .5 .3 1.1c.2 .4 .4 1 .6 1.7c.3 .7 .5 1.2 .6 1.5c.2 .5 .2 .8 .2 1c0 .6 -.4 1.2 -1.3 2c-.9 .8 -1.3 1.4 -1.3 1.7c0 .2 .2 .7 .7 1.5c1.8 3.2 4.3 5.6 7.5 7.4c0 0 .1 .1 .3 .2c.2 .1 .3 .2 .5 .2c.3 .2 .6 .3 .8 .3c.5 0 1.1 -.5 2 -1.7c.8 -1.1 1.5 -1.7 2 -1.7c.1 0 .4 .1 .9 .4c.2 .1 .6 .3 .9 .5c.3 .2 .7 .4 1.2 .6c.4 .3 .7 .5 1 .6c1.1 .7 1.7 1 1.8 1.1c.4 .2 .6 .4 .7 .6c0 0 0 .1 0 .4c0 .3 0 .8 -.2 1.3c0 .4 -.2 .8 -.4 1.3c-.4 .9 -1.2 1.6 -2.6 2.2c-1.3 .5 -2.4 .8 -3.3 .8c-1.1 0 -2.8 -.5 -5.1 -1.4c-2.7 -.9 -5.2 -2.5 -7.5 -4.7c-2 -2 -3.8 -4.3 -5.4 -6.9c-.8 -1.4 -1.3 -2.6 -1.7 -3.5c-.7 -1.6 -1 -2.8 -1 -3.7c0 -1.2 .4 -2.5 1 -3.9c.7 -1.4 1.7 -2.3 2.7 -2.8h.5c.1 0 .3 0 .5 0Z" class="g1_4"/>
<path fill-rule="evenodd" d="M981.4 728.1h26.9v.7l-13.4 11.6L981.4 728.8v-.7Z" class="g1_4"/>
<path fill-rule="evenodd" d="M981.4 730.9l8.9 7.7l-8.9 6.3v-14Z" class="g1_4"/>
<path fill-rule="evenodd" d="M1008.3 730.9v14l-8.8 -6.3l8.8 -7.7Z" class="g1_4"/>
<path fill-rule="evenodd" d="M991.2 739.4l3.7 3.2l3.7 -3.2l9.7 6.9v.2H981.4v-.2l9.8 -6.9Z" class="g1_4"/>
<image preserveAspectRatio="none" x="1288" y="59" width="110" height="20" xlink:href="img/6.png"/>
<image preserveAspectRatio="none" x="349" y="388" width="139" height="146" xlink:href="img/7.jpg"/>
<image preserveAspectRatio="none" x="757" y="389" width="128" height="148" xlink:href="img/8.png"/>
</svg>