<?xml version="1.0" encoding="UTF-8" standalone="no"?>
<!DOCTYPE svg PUBLIC "-//W3C//DTD SVG 1.1//EN"
"http://www.w3.org/Graphics/SVG/1.1/DTD/svg11.dtd">
<svg viewBox="0 0 1466 825" version="1.1" xmlns="http://www.w3.org/2000/svg" xmlns:xlink="http://www.w3.org/1999/xlink">
<defs>
<clipPath id="c0_9"><path d="M.1 825V0H1466.7V825Z"/></clipPath>
<style type="text/css"><![CDATA[
.g0_9{
fill: #FFF;
}
.g1_9{
fill: #000;
fill-opacity: 0.6;
}
.g2_9{
fill: none;
stroke: #FFF;
stroke-width: 1.527;
stroke-miterlimit: 10;
}
]]></style>
</defs>
<g clip-path="url(#c0_9)">
<path fill-rule="evenodd" d="M.1 825H1466.7V0H.1V825Z" class="g0_9"/>
<image x="932" y="195" width="356" height="356" xlink:href="shade/1.png"/>
<image preserveAspectRatio="none" x="933" y="196" width="355" height="355" xlink:href="img/1.jpg"/>
</g>
<path fill-rule="evenodd" d="M933.5 550.6h352.3v-157H933.5v157Z" class="g1_9"/>
<g clip-path="url(#c0_9)">
<image x="552" y="197" width="356" height="356" xlink:href="shade/2.png"/>
<image preserveAspectRatio="none" x="552" y="198" width="356" height="355" xlink:href="img/2.jpg"/>
</g>
<path fill-rule="evenodd" d="M552.2 550.6H907.6v-157H552.2v157Z" class="g1_9"/>
<g clip-path="url(#c0_9)">
<image x="171" y="197" width="356" height="354" xlink:href="shade/3.png"/>
<image preserveAspectRatio="none" x="172" y="197" width="355" height="354" xlink:href="img/3.jpg"/>
</g>
<path fill-rule="evenodd" d="M171.8 550.6h355v-157h-355v157Z" class="g1_9"/>
<path fill-rule="evenodd" d="M421.2 425.2Q427 425 427 425c2.2 .2 3 1.8 3 2.4q0 .3 0 .3q0 7.5 0 7.5c0 .6 -.5 .9 -1 .9c-.6 0 -.9 -.3 -.9 -.9q0 -6.5 0 -6.5q-1 0 -1 0q0 6.4 0 6.4c0 0 0 .1 0 .1q0 11.3 0 11.3c0 .7 -.5 1.1 -1.3 1.1c-.7 0 -1.2 -.4 -1.2 -1.1q0 -9.9 0 -9.9q-.8 0 -.8 0q0 9.9 0 9.9c0 .7 -.5 1.1 -1.3 1.1c-.8 0 -1.3 -.4 -1.3 -1.1q0 -11.4 0 -11.4q0 -.2 0 -.2q0 -6.2 0 -6.2q-.8 0 -.8 0q0 6.5 0 6.5c0 .6 -.4 .9 -.9 .9c-.6 0 -1.1 -.3 -1.1 -.9q0 -7.5 0 -7.5q0 -.3 0 -.3q0 -.2 0 -.2c0 -.7 .9 -2 2.8 -2Z" class="g0_9"/>
<path fill-rule="evenodd" d="M426.6 422.6c0 -1.2 -1 -2.2 -2.3 -2.2c-1.2 0 -2.3 1 -2.3 2.2c0 1.2 1.1 2.1 2.3 2.1c1.3 0 2.3 -.9 2.3 -2.1Z" class="g0_9"/>
<path d="M402.3 418.7c0 -4.4 3.6 -7.9 7.9 -7.9h80.2c4.4 0 7.9 3.5 7.9 7.9v31.6c0 4.4 -3.5 7.9 -7.9 7.9H410.2c-4.3 0 -7.9 -3.5 -7.9 -7.9V418.7Z" class="g2_9"/>
<path fill-rule="evenodd" d="M810.2 425.2q5.7 -.2 5.7 -.2c2.3 .2 3.1 1.8 3.1 2.4q0 .3 0 .3q0 7.5 0 7.5c0 .6 -.5 .9 -1 .9c-.6 0 -.9 -.3 -.9 -.9q0 -6.5 0 -6.5q-1 0 -1 0q0 6.4 0 6.4c0 0 0 .1 0 .1q0 11.3 0 11.3c0 .7 -.5 1.1 -1.3 1.1c-.8 0 -1.2 -.4 -1.2 -1.1q0 -9.9 0 -9.9q-.8 0 -.8 0q0 9.9 0 9.9c0 .7 -.5 1.1 -1.3 1.1c-.8 0 -1.3 -.4 -1.3 -1.1q0 -11.4 0 -11.4q0 -.2 0 -.2q0 -6.2 0 -6.2q-.8 0 -.8 0q0 6.5 0 6.5c0 .6 -.5 .9 -.9 .9c-.7 0 -1.2 -.3 -1.2 -.9q0 -7.5 0 -7.5q0 -.3 0 -.3q0 -.2 0 -.2c0 -.7 1 -2 2.9 -2Z" class="g0_9"/>
<path fill-rule="evenodd" d="M815.6 422.6c0 -1.2 -1.1 -2.2 -2.4 -2.2c-1.4 0 -2.5 1 -2.5 2.2c0 1.2 1.1 2.1 2.5 2.1c1.3 0 2.4 -.9 2.4 -2.1Z" class="g0_9"/>
<path d="M791 418.7c0 -4.4 3.5 -7.9 7.9 -7.9H879c4.4 0 7.9 3.5 7.9 7.9v31.6c0 4.4 -3.5 7.9 -7.9 7.9H798.9c-4.4 0 -7.9 -3.5 -7.9 -7.9V418.7Z" class="g2_9"/>
<path fill-rule="evenodd" d="M1181.8 425.2q5.9 -.2 5.9 -.2c2.3 .2 3.1 1.8 3.1 2.4q0 .3 0 .3q0 7.5 0 7.5c0 .6 -.5 .9 -1 .9c-.6 0 -.9 -.3 -.9 -.9q0 -6.5 0 -6.5q-1 0 -1 0q0 6.4 0 6.4c0 0 0 .1 0 .1q0 11.3 0 11.3c0 .7 -.5 1.1 -1.3 1.1c-.8 0 -1.3 -.4 -1.3 -1.1q0 -9.9 0 -9.9q-.8 0 -.8 0q0 9.9 0 9.9c0 .7 -.5 1.1 -1.3 1.1c-.9 0 -1.4 -.4 -1.4 -1.1q0 -11.4 0 -11.4q0 -.2 0 -.2q0 -6.2 0 -6.2q-.8 0 -.8 0q0 6.5 0 6.5c0 .6 -.5 .9 -.9 .9c-.7 0 -1.2 -.3 -1.2 -.9q0 -7.5 0 -7.5q0 -.3 0 -.3q0 -.2 0 -.2c0 -.7 1 -2 2.9 -2Z" class="g0_9"/>
<path fill-rule="evenodd" d="M1187.2 422.6c0 -1.2 -1.1 -2.2 -2.3 -2.2c-1.3 0 -2.3 1 -2.3 2.2c0 1.2 1 2.1 2.3 2.1c1.2 0 2.3 -.9 2.3 -2.1Z" class="g0_9"/>
<path d="M1162.9 418.7c0 -4.4 3.5 -7.9 7.9 -7.9h91.1c4.4 0 7.9 3.5 7.9 7.9v31.6c0 4.4 -3.5 7.9 -7.9 7.9h-91.1c-4.4 0 -7.9 -3.5 -7.9 -7.9V418.7Z" class="g2_9"/>
<image clip-path="url(#c0_9)" preserveAspectRatio="none" x="1288" y="68" width="110" height="21" xlink:href="img/4.png"/>
</svg>