<?xml version="1.0" encoding="UTF-8" standalone="no"?>
<!DOCTYPE svg PUBLIC "-//W3C//DTD SVG 1.1//EN"
"http://www.w3.org/Graphics/SVG/1.1/DTD/svg11.dtd">
<svg viewBox="0 0 1466 825" version="1.1" xmlns="http://www.w3.org/2000/svg" xmlns:xlink="http://www.w3.org/1999/xlink">
<defs>
<clipPath id="c0_21"><path d="M149.9 825V0h1167V825Z"/></clipPath>
<clipPath id="c1_21"><path d="M149.9 825V83.2h1167V825Z"/></clipPath>
<clipPath id="c2_21"><path d="M157.6 825V454.1H460.3V825Z"/></clipPath>
<clipPath id="c3_21"><path d="M468.6 825V454.1H991.5V825Z"/></clipPath>
<clipPath id="c4_21"><path d="M999.5 825V454.1h310.1V825Z"/></clipPath>
<clipPath id="c5_21"><path d="M149.9 825v-8.7h1167V825Z"/></clipPath>
<clipPath id="c6_21"><path d="M770.9 199c3 0 4.6 -1.3 4.6 -3.9c-.1 -2.4 -1.5 -3.6 -4.6 -3.6h-5.4V199Zm-359.2 5.3V177.1h5.8v17.8l12 -17.8H435v27.2h-5.8V186.4l-12 17.9Zm56.9 0V177.1H475l7.1 11.5l7.2 -11.5h6.4v27.2h-5.9V186.5l-7.7 11.7H482l-7.6 -11.6v17.7Zm34.4 0V177.1h20.5v5.3H508.8V188h13v5.4h-13V199h14.8v5.3Zm26.8 0V177.1h5.8v10.6h11.3V177.1h5.9v27.2h-5.9V193.4H535.6v10.9Zm30.3 0V177.1h5.8v17.8l12 -17.8h5.5v27.2h-5.9V186.4l-11.9 17.9Zm37 .2V182.7h-8.3v-5.6h22.6v5.6h-8.5v21.8Zm28.2 -.2L636 188.9L625.7 177.1h7.1l10.8 12.7V177.1h5.9v12.7l10.9 -12.7h7.1l-10.4 11.8l10.8 15.4h-7.2L653 193.2l-3.5 3.9v7.2h-5.9v-7.2L640 193.2l-7.6 11.1Zm47.3 0V177.1h5.8v17.8l12 -17.8h5.4v27.2H690V186.4l-11.9 17.9Zm56.8 0V177.1h5.8v10.6h11.4V177.1h5.8v27.2h-5.8V193.4H735.2v10.9Zm30.3 0V177.1h5.8v9.3h5.8c3 0 5.6 .8 7.4 2.4c1.7 1.5 2.6 3.7 2.6 6.4c-.1 2.7 -.9 5 -2.8 6.7c-1.9 1.5 -4.3 2.4 -7.5 2.4Zm38.7 0V177.1h5.8V189l11 -11.9h7.2l-11 11.5l11.5 15.7h-7.1l-8.4 -11.6l-3.2 3.3v8.3Zm41.2 .4c-1.3 0 -2.3 -.2 -3.2 -.4l.4 -4.8c.4 0 .7 .1 1 .1c.7 -.1 1.6 -.2 2.1 -.6c.5 -.5 1.1 -1.2 1.6 -2.3c.3 -1.2 .8 -2.9 1 -5.1c.2 -2.4 .3 -5.3 .3 -8.9v-5.6h19.3v27.2h-5.8V182.4h-7.8v2c0 5.4 -.4 9.5 -1 12.5c-.6 2.9 -1.6 5 -2.8 6.1c-1.3 1 -2.9 1.7 -5.1 1.7Zm74.8 -.4v-10c-2.9 1.3 -5.2 2 -7.2 2c-2.9 0 -5.1 -.7 -6.7 -2.3c-1.7 -1.5 -2.4 -3.8 -2.4 -6.9v-10h5.8v8.2c-.1 3.5 1.5 5.4 4.4 5.4c2.4 0 4.5 -.6 6.1 -1.8V177.1h5.8v27.2Zm13.4 0V177.1h5.8V199h9.8V177.1h5.8V199h10V177.1H965v27.2Zm44.6 0V177.1h20.4v5.3H978.2V188h12.9v5.4H978.2V199H993v5.3Zm26.7 0V177.1h6.4l7.2 11.5l7.2 -11.5h6.3v27.2h-5.8V186.5l-7.7 11.7h-.1L1005 186.6v17.7Zm-124.5 .4c-2.1 0 -4 -.6 -5.9 -1.6l2.4 -4.4c.9 .4 2 .9 3.2 .9c1.3 -.1 2.5 -.8 3.4 -2.2L866.8 176.9h6.7l7.4 14.4l6.5 -14.4h6.5L883.5 198c-1.2 2.4 -2.5 4.1 -3.9 5.1c-1.5 1 -3.1 1.6 -5 1.6Zm164.1 0c-2.1 0 -4 -.6 -5.8 -1.6l2.3 -4.4c.9 .4 2.1 .9 3.2 .9c1.3 -.1 2.5 -.8 3.4 -2.2L1031 176.9h6.6l7.4 14.4l6.6 -14.4h6.5L1047.6 198c-1.2 2.4 -2.4 4.1 -3.8 5.1c-1.5 1 -3.1 1.6 -5.1 1.6Zm-586.5 0c-2.8 0 -5.1 -.4 -6.9 -1.1c-2 -.8 -3.6 -1.9 -5.1 -3.4l3.2 -4.2c2.2 2.4 5.2 3.6 8.7 3.6c1.3 -.1 2.4 -.3 3.3 -.9c.9 -.7 1.3 -1.4 1.3 -2.5c-.1 -1.1 -.5 -1.9 -1.5 -2.4c-1 -.6 -2.3 -.8 -4 -.8h-3.1v-5.1h3c3.3 -.1 4.9 -1 4.9 -3.2c-.1 -.9 -.4 -1.6 -1.2 -2.2c-.8 -.6 -1.9 -.8 -3.2 -.8c-3 0 -5.4 1 -7.3 3l-3.2 -3.8c2.8 -2.9 6.5 -4.3 10.9 -4.3c.2 0 .3 0 .4 0c2.7 0 5 .7 6.7 2c1.8 1.3 2.7 3.1 2.7 5.3c0 2.8 -1.4 4.9 -4.2 6.2c3.2 1 4.9 3.2 4.9 6.4c0 2.3 -.9 4.3 -2.8 5.9c-1.9 1.5 -4.4 2.3 -7.5 2.3Zm260.9 0c-2.8 0 -5.1 -.4 -7 -1.1c-1.9 -.8 -3.5 -1.9 -5.1 -3.4l3.2 -4.2c2.3 2.4 5.3 3.6 8.7 3.6c1.4 -.1 2.5 -.3 3.3 -.9c.9 -.7 1.4 -1.4 1.4 -2.5c-.1 -1.1 -.5 -1.9 -1.5 -2.4c-1.1 -.6 -2.3 -.8 -4 -.8h-3.2v-5.1H712c3.2 -.1 4.9 -1 4.9 -3.2c-.1 -.9 -.4 -1.6 -1.2 -2.2c-.9 -.6 -1.9 -.8 -3.2 -.8c-3.1 0 -5.4 1 -7.4 3L702 180.9c2.8 -2.9 6.5 -4.3 10.9 -4.3c.1 0 .3 0 .4 0c2.7 0 4.9 .7 6.7 2c1.8 1.3 2.7 3.1 2.7 5.3c0 2.8 -1.4 4.9 -4.3 6.2c3.3 1 5 3.2 5 6.4c-.1 2.3 -1 4.3 -2.8 5.9c-1.9 1.5 -4.4 2.3 -7.5 2.3ZM833.6 166.3l-.5 -2.5c2.6 -.3 3.8 -1.4 3.8 -3.4V160h-2.4v-6.2h6.3V159c0 2.5 -.6 4.3 -1.8 5.5c-1.3 1.1 -3 1.7 -5.4 1.8ZM536.1 154.9c2.7 -.1 4.2 -1.1 4.2 -3.1c0 -2.1 -1.4 -3 -4.4 -3H529v6.1Zm57.4 -.2c3 0 4.6 -1.3 4.6 -3.9c-.1 -2.5 -1.6 -3.7 -4.6 -3.7h-5.4v7.6Zm421.4 0c2.9 0 4.5 -1.3 4.5 -3.9c-.1 -2.5 -1.5 -3.7 -4.6 -3.7h-5.4v7.6Zm-596.2 0V138h-8v2.8c0 5.2 -.8 9.8 -2.4 13.9Zm309.8 -8.4c1.5 0 2.8 -.3 3.6 -1.1c.9 -.9 1.3 -1.8 1.3 -3.1c-.1 -1.3 -.4 -2.3 -1.3 -3c-.9 -.7 -2.1 -1.1 -3.7 -1.1h-4.8v8.3Zm259.1 0c1.5 0 2.7 -.3 3.6 -1.1c.9 -.9 1.3 -1.8 1.3 -3.1c-.1 -1.3 -.4 -2.3 -1.3 -3c-.9 -.7 -2.1 -1.1 -3.7 -1.1h-4.8v8.3ZM534.5 143.7c2.9 0 4.3 -1 4.3 -3c-.1 -1.1 -.3 -1.7 -1 -2.2c-.8 -.5 -1.6 -.7 -2.9 -.7H529v5.9Zm-31.9 11c2.3 0 4.3 -.9 5.8 -2.5c1.5 -1.7 2.3 -3.6 2.3 -6c-.1 -2.4 -.7 -4.4 -2.3 -6c-1.5 -1.7 -3.5 -2.5 -5.9 -2.5c-2.4 0 -4.3 .8 -5.8 2.4c-1.6 1.6 -2.3 3.7 -2.3 6.1c0 2.3 .8 4.3 2.3 6c1.5 1.6 3.5 2.5 5.9 2.5Zm396.3 0c2.3 0 4.4 -.9 5.9 -2.5c1.5 -1.7 2.2 -3.6 2.2 -6c-.1 -2.4 -.7 -4.4 -2.3 -6c-1.5 -1.7 -3.5 -2.5 -5.8 -2.5c-2.4 0 -4.3 .8 -5.9 2.4c-1.6 1.6 -2.2 3.7 -2.2 6.1c0 2.3 .7 4.3 2.3 6c1.4 1.6 3.5 2.5 5.8 2.5Zm57.4 0c2.3 0 4.3 -.9 5.8 -2.5c1.5 -1.7 2.3 -3.6 2.3 -6c-.1 -2.4 -.8 -4.4 -2.3 -6c-1.5 -1.7 -3.5 -2.5 -5.9 -2.5c-2.4 0 -4.3 .8 -5.8 2.4c-1.6 1.6 -2.3 3.7 -2.3 6.1c0 2.3 .8 4.3 2.3 6c1.5 1.6 3.5 2.5 5.9 2.5ZM399.4 165.6V154.7H402c1 -2.5 1.8 -5.1 2.2 -7.9c.4 -2.8 .7 -6.4 .7 -10.9v-3.2h19.6v22h3.3l-.8 10.9h-4.9V160H405.2l-.4 5.6ZM460.1 160l9.4 -13.9l-9 -13.4h6.9l5.7 8.8l5.8 -8.8h6.8L476.6 146l9.5 14h-7L473 150.6l-6.1 9.4Zm91.9 0V132.7h5.8v10.6h11.3V132.7H575V160h-5.9V149H557.8v11Zm30.3 0V132.7h5.8V142h5.8c3 0 5.6 .8 7.3 2.4c1.8 1.6 2.7 3.7 2.7 6.4c-.1 2.8 -.9 5.1 -2.8 6.7c-1.9 1.6 -4.3 2.5 -7.5 2.5Zm24.8 0V132.7h5.8V160Zm13.2 0V132.7h5.8v17.9l12 -17.9h5.5V160h-5.9V142.1L625.8 160Zm48.6 .1V138.4h-8.3v-5.7h22.6v5.7h-8.4v21.7Zm75.6 -.1V132.7h5.8v17.9l12 -17.9h5.5V160H762V142.1L750.1 160Zm56.9 0V132.7h6.4l7.2 11.5l7.2 -11.5h6.3V160h-5.8V142.2L815 153.8h-.2l-7.6 -11.5V160Zm57.2 0V132.7h5.8v11.9l11 -11.9h7.2l-11 11.6L883.1 160H876l-8.4 -11.6l-3.2 3.2V160Zm66.1 .1V138.4h-8.3v-5.7H939v5.7h-8.5v21.7Zm78.9 -.1V132.7h5.8V142h5.8c3 0 5.6 .8 7.4 2.4c1.7 1.6 2.6 3.7 2.6 6.4c-.1 2.8 -.9 5.1 -2.8 6.7c-1.9 1.6 -4.3 2.5 -7.5 2.5Zm24.8 0V132.7h5.8V160Zm13.2 0V132.7h5.8v17.9l12 -17.9h5.5V160h-5.8V142.1l-12 17.9Zm-323.8 -.2V132.7H729c3.2 0 5.8 .9 7.6 2.6c1.8 1.6 2.8 4 2.8 6.8c-.1 3 -1 5.4 -3.1 7.1c-2.2 1.6 -4.8 2.5 -8 2.5h-4.7v8.1Zm259.1 0V132.7h11.2c3.1 0 5.7 .9 7.6 2.6c1.8 1.6 2.8 4 2.8 6.8c-.1 3 -1 5.4 -3.1 7.1c-2.2 1.6 -4.8 2.5 -8.1 2.5h-4.6v8.1ZM523.2 160V132.7h12.6c3 0 5.4 .8 7 2.4c1.1 1.2 1.8 2.8 1.8 4.7c0 2.6 -1.1 4.6 -3.4 5.9c1.6 .7 2.9 1.5 3.7 2.6c.8 .9 1.3 2.4 1.3 4.2c-.2 2.4 -.9 4.3 -2.7 5.6c-1.9 1.2 -4.3 1.9 -7.5 1.9Zm-85.1 .3c-2.1 0 -4 -.5 -5.9 -1.6l2.3 -4.4c.9 .5 2.1 .9 3.2 .9c1.3 -.1 2.5 -.7 3.5 -2.2L430.3 132.5H437l7.3 14.5l6.6 -14.5h6.5l-10.5 21.2c-1.1 2.3 -2.4 4 -3.8 5c-1.5 1.1 -3.1 1.6 -5 1.6Zm255.6 0c-2.1 0 -4 -.5 -5.9 -1.6l2.4 -4.4c.8 .5 2 .9 3.2 .9c1.3 -.1 2.5 -.7 3.4 -2.2L685.9 132.5h6.7L700 147l6.5 -14.5H713l-10.4 21.2c-1.2 2.3 -2.5 4 -3.9 5c-1.5 1.1 -3.1 1.6 -5 1.6Zm91.3 0c-2.8 0 -5 -.4 -6.9 -1.1c-1.9 -.8 -3.6 -1.8 -5.1 -3.3l3.2 -4.2c2.3 2.3 5.3 3.5 8.7 3.5c1.3 -.1 2.4 -.3 3.3 -.9c.9 -.7 1.3 -1.4 1.3 -2.4c-.1 -1.2 -.5 -1.9 -1.4 -2.4c-1.1 -.6 -2.4 -.8 -4 -.8h-3.2v-5.1H784c3.2 -.1 4.9 -1.1 4.9 -3.2c-.2 -1 -.4 -1.7 -1.3 -2.2c-.8 -.6 -1.8 -.8 -3.1 -.8c-3.1 0 -5.5 1 -7.4 3l-3.2 -3.8c2.9 -3 6.5 -4.3 11 -4.3c.1 0 .2 0 .4 0c2.7 0 4.9 .7 6.6 2c1.8 1.3 2.8 3.1 2.8 5.2c-.1 2.8 -1.5 5 -4.3 6.2c3.2 1.1 4.9 3.2 4.9 6.4c0 2.4 -.9 4.4 -2.8 5.9c-1.8 1.5 -4.3 2.3 -7.5 2.3Zm-282.5 0c-4.2 0 -7.6 -1.4 -10.3 -4.1c-2.8 -2.8 -4.1 -6.1 -4.1 -10c0 -4 1.4 -7.3 4.2 -10c2.7 -2.8 6.2 -4.2 10.3 -4.2c4.1 0 7.6 1.4 10.3 4.1c2.7 2.7 4.1 6.1 4.1 10.1c-.1 3.8 -1.3 7.2 -4.1 10c-2.8 2.7 -6.2 4.1 -10.4 4.1Zm396.4 0c-4.2 0 -7.6 -1.4 -10.4 -4.1c-2.7 -2.8 -4.1 -6.1 -4.1 -10c0 -4 1.4 -7.3 4.2 -10c2.7 -2.8 6.2 -4.2 10.3 -4.2c4.1 0 7.6 1.4 10.4 4.1c2.6 2.7 4.1 6.1 4.1 10.1c-.1 3.8 -1.4 7.2 -4.2 10c-2.8 2.7 -6.2 4.1 -10.3 4.1Zm57.3 0c-4.2 0 -7.6 -1.4 -10.3 -4.1c-2.8 -2.8 -4.1 -6.1 -4.1 -10c0 -4 1.4 -7.3 4.1 -10c2.8 -2.8 6.3 -4.2 10.4 -4.2c4.1 0 7.6 1.4 10.3 4.1c2.7 2.7 4.1 6.1 4.1 10.1c-.1 3.8 -1.3 7.2 -4.1 10c-2.8 2.7 -6.2 4.1 -10.4 4.1ZM632 130.7c-1.8 0 -3.2 -.5 -4.4 -1.6c-1.2 -1 -1.9 -2.5 -2.1 -4.4l3.4 -.6c.6 1.7 1.6 2.6 3.1 2.6c1.5 0 2.5 -.9 3.1 -2.6l3.4 .6c-.3 1.9 -.9 3.4 -2.1 4.4c-1.2 1.1 -2.6 1.6 -4.4 1.6Zm421.3 0c-1.8 0 -3.2 -.5 -4.4 -1.6c-1.1 -1 -1.8 -2.5 -2.1 -4.4l3.5 -.6c.5 1.7 1.5 2.6 3 2.6c1.5 0 2.6 -.9 3.1 -2.6l3.5 .6c-.4 1.9 -1 3.4 -2.1 4.4c-1.3 1.1 -2.7 1.6 -4.5 1.6Z"/></clipPath>
<clipPath id="c7_21"><path d="M395.9 412.1l-.3 -.8c1 -.4 1.5 -.9 1.5 -1.7v-.2h-.8v-2.3h2.1v2c-.1 .9 -.2 1.5 -.6 2c-.5 .5 -1 .8 -1.9 1ZM1135 409.4v-2.3h2.1v2.3ZM646.4 407.9c.8 0 1.5 -.1 2 -.5c.4 -.3 .7 -.7 .7 -1.3c-.1 -.5 -.3 -.9 -.8 -1.2c-.5 -.4 -1.2 -.5 -2.1 -.5h-3.6v3.5Zm67.3 0c.7 0 1.4 -.1 1.9 -.5c.4 -.3 .7 -.7 .7 -1.3c-.1 -.5 -.2 -.9 -.7 -1.2c-.6 -.4 -1.2 -.5 -2.2 -.5h-3.6v3.5Zm221.4 0c.7 0 1.5 -.1 1.9 -.5c.4 -.3 .7 -.7 .7 -1.3c0 -.5 -.2 -.9 -.7 -1.2c-.5 -.4 -1.2 -.5 -2.1 -.5h-3.6v3.5Zm111.7 0c.7 0 1.4 -.1 1.9 -.5c.4 -.3 .7 -.7 .7 -1.3c-.1 -.5 -.2 -.9 -.7 -1.2c-.6 -.4 -1.2 -.5 -2.1 -.5H1043v3.5Zm27.3 0c.7 0 1.5 -.1 1.9 -.5c.4 -.3 .7 -.7 .7 -1.3c0 -.5 -.2 -.9 -.7 -1.2c-.5 -.4 -1.2 -.5 -2.1 -.5h-3.6v3.5Zm-210.3 .4c.9 -.1 1.9 -.3 2.6 -.9c.7 -.7 1.1 -1.3 1.1 -2.1v-1.1c-1.1 -.3 -2.2 -.4 -3.3 -.4c-1 0 -1.8 .2 -2.4 .6c-.7 .3 -.9 .9 -.9 1.6c0 .6 .3 1.2 .9 1.6c.4 .4 1.2 .7 2 .7Zm221.3 0c.9 -.1 1.9 -.3 2.6 -.9c.7 -.7 1.1 -1.3 1.1 -2.1v-1.1c-1.1 -.3 -2.2 -.4 -3.2 -.4c-1.1 0 -1.9 .2 -2.5 .6c-.6 .3 -.8 .9 -.8 1.6c-.1 .6 .2 1.2 .8 1.6c.4 .4 1.2 .7 2 .7Zm-439 -5.4c.6 0 1.3 -.1 1.7 -.4c.3 -.3 .6 -.8 .6 -1.3c-.1 -.5 -.2 -.9 -.6 -1.2c-.5 -.3 -.9 -.4 -1.6 -.4h-3.6v3.3Zm67.2 0c.7 0 1.3 -.1 1.7 -.4c.3 -.3 .6 -.8 .6 -1.3c0 -.5 -.2 -.9 -.6 -1.2c-.5 -.3 -.9 -.4 -1.6 -.4h-3.6v3.3Zm221.5 0c.6 0 1.2 -.1 1.7 -.4c.3 -.3 .6 -.8 .6 -1.3c-.1 -.5 -.2 -.9 -.6 -1.2c-.5 -.3 -1 -.4 -1.7 -.4h-3.5v3.3Zm111.7 0c.6 0 1.2 -.1 1.6 -.4c.4 -.3 .7 -.8 .7 -1.3c-.1 -.5 -.2 -.9 -.6 -1.2c-.5 -.3 -1 -.4 -1.7 -.4H1043v3.3Zm27.3 0c.6 0 1.2 -.1 1.7 -.4c.3 -.3 .6 -.8 .6 -1.3c-.1 -.5 -.2 -.9 -.6 -1.2c-.5 -.3 -1 -.4 -1.7 -.4h-3.5v3.3Zm-645.3 5.4c1.1 -.1 2.2 -.5 2.9 -1.3c.8 -.9 1.2 -1.9 1.2 -3.1c-.1 -1.2 -.4 -2.2 -1.2 -3c-.8 -.9 -1.7 -1.3 -2.9 -1.3q-.1 0 -.2 0c-1.1 0 -2 .5 -2.7 1.3c-.8 .8 -1.1 1.8 -1.1 3c-.1 1.2 .3 2.2 1.1 3.1c.7 .8 1.8 1.3 2.9 1.3Zm246.7 -4.5v-4.2h-3.6c-.1 0 -.2 0 -.2 0c-.8 0 -1.3 .2 -1.8 .5c-.5 .4 -.7 .9 -.7 1.5c0 .6 .3 1.2 .8 1.6c.4 .3 1.1 .6 2 .6Zm-326.8 4.6c1.2 0 2.3 -.4 3 -1.3c.8 -.8 1.2 -1.9 1.2 -3.2c0 -1.3 -.4 -2.3 -1.2 -3.2c-.8 -.9 -1.8 -1.3 -3 -1.3c-1.4 0 -2.3 .5 -3.1 1.3c-.8 .8 -1.1 2 -1.1 3.2c-.1 1.2 .4 2.3 1.2 3.2c.7 .9 1.8 1.3 3 1.3Zm65.6 0c1.3 0 2.3 -.4 3.1 -1.3c.8 -.8 1.2 -1.9 1.2 -3.2c-.1 -1.3 -.4 -2.3 -1.3 -3.2c-.8 -.9 -1.8 -1.3 -3 -1.3c-1.3 0 -2.2 .5 -3 1.3c-.9 .8 -1.2 2 -1.2 3.2c0 1.2 .4 2.3 1.2 3.2c.7 .9 1.8 1.3 3 1.3Zm29.2 -.1c1.1 -.1 2.2 -.4 2.9 -1.2c.8 -.9 1.2 -1.9 1.2 -3.3c-.1 -1.3 -.4 -2.3 -1.2 -3.1c-.8 -.9 -1.7 -1.3 -2.9 -1.3c-1.1 0 -2 .5 -2.8 1.3c-1 .7 -1.3 1.9 -1.3 3.2c0 1.2 .4 2.3 1.3 3.1c.7 .8 1.7 1.3 2.8 1.3Zm17.5 -5c-.2 -1.2 -.5 -2 -1.2 -2.8c-.6 -.7 -1.4 -1.1 -2.5 -1.1c-1.1 0 -1.9 .4 -2.6 1.1c-.8 .7 -1.1 1.7 -1.2 2.8Zm23.3 0c-.2 -1.2 -.5 -2 -1.1 -2.8c-.7 -.7 -1.5 -1.1 -2.6 -1.1c-1.1 0 -1.8 .4 -2.6 1.1c-.8 .7 -1.1 1.7 -1.2 2.8Zm40.9 0c-.1 -1.2 -.4 -2 -1.1 -2.8c-.7 -.7 -1.5 -1.1 -2.6 -1.1c-1 0 -1.8 .4 -2.5 1.1c-.8 .7 -1.1 1.7 -1.2 2.8Zm43 5.1c1.2 0 2.2 -.4 3 -1.3c.8 -.8 1.2 -1.9 1.2 -3.2c-.1 -1.3 -.4 -2.3 -1.2 -3.2c-.8 -.9 -1.8 -1.3 -3 -1.3c-1.4 0 -2.3 .5 -3.1 1.3c-.8 .8 -1.2 2 -1.2 3.2c0 1.2 .5 2.3 1.3 3.2c.7 .9 1.8 1.3 3 1.3Zm26.2 0c1.3 0 2.3 -.4 3.1 -1.3c.7 -.8 1.2 -1.9 1.2 -3.2c-.1 -1.3 -.5 -2.3 -1.3 -3.2c-.8 -.9 -1.8 -1.3 -3 -1.3c-1.3 0 -2.3 .5 -3 1.3c-.9 .8 -1.2 2 -1.2 3.2c-.1 1.2 .4 2.3 1.2 3.2c.7 .9 1.8 1.3 3 1.3ZM765 408.3c1.1 -.1 2.1 -.4 2.8 -1.2c.8 -.9 1.2 -1.9 1.2 -3.3c-.1 -1.3 -.4 -2.3 -1.2 -3.1c-.8 -.9 -1.7 -1.3 -2.8 -1.3c-1.2 0 -2.1 .5 -2.9 1.3c-.9 .7 -1.2 1.9 -1.2 3.2c-.1 1.2 .4 2.3 1.2 3.1c.7 .8 1.8 1.3 2.9 1.3Zm17.4 -5c-.2 -1.2 -.5 -2 -1.1 -2.8c-.7 -.7 -1.5 -1.1 -2.6 -1.1c-1.1 0 -1.9 .4 -2.6 1.1c-.8 .7 -1.1 1.7 -1.2 2.8Zm40.8 0c-.2 -1.2 -.5 -2 -1.1 -2.8c-.7 -.7 -1.5 -1.1 -2.6 -1.1c-1.1 0 -1.9 .4 -2.6 1.1c-.8 .7 -1.1 1.7 -1.2 2.8Zm13.1 0c-.2 -1.2 -.5 -2 -1.1 -2.8c-.7 -.7 -1.5 -1.1 -2.6 -1.1c-1 0 -1.8 .4 -2.5 1.1c-.8 .7 -1.2 1.7 -1.3 2.8Zm57.2 5.1c1.3 0 2.3 -.4 3.1 -1.3c.8 -.8 1.2 -1.9 1.2 -3.2c-.1 -1.3 -.4 -2.3 -1.3 -3.2c-.8 -.9 -1.8 -1.3 -3 -1.3c-1.3 0 -2.2 .5 -3 1.3c-.9 .8 -1.2 2 -1.2 3.2c0 1.2 .4 2.3 1.2 3.2c.7 .9 1.8 1.3 3 1.3Zm27 0c1.3 0 2.3 -.4 3.1 -1.3c.7 -.8 1.2 -1.9 1.2 -3.2c-.1 -1.3 -.5 -2.3 -1.3 -3.2c-.8 -.9 -1.8 -1.3 -3 -1.3c-1.3 0 -2.3 .5 -3 1.3c-.9 .8 -1.2 2 -1.2 3.2c0 1.2 .4 2.3 1.2 3.2c.7 .9 1.8 1.3 3 1.3Zm30.6 -5.1c-.2 -1.2 -.5 -2 -1.1 -2.8c-.7 -.7 -1.5 -1.1 -2.6 -1.1c-1.1 0 -1.9 .4 -2.6 1.1c-.8 .7 -1.1 1.7 -1.2 2.8Zm10.4 5c1.1 -.1 2.1 -.4 2.9 -1.2c.7 -.9 1.1 -1.9 1.1 -3.3c0 -1.3 -.4 -2.3 -1.1 -3.1c-.8 -.9 -1.8 -1.3 -2.9 -1.3c-1.2 0 -2 .5 -2.9 1.3c-.9 .7 -1.2 1.9 -1.2 3.2c0 1.2 .4 2.3 1.2 3.1c.7 .8 1.8 1.3 2.9 1.3Zm37.6 -5c-.2 -1.2 -.5 -2 -1.2 -2.8c-.6 -.7 -1.5 -1.1 -2.5 -1.1c-1.1 0 -1.9 .4 -2.6 1.1c-.8 .7 -1.1 1.7 -1.2 2.8Zm60.4 5.1c1.3 0 2.3 -.4 3.1 -1.3c.7 -.8 1.2 -1.9 1.2 -3.2c-.1 -1.3 -.5 -2.3 -1.3 -3.2c-.8 -.9 -1.8 -1.3 -3 -1.3c-1.3 0 -2.3 .5 -3 1.3c-.9 .8 -1.2 2 -1.2 3.2c0 1.2 .4 2.3 1.2 3.2c.7 .9 1.8 1.3 3 1.3Zm71.2 -5.1c-.2 -1.2 -.4 -2 -1.1 -2.8c-.7 -.7 -1.5 -1.1 -2.6 -1.1c-1 0 -1.8 .4 -2.5 1.1c-.8 .7 -1.1 1.7 -1.2 2.8Zm-801.4 6.1V398.1h10v11.3h-1.7v-9.8h-6.5v9.8Zm28.1 0V398.1h1.8v9l6.8 -9h1.7v11.3H366v-8.9l-6.9 8.9Zm26.7 0V398.1h1.7v6.5l6.3 -6.5h2.1l-4.8 4.9l4.9 6.4h-2l-4.1 -5.2l-2.4 2.5v2.7Zm83.3 0v-9.8h-3.9v-1.5h9.9v1.5h-4.2v9.8Zm21.1 0V398.1h1.8v4.8h6.6v-4.8h1.7v11.3h-1.7v-5h-6.6v5Zm13.9 0V398.1h1.7v9l6.9 -9h1.7v11.3h-1.8v-8.9l-6.8 8.9Zm46.4 0V398.1h10v11.3H557v-9.8h-6.4v9.8Zm28.1 0V398.1h1.7v6.5l6.3 -6.5H587l-4.8 4.9l4.9 6.4h-2l-4 -5.2l-2.5 2.5v2.7Zm26.2 0V398.1h1.8v9l6.8 -9h1.7v11.3h-1.7v-8.9l-6.9 8.9Zm29.3 0v-9.8h-4v-1.5h10v1.5h-4.2v9.8Zm8.5 0V398.1h5.5c1.1 0 2.1 .3 2.7 .8c.6 .5 1.1 1.2 1.1 2c0 1.2 -.7 2.1 -2 2.7c1.7 .4 2.6 1.3 2.6 2.7c0 .9 -.3 1.7 -1.1 2.3c-.8 .5 -1.8 .8 -3.1 .8Zm12.9 0V398.1h1.8v9l6.9 -9h1.7v11.3h-1.8v-8.9l-6.9 8.9Zm12.9 0l3.6 -4.4c-1 -.3 -1.7 -.6 -2.3 -1.2c-.6 -.6 -.8 -1.3 -.8 -2.2c0 -1.1 .4 -1.9 1.1 -2.5c.7 -.8 1.9 -1 3.2 -1h5.4v11.3h-1.7v-4.1H672c-.2 .1 -.6 .7 -1.3 1.8c-.9 .9 -1.4 1.8 -1.8 2.3Zm20.7 0V398.1h1.8v9l6.8 -9h1.7v11.3H696v-8.9l-6.9 8.9Zm20.7 0V398.1h5.5c1.1 0 2.1 .3 2.8 .8c.6 .5 1 1.2 1 2c0 1.2 -.6 2.1 -1.9 2.7c1.7 .4 2.6 1.3 2.6 2.7c0 .9 -.4 1.7 -1.2 2.3c-.8 .5 -1.8 .8 -3 .8Zm13 0V398.1h1.7v4.8h6.6v-4.8h1.7v11.3h-1.7v-5h-6.6v5Zm15.5 3.7c-.8 0 -1.6 -.2 -2.4 -.6l.5 -1.3c.5 .2 1.2 .4 1.8 .4c.4 -.1 1 -.2 1.3 -.5c.3 -.3 .7 -.9 1.1 -1.7l-5.2 -11.3h1.9l4.1 9.5l3.7 -9.5h1.8l-4.8 11.8c-.5 1.1 -1 1.9 -1.6 2.4c-.7 .4 -1.3 .8 -2.2 .8Zm14.1 -3.7v-9.8h-4v-1.5h10v1.5h-4.3v9.8Zm36.3 0V398.1h1.7v4.8h6.6v-4.8H797v11.3h-1.7v-5h-6.6v5Zm13.8 0V398.1h1.7v4.8h6.6v-4.8h1.8v11.3h-1.8v-5h-6.6v5Zm72.2 0V398.1h1.7l4.2 6l4.2 -6h1.6v11.3H883v-8.6l-4.1 5.7l-4.1 -5.7v8.6Zm56.5 0V398.1h5.6c1 0 2 .3 2.7 .8c.6 .5 1 1.2 1 2c0 1.2 -.6 2.1 -1.9 2.7c1.7 .4 2.6 1.3 2.6 2.7c0 .9 -.4 1.7 -1.1 2.3c-.9 .5 -1.8 .8 -3.1 .8Zm40.9 0V398.1h1.7v9.8h5.5v-9.8h1.7v9.8h5.5v-9.8h1.8v11.3Zm33.2 0V398.1h1.8v4.8h6.5v-4.8h1.8v11.3h-1.8v-5h-6.5v5Zm29.2 0v-9.8h-4v-1.5h10v1.5h-4.3v9.8Zm8.4 0V398.1h5.6c1 0 2 .3 2.7 .8c.6 .5 1 1.2 1 2c0 1.2 -.6 2.1 -1.9 2.7c1.7 .4 2.6 1.3 2.6 2.7c0 .9 -.4 1.7 -1.2 2.3c-.8 .5 -1.7 .8 -3 .8Zm27.3 0V398.1h5.6c1 0 2 .3 2.7 .8c.6 .5 1 1.2 1 2c0 1.2 -.6 2.1 -1.9 2.7c1.7 .4 2.6 1.3 2.6 2.7c0 .9 -.4 1.7 -1.1 2.3c-.9 .5 -1.8 .8 -3.1 .8Zm25.9 0V398.1h1.7v4.8h6.6v-4.8h1.7v11.3h-1.7v-5h-6.6v5Zm13.8 0V398.1h1.7v9l6.9 -9h1.7v11.3h-1.8v-8.9l-6.8 8.9Zm-731.6 .5c-1.7 0 -3.1 -.6 -4.2 -1.7c-1.1 -1.2 -1.7 -2.6 -1.7 -4.3c0 -1.7 .6 -3 1.7 -4.2c1.1 -1.3 2.5 -1.8 4.2 -1.8q.1 0 .2 0c1.6 0 3.1 .8 4.4 2.1l-1.1 1.1c-1.1 -1.1 -2.2 -1.7 -3.5 -1.7c-1.2 0 -2.1 .5 -2.9 1.3c-.9 .8 -1.2 2 -1.2 3.2c-.1 1.2 .4 2.3 1.2 3.2c.7 .9 1.8 1.3 3 1.3c1.1 0 2.4 -.6 3.4 -1.7l1.2 1c-1.4 1.4 -2.9 2.2 -4.7 2.2Zm164.8 0c-1.8 0 -3.1 -.6 -4.2 -1.7c-1.2 -1.2 -1.7 -2.6 -1.7 -4.3c0 -1.7 .6 -3 1.7 -4.2c1.1 -1.3 2.5 -1.8 4.2 -1.8c0 0 .1 0 .1 0c1.7 0 3.2 .8 4.4 2.1l-1 1.1c-1.1 -1.1 -2.3 -1.7 -3.6 -1.7c-1.2 0 -2.1 .5 -2.9 1.3c-.9 .8 -1.2 2 -1.2 3.2c0 1.2 .4 2.3 1.3 3.2c.7 .9 1.8 1.3 3 1.3c1.1 0 2.3 -.6 3.4 -1.7l1.1 1c-1.4 1.4 -2.8 2.2 -4.6 2.2Zm80.9 0c-1.7 0 -3 -.6 -4.2 -1.7c-1.1 -1.2 -1.7 -2.6 -1.7 -4.3c0 -1.7 .6 -3 1.7 -4.2c1.2 -1.3 2.6 -1.8 4.2 -1.8q.1 0 .2 0c1.6 0 3.2 .8 4.4 2.1l-1.1 1.1c-1.1 -1.1 -2.2 -1.7 -3.5 -1.7c-1.2 0 -2.1 .5 -2.9 1.3c-.9 .8 -1.2 2 -1.2 3.2c0 1.2 .4 2.3 1.2 3.2c.7 .9 1.8 1.3 3 1.3c1.1 0 2.4 -.6 3.5 -1.7l1.1 1c-1.4 1.4 -2.9 2.2 -4.7 2.2Zm230.4 0c-1.7 0 -3 -.6 -4.1 -1.7c-1.2 -1.2 -1.7 -2.6 -1.7 -4.3c0 -1.7 .5 -3 1.7 -4.2c1.1 -1.3 2.5 -1.8 4.1 -1.8q.1 0 .2 0c1.6 0 3.2 .8 4.4 2.1l-1.1 1.1c-1.1 -1.1 -2.2 -1.7 -3.5 -1.7c-1.2 0 -2.1 .5 -2.9 1.3c-.9 .8 -1.2 2 -1.2 3.2c0 1.2 .4 2.3 1.2 3.2c.7 .9 1.8 1.3 3 1.3c1.1 0 2.4 -.6 3.5 -1.7l1.1 1c-1.4 1.4 -2.9 2.2 -4.7 2.2Zm55 0c-1.7 0 -3 -.6 -4.1 -1.7c-1.2 -1.2 -1.7 -2.6 -1.7 -4.3c0 -1.7 .5 -3 1.7 -4.2c1.1 -1.3 2.5 -1.8 4.1 -1.8c.1 0 .2 0 .2 0c1.6 0 3.2 .8 4.4 2.1l-1.1 1.1c-1 -1.1 -2.2 -1.7 -3.5 -1.7c-1.2 0 -2.1 .5 -2.9 1.3c-.9 .8 -1.2 2 -1.2 3.2c0 1.2 .4 2.3 1.2 3.2c.7 .9 1.8 1.3 3 1.3c1.2 0 2.4 -.6 3.5 -1.7l1.1 1c-1.4 1.4 -2.9 2.2 -4.7 2.2Zm115 0c-1.8 0 -3.1 -.6 -4.2 -1.7c-1.2 -1.2 -1.7 -2.6 -1.7 -4.3c0 -1.7 .6 -3 1.7 -4.2c1.1 -1.3 2.5 -1.8 4.2 -1.8c0 0 .1 0 .1 0c1.7 0 3.2 .8 4.4 2.1l-1 1.1c-1.1 -1.1 -2.3 -1.7 -3.6 -1.7c-1.2 0 -2.1 .5 -2.9 1.3c-.9 .8 -1.2 2 -1.2 3.2c0 1.2 .4 2.3 1.2 3.2c.8 .9 1.9 1.3 3.1 1.3c1.1 0 2.3 -.6 3.4 -1.7l1.1 1c-1.4 1.4 -2.8 2.2 -4.6 2.2Zm-565.5 0c-1.7 0 -3 -.5 -4.1 -1.7c-1.1 -1.1 -1.7 -2.5 -1.7 -4.3c0 -1.7 .6 -3.1 1.6 -4.2c1 -1.3 2.4 -1.8 4 -1.8q.1 0 .2 0c1.5 0 2.8 .7 3.8 1.8c.9 1.1 1.4 2.7 1.4 4.4c-.1 .3 0 .5 0 .7h-9.2c.1 1.1 .5 2 1.3 2.6c.8 .7 1.7 1 2.8 1c1.3 0 2.6 -.5 3.6 -1.5l1.1 .9c-1.4 1.4 -2.9 2.1 -4.8 2.1Zm23.4 0c-1.7 0 -3.1 -.5 -4.2 -1.7c-1.1 -1.1 -1.6 -2.5 -1.6 -4.3c0 -1.7 .5 -3.1 1.6 -4.2c.9 -1.3 2.3 -1.8 3.9 -1.8q.1 0 .2 0c1.5 0 2.8 .7 3.8 1.8c.9 1.1 1.4 2.7 1.4 4.4c-.1 .3 0 .5 0 .7h-9.2c.1 1.1 .6 2 1.3 2.6c.8 .7 1.7 1 2.8 1c1.3 0 2.6 -.5 3.7 -1.5l1 .9c-1.4 1.4 -2.9 2.1 -4.7 2.1Zm40.9 0c-1.7 0 -3 -.5 -4.1 -1.7c-1.1 -1.1 -1.7 -2.5 -1.7 -4.3c0 -1.7 .5 -3.1 1.6 -4.2c1 -1.3 2.4 -1.8 4 -1.8c0 0 .1 0 .2 0c1.5 0 2.8 .7 3.7 1.8c.9 1.1 1.5 2.7 1.5 4.4c-.1 .3 0 .5 0 .7h-9.2c.1 1.1 .5 2 1.3 2.6c.7 .7 1.7 1 2.8 1c1.3 0 2.6 -.5 3.6 -1.5l1.1 .9c-1.4 1.4 -2.9 2.1 -4.8 2.1Zm257.4 0c-1.6 0 -3 -.5 -4.1 -1.7c-1.1 -1.1 -1.6 -2.5 -1.6 -4.3c0 -1.7 .5 -3.1 1.6 -4.2c.9 -1.3 2.3 -1.8 3.9 -1.8q.1 0 .2 0c1.5 0 2.8 .7 3.8 1.8c.9 1.1 1.4 2.7 1.4 4.4c-.1 .3 0 .5 0 .7h-9.2c.1 1.1 .6 2 1.3 2.6c.8 .7 1.7 1 2.8 1c1.3 0 2.6 -.5 3.7 -1.5l1 .9c-1.4 1.4 -2.9 2.1 -4.8 2.1Zm40.8 0c-1.6 0 -3 -.5 -4.1 -1.7c-1.1 -1.1 -1.6 -2.5 -1.6 -4.3c0 -1.7 .5 -3.1 1.5 -4.2c1 -1.3 2.4 -1.8 4 -1.8q.1 0 .2 0c1.5 0 2.8 .7 3.8 1.8c.9 1.1 1.4 2.7 1.4 4.4c-.1 .3 0 .5 0 .7h-9.2c.1 1.1 .6 2 1.3 2.6c.8 .7 1.7 1 2.8 1c1.3 0 2.6 -.5 3.7 -1.5l1 .9c-1.4 1.4 -2.9 2.1 -4.8 2.1Zm13.2 0c-1.7 0 -3 -.5 -4.2 -1.7c-1.1 -1.1 -1.6 -2.5 -1.6 -4.3c0 -1.7 .5 -3.1 1.6 -4.2c1 -1.3 2.4 -1.8 3.9 -1.8c.1 0 .2 0 .2 0c1.5 0 2.9 .7 3.8 1.8c.9 1.1 1.5 2.7 1.5 4.4c-.2 .3 -.1 .5 -.1 .7h-9.2c.1 1.1 .6 2 1.4 2.6c.7 .7 1.7 1 2.7 1c1.3 0 2.6 -.5 3.7 -1.5l1.1 .9c-1.4 1.4 -2.9 2.1 -4.8 2.1Zm114.7 0c-1.6 0 -3 -.5 -4.1 -1.7c-1.1 -1.1 -1.7 -2.5 -1.7 -4.3c0 -1.7 .6 -3.1 1.6 -4.2c1 -1.3 2.4 -1.8 4 -1.8q.1 0 .2 0c1.5 0 2.8 .7 3.8 1.8c.9 1.1 1.4 2.7 1.4 4.4c-.1 .3 0 .5 0 .7h-9.2c.1 1.1 .6 2 1.3 2.6c.8 .7 1.7 1 2.8 1c1.3 0 2.6 -.5 3.6 -1.5l1.1 .9c-1.4 1.4 -2.9 2.1 -4.8 2.1Zm48 0c-1.7 0 -3 -.5 -4.1 -1.7c-1.1 -1.1 -1.7 -2.5 -1.7 -4.3c0 -1.7 .6 -3.1 1.6 -4.2c1 -1.3 2.4 -1.8 4 -1.8q.1 0 .2 0c1.5 0 2.8 .7 3.7 1.8c.9 1.1 1.5 2.7 1.5 4.4c-.1 .3 0 .5 0 .7h-9.2c.1 1.1 .5 2 1.3 2.6c.8 .7 1.7 1 2.8 1c1.3 0 2.6 -.5 3.6 -1.5l1.1 .9c-1.4 1.4 -2.9 2.1 -4.8 2.1Zm131.7 0c-1.7 0 -3 -.5 -4.1 -1.7c-1.1 -1.1 -1.7 -2.5 -1.7 -4.3c0 -1.7 .5 -3.1 1.6 -4.2c1 -1.3 2.4 -1.8 4 -1.8c0 0 .1 0 .2 0c1.5 0 2.8 .7 3.7 1.8c.9 1.1 1.5 2.7 1.5 4.4c-.1 .3 0 .5 0 .7h-9.2c.1 1.1 .5 2 1.3 2.6c.7 .7 1.7 1 2.8 1c1.3 0 2.6 -.5 3.6 -1.5l1.1 .9c-1.4 1.4 -2.9 2.1 -4.8 2.1Zm-778.9 0c-1.8 0 -3.2 -.6 -4.3 -1.7c-1.1 -1.2 -1.7 -2.6 -1.7 -4.3c0 -1.7 .6 -3 1.7 -4.2c1.2 -1.3 2.6 -1.8 4.3 -1.8q.1 0 .2 0c1.6 0 3 .7 4.1 1.8c1 1.1 1.7 2.6 1.7 4.2c-.1 1.6 -.6 3.1 -1.7 4.3c-1.3 1.1 -2.6 1.7 -4.3 1.7Zm65.6 0c-1.8 0 -3.1 -.6 -4.3 -1.7C408.6 407 408 405.6 408 403.9c0 -1.7 .6 -3 1.8 -4.2c1.1 -1.3 2.5 -1.8 4.2 -1.8c.1 0 .2 0 .2 0c1.6 0 3 .7 4.1 1.8c1 1.1 1.7 2.6 1.7 4.2c-.1 1.6 -.6 3.1 -1.7 4.3c-1.3 1.1 -2.6 1.7 -4.3 1.7Zm153.9 0c-1.9 0 -3.2 -.6 -4.3 -1.7c-1.1 -1.2 -1.7 -2.6 -1.7 -4.3c0 -1.7 .6 -3 1.7 -4.2c1.1 -1.3 2.6 -1.8 4.3 -1.8q.1 0 .2 0c1.6 0 3 .7 4.1 1.8c1 1.1 1.7 2.6 1.7 4.2c-.1 1.6 -.6 3.1 -1.8 4.3c-1.2 1.1 -2.5 1.7 -4.2 1.7Zm26.2 0c-1.8 0 -3.1 -.6 -4.3 -1.7c-1.1 -1.2 -1.7 -2.6 -1.7 -4.3c0 -1.7 .6 -3 1.7 -4.2c1.2 -1.3 2.6 -1.8 4.3 -1.8c.1 0 .2 0 .2 0c1.6 0 3 .7 4.1 1.8c1 1.1 1.7 2.6 1.7 4.2c-.1 1.6 -.6 3.1 -1.7 4.3c-1.3 1.1 -2.6 1.7 -4.3 1.7Zm299.4 0c-1.8 0 -3.1 -.6 -4.3 -1.7c-1.1 -1.2 -1.7 -2.6 -1.7 -4.3c0 -1.7 .6 -3 1.8 -4.2c1.1 -1.3 2.5 -1.8 4.2 -1.8c.1 0 .2 0 .2 0c1.6 0 3 .7 4.1 1.8c1.1 1.1 1.7 2.6 1.7 4.2c-.1 1.6 -.6 3.1 -1.7 4.3c-1.3 1.1 -2.6 1.7 -4.3 1.7Zm27 0c-1.8 0 -3.1 -.6 -4.3 -1.7c-1.1 -1.2 -1.7 -2.6 -1.7 -4.3c0 -1.7 .6 -3 1.7 -4.2c1.2 -1.3 2.6 -1.8 4.3 -1.8c.1 0 .2 0 .2 0c1.6 0 3 .7 4.1 1.8c1 1.1 1.7 2.6 1.7 4.2c-.1 1.6 -.6 3.1 -1.7 4.3c-1.3 1.1 -2.6 1.7 -4.3 1.7Zm139 0c-1.8 0 -3.1 -.6 -4.3 -1.7c-1.1 -1.2 -1.7 -2.6 -1.7 -4.3c0 -1.7 .6 -3 1.7 -4.2c1.2 -1.3 2.6 -1.8 4.3 -1.8c.1 0 .2 0 .2 0c1.6 0 3 .7 4.1 1.8c1 1.1 1.7 2.6 1.7 4.2c-.1 1.6 -.6 3.1 -1.7 4.3c-1.3 1.1 -2.6 1.7 -4.3 1.7Zm-622.1 3.2v-15h1.7v2.4c1.2 -1.7 2.6 -2.6 4.4 -2.6q.1 0 .2 0c1.3 0 2.6 .6 3.7 1.6c1.1 1.1 1.6 2.6 1.6 4.4c-.1 1.7 -.5 3.1 -1.6 4.2c-1.1 1.1 -2.4 1.6 -3.9 1.6c-1.8 0 -3.2 -.7 -4.4 -2.3v5.7Zm321.7 0v-15h1.8v2.4c1.1 -1.7 2.6 -2.6 4.4 -2.6c0 0 .1 0 .1 0c1.4 0 2.6 .6 3.7 1.6c1.1 1.1 1.6 2.6 1.6 4.4c-.1 1.7 -.5 3.1 -1.6 4.2c-1.1 1.1 -2.4 1.6 -3.8 1.6c-1.9 0 -3.3 -.7 -4.4 -2.3v5.7Zm196.5 0v-15h1.8v2.4c1.1 -1.7 2.6 -2.6 4.4 -2.6q.1 0 .2 0c1.3 0 2.6 .6 3.6 1.6c1.1 1.1 1.7 2.6 1.7 4.4c-.1 1.7 -.6 3.1 -1.7 4.2c-1.1 1.1 -2.3 1.6 -3.8 1.6c-1.9 0 -3.3 -.7 -4.4 -2.3v5.7Zm-92.2 -3.4c-1.2 0 -2.1 -.3 -3 -.9c-.9 -.7 -1.2 -1.6 -1.2 -2.7c0 -1.3 .4 -2.2 1.3 -2.8c.8 -.8 2.1 -1 3.5 -1c.1 0 .2 0 .4 0c1 0 2.1 .2 3.1 .5v-.3c0 -1 -.3 -1.8 -.9 -2.3c-.6 -.5 -1.4 -.8 -2.4 -.8c-1.2 0 -2.3 .3 -3.5 .8l-.5 -1.3c1.4 -.7 2.8 -1 4.2 -1q.1 0 .2 0c1.5 0 2.7 .5 3.5 1.3c.7 .7 1.2 1.9 1.2 3.3v6.9h-1.8v-1.7c-1 1.3 -2.4 2 -4.1 2Zm221.3 0c-1.2 0 -2.1 -.3 -2.9 -.9c-1 -.7 -1.3 -1.6 -1.3 -2.7c0 -1.3 .5 -2.2 1.3 -2.8c.8 -.8 2.1 -1 3.6 -1c.1 0 .2 0 .3 0c1 0 2.1 .2 3.1 .5v-.3c0 -1 -.3 -1.8 -.8 -2.3c-.7 -.5 -1.4 -.8 -2.5 -.8c-1.2 0 -2.3 .3 -3.4 .8l-.6 -1.3c1.5 -.7 2.8 -1 4.2 -1c.1 0 .2 0 .2 0c1.5 0 2.7 .5 3.5 1.3c.7 .7 1.2 1.9 1.2 3.3v6.9h-1.8v-1.7c-1 1.3 -2.3 2 -4.1 2Zm-656.2 0c-1.8 0 -3.2 -.5 -4.2 -1.7c-1.2 -1.2 -1.6 -2.7 -1.6 -4.7c0 -.8 0 -1.4 0 -1.9c0 -.5 0 -1 .1 -1.7c.1 -.7 .3 -1.1 .5 -1.6c.1 -.4 .4 -.8 .7 -1.3c.2 -.4 .7 -.8 1.2 -1.1c.4 -.4 1.1 -.5 1.7 -.6l6.4 -1.5l.4 1.4l-6.2 1.5c-1.2 .3 -2 .8 -2.5 1.5c-.6 .6 -.8 1.5 -.9 2.7c1 -1.8 2.6 -2.6 4.8 -2.6c1.4 0 2.8 .6 3.8 1.7c1.1 1.1 1.6 2.5 1.6 4c-.1 1.6 -.5 3.1 -1.6 4.2c-1.3 1.1 -2.5 1.7 -4.2 1.7ZM608.2 396.4c-.8 0 -1.5 -.2 -2.1 -.7c-.6 -.6 -.9 -1.2 -1 -2.1l1.2 -.2c.2 .9 .9 1.5 1.9 1.5c1 0 1.7 -.5 2 -1.5l1.2 .2c-.3 .8 -.5 1.5 -1.1 2.1c-.6 .4 -1.3 .7 -2.1 .7Zm44.3 -23.1l-.2 -.8c.9 -.4 1.4 -.9 1.4 -1.7v-.2h-.8v-2.3H655v2c0 .9 -.2 1.5 -.6 2c-.4 .5 -1 .8 -1.9 1Zm266.3 0l-.3 -.8c1 -.4 1.5 -.9 1.5 -1.7v-.2h-.8v-2.3h2v2c0 .9 -.2 1.5 -.6 2c-.4 .5 -1 .8 -1.8 1ZM402 369.1c.7 0 1.5 -.1 2 -.5c.4 -.3 .7 -.7 .7 -1.3c-.1 -.5 -.3 -.9 -.8 -1.2c-.5 -.4 -1.2 -.5 -2.1 -.5h-3.6v3.5Zm229.5 0c.7 0 1.5 -.1 1.9 -.5c.4 -.3 .7 -.7 .7 -1.3c0 -.5 -.2 -.9 -.7 -1.2c-.5 -.4 -1.2 -.5 -2.1 -.5h-3.6v3.5Zm536.3 0c.7 0 1.5 -.1 1.9 -.5c.5 -.3 .8 -.7 .8 -1.3c-.1 -.5 -.3 -.9 -.8 -1.2c-.5 -.4 -1.2 -.5 -2.1 -.5H1164v3.5Zm-588.7 .3c.9 0 1.9 -.2 2.6 -.8c.7 -.7 1.1 -1.3 1.1 -2.1v-1.1c-1.1 -.3 -2.2 -.4 -3.3 -.4c-1 0 -1.8 .2 -2.4 .6c-.7 .3 -.8 .9 -.8 1.6c-.1 .6 .2 1.2 .8 1.6c.4 .4 1.2 .6 2 .6Zm121.7 -.3c.8 0 1.6 -.2 2 -.5c.4 -.5 .7 -.9 .7 -1.6c0 -.7 -.2 -1.2 -.7 -1.5c-.5 -.4 -1.2 -.5 -2 -.5h-3.1v4.1Zm248.2 .3c.9 0 1.9 -.2 2.6 -.8c.7 -.7 1.1 -1.3 1.1 -2.1v-1.1c-1.1 -.3 -2.2 -.4 -3.3 -.4c-1 0 -1.8 .2 -2.4 .6c-.7 .3 -.9 .9 -.9 1.6c0 .6 .3 1.2 .9 1.6c.4 .4 1.2 .6 2 .6Zm95.5 -.3c.8 0 1.5 -.2 2 -.5c.4 -.5 .7 -.9 .7 -1.6c-.1 -.7 -.3 -1.2 -.8 -1.5c-.5 -.4 -1.1 -.5 -2 -.5h-3v4.1Zm48.8 .3c.9 0 1.9 -.2 2.6 -.8c.7 -.7 1.1 -1.3 1.1 -2.1v-1.1c-1.1 -.3 -2.2 -.4 -3.3 -.4c-1 0 -1.8 .2 -2.4 .6c-.6 .3 -.8 .9 -.8 1.6c-.1 .6 .2 1.2 .8 1.6c.4 .4 1.2 .6 2 .6Zm100.6 -.3c.8 0 1.5 -.2 2 -.5c.4 -.5 .7 -.9 .7 -1.6c-.1 -.7 -.2 -1.2 -.7 -1.5c-.6 -.4 -1.2 -.5 -2.1 -.5h-3v4.1Zm-936.5 0c1 0 2 -.2 2.7 -.7c.6 -.6 1 -1.2 1 -2.1c-.1 -.9 -.3 -1.5 -1 -2c-.8 -.5 -1.7 -.7 -3 -.7h-4.9v5.5Zm144.3 -5c.6 0 1.3 -.1 1.7 -.4c.3 -.4 .6 -.8 .6 -1.4c-.1 -.4 -.2 -.8 -.6 -1.1c-.5 -.3 -1 -.4 -1.7 -.4h-3.5v3.3Zm229.5 0c.6 0 1.2 -.1 1.7 -.4c.3 -.4 .6 -.8 .6 -1.4c-.1 -.4 -.2 -.8 -.6 -1.1c-.5 -.3 -1 -.4 -1.7 -.4h-3.5v3.3Zm97.2 5v-8.3h-4.6v1.6c0 2.8 -.5 5.1 -1.5 6.7Zm157.9 0v-8.3h-4.5v1.6c-.1 2.8 -.5 5.1 -1.5 6.7Zm230.2 0v-8.3h-4.6v1.6c0 2.8 -.4 5.1 -1.4 6.7Zm51 -5c.6 0 1.3 -.1 1.7 -.4c.3 -.4 .6 -.8 .6 -1.4c-.1 -.4 -.2 -.8 -.6 -1.1c-.5 -.3 -1 -.4 -1.7 -.4H1164v3.3Zm-482.3 5.3c1.1 0 2.1 -.4 2.9 -1.2c.7 -.9 1.1 -1.9 1.1 -3.1c-.1 -1.2 -.4 -2.2 -1.2 -3c-.8 -.9 -1.7 -1.3 -2.9 -1.3c0 0 -.1 0 -.2 0c-1.1 0 -2 .5 -2.7 1.2c-.8 .9 -1.1 1.9 -1.1 3.1c-.1 1.2 .4 2.2 1.1 3.1c.7 .7 1.8 1.2 3 1.2ZM769.5 365v-4.2H766c-.1 0 -.2 0 -.3 0c-.7 0 -1.3 .2 -1.7 .5c-.5 .4 -.7 .9 -.7 1.5c-.1 .6 .2 1.2 .7 1.6c.5 .3 1.2 .6 2 .6Zm-482.1 -.5c-.2 -1.2 -.5 -2.1 -1.1 -2.8c-.7 -.7 -1.5 -1.1 -2.6 -1.1c-1.1 0 -1.9 .4 -2.6 1.1c-.8 .7 -1.1 1.6 -1.2 2.8Zm40 4.9c1.1 0 2.1 -.4 2.9 -1.2c.7 -.9 1.1 -1.8 1.1 -3.2c0 -1.3 -.3 -2.3 -1.1 -3.2c-.8 -.8 -1.7 -1.2 -2.9 -1.2c-1.1 0 -2 .4 -2.9 1.3c-.9 .7 -1.2 1.9 -1.2 3.1c0 1.3 .4 2.4 1.2 3.2c.8 .7 1.8 1.2 2.9 1.2Zm28 .2c1.3 0 2.3 -.4 3.1 -1.3c.8 -.9 1.2 -1.9 1.2 -3.2c-.1 -1.3 -.4 -2.3 -1.3 -3.2c-.8 -.9 -1.8 -1.3 -3 -1.3c-1.3 0 -2.2 .5 -3 1.3c-.9 .8 -1.2 2 -1.2 3.2c0 1.2 .4 2.3 1.2 3.2c.7 .9 1.8 1.3 3 1.3ZM418 364.5c-.2 -1.2 -.5 -2.1 -1.1 -2.8c-.7 -.7 -1.5 -1.1 -2.6 -1.1c-1.1 0 -1.8 .4 -2.6 1.1c-.8 .7 -1.1 1.6 -1.2 2.8Zm47.5 5.1c1.2 0 2.2 -.4 3 -1.3c.8 -.9 1.2 -1.9 1.2 -3.2c-.1 -1.3 -.4 -2.3 -1.2 -3.2c-.9 -.9 -1.9 -1.3 -3.1 -1.3c-1.3 0 -2.2 .5 -3 1.3c-.9 .8 -1.2 2 -1.2 3.2c0 1.2 .4 2.3 1.2 3.2c.8 .9 1.9 1.3 3.1 1.3ZM483 364.5c-.2 -1.2 -.5 -2.1 -1.1 -2.8c-.7 -.7 -1.5 -1.1 -2.6 -1.1c-1 0 -1.8 .4 -2.5 1.1c-.8 .7 -1.1 1.6 -1.3 2.8Zm30.9 4.9c1 0 2.1 -.4 2.8 -1.2c.8 -.9 1.2 -1.8 1.2 -3.2c-.1 -1.3 -.4 -2.3 -1.2 -3.2c-.8 -.8 -1.7 -1.2 -2.8 -1.2c-1.2 0 -2.1 .4 -2.9 1.3c-1 .7 -1.3 1.9 -1.3 3.1c0 1.3 .4 2.4 1.3 3.2c.7 .7 1.8 1.2 2.9 1.2Zm14.1 .2c1.3 0 2.3 -.4 3.1 -1.3c.8 -.9 1.2 -1.9 1.2 -3.2c-.1 -1.3 -.4 -2.3 -1.3 -3.2c-.8 -.9 -1.8 -1.3 -3 -1.3c-1.3 0 -2.2 .5 -3 1.3c-.9 .8 -1.2 2 -1.2 3.2c0 1.2 .4 2.3 1.2 3.2c.7 .9 1.8 1.3 3 1.3Zm38.7 -.2c1 0 2.1 -.4 2.8 -1.2c.8 -.9 1.2 -1.8 1.2 -3.2c-.1 -1.3 -.4 -2.3 -1.2 -3.2c-.8 -.8 -1.7 -1.2 -2.8 -1.2c-1.2 0 -2.1 .4 -2.9 1.3c-1 .7 -1.3 1.9 -1.3 3.1c0 1.3 .4 2.4 1.3 3.2c.7 .7 1.8 1.2 2.9 1.2Zm77.5 .2c1.3 0 2.3 -.4 3.1 -1.3c.8 -.9 1.2 -1.9 1.2 -3.2c-.1 -1.3 -.4 -2.3 -1.3 -3.2c-.8 -.9 -1.8 -1.3 -3 -1.3c-1.3 0 -2.2 .5 -3 1.3c-.9 .8 -1.2 2 -1.2 3.2c0 1.2 .4 2.3 1.2 3.2c.7 .9 1.8 1.3 3 1.3Zm26.5 0c1.2 0 2.2 -.4 3 -1.3c.8 -.9 1.2 -1.9 1.2 -3.2c-.1 -1.3 -.4 -2.3 -1.3 -3.2c-.8 -.9 -1.8 -1.3 -3 -1.3c-1.3 0 -2.2 .5 -3 1.3c-.9 .8 -1.2 2 -1.2 3.2c0 1.2 .4 2.3 1.2 3.2c.7 .9 1.9 1.3 3.1 1.3Zm45.8 -5.1c-.2 -1.2 -.5 -2.1 -1.1 -2.8c-.7 -.7 -1.5 -1.1 -2.6 -1.1c-1.1 0 -1.9 .4 -2.6 1.1c-.8 .7 -1.1 1.6 -1.2 2.8Zm68.6 4.9c1.2 0 2.2 -.4 2.9 -1.2c.6 -.9 1 -1.9 1 -3.2c-.1 -1.2 -.3 -2.3 -1.1 -3.1c-.8 -.9 -1.7 -1.3 -2.8 -1.3c-1.3 0 -2.2 .5 -2.9 1.3c-.7 .7 -1 1.9 -1 3.1c0 1.3 .4 2.3 1.1 3.2c.6 .7 1.6 1.2 2.8 1.2Zm37.6 -4.9c-.2 -1.2 -.4 -2.1 -1.1 -2.8c-.7 -.7 -1.5 -1.1 -2.6 -1.1c-1 0 -1.8 .4 -2.5 1.1c-.8 .7 -1.1 1.6 -1.2 2.8Zm13.2 0c-.2 -1.2 -.5 -2.1 -1.2 -2.8c-.6 -.7 -1.5 -1.1 -2.5 -1.1c-1.1 0 -1.9 .4 -2.6 1.1c-.8 .7 -1.1 1.6 -1.2 2.8Zm34.7 4.9c1.2 0 2.1 -.4 2.8 -1.2c.7 -.9 1.1 -1.9 1.1 -3.2c-.1 -1.2 -.4 -2.3 -1.1 -3.1c-.8 -.9 -1.7 -1.3 -2.8 -1.3c-1.3 0 -2.2 .5 -2.9 1.3c-.7 .7 -1 1.9 -1 3.1c0 1.3 .3 2.3 1.1 3.2c.6 .7 1.6 1.2 2.8 1.2Zm30.3 -4.9c-.2 -1.2 -.5 -2.1 -1.1 -2.8c-.7 -.7 -1.5 -1.1 -2.6 -1.1c-1 0 -1.8 .4 -2.5 1.1c-.8 .7 -1.2 1.6 -1.3 2.8Zm79.8 0c-.2 -1.2 -.5 -2.1 -1.1 -2.8c-.7 -.7 -1.5 -1.1 -2.6 -1.1c-1 0 -1.8 .4 -2.5 1.1c-.8 .7 -1.1 1.6 -1.3 2.8Zm26.7 0c-.2 -1.2 -.5 -2.1 -1.1 -2.8c-.7 -.7 -1.5 -1.1 -2.6 -1.1c-1.1 0 -1.9 .4 -2.6 1.1c-.8 .7 -1.1 1.6 -1.2 2.8Zm145.8 5.1c1.3 0 2.3 -.4 3.1 -1.3c.8 -.9 1.2 -1.9 1.2 -3.2c-.1 -1.3 -.4 -2.3 -1.3 -3.2c-.8 -.9 -1.8 -1.3 -3 -1.3c-1.3 0 -2.2 .5 -3 1.3c-.9 .8 -1.2 2 -1.2 3.2c0 1.2 .4 2.3 1.2 3.2c.7 .9 1.8 1.3 3 1.3Zm-861.3 1V359.3h1.7l4.2 5.9l4.2 -5.9h1.7v11.3h-1.8V362l-4.1 5.7L293.7 362v8.6Zm15.7 0V359.3h1.7v8.9l6.9 -8.9h1.7v11.3h-1.8v-8.9l-6.8 8.9Zm28.7 0V359.3H338v4.8h6.6v-4.8h1.7v11.3h-1.7v-5H338v5Zm34.8 0V359.3h1.7v8.9l6.9 -8.9h1.7v11.3h-1.7v-8.9l-6.9 8.9Zm25.3 0V359.3H402c1.1 0 2 .3 2.7 .8c.6 .4 1.1 1.2 1.1 2c0 1.2 -.7 2.1 -2 2.6c1.7 .5 2.6 1.4 2.6 2.8c0 .9 -.4 1.7 -1.1 2.3c-.8 .5 -1.8 .8 -3.1 .8Zm41.5 0v-9.8h-4v-1.5h10v1.5h-4.3v9.8Zm8.4 0V359.3h1.8v4.8h6.5v-4.8h1.8v11.3h-1.8v-5h-6.5v5Zm47.9 0V359.3h10v11.3h-1.7v-9.8H496v9.8Zm58.2 0v-9.8h-4v-1.5h9.9v1.5h-4.2v9.8Zm35.9 0V359.3h1.8v4.8h6.6v-4.8h1.7v11.3h-1.7v-5h-6.6v5Zm29.2 0v-9.8h-4v-1.5h10v1.5h-4.3v9.8Zm8.4 0V359.3h5.6c1 0 2 .3 2.7 .8c.6 .4 1 1.2 1 2c0 1.2 -.6 2.1 -1.9 2.6c1.7 .5 2.6 1.4 2.6 2.8c0 .9 -.4 1.7 -1.1 2.3c-.9 .5 -1.8 .8 -3.1 .8Zm70.1 0v-9.8h-3.5v-1.5h5.2v4.2h3.1c.1 0 .2 -.1 .3 -.1c1.1 0 2.2 .4 2.9 .9c.9 .6 1.3 1.4 1.3 2.6c-.1 1 -.4 2 -1.2 2.7c-.8 .6 -1.8 1 -3.1 1Zm23.2 2.8v-4.3h1.3c1 -1.9 1.5 -4.5 1.5 -7.8v-2h8.1v9.8h1.6v4.3h-1.6v-2.8H721l-.4 2.8Zm15.2 -2.8V359.3h1.7v8.9l6.9 -8.9h1.7v11.3h-1.8v-8.9l-6.9 8.9Zm14 0V359.3h1.7v4.8h6.6v-4.8h1.7v11.3h-1.7v-5h-6.6v5Zm12.7 0l3.5 -4.4c-.9 -.3 -1.6 -.6 -2.2 -1.2c-.7 -.6 -.9 -1.3 -.9 -2.2c0 -1.1 .4 -1.9 1.2 -2.5c.7 -.8 1.8 -1 3.2 -1h5.4v11.3h-1.8v-4.2h-3.1c-.2 .2 -.6 .8 -1.4 1.9c-.8 .9 -1.4 1.8 -1.8 2.3Zm49 2.8v-2.8H793.8V359.3h1.7v9.8H801v-9.8h1.7v9.8h5.6v-9.8h1.8v9.8h1.6v4.3Zm36.5 -2.6c-.5 -.1 -.9 -.1 -1.4 -.2l.2 -1.5c.2 .1 .6 .2 .8 .2c.3 0 .6 -.1 .8 -.1c.1 -.2 .4 -.3 .7 -.7c.1 -.4 .4 -.8 .5 -1.4c.1 -.7 .3 -1.5 .4 -2.7c0 -1.2 .1 -2.5 .1 -4.2v-.9h8.1v11.3h-1.7v-9.8h-4.6v.3c0 1.6 -.1 3.1 -.2 4.4c-.2 1.1 -.3 2.1 -.5 2.8c-.2 .7 -.5 1.2 -.9 1.6c-.4 .3 -.7 .6 -1 .7c-.4 .1 -.8 .2 -1.3 .2Zm30.6 2.6v-4.3h1.3c1 -1.9 1.5 -4.5 1.5 -7.8v-2h8.1v9.8h1.6v4.3h-1.6v-2.8h-9.2l-.3 2.8Zm28.3 -2.8V359.3h1.7v8.9l6.9 -8.9h1.7v11.3H914v-8.9l-6.8 8.9Zm26 0V359.3h1.8v4.8h6.6v-4.8h1.7v11.3h-1.7v-5h-6.6v5Zm36.7 2.8v-2.8h-10V359.3H960v9.8h6.4v-9.8h1.8v9.8h1.7v4.3Zm16.6 -2.6c-.5 -.1 -.9 -.1 -1.4 -.2l.2 -1.5c.2 .1 .6 .2 .8 .2c.3 0 .6 -.1 .8 -.1c.1 -.2 .4 -.3 .7 -.7c.1 -.4 .4 -.8 .5 -1.4c.1 -.7 .3 -1.5 .4 -2.7c0 -1.2 .1 -2.5 .1 -4.2v-.9H995v11.3h-1.7v-9.8h-4.6v.3c0 1.6 -.1 3.1 -.2 4.4c-.2 1.1 -.3 2.1 -.5 2.8c-.2 .7 -.5 1.2 -.9 1.6c-.4 .3 -.7 .6 -1 .7c-.4 .1 -.8 .2 -1.3 .2Zm27.1 -.2V359.3h1.8v4.8h6.6v-4.8h1.7v11.3h-1.7v-5h-6.6v5Zm13.9 0V359.3h1.7v4.8h6.6v-4.8h1.7v11.3h-1.7v-5h-6.6v5Zm13.8 0V359.3h1.8v4.2h3c.1 0 .2 -.1 .3 -.1c1.2 0 2.2 .4 3 .9c.8 .6 1.2 1.4 1.2 2.6c0 1 -.4 2 -1.2 2.7c-.8 .6 -1.8 1 -3.1 1Zm11.3 0V359.3h1.8v11.3Zm4.5 0l4.5 -5.7l-4.4 -5.6h2l3.4 4.4l3.4 -4.4h1.9l-4.4 5.5l4.5 5.8h-1.9l-3.6 -4.6l-3.5 4.6Zm20.5 0V359.3h1.7v4.8h6.6v-4.8h1.7v11.3h-1.7v-5h-6.6v5Zm31.5 2.8v-4.3h1.2c1 -1.9 1.6 -4.5 1.6 -7.8v-2h8.1v9.8h1.5v4.3h-1.5v-2.8h-9.2l-.3 2.8Zm16.8 .9c-.8 0 -1.6 -.2 -2.4 -.6l.5 -1.3c.5 .2 1.2 .4 1.8 .4c.5 -.1 1 -.2 1.3 -.5c.3 -.3 .7 -.9 1.1 -1.7l-5.2 -11.3h1.9l4.1 9.5l3.7 -9.5h1.8l-4.8 11.8c-.5 1.1 -1 1.9 -1.6 2.4c-.7 .4 -1.3 .8 -2.2 .8Zm10.3 -3.7l4.5 -5.7l-4.3 -5.6h1.9l3.4 4.4l3.4 -4.4h1.9l-4.3 5.5l4.5 5.8h-2L1140 366l-3.6 4.6Zm27.7 0V359.3h5.6c1.1 0 2 .3 2.7 .8c.6 .4 1 1.2 1 2c0 1.2 -.6 2.1 -1.9 2.6c1.7 .5 2.6 1.4 2.6 2.8c0 .9 -.4 1.7 -1.1 2.3c-.8 .5 -1.8 .8 -3.1 .8Zm13 0V359.3h1.8v4.8h6.5v-4.8h1.8v11.3h-1.8v-5H1177v5Zm13.9 0V359.3h1.7v4.2h3.1c.1 0 .1 -.1 .2 -.1c1.2 0 2.2 .4 3 .9c.8 .6 1.3 1.4 1.3 2.6c0 1 -.4 2 -1.2 2.7c-.8 .6 -1.8 1 -3.2 1Zm11.3 0V359.3h1.7v11.3Zm5.5 0V359.3h1.8v8.9l6.8 -8.9h1.7v11.3h-1.7v-8.9l-6.9 8.9Zm-934.5 .5c-1.8 -.1 -3.1 -.6 -4.2 -1.8c-1.2 -1.2 -1.7 -2.5 -1.7 -4.2c0 -1.7 .5 -3 1.7 -4.2c1.1 -1.3 2.5 -1.8 4.2 -1.8c0 0 .1 0 .1 0c1.7 0 3.2 .8 4.4 2.1l-1 1.1c-1.1 -1.1 -2.3 -1.7 -3.6 -1.7c-1.2 0 -2.1 .5 -2.9 1.3c-.9 .8 -1.2 2 -1.2 3.2c0 1.2 .4 2.3 1.2 3.2c.8 .9 1.9 1.3 3 1.3c1.2 0 2.4 -.6 3.5 -1.7l1.1 1c-1.4 1.4 -2.9 2.2 -4.6 2.2Zm156.4 0c-1.8 -.1 -3.1 -.6 -4.2 -1.8c-1.2 -1.2 -1.7 -2.5 -1.7 -4.2c0 -1.7 .6 -3 1.7 -4.2c1.1 -1.3 2.5 -1.8 4.2 -1.8c0 0 .1 0 .1 0c1.7 0 3.2 .8 4.4 2.1l-1 1.1c-1.1 -1.1 -2.3 -1.7 -3.6 -1.7c-1.2 0 -2.1 .5 -2.9 1.3c-.9 .8 -1.2 2 -1.2 3.2c0 1.2 .4 2.3 1.2 3.2c.8 .9 1.9 1.3 3.1 1.3c1.1 0 2.3 -.6 3.4 -1.7l1.1 1c-1.4 1.4 -2.8 2.2 -4.6 2.2Zm114.4 0c-1.7 -.1 -3 -.6 -4.1 -1.8c-1.2 -1.2 -1.7 -2.5 -1.7 -4.2c0 -1.7 .5 -3 1.7 -4.2c1.1 -1.3 2.5 -1.8 4.1 -1.8c.1 0 .2 0 .2 0c1.6 0 3.2 .8 4.4 2.1l-1.1 1.1c-1 -1.1 -2.2 -1.7 -3.5 -1.7c-1.2 0 -2.1 .5 -2.9 1.3c-.9 .8 -1.2 2 -1.2 3.2c0 1.2 .4 2.3 1.2 3.2c.7 .9 1.8 1.3 3 1.3c1.2 0 2.4 -.6 3.5 -1.7l1.1 1c-1.4 1.4 -2.9 2.2 -4.7 2.2Zm65.2 0c-1.7 -.1 -3.1 -.6 -4.2 -1.8c-1.1 -1.2 -1.7 -2.5 -1.7 -4.2c0 -1.7 .6 -3 1.7 -4.2c1.1 -1.3 2.5 -1.8 4.2 -1.8c0 0 .1 0 .2 0c1.6 0 3.1 .8 4.4 2.1l-1.1 1.1c-1.1 -1.1 -2.3 -1.7 -3.5 -1.7c-1.3 0 -2.2 .5 -3 1.3c-.8 .8 -1.1 2 -1.1 3.2c-.1 1.2 .4 2.3 1.2 3.2c.7 .9 1.8 1.3 3 1.3c1.1 0 2.3 -.6 3.4 -1.7l1.2 1c-1.5 1.4 -2.9 2.2 -4.7 2.2Zm-323.5 0c-1.6 -.1 -3 -.6 -4.1 -1.7c-1.1 -1.1 -1.7 -2.5 -1.7 -4.3c0 -1.7 .6 -3.1 1.6 -4.2c1 -1.3 2.4 -1.8 4 -1.8q.1 0 .2 0c1.5 0 2.8 .7 3.8 1.8c.9 1.1 1.4 2.7 1.4 4.4c-.1 .2 0 .5 0 .7h-9.2c.1 1.1 .6 2 1.3 2.6c.8 .7 1.7 1 2.8 1c1.3 0 2.6 -.5 3.6 -1.5l1.1 .9c-1.4 1.4 -2.9 2.1 -4.8 2.1Zm130.7 0c-1.7 -.1 -3.1 -.6 -4.2 -1.7c-1.1 -1.1 -1.6 -2.5 -1.6 -4.3c0 -1.7 .5 -3.1 1.6 -4.2c.9 -1.3 2.3 -1.8 3.9 -1.8c.1 0 .2 0 .2 0c1.5 0 2.8 .7 3.8 1.8c.9 1.1 1.4 2.7 1.4 4.4c-.1 .2 0 .5 0 .7h-9.2c.1 1.1 .6 2 1.3 2.6c.8 .7 1.7 1 2.8 1c1.3 0 2.6 -.5 3.7 -1.5l1 .9c-1.4 1.4 -2.9 2.1 -4.7 2.1Zm65 0c-1.7 -.1 -3 -.6 -4.1 -1.7c-1.2 -1.1 -1.7 -2.5 -1.7 -4.3c0 -1.7 .5 -3.1 1.6 -4.2c1 -1.3 2.4 -1.8 4 -1.8c0 0 .1 0 .1 0c1.6 0 2.9 .7 3.8 1.8c.9 1.1 1.5 2.7 1.5 4.4c-.1 .2 0 .5 -.1 .7h-9.2c.1 1.1 .6 2 1.4 2.6c.7 .7 1.7 1 2.7 1c1.4 0 2.6 -.5 3.7 -1.5l1.1 .9c-1.4 1.4 -2.9 2.1 -4.8 2.1Zm233.4 0c-1.6 -.1 -3 -.6 -4.1 -1.7c-1.1 -1.1 -1.6 -2.5 -1.6 -4.3c0 -1.7 .5 -3.1 1.5 -4.2c1 -1.3 2.4 -1.8 4 -1.8q.1 0 .2 0c1.5 0 2.8 .7 3.8 1.8c.9 1.1 1.4 2.7 1.4 4.4c-.1 .2 0 .5 0 .7H709c.1 1.1 .6 2 1.3 2.6c.8 .7 1.7 1 2.8 1c1.3 0 2.6 -.5 3.6 -1.5l1.1 .9c-1.4 1.4 -2.9 2.1 -4.8 2.1Zm106.3 0c-1.7 -.1 -3 -.6 -4.1 -1.7c-1.1 -1.1 -1.7 -2.5 -1.7 -4.3c0 -1.7 .5 -3.1 1.6 -4.2c1 -1.3 2.4 -1.8 4 -1.8c0 0 .1 0 .1 0c1.6 0 2.9 .7 3.8 1.8c.9 1.1 1.5 2.7 1.5 4.4c-.1 .2 0 .5 0 .7h-9.2c0 1.1 .5 2 1.3 2.6c.7 .7 1.7 1 2.7 1c1.4 0 2.7 -.5 3.7 -1.5l1.1 .9c-1.4 1.4 -2.9 2.1 -4.8 2.1Zm13.1 0c-1.7 -.1 -3 -.6 -4.1 -1.7c-1.1 -1.1 -1.7 -2.5 -1.7 -4.3c0 -1.7 .6 -3.1 1.6 -4.2c1 -1.3 2.4 -1.8 4 -1.8q.1 0 .2 0c1.5 0 2.8 .7 3.7 1.8c.9 1.1 1.5 2.7 1.5 4.4c-.1 .2 0 .5 0 .7h-9.2c.1 1.1 .5 2 1.3 2.6c.8 .7 1.7 1 2.8 1c1.3 0 2.6 -.5 3.6 -1.5l1.1 .9c-1.4 1.4 -2.9 2.1 -4.8 2.1Zm65.1 0c-1.7 -.1 -3 -.6 -4.2 -1.7c-1.1 -1.1 -1.6 -2.5 -1.6 -4.3c0 -1.7 .5 -3.1 1.6 -4.2c1 -1.3 2.4 -1.8 3.9 -1.8c.1 0 .2 0 .2 0c1.5 0 2.9 .7 3.8 1.8c.9 1.1 1.5 2.7 1.5 4.4c-.2 .2 -.1 .5 -.1 .7h-9.2c.1 1.1 .6 2 1.4 2.6c.7 .7 1.7 1 2.7 1c1.4 0 2.6 -.5 3.7 -1.5l1.1 .9c-1.4 1.4 -2.9 2.1 -4.8 2.1Zm79.8 0c-1.7 -.1 -3 -.6 -4.2 -1.7c-1.1 -1.1 -1.6 -2.5 -1.6 -4.3c0 -1.7 .5 -3.1 1.6 -4.2c1 -1.3 2.4 -1.8 3.9 -1.8c.1 0 .2 0 .2 0c1.5 0 2.9 .7 3.8 1.8c.9 1.1 1.5 2.7 1.5 4.4c-.2 .2 -.1 .5 -.1 .7h-9.2c.1 1.1 .6 2 1.4 2.6c.7 .7 1.7 1 2.7 1c1.4 0 2.6 -.5 3.7 -1.5l1.1 .9c-1.4 1.4 -2.9 2.1 -4.8 2.1Zm26.6 0c-1.6 -.1 -3 -.6 -4.1 -1.7c-1.1 -1.1 -1.6 -2.5 -1.6 -4.3c0 -1.7 .5 -3.1 1.5 -4.2c1 -1.3 2.4 -1.8 4 -1.8q.1 0 .2 0c1.5 0 2.8 .7 3.8 1.8c.9 1.1 1.4 2.7 1.4 4.4c-.1 .2 0 .5 0 .7h-9.2c.1 1.1 .6 2 1.3 2.6c.8 .7 1.7 1 2.8 1c1.3 0 2.6 -.5 3.6 -1.5l1.1 .9c-1.4 1.4 -2.9 2.1 -4.8 2.1Zm-648.5 0c-1.8 -.1 -3.1 -.6 -4.2 -1.7c-1.2 -1.2 -1.7 -2.6 -1.7 -4.3c0 -1.7 .5 -3 1.7 -4.2c1.1 -1.3 2.5 -1.8 4.2 -1.8c.1 0 .2 0 .2 0c1.7 0 3 .7 4.1 1.8c1.1 1.1 1.7 2.6 1.7 4.2c-.1 1.6 -.6 3.1 -1.7 4.2c-1.3 1.2 -2.6 1.8 -4.3 1.8Zm110 0c-1.8 -.1 -3.1 -.6 -4.2 -1.7c-1.2 -1.2 -1.7 -2.6 -1.7 -4.3c0 -1.7 .5 -3 1.7 -4.2c1.1 -1.3 2.6 -1.8 4.3 -1.8c0 0 .1 0 .2 0c1.6 0 2.9 .7 4 1.8c1.1 1.1 1.7 2.6 1.7 4.2c-.1 1.6 -.5 3.1 -1.7 4.2c-1.2 1.2 -2.6 1.8 -4.3 1.8Zm62.6 0c-1.8 -.1 -3.1 -.6 -4.3 -1.7c-1.1 -1.2 -1.7 -2.6 -1.7 -4.3c0 -1.7 .6 -3 1.8 -4.2c1.1 -1.3 2.5 -1.8 4.2 -1.8c.1 0 .2 0 .2 0c1.6 0 3 .7 4.1 1.8c1.1 1.1 1.7 2.6 1.7 4.2c-.1 1.6 -.6 3.1 -1.7 4.2c-1.3 1.2 -2.6 1.8 -4.3 1.8Zm116.2 0c-1.8 -.1 -3.1 -.6 -4.3 -1.7c-1.1 -1.2 -1.7 -2.6 -1.7 -4.3c0 -1.7 .6 -3 1.8 -4.2c1.1 -1.3 2.5 -1.8 4.2 -1.8c.1 0 .2 0 .2 0c1.7 0 3 .7 4.1 1.8c1.1 1.1 1.7 2.6 1.7 4.2c-.1 1.6 -.6 3.1 -1.7 4.2c-1.3 1.2 -2.6 1.8 -4.3 1.8Zm26.4 0c-1.8 -.1 -3.1 -.6 -4.2 -1.7c-1.2 -1.2 -1.7 -2.6 -1.7 -4.3c0 -1.7 .5 -3 1.7 -4.2c1.1 -1.3 2.6 -1.8 4.3 -1.8c0 0 .1 0 .2 0c1.6 0 2.9 .7 4 1.8c1.1 1.1 1.7 2.6 1.7 4.2c-.1 1.6 -.5 3.1 -1.7 4.2c-1.2 1.2 -2.6 1.8 -4.3 1.8Zm482.6 0c-1.8 -.1 -3.1 -.6 -4.3 -1.7c-1.1 -1.2 -1.7 -2.6 -1.7 -4.3c0 -1.7 .6 -3 1.8 -4.2c1.1 -1.3 2.5 -1.8 4.2 -1.8c.1 0 .2 0 .2 0c1.6 0 3 .7 4.1 1.8c1 1.1 1.7 2.6 1.7 4.2c-.1 1.6 -.6 3.1 -1.7 4.2c-1.3 1.2 -2.6 1.8 -4.3 1.8Zm-368.1 -.2c-1.7 0 -2.9 -.5 -3.9 -1.5c-1 -1 -1.6 -2.3 -1.7 -3.8h-2.6v5h-1.8V359.3h1.8v4.8h2.6c0 -1.5 .7 -2.6 1.7 -3.5c1 -1.1 2.3 -1.5 3.9 -1.5q.1 0 .2 0c1.5 0 2.9 .6 3.9 1.7c1 1.1 1.6 2.6 1.6 4.2c-.1 1.6 -.6 3.1 -1.6 4.2c-1.1 1.1 -2.4 1.7 -4.1 1.7Zm85.4 0c-1.6 0 -2.8 -.5 -3.8 -1.5c-1.1 -1 -1.6 -2.3 -1.8 -3.8h-2.5v5h-1.8V359.3h1.8v4.8h2.5c.1 -1.5 .8 -2.6 1.8 -3.5c1 -1.1 2.3 -1.5 3.9 -1.5c0 0 .1 0 .2 0c1.5 0 2.9 .6 3.9 1.7c1 1.1 1.5 2.6 1.5 4.2c-.1 1.6 -.5 3.1 -1.5 4.2c-1.1 1.1 -2.5 1.7 -4.2 1.7Zm-548.9 3.4v-15h1.7v2.3c1.1 -1.6 2.6 -2.5 4.4 -2.5q.1 0 .2 0c1.3 0 2.6 .6 3.7 1.6c1 1.1 1.6 2.6 1.6 4.3c-.1 1.8 -.6 3.2 -1.6 4.3c-1.1 1.1 -2.4 1.6 -3.9 1.6c-1.9 0 -3.3 -.8 -4.4 -2.4v5.8Zm186.4 0v-15h1.7v2.3c1.2 -1.6 2.7 -2.5 4.4 -2.5c.1 0 .2 0 .2 0c1.4 0 2.6 .6 3.7 1.6c1.1 1.1 1.6 2.6 1.6 4.3c-.1 1.8 -.5 3.2 -1.6 4.3c-1.1 1.1 -2.4 1.6 -3.9 1.6c-1.8 0 -3.2 -.8 -4.4 -2.4v5.8Zm52.8 0v-15h1.7v2.3c1.2 -1.6 2.6 -2.5 4.4 -2.5q.1 0 .2 0c1.4 0 2.6 .6 3.7 1.6c1.1 1.1 1.6 2.6 1.6 4.3c-.1 1.8 -.5 3.2 -1.6 4.3c-1.1 1.1 -2.4 1.6 -3.9 1.6c-1.8 0 -3.2 -.8 -4.4 -2.4v5.8Zm17.9 -3.4c-1.2 0 -2.1 -.3 -2.9 -.9c-1 -.7 -1.3 -1.6 -1.3 -2.7c0 -1.4 .4 -2.2 1.3 -2.9c.8 -.7 2.1 -.9 3.6 -.9c.1 0 .2 -.1 .3 -.1c1 0 2.1 .3 3.1 .6v-.4c0 -.9 -.3 -1.7 -.9 -2.2c-.6 -.5 -1.4 -.8 -2.4 -.8c-1.2 0 -2.3 .3 -3.4 .8l-.6 -1.3c1.4 -.7 2.8 -1 4.2 -1q.1 0 .2 0c1.5 0 2.7 .5 3.5 1.3c.7 .7 1.2 1.9 1.2 3.3v6.9h-1.8v-1.7c-1 1.3 -2.3 2 -4.1 2Zm369.9 0c-1.2 0 -2.1 -.3 -3 -.9c-.9 -.7 -1.2 -1.6 -1.2 -2.7c0 -1.4 .4 -2.2 1.3 -2.9c.8 -.7 2.1 -.9 3.5 -.9c.1 0 .2 -.1 .4 -.1c1 0 2.1 .3 3.1 .6v-.4c0 -.9 -.3 -1.7 -.9 -2.2c-.6 -.5 -1.4 -.8 -2.4 -.8c-1.3 0 -2.3 .3 -3.5 .8l-.5 -1.3c1.4 -.7 2.8 -1 4.2 -1q.1 0 .2 0c1.5 0 2.7 .5 3.5 1.3c.7 .7 1.2 1.9 1.2 3.3v6.9h-1.8v-1.7c-1 1.3 -2.4 2 -4.1 2Zm144.3 0c-1.2 0 -2.1 -.3 -2.9 -.9c-1 -.7 -1.3 -1.6 -1.3 -2.7c0 -1.4 .4 -2.2 1.3 -2.9c.8 -.7 2.1 -.9 3.6 -.9c.1 0 .2 -.1 .3 -.1c1 0 2.1 .3 3.1 .6v-.4c0 -.9 -.3 -1.7 -.9 -2.2c-.6 -.5 -1.4 -.8 -2.4 -.8c-1.2 0 -2.3 .3 -3.4 .8l-.6 -1.3c1.4 -.7 2.8 -1 4.2 -1c.1 0 .2 0 .2 0c1.5 0 2.7 .5 3.5 1.3c.7 .7 1.2 1.9 1.2 3.3v6.9H1097v-1.7c-1 1.3 -2.3 2 -4.1 2Zm-704.3 .2c-1.9 -.1 -3.4 -.6 -4.8 -1.7l.9 -1.2c1.1 .9 2.4 1.4 3.8 1.4c.8 0 1.5 -.2 2.1 -.5c.5 -.4 .8 -.9 .8 -1.5c0 -.6 -.3 -1 -.8 -1.3c-.6 -.5 -1.2 -.5 -2.1 -.5h-1.6v-1.5h1.6c.7 0 1.4 -.2 1.8 -.6c.4 -.4 .8 -.8 .8 -1.4c0 -.5 -.3 -.9 -.7 -1.2c-.6 -.4 -1.1 -.5 -1.8 -.5c-1.5 0 -2.6 .4 -3.6 1.2l-.8 -1.2c1.2 -1.1 2.7 -1.5 4.5 -1.5c0 0 .1 0 .2 0c1.1 0 2.1 .4 2.8 .9c.7 .6 1.1 1.3 1.1 2.2c0 1.2 -.6 2.2 -1.8 2.7c1.4 .4 2.2 1.4 2.2 2.8c-.1 .9 -.5 1.7 -1.3 2.4c-.9 .6 -1.9 1 -3.3 1Zm-131.8 -9c1.1 0 1.9 -.2 2.6 -.7c.5 -.5 1 -1.2 1 -2.1c-.1 -.8 -.3 -1.4 -.9 -1.8c-.6 -.5 -1.5 -.7 -2.6 -.7h-4.7v5.3Zm-6.3 8.5V355.3h6.6c1.7 0 3.1 .5 4 1.4c.7 .6 1 1.5 1 2.4c-.1 1.6 -.8 2.9 -2.4 3.6c2 .6 3.2 1.9 3.2 3.7c-.1 1.3 -.5 2.3 -1.5 3.1c-1.1 .7 -2.4 1.1 -4.1 1.1Zm434.6 .3c-1.8 0 -3.2 -.5 -4.2 -1.7c-1.1 -1.3 -1.6 -2.7 -1.6 -4.7c0 -.8 0 -1.4 0 -1.9c0 -.5 .1 -1 .1 -1.7c.1 -.7 .3 -1.1 .5 -1.6c.1 -.4 .4 -.9 .7 -1.3c.2 -.4 .7 -.8 1.2 -1.1c.4 -.4 1.1 -.5 1.7 -.6l6.4 -1.5l.4 1.4l-6.2 1.5c-1.2 .3 -2 .8 -2.5 1.5c-.6 .6 -.8 1.5 -.9 2.7c1 -1.8 2.6 -2.6 4.8 -2.6c1.4 0 2.8 .6 3.8 1.7c1.1 1.1 1.7 2.4 1.7 4c-.2 1.6 -.6 3 -1.7 4.2c-1.3 1.1 -2.5 1.7 -4.2 1.7ZM910.6 357.6c-.9 0 -1.5 -.2 -2.1 -.7c-.6 -.6 -.9 -1.2 -1.1 -2.1l1.2 -.2c.3 .9 1 1.5 2 1.5c.9 0 1.6 -.5 1.9 -1.5l1.2 .2c-.2 .8 -.5 1.5 -1 2.1c-.7 .4 -1.3 .7 -2.1 .7Zm300.4 0c-.8 0 -1.5 -.2 -2.1 -.7c-.5 -.6 -.9 -1.2 -1 -2.1l1.2 -.2c.2 .9 .9 1.5 1.9 1.5c1 0 1.7 -.5 2 -1.5l1.2 .2c-.2 .8 -.5 1.5 -1.1 2.1c-.6 .4 -1.2 .7 -2.1 .7Z"/></clipPath>
<clipPath id="c8_21"><path d="M613.9 300.3c1.2 0 1.8 -.4 1.8 -1.3c0 -1 -.6 -1.3 -1.9 -1.3h-3.1v2.6Zm300 0c1.1 0 1.8 -.4 1.8 -1.3c0 -1 -.7 -1.3 -2 -1.3h-3v2.6Zm-191.5 -.4v-7.2h-3.9v.3c0 2.9 -.4 5.3 -1 6.9Zm-92.9 .3c1.1 0 2 -.3 2.7 -1.1c.5 -.8 1 -1.6 1 -2.7c0 -1.1 -.4 -2 -1 -2.8c-.8 -.8 -1.6 -1.1 -2.7 -1.1q-.1 0 -.2 0c-1.1 0 -1.8 .4 -2.5 1.1c-.7 .6 -1 1.6 -1 2.8c-.1 1 .4 1.9 1.1 2.7c.5 .7 1.5 1.1 2.6 1.1Zm171.7 0c1.1 0 2 -.3 2.7 -1.1c.5 -.8 1 -1.6 1 -2.7c0 -1.1 -.4 -2 -1.1 -2.8c-.7 -.8 -1.5 -1.1 -2.6 -1.1q-.1 0 -.2 0c-1.1 0 -1.8 .4 -2.5 1.1c-.7 .6 -1 1.6 -1 2.8c-.1 1 .4 1.9 1.1 2.7c.6 .7 1.5 1.1 2.6 1.1Zm79 .1c1 0 1.9 -.3 2.5 -1.1c.6 -.8 1.1 -1.6 1.1 -2.8c0 -1.2 -.4 -2.1 -1.1 -2.8c-.7 -.8 -1.5 -1.1 -2.5 -1.1h-.1c-1 0 -1.7 .4 -2.4 1.1c-.7 .6 -1 1.7 -1 2.8c-.1 1.2 .4 2.1 1 2.8c.6 .7 1.5 1.1 2.5 1.1ZM600 295.4c-.2 -1 -.5 -1.7 -1 -2.2c-.5 -.6 -1.2 -.8 -2 -.8c-.9 0 -1.5 .2 -2.1 .8c-.5 .4 -.9 1.2 -1 2.2Zm13.4 -.4c.6 0 1 -.1 1.3 -.4c.2 -.3 .4 -.6 .4 -1c0 -.4 -.1 -.6 -.4 -.9c-.4 -.2 -.7 -.3 -1.2 -.3h-2.8V295Zm252.6 .4c-.1 -1 -.4 -1.7 -1 -2.2c-.5 -.6 -1.2 -.8 -2 -.8c-.8 0 -1.5 .2 -2 .8c-.6 .4 -.9 1.2 -1.1 2.2Zm33.9 0c-.1 -1 -.4 -1.7 -.9 -2.2c-.6 -.6 -1.2 -.8 -2.1 -.8c-.8 0 -1.5 .2 -2 .8c-.5 .4 -.9 1.2 -1 2.2Zm13.5 -.4c.5 0 1 -.1 1.2 -.4c.2 -.3 .5 -.6 .5 -1c0 -.4 -.2 -.6 -.4 -.9c-.4 -.2 -.7 -.3 -1.2 -.3h-2.8V295Zm-406.8 7.3l-4.4 -5.9v-.2l4.4 -5.9l3.1 1.5l-3.4 4.5l3.4 4.5l-3.1 1.5Zm7.2 0l-4.4 -5.9v-.2l4.4 -5.9l3.1 1.5l-3.5 4.5l3.5 4.5l-3.1 1.5Zm128.9 0l-3.1 -1.5l3.5 -4.5l-3.5 -4.5l3.1 -1.5l4.4 5.9v.2l-4.4 5.9Zm7.1 0l-3 -1.5l3.4 -4.5l-3.4 -4.5l3 -1.5l4.5 5.9v.2l-4.5 5.9Zm-107.6 1V289.4h3.9v5.7l5.1 -5.7h4.6l-5.2 5.7l5.8 8.2h-4.7L547.9 298l-1.8 2v3.3Zm19.6 4.4c-1.3 0 -2.5 -.4 -3.6 -1l1.4 -3c.5 .3 1.1 .5 1.7 .5c.6 0 1.1 -.3 1.4 -.9l-5.6 -13.9h4.3l3.2 9.4l3.1 -9.4h4.1l-5.4 14.3c-.6 1.5 -1.2 2.5 -1.8 3.1c-.8 .5 -1.7 .9 -2.8 .9Zm12.3 -4.4V289.4H578v5.2h5.1v-5.2H587v13.9h-3.9V298H578v5.3Zm32.6 0V289.4h7.7c1.4 0 2.5 .3 3.4 .9c.8 .6 1.2 1.5 1.2 2.6c0 1.4 -.7 2.6 -2.1 3.2c1.8 .5 2.8 1.7 2.8 3.5c-.1 1.1 -.5 2.1 -1.4 2.7c-1 .7 -2.2 1 -3.9 1Zm90.2 0V289.4h4v5.2h5v-5.2h4v13.9h-4V298h-5v5.3Zm33.6 0V289.4h3.9v8.1l5.5 -8.1h3.8v13.9h-3.9v-8.1l-5.5 8.1Zm16.7 0V289.4h3.9v8.1l5.5 -8.1h3.8v13.9h-3.9v-8.1l-5.5 8.1Zm31.7 0V289.4h4v5.7l5 -5.7h4.6l-5.1 5.7l5.8 8.2h-4.7L784.7 298l-1.8 2v3.3Zm32.8 0V289.4h4v8.1l5.5 -8.1H825v13.9h-4v-8.1l-5.4 8.1Zm95 0V289.4h7.7c1.4 0 2.5 .3 3.4 .9c.8 .6 1.2 1.5 1.2 2.6c0 1.4 -.7 2.6 -2.1 3.2c1.8 .5 2.7 1.7 2.7 3.5c-.1 1.1 -.4 2.1 -1.4 2.7c-1 .7 -2.2 1 -3.8 1Zm15.8 0V289.4h4v5.2h5v-5.2h3.9v13.9h-3.9V298h-5v5.3Zm16.5 0V289.4h4v8.1l5.5 -8.1h3.8v13.9h-4v-8.1l-5.4 8.1Zm-227 3.4v-6.8h1.5c.7 -2 1.3 -5.1 1.3 -9.4v-1.2h11.6v10.6h1.9l-.5 6.8h-3.3v-3.4h-9l-.2 3.4Zm-114.6 -3c-2.2 0 -4 -.7 -5.4 -2.1c-1.4 -1.4 -2.1 -3.1 -2.1 -5.2c0 -2.1 .7 -3.8 2 -5.2c1.2 -1.5 3 -2.2 5.1 -2.2c2.2 0 3.9 .8 5.1 2.2c1.1 1.4 1.8 3.3 1.8 5.4c0 .2 0 .6 0 1.1h-10c.2 .8 .6 1.5 1.2 2c.6 .3 1.4 .6 2.3 .6c1.2 0 2.4 -.4 3.5 -1.4l2.3 2c-1.5 1.8 -3.4 2.8 -5.8 2.8Zm32.1 0c-2.3 0 -4 -.7 -5.5 -2.1c-1.5 -1.5 -2.1 -3.2 -2.1 -5.2c0 -2.1 .7 -3.8 2.2 -5.2c1.4 -1.5 3.3 -2.2 5.4 -2.2c2.2 0 4 .7 5.5 2.1c1.4 1.4 2.1 3.2 2.1 5.3c-.1 2 -.7 3.7 -2.2 5.2c-1.5 1.3 -3.2 2.1 -5.4 2.1Zm141.1 0c-2.1 0 -3.9 -.7 -5.3 -2.1c-1.4 -1.5 -2.1 -3.2 -2.1 -5.2c0 -2.1 .7 -3.8 2.1 -5.2c1.4 -1.5 3.2 -2.2 5.3 -2.2c2.3 0 4.2 .9 5.6 2.5l-2.3 2.4c-1 -1 -2.1 -1.4 -3.3 -1.4c0 0 -.1 0 -.1 0c-1 0 -1.7 .4 -2.3 1.1c-.8 .7 -1 1.7 -1 2.8c-.1 1.1 .3 2 1 2.7c.5 .7 1.5 1.1 2.6 1.1c1 0 2.1 -.5 3.2 -1.5l2.3 2.4c-.8 .8 -1.6 1.5 -2.4 1.9c-1 .4 -2 .7 -3.3 .7Zm30.6 0c-2.3 0 -4 -.7 -5.5 -2.1c-1.5 -1.5 -2.1 -3.2 -2.1 -5.2c0 -2.1 .7 -3.8 2.2 -5.2c1.4 -1.5 3.3 -2.2 5.4 -2.2c2.2 0 4 .7 5.5 2.1c1.4 1.4 2.1 3.2 2.1 5.3c-.1 2 -.7 3.7 -2.2 5.2c-1.5 1.3 -3.2 2.1 -5.4 2.1Zm62.2 0c-2.2 0 -3.9 -.7 -5.3 -2.1c-1.5 -1.4 -2.1 -3.1 -2.1 -5.2c0 -2.1 .6 -3.8 2 -5.2c1.2 -1.5 3 -2.2 5 -2.2c2.2 0 4 .8 5.2 2.2c1.1 1.4 1.7 3.3 1.7 5.4c0 .2 0 .6 0 1.1H860c.2 .8 .6 1.5 1.2 2c.5 .3 1.3 .6 2.3 .6c1.2 0 2.4 -.4 3.4 -1.4l2.3 2c-1.5 1.8 -3.3 2.8 -5.8 2.8Zm9.4 4V289.4h3.9v2c1.1 -1.6 2.7 -2.4 4.5 -2.4c1.7 0 3.3 .7 4.6 2c1.3 1.2 1.9 3.1 1.9 5.4c-.1 2.3 -.6 4.1 -1.9 5.4c-1.3 1.3 -2.8 2 -4.6 2c-1.8 -.1 -3.3 -.7 -4.5 -2.2v6.1Zm24.5 -4c-2.2 0 -3.9 -.7 -5.3 -2.1c-1.4 -1.4 -2.1 -3.1 -2.1 -5.2c0 -2.1 .7 -3.8 2 -5.2c1.2 -1.5 3 -2.2 5 -2.2c2.3 0 4 .8 5.2 2.2c1.1 1.4 1.8 3.3 1.8 5.4c0 .2 0 .6 -.1 1.1h-9.9c.2 .8 .6 1.5 1.2 2c.5 .3 1.4 .6 2.3 .6c1.2 0 2.4 -.4 3.4 -1.4l2.4 2c-1.6 1.8 -3.4 2.8 -5.9 2.8ZM529.3 300c1.5 0 2.9 -.5 3.9 -1.7c1 -1.2 1.6 -2.5 1.6 -4.1c0 -1.7 -.6 -3 -1.6 -4.1c-1.1 -1.2 -2.4 -1.7 -3.9 -1.7c-1.7 0 -3 .5 -4 1.6c-1.1 1.2 -1.5 2.5 -1.5 4.2c0 1.6 .5 3 1.5 4.1c1 1 2.4 1.7 4 1.7ZM848 299.7V288.4h-5.3v1.9c0 3.4 -.6 6.6 -1.6 9.4Zm-170.7 3.6V285h4v12l8.2 -12h3.7v18.3h-3.9v-12l-8.2 12Zm-148 .4c-2.9 0 -5.2 -.9 -7.1 -2.8c-1.9 -1.9 -2.7 -4.1 -2.7 -6.7c0 -2.7 .9 -4.9 2.8 -6.7c1.8 -1.9 4.2 -2.8 7 -2.8c2.8 0 5.2 .9 7 2.8c1.8 1.8 2.8 4 2.8 6.7c0 2.6 -.9 4.9 -2.8 6.7c-2 1.8 -4.2 2.8 -7 2.8ZM835 307v-7.3h1.7c.7 -1.7 1.3 -3.5 1.6 -5.4c.2 -2 .4 -4.3 .4 -7.4v-2.2H852v15h2.2l-.6 7.3h-3.3v-3.7H839V307Zm-162.9 0c-2.5 -1.3 -4.3 -2.9 -5.5 -4.7c-1.2 -1.9 -1.8 -4 -1.8 -6.5c-.1 -2.6 .6 -4.7 1.8 -6.5c1.2 -1.9 3.1 -3.4 5.5 -4.8l1.8 2.7c-1.9 1.2 -3.1 2.5 -3.9 3.8c-.8 1.4 -1.2 2.9 -1.2 4.8c-.1 1.8 .4 3.4 1.2 4.7c.8 1.3 2.1 2.6 3.9 3.9l-1.8 2.6ZM957 307l-1.8 -2.6c1.7 -1.3 3.1 -2.5 3.9 -3.9c.7 -1.4 1.2 -2.9 1.2 -4.7c-.1 -1.9 -.4 -3.4 -1.2 -4.8c-.9 -1.3 -2.1 -2.6 -3.9 -3.8l1.8 -2.7c2.3 1.3 4.2 2.9 5.4 4.8c1.2 1.7 1.8 4 1.8 6.5c0 2.5 -.6 4.7 -1.8 6.5c-1.2 1.7 -3 3.4 -5.4 4.7ZM753.9 288c-1.2 0 -2.2 -.3 -3 -1c-.8 -.8 -1.2 -1.7 -1.4 -3l2.4 -.4c.3 1.1 1 1.8 2 1.8c1 0 1.7 -.6 2.1 -1.8l2.4 .4c-.3 1.3 -.7 2.3 -1.5 3c-.8 .6 -1.8 1 -3 1Zm64.6 0c-1.3 0 -2.2 -.3 -3 -1c-.8 -.8 -1.3 -1.7 -1.5 -3l2.4 -.4c.4 1.1 1.1 1.8 2.1 1.8c1 0 1.7 -.6 2 -1.8l2.4 .4c-.2 1.3 -.6 2.3 -1.4 3c-.8 .6 -1.8 1 -3 1ZM654.2 261.5c1.2 0 1.9 -.4 1.9 -1.3c0 -1 -.7 -1.3 -2 -1.3H651v2.6Zm105.8 0c1.2 0 1.9 -.4 1.9 -1.3c0 -1 -.7 -1.3 -2 -1.3h-3v2.6Zm351.4 0c1.2 0 1.8 -.4 1.8 -1.3c0 -1 -.6 -1.3 -1.9 -1.3h-3.1v2.6Zm-722.1 .7c.9 0 1.6 -.2 2.2 -.7c.4 -.5 .8 -1 .8 -1.7v-.7c-.7 -.4 -1.5 -.6 -2.5 -.6c-.9 0 -1.4 .2 -1.9 .5c-.6 .3 -.7 .9 -.7 1.5c-.1 .4 .2 .9 .6 1.2c.3 .3 .9 .5 1.5 .5Zm202.8 0c.9 0 1.6 -.2 2.2 -.7c.5 -.5 .8 -1 .8 -1.7v-.7c-.7 -.4 -1.5 -.6 -2.4 -.6c-1 0 -1.5 .2 -2 .5c-.6 .3 -.7 .9 -.7 1.5c-.1 .4 .2 .9 .6 1.2c.3 .3 .9 .5 1.5 .5Zm316.3 0c.9 0 1.6 -.2 2.2 -.7c.5 -.5 .8 -1 .8 -1.7v-.7c-.7 -.4 -1.5 -.6 -2.4 -.6c-.9 0 -1.5 .2 -2 .5c-.5 .3 -.7 .9 -.7 1.5c-.1 .4 .2 .9 .6 1.2c.3 .3 .9 .5 1.5 .5Zm40 0c.9 0 1.6 -.2 2.2 -.7c.5 -.5 .8 -1 .8 -1.7v-.7c-.7 -.4 -1.5 -.6 -2.4 -.6c-.9 0 -1.5 .2 -2 .5c-.5 .3 -.6 .9 -.6 1.5c-.1 .4 .1 .9 .5 1.2c.3 .3 .9 .5 1.5 .5Zm40.8 0c.8 0 1.6 -.2 2.1 -.7c.5 -.5 .9 -1 .9 -1.7v-.7c-.8 -.4 -1.6 -.6 -2.5 -.6c-.9 0 -1.5 .2 -1.9 .5c-.6 .3 -.7 .9 -.7 1.5c-.1 .4 .2 .9 .5 1.2c.4 .3 .9 .5 1.6 .5Zm-566.5 -.7c1.3 0 2.1 -.5 2.1 -1.7c0 -.6 -.2 -.9 -.6 -1.2c-.4 -.3 -.8 -.4 -1.5 -.4h-2.6v3.3Zm550.9 -.1c1 0 1.8 -.3 2.4 -1c.6 -.7 .9 -1.5 .9 -2.6c0 -1.1 -.3 -1.8 -.9 -2.5c-.7 -.8 -1.5 -1.1 -2.5 -1.1c-1.1 0 -1.8 .4 -2.4 1.1c-.7 .7 -.9 1.5 -.9 2.5c-.1 1 .3 1.9 1 2.6c.5 .6 1.4 1 2.4 1Zm-276.3 -.3v-7.2h-4v.3c0 2.9 -.3 5.3 -1 6.9Zm348.9 0v-7.2h-4v.3c0 2.9 -.3 5.3 -1 6.9Zm-591.7 .3c1.1 0 2 -.3 2.6 -1.1c.6 -.8 1 -1.6 1 -2.8c0 -1 -.3 -1.9 -1 -2.7c-.8 -.8 -1.6 -1.1 -2.7 -1.1c0 0 -.1 0 -.1 0c-1.1 0 -1.9 .4 -2.5 1.1c-.8 .6 -1 1.6 -1 2.7c-.1 1.1 .3 2 1 2.8c.6 .7 1.6 1.1 2.7 1.1Zm75.7 0c1.1 0 2 -.3 2.7 -1.1c.5 -.8 1 -1.6 1 -2.8c0 -1 -.4 -1.9 -1.1 -2.7c-.8 -.8 -1.6 -1.1 -2.7 -1.1H530c-1.1 0 -1.9 .4 -2.5 1.1c-.8 .6 -1 1.6 -1 2.7c-.1 1.1 .3 2 1 2.8c.6 .7 1.6 1.1 2.7 1.1Zm139.7 0c1.1 0 2 -.3 2.6 -1.1c.6 -.8 1.1 -1.6 1.1 -2.8c0 -1 -.4 -1.9 -1.1 -2.7c-.8 -.8 -1.6 -1.1 -2.7 -1.1h-.1c-1.1 0 -1.9 .4 -2.5 1.1c-.8 .6 -1 1.6 -1 2.7c-.1 1.1 .3 2 1 2.8c.6 .7 1.6 1.1 2.7 1.1Zm72.5 0c1.1 0 2 -.3 2.7 -1.1c.5 -.8 1 -1.6 1 -2.8c0 -1 -.4 -1.9 -1.1 -2.7c-.8 -.8 -1.6 -1.1 -2.6 -1.1q-.1 0 -.2 0c-1.1 0 -1.9 .4 -2.5 1.1c-.8 .6 -1 1.6 -1 2.7c-.1 1.1 .3 2 1 2.8c.6 .7 1.6 1.1 2.7 1.1Zm49.8 0c1.1 0 2 -.3 2.7 -1.1c.5 -.8 1 -1.6 1 -2.8c0 -1 -.4 -1.9 -1.1 -2.7c-.8 -.8 -1.6 -1.1 -2.6 -1.1q-.1 0 -.2 0c-1.1 0 -1.9 .4 -2.5 1.1c-.8 .6 -1 1.6 -1 2.7c-.1 1.1 .3 2 1 2.8c.6 .7 1.6 1.1 2.7 1.1Zm29.5 0c1.1 0 1.9 -.3 2.6 -1.1c.6 -.8 1 -1.6 1 -2.8c0 -1 -.3 -1.9 -1 -2.7c-.8 -.8 -1.6 -1.1 -2.7 -1.1c0 0 -.1 0 -.1 0c-1.2 0 -1.9 .4 -2.6 1.1c-.7 .6 -.9 1.6 -.9 2.7c-.1 1.1 .3 2 1 2.8c.6 .7 1.6 1.1 2.7 1.1Zm43.1 0c1.1 0 2 -.3 2.7 -1.1c.5 -.8 1 -1.6 1 -2.8c0 -1 -.4 -1.9 -1.1 -2.7c-.7 -.8 -1.5 -1.1 -2.6 -1.1q-.1 0 -.2 0c-1.1 0 -1.8 .4 -2.5 1.1c-.7 .6 -1 1.6 -1 2.7c-.1 1.1 .4 2 1.1 2.8c.5 .7 1.5 1.1 2.6 1.1Zm-351.9 .1c.9 0 1.8 -.3 2.5 -1.1c.6 -.8 1 -1.6 1 -2.8c0 -1.2 -.3 -2.1 -1 -2.8c-.8 -.8 -1.5 -1.1 -2.5 -1.1q-.1 0 -.1 0c-1 0 -1.8 .4 -2.4 1.1c-.8 .6 -1 1.6 -1 2.8c-.1 1.1 .3 2.1 1 2.8c.6 .7 1.5 1.1 2.5 1.1Zm63.5 0c1 0 1.8 -.3 2.5 -1.1c.6 -.8 1 -1.6 1 -2.8c0 -1.2 -.3 -2.1 -1 -2.8c-.8 -.8 -1.5 -1.1 -2.5 -1.1c0 0 -.1 0 -.1 0c-1 0 -1.7 .4 -2.4 1.1c-.8 .6 -1 1.6 -1 2.8c-.1 1.1 .3 2.1 1 2.8c.6 .7 1.5 1.1 2.5 1.1Zm271.1 0c1 0 1.8 -.3 2.5 -1.1c.6 -.8 1 -1.6 1 -2.8c0 -1.2 -.3 -2.1 -1 -2.8c-.8 -.8 -1.5 -1.1 -2.5 -1.1c0 0 -.1 0 -.1 0c-1 0 -1.7 .4 -2.4 1.1c-.8 .6 -1 1.6 -1 2.8c-.1 1.1 .3 2.1 1 2.8c.6 .7 1.5 1.1 2.5 1.1Zm230.3 0c.9 0 1.8 -.3 2.5 -1.1c.6 -.8 1 -1.6 1 -2.8c0 -1.2 -.3 -2.1 -1 -2.8c-.8 -.8 -1.5 -1.1 -2.5 -1.1q-.1 0 -.1 0c-1 0 -1.8 .4 -2.4 1.1c-.8 .6 -1 1.6 -1 2.8c-.1 1.1 .3 2.1 1 2.8c.6 .7 1.5 1.1 2.5 1.1Zm-603.5 -5c-.1 -.9 -.4 -1.6 -.9 -2.1c-.6 -.6 -1.2 -.8 -2.1 -.8c-.8 0 -1.4 .2 -2 .8c-.5 .4 -.9 1.2 -1 2.1Zm179.5 -.3c.5 0 1 -.1 1.2 -.4c.2 -.3 .5 -.6 .5 -1c0 -.4 -.2 -.6 -.4 -.9c-.4 -.2 -.7 -.3 -1.2 -.3H651v2.6Zm105.8 0c.5 0 1 -.1 1.2 -.4c.2 -.3 .5 -.6 .5 -1c0 -.4 -.2 -.6 -.4 -.9c-.4 -.2 -.7 -.3 -1.2 -.3h-2.8v2.6Zm262.9 .3c-.1 -.9 -.4 -1.6 -.9 -2.1c-.6 -.6 -1.2 -.8 -2.1 -.8c-.8 0 -1.5 .2 -2 .8c-.5 .4 -.9 1.2 -1 2.1Zm41.1 0c-.2 -.9 -.5 -1.6 -1 -2.1c-.5 -.6 -1.2 -.8 -2 -.8c-.9 0 -1.5 .2 -2.1 .8c-.5 .4 -.9 1.2 -1 2.1Zm33.9 0c-.1 -.9 -.4 -1.6 -1 -2.1c-.5 -.6 -1.2 -.8 -2 -.8c-.8 0 -1.5 .2 -2 .8c-.6 .4 -.9 1.2 -1.1 2.1Zm13.5 -.3c.5 0 .9 -.1 1.2 -.4c.2 -.3 .4 -.6 .4 -1c0 -.4 -.1 -.6 -.4 -.9c-.3 -.2 -.6 -.3 -1.2 -.3h-2.8v2.6Zm-776.1 8.3V250.6h3.9v5.2h5v-5.2h4v13.9h-4v-5.3h-5v5.3Zm16.5 0V250.6h3.9v8.1l5.5 -8.1h3.8v13.9h-3.9v-8.1l-5.5 8.1Zm16.7 0V250.6H372v5.7l5.1 -5.7h4.6l-5.2 5.7l5.9 8.2h-4.8l-3.7 -5.3l-1.9 2v3.3Zm48 0V250.6h4v4.6H423c1.7 0 3.1 .4 4.2 1.2c1 .7 1.5 1.9 1.5 3.4c-.1 1.4 -.4 2.6 -1.4 3.5c-1 .8 -2.3 1.2 -4 1.2Zm14.9 0V250.6h3.9v5.2H440v-5.2h3.9v13.9H440v-5.3h-5.1v5.3Zm171.3 0V250.6h4v5.2h5v-5.2h4v13.9h-4v-5.3h-5v5.3Zm44.8 0V250.6h7.7c1.4 0 2.5 .3 3.4 .9c.8 .6 1.2 1.5 1.2 2.6c0 1.4 -.7 2.6 -2.1 3.2c1.7 .5 2.7 1.7 2.7 3.5c-.1 1.1 -.4 2.1 -1.4 2.7c-1 .7 -2.2 1 -3.8 1Zm61.7 4.4c-1.3 0 -2.5 -.4 -3.6 -1.1l1.4 -2.9c.5 .3 1.2 .5 1.7 .5c.6 -.1 1.1 -.3 1.4 -.9l-5.6 -13.9h4.3l3.2 9.4l3.1 -9.4h4.1l-5.4 14.3c-.6 1.5 -1.1 2.5 -1.8 3.1c-.8 .5 -1.6 .9 -2.8 .9ZM720 264.5l5 -7.1l-4.8 -6.8h4.3l2.6 4l2.7 -4H734l-4.8 6.8l5 7.1h-4.3l-2.8 -4.3l-2.9 4.3Zm32.9 0V250.6h7.7c1.4 0 2.5 .3 3.4 .9c.8 .6 1.2 1.5 1.2 2.6c0 1.4 -.7 2.6 -2.1 3.2c1.8 .5 2.7 1.7 2.7 3.5c-.1 1.1 -.4 2.1 -1.4 2.7c-1 .7 -2.2 1 -3.8 1Zm15.8 0V250.6h4v5.2h5v-5.2h3.9v13.9h-3.9v-5.3h-5v5.3Zm157.9 0V250.6h3.9v5.2h5v-5.2h4v13.9h-4v-5.3h-5v5.3Zm177.7 0V250.6h7.6c1.4 0 2.6 .3 3.4 .9c.8 .6 1.3 1.5 1.3 2.6c0 1.4 -.7 2.6 -2.1 3.2c1.7 .5 2.7 1.7 2.7 3.5c-.1 1.1 -.5 2.1 -1.4 2.7c-1 .7 -2.2 1 -3.8 1Zm15.8 0V250.6h3.9v5.2h5v-5.2h4v13.9h-4v-5.3h-5v5.3Zm16.5 0V250.6h3.9v8.1l5.5 -8.1h3.8v13.9h-3.9v-8.1l-5.5 8.1Zm-647.6 0v-14h12.9v14H498V253.9h-5v10.6Zm69.7 0V253.9h-4.3v-3.4h12.3v3.4h-4v10.6Zm78.2 0V253.9h-4.3v-3.4h12.3v3.4h-4.1v10.6Zm49.9 3.4v-6.8h1.5c.8 -2 1.3 -5.1 1.3 -9.4v-1.2h11.6v10.6h1.9l-.4 6.8h-3.4v-3.4h-8.9l-.3 3.4Zm115.9 -3.4v-14H813v3.4h-6.3v10.6Zm90.7 0V253.9H889v-3.4h12.3v3.4h-4v10.6Zm142.3 3.4v-6.8h1.5c.8 -2 1.3 -5.1 1.3 -9.4v-1.2h11.6v10.6h2l-.5 6.8h-3.4v-3.4h-8.9l-.3 3.4Zm-647.6 -3c-1.5 0 -2.6 -.4 -3.5 -1.2c-.9 -.8 -1.3 -1.8 -1.3 -3.1c0 -1.5 .5 -2.6 1.5 -3.3c.9 -.8 2.4 -1.1 4.1 -1.1c1 0 2.3 .2 3.4 .6v-.3c0 -1.8 -1 -2.6 -3 -2.6c-1.2 0 -2.4 .3 -3.8 .8l-1 -3.1c1.6 -.8 3.5 -1.1 5.5 -1.1c.1 0 .2 -.1 .3 -.1c1.9 0 3.4 .6 4.4 1.6c1 1 1.5 2.5 1.5 4.5v8.1h-3.9v-1.5c-1.1 1.1 -2.5 1.8 -4.2 1.8Zm202.8 0c-1.4 0 -2.5 -.4 -3.5 -1.2c-.9 -.8 -1.3 -1.8 -1.3 -3.1c0 -1.5 .5 -2.6 1.5 -3.3c.9 -.8 2.4 -1.1 4.1 -1.1c1.1 0 2.3 .2 3.4 .6v-.3c0 -1.8 -1 -2.6 -3 -2.6c-1.2 0 -2.4 .3 -3.8 .8l-1 -3.1c1.6 -.8 3.5 -1.1 5.5 -1.1c.1 0 .2 -.1 .3 -.1c2 0 3.4 .6 4.4 1.6c1 1 1.5 2.5 1.5 4.5v8.1h-3.9v-1.5c-1.1 1.1 -2.5 1.8 -4.2 1.8Zm316.3 0c-1.4 0 -2.5 -.4 -3.4 -1.2c-1 -.8 -1.4 -1.8 -1.4 -3.1c0 -1.5 .5 -2.6 1.5 -3.3c1 -.8 2.4 -1.1 4.1 -1.1c1.1 0 2.3 .2 3.4 .6v-.3c0 -1.8 -1 -2.6 -2.9 -2.6c-1.2 0 -2.5 .3 -3.8 .8l-1.1 -3.1c1.7 -.8 3.6 -1.1 5.5 -1.1c.1 0 .2 -.1 .4 -.1c1.9 0 3.4 .6 4.4 1.6c.9 1 1.5 2.5 1.5 4.5v8.1h-4v-1.5c-1 1.1 -2.4 1.8 -4.2 1.8Zm40 0c-1.4 0 -2.5 -.4 -3.4 -1.2c-1 -.8 -1.4 -1.8 -1.4 -3.1c0 -1.5 .5 -2.6 1.5 -3.3c1 -.8 2.4 -1.1 4.1 -1.1c1.1 0 2.3 .2 3.4 .6v-.3c0 -1.8 -1 -2.6 -2.9 -2.6c-1.2 0 -2.5 .3 -3.8 .8l-1.1 -3.1c1.7 -.8 3.6 -1.1 5.5 -1.1c.1 0 .2 -.1 .4 -.1c1.9 0 3.4 .6 4.4 1.6c.9 1 1.5 2.5 1.5 4.5v8.1h-4v-1.5c-1 1.1 -2.4 1.8 -4.2 1.8Zm40.7 0c-1.4 0 -2.5 -.4 -3.4 -1.2c-.9 -.8 -1.4 -1.8 -1.4 -3.1c0 -1.5 .5 -2.6 1.5 -3.3c1 -.8 2.4 -1.1 4.2 -1.1c1 0 2.2 .2 3.4 .6v-.3c-.1 -1.8 -1 -2.6 -3 -2.6c-1.2 0 -2.5 .3 -3.8 .8l-1 -3.1c1.6 -.8 3.5 -1.1 5.4 -1.1c.1 0 .3 -.1 .4 -.1c1.9 0 3.4 .6 4.4 1.6c.9 1 1.5 2.5 1.5 4.5v8.1h-3.9v-1.5c-1.1 1.1 -2.5 1.8 -4.3 1.8ZM400 264.5c-.8 0 -1.4 0 -2.1 -.2l.3 -3.3c.2 0 .6 .1 .9 .1c.3 -.1 .8 -.1 1 -.3c.2 -.3 .5 -.7 .7 -1.4c.2 -.8 .4 -1.8 .4 -3.3c0 -1.5 0 -3.4 0 -5.9h11.3v14.2h-3.9V253.7h-3.5c-.1 1.8 0 3.4 -.2 4.7c-.1 1.2 -.3 2.3 -.6 3.1c-.3 .7 -.6 1.5 -1 1.9c-.5 .4 -.9 .7 -1.4 .9c-.5 .1 -1.2 .2 -1.9 .2Zm54.4 .4c-2.2 0 -4 -.7 -5.4 -2.1c-1.5 -1.5 -2.2 -3.2 -2.2 -5.3c0 -2 .7 -3.7 2.2 -5.1c1.4 -1.5 3.3 -2.2 5.5 -2.2c2.1 0 4 .7 5.4 2.1c1.4 1.4 2.2 3.2 2.2 5.2c-.1 2.1 -.8 3.8 -2.2 5.2c-1.5 1.4 -3.3 2.2 -5.5 2.2Zm17.3 0c-2.2 0 -3.9 -.7 -5.3 -2.1c-1.4 -1.4 -2.1 -3.1 -2.1 -5.3c0 -2 .7 -3.7 2 -5.1c1.2 -1.5 3 -2.2 5 -2.2c2.3 0 4 .8 5.2 2.2c1.1 1.4 1.8 3.3 1.8 5.4c0 .1 0 .6 -.1 1.1h-9.9c.2 .8 .6 1.5 1.2 2c.5 .3 1.4 .6 2.3 .6c1.2 0 2.4 -.4 3.4 -1.4l2.4 2c-1.6 1.8 -3.4 2.8 -5.9 2.8Zm33.7 4V250.6h4v2c1 -1.6 2.6 -2.4 4.4 -2.4c1.8 0 3.3 .7 4.6 2c1.3 1.2 2 3.1 2 5.4c-.1 2.3 -.7 4.1 -2 5.4c-1.2 1.3 -2.8 2 -4.6 2c-1.8 -.1 -3.2 -.7 -4.4 -2.2v6.1Zm24.7 -4c-2.2 0 -3.9 -.7 -5.4 -2.1c-1.5 -1.5 -2.2 -3.2 -2.2 -5.3c0 -2 .8 -3.7 2.2 -5.1c1.4 -1.5 3.3 -2.2 5.5 -2.2c2.2 0 4 .7 5.4 2.1c1.4 1.4 2.2 3.2 2.2 5.2c-.1 2.1 -.7 3.8 -2.2 5.2c-1.5 1.4 -3.3 2.2 -5.5 2.2Zm17.3 0c-2.1 0 -3.9 -.7 -5.3 -2.2c-1.4 -1.4 -2.1 -3.1 -2.1 -5.2c0 -2 .7 -3.7 2.1 -5.1c1.4 -1.5 3.2 -2.2 5.3 -2.2c2.3 0 4.2 .8 5.6 2.5l-2.3 2.3c-1 -.9 -2.1 -1.3 -3.3 -1.3c0 0 -.1 0 -.1 0c-1 0 -1.7 .4 -2.4 1.1c-.7 .7 -.9 1.7 -.9 2.7c-.1 1.2 .3 2.1 1 2.8c.5 .7 1.5 1.1 2.6 1.1c1 0 2.1 -.5 3.2 -1.5l2.3 2.4c-.8 .8 -1.6 1.5 -2.4 1.9c-1 .4 -2 .7 -3.3 .7Zm21.6 4V250.6h3.9v2c1 -1.6 2.6 -2.4 4.5 -2.4c1.7 0 3.3 .7 4.6 2c1.2 1.2 1.9 3.1 1.9 5.4c-.1 2.3 -.7 4.1 -1.9 5.4c-1.3 1.3 -2.8 2 -4.6 2c-1.8 -.1 -3.3 -.7 -4.5 -2.2v6.1Zm56.5 -4c-2.1 0 -3.8 -.7 -5.2 -2.2c-1.5 -1.4 -2.1 -3.1 -2.1 -5.2c0 -2 .7 -3.7 2.1 -5.1c1.3 -1.5 3.1 -2.2 5.3 -2.2c2.2 0 4.1 .8 5.6 2.5l-2.4 2.3c-1 -.9 -2 -1.3 -3.3 -1.3h-.1c-.9 0 -1.7 .4 -2.3 1.1c-.7 .7 -1 1.7 -1 2.7c-.1 1.2 .4 2.1 1 2.8c.6 .7 1.5 1.1 2.6 1.1c1 0 2.2 -.5 3.2 -1.5l2.4 2.4c-.8 .8 -1.6 1.5 -2.5 1.9c-1 .4 -2 .7 -3.3 .7Zm44.3 0c-2.2 0 -3.9 -.7 -5.4 -2.1c-1.5 -1.5 -2.2 -3.2 -2.2 -5.3c0 -2 .8 -3.7 2.2 -5.1c1.4 -1.5 3.3 -2.2 5.5 -2.2c2.2 0 4 .7 5.4 2.1c1.4 1.4 2.2 3.2 2.2 5.2c-.1 2.1 -.7 3.8 -2.2 5.2c-1.5 1.4 -3.3 2.2 -5.5 2.2Zm72.6 0c-2.3 0 -4 -.7 -5.5 -2.1c-1.5 -1.5 -2.1 -3.2 -2.1 -5.3c0 -2 .7 -3.7 2.1 -5.1c1.4 -1.5 3.3 -2.2 5.5 -2.2c2.2 0 4 .7 5.4 2.1c1.4 1.4 2.2 3.2 2.2 5.2c-.1 2.1 -.7 3.8 -2.2 5.2c-1.5 1.4 -3.3 2.2 -5.4 2.2Zm49.8 0c-2.3 0 -4 -.7 -5.5 -2.1c-1.5 -1.5 -2.1 -3.2 -2.1 -5.3c0 -2 .7 -3.7 2.2 -5.1c1.4 -1.5 3.2 -2.2 5.4 -2.2c2.2 0 4 .7 5.4 2.1c1.5 1.4 2.2 3.2 2.2 5.2c-.1 2.1 -.7 3.8 -2.2 5.2c-1.5 1.4 -3.3 2.2 -5.4 2.2Zm29.4 0c-2.3 0 -4 -.7 -5.4 -2.1c-1.5 -1.5 -2.2 -3.2 -2.2 -5.3c0 -2 .7 -3.7 2.2 -5.1c1.4 -1.5 3.3 -2.2 5.5 -2.2c2.1 0 3.9 .7 5.4 2.1c1.4 1.4 2.2 3.2 2.2 5.2c-.1 2.1 -.8 3.8 -2.2 5.2c-1.5 1.4 -3.3 2.2 -5.5 2.2Zm18.5 4V250.6H844v2c1.1 -1.6 2.6 -2.4 4.5 -2.4c1.7 0 3.3 .7 4.6 2c1.2 1.2 1.9 3.1 1.9 5.4c-.1 2.3 -.7 4.1 -1.9 5.4c-1.3 1.3 -2.8 2 -4.6 2c-1.8 -.1 -3.3 -.7 -4.5 -2.2v6.1Zm24.7 -4c-2.3 0 -4 -.7 -5.5 -2.1c-1.5 -1.5 -2.1 -3.2 -2.1 -5.3c0 -2 .7 -3.7 2.2 -5.1c1.4 -1.5 3.3 -2.2 5.4 -2.2c2.2 0 4 .7 5.5 2.1c1.4 1.4 2.1 3.2 2.1 5.2c-.1 2.1 -.7 3.8 -2.2 5.2c-1.5 1.4 -3.3 2.2 -5.4 2.2Zm17.2 0c-2.1 0 -3.9 -.7 -5.2 -2.2c-1.5 -1.4 -2.1 -3.1 -2.1 -5.2c0 -2 .7 -3.7 2.1 -5.1c1.3 -1.5 3.1 -2.2 5.3 -2.2c2.2 0 4.1 .8 5.6 2.5l-2.4 2.3c-1 -.9 -2.1 -1.3 -3.3 -1.3h-.1c-.9 0 -1.7 .4 -2.3 1.1c-.8 .7 -1 1.7 -1 2.7c-.1 1.2 .3 2.1 1 2.8c.6 .7 1.5 1.1 2.6 1.1c1 0 2.2 -.5 3.2 -1.5l2.4 2.4c-.8 .8 -1.6 1.5 -2.5 1.9c-1 .4 -2 .7 -3.3 .7Zm122.6 0c-2.6 0 -4.7 -.8 -6.4 -2.4l1.9 -2.6c1.2 1.1 2.6 1.6 4.2 1.6c.5 0 1.1 -.1 1.5 -.4c.3 -.4 .6 -.7 .6 -1.1c0 -.5 -.2 -.8 -.6 -1c-.5 -.3 -1 -.5 -1.8 -.5h-1.6v-2.3h1.6c.5 0 1.1 -.1 1.5 -.4c.3 -.3 .5 -.6 .5 -1c0 -.4 -.1 -.6 -.5 -.9c-.4 -.2 -.8 -.3 -1.3 -.3c-1.6 0 -2.8 .4 -3.8 1.4l-1.7 -2.5c1.5 -1.6 3.5 -2.3 5.9 -2.3c1.5 0 2.8 .4 3.8 1.1c1 .7 1.6 1.6 1.6 2.7c-.1 1.4 -.7 2.5 -2.2 3.2c1.6 .5 2.5 1.7 2.5 3.3c-.1 1.1 -.5 2.3 -1.6 3.1c-1.1 .8 -2.4 1.3 -4.1 1.3Zm15.3 0c-2.2 0 -3.9 -.7 -5.3 -2.1c-1.4 -1.4 -2.1 -3.1 -2.1 -5.3c0 -2 .7 -3.7 2 -5.1c1.2 -1.5 3 -2.2 5 -2.2c2.3 0 4 .8 5.2 2.2c1.1 1.4 1.8 3.3 1.8 5.4c0 .1 -.1 .6 -.1 1.1h-9.9c.2 .8 .6 1.5 1.2 2c.5 .3 1.4 .6 2.3 .6c1.2 0 2.4 -.4 3.4 -1.4l2.3 2c-1.5 1.8 -3.3 2.8 -5.8 2.8Zm41.1 0c-2.2 0 -4 -.7 -5.4 -2.1c-1.4 -1.4 -2.1 -3.1 -2.1 -5.3c0 -2 .7 -3.7 2 -5.1c1.2 -1.5 3 -2.2 5.1 -2.2c2.2 0 3.9 .8 5.1 2.2c1.1 1.4 1.8 3.3 1.8 5.4c0 .1 0 .6 0 1.1h-10c.2 .8 .6 1.5 1.2 2c.6 .3 1.4 .6 2.3 .6c1.2 0 2.4 -.4 3.5 -1.4l2.3 2c-1.5 1.8 -3.4 2.8 -5.8 2.8Zm9.3 4V250.6h4v2c1 -1.6 2.6 -2.4 4.4 -2.4c1.8 0 3.4 .7 4.6 2c1.3 1.2 2 3.1 2 5.4c-.1 2.3 -.7 4.1 -1.9 5.4c-1.3 1.3 -2.9 2 -4.7 2c-1.8 -.1 -3.2 -.7 -4.4 -2.2v6.1Zm24.6 -4c-2.2 0 -3.9 -.7 -5.3 -2.1c-1.5 -1.4 -2.1 -3.1 -2.1 -5.3c0 -2 .6 -3.7 1.9 -5.1c1.3 -1.5 3.1 -2.2 5.1 -2.2c2.2 0 4 .8 5.1 2.2c1.2 1.4 1.8 3.3 1.8 5.4c0 .1 0 .6 0 1.1h-9.9c.2 .8 .6 1.5 1.2 2c.5 .3 1.3 .6 2.2 .6c1.2 0 2.5 -.4 3.5 -1.4l2.3 2c-1.5 1.8 -3.4 2.8 -5.8 2.8Zm-773.8 0c-1.5 0 -2.8 -.4 -4 -1.1l1.6 -3c.6 .3 1.3 .6 2.1 .6c.9 0 1.7 -.5 2.4 -1.4l-7.4 -13.8h4.5l5 9.7l4.5 -9.7h4.4l-7.1 14.2c-.9 1.5 -1.7 2.7 -2.6 3.4c-1.1 .6 -2.1 1.1 -3.4 1.1Zm652.4 0c-2.4 0 -4.1 -.8 -5.4 -2.2c-1.3 -1.5 -1.9 -3.5 -1.9 -6.1c0 -1 .1 -1.8 .1 -2.6c.1 -.7 .3 -1.5 .5 -2.3c.2 -.9 .6 -1.6 1 -2.1c.3 -.6 .9 -1.2 1.7 -1.6c.6 -.5 1.6 -.8 2.6 -1l7.5 -1.4l.6 3.2l-7.6 1.4c-2.2 .5 -3.3 1.6 -3.4 3.3c.2 -.7 .9 -1.1 1.8 -1.6c.8 -.5 2 -.7 3.2 -.7c1.8 0 3.4 .7 4.7 1.9c1.3 1.2 2 2.9 2 4.8c0 1.8 -.7 3.6 -2.1 4.9c-1.5 1.3 -3.2 2.1 -5.3 2.1Z"/></clipPath>
</defs>
<image clip-path="url(#c0_21)" preserveAspectRatio="none" x="150" y="0" width="1167" height="825" xlink:href="img/1.jpg"/>
<image clip-path="url(#c1_21)" preserveAspectRatio="none" x="150" y="0" width="1167" height="825" xlink:href="img/2.jpg"/>
<image clip-path="url(#c2_21)" preserveAspectRatio="none" x="150" y="0" width="1167" height="825" xlink:href="img/3.jpg"/>
<image clip-path="url(#c3_21)" preserveAspectRatio="none" x="150" y="0" width="1167" height="825" xlink:href="img/4.jpg"/>
<image clip-path="url(#c4_21)" preserveAspectRatio="none" x="150" y="0" width="1167" height="825" xlink:href="img/5.jpg"/>
<image clip-path="url(#c5_21)" preserveAspectRatio="none" x="150" y="0" width="1167" height="825" xlink:href="img/6.jpg"/>
<image clip-path="url(#c6_21)" preserveAspectRatio="none" x="150" y="0" width="1167" height="825" xlink:href="img/7.jpg"/>
<image clip-path="url(#c7_21)" preserveAspectRatio="none" x="150" y="0" width="1167" height="825" xlink:href="img/8.jpg"/>
<image clip-path="url(#c8_21)" preserveAspectRatio="none" x="150" y="0" width="1167" height="825" xlink:href="img/9.jpg"/>
</svg>