<?xml version="1.0" encoding="UTF-8" standalone="no"?>
<!DOCTYPE svg PUBLIC "-//W3C//DTD SVG 1.1//EN"
"http://www.w3.org/Graphics/SVG/1.1/DTD/svg11.dtd">
<svg viewBox="0 0 1466 825" version="1.1" xmlns="http://www.w3.org/2000/svg" xmlns:xlink="http://www.w3.org/1999/xlink">
<defs>
<clipPath id="c0_2"><path d="M0 825V0H1466.7V825Z"/></clipPath>
<style type="text/css"><![CDATA[
.g0_2{
fill: #FFF;
}
.g1_2{
fill: #FFC000;
}
.g2_2{
fill: #A4A4A4;
}
.g3_2{
fill: #ED7D31;
}
.g4_2{
fill: #4472C4;
}
]]></style>
</defs>
<path clip-path="url(#c0_2)" fill-rule="evenodd" d="M0 825H1466.7V0H0V825Z" class="g0_2"/>
<path fill-rule="evenodd" d="M591.9 495.2Q509.7 577 509.7 577c-1.3 1.3 -1.3 3.7 0 5Q629.2 701.5 629.2 701.5c1.6 1.3 3.7 1.3 5 0q82.2 -81.9 82.2 -81.9c.6 -.7 1 -1.7 1 -2.6q0 -119.4 0 -119.4c0 -2 -1.7 -3.5 -3.7 -3.5q-119.4 0 -119.4 0c-.9 0 -1.8 .4 -2.4 1.1Z" class="g1_2"/>
<path fill-rule="evenodd" d="M746.3 495.2c-.6 .6 -1.1 1.5 -1.1 2.4q0 115.5 0 115.5c0 .9 .5 1.7 1.1 2.4q86.1 86 86.1 86c1.3 1.3 3.5 1.3 5 0Q956.9 582 956.9 582c1.3 -1.3 1.3 -3.7 0 -5Q874.8 495.2 874.8 495.2c-.7 -.7 -1.6 -1.1 -2.4 -1.1q-123.7 0 -123.7 0c-.8 0 -1.7 .4 -2.4 1.1Z" class="g2_2"/>
<path fill-rule="evenodd" d="M751.8 466.1q116.5 0 116.5 0c1 0 1.9 -.2 2.6 -.9q86 -86.1 86 -86.1c1.3 -1.5 1.3 -3.7 0 -5Q837.4 254.5 837.4 254.5c-1.5 -1.5 -3.7 -1.5 -5 0q-86.1 86.1 -86.1 86.1c-.6 .7 -1.1 1.6 -1.1 2.4q0 117.9 0 117.9c0 6.3 3.7 5.2 6.6 5.2Z" class="g3_2"/>
<path fill-rule="evenodd" d="M716.4 465.1c.6 -.7 1 -1.7 1 -2.6q0 -123.4 0 -123.4c0 -1.1 -.4 -2 -1 -2.7Q634.2 254.5 634.2 254.5c-1.3 -1.5 -3.4 -1.5 -5 0Q509.7 374 509.7 374c-1.3 1.3 -1.3 3.5 0 5q86.1 86.1 86.1 86.1c.6 .7 1.7 .9 2.6 .9q115.3 0 115.3 0c1.1 0 2 -.2 2.7 -.9Z" class="g4_2"/>
<g clip-path="url(#c0_2)">
<image preserveAspectRatio="none" x="583" y="532" width="93" height="93" xlink:href="img/1.png"/>
<image preserveAspectRatio="none" x="574" y="315" width="117" height="118" xlink:href="img/2.png"/>
<image preserveAspectRatio="none" x="772" y="511" width="124" height="124" xlink:href="img/3.png"/>
<image preserveAspectRatio="none" x="777" y="315" width="110" height="110" xlink:href="img/4.png"/>
<image preserveAspectRatio="none" x="1288" y="59" width="110" height="20" xlink:href="img/5.png"/>
</g>
</svg>