<?xml version="1.0" encoding="UTF-8" standalone="no"?>
<!DOCTYPE svg PUBLIC "-//W3C//DTD SVG 1.1//EN"
"http://www.w3.org/Graphics/SVG/1.1/DTD/svg11.dtd">
<svg viewBox="0 0 1466 825" version="1.1" xmlns="http://www.w3.org/2000/svg" xmlns:xlink="http://www.w3.org/1999/xlink">
<defs>
<clipPath id="c0_22"><path d="M149.9 825V0h1167V825Z"/></clipPath>
<clipPath id="c1_22"><path d="M149.9 825V83.2h1167V825Z"/></clipPath>
<clipPath id="c2_22"><path d="M636.6 193.4L633 184.6l-3.6 8.8Zm198.9 -2.7V183h-5.9c-1.5 0 -2.6 .4 -3.4 1c-.9 .7 -1.3 1.7 -1.3 2.9c0 1.1 .4 2.1 1.3 2.8c.7 .7 1.9 1 3.3 1Zm-228.8 8.6V182.8h-7.9v2.7c0 5.1 -.8 9.8 -2.4 13.8Zm199.2 0V182.8H798v2.7c-.1 5.1 -.9 9.8 -2.5 13.8Zm-34.9 .3c2.1 -.1 3.8 -.9 5.1 -2.5c1.2 -1.6 1.9 -3.7 1.9 -6.2c0 -2.5 -.6 -4.4 -1.9 -6.1c-1.4 -1.7 -3.1 -2.4 -5.1 -2.4c-2.1 0 -3.8 .8 -5.1 2.4c-1.4 1.6 -1.9 3.7 -1.9 6.1c0 2.4 .6 4.5 1.9 6.2c1.4 1.6 3.1 2.5 5.1 2.5Zm47.1 5.1l6.6 -9.7c-3.9 -1.5 -5.8 -4.3 -5.8 -8.4c0 -2.9 .9 -5 2.7 -6.6c1.8 -1.7 4.3 -2.3 7.5 -2.3h12.4v27h-6V196h-4.6l-5.8 8.7Zm-131.4 0V183h-8.3v-5.5h22.5V183h-8.2v21.7Zm162.4 0V177.5h6.4l7.2 11.5l7.1 -11.5h6.5v27.2h-6V186.9l-7.6 11.6h-.2l-7.6 -11.4v17.6Zm-261.5 5.6v-11h2.5c1.1 -2.6 1.9 -5.1 2.3 -7.9c.4 -2.8 .7 -6.3 .7 -10.8v-3.2h19.6v21.9H616l-.8 11h-5v-5.6H593.3l-.4 5.6Zm31.1 -5.5l11.6 -27.4h5.6l11.6 27.4h-6.3l-2.4 -6.1H627.3l-2.5 6.1Zm99.7 .2c-1.2 0 -2.2 -.1 -3.1 -.4l.4 -4.9c.3 0 .6 .1 .9 .1c.8 -.1 1.6 -.2 2.2 -.6c.5 -.4 1 -1.1 1.5 -2.2c.4 -1.3 .8 -2.9 1 -5.2c.2 -2.3 .3 -5.2 .3 -8.8v-5.6h19.3v27.2H735V182.8h-7.8v2c-.1 5.3 -.3 9.5 -.9 12.4c-.8 2.9 -1.6 5 -2.8 6.1c-1.3 1 -2.9 1.7 -5.1 1.7Zm68.3 5.3v-11h2.6c1 -2.6 1.8 -5.1 2.2 -7.9c.4 -2.8 .7 -6.3 .7 -10.8v-3.2h19.6v21.9h3.3l-.8 11h-5v-5.6H792.5l-.4 5.6ZM771 205c-3.5 0 -6.3 -1.1 -8.7 -3.2c-2.4 -2.1 -3.8 -4.8 -4.3 -8.1h-3.7v10.8h-6V177.4h6v10.9H758c.6 -3.4 2.1 -6 4.4 -8.2c2.4 -2.1 5.3 -3.2 8.7 -3.2c0 0 .1 0 .2 0c3.7 0 6.8 1.4 9.2 4c2.4 2.7 3.7 6.1 3.7 10.1c-.1 3.8 -1.2 7.2 -3.7 9.9c-2.6 2.6 -5.7 4.1 -9.5 4.1Zm-107.4 0c-4.1 0 -7.3 -1.4 -10 -4.1c-2.7 -2.8 -3.9 -6 -3.9 -10c0 -4 1.3 -7.2 4 -9.9c2.6 -2.9 6 -4.1 10.1 -4.1c.1 0 .3 0 .4 0c2.1 0 4 .4 5.5 1.1c1.6 .7 3.2 1.9 4.6 3.3l-3.5 4.1c-1.3 -1.1 -2.3 -1.8 -3.3 -2.3c-1.1 -.5 -2.3 -.7 -3.7 -.7c-2.4 0 -4.2 .8 -5.7 2.4c-1.5 1.6 -2.2 3.7 -2.2 6.1c-.1 2.3 .7 4.4 2.2 6.1c1.5 1.5 3.4 2.5 5.7 2.5c1.4 -.1 2.7 -.3 3.7 -.8c1 -.5 2.2 -1.3 3.4 -2.4l3.8 4.1c-1.5 1.5 -3.1 2.7 -4.8 3.5c-1.8 .6 -3.8 1.1 -6.3 1.1ZM637.7 149l-3.6 -8.8l-3.6 8.8Zm112.9 -2c1.4 0 2.6 -.4 3.5 -1.2c.7 -.8 1.3 -1.7 1.3 -3c-.1 -1.4 -.5 -2.3 -1.3 -3c-1 -.8 -2.1 -1.1 -3.6 -1.1h-4.7V147Zm29 8.1c2.4 0 4.4 -.8 5.9 -2.4c1.5 -1.7 2.3 -3.7 2.3 -6.1c-.1 -2.5 -.8 -4.4 -2.3 -6.1c-1.7 -1.7 -3.6 -2.5 -5.9 -2.5c-2.4 0 -4.4 .8 -5.9 2.5c-1.6 1.6 -2.3 3.7 -2.3 6.1c-.1 2.3 .8 4.4 2.3 6c1.5 1.6 3.6 2.5 5.9 2.5Zm-69.8 5.4V133.3h22.6v27.2h-5.9V138.7H715.8v21.8Zm30 0V133.3H751c.1 0 .2 0 .4 0c2.9 0 5.4 .9 7.2 2.6c1.8 1.7 2.8 4 2.8 6.9c-.1 3 -1 5.4 -3.1 7c-2.2 1.6 -4.7 2.5 -8 2.5h-4.5v8.2Zm-86.2 -.2V133.2h6v21.7h9.6V133.2h6v21.7h9.7V133.2h5.9v27.1Zm208.9 0V138.7h-8.3v-5.5h22.5v5.5h-8.2v21.6Zm-270.6 0V133.2h6v10.6h11V133.2h5.9v27.1h-5.9v-11h-11v11Zm235.2 0V133.2H833V145l11 -11.8h7.3l-11.1 11.5l11.6 15.6h-7.2l-8.4 -11.6L833 152v8.3Zm-26.8 0V133h20.4v5.4H806.2V144h12.9v5.3H806.2V155h14.7v5.3Zm-180.5 .2L631.4 133h5.5l11.6 27.5h-6.2l-2.5 -6.2H628.3l-2.5 6.2Zm159.8 .1c-4.2 0 -7.6 -1.3 -10.3 -4c-2.8 -2.8 -4.1 -6.1 -4.1 -10c0 -4 1.3 -7.3 4.1 -10c2.7 -2.8 6.2 -4.1 10.3 -4.1c.1 0 .2 0 .3 0c3.9 0 7.4 1.4 10 4.1c2.7 2.6 4.1 6 4.1 10c-.1 3.8 -1.3 7.2 -4.1 9.9c-2.8 2.7 -6.2 4.1 -10.3 4.1Z"/></clipPath>
<clipPath id="c3_22"><path d="M303.1 355.9c-18.4 0 -33.3 -14.9 -33.3 -33.2v-8.4c0 -18.4 14.9 -33.3 33.3 -33.3H672.2v41.7c0 18.3 -14.9 33.2 -33.3 33.2Z"/></clipPath>
<clipPath id="c4_22"><path d="M374 323.3c1.6 0 2.5 -.6 2.5 -1.8c-.1 -1.2 -.9 -1.7 -2.6 -1.7h-4v3.5Zm113.9 0c1.6 0 2.5 -.6 2.5 -1.8c-.1 -1.2 -.9 -1.7 -2.6 -1.7h-4v3.5Zm-98.5 -.1c1.7 -.1 2.6 -.7 2.6 -2.2c0 -1.4 -.9 -2.1 -2.6 -2.1h-3v4.3Zm31.3 .1V314H416v1.5c0 2.9 -.4 5.5 -1.3 7.8Zm-119.2 .2c1.3 -.1 2.5 -.5 3.4 -1.4c.8 -1 1.3 -2.1 1.3 -3.5c-.1 -1.3 -.5 -2.5 -1.4 -3.4c-1 -1 -2 -1.4 -3.3 -1.4c-.1 0 -.2 0 -.2 0c-1.4 0 -2.4 .5 -3.2 1.4c-1 .8 -1.3 2 -1.3 3.4c-.1 1.4 .4 2.5 1.3 3.4c.8 .9 2 1.5 3.4 1.5Zm53.4 0c1.3 -.1 2.5 -.5 3.4 -1.4c.8 -1 1.3 -2.1 1.3 -3.5c-.1 -1.3 -.5 -2.5 -1.4 -3.4c-1 -1 -2 -1.4 -3.4 -1.4c0 0 -.1 0 -.1 0c-1.4 0 -2.4 .5 -3.2 1.4c-1 .8 -1.3 2 -1.3 3.4c-.1 1.4 .4 2.5 1.3 3.4c.8 .9 2 1.5 3.4 1.5Zm113.9 0c1.3 -.1 2.5 -.5 3.4 -1.4c.8 -1 1.3 -2.1 1.3 -3.5c-.1 -1.3 -.5 -2.5 -1.4 -3.4c-1 -1 -2 -1.4 -3.4 -1.4c0 0 -.1 0 -.1 0c-1.4 0 -2.4 .5 -3.2 1.4c-1 .8 -1.3 2 -1.3 3.4c-.1 1.4 .4 2.5 1.3 3.4c.8 .9 2 1.5 3.4 1.5Zm53 0c1.3 -.1 2.5 -.5 3.4 -1.4c.9 -1 1.3 -2.1 1.3 -3.5c-.1 -1.3 -.4 -2.5 -1.3 -3.4c-1 -1 -2 -1.4 -3.4 -1.4q-.1 0 -.2 0c-1.4 0 -2.3 .5 -3.2 1.4c-.9 .8 -1.3 2 -1.3 3.4c-.1 1.4 .4 2.5 1.3 3.4c.8 .9 2.1 1.5 3.4 1.5ZM373 316.9c1.6 0 2.5 -.5 2.5 -1.7c-.1 -.6 -.2 -.9 -.6 -1.2c-.4 -.3 -.9 -.4 -1.7 -.4h-3.3v3.3Zm113.9 0c1.6 0 2.5 -.5 2.5 -1.7c-.1 -.6 -.2 -.9 -.6 -1.2c-.4 -.3 -.9 -.4 -1.7 -.4h-3.3v3.3Zm-77.2 12.7v-6.3h1.4c.6 -1.4 1 -2.9 1.3 -4.5c.1 -1.6 .3 -3.6 .3 -6.1v-1.8h11.4v12.4h1.8l-.4 6.3h-2.9v-3.2h-9.7v3.2Zm22 -3c-1.2 0 -2.3 -.3 -3.3 -.9l1.3 -2.5c.5 .2 1.2 .5 1.8 .5c.7 0 1.5 -.4 2 -1.3l-6.2 -11.6h3.8l4.2 8.2l3.7 -8.2h3.7l-5.9 12c-.8 1.3 -1.4 2.3 -2.2 2.9c-.8 .6 -1.8 .9 -2.9 .9ZM330 326.3V310.8h3.4v6.1h6.2v-6.1H343v15.5h-3.4v-6.2h-6.2v6.2Zm53 0V310.8h3.4V316h3.3q.1 0 .1 0c1.7 0 3.1 .5 4.1 1.4c.9 .9 1.5 2.1 1.5 3.7c0 1.5 -.6 2.8 -1.6 3.8c-1.1 .8 -2.5 1.4 -4.3 1.4Zm14.2 0V310.8h3.4v15.5Zm47.1 0l5.4 -7.9l-5.2 -7.6h4l3.3 5l3.2 -5h3.9l-5.2 7.5l5.4 8h-4l-3.4 -5.4l-3.5 5.4Zm52.6 0V310.8h3.4v6.1h6.3v-6.1H510v15.5h-3.4v-6.2h-6.3v6.2Zm36.6 0V310.8h3.4v10.1l6.8 -10.1h3.1v15.5h-3.3V316.1l-6.8 10.2Zm22.3 0l6.2 -8.8l-6 -6.7h4.1l6.2 7.2v-7.2h3.4V318l6.2 -7.2H580l-5.9 6.7l6.1 8.8h-4.1l-4.4 -6.4l-2 2.2v4.2h-3.4v-4.2l-2 -2.2l-4.4 6.4Zm27.1 0V310.8h3.4v10.1l6.8 -10.1h3.2v15.5h-3.4V316.1l-6.8 10.2Zm32.5 0V310.8h3.4v6.1h6.3v-6.1h3.4v15.5h-3.4v-6.2h-6.3v6.2Zm17.3 0V310.8h3.4v10.1l6.8 -10.1h3.2v15.5h-3.4V316.1l-6.8 10.2Zm-266.1 0V310.6h7.2c1.7 0 3.1 .5 4 1.4c.6 .7 1.1 1.6 1.1 2.7c-.2 1.5 -.7 2.6 -2 3.4c1 .3 1.7 .8 2.2 1.5c.4 .5 .8 1.4 .8 2.4c-.2 1.4 -.6 2.4 -1.6 3.2c-1.1 .6 -2.5 1.1 -4.3 1.1Zm113.9 0V310.6h7.2c1.7 0 3.1 .5 4 1.4c.6 .7 1.1 1.6 1.1 2.7c-.2 1.5 -.7 2.6 -2 3.4c1 .3 1.7 .8 2.2 1.5c.4 .5 .8 1.4 .8 2.4c-.2 1.4 -.6 2.4 -1.6 3.2c-1.1 .6 -2.5 1.1 -4.3 1.1Zm-179.1 .3c-2.4 0 -4.3 -.8 -5.9 -2.3c-1.5 -1.6 -2.3 -3.5 -2.3 -5.7c0 -2.2 .8 -4.1 2.4 -5.6c1.5 -1.6 3.5 -2.4 5.9 -2.4c2.3 0 4.3 .8 5.9 2.3c1.5 1.5 2.3 3.5 2.3 5.7c0 2.2 -.7 4.1 -2.3 5.7c-1.7 1.5 -3.6 2.3 -6 2.3Zm19 0c-2.3 0 -4.1 -.8 -5.6 -2.3c-1.6 -1.6 -2.3 -3.4 -2.3 -5.7c0 -2.2 .8 -4.1 2.3 -5.7c1.4 -1.6 3.4 -2.3 5.8 -2.3c1.3 0 2.5 .2 3.4 .7c.8 .3 1.8 1 2.6 1.9l-2.1 2.3c-.6 -.7 -1.2 -1 -1.8 -1.3c-.7 -.4 -1.3 -.4 -2.1 -.4c-.1 0 -.2 0 -.2 0c-1.3 0 -2.3 .5 -3.1 1.4c-.9 .8 -1.2 2 -1.2 3.4c-.1 1.4 .4 2.5 1.2 3.4c.8 .9 2 1.5 3.3 1.5c.8 -.1 1.5 -.2 2.1 -.5c.5 -.3 1.3 -.7 1.9 -1.3l2.2 2.3c-.8 .9 -1.7 1.5 -2.7 2c-1.1 .4 -2.2 .6 -3.7 .6Zm34.4 0c-2.4 0 -4.3 -.8 -5.9 -2.3c-1.5 -1.6 -2.3 -3.5 -2.3 -5.7c0 -2.2 .8 -4.1 2.4 -5.6c1.5 -1.6 3.5 -2.4 5.9 -2.4c2.3 0 4.3 .8 5.9 2.3c1.5 1.5 2.3 3.5 2.3 5.7c0 2.2 -.8 4.1 -2.3 5.7c-1.7 1.5 -3.6 2.3 -6 2.3Zm113.9 0c-2.4 0 -4.3 -.8 -5.9 -2.3c-1.5 -1.6 -2.3 -3.5 -2.3 -5.7c0 -2.2 .8 -4.1 2.4 -5.6c1.5 -1.6 3.5 -2.4 5.9 -2.4c2.3 0 4.3 .8 5.9 2.3c1.5 1.5 2.3 3.5 2.3 5.7c0 2.2 -.8 4.1 -2.3 5.7c-1.7 1.5 -3.6 2.3 -6 2.3Zm53.1 0c-2.5 0 -4.4 -.8 -5.9 -2.3c-1.6 -1.6 -2.4 -3.5 -2.4 -5.7c0 -2.2 .8 -4.1 2.4 -5.6c1.6 -1.6 3.6 -2.4 5.9 -2.4c2.3 0 4.4 .8 5.9 2.3c1.5 1.5 2.4 3.5 2.4 5.7c-.1 2.2 -.8 4.1 -2.4 5.7c-1.6 1.5 -3.5 2.3 -5.9 2.3Zm84.2 0c-1.6 0 -2.9 -.2 -4 -.6c-1.1 -.5 -2 -1.1 -2.9 -2l1.9 -2.4c1.2 1.3 2.9 2 4.9 2c.7 0 1.3 -.2 1.8 -.5c.4 -.4 .8 -.8 .8 -1.3c0 -.7 -.3 -1.1 -.9 -1.4c-.6 -.3 -1.3 -.5 -2.2 -.5h-1.8v-2.8h1.8c1.7 0 2.7 -.6 2.7 -1.8c0 -.5 -.2 -.9 -.7 -1.2c-.5 -.4 -1 -.5 -1.8 -.5c-1.7 0 -3 .6 -4.1 1.7l-1.8 -2.1c1.5 -1.8 3.7 -2.6 6.2 -2.6c.1 0 .3 0 .4 0c1.5 0 2.7 .5 3.6 1.2c1 .7 1.6 1.8 1.6 3c0 1.6 -.9 2.8 -2.5 3.5c1.8 .6 2.9 1.8 2.9 3.7c-.1 1.3 -.6 2.4 -1.6 3.3c-1.1 .9 -2.5 1.3 -4.3 1.3ZM540.2 309.5c-1 0 -1.8 -.3 -2.5 -.8c-.7 -.6 -1 -1.5 -1.2 -2.5l2 -.4c.2 1 .9 1.5 1.7 1.5c.8 0 1.5 -.5 1.8 -1.5l1.9 .4c-.2 1 -.5 1.9 -1.2 2.5c-.7 .5 -1.5 .8 -2.5 .8Z"/></clipPath>
<clipPath id="c5_22"><path d="M336.4 477C318 477 303.1 462.1 303.1 443.8v-8.4c0 -18.4 14.9 -33.3 33.3 -33.3H672.2v41.7c0 18.3 -14.9 33.2 -33.3 33.2Z"/></clipPath>
<clipPath id="c6_22"><path d="M438.5 444.4c1.5 0 2.4 -.6 2.4 -1.8c-.1 -1.2 -.8 -1.7 -2.6 -1.7h-4v3.5Zm93.6 -.1c1.7 -.1 2.6 -.8 2.6 -2.2c0 -1.4 -.9 -2.1 -2.6 -2.1h-3v4.3Zm-176.9 .2c1.2 0 2.5 -.4 3.3 -1.4c.9 -.9 1.3 -2 1.3 -3.4c-.1 -1.3 -.4 -2.5 -1.3 -3.4c-1 -1 -2 -1.4 -3.4 -1.4c0 0 -.1 0 -.2 0c-1.3 0 -2.3 .5 -3.1 1.4c-1 .8 -1.4 2 -1.4 3.4c0 1.3 .5 2.5 1.4 3.4c.8 .9 2 1.4 3.4 1.4Zm117.2 0c1.2 0 2.5 -.4 3.3 -1.4c.9 -.9 1.3 -2 1.3 -3.4c-.1 -1.3 -.4 -2.5 -1.3 -3.4c-1 -1 -2 -1.4 -3.4 -1.4c0 0 -.1 0 -.1 0c-1.4 0 -2.4 .5 -3.2 1.4c-1 .8 -1.4 2 -1.4 3.4c0 1.3 .5 2.5 1.4 3.4c.8 .9 2 1.4 3.4 1.4ZM437.5 438c1.5 0 2.4 -.5 2.4 -1.7c-.1 -.6 -.2 -.9 -.6 -1.2c-.4 -.3 -.9 -.4 -1.6 -.4h-3.4V438Zm-107.1 9.5V432h13v15.5H340V435h-6.2v12.5Zm242.6 .2c-.7 0 -1.3 -.1 -1.8 -.2l.2 -2.8c.1 0 .1 -.1 .1 -.1c.2 0 .4 .1 .5 .1c.4 0 .9 -.1 1.2 -.3c.3 -.2 .6 -.7 .9 -1.3c.2 -.7 .5 -1.6 .6 -2.9c0 -1.4 .2 -3 .2 -5V432h11v15.5h-3.4V435H578v1.2c0 3 -.1 5.4 -.5 7.1c-.5 1.6 -.9 2.8 -1.6 3.4c-.7 .7 -1.6 1 -2.9 1Zm-171 -.3V435h-4.7v-3.1h12.9V435h-4.8v12.4Zm145.4 0V431.9h3.4v12.4h5.5V431.9h3.4v12.4h5.5V431.9h3.4v15.5Zm-166.3 0V431.8h3.4V442l6.8 -10.2h3.2v15.6h-3.4V437.2l-6.8 10.2Zm32.4 0V431.8h3.3V442l6.8 -10.2h3.2v15.6h-3.4V437.2l-6.7 10.2Zm33.9 0V431.8h3.5V438h6.2v-6.2h3.4v15.6h-3.4v-6.2h-6.2v6.2Zm58.6 0V431.8h3.7l4.1 6.6l4.1 -6.6h3.7v15.6h-3.4V437.2l-4.4 6.6h-.1l-4.4 -6.5v10.1Zm19.7 0V431.8h3.4v5.3h3.3c0 0 .1 0 .1 0c1.7 0 3.1 .5 4 1.4c1 .8 1.5 2.1 1.5 3.6c0 1.6 -.5 2.9 -1.5 3.8c-1.1 .9 -2.5 1.5 -4.3 1.5Zm14.2 0V431.8h3.4v15.6Zm65.6 0V431.8h3.4V438h6.2v-6.2h3.4v15.6h-3.4v-6.2h-6.2v6.2Zm17.3 0V431.8h3.3V442l6.8 -10.2h3.2v15.6h-3.4V437.2L626 447.4Zm-191.8 0V431.7h7.2c1.7 0 3.1 .5 4 1.4c.7 .7 1.1 1.6 1.1 2.7c-.1 1.4 -.6 2.6 -1.9 3.4c.9 .3 1.7 .8 2.2 1.4c.4 .5 .7 1.4 .7 2.5c-.1 1.3 -.5 2.4 -1.6 3.2c-1 .6 -2.4 1.1 -4.3 1.1Zm-75.9 .3c-2.4 0 -4.3 -.8 -5.9 -2.3c-1.5 -1.6 -2.3 -3.5 -2.3 -5.7c0 -2.2 .8 -4.1 2.3 -5.7c1.6 -1.5 3.6 -2.3 6 -2.3c2.2 0 4.3 .8 5.9 2.3c1.5 1.5 2.3 3.5 2.3 5.7c-.1 2.2 -.8 4.1 -2.4 5.7c-1.6 1.5 -3.5 2.3 -5.9 2.3Zm117.2 0c-2.4 0 -4.3 -.8 -5.9 -2.3c-1.5 -1.6 -2.3 -3.5 -2.3 -5.7c0 -2.2 .8 -4.1 2.3 -5.7c1.6 -1.5 3.6 -2.3 6 -2.3c2.2 0 4.3 .8 5.9 2.3c1.5 1.5 2.3 3.5 2.3 5.7c-.1 2.2 -.8 4.1 -2.4 5.7c-1.6 1.5 -3.5 2.3 -5.9 2.3Zm11.7 -.3V431.7h11.7v3.1h-8.3V438h7.3v3.1h-7.3v3.2h8.4v3.1Zm106.2 0V431.7h11.6v3.1h-8.2V438h7.2v3.1h-7.2v3.2H602v3.1Zm50.1 0V431.7h11.6v3.1h-8.2V438h7.2v3.1h-7.2v3.2h8.4v3.1Zm-268.6 .3c-1.7 0 -2.9 -.2 -4 -.7c-1.1 -.4 -2 -1 -2.9 -1.9l1.8 -2.4c1.3 1.3 3 2 4.9 2c.8 0 1.4 -.2 1.9 -.5c.4 -.4 .7 -.8 .7 -1.4c0 -.6 -.2 -1 -.8 -1.3c-.6 -.4 -1.3 -.5 -2.2 -.5h-1.8v-2.8h1.8c1.7 -.1 2.7 -.6 2.7 -1.8c0 -.5 -.2 -.9 -.7 -1.2c-.5 -.4 -1 -.5 -1.8 -.5c-1.7 0 -3 .6 -4.1 1.7l-1.8 -2.2c1.5 -1.7 3.7 -2.5 6.2 -2.5c.1 0 .3 0 .4 0c1.5 0 2.7 .5 3.6 1.2c1 .7 1.6 1.7 1.6 2.9c0 1.6 -.9 2.9 -2.5 3.6c1.8 .6 2.9 1.8 2.9 3.6c-.1 1.4 -.6 2.5 -1.6 3.4c-1.2 .8 -2.5 1.3 -4.3 1.3Z"/></clipPath>
<clipPath id="c7_22"><path d="M366.3 598.1C347.9 598.1 333 583.2 333 564.8v-8.3c0 -18.4 14.9 -33.3 33.3 -33.3H672.2v41.6c0 18.4 -14.9 33.3 -33.3 33.3Z"/></clipPath>
<clipPath id="c8_22"><path d="M644.8 565.4c1.7 -.1 2.6 -.8 2.6 -2.2c0 -1.4 -.9 -2.1 -2.6 -2.1h-3v4.3Zm-261.3 .2c1.3 0 2.5 -.4 3.4 -1.4c.9 -.9 1.3 -2 1.3 -3.4c-.1 -1.4 -.4 -2.5 -1.3 -3.4c-1 -1.1 -2.1 -1.4 -3.4 -1.4q-.1 0 -.2 0c-1.4 0 -2.4 .5 -3.2 1.4c-.9 .8 -1.3 2 -1.3 3.4c-.1 1.3 .4 2.5 1.3 3.4c.8 .9 2.1 1.4 3.4 1.4Zm53.3 0c1.2 0 2.4 -.4 3.3 -1.4c.9 -.9 1.3 -2 1.3 -3.4c-.1 -1.4 -.4 -2.5 -1.3 -3.4c-1 -1.1 -2 -1.4 -3.4 -1.4c0 0 -.1 0 -.2 0c-1.3 0 -2.3 .5 -3.1 1.4c-1 .8 -1.4 2 -1.4 3.4c0 1.3 .5 2.5 1.4 3.4c.8 .9 2 1.4 3.4 1.4Zm108.9 .1c1.2 -.1 2.2 -.5 2.9 -1.4c.8 -1 1.2 -2.1 1.2 -3.6c-.1 -1.5 -.4 -2.5 -1.2 -3.5c-.9 -1 -1.7 -1.4 -2.9 -1.4c-1.2 0 -2.2 .5 -2.9 1.4c-.8 .9 -1.1 2.1 -1.1 3.5c0 1.3 .3 2.6 1.1 3.5c.7 1 1.7 1.5 2.9 1.5Zm-186.9 2.9V553.1h12.9v15.5h-3.4V556.1h-6.1v12.5Zm35.9 .2c-.8 0 -1.3 -.1 -1.8 -.2l.2 -2.8c0 -.1 .1 -.1 .1 -.1c.1 0 .3 .1 .4 .1c.5 0 .9 -.1 1.3 -.3c.3 -.2 .6 -.7 .8 -1.3c.2 -.7 .5 -1.6 .6 -2.9c.1 -1.4 .2 -3 .2 -5v-3.2h11.1v15.5h-3.4V556.1h-4.5v1.2c-.1 3 -.2 5.4 -.5 7.1c-.5 1.6 -.9 2.8 -1.6 3.4c-.7 .6 -1.7 1 -2.9 1Zm65.3 3v-3.3H448.4V553h3.4v12.5H458V553h3.4v12.5h1.8l-.4 6.3Zm58.8 -3c-1.2 0 -2.3 -.3 -3.4 -.9l1.4 -2.5c.5 .2 1.1 .5 1.8 .5c.7 -.1 1.4 -.4 1.9 -1.3L514.3 553h3.9l4.2 8.2l3.7 -8.2h3.7l-5.9 12c-.8 1.3 -1.5 2.3 -2.3 2.9c-.8 .5 -1.7 .9 -2.8 .9Zm119.6 -.4V553h3.4v5.2h3.3c0 0 .1 0 .1 0c1.7 0 3.1 .5 4.1 1.4c.9 .8 1.5 2.1 1.5 3.6c-.1 1.6 -.6 2.9 -1.6 3.8c-1.1 .9 -2.5 1.4 -4.3 1.4Zm-226.6 0V552.9h3.5v6.2h6.2v-6.2h3.4v15.5h-3.4v-6.1h-6.2v6.1Zm69.6 0V552.9h3.4v6.2H491v-6.2h3.4v15.5H491v-6.1h-6.2v6.1Zm17.2 0V552.9h3.5v6.2h6.2v-6.2h3.4v15.5h-3.4v-6.1h-6.2v6.1Zm62.9 0l6.2 -8.8l-6 -6.7h4.1l6.2 7.3v-7.3h3.4v7.3l6.2 -7.3h4.1l-5.9 6.7l6.1 8.8h-4.1l-4.4 -6.3l-2 2.2v4.1H572v-4.1l-2 -2.2l-4.4 6.3Zm27.1 0V552.9H592v10.2l6.8 -10.2H602v15.5h-3.4V558.3l-6.8 10.1Zm32.5 0V552.9h3.4v6.2h6.2v-6.2h3.5v15.5h-3.5v-6.1h-6.2v6.1Zm-237.6 .4c-2.5 0 -4.4 -.8 -5.9 -2.3c-1.6 -1.6 -2.4 -3.5 -2.4 -5.7c0 -2.2 .8 -4.1 2.4 -5.7c1.6 -1.5 3.6 -2.3 5.9 -2.3c2.3 0 4.4 .8 5.9 2.3c1.5 1.5 2.4 3.5 2.4 5.7c-.1 2.2 -.8 4.1 -2.4 5.7c-1.6 1.5 -3.6 2.3 -5.9 2.3Zm53.2 0c-2.4 0 -4.3 -.8 -5.9 -2.3c-1.6 -1.6 -2.3 -3.5 -2.3 -5.7c0 -2.2 .8 -4.1 2.3 -5.7c1.6 -1.5 3.6 -2.3 6 -2.3c2.2 0 4.3 .8 5.9 2.3c1.5 1.5 2.3 3.5 2.3 5.7c-.1 2.2 -.8 4.1 -2.4 5.7c-1.6 1.5 -3.5 2.3 -5.9 2.3Zm29.4 -.4V552.8h11.6v3h-8.3v3.3h7.3v3.1h-7.3v3.2h8.5v3Zm145.6 .4c-1.7 0 -2.9 -.2 -4 -.7c-1.1 -.4 -2 -1 -2.9 -1.9l1.8 -2.4c1.3 1.3 3 2 4.9 2c.8 0 1.4 -.2 1.9 -.5c.4 -.4 .7 -.8 .7 -1.4c0 -.6 -.2 -1 -.8 -1.3c-.6 -.4 -1.3 -.5 -2.2 -.5h-1.8v-2.8h1.8c1.7 -.1 2.7 -.6 2.7 -1.8c0 -.5 -.2 -.9 -.7 -1.2c-.5 -.4 -1 -.5 -1.8 -.5c-1.7 0 -3 .6 -4.1 1.7l-1.8 -2.2c1.5 -1.7 3.7 -2.5 6.2 -2.5c.1 0 .3 0 .4 0c1.4 0 2.7 .4 3.6 1.2c1 .7 1.6 1.7 1.6 2.9c0 1.6 -.9 2.9 -2.5 3.6c1.8 .6 2.9 1.8 2.9 3.6c-.1 1.4 -.6 2.5 -1.6 3.4c-1.2 .8 -2.5 1.3 -4.3 1.3Zm-66 0c-2 0 -3.6 -.6 -5 -1.9c-1.4 -1.2 -2.2 -2.8 -2.5 -4.7h-2.1v6.2h-3.4V552.9h3.4v6.2h2.1c.3 -1.8 1.2 -3.4 2.6 -4.6c1.3 -1.2 3 -1.8 4.9 -1.8c.1 0 .2 0 .3 0c2 0 3.8 .8 5.1 2.3c1.4 1.5 2.2 3.4 2.2 5.7c-.1 2.2 -.7 4.2 -2.2 5.8c-1.5 1.5 -3.2 2.3 -5.4 2.3Z"/></clipPath>
<clipPath id="c9_22"><path d="M402.9 719.2c-18.4 0 -33.3 -14.9 -33.3 -33.3v-8.4c0 -18.3 14.9 -33.2 33.3 -33.2H672.2v41.6c0 18.4 -14.9 33.3 -33.3 33.3Z"/></clipPath>
<clipPath id="ca_22"><path d="M443.1 697.6l-2 -5l-2.1 5Zm124.2 0l-2.1 -5l-2 5Zm-87.7 3.5c1.3 0 2.5 -.4 3.4 -1.4c.9 -.9 1.3 -2 1.3 -3.4c-.1 -1.4 -.4 -2.5 -1.3 -3.4c-1 -1.1 -2.1 -1.4 -3.4 -1.4q-.1 -.1 -.2 -.1c-1.4 0 -2.4 .6 -3.2 1.4c-.9 .9 -1.3 2.1 -1.3 3.5c-.1 1.3 .4 2.5 1.3 3.4c.8 .9 2.1 1.4 3.4 1.4Zm35.7 0c1.2 0 2.5 -.4 3.3 -1.4c.9 -.9 1.4 -2 1.4 -3.4c-.2 -1.4 -.5 -2.5 -1.4 -3.4c-1 -1.1 -2 -1.4 -3.4 -1.4c0 -.1 -.1 -.1 -.2 -.1c-1.3 0 -2.3 .6 -3.1 1.4c-1 .9 -1.4 2.1 -1.4 3.5c0 1.3 .5 2.5 1.4 3.4c.8 .9 2 1.4 3.4 1.4Zm104.9 -5.2v-4.5h-3.4q-.1 0 -.2 0c-.8 0 -1.3 .2 -1.8 .6c-.5 .4 -.7 .9 -.7 1.7c0 .7 .2 1.2 .7 1.6c.4 .4 1.1 .6 1.9 .6Zm-187.3 8.2l6.6 -15.6h3.2l6.6 15.6h-3.5l-1.5 -3.5h-6.5l-1.4 3.5Zm124.1 0l6.7 -15.6h3.1l6.7 15.6h-3.6l-1.4 -3.5h-6.6l-1.4 3.5Zm-104.7 -.2V688.4H456l4.1 6.6l4.2 -6.6h3.6v15.5h-3.4V693.8l-4.4 6.6H460l-4.3 -6.5v10Zm88.9 0V688.4h3.4v6.2h6.3v-6.2h3.4v15.5h-3.4v-6.1h-6.3v6.1Zm35.3 0V688.4h3.4v6.2h6.2v-6.2h3.4v15.5h-3.4v-6.1h-6.2v6.1Zm17.3 0V688.4h3.3v10.2l6.8 -10.2h3.2v15.5h-3.4V693.8L597 703.9Zm-168.3 .4c-2.4 0 -4.2 -.8 -5.7 -2.3c-1.6 -1.6 -2.3 -3.5 -2.3 -5.7c0 -2.2 .8 -4.1 2.3 -5.7c1.4 -1.6 3.5 -2.3 5.8 -2.3c1.3 0 2.5 .2 3.4 .7c.9 .3 1.8 1 2.6 1.8l-2 2.4c-.7 -.7 -1.3 -1.1 -1.9 -1.3c-.6 -.4 -1.3 -.4 -2.1 -.4q-.1 -.1 -.2 -.1c-1.2 0 -2.2 .6 -3 1.4c-.9 .9 -1.3 2.1 -1.3 3.5c-.1 1.3 .4 2.5 1.3 3.4c.8 .9 1.9 1.4 3.2 1.4c.8 0 1.5 -.1 2.1 -.4c.6 -.3 1.3 -.8 2 -1.4l2.1 2.3c-.8 .9 -1.7 1.6 -2.7 2c-1.1 .5 -2.2 .7 -3.6 .7Zm54.1 0c-2.5 0 -4.4 -.8 -5.9 -2.3c-1.6 -1.6 -2.4 -3.5 -2.4 -5.7c0 -2.2 .8 -4.1 2.4 -5.7c1.6 -1.5 3.6 -2.3 5.9 -2.3c2.3 0 4.4 .8 5.9 2.3c1.5 1.5 2.4 3.5 2.4 5.7c-.1 2.2 -.8 4.1 -2.4 5.7c-1.6 1.5 -3.6 2.3 -5.9 2.3Zm19 0c-2.4 0 -4.2 -.8 -5.7 -2.3c-1.6 -1.6 -2.3 -3.5 -2.3 -5.7c0 -2.2 .8 -4.1 2.3 -5.7c1.4 -1.6 3.5 -2.3 5.8 -2.3c1.3 0 2.5 .2 3.4 .7c.9 .3 1.8 1 2.6 1.8l-2 2.4c-.7 -.7 -1.3 -1.1 -1.9 -1.3c-.6 -.4 -1.3 -.4 -2.1 -.4q-.1 -.1 -.2 -.1c-1.2 0 -2.2 .6 -3 1.4c-1 .9 -1.3 2.1 -1.3 3.5c-.1 1.3 .4 2.5 1.3 3.4c.8 .9 1.9 1.4 3.2 1.4c.8 0 1.5 -.1 2.1 -.4c.6 -.3 1.3 -.8 2 -1.4l2.1 2.3c-.8 .9 -1.7 1.6 -2.7 2c-1.1 .5 -2.2 .7 -3.6 .7Zm16.6 0c-2.4 0 -4.3 -.8 -5.9 -2.3c-1.5 -1.6 -2.3 -3.5 -2.3 -5.7c0 -2.2 .8 -4.1 2.3 -5.7c1.6 -1.5 3.6 -2.3 6 -2.3c2.2 0 4.3 .8 5.9 2.3c1.5 1.5 2.3 3.5 2.3 5.7c-.1 2.2 -.8 4.1 -2.3 5.7c-1.7 1.5 -3.6 2.3 -6 2.3Zm95 -.4l3.8 -5.5c-2.4 -.9 -3.4 -2.5 -3.4 -4.9c0 -1.7 .6 -2.9 1.6 -3.8c1 -.9 2.5 -1.4 4.3 -1.4h7.1v15.6h-3.4V699h-2.7l-3.3 4.9Zm-78.4 .4c-1.6 0 -2.9 -.2 -4 -.7c-1.1 -.4 -2 -1 -2.9 -1.9l1.9 -2.4c1.2 1.3 2.9 2 4.9 2c.7 0 1.3 -.2 1.8 -.5c.4 -.4 .8 -.8 .8 -1.4c0 -.6 -.3 -1 -.9 -1.3c-.6 -.4 -1.3 -.5 -2.2 -.5h-1.8v-2.8h1.8c1.7 -.1 2.7 -.6 2.7 -1.8c0 -.5 -.2 -.9 -.7 -1.2c-.5 -.4 -1 -.5 -1.8 -.5c-1.7 0 -3 .6 -4.1 1.7l-1.8 -2.2c1.5 -1.7 3.7 -2.5 6.2 -2.5c.1 0 .3 0 .4 0c1.5 0 2.7 .4 3.6 1.2c1 .7 1.6 1.7 1.6 2.9c0 1.6 -.8 2.9 -2.5 3.6c1.8 .6 2.9 1.8 2.9 3.6c-.1 1.4 -.6 2.5 -1.6 3.4c-1.1 .8 -2.5 1.3 -4.3 1.3Zm21.8 -31.1c1.6 0 2.5 -.6 2.5 -1.7c-.1 -1.3 -.9 -1.8 -2.6 -1.8h-4v3.5Zm-31.1 -3.3l-2.1 -5.1l-2.1 5.1Zm-16.4 -1.4c.8 -.1 1.5 -.2 2 -.7c.4 -.5 .7 -1 .7 -1.7c0 -.9 -.2 -1.4 -.7 -1.8c-.5 -.4 -1.2 -.6 -2.1 -.6h-2.6v4.8Zm46.5 -1.6c1.6 0 2.5 -.6 2.5 -1.7c-.1 -.6 -.2 -.9 -.6 -1.2c-.4 -.3 -1 -.4 -1.7 -.4h-3.3v3.3Zm30.9 9.3V663.9h-4.7v-3.1h12.8v3.1h-4.7v12.3Zm-71.3 .2l6.7 -15.6H522l6.6 15.6h-3.5l-1.4 -3.5h-6.6l-1.4 3.5Zm50.4 -.2V660.7H566v10.2l6.8 -10.2h3.1v15.5h-3.3V666l-6.8 10.2Zm32.3 0V660.7h3.4v10.2l6.8 -10.2h3.2v15.5h-3.4V666l-6.7 10.2Zm-48.8 0V660.6h7.2c1.8 0 3.2 .5 4.1 1.4c.6 .7 1 1.6 1 2.7c-.1 1.4 -.6 2.6 -1.9 3.3c1 .4 1.7 .9 2.2 1.5c.4 .5 .7 1.4 .7 2.4c-.1 1.4 -.5 2.5 -1.5 3.2c-1.1 .7 -2.5 1.1 -4.3 1.1Zm-46.1 0V660.6h6.3c1.9 0 3.3 .5 4.4 1.5c1 .9 1.6 2.3 1.6 3.9c-.1 1.8 -.6 3.2 -1.8 4.1c-1.2 .9 -2.7 1.5 -4.5 1.5h-2.6v4.6Zm112.5 0V660.6h11.6v3h-8.2v3.3h7.2v3h-7.2v3.3h8.4v3Zm-75.8 .4c-1.6 0 -2.9 -.3 -3.9 -.7c-1.2 -.4 -2.1 -1.1 -2.9 -1.9l1.8 -2.4c1.3 1.3 2.9 2 4.9 2c.7 0 1.4 -.2 1.8 -.5c.4 -.4 .8 -.8 .8 -1.4c0 -.7 -.3 -1.1 -.8 -1.4c-.6 -.3 -1.3 -.4 -2.3 -.4h-1.7v-2.8h1.7c1.8 -.1 2.7 -.6 2.7 -1.8c0 -.6 -.2 -1 -.6 -1.3c-.6 -.3 -1.1 -.4 -1.8 -.4c-1.8 0 -3.1 .5 -4.2 1.7l-1.8 -2.2c1.5 -1.8 3.7 -2.5 6.2 -2.5c.2 0 .3 0 .5 0c1.4 0 2.6 .4 3.6 1.1c.9 .8 1.5 1.8 1.5 3c0 1.6 -.8 2.8 -2.5 3.6c1.9 .6 2.9 1.8 2.9 3.6c0 1.4 -.5 2.5 -1.6 3.3c-1.1 .9 -2.5 1.4 -4.3 1.4Z"/></clipPath>
<clipPath id="cb_22"><path d="M829.7 355.9c-18.4 0 -33.3 -14.9 -33.3 -33.2V281h369.1c18.4 0 33.3 14.9 33.3 33.3v8.4c0 18.3 -14.9 33.2 -33.3 33.2Z"/></clipPath>
<clipPath id="cc_22"><path d="M929.3 337c1.6 0 2.5 -.6 2.5 -1.7c-.1 -1.3 -.9 -1.8 -2.6 -1.8h-4V337Zm-67.2 0v-9.3h-4.7v1.6c0 2.8 -.4 5.5 -1.3 7.7Zm48.1 .2c1.3 -.1 2.5 -.5 3.4 -1.4c.8 -1 1.3 -2.1 1.3 -3.4c-.1 -1.4 -.5 -2.5 -1.3 -3.5c-1 -1 -2.1 -1.4 -3.4 -1.4c-.1 0 -.2 0 -.2 0c-1.4 0 -2.4 .5 -3.2 1.4c-1 .9 -1.3 2.1 -1.3 3.5c-.1 1.3 .4 2.5 1.3 3.4c.8 .9 2 1.4 3.4 1.4Zm53 0c1.3 -.1 2.5 -.5 3.4 -1.4c.9 -1 1.3 -2.1 1.3 -3.4c-.1 -1.4 -.4 -2.5 -1.3 -3.5c-1 -1 -2 -1.4 -3.4 -1.4q-.1 0 -.2 0c-1.3 0 -2.3 .5 -3.2 1.4c-.9 .9 -1.3 2.1 -1.3 3.5c-.1 1.3 .5 2.5 1.4 3.4c.8 .9 2 1.4 3.3 1.4Zm32.4 0c1.2 -.1 2.5 -.5 3.3 -1.4c.9 -1 1.4 -2.1 1.4 -3.4c-.2 -1.4 -.5 -2.5 -1.4 -3.5c-1 -1 -2 -1.4 -3.4 -1.4c0 0 -.1 0 -.2 0c-1.3 0 -2.3 .5 -3.1 1.4c-1 .9 -1.4 2.1 -1.4 3.5c0 1.3 .5 2.5 1.4 3.4c.8 .9 2 1.4 3.4 1.4Zm-67.3 -6.5c1.6 0 2.5 -.6 2.5 -1.7c-.1 -.6 -.2 -.9 -.6 -1.2c-.4 -.3 -.9 -.4 -1.6 -.4h-3.4v3.3Zm-77.2 12.6V337h1.4c.6 -1.4 1 -2.9 1.3 -4.4c.1 -1.7 .4 -3.6 .4 -6.2v-1.8h11.3V337h1.9l-.5 6.3h-2.8v-3.2h-9.8v3.2Zm123.8 -3.1V324.6h10.8v3.1h-7.4v12.5Zm-101.8 .1c-1.2 0 -2.2 -.3 -3.3 -.9l1.3 -2.5c.5 .3 1.2 .5 1.9 .5c.6 0 1.4 -.4 1.9 -1.2l-6.2 -11.7h3.8l4.2 8.2l3.8 -8.2h3.7l-6 12.1c-.7 1.2 -1.4 2.3 -2.2 2.9c-.8 .5 -1.8 .8 -2.9 .8ZM828.6 340V324.5H832v10.2l6.8 -10.2h3.1V340h-3.3V329.8L831.8 340Zm57.1 0l5.4 -7.9l-5.2 -7.6h4l3.3 5l3.3 -5h3.8l-5.2 7.6l5.5 7.9h-4l-3.5 -5.3l-3.5 5.3Zm52.6 0V324.5h3.4v6.2H948v-6.2h3.4V340H948v-6.2h-6.3V340Zm-16.4 0V324.4h7.2c1.7 0 3.1 .4 4 1.4c.6 .7 1.1 1.6 1.1 2.7c-.1 1.4 -.7 2.6 -2 3.3c1 .4 1.7 .9 2.2 1.5c.4 .5 .8 1.4 .8 2.4c-.1 1.4 -.5 2.5 -1.6 3.2c-1.1 .7 -2.5 1.1 -4.3 1.1Zm-11.7 .3c-2.5 0 -4.4 -.7 -5.9 -2.3c-1.6 -1.5 -2.4 -3.4 -2.4 -5.6c0 -2.3 .8 -4.1 2.4 -5.7c1.6 -1.5 3.5 -2.3 5.9 -2.3c2.3 0 4.3 .7 5.9 2.3c1.5 1.4 2.4 3.4 2.4 5.7c-.1 2.2 -.8 4.1 -2.4 5.6c-1.7 1.6 -3.6 2.3 -5.9 2.3Zm53 0c-2.5 0 -4.3 -.7 -5.9 -2.3c-1.6 -1.5 -2.3 -3.4 -2.3 -5.6c0 -2.3 .7 -4.1 2.3 -5.7c1.6 -1.5 3.6 -2.3 5.9 -2.3c2.3 0 4.4 .7 5.9 2.3c1.5 1.4 2.4 3.4 2.4 5.7c-.1 2.2 -.8 4.1 -2.4 5.6c-1.6 1.6 -3.5 2.3 -5.9 2.3Zm32.3 0c-2.4 0 -4.3 -.7 -5.9 -2.3c-1.5 -1.5 -2.3 -3.4 -2.3 -5.6c0 -2.3 .8 -4.1 2.4 -5.7c1.5 -1.5 3.5 -2.3 5.9 -2.3c2.2 0 4.3 .7 5.9 2.3c1.5 1.4 2.3 3.4 2.3 5.7c-.1 2.2 -.8 4.1 -2.3 5.6c-1.7 1.6 -3.6 2.3 -6 2.3ZM835.8 309.2c1.5 -.1 2.4 -.6 2.4 -1.9c-.1 -1.3 -.8 -1.8 -2.4 -1.8H832v3.7Zm242.8 0c1.7 -.1 2.6 -.7 2.6 -2.2c0 -1.4 -.9 -2 -2.6 -2h-3v4.2ZM853.2 305.9l-2.1 -5l-2.1 5Zm35.2 0l-2 -5l-2.1 5Zm78.4 0l-2 -5l-2.1 5Zm78.9 0l-2.1 -5l-2 5Zm66.9 3.6c1.2 -.1 2.5 -.5 3.3 -1.4c.9 -1 1.4 -2.1 1.4 -3.5c-.1 -1.3 -.5 -2.5 -1.4 -3.4c-1 -1 -2 -1.4 -3.4 -1.4c0 0 -.1 0 -.1 0c-1.4 0 -2.4 .5 -3.2 1.4c-1 .9 -1.3 2.1 -1.3 3.4c-.1 1.4 .4 2.5 1.3 3.5c.8 .9 2 1.4 3.4 1.4Zm32.3 0c1.3 -.1 2.5 -.5 3.4 -1.4c.8 -1 1.3 -2.1 1.3 -3.5c-.1 -1.3 -.5 -2.5 -1.3 -3.4c-1 -1 -2.1 -1.4 -3.4 -1.4c-.1 0 -.2 0 -.2 0c-1.4 0 -2.4 .5 -3.2 1.4c-1 .9 -1.3 2.1 -1.3 3.4c-.1 1.4 .4 2.5 1.3 3.5c.8 .9 2 1.4 3.4 1.4Zm-134.6 -4.9c.8 -.1 1.5 -.2 2 -.7c.4 -.5 .7 -1 .7 -1.8c-.1 -.8 -.3 -1.3 -.7 -1.7c-.6 -.5 -1.2 -.7 -2.1 -.7h-2.6v4.9Zm-147.8 8c-.8 0 -1.3 0 -1.8 -.2l.2 -2.8q.1 0 .1 0c.2 0 .3 .1 .5 .1c.4 -.1 .9 -.2 1.2 -.4c.3 -.2 .6 -.6 .9 -1.3c.2 -.6 .4 -1.6 .6 -2.9c0 -1.3 .1 -2.9 .1 -5v-3.2h11.1v15.5H872V300h-4.5v1.2c0 2.9 -.2 5.3 -.5 7c-.5 1.6 -.9 2.8 -1.6 3.5c-.7 .6 -1.7 .9 -2.9 .9Zm192.5 0c-.7 0 -1.3 0 -1.8 -.2l.3 -2.8h.1c.1 0 .3 .1 .4 .1c.5 -.1 .9 -.2 1.2 -.4c.3 -.2 .6 -.6 .9 -1.3c.2 -.6 .5 -1.6 .6 -2.9c.1 -1.3 .2 -2.9 .2 -5v-3.2h11v15.5h-3.4V300h-4.4v1.2c-.1 2.9 -.2 5.3 -.6 7c-.4 1.6 -.9 2.8 -1.6 3.5c-.7 .6 -1.6 .9 -2.9 .9Zm69.2 -.1V296.9h10.9V300h-7.4v12.5Zm-146.8 -.2V300h-4.7v-3.2h12.8V300h-4.7v12.3Zm-134.5 .2l6.7 -15.7h3.1l6.7 15.7h-3.6L854.4 309h-6.6l-1.4 3.5Zm35.3 0l6.6 -15.7H888l6.6 15.7h-3.5L889.6 309h-6.5l-1.4 3.5Zm78.4 0l6.6 -15.7h3.2l6.6 15.7h-3.5L968.1 309h-6.6l-1.4 3.5Zm78.9 0l6.6 -15.7h3.2l6.6 15.7h-3.6l-1.4 -3.5h-6.5l-1.5 3.5Zm36.7 -.2V296.8h3.4V302h3.3q.1 0 .1 0c1.7 0 3.1 .5 4.1 1.4c.9 .9 1.5 2.1 1.5 3.7c0 1.5 -.6 2.8 -1.6 3.8c-1.1 .8 -2.5 1.4 -4.3 1.4Zm-174.6 0V296.8H901V303h6.3v-6.2h3.4v15.5h-3.4v-6.2H901v6.2Zm40.8 0V296.8h3.7l4.1 6.5l4.1 -6.5H954v15.5h-3.4V302.2l-4.4 6.6h-.1l-4.4 -6.6v10.1Zm81 0V296.8h3.4V307l6.8 -10.2h3.1v15.5h-3.3V302.1l-6.8 10.2Zm68.3 0V296.8h3.4V303h6.2v-6.2h3.4v15.5h-3.4v-6.2h-6.2v6.2Zm-259.1 0V296.7h11.9v3H832v2.9h4.1c1.7 0 3.1 .5 4 1.3c.9 .8 1.5 2 1.5 3.5c-.1 1.5 -.5 2.8 -1.6 3.6c-1 .8 -2.4 1.3 -4.2 1.3Zm93.6 .3c-2.4 0 -4.2 -.7 -5.7 -2.3c-1.6 -1.5 -2.3 -3.4 -2.3 -5.7c0 -2.2 .8 -4.1 2.3 -5.6c1.5 -1.7 3.5 -2.3 5.8 -2.3c1.3 0 2.5 .2 3.4 .6c.9 .3 1.8 1.1 2.6 1.9l-2 2.3c-.7 -.7 -1.3 -1 -1.9 -1.3c-.6 -.3 -1.3 -.4 -2.1 -.4c0 0 -.1 0 -.1 0c-1.3 0 -2.3 .5 -3.1 1.4c-.9 .9 -1.3 2.1 -1.3 3.4c-.1 1.4 .4 2.5 1.3 3.5c.8 .9 1.9 1.4 3.2 1.4c.8 -.1 1.6 -.2 2.2 -.5c.5 -.3 1.2 -.7 1.9 -1.3l2.2 2.3c-.9 .9 -1.8 1.6 -2.8 2c-1 .4 -2.2 .6 -3.6 .6Zm66.6 -.3V296.7h11.7v3h-8.3V303h7.3v3h-7.3v3.3h8.4v3Zm15.3 0V296.7h6.4c1.8 0 3.3 .5 4.3 1.5c1.1 .9 1.6 2.3 1.6 3.9c-.1 1.7 -.6 3.1 -1.7 4.1c-1.3 .9 -2.7 1.4 -4.6 1.4h-2.5v4.7Zm108.4 .3c-2.4 0 -4.3 -.7 -5.9 -2.3c-1.5 -1.5 -2.3 -3.4 -2.3 -5.7c0 -2.2 .8 -4.1 2.4 -5.6c1.5 -1.6 3.5 -2.3 5.9 -2.3c2.2 0 4.3 .7 5.9 2.3c1.5 1.4 2.3 3.4 2.3 5.6c0 2.3 -.8 4.1 -2.3 5.7c-1.7 1.5 -3.6 2.3 -6 2.3Zm32.4 0c-2.5 0 -4.4 -.7 -5.9 -2.3c-1.6 -1.5 -2.4 -3.4 -2.4 -5.7c0 -2.2 .8 -4.1 2.4 -5.6c1.6 -1.6 3.5 -2.3 5.9 -2.3c2.3 0 4.3 .7 5.9 2.3c1.5 1.4 2.4 3.4 2.4 5.6c-.1 2.3 -.8 4.1 -2.4 5.7c-1.7 1.5 -3.6 2.3 -5.9 2.3Z"/></clipPath>
<clipPath id="cd_22"><path d="M829.7 477c-18.4 0 -33.3 -14.9 -33.3 -33.2V402.1h335.9c18.3 0 33.2 14.9 33.2 33.3v8.4c0 18.3 -14.9 33.2 -33.2 33.2Z"/></clipPath>
<clipPath id="ce_22"><path d="M907.4 460.7c1.7 -.1 2.5 -.7 2.5 -2.2c0 -1.4 -.8 -2.1 -2.5 -2.1h-3v4.3Zm-6.4 3.1V448.3h3.4v5.2h3.4c1.7 0 3 .5 4 1.4c1 .9 1.5 2.1 1.5 3.6c0 1.6 -.5 2.9 -1.5 3.9c-1.1 .8 -2.5 1.4 -4.4 1.4Zm-76.9 0l6.1 -8.8l-5.9 -6.8h4.1l6.2 7.3v-7.3H838v7.3l6.2 -7.3h4l-5.9 6.8l6.2 8.8h-4.1L840 457.4l-2 2.2v4.2h-3.4v-4.2l-2.1 -2.2l-4.3 6.4Zm27.1 0V448.2h3.4v10.2l6.8 -10.2h3.1v15.6h-3.3V453.6l-6.8 10.2Zm32.5 0V448.2h3.4v6.2h6.2v-6.2h3.4v15.6h-3.4v-6.2h-6.2v6.2Zm-9.4 .3c-1.7 0 -2.9 -.2 -4 -.6c-1.1 -.5 -2 -1.1 -2.9 -2l1.8 -2.4c1.3 1.3 3 2 4.9 2c.7 0 1.4 -.2 1.9 -.5c.4 -.4 .7 -.8 .7 -1.3c0 -.7 -.3 -1.1 -.8 -1.4c-.6 -.3 -1.3 -.5 -2.2 -.5h-1.8v-2.8h1.7c1.8 -.1 2.8 -.6 2.8 -1.8c0 -.5 -.3 -.9 -.7 -1.2c-.6 -.4 -1.1 -.5 -1.8 -.5c-1.7 0 -3.1 .6 -4.2 1.7l-1.8 -2.1c1.6 -1.8 3.7 -2.6 6.3 -2.6c.1 0 .3 0 .4 0c1.4 0 2.6 .5 3.6 1.2c1 .7 1.5 1.7 1.5 2.9c0 1.6 -.8 2.9 -2.5 3.6c1.9 .6 2.9 1.8 2.9 3.6c0 1.4 -.5 2.5 -1.6 3.4c-1.1 .8 -2.5 1.3 -4.2 1.3ZM1096.7 433c1.6 0 2.5 -.5 2.5 -1.7c-.1 -1.2 -.9 -1.7 -2.6 -1.7h-4V433Zm-164.2 0c1.6 -.1 2.5 -.8 2.5 -2.2c0 -1.4 -.8 -2.1 -2.6 -2.1h-3V433Zm-84.1 -3.3l-2 -5l-2.1 5Zm166.1 0l-2.1 -5l-2 5ZM866.9 433v-9.3h-4.6v1.6c0 2.8 -.5 5.5 -1.4 7.7Zm15.8 .2c1.3 0 2.5 -.4 3.4 -1.4c.9 -.9 1.3 -2 1.3 -3.4c-.1 -1.4 -.4 -2.5 -1.3 -3.4c-1 -1.1 -2 -1.5 -3.4 -1.5q-.1 0 -.2 0c-1.3 0 -2.3 .6 -3.2 1.4c-.9 .9 -1.3 2.1 -1.3 3.5c-.1 1.3 .5 2.5 1.4 3.4c.8 .9 2 1.4 3.3 1.4Zm-50.6 -4.9c.8 0 1.5 -.2 2 -.6c.4 -.6 .7 -1.1 .7 -1.8c-.1 -.8 -.3 -1.4 -.8 -1.8c-.5 -.4 -1.1 -.6 -2 -.6h-2.6v4.8Zm263.6 -1.6c1.6 0 2.5 -.5 2.5 -1.7c-.1 -.6 -.2 -.9 -.6 -1.2c-.4 -.3 -.9 -.4 -1.7 -.4h-3.3v3.3Zm39.4 6.6c1.1 -.1 2.1 -.5 2.9 -1.4c.7 -1 1.1 -2.2 1.1 -3.6c-.1 -1.5 -.4 -2.5 -1.2 -3.5c-.8 -1 -1.7 -1.4 -2.9 -1.4c-1.2 0 -2.1 .5 -2.9 1.4c-.8 .9 -1.1 2.1 -1.1 3.5c0 1.3 .4 2.6 1.1 3.5c.7 1 1.7 1.5 3 1.5Zm-279.2 6.1V433h1.4c.6 -1.4 1 -2.8 1.3 -4.4c.1 -1.6 .4 -3.6 .4 -6.1v-1.8h11.3V433h1.9l-.5 6.4h-2.8v-3.3h-9.8v3.3Zm198.7 -3c-.8 0 -1.3 -.1 -1.8 -.2l.2 -2.8q0 -.1 .1 -.1c.1 0 .3 .1 .4 .1c.5 0 .9 -.1 1.2 -.3c.4 -.2 .7 -.7 .9 -1.3c.2 -.7 .5 -1.6 .6 -2.9c.1 -1.4 .2 -3 .2 -5v-3.2h11.1v15.5H1064V423.7h-4.4v1.2c-.1 3 -.2 5.4 -.6 7.1c-.4 1.6 -.8 2.8 -1.5 3.4c-.8 .6 -1.7 1 -2.9 1ZM914.5 436V423.7h-4.6v-3.1h12.8v3.1H918V436Zm128.4 0V423.7h-4.6v-3.1h12.8v3.1h-4.8V436Zm-204.7 .2l6.6 -15.6H848l6.6 15.6H851l-1.4 -3.5h-6.5l-1.4 3.5ZM926 436V420.6h3.4v5.2h3.3q.1 0 .1 0c1.7 0 3.1 .5 4.1 1.4c.9 .8 1.5 2.1 1.5 3.6c0 1.6 -.5 2.9 -1.6 3.8c-1.1 .9 -2.5 1.4 -4.3 1.4Zm78.2 .2l6.7 -15.6h3.1l6.7 15.6h-3.6l-1.4 -3.5h-6.6l-1.4 3.5Zm103.9 .2c-1.2 0 -2.3 -.3 -3.3 -.9l1.3 -2.5c.5 .2 1.2 .5 1.8 .5c.7 -.1 1.4 -.4 2 -1.3l-6.2 -11.6h3.8l4.2 8.2l3.7 -8.2h3.7l-5.9 12c-.8 1.3 -1.4 2.3 -2.2 2.9c-.9 .5 -1.8 .9 -2.9 .9Zm-160 -.4V420.5h3.4v10.2l6.8 -10.2h3.2V436h-3.4V425.9L951.3 436Zm50 0v-5.8c-1.6 .7 -2.9 1.2 -4.1 1.2c-1.7 0 -2.9 -.5 -3.8 -1.3c-1 -.9 -1.4 -2.2 -1.4 -3.9v-5.7h3.4v4.7c0 1.9 .8 3 2.5 3c1.3 -.1 2.6 -.3 3.4 -1v-6.7h3.4V436Zm73.6 0V420.5h3.4v10.2l6.8 -10.2h3.2V436h-3.4V425.9l-6.8 10.1Zm17.6 0V420.4h7.2c1.7 0 3.1 .5 4 1.4c.6 .7 1.1 1.6 1.1 2.7c-.1 1.4 -.7 2.6 -2 3.4c1 .3 1.7 .8 2.2 1.4c.4 .5 .8 1.4 .8 2.5c-.1 1.3 -.6 2.4 -1.6 3.1c-1.1 .7 -2.5 1.1 -4.3 1.1Zm-263.4 0V420.4h6.4c1.8 0 3.3 .5 4.3 1.5c1.1 .9 1.6 2.3 1.6 4c-.1 1.7 -.6 3.1 -1.7 4c-1.3 .9 -2.7 1.5 -4.6 1.5h-2.5V436Zm56.8 .4c-2.5 0 -4.3 -.8 -5.9 -2.3c-1.6 -1.6 -2.4 -3.5 -2.4 -5.7c0 -2.2 .8 -4.1 2.4 -5.7c1.6 -1.5 3.6 -2.3 5.9 -2.3c2.3 0 4.4 .8 5.9 2.3c1.5 1.5 2.4 3.5 2.4 5.7c-.1 2.2 -.8 4.1 -2.4 5.6c-1.6 1.6 -3.5 2.4 -5.9 2.4Zm19 0c-2.4 0 -4.2 -.8 -5.7 -2.3c-1.6 -1.6 -2.3 -3.5 -2.3 -5.7c0 -2.2 .8 -4.1 2.3 -5.7c1.4 -1.6 3.5 -2.3 5.8 -2.3c1.3 0 2.5 .2 3.4 .7c.9 .3 1.8 1 2.6 1.8l-2 2.4c-.7 -.7 -1.3 -1.1 -1.9 -1.3c-.6 -.4 -1.3 -.5 -2.1 -.5c0 0 -.1 0 -.2 0c-1.2 0 -2.2 .6 -3 1.4c-.9 .9 -1.3 2.1 -1.3 3.5c-.1 1.3 .4 2.5 1.3 3.4c.8 .9 1.9 1.4 3.2 1.4c.8 0 1.5 -.1 2.1 -.4c.6 -.3 1.3 -.8 2 -1.4l2.1 2.3c-.8 .9 -1.7 1.6 -2.7 2c-1.1 .4 -2.2 .7 -3.6 .7Zm77.9 0c-2.4 0 -4.2 -.8 -5.7 -2.3c-1.6 -1.6 -2.2 -3.5 -2.2 -5.7c0 -2.2 .7 -4.1 2.2 -5.7c1.5 -1.6 3.5 -2.3 5.8 -2.3c1.4 0 2.5 .2 3.4 .7c.9 .3 1.8 1 2.6 1.8l-2 2.4c-.7 -.7 -1.3 -1.1 -1.9 -1.3c-.6 -.4 -1.3 -.5 -2.1 -.5c0 0 -.1 0 -.1 0c-1.3 0 -2.3 .6 -3.1 1.4c-.9 .9 -1.3 2.1 -1.3 3.5c-.1 1.3 .4 2.5 1.3 3.4c.8 .9 1.9 1.4 3.2 1.4c.8 0 1.6 -.1 2.2 -.4c.5 -.3 1.2 -.8 1.9 -1.4l2.2 2.3c-.9 .9 -1.8 1.6 -2.8 2c-1 .4 -2.2 .7 -3.6 .7Zm50.5 0c-2.4 0 -4.2 -.8 -5.7 -2.3c-1.6 -1.6 -2.3 -3.5 -2.3 -5.7c0 -2.2 .8 -4.1 2.3 -5.7c1.4 -1.6 3.5 -2.3 5.8 -2.3c1.3 0 2.5 .2 3.4 .7c.9 .3 1.8 1 2.6 1.8l-2 2.4c-.7 -.7 -1.3 -1.1 -1.9 -1.3c-.7 -.4 -1.3 -.5 -2.1 -.5q-.1 0 -.2 0c-1.2 0 -2.2 .6 -3 1.4c-1 .9 -1.3 2.1 -1.3 3.5c-.1 1.3 .4 2.5 1.3 3.4c.7 .9 1.9 1.4 3.2 1.4c.8 0 1.5 -.1 2.1 -.4c.6 -.3 1.3 -.8 2 -1.4l2.1 2.3c-.8 .9 -1.7 1.6 -2.7 2c-1.1 .4 -2.2 .7 -3.6 .7Zm104.9 0c-2 0 -3.6 -.6 -5 -1.9c-1.3 -1.2 -2.2 -2.8 -2.5 -4.7h-2.1V436H1122V420.5h3.4v6.2h2.2c.2 -1.8 1.1 -3.4 2.5 -4.6c1.3 -1.2 3 -1.8 4.9 -1.8c.1 0 .2 0 .3 0c2 0 3.8 .8 5.2 2.3c1.3 1.5 2.1 3.4 2.1 5.7c-.1 2.2 -.7 4.2 -2.1 5.7c-1.5 1.6 -3.3 2.4 -5.5 2.4Z"/></clipPath>
<clipPath id="cf_22"><path d="M829.7 598.1c-18.4 0 -33.3 -14.9 -33.3 -33.3V523.2h305.9c18.4 0 33.3 14.9 33.3 33.3v8.3c0 18.4 -14.9 33.3 -33.3 33.3Z"/></clipPath>
<clipPath id="cg_22"><path d="M882.1 581.9c1.6 0 2.5 -.6 2.5 -1.8c-.1 -1.2 -.9 -1.7 -2.6 -1.7h-4v3.5Zm35.5 -.1c1.5 -.1 2.4 -.7 2.4 -2c-.1 -1.3 -.8 -1.8 -2.4 -1.8h-3.8v3.8Zm37.4 .1v-9.4h-4.6v1.6c0 2.8 -.5 5.5 -1.4 7.8Zm-56.3 .1c1.3 0 2.5 -.4 3.4 -1.4c.9 -.9 1.3 -2 1.3 -3.4c-.1 -1.3 -.4 -2.5 -1.3 -3.4c-1 -1 -2 -1.4 -3.4 -1.4q-.1 0 -.2 0c-1.4 0 -2.3 .5 -3.2 1.4c-.9 .8 -1.3 2 -1.3 3.4c-.1 1.3 .5 2.5 1.3 3.4c.9 .9 2.1 1.4 3.4 1.4Zm35.6 0c1.2 0 2.4 -.4 3.3 -1.4c.9 -.9 1.3 -2 1.3 -3.4c-.1 -1.3 -.4 -2.5 -1.3 -3.4c-1 -1 -2 -1.4 -3.4 -1.4q-.1 0 -.2 0c-1.3 0 -2.3 .5 -3.2 1.4c-.9 .8 -1.3 2 -1.3 3.4c-.1 1.3 .5 2.5 1.4 3.4c.8 .9 2 1.4 3.4 1.4Zm-53.2 -6.5c1.6 0 2.5 -.5 2.5 -1.7c-.1 -.6 -.2 -.9 -.6 -1.2c-.4 -.3 -.9 -.4 -1.7 -.4H878v3.3ZM944 588.2v-6.3h1.4c.6 -1.4 1 -2.9 1.3 -4.5c.1 -1.6 .4 -3.6 .4 -6.1v-1.8h11.3v12.4h1.9l-.5 6.3H957v-3.3h-9.8v3.3Zm22 -3c-1.2 0 -2.2 -.3 -3.3 -.9l1.3 -2.5c.5 .2 1.2 .5 1.9 .5c.6 0 1.4 -.4 1.9 -1.3l-6.2 -11.6h3.8l4.2 8.2l3.8 -8.2h3.7l-6 12c-.7 1.3 -1.4 2.3 -2.2 2.9c-.8 .6 -1.7 .9 -2.9 .9Zm-132.3 -.3V569.3H837v10.2l6.8 -10.2H847v15.6h-3.4V574.7l-6.7 10.2Zm41 0V569.2h7.2c1.7 0 3.1 .5 4 1.4c.6 .7 1.1 1.6 1.1 2.7c-.1 1.4 -.7 2.6 -2 3.4c1 .3 1.7 .8 2.2 1.4c.4 .6 .8 1.4 .8 2.5c-.2 1.3 -.6 2.4 -1.6 3.2c-1.1 .6 -2.5 1.1 -4.3 1.1Zm-9.6 .3c-2.3 0 -4.1 -.8 -5.6 -2.3c-1.6 -1.6 -2.3 -3.4 -2.3 -5.7c0 -2.2 .7 -4.1 2.3 -5.7c1.4 -1.6 3.4 -2.3 5.8 -2.3c1.3 0 2.4 .2 3.4 .7c.8 .3 1.7 1 2.6 1.8l-2.1 2.4c-.7 -.7 -1.3 -1.1 -1.8 -1.3c-.7 -.4 -1.3 -.4 -2.1 -.4c-.1 0 -.2 0 -.2 0c-1.3 0 -2.3 .5 -3.1 1.4c-.9 .8 -1.2 2 -1.2 3.4c-.1 1.3 .4 2.5 1.2 3.4c.8 .9 2 1.4 3.3 1.4c.7 0 1.5 -.1 2.1 -.4c.5 -.3 1.2 -.7 1.9 -1.4l2.2 2.3c-.8 .9 -1.8 1.6 -2.7 2c-1.1 .5 -2.2 .7 -3.7 .7Zm33.6 0c-2.5 0 -4.3 -.8 -5.9 -2.3c-1.6 -1.6 -2.4 -3.5 -2.4 -5.7c0 -2.2 .8 -4.1 2.4 -5.7c1.6 -1.5 3.6 -2.3 5.9 -2.3c2.3 0 4.4 .8 5.9 2.3c1.5 1.5 2.4 3.5 2.4 5.7c-.1 2.2 -.8 4.1 -2.4 5.7c-1.6 1.5 -3.5 2.3 -5.9 2.3Zm11.7 -.3V569.2h11.9v3.1h-8.5v2.9h4.1c1.7 0 3.1 .4 4 1.3c.9 .8 1.5 2 1.5 3.5c-.1 1.5 -.5 2.7 -1.6 3.6c-1 .8 -2.4 1.3 -4.2 1.3Zm23.8 .3c-2.4 0 -4.3 -.8 -5.9 -2.3c-1.6 -1.6 -2.3 -3.5 -2.3 -5.7c0 -2.2 .8 -4.1 2.3 -5.7c1.6 -1.5 3.6 -2.3 6 -2.3c2.2 0 4.3 .8 5.9 2.3c1.4 1.5 2.3 3.5 2.3 5.7c-.1 2.2 -.8 4.1 -2.4 5.7c-1.6 1.5 -3.5 2.3 -5.9 2.3Zm155.6 -31.1c1.6 -.1 2.5 -.8 2.5 -2.2c0 -1.4 -.9 -2.1 -2.6 -2.1h-3v4.3ZM933.4 550.8l-2.1 -5l-2.1 5Zm-75 3.5c1.3 0 2.5 -.4 3.4 -1.4c.8 -.9 1.3 -2.1 1.3 -3.4c-.1 -1.4 -.5 -2.5 -1.4 -3.4c-1 -1.1 -2 -1.5 -3.3 -1.5c-.1 0 -.2 0 -.2 0c-1.4 0 -2.4 .5 -3.2 1.4c-1 .9 -1.3 2.1 -1.3 3.5c-.1 1.3 .4 2.5 1.3 3.4c.8 .9 2 1.4 3.4 1.4Zm-24.7 3V541.7h12.9v15.6h-3.4V544.8h-6.1v12.5Zm203.3 -.2V544.8h-4.7v-3.1h12.9v3.1h-4.8v12.3Zm-113.9 .2l6.7 -15.6h3.1l6.7 15.6H936l-1.4 -3.5H928l-1.4 3.5Zm-53 -.2V541.6h3.4v6.2h6.2v-6.2h3.4v15.5h-3.4V551h-6.2v6.1Zm17.3 0V541.6h3.3v10.2l6.8 -10.2h3.2v15.5h-3.4V547l-6.7 10.1Zm17.5 0V541.6h3.7l4.1 6.6l4.2 -6.6h3.6v15.5h-3.4V547l-4.4 6.6h-.1l-4.4 -6.5v10Zm37.7 0V541.6H946v6.2h6.2v-6.2h3.4v15.5h-3.4V551H946v6.1Zm17.2 0V541.6h3.4v10.2L970 541.6h3.2v15.5h-3.4V547l-6.7 10.1Zm39.5 0V541.6h3.4v10.2l6.8 -10.2h3.2v15.5h-3.4V547l-6.8 10.1Zm49.2 0V541.6h3.4v10.2l6.8 -10.2h3.1v15.5h-3.3V547l-6.8 10.1Zm17.5 0V541.6h3.4v6.2h6.3v-6.2h3.4v15.5h-3.4V551h-6.3v6.1Zm17.3 0V541.6h3.4v5.3h3.3q.1 0 .2 0c1.6 0 3 .5 4 1.4c.9 .8 1.5 2.1 1.5 3.6c0 1.6 -.5 2.9 -1.6 3.8c-1.1 .9 -2.5 1.4 -4.3 1.4Zm14.2 0V541.6h3.5v15.5Zm-239.1 .4c-2.5 0 -4.4 -.8 -5.9 -2.3c-1.6 -1.6 -2.4 -3.5 -2.4 -5.7c0 -2.2 .8 -4.1 2.4 -5.7c1.5 -1.5 3.5 -2.3 5.9 -2.3c2.3 0 4.3 .8 5.9 2.3c1.5 1.5 2.4 3.4 2.4 5.7c-.1 2.2 -.8 4.1 -2.4 5.6c-1.7 1.6 -3.6 2.4 -5.9 2.4Zm119 -.4V541.5H989v3h-8.2v3.3H988v3.1h-7.2v3.2h8.4v3Zm46.8 .4c-2.4 0 -4.2 -.8 -5.7 -2.3c-1.6 -1.6 -2.3 -3.5 -2.3 -5.7c0 -2.3 .8 -4.1 2.3 -5.7c1.4 -1.6 3.4 -2.3 5.8 -2.3c1.3 0 2.5 .2 3.4 .7c.8 .3 1.8 1 2.6 1.8l-2 2.4c-.7 -.7 -1.3 -1.1 -1.9 -1.3c-.7 -.4 -1.3 -.5 -2.1 -.5q-.1 0 -.2 0c-1.2 0 -2.2 .5 -3.1 1.4c-.9 .9 -1.2 2.1 -1.2 3.5c-.1 1.3 .4 2.5 1.2 3.4c.8 .9 2 1.4 3.3 1.4c.8 0 1.5 -.1 2.1 -.4c.5 -.3 1.3 -.8 1.9 -1.4l2.2 2.3c-.8 .9 -1.7 1.6 -2.7 2c-1.1 .4 -2.2 .7 -3.6 .7Z"/></clipPath>
<clipPath id="ch_22"><path d="M829.7 719.2c-18.4 0 -33.3 -14.9 -33.3 -33.3V644.3h269.3c18.4 0 33.3 14.9 33.3 33.2v8.4c0 18.4 -14.9 33.3 -33.3 33.3Z"/></clipPath>
<clipPath id="ci_22"><path d="M890.7 701.3V692h-4.6v1.5c0 2.9 -.5 5.5 -1.4 7.8Zm-19.8 .2c1.2 -.1 2.2 -.5 2.9 -1.4c.8 -1 1.2 -2.1 1.2 -3.5c-.1 -1.5 -.4 -2.6 -1.2 -3.5c-.9 -1 -1.7 -1.5 -2.9 -1.5c-1.2 0 -2.2 .5 -2.9 1.4c-.8 .9 -1.1 2.1 -1.1 3.6c0 1.3 .3 2.5 1.1 3.5c.7 .9 1.7 1.4 2.9 1.4Zm-30.2 3.1c-.7 0 -1.3 -.1 -1.8 -.2l.2 -2.8q.1 0 .1 0c.2 0 .3 0 .5 0c.4 0 .9 -.1 1.2 -.3c.3 -.2 .6 -.6 .9 -1.3c.2 -.6 .4 -1.6 .6 -2.9c0 -1.3 .1 -3 .1 -5v-3.2h11.1v15.5h-3.4V692h-4.5v1.1c0 3 -.2 5.4 -.5 7.1c-.5 1.6 -.9 2.8 -1.6 3.5c-.7 .6 -1.7 .9 -2.9 .9Zm39.1 3v-6.3h1.4c.5 -1.4 1 -2.9 1.2 -4.5c.2 -1.6 .4 -3.6 .4 -6.1v-1.8h11.4v12.4H896l-.4 6.3h-2.9v-3.2H883v3.2Zm34.4 -3.3V688.8h3.4v10.1l6.8 -10.1h3.2v15.5h-3.4V694.1l-6.7 10.2Zm-15.3 0V688.6h11.7v3.1h-8.3V695h7.3v3h-7.3v3.2h8.5v3.1Zm-28 .3c-2 0 -3.6 -.6 -5 -1.8c-1.4 -1.3 -2.2 -2.8 -2.5 -4.8h-2.1v6.3h-3.4V688.8h3.4V695h2.1c.3 -1.9 1.2 -3.5 2.6 -4.7c1.3 -1.2 3 -1.8 4.9 -1.8c.1 0 .2 0 .3 0c2 0 3.8 .8 5.1 2.3c1.4 1.5 2.2 3.5 2.2 5.8c-.1 2.1 -.7 4.1 -2.2 5.7c-1.5 1.5 -3.2 2.3 -5.4 2.3Zm50.1 -17c-1.1 -.1 -1.9 -.3 -2.5 -.9c-.8 -.6 -1.1 -1.4 -1.2 -2.5l1.9 -.4c.2 1 .9 1.5 1.8 1.5c.8 0 1.4 -.5 1.7 -1.5l2 .4c-.2 1 -.6 1.9 -1.2 2.5c-.8 .6 -1.5 .9 -2.5 .9ZM867 673.5c1.5 -.1 2.4 -.7 2.4 -1.9c-.1 -1.4 -.8 -1.9 -2.4 -1.9h-3.8v3.8Zm17.8 0c1.7 -.1 2.6 -.7 2.6 -2.2c-.1 -1.4 -.9 -2.1 -2.6 -2.1h-3v4.3Zm33.8 .1v-9.3H914v1.5c0 2.9 -.5 5.5 -1.4 7.8Zm-70.4 .1c1.2 0 2.5 -.4 3.3 -1.3c.9 -1 1.3 -2.1 1.3 -3.5c-.1 -1.3 -.4 -2.5 -1.3 -3.4c-1 -1 -2 -1.4 -3.4 -1.4c0 0 -.1 0 -.2 0c-1.3 0 -2.3 .5 -3.1 1.4c-1 .8 -1.4 2 -1.4 3.4c0 1.4 .5 2.5 1.4 3.4c.8 .9 2 1.4 3.4 1.4Zm59.5 6.2v-6.3h1.4c.5 -1.4 1 -2.9 1.2 -4.5c.2 -1.6 .4 -3.6 .4 -6.1v-1.8H922v12.4h1.9l-.4 6.3h-2.9v-3.3h-9.7v3.3Zm19.1 -3.3V661h3.4v10.2L937 661h3.2v15.6h-3.4V666.4l-6.7 10.2Zm17.6 0V661h3.4v6.2H954V661h3.4v15.6H954v-6.2h-6.2v6.2Zm32.6 0V661h3.4v6.2h6.2V661H990v15.6h-3.4v-6.2h-6.2v6.2Zm17.3 0V661h3.3v10.2l6.8 -10.2h3.2v15.6h-3.4V666.4l-6.7 10.2Zm-146.2 .3c-2.4 0 -4.3 -.8 -5.9 -2.3c-1.5 -1.6 -2.3 -3.5 -2.3 -5.7c0 -2.2 .8 -4.1 2.3 -5.6c1.6 -1.6 3.6 -2.4 6 -2.4c2.2 0 4.3 .8 5.9 2.3c1.5 1.5 2.3 3.5 2.3 5.7c-.1 2.2 -.8 4.1 -2.4 5.7c-1.6 1.5 -3.5 2.3 -5.9 2.3Zm11.7 -.3V660.9h11.9V664h-8.5v2.9h4.2c1.6 0 3 .4 4 1.3c.9 .8 1.4 2 1.4 3.5c-.1 1.5 -.5 2.7 -1.5 3.6c-1.1 .8 -2.5 1.3 -4.3 1.3Zm18.6 0V664h-3.7v-3.1h7.1v5.4h3.3c0 0 .1 0 .1 0c1.7 0 3.1 .5 4.1 1.4c.9 .9 1.5 2.1 1.5 3.6c-.1 1.6 -.6 2.9 -1.6 3.9c-1.1 .8 -2.5 1.4 -4.3 1.4Zm15.6 0V660.9h11.7V664h-8.3v3.2h7.3v3.1h-7.3v3.2h8.4v3.1Zm67.7 0V660.9h11.6V664h-8.2v3.2h7.2v3.1h-7.2v3.2h8.4v3.1Zm50.1 0V660.9h11.6V664h-8.2v3.2h7.2v3.1h-7.2v3.2h8.4v3.1Z"/></clipPath>
</defs>
<image clip-path="url(#c0_22)" preserveAspectRatio="none" x="150" y="0" width="1167" height="825" xlink:href="img/1.jpg"/>
<image clip-path="url(#c1_22)" preserveAspectRatio="none" x="150" y="0" width="1167" height="825" xlink:href="img/2.jpg"/>
<image clip-path="url(#c2_22)" preserveAspectRatio="none" x="150" y="0" width="1167" height="825" xlink:href="img/3.jpg"/>
<image clip-path="url(#c3_22)" preserveAspectRatio="none" x="150" y="0" width="1167" height="825" xlink:href="img/4.jpg"/>
<image clip-path="url(#c4_22)" preserveAspectRatio="none" x="150" y="0" width="1167" height="825" xlink:href="img/5.jpg"/>
<image clip-path="url(#c5_22)" preserveAspectRatio="none" x="150" y="0" width="1167" height="825" xlink:href="img/6.jpg"/>
<image clip-path="url(#c6_22)" preserveAspectRatio="none" x="150" y="0" width="1167" height="825" xlink:href="img/7.jpg"/>
<image clip-path="url(#c7_22)" preserveAspectRatio="none" x="150" y="0" width="1167" height="825" xlink:href="img/8.jpg"/>
<image clip-path="url(#c8_22)" preserveAspectRatio="none" x="150" y="0" width="1167" height="825" xlink:href="img/9.jpg"/>
<image clip-path="url(#c9_22)" preserveAspectRatio="none" x="150" y="0" width="1167" height="825" xlink:href="img/10.jpg"/>
<image clip-path="url(#ca_22)" preserveAspectRatio="none" x="150" y="0" width="1167" height="825" xlink:href="img/11.jpg"/>
<image clip-path="url(#cb_22)" preserveAspectRatio="none" x="150" y="0" width="1167" height="825" xlink:href="img/12.jpg"/>
<image clip-path="url(#cc_22)" preserveAspectRatio="none" x="150" y="0" width="1167" height="825" xlink:href="img/13.jpg"/>
<image clip-path="url(#cd_22)" preserveAspectRatio="none" x="150" y="0" width="1167" height="825" xlink:href="img/14.jpg"/>
<image clip-path="url(#ce_22)" preserveAspectRatio="none" x="150" y="0" width="1167" height="825" xlink:href="img/15.jpg"/>
<image clip-path="url(#cf_22)" preserveAspectRatio="none" x="150" y="0" width="1167" height="825" xlink:href="img/16.jpg"/>
<image clip-path="url(#cg_22)" preserveAspectRatio="none" x="150" y="0" width="1167" height="825" xlink:href="img/17.jpg"/>
<image clip-path="url(#ch_22)" preserveAspectRatio="none" x="150" y="0" width="1167" height="825" xlink:href="img/18.jpg"/>
<image clip-path="url(#ci_22)" preserveAspectRatio="none" x="150" y="0" width="1167" height="825" xlink:href="img/19.jpg"/>
</svg>