<?xml version="1.0" encoding="UTF-8" standalone="no"?>
<!DOCTYPE svg PUBLIC "-//W3C//DTD SVG 1.1//EN"
"http://www.w3.org/Graphics/SVG/1.1/DTD/svg11.dtd">
<svg viewBox="0 0 1466 825" version="1.1" xmlns="http://www.w3.org/2000/svg" xmlns:xlink="http://www.w3.org/1999/xlink">
<defs>
<clipPath id="c0_32"><path d="M149.9 825V0h1167V825Z"/></clipPath>
<clipPath id="c1_32"><path d="M149.9 741.8V83.2h1167V741.8Z"/></clipPath>
<clipPath id="c2_32"><path d="M1043.6 204.7v-6.3h6.3v6.3ZM506.1 195.5v-5.7h12v5.7Zm303 7.6l-6.5 -8.7v-.3l6.5 -8.7l4.5 2.2l-5 6.6l5 6.7l-4.5 2.2Zm10.6 0l-6.6 -8.7v-.3l6.6 -8.7l4.5 2.2l-5.1 6.6l5.1 6.7l-4.5 2.2Zm202.7 0l-4.5 -2.2l5 -6.6l-5 -6.6l4.5 -2.3l6.5 8.7v.3l-6.5 8.7Zm10.5 0l-4.5 -2.2l5 -6.6l-5 -6.6l4.5 -2.3l6.5 8.7v.3l-6.5 8.7ZM777.2 193.4l-3.6 -8.8l-3.7 8.8Zm195.9 0l-3.6 -8.8l-3.6 8.8Zm70.5 -3.3v-6.2h6.3v6.2Zm-99.2 1.3c1.4 0 2.7 -.4 3.5 -1.2c.8 -.8 1.3 -1.8 1.3 -3c-.1 -1.4 -.4 -2.4 -1.3 -3.1c-1 -.7 -2.1 -1.1 -3.6 -1.1h-4.7v8.4Zm61 7.9V182.8h-8v2.7c0 5.1 -.8 9.8 -2.4 13.8Zm-518.1 .2c2.3 -.1 4.3 -.8 5.8 -2.5c1.6 -1.6 2.3 -3.7 2.3 -6.1c-.1 -2.4 -.7 -4.4 -2.3 -6c-1.7 -1.8 -3.5 -2.5 -5.9 -2.5c-2.4 0 -4.3 .8 -5.9 2.4c-1.6 1.6 -2.2 3.7 -2.2 6.1c-.1 2.3 .7 4.4 2.3 6.1c1.5 1.5 3.5 2.5 5.9 2.5Zm76.8 0c2.3 -.1 4.3 -.8 5.8 -2.5c1.5 -1.6 2.3 -3.7 2.3 -6.1c-.1 -2.4 -.8 -4.4 -2.3 -6c-1.7 -1.8 -3.5 -2.5 -5.9 -2.5c-2.4 0 -4.4 .8 -5.9 2.4c-1.6 1.6 -2.3 3.7 -2.3 6.1c-.1 2.3 .8 4.4 2.4 6.1c1.4 1.5 3.5 2.5 5.9 2.5Zm278.8 0c2.3 -.1 4.3 -.8 5.8 -2.5c1.6 -1.6 2.3 -3.7 2.3 -6.1c-.1 -2.4 -.7 -4.4 -2.3 -6c-1.6 -1.8 -3.5 -2.5 -5.9 -2.5c-2.4 0 -4.3 .8 -5.8 2.4c-1.6 1.6 -2.3 3.7 -2.3 6.1c-.1 2.3 .7 4.4 2.3 6.1c1.5 1.5 3.5 2.5 5.9 2.5Zm-223.7 5.3V177.7h22.6v27.1h-6V183H625.1v21.8Zm290.4 0V177.7h19V183h-13v21.8Zm24 0V177.7h11.2c.1 0 .3 -.1 .4 -.1c3 0 5.4 1 7.2 2.7c1.8 1.6 2.8 4 2.8 6.8c-.1 3 -1 5.4 -3.1 7.1c-2.1 1.6 -4.7 2.5 -7.9 2.5h-4.6v8.1ZM447 204.7V177.5h5.9v11.9L464 177.5h7.2L460.1 189l11.6 15.7h-7.2l-8.4 -11.6l-3.2 3.3v8.3Zm76.7 0V177.5h6v11.9l11 -11.9h7.2l-11 11.5l11.6 15.7h-7.2l-8.4 -11.6l-3.2 3.3v8.3Zm61 0V177.5h6.4l7.2 11.5l7.2 -11.5h6.4v27.2H606V186.9l-7.7 11.6h-.2l-7.6 -11.4v17.6Zm121.5 0V177.5h6v11.9l11 -11.9h7.2l-11 11.5l11.5 15.7h-7.2l-8.4 -11.6l-3.1 3.3v8.3Zm157.3 0V177.5H870l7.1 11.5l7.2 -11.5h6.4v27.2h-5.9V186.9l-7.7 11.6H877l-7.6 -11.4v17.6Zm-184.1 0V177.4h20.5v5.3H685.4v5.7h12.8v5.3H685.4v5.6H700v5.4Zm-29.8 .3c-1.3 0 -2.3 -.1 -3.2 -.4l.4 -4.9c.4 0 .7 .1 .9 .1c.8 -.1 1.6 -.2 2.2 -.6c.5 -.4 1.1 -1.1 1.5 -2.2c.4 -1.3 .9 -2.9 1.1 -5.2c.2 -2.3 .3 -5.2 .3 -8.8v-5.6h19.3v27.2h-6V182.8h-7.7v2c-.1 5.3 -.4 9.5 -1 12.4c-.7 2.9 -1.5 5 -2.8 6.1c-1.2 1 -2.9 1.7 -5 1.7Zm109.6 -.2l11.7 -27.4h5.5L788 204.8h-6.2l-2.5 -6.1H767.8l-2.5 6.1Zm196 0l11.7 -27.4h5.5L984 204.8h-6.3l-2.4 -6.1H963.8l-2.5 6.1Zm31 5.5v-11h2.6c1 -2.6 1.8 -5.1 2.2 -7.9c.4 -2.8 .7 -6.3 .7 -10.8v-3.2h19.6v21.9h3.3l-.8 11h-5v-5.6H991.9l-.3 5.6ZM427 205c-2.6 0 -4.7 -.4 -6.5 -1.1c-1.8 -.9 -3.4 -1.9 -4.8 -3.5l3.7 -4c1.1 1.1 2.3 1.9 3.5 2.4c1.1 .5 2.4 .8 3.9 .8c1.9 -.1 3.6 -.5 5 -1.7c1.3 -1.3 2.3 -2.7 2.7 -4.6H423.4v-4.9h11.1c-.5 -1.8 -1.4 -3.3 -2.8 -4.4c-1.5 -1.1 -3.1 -1.6 -4.9 -1.6c-2.6 0 -4.9 .9 -7.1 2.8l-3.3 -4.1c2.9 -2.7 6.4 -4.1 10.4 -4.1c.1 0 .2 0 .4 0c3.9 0 7.2 1.5 9.7 4.1c2.6 2.7 4 6 4 9.9c0 3.8 -1.3 7.3 -3.9 10c-2.8 2.5 -6 4 -10 4Zm60.2 0c-4.2 0 -7.6 -1.4 -10.3 -4.1c-2.8 -2.8 -4.1 -6 -4.1 -10c0 -4 1.4 -7.2 4.1 -9.9c2.8 -2.9 6.2 -4.1 10.4 -4.1q.1 0 .2 0c4 0 7.4 1.4 10.1 4.1c2.7 2.6 4.1 6 4.1 9.9c-.1 3.9 -1.4 7.3 -4.2 10c-2.7 2.6 -6.2 4.1 -10.3 4.1Zm76.8 0c-4.2 0 -7.6 -1.4 -10.3 -4.1c-2.8 -2.8 -4.1 -6 -4.1 -10c0 -4 1.4 -7.2 4.1 -9.9c2.7 -2.9 6.2 -4.1 10.4 -4.1c0 0 .1 0 .2 0c4 0 7.4 1.4 10.1 4.1c2.6 2.6 4.1 6 4.1 9.9c-.1 3.9 -1.4 7.3 -4.2 10c-2.8 2.6 -6.2 4.1 -10.3 4.1Zm278.8 0c-4.1 0 -7.6 -1.4 -10.3 -4.1c-2.7 -2.8 -4.1 -6 -4.1 -10c0 -4 1.4 -7.2 4.2 -9.9c2.7 -2.9 6.2 -4.1 10.3 -4.1q.1 0 .2 0c4 0 7.4 1.4 10.1 4.1c2.7 2.6 4.1 6 4.1 9.9c-.1 3.9 -1.4 7.3 -4.1 10c-2.8 2.6 -6.3 4.1 -10.4 4.1ZM746 205c-4.1 0 -7.3 -1.4 -10 -4.1c-2.7 -2.8 -3.9 -6 -3.9 -10c0 -4 1.3 -7.2 3.9 -9.9c2.7 -2.9 6.1 -4.1 10.2 -4.1c.1 0 .3 0 .4 0c2.1 0 4 .4 5.5 1.1c1.6 .7 3.2 1.9 4.6 3.3l-3.6 4.1c-1.2 -1.1 -2.2 -1.8 -3.2 -2.3c-1.1 -.5 -2.3 -.7 -3.7 -.7c-2.4 0 -4.2 .8 -5.7 2.4c-1.5 1.6 -2.2 3.7 -2.2 6.1c-.1 2.3 .7 4.4 2.2 6.1c1.5 1.5 3.4 2.5 5.7 2.5c1.4 -.1 2.7 -.3 3.7 -.8c1 -.5 2.2 -1.3 3.4 -2.4l3.8 4.1c-1.5 1.5 -3.1 2.7 -4.8 3.5c-1.8 .6 -3.8 1.1 -6.3 1.1ZM545.9 154.9c2.9 -.1 4.4 -1.3 4.4 -3.8c0 -2.5 -1.5 -3.6 -4.4 -3.6h-5.3v7.4Zm146.5 0c2.8 -.1 4.4 -1.3 4.4 -3.8c0 -2.5 -1.5 -3.6 -4.5 -3.6h-5.2v7.4ZM488.4 149l-3.6 -8.8l-3.6 8.8Zm297.4 -2c1.4 0 2.6 -.4 3.5 -1.2c.7 -.8 1.3 -1.7 1.3 -3c-.1 -1.4 -.5 -2.3 -1.3 -3c-1 -.8 -2.1 -1.1 -3.7 -1.1H781V147Zm-180.7 8.1c2.3 0 4.3 -.8 5.9 -2.4c1.5 -1.7 2.3 -3.7 2.3 -6.1c-.1 -2.5 -.8 -4.4 -2.4 -6.1C609.3 138.8 607.4 138 605 138c-2.4 0 -4.3 .8 -5.8 2.5c-1.6 1.6 -2.3 3.7 -2.3 6.1c-.1 2.3 .8 4.4 2.3 6c1.5 1.6 3.5 2.5 5.9 2.5Zm438.1 0c2.3 0 4.3 -.8 5.9 -2.4c1.5 -1.7 2.3 -3.7 2.3 -6.1c-.1 -2.5 -.8 -4.4 -2.4 -6.1c-1.6 -1.7 -3.5 -2.5 -5.9 -2.5c-2.4 0 -4.3 .8 -5.8 2.5c-1.6 1.6 -2.3 3.7 -2.3 6.1c-.1 2.3 .8 4.4 2.3 6c1.5 1.6 3.5 2.5 5.9 2.5Zm56.6 0c2.3 0 4.3 -.8 5.9 -2.4c1.5 -1.7 2.2 -3.7 2.2 -6.1c-.1 -2.5 -.7 -4.4 -2.3 -6.1c-1.6 -1.7 -3.5 -2.5 -5.9 -2.5c-2.4 0 -4.3 .8 -5.8 2.5c-1.6 1.6 -2.3 3.7 -2.3 6.1c-.1 2.3 .8 4.4 2.3 6c1.5 1.6 3.5 2.5 5.9 2.5Zm-36 5.4V133.3h19v5.4h-13v21.8Zm-288.8 0V133.3h11.1c.2 0 .3 0 .4 0c3 0 5.5 .9 7.3 2.6c1.8 1.7 2.8 4 2.8 6.9c-.1 3 -1 5.4 -3.1 7c-2.2 1.6 -4.8 2.5 -8 2.5H781v8.2Zm-240.3 -.2V133.2h5.9v9.1h5.8c3 0 5.5 .8 7.2 2.4c1.8 1.6 2.7 3.8 2.7 6.5c-.1 2.7 -1 5 -2.8 6.6c-1.9 1.6 -4.3 2.5 -7.5 2.5Zm146.4 0V133.2h6v9.1h5.7c3.1 0 5.5 .8 7.3 2.4c1.7 1.6 2.6 3.8 2.6 6.5c-.1 2.7 -.9 5 -2.8 6.6c-1.9 1.6 -4.3 2.5 -7.5 2.5Zm-19.6 0V138.7h-8.3v-5.5h22.5v5.5h-8.2v21.6Zm64.6 0V138.7h-8.3v-5.5h22.5v5.5h-8.2v21.6Zm142 0V138.7h-8.3v-5.5h22.5v5.5h-8.2v21.6Zm-485.3 0V133.2h6v10.6h11V133.2h6v27.1h-6v-11h-11v11Zm30.3 0V133.2H419V151l11.8 -17.8h5.6v27.1h-5.9V142.5l-11.8 17.8Zm30.7 0V133.2h6V145l11 -11.8H468l-11.1 11.5l11.6 15.6h-7.2l-8.4 -11.6l-3.1 3.3v8.3Zm117.9 0V133.2h6v10.6h11V133.2h6v27.1h-6v-11h-11v11Zm240 0V133.2h5.9V151l11.8 -17.8H825v27.1h-5.9V142.5l-11.8 17.8Zm86 0V133.2h5.9V151l11.9 -17.8H911v27.1h-5.9V142.5l-11.7 17.8Zm46.4 0V150.2c-2.9 1.3 -5.2 2 -7.2 2c-2.9 0 -5 -.7 -6.7 -2.2c-1.6 -1.7 -2.4 -3.8 -2.4 -6.9v-9.9h6v8.2c-.2 3.5 1.4 5.3 4.3 5.3c2.5 0 4.5 -.6 6 -1.8V133.2H940v27.1Zm68.8 0V133.2h6V145l11 -11.8h7.2L1016 144.7l11.6 15.6h-7.2L1012 148.7l-3.1 3.3v8.3Zm-55.4 0V133h20.4v5.4H953.4V144h12.9v5.3H953.4V155h14.7v5.3Zm-588.8 .3c-2.1 0 -4 -.5 -5.9 -1.6l2.4 -4.3c.8 .6 2 .9 3.2 .9c1.3 -.1 2.5 -.8 3.4 -2.2L350.9 133h6.7l7.4 14.4L371.5 133H378l-10.4 21c-1.2 2.3 -2.5 4 -3.9 5.1c-1.5 1 -3.1 1.5 -5 1.5Zm111.8 -.1L482.1 133h5.5l11.7 27.5H493l-2.4 -6.2H479.1l-2.5 6.2Zm34.3 .1c-1.3 0 -2.3 -.1 -3.2 -.3l.4 -4.9c.4 0 .7 0 1 0c.7 0 1.6 -.1 2.1 -.5c.5 -.5 1.1 -1.2 1.6 -2.3c.3 -1.2 .8 -2.8 1 -5.1c.2 -2.3 .3 -5.2 .3 -8.8V133h19.3v27.3h-6V138.4h-7.7v2.1c-.1 5.3 -.3 9.4 -1 12.4c-.7 2.8 -1.5 4.9 -2.7 6.1c-1.3 1 -2.9 1.6 -5.1 1.6Zm246.1 0c-2.1 0 -4 -.5 -5.9 -1.6l2.3 -4.3c.9 .6 2.1 .9 3.2 .9c1.3 -.1 2.5 -.8 3.5 -2.2L743.1 133h6.7l7.3 14.4L763.7 133h6.5l-10.5 21c-1.1 2.3 -2.4 4 -3.8 5.1c-1.5 1 -3.1 1.5 -5 1.5Zm-145.9 0c-4.1 0 -7.5 -1.3 -10.3 -4c-2.7 -2.8 -4 -6.1 -4 -10c0 -4 1.3 -7.3 4.1 -10c2.7 -2.8 6.2 -4.1 10.3 -4.1c.1 0 .2 0 .2 0c4 0 7.4 1.4 10.1 4.1c2.7 2.6 4.1 6 4.1 10c-.1 3.8 -1.4 7.2 -4.1 9.9c-2.8 2.7 -6.2 4.1 -10.4 4.1Zm438.1 0c-4.1 0 -7.5 -1.3 -10.3 -4c-2.7 -2.8 -4.1 -6.1 -4.1 -10c0 -4 1.4 -7.3 4.2 -10c2.7 -2.8 6.2 -4.1 10.3 -4.1c.1 0 .2 0 .2 0c4 0 7.4 1.4 10.1 4.1c2.7 2.6 4.1 6 4.1 10c-.1 3.8 -1.4 7.2 -4.1 9.9c-2.8 2.7 -6.2 4.1 -10.4 4.1Zm56.6 0c-4.1 0 -7.5 -1.3 -10.3 -4c-2.7 -2.8 -4.1 -6.1 -4.1 -10c0 -4 1.4 -7.3 4.2 -10c2.7 -2.8 6.2 -4.1 10.3 -4.1q.1 0 .2 0c4 0 7.4 1.4 10.1 4.1c2.7 2.6 4.1 6 4.1 10c-.1 3.8 -1.4 7.2 -4.1 9.9c-2.8 2.7 -6.2 4.1 -10.4 4.1Zm-461.4 0c-4 0 -7.3 -1.3 -9.9 -4c-2.8 -2.8 -4 -6.1 -4 -10c0 -4 1.4 -7.3 4 -10c2.7 -2.8 6.1 -4.1 10.2 -4.1c.1 0 .2 0 .4 0c2.1 0 4 .4 5.5 1.2c1.6 .6 3.1 1.8 4.6 3.2l-3.6 4.2c-1.2 -1.1 -2.2 -1.9 -3.3 -2.4c-1 -.5 -2.2 -.7 -3.7 -.7c-2.3 0 -4.1 .8 -5.6 2.5c-1.5 1.6 -2.2 3.7 -2.2 6.1c-.1 2.3 .7 4.4 2.2 6c1.4 1.6 3.4 2.5 5.6 2.5c1.4 0 2.7 -.2 3.8 -.8c1 -.5 2.2 -1.3 3.4 -2.4l3.8 4.1c-1.5 1.6 -3.1 2.8 -4.8 3.5c-1.8 .7 -3.9 1.1 -6.4 1.1Zm206.7 0c-4.1 0 -7.3 -1.3 -10 -4c-2.7 -2.8 -3.9 -6.1 -3.9 -10c0 -4 1.3 -7.3 4 -10c2.6 -2.8 6 -4.1 10.1 -4.1c.1 0 .3 0 .4 0c2.1 0 4 .4 5.5 1.2c1.6 .6 3.2 1.8 4.6 3.2l-3.5 4.2c-1.2 -1.1 -2.3 -1.9 -3.3 -2.4c-1.1 -.5 -2.3 -.7 -3.7 -.7c-2.3 0 -4.2 .8 -5.7 2.5c-1.5 1.6 -2.2 3.7 -2.2 6.1c-.1 2.3 .8 4.4 2.2 6c1.5 1.6 3.4 2.5 5.7 2.5c1.4 0 2.7 -.2 3.7 -.8c1 -.5 2.2 -1.3 3.4 -2.4l3.8 4.1c-1.5 1.6 -3.1 2.8 -4.8 3.5c-1.8 .7 -3.8 1.1 -6.3 1.1Zm141.1 0c-4.1 0 -7.3 -1.3 -10 -4c-2.7 -2.8 -4 -6.1 -4 -10c0 -4 1.4 -7.3 4 -10c2.7 -2.8 6.1 -4.1 10.2 -4.1c.1 0 .3 0 .4 0c2.1 0 4 .4 5.5 1.2c1.6 .6 3.2 1.8 4.6 3.2l-3.6 4.2C992 140 991 139.2 990 138.7c-1.1 -.5 -2.3 -.7 -3.7 -.7c-2.4 0 -4.2 .8 -5.7 2.5c-1.5 1.6 -2.2 3.7 -2.2 6.1c-.1 2.3 .7 4.4 2.2 6c1.5 1.6 3.4 2.5 5.7 2.5c1.4 0 2.7 -.2 3.7 -.8c1 -.5 2.2 -1.3 3.4 -2.4l3.8 4.1c-1.5 1.6 -3.1 2.8 -4.8 3.5c-1.8 .7 -3.8 1.1 -6.3 1.1Z"/></clipPath>
<clipPath id="c3_32"><path d="M604.5 413.9c.8 0 1.7 -.2 2.2 -.5c.5 -.5 .9 -.9 .9 -1.6c0 -.6 -.3 -1.1 -.9 -1.4c-.6 -.5 -1.4 -.5 -2.5 -.5H600v4Zm290.5 0c.9 0 1.7 -.2 2.3 -.5c.5 -.5 .8 -.9 .8 -1.6c0 -.6 -.3 -1.1 -.9 -1.4c-.6 -.5 -1.4 -.5 -2.5 -.5h-4.2v4Zm72.7 0c.9 0 1.8 -.2 2.3 -.5c.5 -.5 .8 -.9 .8 -1.6c0 -.6 -.2 -1.1 -.8 -1.4c-.7 -.5 -1.4 -.5 -2.5 -.5h-4.2v4Zm152.9 0c.9 0 1.7 -.2 2.3 -.5c.5 -.5 .8 -.9 .8 -1.6c0 -.6 -.3 -1.1 -.9 -1.4c-.6 -.5 -1.4 -.5 -2.5 -.5h-4.2v4Zm-750.8 .4c1.2 -.1 2.3 -.4 3.2 -1c.8 -.7 1.3 -1.4 1.3 -2.4v-1.2c-1.4 -.3 -2.6 -.5 -3.9 -.5c-.1 0 -.2 0 -.3 0c-1.1 0 -2 .3 -2.6 .7c-.7 .4 -1 1.1 -1 1.9c-.1 .7 .3 1.3 .9 1.8c.7 .4 1.5 .7 2.4 .7Zm102.7 0c1.2 -.1 2.2 -.4 3.1 -1c.8 -.7 1.3 -1.4 1.3 -2.4v-1.2c-1.4 -.3 -2.6 -.5 -3.9 -.5c-.1 0 -.2 0 -.3 0c-1.1 0 -1.9 .3 -2.6 .7c-.7 .4 -1 1.1 -1 1.9c0 .7 .3 1.3 1 1.8c.6 .4 1.4 .7 2.4 .7Zm253.6 0c1.2 -.1 2.3 -.4 3.1 -1c.8 -.7 1.3 -1.4 1.3 -2.4v-1.2c-1.4 -.3 -2.6 -.5 -3.9 -.5c-.1 0 -.2 0 -.2 0c-1.1 0 -2 .3 -2.7 .7c-.7 .4 -1 1.1 -1 1.9c0 .7 .3 1.3 1 1.8c.6 .4 1.4 .7 2.4 .7Zm143.6 0c1.2 -.1 2.3 -.4 3.2 -1c.8 -.7 1.3 -1.4 1.3 -2.4v-1.2c-1.4 -.3 -2.6 -.5 -3.9 -.5c-.1 0 -.2 0 -.3 0c-1.1 0 -1.9 .3 -2.6 .7c-.7 .4 -1 1.1 -1 1.9c0 .7 .3 1.3 1 1.8c.6 .4 1.4 .7 2.3 .7Zm157.2 0c1.2 -.1 2.3 -.4 3.1 -1c.8 -.7 1.3 -1.4 1.3 -2.4v-1.2c-1.4 -.3 -2.6 -.5 -3.9 -.5q-.1 0 -.2 0c-1.1 0 -2 .3 -2.6 .7c-.8 .4 -1.1 1.1 -1.1 1.9c0 .7 .3 1.3 1 1.8c.6 .4 1.4 .7 2.4 .7Zm-627.4 -.4c1 0 1.9 -.2 2.4 -.7c.6 -.5 .9 -1 .9 -1.9c0 -.9 -.3 -1.4 -.9 -1.8c-.6 -.5 -1.4 -.6 -2.4 -.6h-3.6v5Zm412.2 0c1 0 1.8 -.2 2.4 -.7c.5 -.5 .8 -1 .8 -1.9c0 -.9 -.3 -1.4 -.8 -1.8c-.7 -.5 -1.4 -.6 -2.5 -.6H808v5Zm-485.1 0c3.1 0 4.9 -1.3 4.9 -3.8c-.1 -1.2 -.5 -2.1 -1.4 -2.7c-.9 -.6 -2.1 -.9 -3.6 -.9H321v7.4Zm277.5 -5.8c.8 0 1.5 -.2 2 -.6c.5 -.4 .8 -.9 .8 -1.7c0 -.6 -.2 -1 -.7 -1.4c-.6 -.3 -1.1 -.5 -2 -.5H600v4.2Zm290.6 0c.7 0 1.5 -.2 2 -.6c.4 -.4 .7 -.9 .7 -1.7c0 -.6 -.2 -1 -.7 -1.4c-.5 -.3 -1.1 -.5 -2 -.5h-4.2v4.2Zm72.7 0c.8 0 1.5 -.2 2 -.6c.4 -.4 .8 -.9 .8 -1.7c0 -.6 -.3 -1 -.7 -1.4c-.6 -.3 -1.2 -.5 -2 -.5h-4.2v4.2Zm152.9 0c.7 0 1.5 -.2 2 -.6c.4 -.4 .7 -.9 .7 -1.7c0 -.6 -.2 -1 -.7 -1.4c-.5 -.3 -1.1 -.5 -2 -.5h-4.2v4.2Zm-374.5 .8v-5h-4.3c-.1 0 -.2 0 -.2 0c-1 0 -1.6 .2 -2.2 .6c-.6 .4 -.8 1.1 -.8 1.9c0 .6 .3 1.4 .9 1.8c.5 .4 1.4 .7 2.3 .7Zm-288.4 5.4c1.3 -.1 2.5 -.5 3.4 -1.5c.8 -1 1.4 -2.2 1.4 -3.8c0 -1.7 -.5 -2.8 -1.4 -3.8c-1 -1 -2.1 -1.5 -3.4 -1.5c-1.4 0 -2.4 .5 -3.4 1.5c-1 1 -1.5 2.3 -1.5 3.8c0 1.4 .5 2.8 1.5 3.8c.9 .9 2.1 1.5 3.4 1.5Zm34.8 -.4V403.7h-5.5v2c-.1 3.4 -.6 6.2 -1.7 8.2Zm145.7 0V403.7h-5.6v2c0 3.4 -.5 6.2 -1.7 8.2Zm216.8 .4c1.3 -.1 2.5 -.5 3.4 -1.5c.8 -1 1.4 -2.2 1.4 -3.8c0 -1.7 -.5 -2.8 -1.4 -3.8c-1 -1 -2.1 -1.5 -3.4 -1.5c-1.4 0 -2.5 .5 -3.4 1.5c-1 1 -1.5 2.3 -1.5 3.8c0 1.4 .5 2.8 1.5 3.8c.9 .9 2.1 1.5 3.4 1.5Zm95.9 0c1.3 -.1 2.5 -.5 3.4 -1.5c.8 -1 1.4 -2.2 1.4 -3.8c0 -1.7 -.5 -2.8 -1.4 -3.8c-1 -1 -2.1 -1.5 -3.4 -1.5c-1.4 0 -2.5 .5 -3.4 1.5c-1 1 -1.5 2.3 -1.5 3.8c0 1.4 .5 2.8 1.5 3.8c.9 .9 2.1 1.5 3.4 1.5Zm65 -.4V403.7H1010v2c0 3.4 -.6 6.2 -1.7 8.2Zm139.5 0V403.7h-5.6v2c0 3.4 -.6 6.2 -1.7 8.2Zm-811.7 .4c1.4 -.1 2.7 -.6 3.6 -1.6c.9 -1.1 1.5 -2.3 1.5 -3.8c-.1 -1.5 -.5 -2.7 -1.5 -3.8c-1 -1 -2.2 -1.6 -3.7 -1.6c0 0 -.1 0 -.1 0c-1.4 0 -2.6 .6 -3.5 1.6c-1 1 -1.4 2.3 -1.4 3.8c0 1.4 .5 2.8 1.5 3.8c.9 .9 2.2 1.6 3.6 1.6Zm639.4 0c1.4 -.1 2.7 -.6 3.6 -1.6c.9 -1.1 1.5 -2.3 1.5 -3.8c-.1 -1.5 -.5 -2.7 -1.5 -3.8c-1 -1 -2.2 -1.6 -3.7 -1.6c0 0 -.1 0 -.1 0c-1.5 0 -2.6 .6 -3.5 1.6c-1 1 -1.4 2.3 -1.4 3.8c0 1.4 .5 2.8 1.5 3.8c.9 .9 2.2 1.6 3.6 1.6Zm93.9 0c1.4 -.1 2.7 -.6 3.7 -1.6c.9 -1.1 1.4 -2.3 1.4 -3.8c-.1 -1.5 -.5 -2.7 -1.5 -3.8c-1 -1 -2.2 -1.6 -3.6 -1.6q-.1 0 -.2 0c-1.4 0 -2.5 .6 -3.5 1.6c-.9 1 -1.4 2.3 -1.4 3.8c0 1.4 .5 2.8 1.5 3.8c.9 .9 2.2 1.6 3.6 1.6ZM423.8 408.1c-.2 -1.3 -.6 -2.4 -1.3 -3.3c-.9 -.9 -1.8 -1.3 -3.1 -1.3q-.1 0 -.2 0c-1.1 0 -2 .5 -2.8 1.3c-.9 .8 -1.3 2 -1.5 3.3Zm199.5 0c-.3 -1.3 -.6 -2.4 -1.4 -3.3c-.8 -.9 -1.7 -1.3 -3 -1.3q-.1 0 -.2 0c-1.1 0 -2 .5 -2.8 1.3c-.9 .8 -1.3 2 -1.5 3.3Zm63.2 0c-.2 -1.3 -.6 -2.4 -1.3 -3.3c-.9 -.9 -1.8 -1.3 -3.1 -1.3c0 0 -.1 0 -.1 0c-1.2 0 -2.1 .5 -2.9 1.3c-.9 .8 -1.3 2 -1.4 3.3Zm251.5 0c-.2 -1.3 -.5 -2.4 -1.3 -3.3c-.8 -.9 -1.8 -1.3 -3.1 -1.3c0 0 -.1 0 -.1 0c-1.2 0 -2.1 .5 -2.9 1.3c-.9 .8 -1.3 2 -1.4 3.3Zm233.8 0c-.2 -1.3 -.5 -2.4 -1.3 -3.3c-.8 -.9 -1.8 -1.3 -3 -1.3q-.1 0 -.2 0c-1.2 0 -2 .5 -2.8 1.3c-.9 .8 -1.4 2 -1.5 3.3Zm-778 7.6V402.1h2.1v5h3.6c1.6 0 2.9 .3 3.9 1c.9 .7 1.5 1.7 1.5 3.1c-.1 1.3 -.5 2.5 -1.4 3.3c-1 .8 -2.2 1.2 -3.8 1.2Zm13.6 0V402.1h2v13.6Zm91.7 0V402.1h2.1v10.8l7.9 -10.8h2v13.6h-2V404.9l-8 10.8Zm33.1 0V402.1h2.1v10.8l8 -10.8h2v13.6h-2.1V404.9l-8 10.8Zm16.7 0V402.1h2v10.8l8 -10.8h2v13.6h-2.1V404.9l-7.9 10.8Zm24.5 0V402.1h2.1v10.8l7.9 -10.8h2v13.6h-2V404.9l-8 10.8Zm24.5 0V402.1h6.6c1.3 0 2.4 .3 3.3 .9c.7 .6 1.2 1.5 1.2 2.6c-.1 1.4 -.8 2.6 -2.3 3.2c1.9 .5 2.9 1.6 2.9 3.3c0 1.1 -.4 2 -1.3 2.6c-.9 .7 -2.1 1 -3.6 1Zm46.9 0V402.1h2v10.8l8 -10.8h2v13.6h-2.1V404.9l-7.9 10.8Zm25.2 0v-5.6c-.5 .3 -1.2 .6 -2.1 .9c-.9 .2 -1.7 .4 -2.4 .4c-1.4 0 -2.4 -.4 -3.2 -1.1c-.9 -.8 -1.2 -1.7 -1.2 -3v-5.2h2V407c0 .7 .3 1.4 .7 1.9c.5 .4 1.2 .7 2 .7c1.6 -.1 3 -.4 4.2 -1.3v-6.2h2.1v13.6Zm37.2 0V402.1h2.1v7.8l7.4 -7.8h2.5l-5.6 5.9l5.8 7.7H717l-4.8 -6.2l-2.9 2.9v3.3Zm28.5 0l4.2 -5.3c-1.1 -.2 -2 -.7 -2.7 -1.4c-.7 -.8 -1 -1.7 -1 -2.7c0 -1.3 .5 -2.3 1.4 -3.1c.9 -.8 2.2 -1.1 3.8 -1.1h6.5v13.6h-2.1v-5H742c-.2 .2 -.7 1 -1.6 2.2c-1 1.2 -1.7 2.2 -2.2 2.8Zm24.5 0V402.1h2v7.8l7.5 -7.8h2.5l-5.7 5.9l5.8 7.7h-2.4l-4.8 -6.2l-2.9 2.9v3.3Zm16.9 4.3c-1 0 -1.9 -.2 -2.9 -.6l.7 -1.7c.6 .4 1.4 .5 2.1 .5c.6 0 1.2 -.1 1.6 -.5c.4 -.5 .8 -1.1 1.2 -2l-6.1 -13.6h2.2l4.9 11.4l4.4 -11.4h2.2l-5.7 14.1c-.7 1.3 -1.3 2.4 -2 3c-.8 .5 -1.5 .8 -2.6 .8Zm12.2 -3.9c-.6 0 -1.1 -.1 -1.7 -.3l.3 -1.7c.4 .1 .7 .2 1 .2c.2 -.1 .7 -.1 .9 -.2c.2 -.1 .5 -.3 .8 -.8c.3 -.5 .5 -1 .7 -1.7c.1 -.9 .3 -1.9 .4 -3.3c0 -1.5 .2 -3.1 .2 -5.1v-1.1h9.6v13.7h-2.1V403.9h-5.5v.3c0 2.1 0 3.9 -.2 5.4c-.2 1.4 -.4 2.6 -.6 3.4c-.3 .8 -.6 1.5 -1 2c-.5 .3 -.9 .7 -1.3 .9c-.5 0 -.9 .2 -1.5 .2Zm16.7 -.4V402.1h2v5h3.7c1.5 0 2.8 .3 3.8 1c.9 .7 1.5 1.7 1.5 3.1c0 1.3 -.4 2.5 -1.4 3.3c-.9 .8 -2.2 1.2 -3.7 1.2Zm28.3 4.3c-1 0 -2 -.2 -2.9 -.6l.7 -1.7c.6 .4 1.3 .5 2.1 .5c.5 0 1.1 -.1 1.6 -.5c.3 -.5 .8 -1.1 1.2 -2l-6.2 -13.6H833l5 11.4l4.4 -11.4h2.1l-5.7 14.1c-.7 1.3 -1.2 2.4 -1.9 3c-.8 .5 -1.6 .8 -2.6 .8Zm54.1 -4.3V402.1h6.7c1.2 0 2.4 .3 3.2 .9c.7 .6 1.2 1.5 1.2 2.6c0 1.4 -.8 2.6 -2.3 3.2c2 .5 3 1.6 3 3.3c-.1 1.1 -.5 2 -1.4 2.6c-.9 .7 -2.1 1 -3.6 1Zm72.8 0V402.1h6.6c1.3 0 2.4 .3 3.2 .9c.8 .6 1.3 1.5 1.3 2.6c-.1 1.4 -.8 2.6 -2.3 3.2c1.9 .5 2.9 1.6 2.9 3.3c0 1.1 -.4 2 -1.3 2.6c-.9 .7 -2.1 1 -3.6 1Zm76.5 0V402.1h2.1v5.8h7.8v-5.8h2.1v13.6h-2.1v-6h-7.8v6Zm16.4 0V402.1h2.1v5.8h7.8v-5.8h2.1v13.6H1064v-6h-7.8v6Zm33.5 0V402.1h2l5 7.2l5.1 -7.2h1.9v13.6h-2.1V405.3l-4.9 6.9l-5 -6.9v10.4Zm26.4 0V402.1h6.6c1.3 0 2.5 .3 3.3 .9c.7 .6 1.2 1.5 1.2 2.6c0 1.4 -.8 2.6 -2.3 3.2c1.9 .5 3 1.6 3 3.3c-.1 1.1 -.5 2 -1.4 2.6c-.9 .7 -2.1 1 -3.6 1Zm15.5 0V402.1h2.1v10.8l7.9 -10.8h2v13.6h-2V404.9l-8 10.8Zm-775.3 -.1V401.9h9.4v1.8h-7.3v11.9Zm29.7 0V403.7H379v-1.8h11.6v1.8H386v11.9Zm56.7 0V403.7h-4.9v-1.8h11.6v1.8h-4.6v11.9Zm40.7 3.4v-5.1h1.5c1.1 -2.3 1.8 -5.4 1.8 -9.6v-2.4h9.7v12h1.9V419h-1.9v-3.3h-11l-.4 3.3Zm145.6 0v-5.1h1.5c1.2 -2.3 1.9 -5.4 1.9 -9.6v-2.4H640v12h1.9V419H640v-3.3H629l-.4 3.3Zm195.4 -3.4V403.7h-4.9v-1.8h11.7v1.8h-4.7v11.9Zm89.5 0V401.9h11.7v13.7h-2.1V403.7h-7.5v11.9Zm92.8 3.4v-5.1h1.5c1.2 -2.3 1.8 -5.4 1.8 -9.6v-2.4h9.8v12h1.9V419h-1.9v-3.3h-11l-.4 3.3Zm139.5 0v-5.1h1.5c1.2 -2.3 1.8 -5.4 1.8 -9.6v-2.4h9.8v12h1.9V419h-1.9v-3.3h-11.1l-.3 3.3Zm-693.6 1V402.1h2.1v2.8c1.3 -2 3.1 -3 5.2 -3c0 0 .1 0 .2 0c1.6 0 3.1 .7 4.3 2c1.2 1.2 1.9 3 1.9 5.1c0 2 -.6 3.8 -1.9 5.1c-1.3 1.3 -2.8 2 -4.5 2c-2.2 0 -3.9 -1 -5.2 -2.9V420Zm397.3 0V402.1h2.1v2.8c1.3 -2 3.1 -3 5.2 -3c0 0 .1 0 .2 0c1.5 0 3.1 .7 4.3 2c1.2 1.2 1.9 3 1.9 5.1c0 2 -.6 3.8 -1.9 5.1c-1.3 1.3 -2.8 2 -4.5 2c-2.2 0 -3.9 -1 -5.2 -2.9V420Zm95.9 0V402.1h2.1v2.8c1.3 -2 3.1 -3 5.2 -3c0 0 .1 0 .2 0c1.5 0 3.1 .7 4.3 2c1.2 1.2 1.9 3 1.9 5.1c0 2 -.6 3.8 -1.9 5.1c-1.3 1.3 -2.8 2 -4.5 2c-2.2 0 -3.9 -1 -5.2 -2.9V420ZM369.4 416.1c-1.4 0 -2.5 -.4 -3.5 -1.2c-1.1 -.8 -1.5 -1.8 -1.5 -3.1c0 -1.4 .5 -2.5 1.6 -3.2c.9 -.9 2.4 -1.2 4.2 -1.2c1.3 0 2.7 .2 4.1 .7v-.5c-.1 -1.3 -.4 -2.2 -1.1 -2.9c-.7 -.6 -1.6 -1 -2.9 -1c-1.4 0 -2.7 .4 -4.1 1.1l-.6 -1.7c1.6 -.9 3.3 -1.2 5 -1.2c.1 0 .2 0 .3 0c1.7 0 3.1 .6 4 1.5c.9 1 1.5 2.3 1.5 4v8.3h-2.1v-2.1c-1.3 1.6 -2.8 2.5 -4.9 2.5Zm102.6 0c-1.3 0 -2.5 -.4 -3.5 -1.2c-1 -.8 -1.5 -1.8 -1.5 -3.1c0 -1.4 .5 -2.5 1.6 -3.2c.9 -.9 2.4 -1.2 4.2 -1.2c1.3 0 2.7 .2 4.1 .7v-.5c-.1 -1.3 -.3 -2.2 -1 -2.9c-.8 -.6 -1.7 -1 -3 -1c-1.4 0 -2.6 .4 -4.1 1.1l-.6 -1.7c1.6 -.9 3.4 -1.2 5 -1.2c.1 0 .2 0 .3 0c1.7 0 3.1 .6 4.1 1.5c.8 1 1.4 2.3 1.4 4v8.3h-2.1v-2.1c-1.3 1.6 -2.8 2.5 -4.9 2.5Zm253.7 0c-1.4 0 -2.6 -.4 -3.6 -1.2c-1 -.8 -1.5 -1.8 -1.5 -3.1c0 -1.4 .5 -2.5 1.6 -3.2c1 -.9 2.4 -1.2 4.2 -1.2c1.3 0 2.8 .2 4.1 .7v-.5c-.1 -1.3 -.3 -2.2 -1 -2.9c-.8 -.6 -1.7 -1 -3 -1c-1.4 0 -2.6 .4 -4 1.1l-.6 -1.7c1.6 -.9 3.3 -1.2 4.9 -1.2c.1 0 .2 0 .3 0c1.7 0 3.1 .6 4.1 1.5c.8 1 1.4 2.3 1.4 4v8.3h-2.1v-2.1c-1.3 1.6 -2.8 2.5 -4.8 2.5Zm143.6 0c-1.4 0 -2.5 -.4 -3.5 -1.2c-1.1 -.8 -1.5 -1.8 -1.5 -3.1c0 -1.4 .5 -2.5 1.6 -3.2c.9 -.9 2.4 -1.2 4.2 -1.2c1.3 0 2.7 .2 4.1 .7v-.5c-.1 -1.3 -.3 -2.2 -1 -2.9c-.8 -.6 -1.7 -1 -3 -1c-1.4 0 -2.7 .4 -4.1 1.1l-.6 -1.7c1.6 -.9 3.4 -1.2 5 -1.2c.1 0 .2 0 .3 0c1.7 0 3.1 .6 4.1 1.5c.8 1 1.4 2.3 1.4 4v8.3h-2.1v-2.1c-1.3 1.6 -2.8 2.5 -4.9 2.5Zm157.2 0c-1.4 0 -2.6 -.4 -3.6 -1.2c-1 -.8 -1.5 -1.8 -1.5 -3.1c0 -1.4 .6 -2.5 1.6 -3.2c1 -.9 2.4 -1.2 4.2 -1.2c1.4 0 2.8 .2 4.1 .7v-.5c0 -1.3 -.3 -2.2 -1 -2.9c-.8 -.6 -1.7 -1 -2.9 -1c-1.4 0 -2.7 .4 -4.1 1.1l-.6 -1.7c1.6 -.9 3.3 -1.2 4.9 -1.2c.1 0 .2 0 .3 0c1.7 0 3.1 .6 4.1 1.5c.9 1 1.4 2.3 1.4 4v8.3h-2.1v-2.1c-1.3 1.6 -2.8 2.5 -4.8 2.5ZM527.4 419v-3.3H515.7V401.9h2.1v12h7.6v-12h2v12h1.9V419Zm-184 -2.9c-2.1 0 -3.8 -.7 -5.1 -2.1c-1.4 -1.5 -2.1 -3.1 -2.1 -5.1c0 -2 .7 -3.6 2.1 -5c1.3 -1.5 3.1 -2.2 5.1 -2.2c2 0 3.7 .7 5.1 2.1c1.3 1.4 2 3.1 2 5.1c0 1.9 -.6 3.6 -2 5c-1.5 1.4 -3.1 2.2 -5.1 2.2Zm76.3 0c-2 0 -3.5 -.7 -4.9 -2c-1.4 -1.5 -1.9 -3.1 -1.9 -5.2c0 -2.1 .6 -3.7 1.8 -5.1c1.2 -1.4 2.9 -2.1 4.7 -2.1c1.9 0 3.6 .8 4.7 2.2c1.1 1.3 1.7 3.1 1.7 5.2c0 .3 0 .6 0 .8H414.9c.1 1.3 .7 2.4 1.6 3.2c.8 .8 2 1.2 3.3 1.2c1.5 -.1 3 -.7 4.3 -1.9l1.3 1.1c-1.6 1.7 -3.5 2.6 -5.7 2.6Zm199.5 0c-2 0 -3.6 -.7 -4.9 -2c-1.4 -1.5 -2 -3.1 -2 -5.2c0 -2.1 .7 -3.7 1.9 -5.1c1.2 -1.4 2.9 -2.1 4.7 -2.1c1.9 0 3.5 .8 4.7 2.2c1.1 1.3 1.7 3.1 1.7 5.2c0 .3 0 .6 0 .8H614.4c.1 1.3 .7 2.4 1.6 3.2c.8 .8 2 1.2 3.2 1.2c1.6 -.1 3.1 -.7 4.4 -1.9l1.2 1.1c-1.6 1.7 -3.4 2.6 -5.6 2.6Zm63.2 0c-2 0 -3.5 -.7 -4.8 -2c-1.5 -1.5 -2 -3.1 -2 -5.2c0 -2.1 .6 -3.7 1.9 -5.1c1.1 -1.4 2.8 -2.1 4.7 -2.1c1.8 0 3.5 .8 4.6 2.2c1.1 1.3 1.8 3.1 1.8 5.2c0 .3 -.1 .6 -.1 .8H677.7c.1 1.3 .6 2.4 1.5 3.2c.8 .8 2 1.2 3.3 1.2c1.5 -.1 3.1 -.7 4.3 -1.9l1.3 1.1c-1.6 1.7 -3.4 2.6 -5.7 2.6Zm15.8 0c-2.1 0 -3.7 -.7 -5 -2.2c-1.4 -1.4 -2 -3 -2 -5c0 -2 .6 -3.6 2 -5c1.3 -1.5 3 -2.2 5 -2.2c2 0 3.9 .9 5.4 2.5l-1.3 1.4c-1.3 -1.4 -2.6 -2.1 -4.2 -2.1c0 0 -.1 0 -.1 0c-1.4 0 -2.4 .6 -3.3 1.6c-1 1 -1.4 2.3 -1.4 3.8c-.1 1.4 .4 2.8 1.4 3.8c.9 .9 2.1 1.6 3.6 1.6c1.4 -.1 2.8 -.7 4.1 -2.1l1.3 1.2c-1.6 1.8 -3.4 2.7 -5.5 2.7Zm235.8 0c-2 0 -3.6 -.7 -4.9 -2c-1.4 -1.5 -2 -3.1 -2 -5.2c0 -2.1 .6 -3.7 1.9 -5.1c1.2 -1.4 2.8 -2.1 4.7 -2.1c1.9 0 3.5 .8 4.7 2.2c1 1.3 1.7 3.1 1.7 5.2c0 .3 0 .6 0 .8H929.2c.1 1.3 .7 2.4 1.6 3.2c.8 .8 2 1.2 3.2 1.2c1.6 -.1 3.1 -.7 4.3 -1.9l1.3 1.1c-1.6 1.7 -3.4 2.6 -5.6 2.6Zm48.8 0c-2.1 0 -3.8 -.7 -5.1 -2.1c-1.4 -1.5 -2.1 -3.1 -2.1 -5.1c0 -2 .7 -3.6 2.1 -5c1.3 -1.5 3.1 -2.2 5.1 -2.2c2 0 3.7 .7 5.1 2.1c1.3 1.4 2 3.1 2 5.1c0 1.9 -.7 3.6 -2 5c-1.5 1.4 -3.1 2.2 -5.1 2.2Zm14.4 0c-2.1 0 -4 -.7 -5.6 -2.1l1 -1.5c1.3 1.1 2.9 1.8 4.5 1.8c.8 -.1 1.7 -.3 2.4 -.7c.6 -.5 .9 -1 .9 -1.7c0 -.7 -.3 -1.2 -.8 -1.6c-.7 -.5 -1.5 -.6 -2.5 -.6h-1.8v-1.8h1.8c.9 0 1.6 -.2 2.2 -.6c.5 -.5 .8 -1 .8 -1.7c0 -.7 -.3 -1.1 -.8 -1.5c-.6 -.4 -1.3 -.6 -2.1 -.6q-.1 0 -.2 0c-1.6 0 -2.8 .5 -3.9 1.4l-1 -1.4c1.3 -1.2 3.2 -1.8 5.2 -1.8c1.4 0 2.7 .4 3.6 1.1c.8 .7 1.3 1.5 1.3 2.6c0 1.5 -.7 2.6 -2.2 3.2c1.6 .5 2.5 1.7 2.5 3.4c0 1 -.5 2.1 -1.4 2.9c-1.1 .7 -2.3 1.2 -3.9 1.2Zm79.5 0c-2.1 0 -3.8 -.7 -5.1 -2.1c-1.4 -1.5 -2 -3.1 -2 -5.1c0 -2 .6 -3.6 2 -5c1.4 -1.5 3.1 -2.2 5.1 -2.2c2 0 3.8 .7 5.1 2.1c1.3 1.4 2.1 3.1 2.1 5.1c0 1.9 -.7 3.6 -2.1 5c-1.5 1.4 -3.1 2.2 -5.1 2.2Zm91.1 0c-2 0 -3.6 -.7 -4.9 -2c-1.4 -1.5 -2 -3.1 -2 -5.2c0 -2.1 .7 -3.7 1.9 -5.1c1.2 -1.4 2.8 -2.1 4.7 -2.1c1.9 0 3.5 .8 4.7 2.2c1 1.3 1.7 3.1 1.7 5.2c0 .3 0 .6 0 .8H1163c.1 1.3 .7 2.4 1.6 3.2c.8 .8 2 1.2 3.2 1.2c1.6 -.1 3.1 -.7 4.3 -1.9l1.3 1.1c-1.6 1.7 -3.4 2.6 -5.6 2.6Zm-848.9 -.4V397.3h13.3v1.8H321v5.6h5.5c2 0 3.8 .5 5.1 1.4c1.3 .9 2 2.3 2 4.1c0 1.7 -.7 3.1 -1.9 4.1c-1.3 .9 -2.9 1.4 -5 1.4ZM543.4 310c.9 -.1 1.7 -.2 2.3 -.6c.5 -.5 .8 -.9 .8 -1.5c0 -.7 -.3 -1.1 -.9 -1.5c-.6 -.4 -1.4 -.5 -2.5 -.5h-4.2V310Zm55.2 0c.8 -.1 1.7 -.2 2.2 -.6c.5 -.5 .9 -.9 .9 -1.5c0 -.7 -.3 -1.1 -.9 -1.5c-.6 -.4 -1.4 -.5 -2.5 -.5h-4.2V310Zm-160.3 .3c1.2 -.1 2.3 -.3 3.1 -.9c.8 -.8 1.3 -1.5 1.3 -2.5v-1.1c-1.4 -.4 -2.6 -.6 -3.9 -.6c-.1 0 -.2 0 -.2 0c-1.1 0 -2 .3 -2.7 .7c-.7 .4 -1 1.1 -1 1.9c0 .8 .3 1.4 1 1.8c.6 .4 1.4 .7 2.4 .7Zm104.8 -6.2c.7 0 1.5 -.2 2 -.6c.4 -.4 .7 -.9 .7 -1.6c0 -.6 -.2 -1.1 -.7 -1.4c-.5 -.4 -1.1 -.6 -2 -.6h-4.2v4.2Zm55.1 0c.8 0 1.5 -.2 2 -.6c.5 -.4 .8 -.9 .8 -1.6c0 -.6 -.2 -1.1 -.7 -1.4c-.6 -.4 -1.1 -.6 -2 -.6h-4.2v4.2Zm163.4 6.2c1.3 -.1 2.5 -.5 3.4 -1.5c.8 -1 1.4 -2.2 1.4 -3.7c0 -1.4 -.5 -2.6 -1.4 -3.7c-1 -1.1 -2.1 -1.5 -3.4 -1.5q-.1 0 -.2 0c-1.4 0 -2.4 .6 -3.2 1.5c-1 .9 -1.4 2.3 -1.4 3.7c0 1.5 .5 2.7 1.4 3.7c.9 1 2.1 1.5 3.4 1.5ZM458 305v-5.1h-4.3c-.1 0 -.2 0 -.2 0c-1 0 -1.6 .3 -2.2 .7c-.6 .4 -.8 1 -.8 1.8c0 .7 .3 1.4 .9 1.9c.5 .4 1.4 .7 2.3 .7Zm119.6 0v-5.1h-4.2c-.1 0 -.2 0 -.3 0c-.9 0 -1.6 .3 -2.1 .7c-.7 .4 -.9 1 -.9 1.8c0 .7 .3 1.4 .9 1.9c.5 .4 1.4 .7 2.4 .7Zm-213.3 5V299.8h-5.6v1.9c0 3.4 -.6 6.2 -1.7 8.3Zm117 0V299.8h-5.5v1.9c-.1 3.4 -.6 6.2 -1.8 8.3Zm29.4 .3c1.2 -.1 2.5 -.5 3.4 -1.4c.8 -1 1.3 -2.3 1.3 -3.9c0 -1.6 -.4 -2.8 -1.4 -3.8c-1 -1 -2 -1.4 -3.3 -1.4c-1.4 0 -2.5 .5 -3.5 1.5c-1 .9 -1.4 2.2 -1.4 3.8c0 1.4 .5 2.7 1.4 3.7c1 1 2.2 1.5 3.5 1.5Zm142.2 0c1.2 -.1 2.5 -.5 3.4 -1.4c.8 -1 1.3 -2.3 1.3 -3.9c0 -1.6 -.4 -2.8 -1.4 -3.8c-1 -1 -2 -1.4 -3.3 -1.4c-1.4 0 -2.5 .5 -3.5 1.5c-1 .9 -1.4 2.2 -1.4 3.8c0 1.4 .5 2.7 1.4 3.7c1 1 2.2 1.5 3.5 1.5Zm19.5 -.3V299.8h-5.5v1.9c-.1 3.4 -.6 6.2 -1.7 8.3Zm123.5 .3c1.3 -.1 2.5 -.5 3.4 -1.4c.8 -1 1.4 -2.3 1.4 -3.9c0 -1.6 -.5 -2.8 -1.4 -3.8c-1 -1 -2 -1.4 -3.4 -1.4c-1.4 0 -2.4 .5 -3.4 1.5c-1 .9 -1.5 2.2 -1.5 3.8c0 1.4 .5 2.7 1.5 3.7c.9 1 2.1 1.5 3.4 1.5ZM498.1 304.1c-.2 -1.3 -.6 -2.4 -1.3 -3.2c-.9 -.9 -1.8 -1.3 -3.1 -1.3c0 0 -.1 0 -.1 0c-1.2 0 -2.1 .5 -2.9 1.3c-.9 .8 -1.3 1.9 -1.4 3.2Zm33.1 0c-.2 -1.3 -.6 -2.4 -1.3 -3.2c-.9 -.9 -1.8 -1.3 -3.1 -1.3q-.1 0 -.2 0c-1.1 0 -2 .5 -2.8 1.3c-.9 .8 -1.3 1.9 -1.5 3.2Zm109.1 0c-.2 -1.3 -.6 -2.4 -1.3 -3.2c-.9 -.9 -1.8 -1.3 -3.1 -1.3c0 0 -.1 0 -.1 0c-1.2 0 -2.1 .5 -2.9 1.3c-.9 .8 -1.3 1.9 -1.4 3.2Zm65.4 0c-.2 -1.3 -.5 -2.4 -1.3 -3.2c-.8 -.9 -1.7 -1.3 -3 -1.3q-.1 0 -.2 0c-1.1 0 -2 .5 -2.8 1.3c-.9 .8 -1.4 1.9 -1.5 3.2Zm-366.8 7.7V298.1h2V304h7.9v-5.9h2v13.7h-2v-6h-7.9v6Zm32.2 0V298.1h2.1v10.8l8 -10.8h2v13.7h-2.1V301l-8 10.8Zm16.7 0V298.1h2v10.8l8 -10.8h2v13.7h-2.1V301l-8 10.8Zm31.6 0V298.1h2.1V306l7.4 -7.9h2.5l-5.6 5.9l5.8 7.8h-2.4l-4.8 -6.3l-2.9 3v3.3Zm28.5 0l4.2 -5.4c-1.1 -.2 -2 -.7 -2.7 -1.4c-.7 -.8 -1 -1.6 -1 -2.7c0 -1.3 .5 -2.2 1.4 -3c.9 -.8 2.2 -1.2 3.8 -1.2H460v13.7h-2v-5h-3.8c-.2 .2 -.7 .9 -1.6 2.2c-1 1.1 -1.7 2.1 -2.2 2.8Zm89 0V298.1h6.6c1.2 0 2.4 .3 3.2 1c.7 .5 1.2 1.5 1.2 2.5c0 1.5 -.7 2.6 -2.3 3.3c2 .5 3 1.6 3 3.3c0 1 -.5 1.9 -1.4 2.6c-.9 .6 -2 1 -3.6 1Zm15.4 0V298.1h2.1V304h7.8v-5.9h2.1v13.7h-2.1v-6h-7.8v6Zm15.2 0l4.2 -5.4c-1 -.2 -1.9 -.7 -2.6 -1.4c-.7 -.8 -1 -1.6 -1 -2.7c0 -1.3 .4 -2.2 1.3 -3c.9 -.8 2.2 -1.2 3.8 -1.2h6.5v13.7h-2.1v-5h-3.7c-.3 .2 -.8 .9 -1.7 2.2c-1 1.1 -1.6 2.1 -2.1 2.8Zm24.5 0V298.1h6.6c1.3 0 2.4 .3 3.3 1c.7 .5 1.2 1.5 1.2 2.5c-.1 1.5 -.8 2.6 -2.3 3.3c1.9 .5 2.9 1.6 2.9 3.3c0 1 -.4 1.9 -1.3 2.6c-.9 .6 -2.1 1 -3.6 1Zm146.8 0V298.1h2v10.8l8 -10.8h2v13.7h-2.1V301l-7.9 10.8Zm33.6 0V298.1h2.1v10.8l8 -10.8h2v13.7h-2.1V301l-8 10.8Zm34.1 0V298.1h2.1v10.8l8 -10.8h2v13.7h-2.1V301l-8 10.8Zm-453.2 3.3V310h1.5c1.2 -2.4 1.8 -5.5 1.8 -9.6V298h9.8v12h1.9v5.1h-1.9v-3.3h-11l-.4 3.3Zm117.1 0V310h1.4c1.2 -2.4 1.9 -5.5 1.9 -9.6V298h9.7v12h1.9v5.1h-1.9v-3.3h-11l-.4 3.3Zm191.1 0V310H663c1.1 -2.4 1.8 -5.5 1.8 -9.6V298h9.7v12h1.9v5.1h-1.9v-3.3h-11l-.4 3.3Zm-157.7 1v-18h2.1V301c1.3 -2.1 3 -3 5.1 -3c.1 0 .2 0 .2 0c1.6 0 3.1 .7 4.4 1.9c1.2 1.3 1.9 3 1.9 5.2c0 2 -.6 3.8 -1.9 5.1c-1.4 1.2 -2.8 1.9 -4.6 1.9c-2.2 0 -3.8 -1 -5.1 -2.9v6.9Zm142.2 0v-18h2.1V301c1.3 -2.1 3 -3 5.1 -3c.1 0 .2 0 .2 0c1.6 0 3.1 .7 4.4 1.9c1.2 1.3 1.9 3 1.9 5.2c0 2 -.6 3.8 -1.9 5.1c-1.4 1.2 -2.8 1.9 -4.6 1.9c-2.2 0 -3.8 -1 -5.1 -2.9v6.9Zm143 0v-18h2.1V301c1.4 -2.1 3.1 -3 5.2 -3q.1 0 .2 0c1.6 0 3.1 .7 4.3 1.9c1.3 1.3 2 3 2 5.2c-.1 2 -.7 3.8 -2 5.1c-1.3 1.2 -2.8 1.9 -4.5 1.9c-2.2 0 -3.8 -1 -5.2 -2.9v6.9Zm-351.1 -4c-1.4 0 -2.6 -.4 -3.6 -1.1c-1 -.8 -1.5 -1.8 -1.5 -3.1c0 -1.5 .5 -2.5 1.6 -3.3c1 -.8 2.4 -1.1 4.2 -1.1c1.3 0 2.8 .2 4.1 .6v-.4c-.1 -1.4 -.3 -2.2 -1 -2.9c-.8 -.7 -1.7 -1 -3 -1c-1.4 0 -2.6 .3 -4 1l-.7 -1.7c1.7 -.8 3.4 -1.1 5 -1.1c.1 0 .2 0 .3 0c1.7 0 3.1 .5 4.1 1.5c.8 .9 1.4 2.3 1.4 4v8.3h-2.1v-2.1c-1.3 1.5 -2.8 2.4 -4.8 2.4Zm253.1 3v-3.3H679.3V298h2.1v12h7.5V298H691v12h1.9v5.1Zm-280.6 -3c-2.1 0 -3.7 -.7 -5 -2.1c-1.4 -1.5 -2 -3.1 -2 -5c0 -2.1 .6 -3.7 2 -5.1c1.3 -1.4 3 -2.1 5 -2.1c1.9 0 3.9 .8 5.4 2.4l-1.3 1.4c-1.3 -1.4 -2.6 -2 -4.2 -2c0 0 -.1 0 -.1 0c-1.4 0 -2.4 .6 -3.3 1.5c-1 1.1 -1.4 2.4 -1.4 3.9c-.1 1.4 .4 2.7 1.4 3.8c.9 .9 2.1 1.5 3.6 1.5c1.4 -.1 2.8 -.7 4.1 -2.1l1.3 1.3c-1.6 1.7 -3.4 2.6 -5.5 2.6Zm83.6 0c-2 0 -3.5 -.7 -4.8 -2c-1.5 -1.4 -2 -3.1 -2 -5.2c0 -2 .6 -3.6 1.9 -5c1.2 -1.4 2.8 -2.1 4.7 -2.1c1.8 0 3.5 .7 4.6 2.1c1.1 1.4 1.8 3.2 1.8 5.3c0 .2 0 .5 -.1 .7H489.3c.1 1.3 .6 2.4 1.5 3.2c.8 .8 2 1.2 3.3 1.2c1.5 -.1 3.1 -.6 4.3 -1.9l1.3 1.1c-1.6 1.7 -3.4 2.6 -5.7 2.6Zm33.1 0c-2 0 -3.5 -.7 -4.9 -2c-1.4 -1.4 -1.9 -3.1 -1.9 -5.2c0 -2 .6 -3.6 1.8 -5c1.2 -1.4 2.9 -2.1 4.7 -2.1c1.9 0 3.6 .7 4.7 2.1c1.1 1.4 1.7 3.2 1.7 5.3c0 .2 0 .5 0 .7H522.3c.2 1.3 .7 2.4 1.6 3.2c.8 .8 2 1.2 3.3 1.2c1.5 -.1 3 -.6 4.3 -1.9l1.3 1.1c-1.6 1.7 -3.5 2.6 -5.7 2.6Zm94.2 0c-2.1 0 -3.6 -.7 -4.9 -2.1c-1.4 -1.5 -2.1 -3.1 -2.1 -5c0 -2.1 .7 -3.7 2.1 -5.1c1.3 -1.4 3 -2.1 4.9 -2.1c2 0 3.9 .8 5.5 2.4l-1.3 1.4c-1.3 -1.4 -2.7 -2 -4.2 -2q-.1 0 -.2 0c-1.3 0 -2.4 .6 -3.3 1.5c-1 1.1 -1.4 2.4 -1.4 3.9c0 1.4 .5 2.7 1.5 3.8c.9 .9 2.1 1.5 3.5 1.5c1.5 -.1 2.9 -.7 4.1 -2.1l1.4 1.3c-1.7 1.7 -3.5 2.6 -5.6 2.6Zm14.9 0c-2 0 -3.5 -.7 -4.8 -2c-1.5 -1.4 -2 -3.1 -2 -5.2c0 -2 .6 -3.6 1.9 -5c1.2 -1.4 2.8 -2.1 4.7 -2.1c1.8 0 3.5 .7 4.6 2.1c1.1 1.4 1.8 3.2 1.8 5.3c0 .2 0 .5 -.1 .7H631.5c.1 1.3 .6 2.4 1.5 3.2c.8 .8 2 1.2 3.3 1.2c1.5 -.1 3.1 -.6 4.3 -1.9l1.3 1.1c-1.6 1.7 -3.4 2.6 -5.7 2.6Zm65.5 0c-2 0 -3.6 -.7 -4.9 -2c-1.4 -1.4 -2 -3.1 -2 -5.2c0 -2 .7 -3.6 1.9 -5c1.2 -1.4 2.8 -2.1 4.7 -2.1c1.9 0 3.5 .7 4.7 2.1c1 1.4 1.7 3.2 1.7 5.3c0 .2 0 .5 0 .7H696.9c.1 1.3 .7 2.4 1.6 3.2c.8 .8 2 1.2 3.2 1.2c1.6 -.1 3.1 -.6 4.4 -1.9l1.2 1.1c-1.6 1.7 -3.4 2.6 -5.6 2.6Zm-382.8 -.3V293.1H321v15.5l11 -15.5h2v18.7h-2.1V296.3l-11 15.5Zm409 .3c-2.7 0 -4.9 -.9 -6.6 -2.8c-1.9 -1.9 -2.6 -4.1 -2.6 -6.7c0 -2.7 .8 -5 2.6 -6.8c1.7 -2 4 -2.8 6.6 -2.8c.2 0 .3 0 .4 0c1.3 0 2.6 .3 3.6 .7c1 .4 2.1 1.2 3.1 2.2l-1.3 1.5c-1.8 -1.8 -3.7 -2.6 -5.8 -2.6c-2.1 0 -3.8 .7 -5.1 2.2c-1.4 1.4 -2.1 3.4 -2.1 5.6c0 2.1 .7 4 2.1 5.5c1.3 1.4 3.1 2.2 5.1 2.2c1.1 -.1 2.2 -.2 3.1 -.7c.9 -.5 1.9 -1.1 2.8 -2l1.4 1.5c-1.1 .9 -2.1 1.7 -3.3 2.2c-1.2 .5 -2.5 .8 -4 .8Zm33.6 0c-2.1 0 -3.7 -.7 -4.9 -2.1c-1.3 -1.5 -1.9 -3.3 -1.9 -5.7c0 -.9 0 -1.6 0 -2.2c0 -.6 .1 -1.3 .2 -2c0 -.9 .3 -1.4 .5 -1.9c.1 -.6 .5 -1.1 .9 -1.6c.2 -.6 .8 -1 1.4 -1.3c.4 -.4 1.2 -.6 2 -.8l7.5 -1.8l.4 1.7l-7.2 1.9c-1.5 .3 -2.4 .9 -2.9 1.7c-.7 .7 -1 1.8 -1.1 3.2c1.2 -2.1 3 -3.1 5.6 -3.1c1.7 0 3.3 .7 4.5 2c1.2 1.4 1.9 3 1.9 4.9c0 1.9 -.6 3.6 -1.9 5c-1.4 1.3 -3 2.1 -5 2.1Zm-367.8 -16c-1 0 -1.7 -.3 -2.4 -.9c-.7 -.6 -1.1 -1.4 -1.2 -2.4l1.3 -.3c.4 1.2 1.1 1.8 2.3 1.8c1.1 0 2 -.6 2.3 -1.8l1.4 .3c-.3 .9 -.6 1.8 -1.3 2.4c-.7 .6 -1.4 .9 -2.4 .9Z"/></clipPath>
<clipPath id="c4_32"><path d="M709.8 668.1c.9 0 1.7 -.2 2.3 -.5c.5 -.5 .8 -.9 .8 -1.6c0 -.6 -.3 -1.1 -.9 -1.4c-.6 -.5 -1.4 -.5 -2.4 -.5h-4.3v4Zm43.7 0c.8 0 1.7 -.2 2.2 -.5c.5 -.5 .9 -.9 .9 -1.6c0 -.6 -.3 -1.1 -.9 -1.4c-.6 -.5 -1.4 -.5 -2.5 -.5H749v4Zm221.1 0c.9 0 1.7 -.2 2.3 -.5c.5 -.5 .8 -.9 .8 -1.6c0 -.6 -.3 -1.1 -.9 -1.4c-.6 -.5 -1.4 -.5 -2.4 -.5h-4.2v4Zm-620.9 .4c1.2 -.1 2.3 -.4 3.2 -1c.7 -.7 1.2 -1.4 1.2 -2.4v-1.2c-1.4 -.3 -2.6 -.5 -3.9 -.5q-.1 0 -.2 0c-1.1 0 -2 .3 -2.6 .7c-.8 .4 -1.1 1.1 -1.1 1.9c0 .7 .3 1.3 1 1.8c.6 .4 1.4 .7 2.4 .7Zm121.8 0c1.2 -.1 2.3 -.4 3.2 -1c.7 -.7 1.3 -1.4 1.3 -2.4v-1.2c-1.4 -.3 -2.7 -.5 -3.9 -.5c-.1 0 -.2 0 -.3 0c-1.1 0 -2 .3 -2.6 .7c-.8 .4 -1.1 1.1 -1.1 1.9c0 .7 .4 1.3 1 1.8c.6 .4 1.5 .7 2.4 .7Zm55.6 0c1.2 -.1 2.3 -.4 3.1 -1c.8 -.7 1.3 -1.4 1.3 -2.4v-1.2c-1.4 -.3 -2.6 -.5 -3.9 -.5q-.1 0 -.2 0c-1.1 0 -2 .3 -2.6 .7c-.8 .4 -1.1 1.1 -1.1 1.9c0 .7 .3 1.3 1 1.8c.6 .4 1.4 .7 2.4 .7Zm161.4 0c1.2 -.1 2.3 -.4 3.1 -1c.8 -.7 1.3 -1.4 1.3 -2.4v-1.2c-1.4 -.3 -2.6 -.5 -3.9 -.5c-.1 0 -.2 0 -.3 0c-1.1 0 -1.9 .3 -2.6 .7c-.7 .4 -1 1.1 -1 1.9c0 .7 .3 1.3 1 1.8c.6 .4 1.4 .7 2.4 .7Zm17 -6.2c.8 0 1.5 -.2 2 -.6c.4 -.4 .7 -.9 .7 -1.7c0 -.6 -.2 -1 -.7 -1.4c-.5 -.3 -1.1 -.5 -1.9 -.5h-4.3v4.2Zm43.6 0c.8 0 1.5 -.2 2 -.6c.5 -.4 .8 -.9 .8 -1.7c0 -.6 -.2 -1 -.7 -1.4c-.6 -.3 -1.1 -.5 -2 -.5H749v4.2Zm221.2 0c.8 0 1.5 -.2 2 -.6c.4 -.4 .8 -.9 .8 -1.7c0 -.6 -.3 -1 -.8 -1.4c-.5 -.3 -1.1 -.5 -1.9 -.5h-4.2v4.2Zm-635.7 6.2c1.3 -.1 2.5 -.5 3.4 -1.5c.8 -1 1.4 -2.2 1.4 -3.8c0 -1.6 -.5 -2.8 -1.4 -3.8c-1 -1 -2 -1.5 -3.4 -1.5c-1.3 0 -2.4 .5 -3.4 1.5c-1 1 -1.4 2.3 -1.4 3.8c0 1.4 .4 2.8 1.4 3.8c.9 1 2.1 1.5 3.4 1.5Zm34.9 -.4V657.9h-5.6v2c0 3.4 -.6 6.2 -1.7 8.2Zm186.3 .4c1 -.1 2.1 -.5 3 -1.4v-7.8c-1 -.9 -1.9 -1.4 -3 -1.4c-1.4 0 -2.2 .5 -2.9 1.5c-.7 .9 -1 2.2 -1 3.9c0 3.3 1.3 5.2 3.9 5.2Zm8 0c2.5 -.1 3.9 -1.8 3.9 -5.3c-.1 -1.7 -.4 -2.9 -1 -3.9c-.7 -.9 -1.6 -1.4 -2.9 -1.4c-1.2 0 -2.1 .5 -3 1.4v7.8c.9 .9 1.9 1.4 3 1.4Zm33.6 0c1.3 -.1 2.5 -.5 3.4 -1.5c.8 -1 1.4 -2.2 1.4 -3.8c0 -1.6 -.5 -2.8 -1.4 -3.8c-1 -1 -2 -1.5 -3.4 -1.5c-1.4 0 -2.4 .5 -3.4 1.5c-1 1 -1.5 2.3 -1.5 3.8c0 1.4 .5 2.8 1.5 3.8c.9 1 2.1 1.5 3.4 1.5Zm76 0c1.3 -.1 2.5 -.5 3.4 -1.5c.8 -1 1.4 -2.2 1.4 -3.8c0 -1.6 -.5 -2.8 -1.4 -3.8c-1 -1 -2.1 -1.5 -3.4 -1.5c-1.4 0 -2.4 .5 -3.4 1.5c-1 1 -1.5 2.3 -1.5 3.8c0 1.4 .5 2.8 1.5 3.8c.9 1 2.1 1.5 3.4 1.5Zm236.7 -.4V657.9h-5.6v2c0 3.4 -.6 6.2 -1.7 8.2Zm-330.4 .4c1.4 -.1 2.7 -.6 3.6 -1.6c.9 -1.1 1.5 -2.3 1.5 -3.8c-.1 -1.5 -.5 -2.7 -1.5 -3.8c-1.1 -1 -2.2 -1.5 -3.7 -1.5c0 0 -.1 0 -.1 0c-1.5 0 -2.6 .5 -3.5 1.5c-1 1 -1.4 2.3 -1.4 3.8c0 1.4 .5 2.8 1.5 3.8c.9 .9 2.2 1.6 3.6 1.6Zm233.3 0c1.4 -.1 2.7 -.6 3.6 -1.6c.9 -1.1 1.4 -2.3 1.4 -3.8c-.1 -1.5 -.5 -2.7 -1.5 -3.8c-1 -1 -2.1 -1.5 -3.6 -1.5c0 0 -.1 0 -.1 0c-1.5 0 -2.6 .5 -3.5 1.5c-1 1 -1.4 2.3 -1.4 3.8c0 1.4 .5 2.8 1.5 3.8c.9 .9 2.1 1.6 3.6 1.6Zm140.2 0c1.4 -.1 2.7 -.6 3.7 -1.6c.9 -1.1 1.4 -2.3 1.4 -3.8c-.1 -1.5 -.5 -2.7 -1.5 -3.8c-1 -1 -2.2 -1.5 -3.6 -1.5q-.1 0 -.2 0c-1.4 0 -2.5 .5 -3.5 1.5c-.9 1 -1.4 2.3 -1.4 3.8c0 1.4 .5 2.8 1.5 3.8c.9 .9 2.2 1.6 3.6 1.6Zm48.9 0c1.4 -.1 2.7 -.6 3.6 -1.6c.9 -1.1 1.5 -2.3 1.5 -3.8c-.1 -1.5 -.5 -2.7 -1.5 -3.8c-1 -1 -2.2 -1.5 -3.6 -1.5c-.1 0 -.2 0 -.2 0c-1.4 0 -2.6 .5 -3.5 1.5c-1 1 -1.4 2.3 -1.4 3.8c0 1.4 .5 2.8 1.5 3.8c.9 .9 2.2 1.6 3.6 1.6ZM640.5 662.3c-.2 -1.3 -.6 -2.4 -1.3 -3.3c-.9 -.8 -1.8 -1.2 -3.1 -1.2c0 0 -.1 -.1 -.1 -.1c-1.2 0 -2.1 .5 -2.9 1.3c-.9 .8 -1.3 2 -1.4 3.3Zm131.7 0c-.2 -1.3 -.5 -2.4 -1.3 -3.3c-.8 -.8 -1.7 -1.2 -3 -1.2c-.1 0 -.1 -.1 -.2 -.1c-1.1 0 -2 .5 -2.8 1.3c-.9 .8 -1.3 2 -1.5 3.3Zm-391.9 7.6V656.3h2.1v10.8l8 -10.8h2v13.6h-2.1V659.1l-8 10.8Zm33.2 0V656.3h2.1v10.8l7.9 -10.8h2v13.6h-2V659.1l-8 10.8Zm16.6 0V656.3h2.1v10.8l7.9 -10.8h2.1v13.6h-2.1V659.1l-8 10.8Zm24.5 0V656.3h2.1v5.8h7.8v-5.8h2.1v13.6h-2.1v-6h-7.8v6Zm55.4 .4c-.6 0 -1.1 -.1 -1.7 -.3l.3 -1.7c.4 .1 .7 .2 .9 .2c.3 -.1 .7 -.1 1 -.2c.1 -.1 .5 -.3 .8 -.8c.3 -.5 .5 -1 .7 -1.7c.1 -.8 .3 -1.9 .4 -3.3c0 -1.5 .1 -3.1 .1 -5.1v-1.1h9.7V670h-2.1V658.1h-5.5v.3c0 2.1 -.1 3.9 -.2 5.4c-.2 1.4 -.4 2.6 -.6 3.4c-.4 .8 -.6 1.5 -1 2c-.5 .3 -.9 .7 -1.3 .9c-.5 0 -.9 .2 -1.5 .2Zm102 -.4V656.3h2l5.1 7.2l5 -7.2h2v13.6H624V659.5l-5 6.9l-4.9 -6.9v10.4Zm42.1 0V656.3h2.1v5.8H664v-5.8h2.1v13.6H664v-6h-7.8v6Zm49.2 0V656.3h6.6c1.2 0 2.4 .3 3.2 .9c.8 .6 1.2 1.5 1.2 2.6c0 1.4 -.7 2.6 -2.3 3.2c2 .5 3 1.7 3 3.3c0 1.1 -.5 2 -1.4 2.7c-.9 .6 -2 .9 -3.5 .9Zm43.6 0V656.3h6.6c1.3 0 2.4 .3 3.3 .9c.7 .6 1.2 1.5 1.2 2.6c-.1 1.4 -.8 2.6 -2.3 3.2c1.9 .5 2.9 1.7 2.9 3.3c0 1.1 -.4 2 -1.3 2.7c-.9 .6 -2.1 .9 -3.6 .9Zm31 0V656.3H780v5.8h7.8v-5.8h2.1v13.6h-2.1v-6H780v6Zm16.5 0V656.3h2v5.8h7.9v-5.8h2v13.6h-2v-6h-7.9v6Zm61.6 0V656.3h2.1v10.8l8 -10.8h2v13.6H866V659.1l-8 10.8Zm24.5 0V656.3h2.1v10.8l8 -10.8h2v13.6h-2.1V659.1l-8 10.8Zm42.4 4.3c-1 0 -1.9 -.2 -2.9 -.6l.7 -1.7c.6 .4 1.4 .6 2.2 .6c.5 -.1 1.1 -.2 1.5 -.6c.4 -.5 .8 -1.1 1.3 -2l-6.2 -13.6h2.2l4.9 11.4L931 656.3h2.2l-5.7 14.1c-.7 1.3 -1.3 2.4 -2 3c-.8 .5 -1.5 .8 -2.6 .8Zm12.3 -4.3l5.3 -6.9l-5.1 -6.7h2.3l4 5.3l4 -5.3H948l-5.2 6.6l5.4 7h-2.3l-4.2 -5.5l-4.3 5.5Zm32.9 0V656.3h6.6c1.2 0 2.4 .3 3.2 .9c.8 .6 1.2 1.5 1.2 2.6c0 1.4 -.7 2.6 -2.3 3.2c2 .5 3 1.7 3 3.3c0 1.1 -.4 2 -1.3 2.7c-1 .6 -2.1 .9 -3.6 .9Zm15.4 0V656.3h2.1v5.8h7.8v-5.8h2.1v13.6h-2.1v-6h-7.8v6Zm61.7 0V656.3h2v10.8l8 -10.8h2v13.6h-2.1V659.1l-7.9 10.8Zm-723.4 -.1V657.9h-4.9v-1.7h11.7v1.7h-4.7v11.9Zm40.7 3.5v-5.2H364c1.2 -2.3 1.8 -5.4 1.8 -9.5v-2.4h9.8v11.9h1.9v5.2h-1.9v-3.4H364.5l-.3 3.4Zm131.7 -3.5V656.2h11.7v13.6h-2V657.9h-7.6v11.9Zm50.9 0V657.9h-4.9v-1.7h11.7v1.7h-4.7v11.9Zm191.9 0V657.9h-4.9v-1.7h11.6v1.7h-4.6v11.9Zm109.1 0V657.9h-4.9v-1.7h11.6v1.7h-4.6v11.9Zm57 3.5v-5.2h1.5c1.1 -2.3 1.8 -5.4 1.8 -9.5v-2.4h9.7v11.9H918v5.2h-1.9v-3.4h-11l-.3 3.4Zm132.1 -3.5V657.9h-4.9v-1.7H1042v1.7h-4.7v11.9Zm-703.4 4.4V656.3h2v2.9c1.4 -2.1 3.1 -3 5.2 -3c.1 -.1 .2 -.1 .2 -.1c1.6 0 3.1 .7 4.3 2c1.3 1.2 2 3 2 5.1c0 2 -.7 3.8 -2 5.1c-1.3 1.3 -2.8 2 -4.5 2c-2.2 0 -3.8 -1 -5.2 -2.9v6.8Zm262.7 0V656.3h2.1v2.9c1.3 -2.1 3.1 -3 5.2 -3q.1 -.1 .2 -.1c1.6 0 3.1 .7 4.3 2c1.3 1.2 2 3 2 5.1c-.1 2 -.7 3.8 -2 5.1c-1.3 1.3 -2.8 2 -4.5 2c-2.2 0 -3.9 -1 -5.2 -2.9v6.8Zm76 0V656.3h2.1v2.9c1.3 -2.1 3.1 -3 5.2 -3q.1 -.1 .2 -.1c1.6 0 3.1 .7 4.3 2c1.3 1.2 1.9 3 1.9 5.1c0 2 -.6 3.8 -1.9 5.1c-1.3 1.3 -2.8 2 -4.5 2c-2.2 0 -3.9 -1 -5.2 -2.9v6.8ZM353.3 670.3c-1.4 0 -2.6 -.4 -3.6 -1.2c-1 -.8 -1.5 -1.7 -1.5 -3.1c0 -1.4 .6 -2.5 1.6 -3.2c1 -.9 2.5 -1.2 4.2 -1.2c1.4 0 2.8 .2 4.1 .7v-.5c0 -1.3 -.3 -2.2 -1 -2.9c-.8 -.6 -1.7 -1 -2.9 -1c-1.4 0 -2.7 .4 -4.1 1.1l-.6 -1.7c1.6 -.9 3.3 -1.1 4.9 -1.1c.1 -.1 .2 -.1 .3 -.1c1.7 0 3.2 .6 4.1 1.5c.9 1 1.4 2.3 1.4 4v8.3h-2.1v-2.1c-1.2 1.6 -2.8 2.5 -4.8 2.5Zm121.8 0c-1.4 0 -2.6 -.4 -3.5 -1.2c-1.1 -.8 -1.5 -1.7 -1.5 -3.1c0 -1.4 .5 -2.5 1.5 -3.2c1 -.9 2.5 -1.2 4.2 -1.2c1.4 0 2.8 .2 4.2 .7v-.5c-.1 -1.3 -.4 -2.2 -1.1 -2.9c-.7 -.6 -1.7 -1 -2.9 -1c-1.4 0 -2.7 .4 -4.1 1.1l-.6 -1.7c1.6 -.9 3.3 -1.1 4.9 -1.1c.1 -.1 .2 -.1 .3 -.1c1.8 0 3.2 .6 4.1 1.5c.9 1 1.4 2.3 1.4 4v8.3h-2v-2.1c-1.3 1.6 -2.9 2.5 -4.9 2.5Zm55.6 0c-1.4 0 -2.6 -.4 -3.6 -1.2c-1 -.8 -1.5 -1.7 -1.5 -3.1c0 -1.4 .6 -2.5 1.6 -3.2c1 -.9 2.4 -1.2 4.2 -1.2c1.4 0 2.8 .2 4.1 .7v-.5c0 -1.3 -.3 -2.2 -1 -2.9c-.8 -.6 -1.7 -1 -2.9 -1c-1.4 0 -2.7 .4 -4.1 1.1l-.6 -1.7c1.6 -.9 3.3 -1.1 4.9 -1.1c.1 -.1 .2 -.1 .3 -.1c1.7 0 3.1 .6 4.1 1.5c.9 1 1.4 2.3 1.4 4v8.3h-2.1v-2.1c-1.3 1.6 -2.8 2.5 -4.8 2.5Zm161.4 0c-1.4 0 -2.6 -.4 -3.6 -1.2c-1 -.8 -1.5 -1.7 -1.5 -3.1c0 -1.4 .5 -2.5 1.6 -3.2c.9 -.9 2.4 -1.2 4.2 -1.2c1.3 0 2.8 .2 4.1 .7v-.5c-.1 -1.3 -.3 -2.2 -1 -2.9c-.8 -.6 -1.7 -1 -3 -1c-1.4 0 -2.6 .4 -4 1.1l-.7 -1.7c1.6 -.9 3.4 -1.1 5 -1.1c.1 -.1 .2 -.1 .3 -.1c1.7 0 3.1 .6 4.1 1.5c.8 1 1.4 2.3 1.4 4v8.3h-2.1v-2.1c-1.3 1.6 -2.8 2.5 -4.8 2.5Zm-283.4 3v-3.4H396.9V656.1H399v12h7.6v-12h2.1v12h1.9v5.2Zm174.9 -3c-2 0 -3.7 -.7 -5 -2.1c-1.4 -1.5 -2.1 -3.1 -2.1 -5.1c0 -2 .7 -3.6 2.1 -5c1.3 -1.5 3.1 -2.1 5.1 -2.1c2 0 3.7 .7 5.1 2c1.3 1.4 2 3.1 2 5.1c0 1.9 -.7 3.6 -2 5.1c-1.5 1.3 -3.1 2.1 -5.2 2.1Zm52.8 0c-1.9 0 -3.5 -.7 -4.8 -2c-1.4 -1.5 -2 -3.1 -2 -5.2c0 -2 .6 -3.7 1.9 -5.1c1.2 -1.4 2.8 -2 4.7 -2c1.9 0 3.5 .7 4.6 2.1c1.1 1.3 1.8 3.1 1.8 5.2c0 .3 0 .6 -.1 .8H631.7c.1 1.3 .6 2.4 1.5 3.2c.8 .8 2 1.2 3.3 1.2c1.6 -.1 3.1 -.7 4.3 -1.9l1.3 1.1c-1.6 1.7 -3.4 2.6 -5.7 2.6Zm88.3 0c-2.1 0 -3.6 -.7 -5 -2.1c-1.3 -1.5 -2 -3.1 -2 -5.1c0 -2 .7 -3.6 2 -5c1.3 -1.5 3 -2.1 5 -2.1c2 0 3.9 .8 5.4 2.4l-1.3 1.4c-1.3 -1.4 -2.6 -2 -4.2 -2c0 0 -.1 0 -.1 0c-1.4 0 -2.4 .5 -3.3 1.5c-1 1 -1.4 2.3 -1.4 3.8c-.1 1.4 .5 2.8 1.4 3.8c.9 .9 2.2 1.6 3.6 1.6c1.4 -.1 2.8 -.7 4.1 -2.1l1.3 1.2c-1.6 1.8 -3.4 2.7 -5.5 2.7Zm43.5 0c-2 0 -3.6 -.7 -4.9 -2c-1.4 -1.5 -2 -3.1 -2 -5.2c0 -2 .7 -3.7 1.9 -5.1c1.2 -1.4 2.8 -2 4.7 -2c1.9 0 3.5 .7 4.7 2.1c1.1 1.3 1.7 3.1 1.7 5.2c0 .3 0 .6 0 .8H763.4c.1 1.3 .7 2.4 1.6 3.2c.8 .8 2 1.2 3.2 1.2c1.6 -.1 3.1 -.7 4.4 -1.9l1.2 1.1c-1.6 1.7 -3.4 2.6 -5.6 2.6Zm48.7 0c-2.1 0 -3.7 -.7 -5.1 -2.1c-1.3 -1.5 -2 -3.1 -2 -5.1c0 -2 .7 -3.6 2.1 -5c1.3 -1.5 3 -2.1 5.1 -2.1c1.9 0 3.7 .7 5.1 2c1.2 1.4 2 3.1 2 5.1c0 1.9 -.7 3.6 -2.1 5.1c-1.4 1.3 -3 2.1 -5.1 2.1Zm16.9 0c-2.1 0 -3.6 -.7 -5 -2.1c-1.3 -1.5 -2 -3.1 -2 -5.1c0 -2 .7 -3.6 2 -5c1.4 -1.5 3 -2.1 5 -2.1c2 0 3.9 .8 5.4 2.4l-1.2 1.4c-1.4 -1.4 -2.7 -2 -4.2 -2q-.1 0 -.2 0c-1.4 0 -2.4 .5 -3.3 1.5c-1 1 -1.4 2.3 -1.4 3.8c0 1.4 .5 2.8 1.4 3.8c.9 .9 2.2 1.6 3.6 1.6c1.4 -.1 2.8 -.7 4.1 -2.1l1.3 1.2c-1.6 1.8 -3.4 2.7 -5.5 2.7Zm123.4 0c-2.1 0 -3.8 -.7 -5.1 -2.1c-1.4 -1.5 -2 -3.1 -2 -5.1c0 -2 .6 -3.6 2 -5c1.4 -1.5 3.1 -2.1 5.1 -2.1c2 0 3.8 .7 5.1 2c1.3 1.4 2.1 3.1 2.1 5.1c0 1.9 -.7 3.6 -2.1 5.1c-1.5 1.3 -3.1 2.1 -5.1 2.1Zm48.9 0c-2.1 0 -3.8 -.7 -5.1 -2.1c-1.4 -1.5 -2.1 -3.1 -2.1 -5.1c0 -2 .7 -3.6 2.1 -5c1.4 -1.5 3.1 -2.1 5.1 -2.1c2 0 3.7 .7 5.1 2c1.3 1.4 2 3.1 2 5.1c0 1.9 -.6 3.6 -2 5.1c-1.5 1.3 -3.1 2.1 -5.1 2.1Zm16.8 0c-2 0 -3.6 -.7 -4.9 -2.1c-1.4 -1.5 -2 -3.1 -2 -5.1c0 -2 .6 -3.6 2 -5c1.3 -1.5 3 -2.1 4.9 -2.1c2 0 4 .8 5.5 2.4l-1.3 1.4c-1.3 -1.4 -2.7 -2 -4.2 -2c0 0 -.1 0 -.2 0c-1.3 0 -2.3 .5 -3.3 1.5c-.9 1 -1.4 2.3 -1.4 3.8c0 1.4 .5 2.8 1.5 3.8c.9 .9 2.1 1.6 3.5 1.6c1.5 -.1 2.9 -.7 4.1 -2.1l1.4 1.2c-1.7 1.8 -3.4 2.7 -5.6 2.7Zm-460.1 3.9v-5.3c-1.2 .8 -2.3 1.4 -3.4 1.4c-1.7 0 -3 -.7 -4 -1.9c-1.1 -1.3 -1.5 -3 -1.5 -5.2c0 -2.3 .5 -3.9 1.5 -5.2c.9 -1.2 2.3 -1.8 4 -1.8c0 -.1 .1 -.1 .2 -.1c1 0 2.1 .6 3.2 1.5v-6.1h2v6.1c1.1 -1.1 2.2 -1.4 3.4 -1.4c.1 -.1 .2 -.1 .2 -.1c1.6 0 2.9 .7 3.8 1.9c1 1.3 1.5 3 1.5 5.2c0 2.1 -.5 3.9 -1.5 5.2c-1 1.2 -2.3 1.9 -4 1.9c-.7 0 -1.4 -.2 -1.8 -.4c-.6 -.3 -1 -.6 -1.6 -1v5.3ZM436.1 654.3c-1.1 0 -1.8 -.3 -2.5 -.9c-.7 -.7 -1 -1.5 -1.2 -2.5l1.4 -.3c.3 1.3 1.1 1.9 2.3 1.9c1 -.1 1.9 -.6 2.2 -1.9l1.4 .3c-.2 .9 -.5 1.8 -1.2 2.5c-.7 .6 -1.5 .9 -2.4 .9ZM856.5 633.5c.8 -.1 1.7 -.2 2.2 -.6c.5 -.5 .9 -.9 .9 -1.5c0 -.7 -.3 -1.1 -.9 -1.5c-.6 -.4 -1.4 -.5 -2.5 -.5H852v4.1Zm65.5 0c.9 -.1 1.7 -.2 2.3 -.6c.5 -.5 .8 -.9 .8 -1.5c0 -.7 -.3 -1.1 -.9 -1.5c-.6 -.4 -1.4 -.5 -2.5 -.5h-4.2v4.1Zm-387.9 .3c1.2 -.1 2.3 -.3 3.2 -.9c.8 -.7 1.3 -1.5 1.3 -2.4v-1.2c-1.4 -.4 -2.6 -.5 -3.9 -.5c-.1 0 -.2 0 -.3 0c-1.1 0 -2 .2 -2.6 .6c-.7 .5 -1 1.1 -1 1.9c-.1 .8 .3 1.4 .9 1.8c.7 .4 1.5 .7 2.4 .7Zm401.2 0c1.2 -.1 2.3 -.3 3.2 -.9c.8 -.7 1.3 -1.5 1.3 -2.4v-1.2c-1.4 -.4 -2.6 -.5 -3.9 -.5c-.1 0 -.2 0 -.3 0c-1.1 0 -2 .2 -2.6 .6c-.7 .5 -1 1.1 -1 1.9c-.1 .8 .3 1.4 .9 1.8c.7 .4 1.5 .7 2.4 .7Zm-569.2 -.3c1 -.1 1.8 -.2 2.4 -.7c.5 -.5 .8 -1.1 .8 -1.9c0 -.9 -.3 -1.4 -.9 -1.8c-.6 -.5 -1.4 -.7 -2.4 -.7h-3.6v5.1Zm262.4 0c1 -.1 1.8 -.2 2.4 -.7c.5 -.5 .9 -1.1 .9 -1.9c0 -.9 -.3 -1.4 -.9 -1.8c-.6 -.5 -1.4 -.7 -2.5 -.7h-3.5v5.1Zm184.1 0c1 -.1 1.8 -.2 2.4 -.7c.5 -.5 .8 -1.1 .8 -1.9c0 -.9 -.3 -1.4 -.8 -1.8c-.7 -.5 -1.4 -.7 -2.5 -.7h-3.6v5.1Zm43.6 -5.9c.7 0 1.5 -.2 1.9 -.6c.5 -.4 .8 -.9 .8 -1.6c0 -.6 -.2 -1.1 -.7 -1.4c-.6 -.4 -1.1 -.6 -2 -.6H852v4.2Zm65.5 0c.7 0 1.5 -.2 2 -.6c.4 -.4 .7 -.9 .7 -1.6c0 -.6 -.2 -1.1 -.7 -1.4c-.5 -.4 -1.1 -.6 -2 -.6h-4.2v4.2Zm-574.5 6.2c1.3 -.1 2.5 -.5 3.4 -1.5c.8 -1 1.4 -2.2 1.4 -3.7c0 -1.4 -.5 -2.6 -1.4 -3.6c-1.1 -1.2 -2.1 -1.6 -3.5 -1.6c0 0 -.1 0 -.1 0c-1.4 0 -2.4 .6 -3.3 1.5c-.9 .9 -1.3 2.3 -1.3 3.7c0 1.5 .5 2.7 1.4 3.7c.9 1 2 1.5 3.4 1.5Zm51.9 -.3V623.3h-5.5v1.9c-.1 3.4 -.6 6.2 -1.8 8.3Zm120 .3c1.3 -.1 2.5 -.5 3.4 -1.4c.8 -1 1.3 -2.3 1.3 -3.9c0 -1.6 -.4 -2.8 -1.3 -3.7c-1.1 -1.1 -2.1 -1.5 -3.4 -1.5c-1.4 0 -2.5 .5 -3.4 1.5c-1.1 .9 -1.5 2.2 -1.5 3.8c0 1.4 .5 2.7 1.5 3.7c.9 1 2.1 1.5 3.4 1.5Zm153.6 0c1.3 -.1 2.5 -.5 3.4 -1.4c.8 -1 1.4 -2.3 1.4 -3.9c0 -1.6 -.5 -2.8 -1.4 -3.7c-1 -1.1 -2.1 -1.5 -3.4 -1.5c-1.4 0 -2.4 .5 -3.4 1.5c-1 .9 -1.5 2.2 -1.5 3.8c0 1.4 .5 2.7 1.5 3.7c.9 1 2.1 1.5 3.4 1.5Zm215.1 0c1.3 -.1 2.5 -.5 3.4 -1.4c.8 -1 1.4 -2.3 1.4 -3.9c0 -1.6 -.5 -2.8 -1.4 -3.7c-1 -1.1 -2 -1.5 -3.4 -1.5c-1.4 0 -2.4 .5 -3.4 1.5c-1 .9 -1.5 2.2 -1.5 3.8c0 1.4 .5 2.7 1.5 3.7c.9 1 2.1 1.5 3.4 1.5Zm-121.2 0c1.4 -.1 2.7 -.5 3.6 -1.5c.9 -1.2 1.5 -2.3 1.5 -3.8c-.1 -1.6 -.5 -2.8 -1.5 -3.8c-1 -1.1 -2.2 -1.6 -3.6 -1.6q-.1 0 -.2 0c-1.4 0 -2.6 .6 -3.5 1.6c-1 1 -1.4 2.3 -1.4 3.8c0 1.4 .5 2.7 1.5 3.8c.9 .9 2.2 1.5 3.6 1.5Zm138 0c1.4 -.1 2.7 -.5 3.6 -1.5c.9 -1.2 1.5 -2.3 1.5 -3.8c-.1 -1.6 -.5 -2.8 -1.5 -3.8c-1 -1.1 -2.2 -1.6 -3.7 -1.6c0 0 -.1 0 -.1 0c-1.5 0 -2.6 .6 -3.5 1.6c-1 1 -1.4 2.3 -1.4 3.8c0 1.4 .5 2.7 1.5 3.8c.9 .9 2.2 1.5 3.6 1.5ZM384.5 627.6c-.2 -1.3 -.6 -2.4 -1.3 -3.2c-.9 -.9 -1.8 -1.3 -3.1 -1.3q-.1 0 -.2 0c-1.1 0 -2 .5 -2.8 1.3c-.9 .8 -1.3 1.9 -1.5 3.2Zm64.4 0c-.2 -1.3 -.5 -2.4 -1.3 -3.2c-.8 -.9 -1.7 -1.3 -3 -1.3q-.1 0 -.2 0c-1.2 0 -2 .5 -2.8 1.3c-.9 .8 -1.4 1.9 -1.5 3.2Zm244.3 0c-.2 -1.3 -.5 -2.4 -1.3 -3.2c-.8 -.9 -1.8 -1.3 -3 -1.3q-.1 0 -.2 0c-1.2 0 -2 .5 -2.8 1.3c-.9 .8 -1.4 1.9 -1.5 3.2Zm182.1 0c-.2 -1.3 -.6 -2.4 -1.4 -3.2c-.8 -.9 -1.7 -1.3 -3 -1.3q-.1 0 -.2 0c-1.1 0 -2 .5 -2.8 1.3c-.9 .8 -1.3 1.9 -1.5 3.2Zm-515 7.7V623.4h-4.1v-1.8h6.2v5h3.7c1.5 0 2.8 .4 3.8 1.1c.9 .6 1.5 1.7 1.5 3.1c0 1.3 -.5 2.4 -1.4 3.3c-.9 .7 -2.2 1.2 -3.7 1.2Zm45.7 0V621.6h2.1v10.8L416 621.6h2v13.7h-2V624.5l-8 10.8Zm16.6 0V621.6h2.1v5.9h7.8v-5.9h2.1v13.7h-2.1v-6h-7.8v6Zm32 0V621.6h2.1v5.9h7.8v-5.9h2.1v13.7h-2.1v-6h-7.8v6Zm16.5 0V621.6h2v10.8l8 -10.8h2v13.7H481V624.5l-7.9 10.8Zm16.6 0V621.6h2.1v10.8l7.9 -10.8h2v13.7h-2V624.5l-8 10.8Zm70.2 .3c-.6 0 -1.1 -.1 -1.7 -.2l.3 -1.8c.3 .1 .7 .2 .9 .2c.3 -.1 .7 0 1 -.1c.1 -.2 .5 -.4 .8 -.8c.2 -.5 .5 -1 .6 -1.8c.2 -.8 .3 -1.8 .5 -3.2c0 -1.5 .1 -3.1 .1 -5.1v-1.2h9.7v13.8H568v-12h-5.5v.4c0 2 -.1 3.8 -.2 5.3c-.3 1.4 -.4 2.6 -.7 3.5c-.3 .7 -.5 1.5 -1 1.9c-.5 .4 -.8 .8 -1.2 .9c-.5 .1 -.9 .2 -1.5 .2Zm16.6 -.3V621.6h2.1v10.8l8 -10.8h2v13.7h-2.1V624.5l-8 10.8Zm25.3 0v-5.6c-.6 .3 -1.3 .6 -2.1 .9c-1 .1 -1.7 .4 -2.4 .4c-1.4 0 -2.5 -.4 -3.3 -1.1c-.9 -.8 -1.2 -1.7 -1.2 -3.1v-5.2h2.1v4.9c0 .8 .2 1.5 .7 1.9c.4 .5 1.1 .8 2 .8c1.5 -.1 3 -.5 4.2 -1.3v-6.3h2.1v13.7Zm6.5 0V621.6h2.1v5.9h7.8v-5.9h2.1v13.7h-2.1v-6h-7.8v6Zm16.5 0V621.6h2.1v5h3.6c1.5 0 2.8 .4 3.8 1.1c1 .6 1.5 1.7 1.5 3.1c0 1.3 -.4 2.4 -1.4 3.3c-.9 .7 -2.1 1.2 -3.7 1.2Zm13.5 0V621.6h2.1v13.7Zm5.2 0l5.4 -7l-5.2 -6.7H644l4.1 5.3l4 -5.3h2.3l-5.2 6.7l5.4 7h-2.4L648 629.7l-4.2 5.6Zm56.9 .3c-.6 0 -1.1 -.1 -1.7 -.2l.2 -1.8c.4 .1 .8 .2 1 .2c.3 -.1 .7 0 1 -.1c.1 -.2 .5 -.4 .8 -.8c.2 -.5 .5 -1 .6 -1.8c.2 -.8 .3 -1.8 .4 -3.2c.1 -1.5 .2 -3.1 .2 -5.1v-1.2h9.7v13.8h-2.1v-12H703v.4c0 2 -.1 3.8 -.3 5.3c-.2 1.4 -.3 2.6 -.6 3.5c-.3 .7 -.5 1.5 -1 1.9c-.5 .4 -.8 .8 -1.2 .9c-.5 .1 -.9 .2 -1.5 .2Zm16.6 -.3V621.6h2.1v10.8L725 621.6h2.1v13.7H725V624.5l-8 10.8Zm28.8 0V621.6h2.1v10.8l8 -10.8h2v13.7h-2.1V624.5l-8 10.8Zm46.6 0V621.6h2.1v5.9h7.8v-5.9h2.1v13.7h-2.1v-6h-7.8v6Zm16.5 0V621.6h2v5h3.7c1.5 0 2.8 .4 3.8 1.1c.9 .6 1.5 1.7 1.5 3.1c0 1.3 -.5 2.4 -1.4 3.3c-.9 .7 -2.2 1.2 -3.7 1.2Zm13.5 0V621.6h2.1v13.7Zm5.2 0l5.3 -7l-5.1 -6.7h2.3l4 5.3l4.1 -5.3h2.2l-5.1 6.7l5.3 7h-2.3l-4.2 -5.6l-4.2 5.6Zm24.3 0V621.6h6.6c1.3 0 2.5 .4 3.3 1c.7 .5 1.2 1.5 1.2 2.5c-.1 1.5 -.8 2.6 -2.3 3.3c1.9 .5 2.9 1.6 2.9 3.3c0 1.1 -.4 2 -1.3 2.6c-.9 .6 -2.1 1 -3.6 1Zm65.5 0V621.6H922c1.3 0 2.5 .4 3.3 1c.7 .5 1.2 1.5 1.2 2.5c0 1.5 -.8 2.6 -2.3 3.3c1.9 .5 3 1.6 3 3.3c-.1 1.1 -.5 2 -1.4 2.6c-.9 .6 -2.1 1 -3.6 1Zm30.7 0V621.6h2.1v5.9H956v-5.9h2.1v13.7H956v-6h-7.8v6Zm16.5 0V621.6h2v10.8l8 -10.8h2v13.7h-2.1V624.5l-7.9 10.8Zm16.6 0V621.6h2.1v10.8l7.9 -10.8h2v13.7h-2V624.5l-8 10.8Zm24.5 0V621.6h2.1v10.8l7.9 -10.8h2.1v13.7h-2.1V624.5l-8 10.8Zm-615.5 3.3v-5.1h1.4c1.2 -2.3 1.9 -5.5 1.9 -9.6v-2.4h9.7v12h1.9v5.1h-1.9v-3.3h-11l-.4 3.3Zm343.4 -3.5V621.5h9.3v1.8h-7.2v11.8Zm-219.4 4.5v-18h2.1v2.9c1.3 -2.1 3.1 -3 5.2 -3c0 0 .1 0 .2 0c1.5 0 3.1 .7 4.3 1.9c1.2 1.3 1.9 3 1.9 5.2c0 2 -.6 3.8 -1.9 5.1c-1.3 1.2 -2.8 1.9 -4.5 1.9c-2.3 0 -3.9 -1 -5.2 -2.9v6.9Zm153.6 0v-18h2.1v2.9c1.3 -2.1 3.1 -3 5.2 -3q.1 0 .2 0c1.6 0 3.1 .7 4.3 1.9c1.3 1.3 2 3 2 5.2c-.1 2 -.7 3.8 -2 5.1c-1.3 1.2 -2.8 1.9 -4.5 1.9c-2.2 0 -3.9 -1 -5.2 -2.9v6.9Zm215.1 0v-18H883v2.9c1.4 -2.1 3.1 -3 5.2 -3q.1 0 .2 0c1.6 0 3.1 .7 4.3 1.9c1.3 1.3 2 3 2 5.2c-.1 2 -.7 3.8 -2 5.1c-1.3 1.2 -2.8 1.9 -4.5 1.9c-2.2 0 -3.8 -1 -5.2 -2.9v6.9Zm-347.2 -4c-1.4 0 -2.5 -.4 -3.5 -1.1c-1.1 -.8 -1.5 -1.8 -1.5 -3.1c0 -1.5 .5 -2.5 1.6 -3.3c.9 -.8 2.4 -1.1 4.2 -1.1c1.3 0 2.7 .2 4.1 .6v-.4c-.1 -1.4 -.4 -2.2 -1 -2.9c-.8 -.7 -1.7 -1 -3 -1c-1.4 0 -2.7 .3 -4.1 1l-.6 -1.7c1.6 -.8 3.3 -1.1 5 -1.1c.1 0 .2 0 .3 0c1.7 0 3.1 .6 4 1.5c.9 .9 1.5 2.3 1.5 4v8.3h-2.1v-2.1c-1.3 1.5 -2.8 2.4 -4.9 2.4Zm401.2 0c-1.4 0 -2.5 -.4 -3.5 -1.1c-1.1 -.8 -1.5 -1.8 -1.5 -3.1c0 -1.5 .5 -2.5 1.5 -3.3c1 -.8 2.5 -1.1 4.3 -1.1c1.3 0 2.7 .2 4.1 .6v-.4c-.1 -1.4 -.4 -2.2 -1.1 -2.9c-.7 -.7 -1.6 -1 -2.9 -1c-1.4 0 -2.7 .3 -4.1 1l-.6 -1.7c1.6 -.8 3.3 -1.1 5 -1.1q.1 0 .2 0c1.8 0 3.2 .6 4.1 1.5c.9 .9 1.5 2.3 1.5 4v8.3h-2.1v-2.1c-1.3 1.5 -2.8 2.4 -4.9 2.4Zm-554.5 0c-2 0 -3.5 -.7 -4.9 -2c-1.4 -1.4 -1.9 -3 -1.9 -5.2c0 -2 .6 -3.6 1.8 -5c1.2 -1.4 2.9 -2.1 4.7 -2.1c1.9 0 3.6 .7 4.7 2.1c1.1 1.4 1.7 3.2 1.7 5.3c0 .2 0 .5 0 .7H375.6c.1 1.3 .7 2.4 1.6 3.2c.8 .8 2 1.2 3.3 1.2c1.5 -.1 3 -.6 4.3 -1.9l1.3 1.1c-1.6 1.7 -3.5 2.6 -5.7 2.6Zm64.5 0c-2 0 -3.6 -.7 -4.9 -2c-1.4 -1.4 -2 -3 -2 -5.2c0 -2 .7 -3.6 1.9 -5c1.2 -1.4 2.8 -2.1 4.7 -2.1c1.9 0 3.5 .7 4.7 2.1c1 1.4 1.7 3.2 1.7 5.3c0 .2 0 .5 0 .7H440.1c.1 1.3 .7 2.4 1.6 3.2c.8 .8 2 1.2 3.2 1.2c1.6 -.1 3.1 -.6 4.4 -1.9l1.2 1.1c-1.6 1.7 -3.4 2.6 -5.6 2.6Zm104.1 0c-2.1 0 -4 -.7 -5.6 -2l1 -1.5c1.3 1.1 2.9 1.7 4.5 1.7c.8 -.1 1.7 -.2 2.4 -.6c.6 -.5 1 -1 1 -1.7c0 -.8 -.3 -1.3 -.9 -1.6c-.7 -.5 -1.4 -.6 -2.5 -.6h-1.8v-1.8h1.8c.9 -.1 1.6 -.2 2.2 -.7c.5 -.5 .8 -1 .8 -1.7c0 -.6 -.2 -1.1 -.8 -1.4c-.6 -.4 -1.2 -.6 -2.1 -.6q-.1 0 -.2 0c-1.5 0 -2.8 .5 -3.9 1.4l-1 -1.4c1.4 -1.2 3.2 -1.8 5.2 -1.8c1.5 0 2.7 .3 3.6 1c.8 .7 1.3 1.6 1.3 2.7c0 1.5 -.7 2.6 -2.2 3.2c1.6 .5 2.5 1.7 2.5 3.3c0 1.1 -.4 2.1 -1.4 2.9c-1.1 .8 -2.3 1.2 -3.9 1.2Zm140.2 0c-2 0 -3.6 -.7 -4.9 -2c-1.4 -1.4 -2 -3 -2 -5.2c0 -2 .7 -3.6 1.9 -5c1.2 -1.4 2.8 -2.1 4.7 -2.1c1.9 0 3.5 .7 4.7 2.1c1 1.4 1.7 3.2 1.7 5.3c0 .2 0 .5 0 .7H684.4c.1 1.3 .7 2.4 1.6 3.2c.8 .8 2 1.2 3.2 1.2c1.6 -.1 3.1 -.6 4.3 -1.9l1.3 1.1c-1.6 1.7 -3.4 2.6 -5.6 2.6Zm77.4 0c-2.1 0 -3.8 -.7 -5.1 -2.1c-1.4 -1.5 -2.1 -3.1 -2.1 -5.1c0 -2 .7 -3.6 2.1 -5c1.4 -1.4 3.1 -2.1 5.1 -2.1c2 0 3.7 .7 5.1 2.1c1.3 1.4 2.1 3.1 2.1 5c0 2 -.7 3.7 -2.1 5.1c-1.5 1.3 -3.1 2.1 -5.1 2.1Zm14.4 0c-2.1 0 -4 -.7 -5.6 -2l1 -1.5c1.3 1.1 2.9 1.7 4.5 1.7c.8 -.1 1.7 -.2 2.4 -.6c.6 -.5 .9 -1 .9 -1.7c0 -.8 -.2 -1.3 -.8 -1.6c-.7 -.5 -1.5 -.6 -2.5 -.6h-1.8v-1.8h1.8c.9 -.1 1.6 -.2 2.2 -.7c.5 -.5 .8 -1 .8 -1.7c0 -.6 -.3 -1.1 -.8 -1.4c-.6 -.4 -1.3 -.6 -2.1 -.6q-.1 0 -.2 0c-1.5 0 -2.8 .5 -3.9 1.4l-1 -1.4c1.4 -1.2 3.2 -1.8 5.2 -1.8c1.4 0 2.7 .3 3.6 1c.8 .7 1.3 1.6 1.3 2.7c0 1.5 -.7 2.6 -2.2 3.2c1.6 .5 2.5 1.7 2.5 3.3c0 1.1 -.5 2.1 -1.4 2.9c-1.1 .8 -2.3 1.2 -3.9 1.2Zm90.2 0c-2 0 -3.6 -.7 -4.9 -2c-1.4 -1.4 -1.9 -3 -1.9 -5.2c0 -2 .6 -3.6 1.8 -5c1.2 -1.4 2.9 -2.1 4.7 -2.1c1.9 0 3.6 .7 4.7 2.1c1.1 1.4 1.7 3.2 1.7 5.3c0 .2 0 .5 0 .7H866.4c.1 1.3 .7 2.4 1.6 3.2c.8 .8 2 1.2 3.3 1.2c1.5 -.1 3 -.6 4.3 -1.9l1.2 1.1c-1.6 1.7 -3.4 2.6 -5.6 2.6Zm33.3 0c-2 0 -3.7 -.7 -5 -2.1c-1.4 -1.5 -2.1 -3.1 -2.1 -5.1c0 -2 .7 -3.6 2.1 -5c1.3 -1.4 3.1 -2.1 5.1 -2.1c2 0 3.7 .7 5.1 2.1c1.3 1.4 2 3.1 2 5c0 2 -.6 3.7 -2 5.1c-1.5 1.3 -3.1 2.1 -5.2 2.1ZM327.3 633.8c2.1 -.1 3.8 -.7 5.2 -2.2c1.3 -1.6 2.1 -3.4 2.1 -5.5c0 -2.2 -.7 -4 -2.1 -5.5c-1.5 -1.6 -3.1 -2.3 -5.2 -2.3c-2.2 0 -3.9 .8 -5.3 2.2c-1.4 1.5 -2 3.4 -2 5.6c0 2.1 .7 4 2.1 5.5c1.3 1.4 3.1 2.2 5.2 2.2Zm0 1.8c-2.8 0 -5 -.9 -6.8 -2.8c-1.8 -1.9 -2.6 -4.1 -2.6 -6.7c0 -2.7 .9 -4.9 2.7 -6.8c1.6 -1.9 4 -2.8 6.7 -2.8c.1 0 .2 0 .3 0c2.5 0 4.7 1 6.4 2.8c1.7 1.9 2.6 4.1 2.6 6.8c0 2.5 -.8 4.8 -2.6 6.7c-1.8 1.8 -4 2.8 -6.7 2.8Zm19.8 0c-2.1 0 -3.7 -.7 -4.9 -2.1c-1.3 -1.5 -1.9 -3.3 -1.9 -5.6c0 -1 0 -1.7 0 -2.3c0 -.6 .1 -1.3 .2 -2c0 -.9 .2 -1.4 .5 -1.9c.1 -.6 .5 -1.1 .8 -1.6c.3 -.6 .9 -.9 1.5 -1.3c.4 -.4 1.2 -.6 2 -.8l7.5 -1.8l.4 1.7l-7.3 1.9c-1.4 .3 -2.3 .9 -2.9 1.7c-.6 .7 -.9 1.8 -1 3.2c1.1 -2.1 3 -3.1 5.6 -3.1c1.7 0 3.3 .7 4.5 2.1c1.2 1.3 1.9 2.9 1.9 4.8c0 1.9 -.6 3.6 -1.9 5c-1.4 1.3 -3 2.1 -5 2.1Zm146.5 -16c-1 0 -1.7 -.3 -2.4 -.9c-.7 -.6 -1.1 -1.4 -1.2 -2.4l1.4 -.3c.3 1.2 1.1 1.8 2.2 1.8c1.1 0 2 -.6 2.3 -1.8l1.4 .3c-.3 .9 -.6 1.8 -1.2 2.4c-.7 .6 -1.5 .9 -2.5 .9Zm491.5 0c-1 0 -1.7 -.3 -2.4 -.9c-.7 -.6 -1 -1.4 -1.2 -2.4l1.4 -.3c.3 1.2 1.1 1.8 2.2 1.8c1.1 0 2 -.6 2.3 -1.8l1.4 .3c-.3 .9 -.6 1.8 -1.2 2.4c-.7 .6 -1.5 .9 -2.5 .9ZM385.6 529.9c1.2 -.1 2.3 -.4 3.2 -1c.8 -.7 1.3 -1.4 1.3 -2.4v-1.2c-1.4 -.3 -2.6 -.5 -3.9 -.5c-.1 0 -.2 0 -.3 0c-1.1 0 -2 .3 -2.6 .7c-.7 .4 -1 1.1 -1 1.9c-.1 .7 .3 1.3 .9 1.8c.7 .4 1.5 .7 2.4 .7Zm146 0c1.2 -.1 2.3 -.4 3.2 -1c.8 -.7 1.3 -1.4 1.3 -2.4v-1.2c-1.4 -.3 -2.6 -.5 -3.9 -.5c-.1 0 -.2 0 -.3 0c-1.1 0 -2 .3 -2.6 .7c-.7 .4 -1 1.1 -1 1.9c-.1 .7 .3 1.3 .9 1.8c.7 .4 1.5 .7 2.4 .7Zm258.8 0c1.2 -.1 2.3 -.4 3.1 -1c.8 -.7 1.3 -1.4 1.3 -2.4v-1.2c-1.4 -.3 -2.6 -.5 -3.9 -.5c-.1 0 -.2 0 -.3 0c-1.1 0 -1.9 .3 -2.6 .7c-.7 .4 -1 1.1 -1 1.9c0 .7 .3 1.3 1 1.8c.6 .4 1.4 .7 2.4 .7Zm139 0c1.2 -.1 2.3 -.4 3.2 -1c.7 -.7 1.3 -1.4 1.3 -2.4v-1.2c-1.4 -.3 -2.7 -.5 -4 -.5c0 0 -.1 0 -.2 0c-1.1 0 -2 .3 -2.6 .7c-.8 .4 -1.1 1.1 -1.1 1.9c0 .7 .4 1.3 1 1.8c.6 .4 1.5 .7 2.4 .7Zm-435 -.4c1 0 1.8 -.2 2.4 -.6c.5 -.6 .9 -1.1 .9 -2c0 -.9 -.3 -1.4 -.9 -1.8c-.6 -.4 -1.4 -.6 -2.5 -.6h-3.5v5Zm-89.1 -5v-5h-4.2c-.1 0 -.2 0 -.3 0c-.9 0 -1.6 .2 -2.1 .6c-.6 .4 -.8 1.1 -.8 1.9c-.1 .7 .3 1.4 .9 1.8c.5 .5 1.4 .7 2.3 .7Zm404.8 0v-5h-4.3c-.1 0 -.2 0 -.2 0c-1 0 -1.6 .2 -2.2 .6c-.6 .4 -.8 1.1 -.8 1.9c-.1 .7 .3 1.4 .9 1.8c.5 .5 1.4 .7 2.3 .7Zm-96.4 5.4c1.2 -.1 2.5 -.5 3.4 -1.5c.8 -1 1.3 -2.2 1.3 -3.8c0 -1.6 -.4 -2.8 -1.4 -3.8c-1 -1 -2 -1.4 -3.3 -1.4c-1.4 0 -2.5 .4 -3.5 1.4c-1 1 -1.4 2.3 -1.4 3.8c0 1.4 .5 2.8 1.4 3.8c1 1 2.1 1.5 3.5 1.5Zm134 0c1.2 -.1 2.5 -.5 3.4 -1.5c.8 -1 1.3 -2.2 1.3 -3.8c0 -1.6 -.4 -2.8 -1.4 -3.8c-1 -1 -2 -1.4 -3.3 -1.4c-1.4 0 -2.5 .4 -3.5 1.4c-1 1 -1.4 2.3 -1.4 3.8c0 1.4 .5 2.8 1.4 3.8c1 1 2.2 1.5 3.5 1.5Zm34.1 0c1.3 -.1 2.5 -.5 3.4 -1.5c.8 -1 1.3 -2.2 1.3 -3.8c0 -1.6 -.4 -2.8 -1.4 -3.8c-1 -1 -2 -1.4 -3.3 -1.4c-1.4 0 -2.5 .4 -3.5 1.4c-1 1 -1.4 2.3 -1.4 3.8c0 1.4 .5 2.8 1.4 3.8c1 1 2.2 1.5 3.5 1.5Zm36.3 -.4V519.4h-5.6v1.9c0 3.4 -.5 6.2 -1.7 8.2Zm-187.7 .4c1.4 -.1 2.7 -.6 3.7 -1.6c.9 -1.1 1.4 -2.3 1.4 -3.8c-.1 -1.5 -.5 -2.7 -1.5 -3.8c-1 -1 -2.2 -1.5 -3.6 -1.5q-.1 0 -.2 0c-1.4 0 -2.5 .5 -3.5 1.5c-.9 1 -1.4 2.3 -1.4 3.8c0 1.4 .5 2.8 1.5 3.8c.9 .9 2.2 1.6 3.6 1.6Zm168.1 0c1.5 -.1 2.7 -.6 3.7 -1.6c.9 -1.1 1.4 -2.3 1.4 -3.8c-.1 -1.5 -.5 -2.7 -1.5 -3.8c-1 -1 -2.2 -1.5 -3.6 -1.5q-.1 0 -.2 0c-1.4 0 -2.5 .5 -3.4 1.5c-1 1 -1.4 2.3 -1.4 3.8c-.1 1.4 .4 2.8 1.4 3.8c.9 .9 2.2 1.6 3.6 1.6ZM573.7 523.7c-.2 -1.3 -.5 -2.4 -1.3 -3.3c-.8 -.8 -1.8 -1.2 -3 -1.2c-.1 0 -.1 -.1 -.2 -.1c-1.2 0 -2 .5 -2.8 1.3c-.9 .9 -1.4 2 -1.5 3.3Zm50.3 0c-.2 -1.3 -.6 -2.4 -1.3 -3.3c-.9 -.8 -1.8 -1.2 -3.1 -1.2c0 0 -.1 -.1 -.1 -.1c-1.2 0 -2.1 .5 -2.9 1.3c-.9 .9 -1.3 2 -1.4 3.3Zm64.4 0c-.2 -1.3 -.5 -2.4 -1.3 -3.3c-.8 -.8 -1.7 -1.2 -3 -1.2c-.1 0 -.1 -.1 -.2 -.1c-1.2 0 -2 .5 -2.8 1.3c-.9 .9 -1.4 2 -1.5 3.3Zm-351.5 7.6V517.7H339v10.8l7.9 -10.8H349v13.6h-2.1V520.5l-8 10.8Zm58.4 0l4.2 -5.3c-1.1 -.2 -2 -.7 -2.7 -1.4c-.7 -.8 -1 -1.6 -1 -2.7c0 -1.3 .4 -2.3 1.4 -3c.9 -.9 2.1 -1.2 3.8 -1.2h6.4v13.6h-2.1v-5h-3.7c-.2 .2 -.7 1 -1.7 2.2c-.9 1.2 -1.6 2.2 -2.1 2.8Zm22.8 0l5.5 -7.8l-5.3 -5.8h2.5l6.9 7.9v-7.9h2.1v7.9l6.9 -7.9h2.5l-5.3 5.8l5.5 7.8h-2.3L432.6 525l-2.8 3v3.3h-2.1V528L425 525l-4.6 6.3Zm24 0V517.7h2.1v10.8l8 -10.8h2v13.6h-2.1V520.5l-8 10.8Zm30.1 0V517.7h2.1v5.8h7.8v-5.8h2.1v13.6h-2.1v-6h-7.8v6Zm16.5 0V517.7h2.1v5h3.6c1.5 0 2.8 .3 3.8 1c1 .7 1.5 1.7 1.5 3.1c0 1.4 -.4 2.5 -1.4 3.3c-.9 .8 -2.1 1.2 -3.7 1.2Zm22.1 0V517.7h2v5.8h7.9v-5.8h2v13.6h-2v-6h-7.9v6Zm68.6 0V517.7h2l5.1 7.2l5 -7.2h2v13.6h-2.1V520.9l-5 6.9l-4.9 -6.9v10.4Zm18 .4c-.5 0 -1.1 -.1 -1.6 -.3l.2 -1.7c.4 .1 .7 .2 1 .2c.3 -.1 .7 -.1 .9 -.2c.2 -.1 .5 -.3 .8 -.8c.3 -.5 .5 -1 .7 -1.7c.1 -.8 .3 -1.9 .4 -3.3c.1 -1.5 .2 -3.1 .2 -5.1v-1.1h9.6v13.7h-2V519.5h-5.5v.3c-.1 2.1 -.1 3.9 -.3 5.4c-.2 1.4 -.3 2.6 -.6 3.4c-.3 .8 -.6 1.5 -1 2c-.5 .4 -.8 .7 -1.3 .9c-.5 0 -.9 .2 -1.5 .2Zm40.2 -.4V517.7h2.1v10.8l7.9 -10.8h2v13.6h-2V520.5l-8 10.8Zm24.5 0V517.7h2.1v5.8H672v-5.8h2.1v13.6H672v-6h-7.8v6Zm79.2 0V517.7h2v5.8h7.9v-5.8h2v13.6h-2v-6h-7.9v6Zm18.4 4.4c-1 0 -1.9 -.3 -2.8 -.7l.6 -1.7c.6 .4 1.4 .6 2.2 .6c.5 -.1 1.1 -.2 1.5 -.6c.4 -.5 .9 -1.1 1.3 -2l-6.2 -13.6h2.2l5 11.4l4.3 -11.4H770l-5.7 14.1c-.7 1.3 -1.3 2.4 -2 3c-.8 .5 -1.5 .9 -2.6 .9ZM800 531.3l4.2 -5.3c-1.1 -.2 -2 -.7 -2.7 -1.4c-.7 -.8 -1 -1.6 -1 -2.7c0 -1.3 .5 -2.3 1.4 -3c.9 -.9 2.2 -1.2 3.8 -1.2h6.4v13.6h-2v-5h-3.8c-.2 .2 -.7 1 -1.6 2.2c-1 1.2 -1.7 2.2 -2.2 2.8Zm58.3 0V517.7h2v10.8l8 -10.8h2v13.6h-2.1V520.5l-7.9 10.8Zm-486.5 -.1V519.4h-4.9v-1.8h11.6v1.8h-4.6v11.8Zm325 0V519.4h-4.9v-1.8h11.7v1.8h-4.7v11.8Zm79.7 0V519.4h-4.9v-1.8h11.7v1.8h-4.7v11.8Zm47.9 0V517.6h11.8v13.6h-2.1V519.4h-7.6v11.8Zm82.7 3.5v-5.2h1.5c1.2 -2.3 1.9 -5.4 1.9 -9.5v-2.4h9.7v11.9h1.9v5.2h-1.9v-3.4h-11l-.4 3.4Zm-200.3 1v-18h2v2.9c1.4 -2.1 3.1 -3 5.2 -3c.1 -.1 .2 -.1 .2 -.1c1.6 0 3.1 .7 4.3 2c1.3 1.2 2 3 2 5.1c0 2 -.7 3.8 -2 5.1c-1.3 1.3 -2.7 2 -4.5 2c-2.2 0 -3.8 -1 -5.2 -2.9v6.9Zm134 0v-18h2.1v2.9c1.3 -2.1 3 -3 5.1 -3c.1 -.1 .2 -.1 .2 -.1c1.6 0 3.1 .7 4.4 2c1.2 1.2 1.9 3 1.9 5.1c0 2 -.6 3.8 -1.9 5.1c-1.4 1.3 -2.8 2 -4.6 2c-2.2 0 -3.8 -1 -5.1 -2.9v6.9Zm34.1 0v-18H877v2.9c1.3 -2.1 3.1 -3 5.1 -3c.1 -.1 .2 -.1 .3 -.1c1.5 0 3 .7 4.3 2c1.2 1.2 1.9 3 1.9 5.1c0 2 -.6 3.8 -1.9 5.1c-1.4 1.3 -2.8 2 -4.6 2c-2.2 0 -3.8 -1 -5.1 -2.9v6.9Zm-489.7 -4c-1.4 0 -2.5 -.4 -3.5 -1.2c-1.1 -.8 -1.5 -1.7 -1.5 -3.1c0 -1.4 .5 -2.5 1.6 -3.2c.9 -.9 2.4 -1.2 4.2 -1.2c1.3 0 2.7 .2 4.1 .7v-.5c-.1 -1.3 -.4 -2.2 -1 -2.9c-.8 -.6 -1.7 -.9 -3 -.9c-1.4 0 -2.7 .3 -4.1 1l-.6 -1.7c1.6 -.9 3.4 -1.1 5 -1.1c.1 -.1 .2 -.1 .3 -.1c1.7 0 3.1 .6 4 1.5c.9 1 1.5 2.3 1.5 4v8.3h-2.1v-2.1c-1.3 1.6 -2.8 2.5 -4.9 2.5Zm146 0c-1.4 0 -2.5 -.4 -3.5 -1.2c-1.1 -.8 -1.5 -1.7 -1.5 -3.1c0 -1.4 .5 -2.5 1.6 -3.2c.9 -.9 2.4 -1.2 4.2 -1.2c1.3 0 2.7 .2 4.1 .7v-.5c-.1 -1.3 -.4 -2.2 -1.1 -2.9c-.7 -.6 -1.6 -.9 -2.9 -.9c-1.4 0 -2.7 .3 -4.1 1l-.6 -1.7c1.6 -.9 3.3 -1.1 5 -1.1c.1 -.1 .2 -.1 .2 -.1c1.8 0 3.2 .6 4.1 1.5c.9 1 1.5 2.3 1.5 4v8.3h-2.1v-2.1c-1.3 1.6 -2.8 2.5 -4.9 2.5Zm258.8 0c-1.4 0 -2.6 -.4 -3.6 -1.2c-1 -.8 -1.5 -1.7 -1.5 -3.1c0 -1.4 .5 -2.5 1.6 -3.2c1 -.9 2.4 -1.2 4.2 -1.2c1.3 0 2.8 .2 4.1 .7v-.5c-.1 -1.3 -.3 -2.2 -1 -2.9c-.8 -.6 -1.7 -.9 -3 -.9c-1.4 0 -2.6 .3 -4 1l-.7 -1.7c1.6 -.9 3.4 -1.1 5 -1.1c.1 -.1 .2 -.1 .3 -.1c1.7 0 3.1 .6 4.1 1.5c.8 1 1.4 2.3 1.4 4v8.3h-2.1v-2.1c-1.3 1.6 -2.8 2.5 -4.8 2.5Zm139 0c-1.4 0 -2.6 -.4 -3.6 -1.2c-1 -.8 -1.4 -1.7 -1.4 -3.1c0 -1.4 .5 -2.5 1.5 -3.2c1 -.9 2.5 -1.2 4.2 -1.2c1.4 0 2.8 .2 4.2 .7v-.5c-.1 -1.3 -.4 -2.2 -1.1 -2.9c-.7 -.6 -1.7 -.9 -2.9 -.9c-1.4 0 -2.7 .3 -4.1 1l-.6 -1.7c1.6 -.9 3.3 -1.1 4.9 -1.1c.1 -.1 .2 -.1 .3 -.1c1.8 0 3.2 .6 4.1 1.5c.9 1 1.4 2.3 1.4 4v8.3h-2v-2.1c-1.3 1.6 -2.9 2.5 -4.9 2.5Zm-569.5 0c-2.1 0 -3.6 -.7 -5 -2.1c-1.3 -1.5 -2 -3.1 -2 -5.1c0 -2 .7 -3.6 2 -5c1.4 -1.5 3 -2.1 5 -2.1c2 0 3.9 .8 5.4 2.4l-1.3 1.4c-1.3 -1.4 -2.6 -2 -4.1 -2q-.1 0 -.2 0c-1.4 0 -2.4 .5 -3.3 1.5c-1 1 -1.4 2.3 -1.4 3.8c0 1.4 .5 2.8 1.4 3.8c.9 .9 2.2 1.6 3.6 1.6c1.4 -.1 2.8 -.7 4.1 -2.1L365 529c-1.6 1.8 -3.4 2.7 -5.5 2.7Zm103.3 0c-2.1 0 -3.9 -.7 -5.6 -2.1l1 -1.5c1.4 1.1 2.9 1.8 4.5 1.8c.9 -.1 1.8 -.2 2.4 -.7c.6 -.5 1 -1 1 -1.7c0 -.7 -.3 -1.2 -.9 -1.6c-.6 -.4 -1.4 -.6 -2.5 -.6h-1.8v-1.8h1.9c.8 0 1.6 -.2 2.1 -.6c.5 -.5 .8 -1 .8 -1.7c0 -.7 -.2 -1.1 -.8 -1.5c-.6 -.4 -1.2 -.5 -2.1 -.5c0 0 -.1 -.1 -.2 -.1c-1.5 0 -2.8 .5 -3.9 1.4l-1 -1.4c1.4 -1.2 3.2 -1.7 5.2 -1.7c1.5 0 2.7 .3 3.6 1c.9 .7 1.3 1.6 1.3 2.6c0 1.6 -.7 2.6 -2.1 3.2c1.5 .6 2.5 1.7 2.5 3.4c-.1 1 -.5 2.1 -1.5 2.9c-1.1 .7 -2.3 1.2 -3.9 1.2Zm91.6 0c-2.1 0 -4 -.7 -5.6 -2.1l1 -1.5c1.3 1.1 2.9 1.8 4.5 1.8c.8 -.1 1.7 -.2 2.4 -.7c.6 -.5 1 -1 1 -1.7c0 -.7 -.3 -1.2 -.9 -1.6c-.7 -.4 -1.4 -.6 -2.5 -.6h-1.8v-1.8h1.8c.9 0 1.6 -.2 2.2 -.6c.5 -.5 .8 -1 .8 -1.7c0 -.7 -.2 -1.1 -.8 -1.5c-.6 -.4 -1.2 -.5 -2.1 -.5c-.1 0 -.1 -.1 -.2 -.1c-1.5 0 -2.8 .5 -3.9 1.4l-1 -1.4c1.4 -1.2 3.2 -1.7 5.2 -1.7c1.5 0 2.7 .3 3.6 1c.8 .7 1.3 1.6 1.3 2.6c0 1.6 -.7 2.6 -2.2 3.2c1.6 .6 2.5 1.7 2.5 3.4c0 1 -.4 2.1 -1.4 2.9c-1.1 .7 -2.3 1.2 -3.9 1.2Zm15.3 0c-2 0 -3.6 -.7 -4.9 -2c-1.4 -1.5 -2 -3.1 -2 -5.2c0 -2 .7 -3.7 1.9 -5.1c1.2 -1.4 2.8 -2 4.7 -2c1.9 0 3.5 .7 4.7 2.1c1 1.3 1.7 3.1 1.7 5.2c0 .3 0 .6 0 .8H564.9c.1 1.3 .7 2.4 1.6 3.2c.8 .8 2 1.2 3.2 1.2c1.6 -.1 3.1 -.7 4.4 -1.9l1.2 1.1c-1.6 1.7 -3.4 2.6 -5.6 2.6Zm50.2 0c-2 0 -3.5 -.7 -4.8 -2c-1.5 -1.5 -2 -3.1 -2 -5.2c0 -2 .6 -3.7 1.9 -5.1c1.1 -1.4 2.8 -2 4.7 -2c1.8 0 3.5 .7 4.6 2.1c1.1 1.3 1.8 3.1 1.8 5.2c0 .3 -.1 .6 -.1 .8H615.2c.1 1.3 .6 2.4 1.5 3.2c.8 .8 2 1.2 3.3 1.2c1.5 -.1 3.1 -.7 4.3 -1.9l1.3 1.1c-1.6 1.7 -3.4 2.6 -5.7 2.6Zm64.5 0c-2 0 -3.6 -.7 -4.9 -2c-1.4 -1.5 -2 -3.1 -2 -5.2c0 -2 .7 -3.7 1.9 -5.1c1.2 -1.4 2.8 -2 4.7 -2c1.9 0 3.5 .7 4.7 2.1c1 1.3 1.7 3.1 1.7 5.2c0 .3 0 .6 0 .8H679.6c.1 1.3 .7 2.4 1.6 3.2c.8 .8 2 1.2 3.2 1.2c1.6 -.1 3.1 -.7 4.4 -1.9l1.2 1.1c-1.6 1.7 -3.4 2.6 -5.6 2.6Zm46 0c-2.1 0 -3.8 -.7 -5.1 -2.1c-1.4 -1.5 -2 -3.1 -2 -5.1c0 -2 .6 -3.6 2 -5c1.4 -1.5 3.1 -2.1 5.1 -2.1c2 0 3.8 .7 5.1 2c1.3 1.4 2.1 3.1 2.1 5.1c0 1.9 -.7 3.6 -2.1 5.1c-1.5 1.3 -3.1 2.1 -5.1 2.1Zm168.1 0c-2.1 0 -3.7 -.7 -5.1 -2.1c-1.4 -1.5 -2 -3.1 -2 -5.1c0 -2 .7 -3.6 2 -5c1.4 -1.5 3.1 -2.1 5.1 -2.1c2 0 3.8 .7 5.1 2c1.3 1.4 2.1 3.1 2.1 5.1c0 1.9 -.7 3.6 -2.1 5.1c-1.5 1.3 -3.1 2.1 -5.1 2.1Zm-568.6 -.4v-7.8c-.8 .4 -1.8 .8 -2.9 1.1c-1.1 .3 -2 .5 -2.8 .5c-1.9 0 -3.3 -.4 -4.3 -1.4c-1.2 -.9 -1.6 -2.2 -1.6 -4v-7h2v6.7c0 1.2 .4 2.2 1.1 2.9c.6 .6 1.7 1 2.9 1c1.7 0 3.6 -.6 5.6 -1.8v-8.8H332v18.6Z"/></clipPath>
</defs>
<image clip-path="url(#c0_32)" preserveAspectRatio="none" x="150" y="0" width="1167" height="825" xlink:href="img/1.jpg"/>
<image clip-path="url(#c1_32)" preserveAspectRatio="none" x="150" y="0" width="1167" height="825" xlink:href="img/2.jpg"/>
<image clip-path="url(#c2_32)" preserveAspectRatio="none" x="150" y="0" width="1167" height="825" xlink:href="img/3.jpg"/>
<image clip-path="url(#c3_32)" preserveAspectRatio="none" x="150" y="0" width="1167" height="825" xlink:href="img/4.jpg"/>
<image clip-path="url(#c4_32)" preserveAspectRatio="none" x="150" y="0" width="1167" height="825" xlink:href="img/5.jpg"/>
</svg>