<?xml version="1.0" encoding="UTF-8" standalone="no"?>
<!DOCTYPE svg PUBLIC "-//W3C//DTD SVG 1.1//EN"
"http://www.w3.org/Graphics/SVG/1.1/DTD/svg11.dtd">
<svg viewBox="0 0 1466 825" version="1.1" xmlns="http://www.w3.org/2000/svg" xmlns:xlink="http://www.w3.org/1999/xlink">
<defs>
<clipPath id="c0_29"><path d="M149.9 825V0h1167V825Z"/></clipPath>
<clipPath id="c1_29"><path d="M237.4 741.8c-1.8 0 -3.3 -1.5 -3.3 -3.3V3.3c0 -1.8 1.5 -3.3 3.3 -3.3h992.3c1.9 0 3.4 1.5 3.4 3.3V738.5c0 1.8 -1.5 3.3 -3.4 3.3Z"/></clipPath>
<clipPath id="c2_29"><path d="M584.8 152c1 0 1.6 -.3 1.6 -1.1c0 -.8 -.6 -1.2 -1.7 -1.2H582V152Zm67.3 0c1 0 1.6 -.3 1.6 -1.1c0 -.8 -.6 -1.2 -1.7 -1.2h-2.6V152Zm65.9 0c1 0 1.6 -.3 1.6 -1.1c0 -.8 -.6 -1.2 -1.7 -1.2h-2.6V152Zm-244.9 .4c.7 0 1.3 -.2 1.8 -.6c.4 -.5 .7 -1 .7 -1.6v-.7c-.6 -.3 -1.3 -.4 -2.1 -.4c-.7 0 -1.2 .1 -1.6 .4c-.5 .3 -.6 .8 -.6 1.3c-.1 .5 .2 .9 .5 1.2c.3 .2 .7 .4 1.3 .4Zm208.1 -.7v-6.3h-3v.2c-.1 2.6 -.3 4.7 -.9 6.1Zm165.8 0v-6.3h-3v.2c-.1 2.6 -.3 4.7 -.9 6.1Zm132.3 0v-6.3h-3v.2c-.2 2.6 -.3 4.7 -1 6.1Zm-463.5 .1c.8 -.1 1.7 -.4 2.2 -1c.6 -.6 .9 -1.4 .9 -2.3c0 -1 -.3 -1.7 -.9 -2.3c-.6 -.7 -1.4 -1 -2.3 -1q-.1 0 -.2 0c-.9 0 -1.5 .3 -2.1 .9c-.6 .6 -.8 1.4 -.8 2.4c-.1 .8 .3 1.6 .8 2.3c.6 .6 1.4 1 2.4 1Zm82.1 0c.8 -.1 1.7 -.4 2.2 -1c.6 -.6 .9 -1.4 .9 -2.3c0 -1 -.3 -1.7 -.9 -2.3c-.6 -.7 -1.4 -1 -2.3 -1c0 0 -.1 0 -.2 0c-.9 0 -1.5 .3 -2.1 .9c-.6 .6 -.8 1.4 -.8 2.4c-.1 .8 .3 1.6 .9 2.3c.5 .6 1.3 1 2.3 1Zm39.3 0c.9 -.1 1.7 -.4 2.2 -1c.6 -.6 .9 -1.4 .9 -2.3c0 -1 -.3 -1.7 -.9 -2.3c-.6 -.7 -1.3 -1 -2.3 -1c0 0 -.1 0 -.1 0c-1 0 -1.6 .3 -2.2 .9c-.6 .6 -.8 1.4 -.8 2.4c-.1 .8 .3 1.6 .9 2.3c.5 .6 1.3 1 2.3 1Zm28 0c.9 -.1 1.7 -.4 2.3 -1c.5 -.6 .8 -1.4 .8 -2.3c0 -1 -.3 -1.7 -.9 -2.3c-.6 -.7 -1.3 -1 -2.3 -1c0 0 -.1 0 -.1 0c-.9 0 -1.6 .3 -2.1 .9c-.7 .6 -.9 1.4 -.9 2.4c-.1 .8 .3 1.6 .9 2.3c.5 .6 1.4 1 2.3 1Zm65.9 0c.9 -.1 1.7 -.4 2.3 -1c.5 -.6 .8 -1.4 .8 -2.3c0 -1 -.3 -1.7 -.9 -2.3c-.6 -.7 -1.3 -1 -2.3 -1c0 0 -.1 0 -.1 0c-.9 0 -1.6 .3 -2.1 .9c-.7 .6 -.9 1.4 -.9 2.4c-.1 .8 .3 1.6 .9 2.3c.5 .6 1.4 1 2.3 1Zm99.9 0c.9 -.1 1.7 -.4 2.3 -1c.5 -.6 .9 -1.4 .9 -2.3c0 -1 -.3 -1.7 -.9 -2.3c-.7 -.7 -1.4 -1 -2.3 -1q-.1 0 -.2 0c-.9 0 -1.6 .3 -2.1 .9c-.6 .6 -.9 1.4 -.9 2.4c-.1 .8 .3 1.6 .9 2.3c.5 .6 1.4 1 2.3 1Zm42.7 0c.9 -.1 1.7 -.4 2.3 -1c.5 -.6 .9 -1.4 .9 -2.3c0 -1 -.3 -1.7 -.9 -2.3c-.7 -.7 -1.4 -1 -2.3 -1q-.1 0 -.2 0c-.9 0 -1.6 .3 -2.1 .9c-.6 .6 -.9 1.4 -.9 2.4c-.1 .8 .3 1.6 .9 2.3c.5 .6 1.4 1 2.3 1Zm-86.4 -.1c.7 0 1.5 -.3 2 -.9c.5 -.6 .8 -1.4 .8 -2.4c0 -.9 -.2 -1.7 -.8 -2.3c-.6 -.6 -1.2 -.9 -2 -.9c0 0 -.1 0 -.1 0c-.8 0 -1.4 .3 -1.9 .9c-.6 .6 -.8 1.4 -.8 2.4c-.1 .9 .3 1.7 .8 2.3c.5 .6 1.2 .9 2 .9Zm29 0c.8 0 1.5 -.3 2.1 -.9c.5 -.6 .8 -1.4 .8 -2.4c0 -.9 -.3 -1.7 -.8 -2.3c-.6 -.6 -1.3 -.9 -2.1 -.9h-.1c-.8 0 -1.3 .3 -1.9 .9c-.5 .6 -.8 1.4 -.8 2.4c-.1 .9 .3 1.7 .8 2.3c.5 .6 1.3 .9 2 .9Zm-284 -4c-.1 -.8 -.3 -1.4 -.8 -1.8c-.5 -.5 -1 -.7 -1.7 -.7c0 0 -.1 0 -.1 0c-.7 0 -1.1 .2 -1.6 .7c-.5 .4 -.7 1 -.8 1.8Zm358 0c-.1 -.8 -.4 -1.4 -.8 -1.8c-.5 -.5 -1 -.7 -1.7 -.7c0 0 -.1 0 -.1 0c-.7 0 -1.2 .2 -1.6 .7c-.5 .4 -.7 1 -.9 1.8Zm31.8 0c-.1 -.8 -.3 -1.4 -.8 -1.8c-.5 -.5 -1 -.7 -1.7 -.7c0 0 -.1 0 -.1 0c-.7 0 -1.1 .2 -1.5 .7c-.6 .4 -.8 1 -.9 1.8Zm43.9 0c-.1 -.8 -.3 -1.4 -.8 -1.8c-.5 -.5 -1 -.7 -1.7 -.7c0 0 -.1 0 -.1 0c-.7 0 -1.1 .2 -1.5 .7c-.6 .4 -.8 1 -.9 1.8Zm27.9 0c-.1 -.8 -.3 -1.4 -.8 -1.8c-.5 -.5 -1 -.7 -1.7 -.7c0 0 -.1 0 -.1 0c-.7 0 -1.1 .2 -1.5 .7c-.6 .4 -.8 1 -.9 1.8Zm41.5 0c-.1 -.8 -.4 -1.4 -.8 -1.8c-.5 -.5 -1 -.7 -1.7 -.7q-.1 0 -.2 0c-.6 0 -1.1 .2 -1.5 .7c-.5 .4 -.8 1 -.9 1.8Zm-451.1 -.3c.4 0 .8 -.1 1 -.3c.2 -.4 .4 -.6 .4 -.9c0 -.4 -.1 -.6 -.3 -.8c-.3 -.3 -.6 -.3 -1 -.3H582v2.3Zm67.4 0c.3 0 .7 -.1 1 -.3c.1 -.4 .3 -.6 .3 -.9c0 -.4 -.1 -.6 -.3 -.8c-.2 -.3 -.6 -.3 -1 -.3h-2.3v2.3Zm65.9 0c.3 0 .7 -.1 1 -.3c.1 -.4 .3 -.6 .3 -.9c0 -.4 -.1 -.6 -.3 -.8c-.2 -.3 -.6 -.3 -1 -.3h-2.3v2.3ZM442 158c-1 0 -2 -.3 -3 -.8l1.2 -2.6c.4 .2 1 .5 1.4 .5c.5 0 .9 -.3 1.2 -.8l-4.7 -11.9h3.6l2.7 8.1l2.6 -8.1h3.5l-4.6 12.3c-.5 1.1 -.9 2.1 -1.5 2.6c-.6 .4 -1.4 .7 -2.4 .7Zm10.7 -3.6v-12h3.4l3.2 5l3.3 -5H466v12h-3.4v-7.2l-3.3 4.9L456 147.2v7.2Zm29.4 0v-12h3.3v4.4h4.4v-4.4h3.3v12h-3.3v-4.7h-4.4v4.7Zm13.9 0v-12h3.3v4.4h4.4v-4.4H507v12h-3.3v-4.7h-4.4v4.7Zm47.3 0l4.5 -7l-4.3 -5h3.9l4.1 5.1v-5.1h3.3v5.1l4.2 -5.1h3.9l-4.4 5l4.5 7h-3.7l-3 -4.8l-1.5 1.7v3.1h-3.3v-3.1l-1.4 -1.7l-3 4.8Zm21.3 0v-12h3.3v7l4.5 -7h3.2v12h-3.3v-7l-4.4 7Zm14.1 .3V142.4h6.4c1.2 0 2.2 .3 2.9 .8c.6 .5 1 1.4 1 2.3c-.1 1.3 -.5 2.3 -1.7 2.9c1.5 .3 2.4 1.5 2.4 3c-.1 1 -.4 1.8 -1.2 2.4c-.9 .6 -1.9 .9 -3.3 .9Zm29.9 -.2v-9.1H605v-3h10.3v3h-3.4v9.1Zm8.8 -.1v-12h3.3v4.4h4.4v-4.4h3.3v12h-3.3v-4.7h-4.4v4.7Zm28.6 .3V142.4h6.4c1.2 0 2.2 .3 2.9 .8c.6 .5 1.1 1.4 1.1 2.3c-.2 1.3 -.6 2.3 -1.7 2.9c1.4 .3 2.3 1.5 2.3 3c-.1 1 -.4 1.8 -1.2 2.4c-.8 .6 -1.9 .9 -3.2 .9Zm26.4 2.7v-5.7h1.3c.7 -1.7 1.1 -4.4 1.1 -8.2v-1.1h9.7v9.3h1.6l-.4 5.7h-2.8v-2.7h-7.4l-.2 2.7Zm30.7 -2.9v-9.1h-3.6v-3h10.3v3h-3.3v9.1Zm8.8 .2V142.4h6.4c1.2 0 2.2 .3 2.9 .8c.6 .5 1 1.4 1 2.3c-.1 1.3 -.5 2.3 -1.6 2.9c1.4 .3 2.3 1.5 2.3 3c-.1 1 -.4 1.8 -1.2 2.4c-.8 .6 -1.9 .9 -3.2 .9Zm34.7 -.3v-12h3.3v7l4.5 -7h3.2v12h-3.3v-7l-4.4 7Zm20.8 .1V142.4H778v12.1h-3.3v-9.1h-4v9.1Zm28.7 -.1v-12h3.4v7l4.4 -7h3.2v12h-3.3v-7l-4.4 7Zm42.1 3v-5.7h1.3c.7 -1.7 1.2 -4.4 1.2 -8.2v-1.1h9.6v9.3h1.6l-.4 5.7h-2.8v-2.7h-7.3l-.3 2.7Zm15.8 -3v-12h3.3v4.4h4.3v-4.4h3.3v12h-3.3v-4.7h-4.3v4.7Zm74 0v-12h3.4l3.3 5l3.3 -5h3.3v12H938v-7.2l-3.3 4.9l-3.3 -4.9v7.2Zm16.3 .3c-.7 -.1 -1.2 -.1 -1.7 -.2l.2 -2.9q.1 0 .1 0c.3 0 .5 .1 .7 .1c.3 0 .6 -.1 .8 -.2c.2 -.2 .5 -.6 .7 -1.2c.1 -.7 .3 -1.6 .3 -2.8c0 -1.3 0 -3 0 -5.1H955v12.1h-3.3v-9.1h-3c-.1 1.5 -.1 2.9 -.2 4c-.2 1.1 -.3 2 -.5 2.7c-.3 .7 -.5 1.2 -.9 1.6c-.4 .3 -.7 .6 -1.2 .8c-.5 .1 -.9 .2 -1.6 .2Zm26.1 2.7v-5.7h1.4c.7 -1.7 1.1 -4.4 1.1 -8.2v-1.1h9.7v9.3h1.6l-.4 5.7H981v-2.7h-7.4l-.2 2.7Zm29.2 -2.7c-.7 -.1 -1.2 -.1 -1.7 -.2l.2 -2.9c0 0 .1 0 .1 0c.2 0 .4 .1 .6 .1c.3 0 .7 -.1 .9 -.2c.2 -.2 .4 -.6 .6 -1.2c.2 -.7 .3 -1.6 .3 -2.8c0 -1.3 0 -3 0 -5.1h9.6v12.1h-3.3v-9.1h-3c-.1 1.5 0 2.9 -.1 4c-.2 1.1 -.3 2 -.5 2.7c-.4 .7 -.5 1.2 -.9 1.6c-.4 .3 -.8 .6 -1.2 .8c-.5 .1 -1 .2 -1.6 .2Zm14 -.3v-12h3.3v7l4.4 -7h3.3v12h-3.3v-7l-4.5 7Zm-319.9 .3c-1.9 0 -3.3 -.6 -4.5 -1.8c-1.2 -1.3 -1.7 -2.7 -1.7 -4.4c0 -1.8 .6 -3.2 1.8 -4.4c1.1 -1.4 2.6 -1.9 4.4 -1.9q.1 0 .2 0c1.7 0 3.3 .8 4.5 2.2l-1.9 2c-1 -.9 -1.8 -1.2 -2.8 -1.2q-.1 0 -.1 0c-.9 0 -1.5 .3 -2 .9c-.6 .7 -.8 1.5 -.8 2.4c-.1 .9 .3 1.7 .8 2.3c.5 .6 1.3 1 2.2 1c.9 -.1 1.9 -.5 2.8 -1.3l1.9 2c-.6 .7 -1.3 1.3 -2.1 1.6c-.8 .4 -1.6 .6 -2.7 .6ZM530.2 155c-1.9 0 -3.3 -.6 -4.5 -1.7C524.5 152 524 150.5 524 148.6c0 -1.8 .5 -3.3 1.6 -4.5c1 -1.3 2.5 -1.9 4.2 -1.9c.1 0 .2 0 .2 0c1.7 0 3.2 .7 4.1 1.9c.9 1.3 1.5 2.9 1.5 4.7c-.1 .2 0 .5 0 .9h-8.3c.2 .8 .5 1.4 1 1.8c.5 .4 1.1 .6 1.9 .6c1 0 2 -.4 2.9 -1.3l1.9 1.8c-1.2 1.6 -2.8 2.4 -4.8 2.4Zm357.9 0c-1.8 0 -3.2 -.6 -4.4 -1.7c-1.2 -1.3 -1.8 -2.8 -1.8 -4.7c0 -1.8 .6 -3.3 1.7 -4.5c1 -1.3 2.5 -1.9 4.2 -1.9q.1 0 .2 0c1.7 0 3.1 .7 4.1 1.9c.9 1.3 1.5 2.9 1.5 4.7c-.1 .2 0 .5 -.1 .9h-8.2c.1 .8 .5 1.4 1 1.8c.5 .4 1.1 .6 1.9 .6c.9 0 2 -.4 2.9 -1.3l1.9 1.8c-1.2 1.6 -2.8 2.4 -4.9 2.4Zm31.9 0c-1.9 0 -3.3 -.6 -4.5 -1.7c-1.2 -1.3 -1.7 -2.8 -1.7 -4.7c0 -1.8 .5 -3.3 1.6 -4.5c1 -1.3 2.5 -1.9 4.2 -1.9c.1 0 .2 0 .2 0c1.8 0 3.2 .7 4.1 1.9c1 1.3 1.5 2.9 1.5 4.7c-.1 .2 0 .5 0 .9h-8.3c.2 .8 .5 1.4 1 1.8c.5 .4 1.2 .6 1.9 .6c1 0 2 -.4 2.9 -1.3l1.9 1.8c-1.2 1.6 -2.8 2.4 -4.8 2.4Zm43.9 0c-1.9 0 -3.3 -.6 -4.5 -1.7c-1.2 -1.3 -1.7 -2.8 -1.7 -4.7c0 -1.8 .5 -3.3 1.6 -4.5c1 -1.3 2.5 -1.9 4.2 -1.9c.1 0 .2 0 .2 0c1.8 0 3.2 .7 4.1 1.9c1 1.3 1.5 2.9 1.5 4.7c-.1 .2 0 .5 0 .9H961c.2 .8 .5 1.4 1 1.8c.5 .4 1.2 .6 1.9 .6c1 0 2 -.4 2.9 -1.3l1.9 1.8c-1.2 1.6 -2.8 2.4 -4.8 2.4Zm27.9 0c-1.9 0 -3.3 -.6 -4.5 -1.7c-1.2 -1.3 -1.7 -2.8 -1.7 -4.7c0 -1.8 .5 -3.3 1.6 -4.5c1 -1.3 2.5 -1.9 4.2 -1.9c.1 0 .2 0 .2 0c1.8 0 3.2 .7 4.1 1.9c1 1.3 1.5 2.9 1.5 4.7c-.1 .2 0 .5 0 .9h-8.3c.2 .8 .5 1.4 1 1.8c.5 .4 1.1 .6 1.9 .6c1 0 2 -.4 2.9 -1.3l1.9 1.8c-1.2 1.6 -2.8 2.4 -4.8 2.4Zm41.4 0c-1.9 0 -3.3 -.6 -4.4 -1.7c-1.2 -1.3 -1.8 -2.8 -1.8 -4.7c0 -1.8 .6 -3.3 1.7 -4.5c1 -1.3 2.5 -1.9 4.2 -1.9c0 0 .1 0 .2 0c1.7 0 3.1 .7 4.1 1.9c.9 1.3 1.5 2.9 1.5 4.7c-.2 .2 -.1 .5 -.1 .9h-8.2c.1 .8 .5 1.4 1 1.8c.4 .4 1.1 .6 1.9 .6c.9 0 2 -.4 2.8 -1.3l2 1.8c-1.3 1.6 -2.9 2.4 -4.9 2.4Zm-517.5 -.3c-1.9 0 -3.4 -.6 -4.6 -1.8c-1.3 -1.3 -1.9 -2.7 -1.9 -4.4c0 -1.8 .7 -3.2 1.9 -4.5c1.2 -1.3 2.8 -1.8 4.6 -1.8c.1 0 .2 0 .2 0c1.8 0 3.3 .7 4.5 1.8c1.1 1.1 1.8 2.7 1.8 4.5c-.1 1.7 -.6 3.2 -1.9 4.4c-1.2 1.1 -2.7 1.8 -4.6 1.8Zm82.1 0c-1.9 0 -3.4 -.6 -4.6 -1.8c-1.3 -1.3 -1.9 -2.7 -1.9 -4.4c0 -1.8 .7 -3.2 1.9 -4.5c1.2 -1.3 2.8 -1.8 4.6 -1.8c.1 0 .2 0 .2 0c1.8 0 3.3 .7 4.5 1.8c1.1 1.1 1.8 2.7 1.8 4.5c-.1 1.7 -.6 3.2 -1.9 4.4c-1.2 1.1 -2.7 1.8 -4.6 1.8Zm39.3 0c-1.9 0 -3.4 -.6 -4.6 -1.8c-1.3 -1.3 -1.8 -2.7 -1.8 -4.4c0 -1.8 .6 -3.2 1.8 -4.5c1.2 -1.3 2.8 -1.8 4.7 -1.8c0 0 .1 0 .2 0c1.7 0 3.2 .7 4.4 1.8c1.2 1.1 1.8 2.7 1.8 4.5c-.1 1.7 -.6 3.2 -1.8 4.4c-1.3 1.1 -2.8 1.8 -4.7 1.8Zm28 0c-1.9 0 -3.3 -.6 -4.6 -1.8c-1.3 -1.3 -1.8 -2.7 -1.8 -4.4c0 -1.8 .6 -3.2 1.8 -4.5c1.2 -1.3 2.8 -1.8 4.7 -1.8q.1 0 .2 0c1.7 0 3.2 .7 4.4 1.8c1.2 1.1 1.8 2.7 1.8 4.5c-.1 1.7 -.6 3.2 -1.8 4.4c-1.3 1.1 -2.8 1.8 -4.7 1.8Zm65.9 0c-1.9 0 -3.3 -.6 -4.6 -1.8c-1.3 -1.3 -1.8 -2.7 -1.8 -4.4c0 -1.8 .6 -3.2 1.8 -4.5c1.2 -1.3 2.8 -1.8 4.7 -1.8q.1 0 .2 0c1.7 0 3.2 .7 4.4 1.8c1.2 1.1 1.8 2.7 1.8 4.5c-.1 1.7 -.6 3.2 -1.8 4.4c-1.3 1.1 -2.8 1.8 -4.7 1.8Zm100 0c-1.9 0 -3.4 -.6 -4.6 -1.8c-1.3 -1.3 -1.9 -2.7 -1.9 -4.4c0 -1.8 .6 -3.2 1.9 -4.5c1.2 -1.3 2.8 -1.8 4.6 -1.8c.1 0 .2 0 .2 0c1.7 0 3.3 .7 4.4 1.8c1.2 1.1 1.9 2.7 1.9 4.5c-.1 1.7 -.6 3.2 -1.9 4.4c-1.3 1.1 -2.8 1.8 -4.6 1.8Zm42.7 0c-1.9 0 -3.4 -.6 -4.6 -1.8c-1.3 -1.3 -1.9 -2.7 -1.9 -4.4c0 -1.8 .6 -3.2 1.9 -4.5c1.2 -1.3 2.8 -1.8 4.6 -1.8c.1 0 .2 0 .2 0c1.7 0 3.3 .7 4.4 1.8c1.2 1.1 1.9 2.7 1.9 4.5c-.1 1.7 -.6 3.2 -1.9 4.4c-1.3 1.1 -2.8 1.8 -4.6 1.8ZM781.2 158V142.4h3.3v1.8c.8 -1.4 2.1 -2 3.6 -2q.1 0 .2 0c1.3 0 2.6 .6 3.6 1.7c1 1.1 1.6 2.7 1.6 4.6c-.1 1.9 -.6 3.4 -1.6 4.5c-1.1 1 -2.3 1.7 -3.8 1.7c-1.5 -.1 -2.6 -.6 -3.6 -1.9V158Zm29 0V142.4h3.3v1.8c.9 -1.4 2.2 -2 3.7 -2c0 0 .1 0 .1 0c1.3 0 2.6 .6 3.6 1.7c1.1 1.1 1.6 2.7 1.6 4.6c-.1 1.9 -.5 3.4 -1.6 4.5c-1 1 -2.2 1.7 -3.7 1.7c-1.6 -.1 -2.7 -.6 -3.7 -1.9V158ZM472 154.7c-1.1 0 -2.1 -.3 -2.9 -1c-.8 -.7 -1.1 -1.6 -1.1 -2.8c0 -1.3 .4 -2.2 1.3 -2.9c.7 -.7 2 -.9 3.4 -.9c1 0 2 .1 2.9 .4v-.2c0 -1.5 -.8 -2.1 -2.5 -2.1q-.1 0 -.2 0c-1 0 -2 .2 -3 .6l-.9 -2.6c1.5 -.7 3 -1 4.6 -1c.1 0 .2 0 .3 0c1.7 0 2.9 .5 3.8 1.4c.8 .8 1.2 2.2 1.2 3.9v7h-3.3v-1.3c-.9 1 -2.1 1.5 -3.6 1.5Zm435 0c-2.3 0 -4.1 -.6 -5.5 -1.9l1.6 -2.2c1 .9 2.3 1.4 3.6 1.4c.5 0 1 -.1 1.3 -.3c.3 -.4 .5 -.6 .5 -1c0 -.5 -.2 -.7 -.5 -.9c-.4 -.3 -.9 -.4 -1.5 -.4H905v-2h1.4c.5 0 1 -.1 1.3 -.4c.2 -.3 .5 -.5 .5 -.9c0 -.3 -.2 -.6 -.5 -.9c-.4 -.2 -.7 -.3 -1.1 -.3q-.1 0 -.2 0c-1.2 0 -2.2 .5 -3.1 1.3l-1.4 -2.1c1.3 -1.3 3 -1.9 5 -1.9c.1 0 .2 0 .3 0c1.1 0 2.2 .4 3 1c.9 .6 1.3 1.4 1.3 2.3c-.1 1.2 -.6 2.2 -1.8 2.7c1.4 .5 2.1 1.5 2.1 2.8c-.1 1 -.4 1.9 -1.3 2.7c-1.1 .6 -2.1 1 -3.5 1Zm-477.7 -.3V138.8h10.8v2.9h-7.5v12.7Z"/></clipPath>
<clipPath id="c3_29"><path d="M435.2 228.2c.8 0 1.5 -.1 2 -.5c.4 -.4 .7 -.8 .7 -1.4c-.1 -.6 -.3 -1 -.8 -1.3c-.5 -.3 -1.2 -.4 -2.1 -.4h-3.6v3.6Zm12.3 -.1c.8 -.1 1.5 -.2 2 -.6c.4 -.4 .7 -.8 .7 -1.5c-.1 -.7 -.2 -1.1 -.7 -1.4c-.6 -.4 -1.2 -.5 -2.1 -.5h-3v4Zm105.6 0c.8 -.1 1.6 -.2 2 -.6c.4 -.4 .7 -.8 .7 -1.5c0 -.7 -.2 -1.1 -.7 -1.4c-.5 -.4 -1.2 -.5 -2.1 -.5h-3v4Zm-75.3 .3c1 -.1 2 -.3 2.7 -.8c.6 -.7 1.1 -1.3 1.1 -2.2v-1c-1.1 -.4 -2.2 -.5 -3.3 -.5c-1.1 0 -1.9 .2 -2.4 .6c-.7 .3 -.9 1 -.9 1.7c0 .6 .3 1.2 .8 1.6c.5 .3 1.2 .6 2 .6Zm-42.9 -5.3c.6 -.1 1.3 -.2 1.7 -.5c.3 -.3 .6 -.7 .6 -1.3c-.1 -.5 -.2 -.8 -.6 -1.1c-.5 -.4 -.9 -.5 -1.6 -.5h-3.6v3.4Zm502 5.1v-8.5h-4.6v1.6c0 2.9 -.5 5.2 -1.5 6.9Zm-346.5 .2c1.1 -.1 2.2 -.4 2.9 -1.3c.8 -.9 1.2 -1.8 1.2 -3c-.1 -1.3 -.4 -2.3 -1.2 -3.1c-.8 -.9 -1.8 -1.3 -2.9 -1.3q-.1 0 -.2 0c-1.1 0 -2 .5 -2.7 1.3c-.8 .8 -1.2 1.9 -1.2 3.1c0 1.1 .4 2.2 1.2 3c.7 .8 1.8 1.3 2.9 1.3Zm372.3 0c1.1 -.1 2.1 -.4 2.9 -1.3c.7 -.9 1.1 -1.8 1.1 -3c0 -1.3 -.4 -2.3 -1.1 -3.1c-.8 -.9 -1.8 -1.3 -2.9 -1.3c-.1 0 -.2 0 -.2 0c-1.2 0 -2 .5 -2.7 1.3c-.9 .8 -1.2 1.9 -1.2 3.1c0 1.1 .4 2.2 1.2 3c.7 .8 1.7 1.3 2.9 1.3Zm-199 -4.3v-4.4h-3.5c-.1 0 -.2 0 -.3 0c-.7 0 -1.3 .3 -1.7 .6c-.5 .4 -.7 .9 -.7 1.6c0 .5 .3 1.2 .8 1.6c.4 .3 1.1 .6 1.9 .6Zm-298.3 4.3c1.1 -.1 2.1 -.4 2.9 -1.2c.7 -.9 1.1 -1.9 1.1 -3.2c-.1 -1.3 -.4 -2.4 -1.2 -3.2c-.8 -.9 -1.7 -1.2 -2.8 -1.2c-1.2 0 -2.1 .4 -2.9 1.2c-.9 .8 -1.2 1.9 -1.2 3.2c-.1 1.2 .4 2.3 1.2 3.2c.7 .7 1.8 1.2 2.9 1.2Zm50.6 -5c-.1 -1.1 -.4 -2 -1.1 -2.7c-.6 -.8 -1.5 -1.1 -2.6 -1.1c-1 0 -1.8 .3 -2.5 1.1c-.8 .6 -1.1 1.6 -1.2 2.7Zm57.7 0c-.2 -1.1 -.5 -2 -1.1 -2.7c-.7 -.8 -1.5 -1.1 -2.6 -1.1c-1 0 -1.8 .3 -2.5 1.1c-.8 .6 -1.1 1.6 -1.3 2.7Zm34.1 0c-.1 -1.1 -.4 -2 -1.1 -2.7c-.7 -.8 -1.5 -1.1 -2.6 -1.1c-1 0 -1.8 .3 -2.5 1.1c-.8 .6 -1.1 1.6 -1.2 2.7Zm42.2 5c1.1 -.1 2.1 -.4 2.9 -1.2c.7 -.9 1.1 -1.9 1.1 -3.2c0 -1.3 -.3 -2.4 -1.1 -3.2c-.8 -.9 -1.8 -1.2 -2.9 -1.2c-1.1 0 -2 .4 -2.9 1.2c-.9 .8 -1.2 1.9 -1.2 3.2c0 1.2 .4 2.3 1.2 3.2c.8 .7 1.8 1.2 2.9 1.2Zm47.1 -5c-.2 -1.1 -.5 -2 -1.2 -2.7c-.6 -.8 -1.4 -1.1 -2.5 -1.1c-1.1 0 -1.9 .3 -2.6 1.1c-.8 .6 -1.1 1.6 -1.2 2.7Zm26.9 0c-.2 -1.1 -.5 -2 -1.1 -2.7c-.7 -.8 -1.5 -1.1 -2.6 -1.1c-1 0 -1.8 .3 -2.5 1.1c-.8 .6 -1.1 1.6 -1.3 2.7Zm129.7 0c-.2 -1.1 -.5 -2 -1.1 -2.7c-.7 -.8 -1.5 -1.1 -2.6 -1.1c-1 0 -1.8 .3 -2.5 1.1c-.8 .6 -1.1 1.6 -1.3 2.7Zm94.5 5.2c1.2 0 2.2 -.5 3 -1.3c.8 -.9 1.2 -2 1.2 -3.2c-.1 -1.3 -.4 -2.3 -1.2 -3.2c-.8 -1 -1.8 -1.3 -3 -1.3c-1.4 0 -2.3 .4 -3.1 1.3c-.8 .8 -1.2 1.9 -1.2 3.2c0 1.2 .5 2.3 1.3 3.2c.7 .8 1.8 1.3 3 1.3Zm29.2 -.2c1.1 -.1 2.1 -.4 2.9 -1.2c.7 -.9 1.1 -1.9 1.1 -3.2c-.1 -1.3 -.4 -2.4 -1.1 -3.2c-.9 -.9 -1.8 -1.2 -2.9 -1.2c-1.2 0 -2.1 .4 -2.9 1.2c-.9 .8 -1.2 1.9 -1.2 3.2c0 1.2 .4 2.3 1.2 3.2c.7 .7 1.8 1.2 2.9 1.2Zm17.4 -5c-.2 -1.1 -.5 -2 -1.1 -2.7c-.7 -.8 -1.5 -1.1 -2.6 -1.1c-1 0 -1.8 .3 -2.5 1.1c-.8 .6 -1.1 1.6 -1.3 2.7Zm-565.1 6.3V218.2h5.5c1.1 0 2.1 .3 2.7 .8c.6 .5 1.1 1.2 1.1 2.1c0 1.1 -.7 2.1 -2 2.6c1.7 .4 2.6 1.4 2.6 2.9c0 .9 -.3 1.7 -1.1 2.3c-.8 .4 -1.8 .8 -3.1 .8Zm12.9 -.1V218.2h1.8v4.4h3.1c1.2 0 2.4 .2 3.2 .8c.8 .5 1.3 1.4 1.3 2.5c0 1.1 -.4 2 -1.2 2.7c-.9 .6 -1.9 1 -3.2 1Zm11.4 0V218.2h1.7v11.4Zm49.4 3v-2.9H487.1V218.2h1.7v10h5.5v-10h1.8v10h5.5v-10h1.8v10H505v4.4Zm17.2 -3V218.2h1.8v4.9h6.5v-4.9h1.8v11.4h-1.8v-5h-6.5v5Zm13.8 0V218.2h1.8v4.9h6.6v-4.9h1.7v11.4h-1.7v-5h-6.6v5Zm13.9 0V218.2H550v4.4h3.1c1.3 0 2.4 .2 3.2 .8c.8 .5 1.3 1.4 1.3 2.5c0 1.1 -.4 2 -1.2 2.7c-.8 .6 -1.8 1 -3.1 1Zm11.3 0V218.2h1.7v11.4Zm70.8 .1V218.2h10v11.5h-1.8v-10h-6.4v10Zm28.5 -.1V218.2h1.7v9l6.9 -9h1.7v11.4h-1.8v-9l-6.8 9Zm14 0V218.2h1.7l4.2 6l4.1 -6h1.7v11.4h-1.8v-8.7l-4.1 5.8l-4.1 -5.8v8.7Zm28.7 0V218.2h1.8v4.9h6.5v-4.9h1.8v11.4h-1.8v-5h-6.5v5Zm27 0V218.2h1.7v4.9h6.6v-4.9h1.8v11.4h-1.8v-5h-6.6v5Zm13.8 0V218.2h1.8v9l6.8 -9h1.7v11.4H751v-9l-6.9 9Zm12.9 .1l3.5 -4.4c-.9 -.2 -1.6 -.6 -2.2 -1.2c-.6 -.7 -.9 -1.4 -.9 -2.3c0 -1.1 .4 -1.9 1.2 -2.6c.7 -.7 1.8 -1 3.2 -1h5.4v11.5h-1.8v-4.1h-3.1c-.2 .1 -.6 .7 -1.4 1.8c-.8 1 -1.3 1.8 -1.7 2.3Zm19.6 -.1l4.5 -5.8l-4.3 -5.6H777l3.4 4.4l3.4 -4.4h1.9l-4.3 5.6l4.5 5.8h-2l-3.5 -4.7l-3.6 4.7Zm13.8 0V218.2h1.8v9l6.8 -9H799v11.4h-1.7v-9l-6.9 9Zm14 0V218.2h1.7l4.2 6l4.2 -6h1.7v11.4h-1.8v-8.7l-4.1 5.8l-4.1 -5.8v8.7Zm15.7 0V218.2h1.7v9l6.9 -9h1.7v11.4h-1.8v-9l-6.9 9Zm21.2 0v-4.8c-.6 .2 -1.1 .6 -1.8 .8c-.8 .2 -1.4 .3 -2 .3c-1.2 0 -2.1 -.3 -2.8 -.9c-.6 -.6 -1 -1.4 -1 -2.5v-4.3h1.8v4.1c-.1 .6 .2 1.1 .6 1.5c.4 .3 .9 .6 1.6 .6c1.4 -.1 2.5 -.4 3.6 -1.1v-5.1h1.7v11.4Zm31.3 0V218.2h1.8v6.6l6.3 -6.6h2.1l-4.8 4.9l4.9 6.5h-2l-4.1 -5.2l-2.4 2.4v2.8Zm12.6 0V218.2h1.8v9l6.8 -9h1.7v11.4h-1.7v-9l-6.9 9Zm12.9 0l4.5 -5.8l-4.4 -5.6h2l3.4 4.4l3.4 -4.4h1.9l-4.4 5.6l4.6 5.8h-2l-3.6 -4.7l-3.5 4.7Zm22.2 3.6c-.9 0 -1.7 -.2 -2.5 -.6l.6 -1.3c.5 .3 1.1 .4 1.8 .4c.4 0 .9 -.1 1.3 -.5c.3 -.3 .7 -.8 1 -1.6l-5.2 -11.4h1.9l4.2 9.5l3.7 -9.5h1.8L922.4 230c-.6 1.1 -1.1 2 -1.7 2.5c-.6 .4 -1.3 .7 -2.1 .7Zm9.1 -.6v-4.4H929c1 -1.9 1.5 -4.5 1.5 -8v-2h8.1v10h1.6v4.4h-1.6v-2.9h-9.2l-.3 2.9Zm71.7 -3V218.2h1.7v4.9h6.6v-4.9h1.7v11.4h-1.7v-5h-6.6v5Zm13.8 0V218.2h1.8v9l6.8 -9h1.7v11.4h-1.7v-9l-6.9 9Zm14 0V218.2h1.8v9l6.8 -9h1.7v11.4h-1.7v-9l-6.9 9Zm-163.7 .5c-1.7 -.1 -3.1 -.6 -4.2 -1.8c-1.1 -1.2 -1.7 -2.6 -1.7 -4.2c0 -1.7 .6 -3.1 1.7 -4.3c1.1 -1.2 2.5 -1.7 4.2 -1.7c0 0 .1 0 .2 0c1.6 0 3.1 .7 4.4 2l-1.1 1.2c-1.1 -1.2 -2.3 -1.7 -3.5 -1.7c-1.3 0 -2.2 .4 -3 1.3c-.8 .8 -1.1 1.9 -1.1 3.2c-.1 1.2 .4 2.3 1.2 3.2c.7 .8 1.8 1.3 3 1.3c1.1 0 2.3 -.6 3.4 -1.8l1.2 1.1c-1.5 1.3 -2.9 2.2 -4.7 2.2Zm-350.9 0c-1.7 -.1 -3 -.6 -4.1 -1.7c-1.1 -1.2 -1.7 -2.6 -1.7 -4.3c0 -1.8 .5 -3.1 1.6 -4.3c1 -1.2 2.4 -1.7 4 -1.7c0 0 .1 0 .2 0c1.5 0 2.8 .6 3.7 1.7c.9 1.1 1.5 2.7 1.5 4.5c-.1 .2 0 .4 0 .6h-9.2c.1 1.1 .5 2 1.3 2.7c.7 .6 1.7 1 2.8 1c1.3 0 2.6 -.6 3.6 -1.6l1.1 .9c-1.4 1.4 -2.9 2.2 -4.8 2.2Zm57.7 0c-1.7 -.1 -3 -.6 -4.1 -1.7c-1.2 -1.2 -1.7 -2.6 -1.7 -4.3c0 -1.8 .5 -3.1 1.6 -4.3c1 -1.2 2.4 -1.7 4 -1.7c0 0 .1 0 .1 0c1.5 0 2.9 .6 3.8 1.7c.9 1.1 1.5 2.7 1.5 4.5c-.1 .2 0 .4 -.1 .6h-9.2c.1 1.1 .6 2 1.4 2.7c.7 .6 1.7 1 2.7 1c1.4 0 2.6 -.6 3.7 -1.6l1.1 .9c-1.4 1.4 -2.9 2.2 -4.8 2.2Zm34.1 0c-1.7 -.1 -3 -.6 -4.1 -1.7c-1.1 -1.2 -1.7 -2.6 -1.7 -4.3c0 -1.8 .5 -3.1 1.6 -4.3c1 -1.2 2.4 -1.7 4 -1.7c0 0 .1 0 .2 0c1.5 0 2.8 .6 3.7 1.7c.9 1.1 1.5 2.7 1.5 4.5c-.1 .2 0 .4 0 .6h-9.2c.1 1.1 .5 2 1.3 2.7c.7 .6 1.7 1 2.8 1c1.3 0 2.6 -.6 3.6 -1.6l1.1 .9c-1.4 1.4 -2.9 2.2 -4.8 2.2Zm89.2 0c-1.7 -.1 -3 -.6 -4.1 -1.7c-1.1 -1.2 -1.7 -2.6 -1.7 -4.3c0 -1.8 .6 -3.1 1.6 -4.3c1 -1.2 2.4 -1.7 4 -1.7q.1 0 .2 0c1.5 0 2.8 .6 3.8 1.7c.9 1.1 1.4 2.7 1.4 4.5c-.1 .2 0 .4 0 .6h-9.2c.1 1.1 .5 2 1.3 2.7c.8 .6 1.7 1 2.8 1c1.3 0 2.6 -.6 3.6 -1.6l1.1 .9c-1.4 1.4 -2.9 2.2 -4.8 2.2Zm27 0c-1.7 -.1 -3 -.6 -4.1 -1.7c-1.2 -1.2 -1.7 -2.6 -1.7 -4.3c0 -1.8 .5 -3.1 1.6 -4.3c1 -1.2 2.4 -1.7 4 -1.7c0 0 .1 0 .2 0c1.5 0 2.8 .6 3.7 1.7c.9 1.1 1.5 2.7 1.5 4.5c-.1 .2 0 .4 -.1 .6h-9.2c.1 1.1 .6 2 1.4 2.7c.7 .6 1.7 1 2.7 1c1.4 0 2.6 -.6 3.7 -1.6l1.1 .9c-1.4 1.4 -2.9 2.2 -4.8 2.2Zm129.7 0c-1.7 -.1 -3 -.6 -4.1 -1.7c-1.2 -1.2 -1.7 -2.6 -1.7 -4.3c0 -1.8 .5 -3.1 1.6 -4.3c1 -1.2 2.4 -1.7 3.9 -1.7c.1 0 .2 0 .2 0c1.5 0 2.9 .6 3.8 1.7c.9 1.1 1.5 2.7 1.5 4.5c-.2 .2 -.1 .4 -.1 .6h-9.2c.1 1.1 .6 2 1.4 2.7c.7 .6 1.7 1 2.7 1c1.4 0 2.6 -.6 3.7 -1.6l1.1 .9c-1.4 1.4 -2.9 2.2 -4.8 2.2Zm141.1 0c-1.7 -.1 -3 -.6 -4.1 -1.7c-1.2 -1.2 -1.7 -2.6 -1.7 -4.3c0 -1.8 .5 -3.1 1.6 -4.3c1 -1.2 2.4 -1.7 4 -1.7c0 0 .1 0 .1 0c1.6 0 2.9 .6 3.8 1.7c.9 1.1 1.5 2.7 1.5 4.5c-.1 .2 0 .4 -.1 .6h-9.2c.1 1.1 .6 2 1.4 2.7c.7 .6 1.7 1 2.7 1c1.4 0 2.6 -.6 3.7 -1.6l1.1 .9c-1.4 1.4 -2.9 2.2 -4.8 2.2Zm-43.3 0c-1.8 -.1 -3.1 -.6 -4.2 -1.8c-1.2 -1.2 -1.7 -2.6 -1.7 -4.2c0 -1.7 .6 -3.1 1.7 -4.3c1.1 -1.2 2.6 -1.7 4.3 -1.7q.1 0 .2 0c1.6 0 3 .6 4.1 1.7c1 1.1 1.7 2.6 1.7 4.3c-.1 1.6 -.6 3 -1.8 4.2c-1.2 1.1 -2.5 1.8 -4.3 1.8Zm-488.6 3.1v-15h1.8v2.4c1.1 -1.7 2.6 -2.5 4.4 -2.5c0 0 .1 0 .2 0c1.3 0 2.6 .6 3.6 1.6c1.1 1 1.7 2.5 1.7 4.3c-.1 1.7 -.6 3.2 -1.7 4.3c-1.1 1 -2.4 1.6 -3.8 1.6c-1.9 0 -3.3 -.8 -4.4 -2.4v5.7Zm184.7 0v-15h1.7v2.4c1.1 -1.7 2.6 -2.5 4.4 -2.5q.1 0 .2 0c1.3 0 2.6 .6 3.6 1.6c1.1 1 1.7 2.5 1.7 4.3c-.1 1.7 -.6 3.2 -1.7 4.3c-1.1 1 -2.3 1.6 -3.8 1.6c-1.9 0 -3.3 -.8 -4.4 -2.4v5.7Zm327.3 0v-15h1.8v2.4c1.1 -1.7 2.6 -2.5 4.4 -2.5c0 0 .1 0 .2 0c1.3 0 2.6 .6 3.6 1.6c1.1 1 1.7 2.5 1.7 4.3c-.1 1.7 -.6 3.2 -1.7 4.3c-1.1 1 -2.3 1.6 -3.8 1.6c-1.9 0 -3.3 -.8 -4.4 -2.4v5.7Zm-494 -3.3c-1.3 0 -2.2 -.3 -3 -1c-.9 -.6 -1.3 -1.5 -1.3 -2.7c0 -1.3 .5 -2.1 1.4 -2.8c.7 -.7 2 -1 3.5 -1c.1 0 .2 0 .3 0c1 0 2.1 .2 3.2 .5v-.3c0 -1 -.3 -1.7 -.9 -2.2c-.6 -.6 -1.4 -.8 -2.5 -.8c-1.2 0 -2.2 .2 -3.4 .8l-.5 -1.4c1.4 -.6 2.8 -.9 4.1 -.9c.1 0 .2 0 .3 0c1.4 0 2.6 .4 3.4 1.2c.7 .8 1.2 1.9 1.2 3.4v6.9h-1.7v-1.8c-1 1.3 -2.4 2.1 -4.1 2.1Zm138.4 .2c-1.8 -.1 -3.4 -.6 -4.8 -1.8l.9 -1.2c1.1 .9 2.4 1.5 3.9 1.5c.7 0 1.4 -.2 2 -.6c.5 -.4 .8 -.8 .8 -1.4c0 -.6 -.2 -1.1 -.7 -1.4c-.6 -.4 -1.3 -.5 -2.2 -.5h-1.6v-1.5h1.6c.7 0 1.4 -.1 1.9 -.5c.4 -.4 .7 -.8 .7 -1.4c0 -.5 -.2 -.9 -.7 -1.3c-.6 -.3 -1.1 -.4 -1.8 -.4c-1.4 0 -2.6 .4 -3.5 1.1l-.9 -1.2c1.2 -1 2.8 -1.4 4.5 -1.4c.1 0 .2 0 .2 0c1.1 0 2.1 .3 2.8 .8c.7 .6 1.1 1.4 1.1 2.3c0 1.1 -.6 2.1 -1.8 2.6c1.4 .4 2.2 1.4 2.2 2.8c-.1 1 -.4 1.8 -1.3 2.5c-.9 .6 -1.9 1 -3.3 1Zm-25.5 -.2c-1.8 0 -3.2 -.6 -4.2 -1.8c-1.2 -1.2 -1.6 -2.7 -1.6 -4.7c0 -.8 0 -1.3 0 -1.8c0 -.5 0 -1.1 .1 -1.7c.1 -.7 .3 -1.2 .5 -1.6c.1 -.5 .4 -.9 .7 -1.3c.2 -.5 .7 -.8 1.2 -1.1c.4 -.4 1.1 -.5 1.7 -.7l6.4 -1.5l.4 1.4l-6.2 1.6c-1.2 .3 -2 .8 -2.5 1.4c-.6 .6 -.8 1.6 -.9 2.7c1 -1.8 2.6 -2.6 4.8 -2.6c1.4 0 2.8 .6 3.8 1.7c1.1 1.1 1.6 2.5 1.6 4.1c-.1 1.6 -.5 3 -1.6 4.2c-1.3 1 -2.5 1.7 -4.2 1.7Zm372.2 0c-1.8 0 -3.1 -.6 -4.2 -1.8c-1.1 -1.2 -1.5 -2.7 -1.5 -4.7c0 -.8 0 -1.3 0 -1.8c0 -.5 0 -1.1 .1 -1.7c0 -.7 .2 -1.2 .4 -1.6c.1 -.5 .5 -.9 .8 -1.3c.2 -.5 .7 -.8 1.1 -1.1c.5 -.4 1.1 -.5 1.8 -.7l6.4 -1.5l.3 1.4l-6.2 1.6c-1.2 .3 -1.9 .8 -2.4 1.4c-.6 .6 -.8 1.6 -.9 2.7c.9 -1.8 2.5 -2.6 4.7 -2.6c1.5 0 2.8 .6 3.9 1.7c1 1.1 1.6 2.5 1.6 4.1c-.1 1.6 -.6 3 -1.7 4.2c-1.2 1 -2.5 1.7 -4.2 1.7Zm69.7 -13.3c-.8 0 -1.5 -.3 -2.1 -.8c-.6 -.6 -.9 -1.2 -1 -2l1.1 -.3c.3 1 1 1.6 2 1.6c1 -.1 1.7 -.5 2 -1.6l1.2 .3c-.3 .7 -.5 1.5 -1.1 2c-.6 .5 -1.3 .8 -2.1 .8ZM902.9 199l-.3 -.8c1 -.4 1.5 -.9 1.5 -1.7v-.2h-.8V194h2.1v2c-.1 .8 -.2 1.5 -.6 2c-.5 .5 -1 .8 -1.9 1Zm210.4 0l-.3 -.8c1 -.4 1.5 -.9 1.5 -1.7v-.2h-.8V194h2.1v2c-.1 .8 -.2 1.5 -.6 2c-.5 .5 -1 .8 -1.9 1ZM504.8 194.8c.8 -.1 1.6 -.2 2 -.5c.4 -.5 .7 -.9 .7 -1.6c0 -.6 -.2 -1.1 -.7 -1.4c-.5 -.3 -1.2 -.5 -2 -.5h-3.1v4Zm137 0c.8 -.1 1.6 -.2 2 -.5c.4 -.5 .8 -.9 .8 -1.6c-.1 -.6 -.3 -1.1 -.8 -1.4c-.5 -.3 -1.2 -.5 -2 -.5h-3.1v4Zm120.5 0c.8 -.1 1.5 -.2 2 -.5c.4 -.5 .7 -.9 .7 -1.6c-.1 -.6 -.3 -1.1 -.7 -1.4c-.6 -.3 -1.2 -.5 -2.1 -.5h-3v4Zm129.3 0c.8 -.1 1.5 -.2 2 -.5c.4 -.5 .7 -.9 .7 -1.6c-.1 -.6 -.2 -1.1 -.7 -1.4c-.6 -.3 -1.2 -.5 -2.1 -.5h-3v4Zm68.3 .2c.8 0 1.5 -.2 2 -.6c.4 -.4 .7 -.9 .7 -1.6c-.1 -.7 -.2 -1.1 -.7 -1.5c-.6 -.3 -1.2 -.5 -2.1 -.5h-3V195Zm142.1 -.2c.8 -.1 1.5 -.2 2 -.5c.4 -.5 .7 -.9 .7 -1.6c-.1 -.6 -.2 -1.1 -.7 -1.4c-.6 -.3 -1.2 -.5 -2.1 -.5h-3v4Zm-732.2 .3c1 0 1.9 -.3 2.7 -.8c.6 -.7 1 -1.3 1 -2.2v-1c-1.1 -.3 -2.2 -.5 -3.2 -.5c-1.1 0 -1.9 .2 -2.5 .7c-.6 .3 -.8 .9 -.8 1.6c-.1 .6 .2 1.2 .8 1.6c.5 .4 1.2 .6 2 .6Zm95.7 0c1 0 2 -.3 2.7 -.8c.6 -.7 1.1 -1.3 1.1 -2.2v-1c-1.1 -.3 -2.2 -.5 -3.3 -.5c-1 0 -1.8 .2 -2.4 .7c-.7 .3 -.9 .9 -.9 1.6c0 .6 .3 1.2 .8 1.6c.5 .4 1.2 .6 2 .6ZM844 195v-8.5h-4.6v1.6c0 2.8 -.5 5.2 -1.4 6.9Zm210.4 0v-8.5h-4.6v1.6c0 2.8 -.5 5.2 -1.4 6.9Zm-616 .1c1.1 0 2.1 -.4 2.9 -1.2c.7 -.9 1.2 -1.9 1.2 -3.1c-.1 -1.3 -.4 -2.2 -1.2 -3.1c-.8 -.8 -1.8 -1.2 -2.9 -1.2c-.1 0 -.2 0 -.2 0c-1.1 0 -2 .4 -2.7 1.2c-.9 .8 -1.2 1.9 -1.2 3.1c0 1.1 .4 2.2 1.2 3.1c.7 .7 1.8 1.2 2.9 1.2Zm-28.8 .2c1.2 0 2.2 -.4 3 -1.3c.8 -.9 1.2 -1.9 1.2 -3.2c-.1 -1.3 -.4 -2.3 -1.2 -3.2c-.9 -1 -1.9 -1.3 -3.1 -1.3c-1.3 0 -2.2 .4 -3 1.3c-.9 .8 -1.2 2 -1.2 3.2c0 1.2 .4 2.3 1.3 3.2c.7 .9 1.8 1.3 3 1.3Zm14.3 0c1.2 0 2.2 -.4 3 -1.3c.8 -.9 1.2 -1.9 1.2 -3.2c-.1 -1.3 -.4 -2.3 -1.2 -3.2c-.8 -1 -1.8 -1.3 -3 -1.3c-1.4 0 -2.3 .4 -3.1 1.3c-.8 .8 -1.1 2 -1.1 3.2c-.1 1.2 .4 2.3 1.2 3.2c.7 .9 1.8 1.3 3 1.3Zm29.2 -.2c1.1 0 2.1 -.4 2.9 -1.2c.7 -.9 1.1 -1.8 1.1 -3.2c-.1 -1.3 -.4 -2.4 -1.1 -3.2c-.8 -.9 -1.8 -1.2 -2.9 -1.2c-1.2 0 -2 .4 -2.9 1.3c-.9 .7 -1.2 1.9 -1.2 3.1c0 1.3 .4 2.4 1.2 3.2c.7 .7 1.8 1.2 2.9 1.2Zm72.3 -5c-.2 -1.1 -.5 -2 -1.1 -2.7c-.7 -.8 -1.5 -1.1 -2.6 -1.1c-1 0 -1.8 .4 -2.5 1.1c-.8 .7 -1.1 1.6 -1.3 2.7Zm51 5.2c1.2 0 2.2 -.4 3 -1.3c.8 -.9 1.2 -1.9 1.2 -3.2c-.1 -1.3 -.4 -2.3 -1.2 -3.2c-.9 -1 -1.9 -1.3 -3.1 -1.3c-1.3 0 -2.2 .4 -3 1.3c-.9 .8 -1.2 2 -1.2 3.2c0 1.2 .4 2.3 1.2 3.2c.7 .9 1.9 1.3 3.1 1.3Zm30.8 -5.2c-.1 -1.1 -.4 -2 -1.1 -2.7c-.7 -.8 -1.5 -1.1 -2.6 -1.1c-1 0 -1.8 .4 -2.5 1.1c-.8 .7 -1.1 1.6 -1.2 2.7Zm55.2 0c-.2 -1.1 -.5 -2 -1.1 -2.7c-.7 -.8 -1.5 -1.1 -2.6 -1.1c-1 0 -1.8 .4 -2.5 1.1c-.8 .7 -1.1 1.6 -1.2 2.7Zm31.8 5.2c1.2 0 2.2 -.4 3 -1.3c.8 -.9 1.2 -1.9 1.2 -3.2c-.1 -1.3 -.4 -2.3 -1.2 -3.2c-.9 -1 -1.9 -1.3 -3.1 -1.3c-1.3 0 -2.2 .4 -3 1.3c-.9 .8 -1.2 2 -1.2 3.2c0 1.2 .4 2.3 1.2 3.2c.8 .9 1.9 1.3 3.1 1.3Zm27.6 0c1.2 0 2.3 -.4 3 -1.3c.8 -.9 1.2 -1.9 1.2 -3.2c0 -1.3 -.4 -2.3 -1.2 -3.2c-.8 -1 -1.8 -1.3 -3 -1.3c-1.4 0 -2.3 .4 -3.1 1.3c-.8 .8 -1.1 2 -1.1 3.2c-.1 1.2 .4 2.3 1.2 3.2c.7 .9 1.8 1.3 3 1.3Zm61.1 -5.2c-.2 -1.1 -.5 -2 -1.1 -2.7c-.7 -.8 -1.5 -1.1 -2.6 -1.1c-1.1 0 -1.9 .4 -2.6 1.1c-.8 .7 -1.1 1.6 -1.2 2.7Zm30.8 5c1.1 0 2.1 -.4 2.9 -1.2c.7 -.9 1.1 -1.8 1.1 -3.2c-.1 -1.3 -.4 -2.4 -1.1 -3.2c-.9 -.9 -1.8 -1.2 -2.9 -1.2c-1.2 0 -2.1 .4 -2.9 1.3c-.9 .7 -1.2 1.9 -1.2 3.1c0 1.3 .4 2.4 1.2 3.2c.7 .7 1.8 1.2 2.9 1.2Zm14.2 .2c1.2 0 2.2 -.4 3 -1.3c.8 -.9 1.2 -1.9 1.2 -3.2c-.1 -1.3 -.4 -2.3 -1.2 -3.2c-.8 -1 -1.9 -1.3 -3.1 -1.3c-1.3 0 -2.2 .4 -3 1.3c-.9 .8 -1.2 2 -1.2 3.2c0 1.2 .4 2.3 1.3 3.2c.7 .9 1.8 1.3 3 1.3Zm109 -5.2c-.2 -1.1 -.5 -2 -1.1 -2.7c-.7 -.8 -1.5 -1.1 -2.6 -1.1c-1 0 -1.8 .4 -2.5 1.1c-.8 .7 -1.1 1.6 -1.3 2.7Zm47.7 5.2c1.2 0 2.2 -.4 3 -1.3c.8 -.9 1.2 -1.9 1.2 -3.2c-.1 -1.3 -.4 -2.3 -1.2 -3.2c-.9 -1 -1.9 -1.3 -3.1 -1.3c-1.3 0 -2.2 .4 -3 1.3c-.9 .8 -1.2 2 -1.2 3.2c0 1.2 .4 2.3 1.3 3.2c.7 .9 1.8 1.3 3 1.3Zm39.5 -.2c1.1 0 2.1 -.4 2.9 -1.2c.7 -.9 1.1 -1.8 1.1 -3.2c-.1 -1.3 -.4 -2.4 -1.2 -3.2c-.8 -.9 -1.7 -1.2 -2.8 -1.2c-1.2 0 -2.1 .4 -2.9 1.3c-.9 .7 -1.2 1.9 -1.2 3.1c0 1.3 .4 2.4 1.2 3.2c.7 .7 1.8 1.2 2.9 1.2Zm14.2 .2c1.2 0 2.2 -.4 3 -1.3c.8 -.9 1.2 -1.9 1.2 -3.2c-.1 -1.3 -.4 -2.3 -1.2 -3.2c-.9 -1 -1.9 -1.3 -3.1 -1.3c-1.3 0 -2.2 .4 -3 1.3c-.9 .8 -1.2 2 -1.2 3.2c0 1.2 .4 2.3 1.3 3.2c.7 .9 1.8 1.3 3 1.3Zm-647.9 1V185h1.8v4.8h6.5V185h1.8v11.3h-1.8v-5h-6.5v5Zm95.8 0V185h1.7v4.8h6.6V185h1.7v11.3h-1.7v-5h-6.6v5Zm13.8 0V185h1.7v4.3h3.1c1.3 0 2.4 .3 3.2 .8c.9 .5 1.3 1.4 1.3 2.6c0 1.1 -.4 2 -1.2 2.6c-.8 .7 -1.8 1 -3.1 1Zm11.3 0V185H513v11.3Zm25.3 0V185h1.8v8.9l6.8 -8.9h1.7v11.3h-1.7v-9l-6.9 9Zm20.7 .2V185h10v11.5h-1.8v-10H559v10Zm27.4 .1c-.6 0 -1 0 -1.5 -.2l.2 -1.4c.3 .1 .7 .1 .9 .1c.2 0 .6 0 .8 -.1c.1 -.1 .4 -.3 .6 -.6c.2 -.4 .5 -.9 .6 -1.5c.1 -.7 .2 -1.5 .3 -2.7c.1 -1.2 .2 -2.6 .2 -4.3V185h8.1v11.4h-1.8v-9.9h-4.6v.2c0 1.8 0 3.3 -.2 4.5c-.2 1.2 -.3 2.2 -.5 2.9c-.2 .7 -.5 1.2 -.8 1.6c-.4 .4 -.7 .6 -1.1 .8c-.4 0 -.7 .1 -1.2 .1Zm38.5 -.3V185h1.7v4.8h6.6V185h1.7v11.3h-1.7v-5h-6.6v5Zm13.8 0V185h1.7v4.3h3.1c1.3 0 2.4 .3 3.2 .8c.9 .5 1.3 1.4 1.3 2.6c0 1.1 -.4 2 -1.2 2.6c-.8 .7 -1.8 1 -3.1 1Zm11.3 0V185H650v11.3Zm25.3 0V185h1.7l4.2 5.9l4.2 -5.9h1.7v11.3h-1.8v-8.6l-4.1 5.7l-4.1 -5.7v8.6Zm28.9 .3c-.6 0 -1 0 -1.4 -.2l.2 -1.4c.2 .1 .6 .1 .8 .1c.3 0 .6 0 .8 -.1c.1 -.1 .4 -.3 .6 -.6c.2 -.4 .5 -.9 .6 -1.5c.1 -.7 .3 -1.5 .4 -2.7c0 -1.2 .1 -2.6 .1 -4.3V185h8.1v11.4h-1.8v-9.9h-4.6v.2c0 1.8 0 3.3 -.2 4.5c-.2 1.2 -.3 2.2 -.5 2.9c-.2 .7 -.5 1.2 -.8 1.6c-.4 .4 -.7 .6 -1.1 .8c-.4 0 -.7 .1 -1.2 .1Zm35.5 -.3v-4.7c-.5 .2 -1 .5 -1.8 .7c-.7 .2 -1.4 .3 -2 .3c-1.1 0 -2 -.3 -2.7 -.8c-.7 -.7 -1 -1.5 -1 -2.5V185h1.7v4c0 .7 .2 1.2 .6 1.6c.4 .3 1 .5 1.7 .5c1.3 0 2.5 -.3 3.5 -1V185h1.8v11.3Zm5.6 0V185h1.7v4.8h6.6V185h1.8v11.3h-1.8v-5h-6.6v5Zm13.8 0V185h1.8v4.3h3c1.3 0 2.4 .3 3.3 .8c.8 .5 1.2 1.4 1.2 2.6c0 1.1 -.3 2 -1.1 2.6c-.9 .7 -1.9 1 -3.2 1Zm11.3 0V185h1.8v11.3Zm25.4 .2V185h10v11.5h-1.8v-10h-6.5v10Zm40.7 2.8V195h1.3c1 -1.9 1.6 -4.6 1.6 -8v-2h8v10h1.6v4.3h-1.6v-2.8h-9.1l-.3 2.8Zm16.9 .7c-.9 0 -1.7 -.2 -2.5 -.6l.6 -1.4c.5 .3 1.1 .5 1.8 .5c.4 -.1 .9 -.2 1.3 -.5c.3 -.3 .7 -.9 1 -1.7L848.7 185h1.9l4.2 9.5l3.7 -9.5h1.8l-4.8 11.7c-.6 1.2 -1.1 2 -1.6 2.5c-.7 .4 -1.4 .8 -2.2 .8Zm11.4 -3.7V185h1.7v6.5l6.3 -6.5h2.1l-4.8 4.9l4.9 6.4h-2l-4 -5.2l-2.5 2.5v2.7Zm15.2 .2v-10h-4V185h10v1.5h-4.2v10Zm8.4 -.2V185h1.8v4.3h3c1.3 0 2.5 .3 3.3 .8c.8 .5 1.3 1.4 1.3 2.6c0 1.1 -.4 2 -1.2 2.6c-.9 .7 -1.9 1 -3.2 1Zm11.3 0V185h1.8v11.3Zm43 .3c-.5 0 -.9 0 -1.4 -.2l.2 -1.4c.2 .1 .6 .1 .8 .1c.3 0 .6 0 .8 -.1c.1 -.1 .5 -.3 .7 -.6c.2 -.4 .4 -.9 .6 -1.5c0 -.7 .2 -1.5 .3 -2.7c0 -1.2 .2 -2.6 .2 -4.3V185h8v11.4h-1.7v-9.9h-4.6v.2c0 1.8 -.1 3.3 -.2 4.5c-.2 1.2 -.3 2.2 -.5 2.9c-.2 .7 -.5 1.2 -.9 1.6c-.4 .4 -.7 .6 -1 .8c-.4 0 -.8 .1 -1.3 .1Zm14 -.1V185h1.8v4.3h3c1.3 0 2.4 .3 3.3 .9c.8 .5 1.2 1.4 1.2 2.5c0 1.1 -.3 2.1 -1.1 2.8c-.9 .6 -1.9 1 -3.2 1Zm10.8 -.2l4.5 -5.8L966 185h2l3.4 4.4l3.3 -4.4h1.9l-4.3 5.5l4.5 5.8h-2l-3.5 -4.6l-3.6 4.6Zm38.7 .2V185h10v11.5h-1.8v-10h-6.5v10Zm40.7 2.8V195h1.3c1 -1.9 1.5 -4.6 1.5 -8v-2h8.1v10h1.6v4.3h-1.6v-2.8H1047l-.4 2.8Zm16.9 .7c-.9 0 -1.7 -.2 -2.5 -.6l.6 -1.4c.5 .3 1.1 .5 1.8 .5c.4 -.1 .9 -.2 1.3 -.5c.3 -.3 .7 -.9 1 -1.7L1059.1 185h1.9l4.2 9.5l3.7 -9.5h1.8l-4.8 11.7c-.6 1.2 -1.1 2 -1.7 2.5c-.6 .4 -1.3 .8 -2.1 .8Zm11.4 -3.7V185h1.7v6.5l6.3 -6.5h2.1l-4.8 4.9l4.9 6.4h-2l-4 -5.2l-2.5 2.5v2.7Zm15.2 .2v-10h-4V185h10v1.5h-4.2v10Zm8.4 -.2V185h1.8v4.3h3c1.3 0 2.5 .3 3.3 .8c.8 .5 1.3 1.4 1.3 2.6c0 1.1 -.4 2 -1.2 2.6c-.9 .7 -1.9 1 -3.2 1Zm11.3 0V185h1.8v11.3Zm-187.5 .5c-1.7 -.1 -3 -.6 -4.2 -1.8c-1.1 -1.2 -1.7 -2.6 -1.7 -4.2c0 -1.7 .6 -3 1.7 -4.2c1.1 -1.3 2.6 -1.8 4.2 -1.8q.1 0 .2 0c1.6 0 3.2 .7 4.4 2l-1.1 1.2c-1.1 -1.1 -2.2 -1.7 -3.5 -1.7c-1.2 0 -2.1 .4 -2.9 1.3c-.9 .8 -1.2 2 -1.2 3.2c0 1.2 .4 2.3 1.2 3.2c.7 .9 1.8 1.3 3 1.3c1.1 0 2.4 -.6 3.5 -1.7l1.1 1c-1.4 1.4 -2.9 2.2 -4.7 2.2Zm-398.9 0c-1.7 -.1 -3 -.6 -4.1 -1.7c-1.2 -1.2 -1.7 -2.5 -1.7 -4.3c0 -1.7 .5 -3.1 1.6 -4.2c1 -1.3 2.4 -1.8 4 -1.8c0 0 .1 0 .1 0c1.6 0 2.9 .7 3.8 1.8c.9 1.1 1.5 2.6 1.5 4.4c-.1 .2 0 .5 -.1 .6h-9.2c.1 1.2 .6 2 1.4 2.7c.7 .7 1.7 1 2.7 1c1.4 0 2.6 -.5 3.7 -1.6l1.1 1c-1.4 1.4 -2.9 2.1 -4.8 2.1Zm81.8 0c-1.7 -.1 -3 -.6 -4.1 -1.7c-1.1 -1.2 -1.7 -2.5 -1.7 -4.3c0 -1.7 .5 -3.1 1.6 -4.2c1 -1.3 2.4 -1.8 4 -1.8c0 0 .1 0 .2 0c1.5 0 2.8 .7 3.7 1.8c.9 1.1 1.5 2.6 1.5 4.4c-.1 .2 0 .5 0 .6h-9.2c.1 1.2 .5 2 1.3 2.7c.7 .7 1.7 1 2.8 1c1.3 0 2.6 -.5 3.6 -1.6l1.1 1c-1.4 1.4 -2.9 2.1 -4.8 2.1Zm55.2 0c-1.7 -.1 -3 -.6 -4.1 -1.7c-1.1 -1.2 -1.7 -2.5 -1.7 -4.3c0 -1.7 .5 -3.1 1.6 -4.2c1 -1.3 2.4 -1.8 4 -1.8c0 0 .1 0 .1 0c1.6 0 2.9 .7 3.8 1.8c.9 1.1 1.5 2.6 1.5 4.4c-.1 .2 0 .5 0 .6H655c0 1.2 .5 2 1.3 2.7c.7 .7 1.7 1 2.7 1c1.4 0 2.6 -.5 3.7 -1.6l1.1 1c-1.4 1.4 -2.9 2.1 -4.8 2.1Zm120.4 0c-1.6 -.1 -3 -.6 -4.1 -1.7c-1.1 -1.2 -1.7 -2.5 -1.7 -4.3c0 -1.7 .6 -3.1 1.6 -4.2c1 -1.3 2.4 -1.8 4 -1.8q.1 0 .2 0c1.5 0 2.8 .7 3.8 1.8c.9 1.1 1.4 2.6 1.4 4.4c-.1 .2 0 .5 0 .6h-9.2c.1 1.2 .6 2 1.3 2.7c.8 .7 1.7 1 2.8 1c1.3 0 2.6 -.5 3.6 -1.6l1.1 1c-1.4 1.4 -2.9 2.1 -4.8 2.1Zm154.1 0c-1.7 -.1 -3 -.6 -4.1 -1.7c-1.2 -1.2 -1.7 -2.5 -1.7 -4.3c0 -1.7 .5 -3.1 1.6 -4.2c1 -1.3 2.4 -1.8 4 -1.8c0 0 .1 0 .1 0c1.6 0 2.9 .7 3.8 1.8c.9 1.1 1.5 2.6 1.5 4.4c-.1 .2 0 .5 -.1 .6h-9.2c.1 1.2 .6 2 1.4 2.7c.7 .7 1.7 1 2.7 1c1.4 0 2.6 -.5 3.7 -1.6l1.1 1c-1.4 1.4 -2.9 2.1 -4.8 2.1Zm-524 0c-1.8 -.1 -3.1 -.6 -4.2 -1.8c-1.2 -1.2 -1.7 -2.5 -1.7 -4.2c0 -1.7 .6 -3 1.7 -4.2c1.1 -1.3 2.6 -1.8 4.3 -1.8c0 0 .1 0 .2 0c1.6 0 2.9 .6 4 1.8c1.1 1.1 1.8 2.6 1.8 4.2c-.2 1.6 -.6 3.1 -1.8 4.2c-1.2 1.2 -2.6 1.8 -4.3 1.8Zm14.4 0c-1.8 -.1 -3.2 -.6 -4.3 -1.8c-1.1 -1.2 -1.7 -2.5 -1.7 -4.2c0 -1.7 .6 -3 1.7 -4.2c1.2 -1.3 2.6 -1.8 4.3 -1.8q.1 0 .2 0c1.6 0 3 .6 4.1 1.8c1 1.1 1.7 2.6 1.7 4.2c-.1 1.6 -.6 3.1 -1.8 4.2c-1.2 1.2 -2.5 1.8 -4.2 1.8Zm152.4 0c-1.8 -.1 -3.1 -.6 -4.2 -1.8c-1.2 -1.2 -1.7 -2.5 -1.7 -4.2c0 -1.7 .5 -3 1.7 -4.2c1.1 -1.3 2.6 -1.8 4.3 -1.8c0 0 .1 0 .2 0c1.6 0 2.9 .6 4 1.8c1.1 1.1 1.7 2.6 1.7 4.2c-.1 1.6 -.5 3.1 -1.7 4.2c-1.2 1.2 -2.6 1.8 -4.3 1.8Zm117.8 0c-1.8 -.1 -3.1 -.6 -4.2 -1.8c-1.2 -1.2 -1.7 -2.5 -1.7 -4.2c0 -1.7 .5 -3 1.7 -4.2c1.1 -1.3 2.6 -1.8 4.3 -1.8c0 0 .1 0 .2 0c1.6 0 2.9 .6 4 1.8c1.1 1.1 1.7 2.6 1.7 4.2c-.1 1.6 -.5 3.1 -1.7 4.2c-1.2 1.2 -2.6 1.8 -4.3 1.8Zm27.7 0c-1.8 -.1 -3.2 -.6 -4.3 -1.8c-1.1 -1.2 -1.7 -2.5 -1.7 -4.2c0 -1.7 .6 -3 1.7 -4.2c1.2 -1.3 2.6 -1.8 4.3 -1.8q.1 0 .2 0c1.6 0 3 .6 4.1 1.8c1 1.1 1.7 2.6 1.7 4.2c-.1 1.6 -.6 3.1 -1.7 4.2c-1.3 1.2 -2.6 1.8 -4.3 1.8Zm106 0c-1.8 -.1 -3.1 -.6 -4.2 -1.8c-1.2 -1.2 -1.7 -2.5 -1.7 -4.2c0 -1.7 .6 -3 1.7 -4.2c1.1 -1.3 2.6 -1.8 4.3 -1.8q.1 0 .2 0c1.6 0 3 .6 4 1.8c1.1 1.1 1.8 2.6 1.8 4.2c-.2 1.6 -.6 3.1 -1.8 4.2c-1.2 1.2 -2.6 1.8 -4.3 1.8Zm156.7 0c-1.8 -.1 -3.1 -.6 -4.2 -1.8c-1.2 -1.2 -1.7 -2.5 -1.7 -4.2c0 -1.7 .6 -3 1.7 -4.2c1.1 -1.3 2.6 -1.8 4.3 -1.8c0 0 .1 0 .2 0c1.6 0 2.9 .6 4 1.8c1.1 1.1 1.8 2.6 1.8 4.2c-.2 1.6 -.6 3.1 -1.8 4.2c-1.2 1.2 -2.6 1.8 -4.3 1.8Zm53.7 0c-1.8 -.1 -3.1 -.6 -4.2 -1.8c-1.2 -1.2 -1.7 -2.5 -1.7 -4.2c0 -1.7 .6 -3 1.7 -4.2c1.1 -1.3 2.6 -1.8 4.3 -1.8c0 0 .1 0 .2 0c1.6 0 2.9 .6 4 1.8c1.1 1.1 1.8 2.6 1.8 4.2c-.2 1.6 -.6 3.1 -1.8 4.2c-1.2 1.2 -2.6 1.8 -4.3 1.8Zm-591 3.2V185H449v2.3c1.1 -1.7 2.6 -2.5 4.4 -2.5q.1 0 .2 0c1.3 0 2.6 .6 3.6 1.6c1.1 1.1 1.7 2.5 1.7 4.3c-.1 1.8 -.6 3.2 -1.7 4.3c-1.1 1.1 -2.3 1.6 -3.8 1.6c-1.9 0 -3.3 -.8 -4.4 -2.4V200Zm360.6 0V185h1.8v2.3c1.1 -1.7 2.6 -2.5 4.4 -2.5c0 0 .1 0 .2 0c1.3 0 2.6 .6 3.6 1.6c1.1 1.1 1.7 2.5 1.7 4.3c-.1 1.8 -.6 3.2 -1.7 4.3c-1.1 1.1 -2.4 1.6 -3.8 1.6c-1.9 0 -3.3 -.8 -4.4 -2.4V200Zm210.4 0V185h1.8v2.3c1.1 -1.7 2.6 -2.5 4.4 -2.5c0 0 .1 0 .2 0c1.3 0 2.6 .6 3.6 1.6c1.1 1.1 1.7 2.5 1.7 4.3c-.1 1.8 -.6 3.2 -1.7 4.3c-1.1 1.1 -2.4 1.6 -3.8 1.6c-1.9 0 -3.3 -.8 -4.4 -2.4V200ZM369.5 196.6c-1.3 0 -2.2 -.3 -3 -.9c-.9 -.7 -1.3 -1.6 -1.3 -2.7c0 -1.4 .5 -2.2 1.3 -2.9c.8 -.7 2.1 -1 3.6 -1c.1 0 .2 0 .3 0c1 0 2.1 .3 3.1 .6v-.4c0 -1 -.3 -1.7 -.8 -2.2c-.7 -.6 -1.4 -.8 -2.5 -.8c-1.2 0 -2.3 .3 -3.4 .8l-.5 -1.3c1.4 -.7 2.8 -1 4.1 -1c.1 0 .2 0 .2 0c1.5 0 2.7 .5 3.5 1.3c.7 .7 1.2 1.9 1.2 3.3v7h-1.8v-1.8c-1 1.3 -2.3 2 -4 2Zm95.7 0c-1.2 0 -2.2 -.3 -3 -.9C461.3 195 461 194.1 461 193c0 -1.4 .4 -2.2 1.3 -2.9c.8 -.7 2 -1 3.5 -1c.1 0 .2 0 .3 0c1.1 0 2.1 .3 3.2 .6v-.4c0 -1 -.3 -1.7 -.9 -2.2c-.6 -.6 -1.4 -.8 -2.5 -.8c-1.2 0 -2.2 .3 -3.4 .8l-.5 -1.3c1.4 -.7 2.8 -1 4.2 -1c0 0 .1 0 .2 0c1.4 0 2.6 .5 3.4 1.3c.8 .7 1.2 1.9 1.2 3.3v7h-1.7v-1.8c-1 1.3 -2.4 2 -4.1 2Zm-82.7 .2c-1.8 -.1 -3.3 -.6 -4.7 -1.7l.8 -1.3c1.1 .9 2.5 1.5 3.9 1.5c.8 0 1.5 -.2 2 -.5c.5 -.4 .9 -.9 .9 -1.5c0 -.6 -.3 -1 -.8 -1.3c-.6 -.5 -1.2 -.5 -2.2 -.5h-1.5V190h1.6c.7 0 1.3 -.2 1.8 -.6c.4 -.4 .7 -.8 .7 -1.4c0 -.5 -.2 -.9 -.7 -1.2c-.5 -.4 -1 -.5 -1.8 -.5c-1.4 0 -2.5 .4 -3.5 1.2l-.8 -1.2c1.2 -1.1 2.7 -1.5 4.4 -1.5c.1 0 .2 0 .3 0c1.1 0 2.1 .3 2.8 .9c.6 .5 1.1 1.3 1.1 2.2c0 1.2 -.6 2.1 -1.8 2.6c1.3 .5 2.1 1.5 2.1 2.8c0 1 -.4 1.8 -1.2 2.5c-.9 .6 -2 1 -3.4 1Zm95.8 0c-1.8 -.1 -3.4 -.6 -4.8 -1.7l.9 -1.3c1.1 .9 2.4 1.5 3.8 1.5c.8 0 1.5 -.2 2.1 -.5c.5 -.4 .8 -.9 .8 -1.5c0 -.6 -.2 -1 -.7 -1.3c-.6 -.5 -1.3 -.5 -2.2 -.5h-1.6V190h1.6c.7 0 1.4 -.2 1.9 -.6c.4 -.4 .7 -.8 .7 -1.4c0 -.5 -.2 -.9 -.7 -1.2c-.6 -.4 -1.1 -.5 -1.8 -.5c-1.4 0 -2.6 .4 -3.5 1.2l-.9 -1.2c1.2 -1.1 2.8 -1.5 4.5 -1.5q.1 0 .2 0c1.1 0 2.1 .3 2.8 .9c.7 .5 1.1 1.3 1.1 2.2c0 1.2 -.6 2.1 -1.8 2.6c1.4 .5 2.2 1.5 2.2 2.8c-.1 1 -.4 1.8 -1.3 2.5c-.9 .6 -1.9 1 -3.3 1Zm137 0c-1.8 -.1 -3.4 -.6 -4.8 -1.7l.9 -1.3c1.1 .9 2.4 1.5 3.9 1.5c.7 0 1.4 -.2 2 -.5c.5 -.4 .8 -.9 .8 -1.5c0 -.6 -.2 -1 -.7 -1.3c-.6 -.5 -1.3 -.5 -2.2 -.5h-1.6V190h1.6c.7 0 1.4 -.2 1.9 -.6c.4 -.4 .7 -.8 .7 -1.4c0 -.5 -.2 -.9 -.7 -1.2c-.6 -.4 -1.1 -.5 -1.8 -.5c-1.4 0 -2.6 .4 -3.5 1.2l-.9 -1.2c1.2 -1.1 2.8 -1.5 4.5 -1.5q.1 0 .2 0c1.1 0 2.1 .3 2.8 .9c.7 .5 1.1 1.3 1.1 2.2c0 1.2 -.6 2.1 -1.8 2.6c1.4 .5 2.2 1.5 2.2 2.8c-.1 1 -.4 1.8 -1.3 2.5c-.9 .6 -1.9 1 -3.3 1Zm381.3 0c-1.8 -.1 -3.4 -.6 -4.8 -1.7l.9 -1.3c1.1 .9 2.5 1.5 3.9 1.5c.7 0 1.4 -.2 2 -.5c.5 -.4 .8 -.9 .8 -1.5c0 -.6 -.2 -1 -.7 -1.3c-.6 -.5 -1.3 -.5 -2.2 -.5H995V190h1.5c.8 0 1.4 -.2 1.9 -.6c.4 -.4 .7 -.8 .7 -1.4c0 -.5 -.2 -.9 -.7 -1.2c-.6 -.4 -1.1 -.5 -1.8 -.5c-1.4 0 -2.5 .4 -3.5 1.2l-.9 -1.2c1.3 -1.1 2.8 -1.5 4.5 -1.5c.1 0 .2 0 .2 0c1.2 0 2.1 .3 2.8 .9c.7 .5 1.2 1.3 1.2 2.2c-.1 1.2 -.6 2.1 -1.9 2.6c1.4 .5 2.2 1.5 2.2 2.8c0 1 -.4 1.8 -1.3 2.5c-.8 .6 -1.9 1 -3.3 1ZM357.4 189.5c1.1 -.1 2.3 -.3 3.1 -1c.7 -.7 1.1 -1.5 1.1 -2.6c-.1 -1.2 -.3 -1.9 -1.1 -2.5c-.8 -.6 -1.8 -.9 -3.1 -.9h-3.9v7Zm-5.7 7V181h5.9c1.7 0 3.2 .4 4.2 1.3c1 .8 1.6 2.1 1.6 3.6c-.1 1.5 -.6 2.9 -1.8 3.8c-1.2 .8 -2.6 1.3 -4.3 1.3h-3.8v5.5Zm86.7 .1c-1.9 0 -3.2 -.6 -4.3 -1.7c-1.1 -1.3 -1.5 -2.8 -1.5 -4.7c0 -.8 0 -1.4 0 -1.9c0 -.5 0 -1.1 .1 -1.7c0 -.7 .2 -1.1 .4 -1.6c.1 -.4 .5 -.9 .8 -1.3c.2 -.4 .7 -.8 1.2 -1.1c.4 -.4 1 -.5 1.7 -.6l6.4 -1.6l.3 1.5l-6.2 1.5c-1.2 .3 -1.9 .8 -2.4 1.4c-.6 .6 -.8 1.6 -.9 2.7c.9 -1.7 2.5 -2.5 4.7 -2.5c1.5 0 2.8 .5 3.9 1.7c1 1.1 1.6 2.4 1.6 4c-.1 1.6 -.6 3 -1.7 4.2c-1.2 1.1 -2.5 1.7 -4.1 1.7Z"/></clipPath>
<clipPath id="c4_29"><path d="M694.2 102.5V96.9h12v5.6Zm158.1 -1.9l-3.7 -8.9l-3.6 8.9Zm-122.8 3.8c2.1 0 3.9 -.6 5.3 -1.8c1.2 -1.3 2 -2.8 2 -4.9c-.1 -2.1 -.7 -3.6 -2 -4.8c-1.5 -1.2 -3.1 -1.8 -5.3 -1.8v13.3Zm-5.9 0V91.1c-2.3 0 -4 .6 -5.4 1.8c-1.4 1.2 -2 2.9 -2 4.8c0 2 .6 3.7 2 4.9c1.4 1.2 3.2 1.8 5.4 1.8Zm62.7 -6.3c1.5 0 2.7 -.4 3.6 -1.2c.9 -.8 1.3 -1.7 1.3 -3c-.1 -1.4 -.4 -2.3 -1.3 -3c-.9 -.8 -2.2 -1.1 -3.7 -1.1h-4.8v8.3Zm-110.9 8.3c2.3 0 4.3 -.8 5.8 -2.4c1.5 -1.7 2.3 -3.7 2.3 -6.1c-.1 -2.4 -.8 -4.3 -2.3 -6c-1.5 -1.7 -3.5 -2.4 -5.9 -2.4c-2.4 0 -4.3 .8 -5.8 2.4c-1.6 1.6 -2.3 3.6 -2.3 6c0 2.3 .8 4.4 2.3 6.1c1.5 1.5 3.5 2.4 5.9 2.4Zm-40.3 5.3V84.5h5.8V96.4l11 -11.9h7.2L648 96l11.6 15.7h-7.2L644 100.1l-3.1 3.3v8.3Zm113.7 0V84.5h20.4v5.3H754.6v5.6h13v5.4h-13v5.6h14.8v5.3Zm53.5 0V84.5h6.4L815.9 96L823 84.5h6.4v27.2h-5.8V93.9l-7.7 11.7h-.2L808.1 94v17.7Zm32 .2L846 84.5h5.5l11.6 27.4h-6.2l-2.5 -6.2H842.9l-2.5 6.2Zm-58.7 -.3V84.5h11.1c3.2 0 5.8 .8 7.7 2.6c1.8 1.6 2.8 4 2.8 6.8c-.1 3 -1.1 5.4 -3.2 7c-2.1 1.6 -4.8 2.5 -8 2.5h-4.6v8.2Zm-160.5 .5c-2.6 0 -4.7 -.4 -6.5 -1.1c-1.8 -.9 -3.4 -1.9 -4.8 -3.5l3.6 -4c1.1 1.1 2.4 1.9 3.6 2.5c1 .4 2.4 .7 3.9 .7c1.9 0 3.6 -.5 5 -1.7c1.3 -1.3 2.3 -2.7 2.8 -4.6H611.5V95.3h11.1c-.5 -1.9 -1.4 -3.3 -2.8 -4.5c-1.5 -1.1 -3 -1.7 -4.9 -1.7c-2.6 0 -5 1 -7.1 2.9l-3.3 -4.1c2.9 -2.8 6.4 -4.1 10.4 -4.1c4.1 0 7.5 1.4 10.2 4.1c2.6 2.7 4 6.1 4 10c-.1 4 -1.3 7.4 -4 10.1c-2.8 2.6 -6 4.1 -10 4.1Zm60.2 0c-4.2 0 -7.6 -1.4 -10.3 -4.1c-2.8 -2.8 -4.1 -6.1 -4.1 -10.1c0 -3.9 1.4 -7.2 4.1 -10c2.7 -2.8 6.3 -4.1 10.4 -4.1c4.1 0 7.6 1.4 10.3 4.1c2.7 2.7 4.1 6.1 4.1 10c-.1 3.9 -1.3 7.3 -4.1 10c-2.8 2.7 -6.2 4.2 -10.4 4.2Zm48.3 .6v-3c-4.1 0 -7.4 -1.1 -9.8 -3.4c-2.5 -2.3 -3.6 -5.1 -3.6 -8.7c0 -3.5 1.2 -6.3 3.6 -8.5c2.3 -2.3 5.7 -3.3 9.8 -3.3V83.1h5.9v2.7c4 0 7.4 1.1 9.9 3.3c2.4 2.2 3.7 5.1 3.7 8.6c-.1 3.4 -1.2 6.4 -3.7 8.6c-2.6 2.2 -5.8 3.4 -9.9 3.4v3Z"/></clipPath>
<clipPath id="c5_29"><path d="M1027.3 686.7c-18 0 -32.6 -14.6 -32.6 -32.6c0 -18 14.6 -32.6 32.6 -32.6h289.6v65.2Z"/></clipPath>
<clipPath id="c6_29"><path d="M1204 659.9v-3.1h3.2v3.1Zm58.2 0v-3.1h3.1v3.1Zm-174 -1.8c.6 -.1 1.2 -.2 1.6 -.6c.4 -.4 .6 -.8 .6 -1.3v-.6c-.5 -.3 -1.1 -.4 -1.8 -.4c-.6 0 -1.1 .2 -1.4 .4c-.4 .3 -.5 .7 -.5 1.2c-.1 .3 .1 .7 .4 .9c.3 .2 .7 .4 1.1 .4Zm25.1 -.5c.9 0 1.5 -.4 1.5 -1.2c0 -.4 -.2 -.7 -.4 -.9c-.4 -.3 -.6 -.3 -1.1 -.3h-1.9v2.4Zm39.1 .5c.6 -.1 1.2 -.2 1.6 -.6c.4 -.4 .6 -.8 .6 -1.3v-.6c-.5 -.3 -1.1 -.4 -1.8 -.4c-.7 0 -1.1 .2 -1.4 .4c-.4 .3 -.6 .7 -.6 1.2c0 .3 .2 .7 .5 .9c.3 .2 .6 .4 1.1 .4Zm44 0c.6 -.1 1.2 -.2 1.6 -.6c.3 -.4 .6 -.8 .6 -1.3v-.6c-.6 -.3 -1.2 -.4 -1.8 -.4c-.7 0 -1.1 .2 -1.5 .4c-.3 .3 -.5 .7 -.5 1.2c-.1 .3 .2 .7 .4 .9c.3 .2 .7 .4 1.2 .4Zm58.2 0c.6 -.1 1.2 -.2 1.6 -.6c.4 -.4 .6 -.8 .6 -1.3v-.6c-.5 -.3 -1.1 -.4 -1.8 -.4c-.7 0 -1.1 .2 -1.4 .4c-.4 .3 -.5 .7 -.5 1.2c-.1 .3 .1 .7 .4 .9c.3 .2 .6 .4 1.1 .4Zm-152 -.8v-5.2h-2.8v.3c0 2.1 -.2 3.8 -.8 4.9Zm-44.6 .2c.7 -.1 1.5 -.3 2 -.8c.4 -.6 .7 -1.2 .7 -2c0 -.8 -.3 -1.4 -.8 -1.9c-.6 -.6 -1.1 -.8 -1.9 -.8q-.1 0 -.1 0c-.9 0 -1.4 .2 -1.9 .8c-.6 .4 -.7 1.2 -.7 1.9c-.1 .7 .2 1.4 .8 2c.5 .5 1.1 .8 1.9 .8Zm-29.3 2.4V649.6h9.3v10.3h-2.9v-7.8h-3.5v7.8Zm12.2 0c-.6 0 -1 0 -1.5 -.1l.2 -2.5c.2 0 .4 0 .6 0c.3 0 .6 0 .8 -.2c.1 -.2 .4 -.4 .5 -1c.2 -.5 .3 -1.2 .3 -2.3c0 -1.1 0 -2.5 0 -4.2h8.3v10.3h-2.9v-7.8h-2.5c-.1 1.3 0 2.5 -.2 3.4c-.1 .8 -.2 1.7 -.4 2.2c-.3 .6 -.4 1.1 -.7 1.4c-.4 .2 -.7 .5 -1.1 .6c-.4 .1 -.8 .2 -1.4 .2Zm39 2.4v-2.4h-14V649.6h2.9v7.7h3.5v-7.7h2.9v7.7h3.4v-7.7h2.9v7.7h1.1v5Zm14.9 0v-5h1.1c.6 -1.4 1 -3.7 1 -6.8v-.9h8.6v7.7h1.1v5h-2.7v-2.4h-6.4l-.2 2.4Zm13.7 -2.4V649.6h2.9v3.3h2.1c1.2 0 2.3 .3 3 .9c.8 .5 1.2 1.4 1.2 2.6c-.1 1 -.4 1.9 -1.1 2.6c-.7 .6 -1.7 .9 -2.9 .9Zm19.2 3c-1 0 -1.8 -.3 -2.7 -.8l1 -2.2c.4 .3 .9 .4 1.3 .4c.4 0 .8 -.2 1 -.6l-4 -10.1h3.1l2.3 6.8l2.3 -6.8h3.1l-4 10.4c-.5 1 -.9 1.8 -1.4 2.2c-.5 .5 -1.2 .7 -2 .7Zm15.2 -3v-3.7c-.9 .4 -1.8 .7 -2.8 .7c-1.1 0 -1.9 -.3 -2.6 -.9c-.7 -.6 -1 -1.4 -1 -2.4v-4h2.9v3.1c-.1 1.1 .5 1.6 1.5 1.6c.6 0 1.3 -.1 2 -.4v-4.3h2.9v10.3Zm30.4 0v-7.8h-3.1v-2.5h9.3v2.5h-3.3v7.8Zm7.6 0V649.6h2.9v4.2l3.7 -4.2h3.4l-3.8 4.2l4.3 6.1h-3.5l-2.7 -3.9l-1.4 1.4v2.5Zm23.1 -7.3v-3.1h3.2v3.1Zm-39.2 7.5c-1.5 -.1 -2.8 -.6 -3.8 -1.6c-1.1 -1.1 -1.6 -2.3 -1.6 -3.8c0 -1.5 .5 -2.7 1.6 -3.7c.9 -1.1 2.3 -1.6 3.9 -1.6c0 0 .1 0 .2 0c1.5 0 2.9 .7 3.9 1.8l-1.7 1.8c-.8 -.7 -1.6 -1 -2.4 -1q-.1 0 -.1 0c-.7 0 -1.3 .3 -1.7 .8c-.6 .4 -.8 1.2 -.8 1.9c0 .8 .3 1.5 .8 2c.3 .5 1.1 .8 1.9 .8c.7 -.1 1.6 -.3 2.4 -1.1l1.7 1.8c-.6 .5 -1.2 1 -1.8 1.4c-.7 .3 -1.5 .5 -2.5 .5Zm-106.8 0c-1.7 -.1 -3 -.6 -4 -1.6c-1.2 -1.1 -1.6 -2.3 -1.6 -3.8c0 -1.5 .5 -2.7 1.6 -3.7c1 -1.1 2.4 -1.6 4 -1.6q.1 0 .2 0c1.4 0 2.8 .6 3.8 1.6c1 1 1.6 2.2 1.6 3.7c-.1 1.5 -.5 2.8 -1.6 3.8c-1.2 .9 -2.4 1.6 -4 1.6Zm29.3 0c-1.1 -.1 -1.8 -.3 -2.5 -.9c-.7 -.7 -1 -1.3 -1 -2.3c0 -1.2 .4 -1.9 1.1 -2.5c.7 -.6 1.8 -.8 3 -.8c.8 0 1.7 .1 2.5 .4v-.2c0 -1.3 -.7 -1.8 -2.2 -1.8h-.1c-.8 0 -1.7 .2 -2.7 .5l-.7 -2.2c1.2 -.6 2.6 -.9 4 -.9c.1 0 .2 0 .3 0c1.3 0 2.5 .4 3.2 1.2c.7 .6 1.1 1.8 1.1 3.3v6h-2.9v-1.1c-.7 .8 -1.8 1.3 -3.1 1.3Zm64.2 0c-1.1 -.1 -1.9 -.3 -2.6 -.9c-.6 -.7 -1 -1.3 -1 -2.3c0 -1.2 .4 -1.9 1.2 -2.5c.7 -.6 1.7 -.8 3 -.8c.8 0 1.7 .1 2.5 .4v-.2c0 -1.3 -.7 -1.8 -2.2 -1.8c0 0 -.1 0 -.1 0c-.9 0 -1.7 .2 -2.7 .5l-.8 -2.2c1.2 -.6 2.7 -.9 4.1 -.9q.1 0 .2 0c1.4 0 2.5 .4 3.3 1.2c.7 .6 1.1 1.8 1.1 3.3v6h-2.9v-1.1c-.8 .8 -1.8 1.3 -3.1 1.3Zm44 0c-1.1 -.1 -1.9 -.3 -2.6 -.9c-.7 -.7 -1 -1.3 -1 -2.3c0 -1.2 .4 -1.9 1.1 -2.5c.7 -.6 1.8 -.8 3.1 -.8c.8 0 1.7 .1 2.5 .4v-.2c0 -1.3 -.8 -1.8 -2.2 -1.8q-.1 0 -.1 0c-.9 0 -1.8 .2 -2.7 .5l-.8 -2.2c1.2 -.6 2.6 -.9 4 -.9c.1 0 .2 0 .3 0c1.4 0 2.5 .4 3.2 1.2c.8 .6 1.2 1.8 1.2 3.3v6h-2.9v-1.1c-.8 .8 -1.9 1.3 -3.1 1.3Zm58.2 0c-1.1 -.1 -1.9 -.3 -2.5 -.9c-.7 -.7 -1 -1.3 -1 -2.3c0 -1.2 .3 -1.9 1.1 -2.5c.7 -.6 1.7 -.8 3 -.8c.8 0 1.7 .1 2.5 .4v-.2c0 -1.3 -.7 -1.8 -2.2 -1.8c0 0 -.1 0 -.1 0c-.9 0 -1.7 .2 -2.7 .5l-.7 -2.2c1.1 -.6 2.6 -.9 4 -.9c.1 0 .2 0 .2 0c1.4 0 2.6 .4 3.3 1.2c.7 .6 1.1 1.8 1.1 3.3v6h-2.9v-1.1c-.8 .8 -1.8 1.3 -3.1 1.3Zm-11.6 -.2V646.3h9.5v2.5H1245v11.1Zm-12.3 0V649.3l-2.3 .5l-.6 -2.4l3.9 -1.2h2v13.7Zm-14.5 0v-2.4l4.5 -3.7c.8 -.8 1.5 -1.3 1.8 -1.7c.2 -.5 .5 -1 .5 -1.5c0 -.7 -.2 -1 -.5 -1.3c-.4 -.3 -.8 -.5 -1.3 -.5q-.1 0 -.2 0c-.4 0 -.8 .2 -1.2 .4c-.5 .2 -.8 .8 -1.4 1.4l-2.1 -1.7c.7 -.9 1.5 -1.6 2.2 -2.1c.7 -.5 1.7 -.7 2.9 -.7c.1 0 .2 0 .3 0c1.2 0 2.3 .5 3.1 1.2c.7 .7 1.3 1.8 1.3 3.1c-.1 .7 -.2 1.4 -.5 1.9c-.3 .6 -.6 1.1 -1.1 1.6c-.4 .3 -1.1 1 -2 1.7l-2.2 1.7h5.9v2.6Z"/></clipPath>
</defs>
<image clip-path="url(#c0_29)" preserveAspectRatio="none" x="150" y="0" width="1167" height="825" xlink:href="img/1.jpg"/>
<image clip-path="url(#c1_29)" preserveAspectRatio="none" x="150" y="0" width="1167" height="825" xlink:href="img/2.jpg"/>
<image clip-path="url(#c2_29)" preserveAspectRatio="none" x="150" y="0" width="1167" height="825" xlink:href="img/3.jpg"/>
<image clip-path="url(#c3_29)" preserveAspectRatio="none" x="150" y="0" width="1167" height="825" xlink:href="img/4.jpg"/>
<image clip-path="url(#c4_29)" preserveAspectRatio="none" x="150" y="0" width="1167" height="825" xlink:href="img/5.jpg"/>
<image clip-path="url(#c5_29)" preserveAspectRatio="none" x="150" y="0" width="1167" height="825" xlink:href="img/6.jpg"/>
<image clip-path="url(#c6_29)" preserveAspectRatio="none" x="150" y="0" width="1167" height="825" xlink:href="img/7.jpg"/>
</svg>