<?xml version="1.0" encoding="UTF-8" standalone="no"?>
<!DOCTYPE svg PUBLIC "-//W3C//DTD SVG 1.1//EN"
"http://www.w3.org/Graphics/SVG/1.1/DTD/svg11.dtd">
<svg viewBox="0 0 1466 825" version="1.1" xmlns="http://www.w3.org/2000/svg" xmlns:xlink="http://www.w3.org/1999/xlink">
<defs>
<clipPath id="c0_7"><path d="M.1 825V0H1466.7V825Z"/></clipPath>
<clipPath id="c1_7"><path d="M.1 825V0H886.2V825Z"/></clipPath>
<style type="text/css"><![CDATA[
.g0_7{
fill: #FFF;
}
.g1_7{
fill: #548235;
}
]]></style>
</defs>
<path clip-path="url(#c0_7)" fill-rule="evenodd" d="M.1 825H1466.7V0H.1V825Z" class="g0_7"/>
<path fill-rule="evenodd" d="M1375.3 327.9h.1l.3 .1l.2 .1l5.5 5.5l.2 .2l.1 .2v.2l-.1 .4l-.1 .2l-.2 .2l-.3 .1l-.2 .1l-.3 -.1h-.2l-.2 -.2l-4 -4v16.2h16.2l-3.9 -3.9l-.1 -.2l-.1 -.2v-.6l.1 -.2l.2 -.2l.3 -.2h.5l.2 .1l.2 .2l5.5 5.5l.2 .2l.1 .2v.5l-.1 .2l-.2 .1l-5.5 5.5l-.2 .2l-.2 .1h-.5l-.3 -.1l-.2 -.2l-.1 -.3v-.5l.1 -.2l.1 -.2l3.9 -4h-16.2V365l4 -3.9l.2 -.1l.2 -.2h.3l.2 .1l.3 .1l.2 .2l.1 .3l.1 .2v.3l-.1 .3l-.2 .1l-5.5 5.5l-.2 .2h-.3l-.1 .1l-.3 -.1h-.2l-.2 -.2l-5.6 -5.5l-.1 -.1l-.1 -.3l-.1 -.3l.1 -.2l.1 -.3l.2 -.2l.3 -.1l.3 -.1h.2l.3 .2l.2 .1l3.9 3.9V348.9h-16.2l3.9 4l.2 .2l.1 .2v.5l-.2 .3l-.2 .2l-.2 .1h-.6l-.2 -.1l-.2 -.2l-5.5 -5.5l-.2 -.1v-.2l-.1 -.3l.1 -.2v-.2l.2 -.2l5.5 -5.5l.2 -.2l.2 -.1h.6l.2 .2l.2 .2l.2 .2v.6l-.1 .2l-.2 .2l-3.9 3.9h16.2V330.9l-3.9 4l-.2 .2h-.3l-.2 .1l-.3 -.1l-.3 -.1l-.2 -.2l-.1 -.2l-.1 -.4l.1 -.2l.1 -.2l.1 -.2l5.6 -5.5l.2 -.1l.2 -.1h.3Z" class="g1_7"/>
<path fill-rule="evenodd" d="M1371.9 430.6l-1.5 .2l-1.3 .6l-1.1 .9l-.9 1.1l-.6 1.3l-.2 1.4l.2 1.5l.6 1.3l.9 1.2l1.1 .8l1.3 .6l1.5 .2l1.4 -.2l1.4 -.6l1.1 -.8l.8 -1.2l.6 -1.3l.2 -1.5l-.2 -1.4l-.6 -1.3l-.8 -1.1l-1.1 -.9l-1.4 -.6l-1.4 -.2Zm0 -1.9l1.7 .2l1.5 .6l1.4 .9l1.2 1.1l.8 1.4l.6 1.5l.2 1.7l-.2 1.7l-.6 1.6l-.8 1.4l-1.2 1.1l-1.4 .9l-1.5 .5l-1.7 .2l-1.7 -.2l-1.6 -.5l-1.4 -.9l-1.1 -1.1l-.9 -1.4l-.5 -1.6l-.2 -1.7l.2 -1.7l.5 -1.5l.9 -1.4l1.1 -1.1l1.4 -.9l1.6 -.6l1.7 -.2Zm0 -5.5l-2.4 .2l-2.2 .6l-1.9 1l-1.9 1.3l-1.5 1.5l-1.3 1.8l-1 2l-.6 2.2l-.2 2.3l.1 2l.4 2l.6 1.9l.7 2l.9 1.8l1 1.9l1.1 1.7l1.1 1.7l1.1 1.5l1.2 1.4l1.1 1.3l.9 1.1l1 1l.7 .9l.6 .5l.3 .4h.3l.4 -.4l.5 -.5l.7 -.9l1 -1l1 -1.1l1 -1.3l1.2 -1.4l1.1 -1.5l1.1 -1.7l1.2 -1.7l1 -1.9l.8 -1.8l.8 -2l.5 -1.9l.4 -2l.1 -2l-.1 -2.3l-.7 -2.2l-.9 -2l-1.3 -1.8l-1.6 -1.5l-1.7 -1.3l-2.1 -1l-2.2 -.6l-2.3 -.2Zm0 -1.8l2.3 .2l2.4 .5l2.1 .9l1.9 1.2l1.8 1.5l1.4 1.7l1.2 1.9l1 2.1l.5 2.4l.2 2.3l-.1 2l-.4 1.9l-.5 1.9l-.7 2l-.9 1.8l-.9 1.9l-1 1.8l-1.2 1.8l-1.2 1.6l-1.1 1.6l-1.2 1.5l-1.1 1.3l-1 1.1l-1 1.1l-.8 1l-.7 .7l-.6 .5l-.3 .4h-.3l-.3 -.4l-.5 -.5l-.7 -.7l-.9 -1l-.9 -1.1l-1.1 -1.1l-1.1 -1.3l-1.2 -1.5l-1.1 -1.6l-1.2 -1.6l-1.1 -1.8l-1.1 -1.8l-.9 -1.9l-.8 -1.8l-.7 -2l-.6 -1.9l-.3 -1.9l-.2 -2l.2 -2.3l.6 -2.4l.9 -2.1l1.2 -1.9l1.5 -1.7l1.7 -1.5l2 -1.2l2.1 -.9l2.3 -.5l2.4 -.2Z" class="g1_7"/>
<path fill-rule="evenodd" d="M1375.3 552.6l1.9 .2h.3l.2 .1l.3 .2l.1 .3v.6l-.2 .3l-.2 .1l-.2 .1l-.3 .1l-2.1 -.2l-.3 -.1l-.2 -.1l-.2 -.3v-.8l.1 -.3l.3 -.2h.5Zm7.5 -.1h.4l.3 .1l.2 .2l.2 .3v.5l-.1 .3l-.1 .2l-.3 .2l-.3 .1l-2 .2l-.3 -.1l-.3 -.1l-.2 -.2l-.1 -.2l-.1 -.3l.1 -.3l.1 -.3l.1 -.2l.3 -.1h.3l1.8 -.3Zm-13.1 -1.6l.5 .2l.8 .3l.8 .4l.4 .3l.2 .4l-.1 .4v.3l-.2 .2l-.2 .1h-.2l-.2 .1l-.3 -.1l-1 -.4l-.9 -.5l-.4 -.3l-.1 -.4l.1 -.5l.4 -.4l.4 -.1Zm18.7 -.2h.5l.3 .4l.2 .4l-.1 .5l-.3 .3l-1 .5l-1 .6h-.5l-.3 -.1l-.2 -.2l-.1 -.3l-.1 -.5l.2 -.4l.4 -.3l.8 -.3l.7 -.5l.5 -.1Zm-21.5 -3.5h.4l.3 .2l.2 .2l.1 .2v.4l.1 .1v.4l.1 .5l-.2 .4l-.4 .3h-.6l-.2 -.1l-.2 -.1l-.1 -.2l-.1 -.2l-.2 -.6v-.4l-.1 -.2l.1 -.3l.1 -.2l.2 -.2l.3 -.2h.2Zm23.5 -1.6l.5 .1l.4 .2l.2 .5l.1 1.2v.5l-.1 .6v.2l-.2 .2l-.2 .2l-.2 .1h-.5l-.4 -.2l-.3 -.4v-2.5l.2 -.4l.5 -.3Zm-3 -4.9h.4l.5 .3l1.3 1.6l.2 .4l-.1 .5l-.3 .4l-.1 .1l-.2 .1h-.4l-.2 -.1l-.2 -.1l-.2 -.2l-1.2 -1.4l-.2 -.4v-.4l.2 -.5l.5 -.3Zm-3.1 -4.6h.3l.2 .1l.2 .2l.2 .2l.1 .3l.1 .7l.4 .7l.1 .5l-.1 .5l-.4 .3l-.2 .1l-.2 .1l-.3 -.1l-.2 -.1l-.2 -.1l-.1 -.2l-.5 -1l-.2 -1.2v-.3l.1 -.3l.2 -.2l.2 -.1l.3 -.1Zm2.4 -5.3l.3 .2l.3 .4l.1 .5l-.2 .4l-1.1 1.5l-.1 .2l-.2 .1l-.2 .1h-.5l-.3 -.1l-.3 -.3l-.1 -.5l.1 -.5l.6 -.8l.7 -.9l.4 -.2l.5 -.1Zm4 -3.9l.5 .1l.3 .3l.2 .5v.4l-.4 .4l-1.5 1.1l-.1 .2h-.7l-.3 -.1l-.2 -.2l-.2 -.4l.1 -.5l.3 -.4l1.5 -1.2l.5 -.2Zm4.2 -2.6l.5 .2l.3 .4l.1 .4l-.1 .5l-.4 .4h-.3l-.2 .2l-.3 .1l-.2 .2h-.4l-.3 -.2l-.1 -.1l-.2 -.2l-.2 -.5l.2 -.4l.3 -.4l.3 -.1l.2 -.1l.2 -.2h.2l.4 -.2ZM1367 521l-1.2 .2l-1.1 .5l-1 .8l-.7 .9l-.4 1.1l-.3 1.2l.3 1.3l.4 1.1l.7 .9l1 .7l1.1 .5l1.2 .2l1.2 -.2l1.1 -.5l1 -.7l.7 -.9l.5 -1.1l.1 -1.3l-.1 -1.2l-.5 -1.1l-.7 -.9l-1 -.8l-1.1 -.5L1367 521Zm0 -1.7l1.5 .1l1.4 .5l1.2 .7l1 1.1l.7 1.2l.6 1.4l.1 1.4l-.1 1.6l-.6 1.3l-.7 1.2l-1 1l-1.2 .8l-1.4 .5l-1.5 .2l-1.5 -.2l-1.4 -.5l-1.2 -.8l-1 -1l-.8 -1.2l-.4 -1.3l-.2 -1.6l.2 -1.4l.4 -1.4l.8 -1.2l1 -1.1l1.2 -.7l1.4 -.5l1.5 -.1Zm0 -3.8l-2.1 .2l-1.9 .6l-1.7 1l-1.6 1.2l-1.2 1.6l-1 1.7l-.5 2l-.3 2l.3 2.3l.7 2.2l.9 2.2l1.2 2.1l1.3 1.8l1.3 1.7l1.3 1.5l1.2 1.3l1.2 1.1l.9 .8l.9 -.8l1 -1l1.3 -1.2l1.2 -1.3l1.2 -1.6l1.2 -1.7l1.1 -1.8l.9 -1.8l.8 -1.9l.5 -1.9l.1 -2l-.2 -2l-.6 -2l-.9 -1.7l-1.3 -1.6l-1.5 -1.2l-1.7 -1l-1.9 -.6l-2.1 -.2Zm0 -1.9l2.1 .2l2.1 .6l1.9 .9l1.7 1.2l1.4 1.5l1.2 1.7l1 1.9l.5 2l.2 2.2l-.1 1.9l-.4 1.8l-.6 1.8l-.8 1.7l-.9 1.8l-1 1.6l-1.1 1.4l-1.2 1.5l-1.1 1.2l-1.1 1.3l-1 1l-.9 .9l-.7 .7l-.6 .4l-.5 .4l-.1 .1l-.1 -.1l-.4 -.4l-.6 -.4l-.9 -.7l-.8 -.9l-1.1 -1l-1.1 -1.3l-1.1 -1.2l-1.1 -1.5l-1.1 -1.4l-1 -1.6l-.9 -1.8l-.8 -1.7l-.6 -1.8l-.3 -1.8l-.2 -1.9l.2 -2.2l.6 -2l.8 -1.9l1.2 -1.7l1.5 -1.5l1.7 -1.2l1.9 -.9l2 -.6l2.2 -.2Z" class="g1_7"/>
<path fill-rule="evenodd" d="M1372.6 622.4h.6l.6 .4l.4 .5l.1 .6l-.1 .6l-.4 .6l-.6 .3l-.6 .2l-.6 -.2l-.5 -.3l-.4 -.6v-1.2l.4 -.5l.5 -.4h.6Zm6.9 -5.2l-9.1 4.5l-4.6 9.1l9.1 -4.6l4.6 -9Zm3.4 -3.5l-6.8 13.7l-13.7 6.8l6.9 -13.6l13.6 -6.9Zm-11.1 -5.8l-2.2 .3l-2.1 .5l-2 .8l-1.8 1.1l-1.7 1.3l-1.5 1.4l-1.3 1.7l-1 1.8l-.8 2l-.6 2.2l-.2 2.2h2.6l.2 .1l.2 .2l.1 .2l.1 .2l-.1 .3l-.1 .2l-.2 .2l-.2 .1l-.2 .1h-2.4l.2 2.1l.6 2.1l.8 2l1 1.9l1.3 1.7l1.5 1.4l1.7 1.3l1.8 1.1l2 .8l2.1 .6l2.2 .2v-2.6l.1 -.2l.2 -.2l.3 -.1l.2 -.1l.3 .1l.2 .1l.2 .2l.1 .2l.1 .2V640l2.2 -.2l2.1 -.6l2 -.8l1.8 -1.1l1.6 -1.3l1.5 -1.4l1.3 -1.7l1.1 -1.9l.8 -2l.6 -2.1l.2 -2.1h-2.3l-.3 -.1l-.3 -.1l-.1 -.2l-.2 -.2v-.5l.2 -.2l.1 -.2l.3 -.1h2.6l-.2 -2.2l-.6 -2.2l-.8 -2L1386 615l-1.3 -1.7l-1.5 -1.4l-1.6 -1.3l-1.8 -1.1l-2 -.8l-2.1 -.5l-2.2 -.3v2.4l-.1 .2l-.1 .3l-.2 .1l-.2 .1l-.3 .1l-.2 -.1l-.3 -.1l-.2 -.1l-.1 -.3v-2.6Zm.8 -1.7l2.4 .2l2.3 .5l2.2 .7l2.1 1.1l1.9 1.2l1.7 1.5l1.5 1.7l1.3 1.9l1 2.1l.7 2.1l.5 2.3l.1 2.4l-.1 2.5l-.5 2.2l-.7 2.2l-1 2.1l-1.3 1.8l-1.5 1.8l-1.7 1.5l-1.9 1.2l-2.1 1.1l-2.2 .8l-2.3 .4l-2.4 .2l-2.4 -.2l-2.3 -.4l-2.2 -.8l-2 -1.1l-1.9 -1.2l-1.7 -1.5l-1.5 -1.8l-1.3 -1.8l-1 -2.1l-.8 -2.2l-.4 -2.2l-.2 -2.5l.2 -2.4l.4 -2.3l.8 -2.1l1 -2.1l1.3 -1.9l1.5 -1.7l1.7 -1.5l1.9 -1.2l2 -1.1l2.2 -.7l2.3 -.5l2.4 -.2Z" class="g1_7"/>
<path fill-rule="evenodd" d="M1383.7 724.8h1.2l1 .2l.9 .3l.6 .3l.9 .4l.8 .5l.5 .6l.7 1l.6 1.2l.4 1.2l-.1 1.3l-.2 1.1l-.4 .9l-.4 .9l.1 1.1l.1 .9l-.1 .6l-.2 .4l-.1 .3l-.1 .1l-.3 .3l-.2 .4l-.3 .5l-.3 .8l-.1 .8l-.1 1.2l.1 .9l.3 .8l.4 .5l.4 .5l.4 .3l.4 .2l.3 .1h.1l.8 .3l.7 .4l.8 .4l.7 .6l.7 .8l.4 .9l.3 1.2l.1 1.3v.4l-.1 .1v.2l-.2 .1l-.2 .1h-.2l-.3 .1h-4.9l-.4 -1l-.5 -1h4.6l-.2 -1l-.6 -.7l-.5 -.6l-.8 -.4l-.9 -.3l-.7 -.3l-.6 -.3l-.7 -.6l-.7 -.6l-.7 -1l-.3 -1.1l-.2 -1.3l.1 -1.4l.2 -1.1l.4 -1l.3 -.7l.4 -.5l.3 -.5l.2 -.2v-.9l-.2 -.7l-.1 -.6l.3 -.7l.2 -.7l.3 -.7l.3 -.8v-.7l-.2 -.9l-.5 -.9l-.3 -.6l-.3 -.4l-.4 -.3l-.3 -.2l-.6 -.2l-.3 -.1l-.3 -.3l-.7 -.1l-.6 -.1l-.9 -.1l-.8 .1l-.6 .1l-.1 .1l-.7 -1.9l1.1 -.3h1.1Zm-23.7 0h1.1l1 .3l-.2 .4l-.1 .4l-.3 .5l-.1 .5l-.6 -.1l-.8 -.1l-.8 .1l-.7 .1l-.6 .1l-.3 .3l-.3 .1l-.6 .2l-.3 .2l-.4 .3l-.3 .4l-.4 .6l-.5 .9l-.1 .9v.7l.3 .8l.2 .7l.3 .7l.3 .7l-.1 .6l-.2 .7v.9l.1 .2h.1l.3 .5l.4 .5l.3 .7l.3 1l.3 1.1l.1 1.4l-.2 1.3l-.4 1.1l-.6 1l-.7 .6l-.7 .6l-.7 .3l-.7 .3l-.8 .3l-.8 .4l-.5 .6l-.6 .7l-.2 1h4.6l-.6 1l-.4 1h-4.8l-.4 -.1h-.2l-.1 -.1l-.2 -.1v-.2l-.1 -.1l-.1 -.2v-.2l.2 -1.3l.2 -1.2l.5 -.9l.7 -.8l.7 -.6l.8 -.4l.7 -.4l.8 -.3h.1l.2 -.1l.5 -.2l.4 -.3l.4 -.5l.4 -.5l.3 -.8l.1 -.9l-.1 -1.2l-.1 -.8l-.3 -.8l-.3 -.5l-.3 -.4l-.2 -.3l-.1 -.1l-.1 -.3l-.2 -.4l-.2 -.6l.1 -.9l.2 -1.1l-.4 -.9l-.4 -.9l-.2 -1.1l-.1 -1.3l.4 -1.2l.6 -1.2l.6 -1l.6 -.6l.8 -.5l.9 -.4l.6 -.3l.9 -.3l1 -.2h1.1Zm13.2 -2h-1.1l-1.1 .2l-.7 .3l-.4 .2l-.4 .2l-1 .3l-.7 .6l-.8 .5l-.7 1l-.5 1.3l-.3 1.1v1.1l.3 1.3l.4 .9l.4 .9l.1 .1v.2l.1 .4l-.1 .6l-.2 .9v1.3l.1 .3l.1 .2v.1l.2 .1l.1 .1l.4 .6l.6 .7l.5 .8l.4 1.1l.3 1.3l.1 1.5l-.1 1.5l-.5 1.2l-.6 1.1l-.8 .8l-.8 .7l-.9 .5l-.9 .5l-.8 .2l-1.1 .4l-1.2 .5l-1 .5l-1 .6l-.7 .7l-.5 1l-.4 1h27.8l-.4 -1l-.5 -1l-.8 -.7l-.9 -.6l-1 -.5l-1.2 -.5l-1.1 -.4h-.1l-.7 -.2l-1 -.5l-.8 -.5l-.9 -.7l-.7 -.8l-.6 -1.1l-.5 -1.2l-.2 -1.5l.2 -1.5l.3 -1.3l.4 -1.1l.5 -.8l.5 -.7l.5 -.6l.1 -.1l.1 -.1l.1 -.1v-.1l.2 -.2v-1.5l-.2 -.8v-.8l.4 -.8l.2 -.4l.3 -.6l.2 -.6l.1 -.9l-.1 -1.2l-.2 -1.2l-.6 -1.5l-.5 -1l-.5 -.7l-.4 -.6l-.4 -.3l-.4 -.4l-.9 -.2l-1.1 -.1Zm0 -2l1 .1l1.1 .2l1 .3l.8 .6l.9 .9l.7 1.1l.6 1.4l.8 1.7l.3 1.6v1.5l-.1 1.3l-.5 1.2l-.6 .9l.3 1.3v1l-.2 .8l-.1 .5l-.1 .4l-.3 .2v.1l-.3 .4l-.4 .4l-.4 .5l-.4 .7l-.3 .8l-.2 1.1l-.2 1.2l.2 1.2l.3 .9l.5 .8l.6 .6l.6 .4l.7 .4l.5 .2h.3l.1 .1l.9 .3l.9 .3l1 .4l1 .5l1 .6l.9 .8l.8 .9l.5 1.1l.5 1.3l.1 1.5v.2l-.1 .1v.2l-.1 .1l-.1 .1l-.3 .1l-.1 .1l-.4 .1h-30.1l-.3 -.1l-.2 -.1l-.2 -.1l-.1 -.1l-.2 -.1v-.5l.1 -1.5l.4 -1.3l.6 -1.1l.8 -.9l.9 -.8l1 -.6l1 -.5l1 -.4l.9 -.3l.8 -.3l.1 -.1h.4l.5 -.2l.6 -.4l.6 -.4l.6 -.6l.6 -.8l.3 -.9l.2 -1.2l-.2 -1.2l-.2 -1.1l-.3 -.8l-.4 -.7l-.4 -.5l-.4 -.4l-.3 -.4l-.1 -.1l-.1 -.2l-.3 -.4l-.1 -.6l-.1 -.8l.1 -1l.2 -1.2l-.3 -.9l-.4 -1.1l-.4 -1.1l-.2 -1.2v-1.4l.4 -1.3l.7 -1.3l.7 -1.1l.8 -.7l.8 -.7l1 -.5l1 -.4l.7 -.4l1.1 -.4l1.3 -.2l1.4 -.1Z" class="g1_7"/>
<image clip-path="url(#c0_7)" x="0" y="0" width="887" height="825" xlink:href="shade/1.png"/>
<image clip-path="url(#c1_7)" preserveAspectRatio="none" x="0" y="0" width="886" height="825" xlink:href="img/1.jpg"/>
<image clip-path="url(#c0_7)" preserveAspectRatio="none" x="1288" y="68" width="110" height="21" xlink:href="img/2.png"/>
</svg>