<?xml version="1.0" encoding="UTF-8" standalone="no"?>
<!DOCTYPE svg PUBLIC "-//W3C//DTD SVG 1.1//EN"
"http://www.w3.org/Graphics/SVG/1.1/DTD/svg11.dtd">
<svg viewBox="0 0 1466 825" version="1.1" xmlns="http://www.w3.org/2000/svg" xmlns:xlink="http://www.w3.org/1999/xlink">
<defs>
<clipPath id="c0_24"><path d="M149.9 825V0h1167V825Z"/></clipPath>
<clipPath id="c1_24"><path d="M149.9 742.2V0h1167V742.2Z"/></clipPath>
<clipPath id="c2_24"><path d="M691.5 534.6V148.4h615.4V534.6Z"/></clipPath>
<clipPath id="c3_24"><path d="M458.7 336.8v-3.6h3.6v3.6ZM292 334.8c.7 0 1.4 -.2 1.9 -.6c.3 -.5 .7 -1 .7 -1.6v-.7c-.7 -.3 -1.3 -.4 -2.1 -.4c-.8 0 -1.3 .1 -1.7 .4c-.5 .3 -.6 .8 -.6 1.3c-.1 .5 .2 .9 .5 1.2c.3 .2 .8 .4 1.3 .4Zm28.1 -.7c1.1 0 1.8 -.4 1.8 -1.4c0 -.5 -.2 -.7 -.5 -.9c-.3 -.2 -.7 -.3 -1.3 -.3h-2.2v2.6Zm26 0c1.1 0 1.7 -.4 1.7 -1.4c0 -.5 -.1 -.7 -.4 -.9c-.4 -.2 -.8 -.3 -1.3 -.3h-2.3v2.6Zm76.4 .7c.7 0 1.4 -.2 1.9 -.6c.3 -.5 .7 -1 .7 -1.6v-.7c-.6 -.3 -1.3 -.4 -2.1 -.4c-.8 0 -1.3 .1 -1.7 .4c-.5 .3 -.6 .8 -.6 1.3c-.1 .5 .2 .9 .5 1.2c.3 .2 .8 .4 1.3 .4Zm-36.1 -.7v-6.3h-3v.2c-.1 2.6 -.3 4.7 -.9 6.1Zm72.3 -5.7v-3.5h3.6v3.5Zm-211.4 8.4v-12h3.3v4.4h4.3v-4.4h3.3v12h-3.3v-4.7h-4.3v4.7Zm13.6 0v-12h3.4v7l4.4 -7h3.2v12h-3.3v-7l-4.4 7Zm13.9 0v-12h3.3v4.9l4.3 -4.9h3.8l-4.3 4.9l4.9 7.1h-4l-3.1 -4.6l-1.6 1.7v2.9Zm26 .3c-.7 -.1 -1.2 -.1 -1.7 -.2l.2 -2.9c0 0 .1 0 .1 0c.2 0 .4 .1 .6 .1c.3 0 .7 -.1 .9 -.2c.2 -.2 .4 -.6 .6 -1.2c.2 -.7 .3 -1.6 .3 -2.8c0 -1.3 0 -3 0 -5.1h9.6v12.1h-3.3v-9.1h-3c-.1 1.5 0 2.9 -.1 4c-.2 1.1 -.3 2 -.5 2.7c-.4 .7 -.5 1.2 -.9 1.6c-.4 .3 -.8 .6 -1.2 .8c-.5 .1 -1 .2 -1.6 .2Zm13.8 -.3v-12h3.3v4h2.5c1.4 0 2.6 .3 3.5 1c.9 .7 1.3 1.6 1.3 2.9c-.1 1.2 -.4 2.3 -1.2 3c-.8 .6 -1.9 1.1 -3.4 1.1Zm12.2 0v-12h3.4v4.4h4.3v-4.4h3.3v12h-3.3v-4.7h-4.3v4.7Zm13.7 0v-12h3.3v4h2.5c1.4 0 2.7 .3 3.5 1c.9 .7 1.4 1.6 1.4 2.9c-.2 1.2 -.4 2.3 -1.3 3c-.8 .6 -1.9 1.1 -3.3 1.1Zm12.3 0v-12h3.4v12Zm6 0v-12h3.3v7l4.5 -7h3.2v12h-3.3v-7l-4.5 7Zm18.8 3v-5.7h1.3c.8 -1.7 1.2 -4.4 1.2 -8.2v-1.1h9.6v9.3h1.7l-.4 5.7h-2.8v-2.7h-7.4l-.3 2.7Zm15.6 -3v-12h3.3v7l4.4 -7h3.3v12h-3.4v-7l-4.4 7Zm38.1 0v-12h3.3v7l4.5 -7h3.2v12H439v-7l-4.5 7Zm13.9 0v-12h3.3v4.4h4.3v-4.4h3.3v12h-3.3v-4.7h-4.3v4.7ZM291 337.1c-1.2 0 -2.2 -.3 -2.9 -1c-.9 -.7 -1.2 -1.6 -1.2 -2.8c0 -1.3 .4 -2.2 1.3 -2.9c.8 -.7 2 -.9 3.5 -.9c.9 0 1.9 .1 2.9 .4v-.2c0 -1.5 -.9 -2.1 -2.6 -2.1c0 0 -.1 0 -.2 0c-1 0 -1.9 .2 -3 .6l-.9 -2.6c1.5 -.7 3 -1 4.7 -1q.1 0 .2 0c1.7 0 2.9 .5 3.8 1.4c.8 .8 1.3 2.1 1.3 3.9v7h-3.3v-1.3c-.9 1 -2.1 1.5 -3.6 1.5Zm130.5 0c-1.2 0 -2.1 -.3 -2.9 -1c-.9 -.7 -1.2 -1.6 -1.2 -2.8c0 -1.3 .4 -2.2 1.3 -2.9c.8 -.7 2 -.9 3.5 -.9c.9 0 1.9 .1 2.9 .4v-.2c0 -1.5 -.9 -2.1 -2.6 -2.1c0 0 -.1 0 -.2 0c-.9 0 -1.9 .2 -3 .6l-.8 -2.6c1.4 -.7 2.9 -1 4.6 -1c.1 0 .2 0 .2 0c1.7 0 3 .5 3.8 1.4c.8 .8 1.3 2.1 1.3 3.9v7h-3.3v-1.3c-.9 1 -2.1 1.5 -3.6 1.5Zm-10.3 0c-2.3 0 -4.1 -.6 -5.5 -1.9l1.6 -2.2c1 .9 2.2 1.4 3.6 1.4c.4 0 .9 -.1 1.3 -.3c.3 -.4 .5 -.6 .5 -1c0 -.5 -.2 -.7 -.5 -.9c-.4 -.3 -.9 -.4 -1.6 -.4h-1.4v-2h1.4c.5 0 1 -.1 1.3 -.4c.2 -.3 .5 -.5 .5 -.9c0 -.3 -.2 -.6 -.5 -.9c-.4 -.2 -.7 -.3 -1.1 -.3c-.1 0 -.2 0 -.2 0c-1.2 0 -2.2 .5 -3.1 1.3l-1.4 -2.1c1.3 -1.3 3 -1.9 5 -1.9c.1 0 .2 0 .3 0c1.1 0 2.2 .4 3 1c.8 .6 1.3 1.4 1.3 2.3c-.1 1.2 -.6 2.2 -1.8 2.7c1.3 .5 2.1 1.5 2.1 2.8c-.1 1 -.4 1.9 -1.4 2.7c-1 .6 -2 1 -3.4 1Zm-175.6 0c-1.2 0 -2.3 -.3 -3.3 -.9l1.3 -2.6c.5 .3 1.2 .6 1.8 .6c.7 -.1 1.4 -.5 2 -1.3l-6.2 -11.8H235l4.2 8.4l3.7 -8.4h3.7l-5.9 12.2c-.8 1.3 -1.4 2.3 -2.2 2.9c-.9 .6 -1.8 .9 -2.9 .9ZM364.4 323.5c-1.1 0 -1.8 -.3 -2.5 -.9c-.7 -.7 -1 -1.5 -1.1 -2.6l1.9 -.4c.2 1 .9 1.5 1.7 1.5c.7 0 1.4 -.5 1.7 -1.5l1.9 .4c-.2 1 -.5 1.9 -1.1 2.6c-.7 .5 -1.5 .9 -2.5 .9Zm72.5 0c-1.1 0 -1.8 -.3 -2.5 -.9c-.6 -.7 -1 -1.5 -1.1 -2.6l1.9 -.4c.2 1 .9 1.5 1.7 1.5c.7 0 1.4 -.5 1.7 -1.5l2 .4c-.3 1 -.6 1.9 -1.2 2.6c-.7 .5 -1.5 .9 -2.5 .9ZM404.3 275.8v-2.3h2v2.3ZM268.4 274.6c.9 0 1.9 -.3 2.6 -.8c.7 -.7 1.1 -1.3 1.1 -2.2v-1c-1.1 -.4 -2.2 -.5 -3.3 -.5c-1 0 -1.8 .2 -2.4 .6c-.7 .4 -.8 1 -.8 1.7c-.1 .6 .2 1.2 .8 1.6c.4 .3 1.2 .6 2 .6Zm26.2 0c1 0 1.9 -.3 2.7 -.8c.6 -.7 1 -1.3 1 -2.2v-1c-1.1 -.4 -2.1 -.5 -3.2 -.5c-1.1 0 -1.9 .2 -2.4 .6c-.7 .4 -.9 1 -.9 1.7c0 .6 .3 1.2 .8 1.6c.5 .3 1.2 .6 2 .6Zm100.9 0c1 0 2 -.3 2.7 -.8c.6 -.7 1.1 -1.3 1.1 -2.2v-1c-1.1 -.4 -2.2 -.5 -3.3 -.5c-1 0 -1.8 .2 -2.4 .6c-.7 .4 -.9 1 -.9 1.7c0 .6 .3 1.2 .8 1.6c.5 .3 1.2 .6 2 .6ZM311 270.3V266h-3.6c-.1 0 -.2 0 -.2 0c-.8 0 -1.3 .2 -1.8 .5c-.5 .4 -.7 .9 -.7 1.6c0 .6 .3 1.2 .8 1.6c.4 .3 1.1 .6 2 .6Zm-72.4 4.3c1.1 0 2.1 -.4 2.9 -1.2c.7 -.9 1.2 -1.8 1.2 -3.2c-.1 -1.3 -.4 -2.4 -1.2 -3.2c-.8 -.9 -1.7 -1.2 -2.9 -1.2c-1.1 0 -2 .4 -2.8 1.3c-1 .7 -1.3 1.9 -1.3 3.1c0 1.3 .4 2.4 1.3 3.2c.7 .7 1.7 1.2 2.8 1.2Zm102 .2c1.2 0 2.2 -.4 3 -1.3c.8 -.9 1.2 -1.9 1.2 -3.2c-.1 -1.3 -.4 -2.3 -1.2 -3.2c-.9 -1 -1.9 -1.3 -3.1 -1.3c-1.3 0 -2.2 .4 -3 1.3c-.9 .8 -1.2 2 -1.2 3.2c0 1.2 .4 2.3 1.3 3.2c.7 .8 1.8 1.3 3 1.3Zm27.2 0c1.2 0 2.2 -.4 3 -1.3c.8 -.9 1.2 -1.9 1.2 -3.2c-.1 -1.3 -.4 -2.3 -1.2 -3.2c-.9 -1 -1.9 -1.3 -3.1 -1.3c-1.3 0 -2.2 .4 -3 1.3c-.9 .8 -1.2 2 -1.2 3.2c0 1.2 .4 2.3 1.3 3.2c.7 .8 1.8 1.3 3 1.3Zm-122.7 1l4.7 -6.5l-4.4 -4.8h2l5.9 6.5v-6.5H255V271l5.8 -6.5h2.1l-4.5 4.8l4.7 6.5h-2l-3.8 -5.3L255 273v2.8h-1.7V273l-2.4 -2.5l-3.8 5.3Zm32.3 0V264.5h1.8v4.8h6.5v-4.8h1.8v11.3h-1.8v-5h-6.5v5Zm25.1 .2l3.6 -4.5c-1 -.2 -1.7 -.6 -2.3 -1.2c-.6 -.7 -.8 -1.4 -.8 -2.2c0 -1.2 .4 -2 1.1 -2.6c.8 -.8 1.9 -1 3.2 -1h5.4V276H311v-4.2h-3.2c-.2 .2 -.6 .8 -1.3 1.8c-.9 1 -1.4 1.8 -1.8 2.4Zm46.1 .1c-.5 0 -.9 0 -1.4 -.2l.2 -1.4c.3 .1 .7 .1 .9 .1c.2 0 .5 0 .8 -.1c.1 -.1 .4 -.3 .6 -.6c.2 -.4 .5 -.9 .6 -1.5c.1 -.7 .2 -1.5 .3 -2.7c.1 -1.2 .2 -2.6 .2 -4.3v-.9h8.1v11.4h-1.8V266h-4.6v.2c0 1.8 0 3.3 -.2 4.5c-.2 1.2 -.3 2.2 -.5 2.9c-.2 .6 -.5 1.2 -.8 1.6c-.5 .4 -.7 .6 -1.1 .8c-.4 0 -.7 .1 -1.3 .1Zm28 -.3V264.5h1.7l4.1 5.9l4.2 -5.9h1.7v11.3h-1.8v-8.6l-4.1 5.7l-4.1 -5.7v8.6Zm-48.6 .5c-1.7 -.1 -3 -.6 -4.2 -1.8c-1.1 -1.2 -1.7 -2.6 -1.7 -4.2c0 -1.7 .6 -3 1.7 -4.2c1.2 -1.3 2.6 -1.8 4.2 -1.8q.1 0 .2 0c1.6 0 3.2 .7 4.4 2l-1.1 1.2c-1.1 -1.1 -2.2 -1.7 -3.5 -1.7c-1.2 0 -2.1 .4 -2.9 1.3c-.9 .8 -1.2 2 -1.2 3.2c0 1.2 .4 2.3 1.2 3.2c.7 .8 1.8 1.3 3 1.3c1.1 0 2.4 -.6 3.5 -1.7l1.1 1c-1.4 1.4 -2.9 2.2 -4.7 2.2Zm12.5 0c-1.8 -.1 -3.1 -.6 -4.2 -1.8c-1.2 -1.2 -1.7 -2.5 -1.7 -4.2c0 -1.7 .6 -3 1.7 -4.2c1.1 -1.3 2.6 -1.8 4.3 -1.8c0 0 .1 0 .2 0c1.6 0 2.9 .6 4 1.8c1.1 1.1 1.7 2.5 1.7 4.2c-.1 1.6 -.5 3.1 -1.7 4.2c-1.2 1.2 -2.6 1.8 -4.3 1.8Zm27.2 0c-1.8 -.1 -3.1 -.6 -4.2 -1.8c-1.2 -1.2 -1.7 -2.5 -1.7 -4.2c0 -1.7 .6 -3 1.7 -4.2c1.1 -1.3 2.6 -1.8 4.3 -1.8q.1 0 .2 0c1.6 0 2.9 .6 4 1.8c1.1 1.1 1.8 2.5 1.8 4.2c-.2 1.6 -.6 3.1 -1.8 4.2c-1.2 1.2 -2.6 1.8 -4.3 1.8Zm-134.9 3.2v-15h1.7v2.3c1.1 -1.7 2.6 -2.5 4.4 -2.5q.1 0 .2 0c1.3 0 2.6 .6 3.7 1.6c1 1.1 1.6 2.5 1.6 4.3c-.1 1.8 -.5 3.2 -1.6 4.3c-1.1 1.1 -2.4 1.6 -3.9 1.6c-1.8 0 -3.3 -.8 -4.4 -2.4v5.8ZM268 276.1c-1.2 0 -2.1 -.3 -2.9 -.9c-1 -.7 -1.3 -1.6 -1.3 -2.7c0 -1.4 .4 -2.2 1.3 -2.9c.8 -.7 2.1 -1 3.6 -1c.1 0 .2 0 .3 0c1 0 2.1 .3 3.1 .6v-.4c0 -1 -.3 -1.7 -.9 -2.2c-.6 -.6 -1.4 -.8 -2.4 -.8c-1.2 0 -2.3 .3 -3.4 .8l-.6 -1.3c1.4 -.7 2.8 -1 4.2 -1c.1 0 .2 0 .2 0c1.5 0 2.7 .5 3.5 1.3c.7 .7 1.2 1.9 1.2 3.3v7h-1.8v-1.8c-1 1.2 -2.3 2 -4.1 2Zm26.3 0c-1.3 0 -2.2 -.3 -3 -.9c-.9 -.7 -1.3 -1.6 -1.3 -2.7c0 -1.4 .5 -2.2 1.3 -2.9c.8 -.7 2.1 -1 3.6 -1c.1 0 .2 0 .3 0c1 0 2.1 .3 3.1 .6v-.4c0 -1 -.2 -1.7 -.8 -2.2c-.6 -.6 -1.4 -.8 -2.5 -.8c-1.2 0 -2.2 .3 -3.4 .8l-.5 -1.3c1.4 -.7 2.8 -1 4.1 -1c.1 0 .2 0 .3 0c1.4 0 2.6 .5 3.4 1.3c.7 .7 1.2 1.9 1.2 3.3v7h-1.8v-1.8c-1 1.2 -2.3 2 -4 2Zm100.9 0c-1.2 0 -2.2 -.3 -3 -.9c-.9 -.7 -1.2 -1.6 -1.2 -2.7c0 -1.4 .4 -2.2 1.3 -2.9c.8 -.7 2 -1 3.5 -1c.1 0 .2 0 .3 0c1.1 0 2.2 .3 3.2 .6v-.4c0 -1 -.3 -1.7 -.9 -2.2c-.6 -.6 -1.4 -.8 -2.5 -.8c-1.2 0 -2.2 .3 -3.4 .8l-.5 -1.3c1.4 -.7 2.8 -1 4.2 -1c0 0 .1 0 .2 0c1.4 0 2.6 .5 3.4 1.3c.8 .7 1.2 1.9 1.2 3.3v7h-1.7v-1.8c-1 1.2 -2.4 2 -4.1 2Zm-82.4 -32c.9 0 1.9 -.2 2.6 -.8c.7 -.7 1.1 -1.3 1.1 -2.2v-1c-1.1 -.3 -2.2 -.5 -3.3 -.5c-1 0 -1.8 .2 -2.4 .7c-.7 .3 -.9 .9 -.9 1.6c0 .6 .3 1.2 .9 1.6c.4 .4 1.2 .6 2 .6Zm87.3 0c1 0 1.9 -.2 2.7 -.8c.6 -.7 1 -1.3 1 -2.2v-1c-1.1 -.3 -2.1 -.5 -3.2 -.5c-1.1 0 -1.9 .2 -2.4 .7c-.7 .3 -.9 .9 -.9 1.6c0 .6 .3 1.2 .8 1.6c.5 .4 1.2 .6 2 .6Zm62.8 0c.9 0 1.9 -.2 2.6 -.8c.7 -.7 1.1 -1.3 1.1 -2.2v-1c-1.1 -.3 -2.2 -.5 -3.3 -.5c-1 0 -1.8 .2 -2.4 .7c-.7 .3 -.8 .9 -.8 1.6c-.1 .6 .2 1.2 .8 1.6c.4 .4 1.2 .6 2 .6Zm52.8 0c1 0 2 -.2 2.7 -.8c.6 -.7 1.1 -1.3 1.1 -2.2v-1c-1.1 -.3 -2.2 -.5 -3.3 -.5c-1 0 -1.8 .2 -2.4 .7c-.7 .3 -.9 .9 -.9 1.6c0 .6 .3 1.2 .8 1.6c.5 .4 1.2 .6 2 .6Zm82.5 0c1 0 1.9 -.2 2.7 -.8c.6 -.7 1.1 -1.3 1.1 -2.2v-1c-1.1 -.3 -2.2 -.5 -3.3 -.5c-1.1 0 -1.9 .2 -2.4 .7c-.7 .3 -.9 .9 -.9 1.6c0 .6 .3 1.2 .8 1.6c.5 .4 1.2 .6 2 .6Zm-308 -4.3v-4.3h-3.6q-.1 0 -.2 0c-.8 0 -1.3 .2 -1.8 .6c-.5 .3 -.7 .8 -.7 1.5c0 .6 .3 1.2 .8 1.6c.4 .3 1.2 .6 2 .6Zm38.9 0v-4.3h-3.5c-.1 0 -.2 0 -.3 0c-.7 0 -1.3 .2 -1.7 .6c-.5 .3 -.7 .8 -.7 1.5c0 .6 .2 1.2 .7 1.6c.5 .3 1.2 .6 2 .6Zm240 0v-4.3h-3.6c-.1 0 -.2 0 -.2 0c-.8 0 -1.3 .2 -1.8 .6c-.5 .3 -.7 .8 -.7 1.5c0 .6 .3 1.2 .8 1.6c.4 .3 1.1 .6 1.9 .6Zm45.5 0v-4.3H611q-.1 0 -.2 0c-.8 0 -1.3 .2 -1.7 .6c-.6 .3 -.8 .8 -.8 1.5c0 .6 .3 1.2 .8 1.6c.4 .3 1.2 .6 2 .6Zm-175.8 4.3c1 0 2.1 -.4 2.8 -1.2c.8 -.9 1.2 -1.8 1.2 -3.2c-.1 -1.3 -.4 -2.3 -1.2 -3.2c-.8 -.8 -1.7 -1.2 -2.8 -1.2c-1.2 0 -2.1 .4 -2.9 1.3c-1 .7 -1.3 1.9 -1.3 3.1c0 1.3 .5 2.4 1.3 3.2c.7 .7 1.8 1.2 2.9 1.2Zm114.2 .2c1.2 0 2.2 -.4 3 -1.3c.8 -.9 1.2 -1.9 1.2 -3.2c-.1 -1.3 -.4 -2.3 -1.2 -3.2c-.9 -.9 -1.9 -1.3 -3.1 -1.3c-1.3 0 -2.2 .5 -3 1.3c-.9 .8 -1.2 2 -1.2 3.2c0 1.2 .4 2.3 1.2 3.2c.8 .9 1.9 1.3 3.1 1.3Zm-320.2 1.2V234h7.8v1.5h-6.1v10Zm8.9 .1c-.6 0 -1 0 -1.4 -.1l.2 -1.5c.2 .1 .6 .1 .8 .1c.3 0 .6 0 .8 -.1c.1 -.1 .4 -.3 .6 -.6c.2 -.4 .5 -.9 .6 -1.5c.1 -.7 .3 -1.5 .4 -2.7c0 -1.2 .1 -2.6 .1 -4.3V234h8.1v11.5h-1.8v-10h-4.5v.2c-.1 1.8 -.1 3.3 -.3 4.5c-.2 1.2 -.3 2.2 -.5 2.9c-.2 .7 -.5 1.2 -.8 1.6c-.4 .4 -.7 .7 -1.1 .8c-.4 0 -.7 .1 -1.2 .1Zm13.8 -.3V234h1.7v8.9l6.9 -8.9h1.7v11.3H264v-8.9l-6.8 8.9Zm13.7 0V234H271v4.8h6.6V234h1.7v11.3h-1.7v-5H271v5Zm12.5 .2l3.6 -4.5c-1 -.2 -1.7 -.6 -2.3 -1.2c-.6 -.7 -.8 -1.3 -.8 -2.2c0 -1.2 .4 -2 1.1 -2.6c.8 -.8 1.9 -1 3.2 -1h5.4v11.5h-1.7v-4.2H287c-.2 .2 -.6 .8 -1.3 1.8c-.9 1 -1.4 1.8 -1.8 2.4Zm13.9 -.2V234h1.7v4.8h6.6V234h1.7v11.3h-1.7v-5h-6.6v5Zm25.1 .2l3.5 -4.5c-.9 -.2 -1.6 -.6 -2.2 -1.2c-.6 -.7 -.9 -1.3 -.9 -2.2c0 -1.2 .4 -2 1.2 -2.6c.7 -.8 1.8 -1 3.2 -1h5.4v11.5h-1.8v-4.2H326c-.2 .2 -.6 .8 -1.4 1.8c-.8 1 -1.3 1.8 -1.8 2.4Zm20.3 0V234h1.7v10h5.5V234h1.7v10h5.5V234h1.8v11.5Zm22.5 0v-10h-4V234h10v1.5h-4.2v10Zm9.9 3.5c-.8 0 -1.6 -.2 -2.4 -.6l.6 -1.4c.5 .3 1.1 .5 1.8 .5c.4 -.1 .9 -.2 1.3 -.5c.2 -.3 .7 -.9 1 -1.7L370.5 234h1.9l4.1 9.5l3.7 -9.5H382l-4.8 11.7c-.5 1.2 -1 2 -1.6 2.5c-.6 .4 -1.3 .8 -2.2 .8Zm11.2 -3.7V234h1.8v6.5l6.2 -6.5h2.1l-4.7 4.9l4.9 6.4h-2l-4.1 -5.2l-2.4 2.5v2.7Zm27.2 .2v-10h-4V234h10v1.5h-4.2v10Zm9.9 3.5c-.8 0 -1.6 -.2 -2.4 -.6l.5 -1.4c.5 .3 1.2 .5 1.8 .5c.4 -.1 1 -.2 1.3 -.5c.3 -.3 .7 -.9 1.1 -1.7L418.8 234h1.8l4.2 9.5l3.7 -9.5h1.8l-4.8 11.7c-.5 1.2 -1 2 -1.6 2.5c-.7 .4 -1.3 .8 -2.2 .8Zm25.7 -3.7V234h1.7v6.5l6.3 -6.5h2.1l-4.8 4.9l4.9 6.4h-2l-4 -5.2l-2.5 2.5v2.7Zm30.9 0V234h1.8v8.9L487 234h1.7v11.3h-1.8v-8.9l-6.9 8.9Zm20.2 0V234h1.8v4.8h6.6V234h1.7v11.3h-1.7v-5h-6.6v5Zm41.4 .2v-10h-4V234h10v1.5h-4.3v10Zm20.7 0l3.6 -4.5c-1 -.2 -1.7 -.6 -2.3 -1.2c-.6 -.7 -.8 -1.3 -.8 -2.2c0 -1.2 .4 -2 1.1 -2.6c.7 -.8 1.9 -1 3.2 -1h5.4v11.5h-1.7v-4.2h-3.2c-.2 .2 -.6 .8 -1.3 1.8c-.9 1 -1.4 1.8 -1.8 2.4Zm30.2 2.8v-2.8H574.5V234h1.7v10h5.5V234h1.7v10H589V234h1.8v10h1.6v4.3Zm15.3 -2.8l3.6 -4.5c-1 -.2 -1.7 -.6 -2.2 -1.2c-.7 -.7 -.9 -1.3 -.9 -2.2c0 -1.2 .4 -2 1.1 -2.6c.8 -.8 1.9 -1 3.2 -1h5.4v11.5h-1.7v-4.2h-3.2c-.2 .2 -.6 .8 -1.3 1.8c-.9 1 -1.4 1.8 -1.8 2.4Zm-76.1 .3c-1.7 -.1 -3.1 -.6 -4.2 -1.8c-1.1 -1.2 -1.7 -2.6 -1.7 -4.2c0 -1.7 .6 -3 1.7 -4.2c1.1 -1.3 2.5 -1.8 4.2 -1.8c0 0 .1 0 .2 0c1.6 0 3.1 .7 4.4 2.1l-1.1 1.1c-1.1 -1.1 -2.3 -1.7 -3.5 -1.7c-1.3 0 -2.2 .5 -3 1.3c-.8 .8 -1.1 2 -1.1 3.2c-.1 1.2 .4 2.3 1.2 3.2c.7 .9 1.8 1.3 3 1.3c1.1 0 2.3 -.6 3.4 -1.7l1.2 1c-1.5 1.4 -2.9 2.2 -4.7 2.2Zm22.9 0c-1.8 -.1 -3.1 -.6 -4.2 -1.8c-1.2 -1.1 -1.7 -2.5 -1.7 -4.2c0 -1.7 .5 -3 1.7 -4.2c1.1 -1.3 2.6 -1.8 4.3 -1.8c0 0 .1 0 .2 0c1.6 0 2.9 .7 4 1.8c1.1 1.1 1.7 2.6 1.7 4.2c-.1 1.6 -.5 3.1 -1.7 4.2c-1.2 1.2 -2.6 1.8 -4.3 1.8Zm-120 3.2V234h1.7v2.3c1.2 -1.6 2.7 -2.5 4.4 -2.5c.1 0 .2 0 .2 0c1.4 0 2.6 .6 3.7 1.6c1.1 1.1 1.6 2.5 1.6 4.3c-.1 1.8 -.5 3.2 -1.6 4.3c-1.1 1.1 -2.4 1.6 -3.9 1.6c-1.8 0 -3.2 -.8 -4.4 -2.4V249ZM312.4 245.6c-1.2 0 -2.1 -.3 -3 -.9c-.9 -.7 -1.2 -1.6 -1.2 -2.7c0 -1.4 .4 -2.2 1.3 -2.9c.8 -.7 2.1 -1 3.5 -1c.1 0 .3 0 .4 0c1 0 2.1 .3 3.1 .6v-.4c0 -.9 -.3 -1.7 -.9 -2.2c-.6 -.6 -1.4 -.8 -2.4 -.8c-1.2 0 -2.3 .3 -3.5 .8l-.5 -1.3c1.4 -.7 2.8 -1 4.2 -1q.1 0 .2 0c1.5 0 2.7 .5 3.5 1.3c.7 .7 1.2 1.9 1.2 3.3v7h-1.8v-1.8c-1 1.3 -2.4 2 -4.1 2Zm87.4 0c-1.3 0 -2.2 -.3 -3 -.9c-.9 -.7 -1.3 -1.6 -1.3 -2.7c0 -1.4 .5 -2.2 1.3 -2.9c.8 -.7 2.1 -1 3.6 -1c.1 0 .2 0 .3 0c1 0 2.1 .3 3.1 .6v-.4c0 -.9 -.2 -1.7 -.8 -2.2c-.6 -.6 -1.4 -.8 -2.5 -.8c-1.2 0 -2.2 .3 -3.4 .8l-.5 -1.3c1.4 -.7 2.8 -1 4.1 -1c.1 0 .2 0 .2 0c1.5 0 2.7 .5 3.5 1.3c.7 .7 1.2 1.9 1.2 3.3v7h-1.8v-1.8c-1 1.3 -2.3 2 -4 2Zm62.7 0c-1.2 0 -2.1 -.3 -3 -.9c-.9 -.7 -1.2 -1.6 -1.2 -2.7c0 -1.4 .4 -2.2 1.3 -2.9c.8 -.7 2.1 -1 3.6 -1c.1 0 .2 0 .3 0c1 0 2.1 .3 3.1 .6v-.4c0 -.9 -.3 -1.7 -.9 -2.2c-.6 -.6 -1.4 -.8 -2.4 -.8c-1.2 0 -2.3 .3 -3.4 .8l-.6 -1.3c1.4 -.7 2.8 -1 4.2 -1q.1 0 .2 0c1.5 0 2.7 .5 3.5 1.3c.7 .7 1.2 1.9 1.2 3.3v7h-1.8v-1.8c-1 1.3 -2.4 2 -4.1 2Zm52.9 0c-1.2 0 -2.2 -.3 -3 -.9c-.9 -.7 -1.2 -1.6 -1.2 -2.7c0 -1.4 .4 -2.2 1.3 -2.9c.8 -.7 2 -1 3.5 -1c.1 0 .2 0 .3 0c1 0 2.1 .3 3.2 .6v-.4c0 -.9 -.3 -1.7 -.9 -2.2c-.6 -.6 -1.4 -.8 -2.5 -.8c-1.2 0 -2.2 .3 -3.4 .8l-.5 -1.3c1.4 -.7 2.8 -1 4.1 -1c.1 0 .2 0 .3 0c1.4 0 2.6 .5 3.4 1.3c.8 .7 1.2 1.9 1.2 3.3v7h-1.7v-1.8c-1 1.3 -2.4 2 -4.1 2Zm82.5 0c-1.3 0 -2.2 -.3 -3 -.9c-.9 -.7 -1.3 -1.6 -1.3 -2.7c0 -1.4 .5 -2.2 1.4 -2.9c.7 -.7 2 -1 3.5 -1c.1 0 .2 0 .3 0c1 0 2.1 .3 3.2 .6v-.4c0 -.9 -.3 -1.7 -.9 -2.2c-.6 -.6 -1.4 -.8 -2.5 -.8c-1.2 0 -2.2 .3 -3.4 .8l-.5 -1.3c1.4 -.7 2.8 -1 4.1 -1c.1 0 .2 0 .3 0c1.4 0 2.6 .5 3.4 1.3c.7 .7 1.2 1.9 1.2 3.3v7H602v-1.8c-1.1 1.3 -2.4 2 -4.1 2ZM597 217.5l-.3 -.8c1 -.4 1.5 -.9 1.5 -1.7v-.2h-.8v-2.3h2.1v2c-.1 .9 -.2 1.5 -.6 2c-.5 .5 -1 .8 -1.9 1Zm-92.8 -2.7v-3.5h3.5v3.5Zm-6.9 -2.3c1 0 1.6 -.4 1.6 -1.2c0 -.8 -.6 -1.2 -1.7 -1.2h-2.6v2.4Zm79.1 1c.8 0 1.5 -.2 2 -.5c.4 -.4 .7 -.8 .7 -1.4c-.1 -.6 -.3 -1 -.8 -1.3c-.5 -.4 -1.2 -.5 -2.1 -.5h-3.6v3.7ZM337 212.1c1.1 0 1.7 -.4 1.7 -1.3c0 -.5 -.1 -.7 -.4 -1c-.4 -.2 -.8 -.3 -1.4 -.3h-2.2v2.6Zm52.1 .7c.7 0 1.3 -.2 1.8 -.6c.4 -.4 .7 -1 .7 -1.6V210c-.6 -.4 -1.3 -.5 -2.1 -.5c-.8 0 -1.2 .1 -1.6 .4c-.5 .3 -.6 .8 -.6 1.4c-.1 .4 .1 .8 .5 1.1c.2 .2 .7 .4 1.3 .4Zm65.1 0c.7 0 1.3 -.2 1.8 -.6c.4 -.4 .7 -1 .7 -1.6V210c-.6 -.4 -1.3 -.5 -2.1 -.5c-.7 0 -1.2 .1 -1.6 .4c-.5 .3 -.6 .8 -.6 1.4c-.1 .4 .2 .8 .5 1.1c.3 .2 .7 .4 1.3 .4ZM311 212.1v-6.3h-3v.3c-.1 2.5 -.3 4.7 -.9 6Zm-15.8 .1c.9 0 1.7 -.3 2.3 -1c.5 -.6 .8 -1.4 .8 -2.3c0 -.9 -.2 -1.7 -.8 -2.3c-.7 -.7 -1.4 -1 -2.3 -1q-.1 0 -.2 0c-.9 0 -1.6 .4 -2.1 1c-.7 .6 -.9 1.4 -.9 2.3c-.1 .9 .3 1.7 .9 2.3c.5 .6 1.4 1 2.3 1Zm187.4 0c.9 0 1.7 -.3 2.3 -1c.5 -.6 .8 -1.4 .8 -2.3c0 -.9 -.3 -1.7 -.9 -2.3c-.6 -.7 -1.3 -1 -2.3 -1c0 0 -.1 0 -.1 0c-.9 0 -1.6 .4 -2.1 1c-.7 .6 -.9 1.4 -.9 2.3c-.1 .9 .3 1.7 .9 2.3c.5 .6 1.4 1 2.3 1Zm-230.4 -.1c.7 0 1.4 -.3 2 -.9c.5 -.6 .8 -1.4 .8 -2.3c0 -1 -.3 -1.8 -.8 -2.4c-.6 -.6 -1.2 -.9 -2 -.9q-.1 0 -.2 0c-.8 0 -1.3 .4 -1.8 .9c-.6 .6 -.9 1.4 -.9 2.4c-.1 .9 .3 1.7 .9 2.3c.4 .6 1.2 .9 2 .9Zm28.6 0c.7 0 1.4 -.3 2 -.9c.5 -.6 .8 -1.4 .8 -2.3c0 -1 -.3 -1.8 -.8 -2.4c-.6 -.6 -1.2 -.9 -2 -.9q-.1 0 -.2 0c-.8 0 -1.3 .4 -1.8 .9c-.6 .6 -.9 1.4 -.9 2.4c-.1 .9 .3 1.7 .9 2.3c.5 .6 1.2 .9 2 .9Zm146.8 0c.8 0 1.5 -.3 2 -.9c.5 -.6 .9 -1.4 .9 -2.3c0 -1 -.3 -1.8 -.9 -2.4c-.6 -.6 -1.2 -.9 -2 -.9c0 0 -.1 0 -.1 0c-.8 0 -1.4 .4 -1.9 .9c-.6 .6 -.8 1.4 -.8 2.4c-.1 .9 .3 1.7 .8 2.3c.5 .6 1.2 .9 2 .9Zm-11.8 -3.9c-.1 -.8 -.4 -1.4 -.8 -1.9c-.5 -.5 -1 -.7 -1.7 -.7c0 0 -.1 0 -.1 0c-.7 0 -1.2 .3 -1.6 .7c-.5 .4 -.7 1.1 -.9 1.9Zm81.1 -.4c.3 0 .7 -.1 1 -.3c.1 -.4 .3 -.5 .3 -.9c0 -.3 -.1 -.6 -.3 -.8c-.2 -.3 -.6 -.3 -1 -.3h-2.3v2.3Zm27.9 5.7V205h-4.6v1.6c0 2.9 -.5 5.2 -1.5 6.9Zm51.3 -5.2c.6 0 1.3 -.1 1.7 -.4c.3 -.4 .6 -.8 .6 -1.4c-.1 -.4 -.2 -.8 -.6 -1.1c-.5 -.4 -.9 -.4 -1.7 -.4h-3.5v3.3Zm-37 .4c-.2 -1.2 -.5 -2.1 -1.1 -2.8c-.7 -.7 -1.5 -1.1 -2.6 -1.1c-1.1 0 -1.8 .4 -2.5 1.1c-.9 .7 -1.2 1.6 -1.3 2.8Zm10.2 4.9c1.1 0 2.1 -.4 2.9 -1.2c.7 -.9 1.1 -1.8 1.1 -3.2c0 -1.3 -.4 -2.3 -1.1 -3.2c-.8 -.8 -1.8 -1.2 -2.9 -1.2c-1.2 0 -2 .4 -2.9 1.3c-.9 .7 -1.2 1.9 -1.2 3.1c0 1.3 .4 2.4 1.2 3.2c.7 .7 1.8 1.2 2.9 1.2Zm17.2 -4.9c-.2 -1.2 -.5 -2.1 -1.1 -2.8c-.7 -.7 -1.5 -1.1 -2.6 -1.1c-1.1 0 -1.8 .4 -2.5 1.1c-.8 .7 -1.2 1.6 -1.3 2.8Zm22.5 5.1c1.2 0 2.2 -.4 3 -1.3c.8 -.9 1.2 -1.9 1.2 -3.2c-.1 -1.3 -.4 -2.3 -1.3 -3.2c-.8 -.9 -1.8 -1.3 -3 -1.3c-1.3 0 -2.2 .5 -3 1.3c-.9 .8 -1.2 2 -1.2 3.2c0 1.2 .4 2.3 1.2 3.2c.7 .9 1.9 1.3 3.1 1.3Zm-73.4 4v-4.3h1.3c1 -1.9 1.5 -4.6 1.5 -8v-2h8.1v10h1.6v4.3h-1.6V215h-9.2l-.3 2.8ZM570.8 215V203.5h5.6c1.1 0 2.1 .3 2.7 .8c.6 .4 1.1 1.2 1.1 2c0 1.2 -.7 2.1 -2 2.6c1.7 .5 2.6 1.5 2.6 2.9c0 1 -.4 1.8 -1.1 2.3c-.8 .5 -1.8 .9 -3.1 .9Zm-35.1 .3c-1.7 -.1 -3 -.6 -4.2 -1.7c-1.1 -1.1 -1.6 -2.5 -1.6 -4.3c0 -1.7 .5 -3.1 1.6 -4.2c.9 -1.3 2.4 -1.8 3.9 -1.8c.1 0 .2 0 .2 0c1.5 0 2.9 .7 3.8 1.8c.9 1.1 1.4 2.7 1.4 4.4c-.1 .3 0 .5 0 .6h-9.2c.1 1.2 .6 2.1 1.4 2.7c.7 .7 1.6 1 2.7 1c1.3 0 2.6 -.5 3.7 -1.5l1 .9c-1.3 1.4 -2.9 2.1 -4.7 2.1Zm27.4 0c-1.7 -.1 -3 -.6 -4.2 -1.7c-1.1 -1.1 -1.6 -2.5 -1.6 -4.3c0 -1.7 .5 -3.1 1.6 -4.2c.9 -1.3 2.4 -1.8 3.9 -1.8c.1 0 .2 0 .2 0c1.5 0 2.9 .7 3.8 1.8c.9 1.1 1.5 2.7 1.5 4.4c-.2 .3 -.1 .5 -.1 .6H559c.1 1.2 .6 2.1 1.4 2.7c.7 .7 1.7 1 2.7 1c1.3 0 2.6 -.5 3.7 -1.5l1.1 .9c-1.4 1.4 -2.9 2.1 -4.8 2.1Zm25.8 0c-1.8 -.1 -3.1 -.6 -4.2 -1.7C583.5 212.4 583 211 583 209.3c0 -1.7 .5 -3 1.7 -4.2c1.1 -1.3 2.6 -1.8 4.3 -1.8c0 0 .1 0 .2 0c1.6 0 2.9 .7 4 1.8c1.1 1.1 1.7 2.6 1.7 4.2c-.1 1.6 -.6 3.1 -1.7 4.2c-1.2 1.2 -2.6 1.8 -4.3 1.8Zm-45.5 3.2v-15h1.8v2.3c1.1 -1.6 2.6 -2.5 4.4 -2.5q.1 0 .2 0c1.3 0 2.6 .6 3.6 1.6c1.1 1.1 1.7 2.6 1.7 4.3c-.1 1.8 -.6 3.2 -1.7 4.3c-1.1 1.1 -2.3 1.6 -3.8 1.6c-1.9 0 -3.3 -.8 -4.4 -2.4v5.8Zm-39.2 -12v-3.6h3.5v3.6Zm-271.8 8.4V202.8h10.7v12.1h-3.3v-9.1h-4v9.1Zm28.4 -.1v-12h3.3v7l4.4 -7h3.2v12h-3.3v-7l-4.4 7Zm41.4 3v-5.7h1.3c.7 -1.7 1.1 -4.4 1.1 -8.2v-1.1h9.7v9.3h1.6l-.4 5.7h-2.8v-2.7h-7.4l-.2 2.7Zm15.5 -3v-12H321v4.4h4.4v-4.4h3.3v12h-3.3v-4.7H321v4.7Zm13.7 0v-12h3.3v4h2.5c1.4 0 2.6 .4 3.5 1c.9 .7 1.3 1.7 1.3 3c-.1 1.1 -.4 2.2 -1.2 2.9c-.8 .7 -1.9 1.1 -3.4 1.1Zm12.3 0v-12H347v12Zm4.8 0l4.2 -6.1l-4 -5.9h3.6l2.2 3.5l2.3 -3.5h3.5l-4 5.9l4.2 6.1h-3.6l-2.4 -3.7l-2.4 3.7Zm20.4 0v-12h3.4l3.2 5.1l3.3 -5.1h3.4v12h-3.4v-7.2l-3.3 4.9l-3.3 -4.8v7.1Zm31.1 .1v-9.1h-3.7v-3h10.3v3h-3.3v9.1Zm36.2 -.1v-12h3.3v7l4.5 -7h3.2v12h-3.3v-7l-4.4 7Zm26.7 .3c-.7 -.1 -1.1 -.1 -1.7 -.2l.3 -2.8h.1c.2 0 .4 0 .6 0c.3 0 .7 0 .9 -.2c.2 -.2 .4 -.6 .6 -1.2c.2 -.7 .3 -1.5 .3 -2.8c0 -1.3 0 -3 0 -5.1h9.6V215h-3.3v-9.2h-3c-.1 1.5 -.1 2.9 -.2 4c-.1 1.1 -.3 2 -.5 2.7c-.3 .7 -.5 1.2 -.8 1.6c-.5 .3 -.8 .7 -1.2 .8c-.6 .1 -1 .2 -1.7 .2Zm28.3 0V202.8h6.5c1.1 0 2.1 .3 2.8 .9c.6 .5 1.1 1.3 1.1 2.3c-.2 1.2 -.6 2.2 -1.7 2.8c1.4 .4 2.3 1.5 2.3 3c-.1 1.1 -.4 1.9 -1.2 2.5c-.8 .5 -1.9 .8 -3.2 .8Zm-77.6 .4c-1.8 0 -3.2 -.6 -4.4 -1.8c-1.2 -1.3 -1.8 -2.7 -1.8 -4.6c0 -1.9 .6 -3.3 1.7 -4.6c1 -1.2 2.5 -1.8 4.2 -1.8q.1 0 .2 0c1.7 0 3.1 .6 4.1 1.9c.9 1.2 1.5 2.8 1.5 4.6c-.1 .2 0 .5 -.1 .9h-8.2c.1 .8 .5 1.4 1 1.8c.5 .4 1.1 .6 1.9 .6c.9 0 2 -.4 2.9 -1.2l1.9 1.8c-1.2 1.5 -2.8 2.4 -4.9 2.4Zm-118.4 -.4c-1.9 0 -3.4 -.6 -4.7 -1.8c-1.2 -1.2 -1.8 -2.6 -1.8 -4.4c0 -1.8 .6 -3.2 1.9 -4.4c1.1 -1.3 2.8 -1.8 4.6 -1.8q.1 0 .2 0c1.7 0 3.2 .6 4.4 1.8c1.2 1.1 1.9 2.6 1.9 4.4c-.1 1.7 -.7 3.2 -1.9 4.4c-1.3 1.2 -2.8 1.8 -4.6 1.8Zm187.3 0c-1.9 0 -3.3 -.6 -4.6 -1.8c-1.3 -1.2 -1.8 -2.6 -1.8 -4.4c0 -1.8 .6 -3.2 1.8 -4.4c1.2 -1.3 2.8 -1.8 4.7 -1.8q.1 0 .2 0c1.7 0 3.2 .6 4.4 1.8c1.2 1.1 1.8 2.6 1.8 4.4c-.1 1.7 -.6 3.2 -1.8 4.4c-1.3 1.2 -2.8 1.8 -4.7 1.8ZM246 218.5V202.8h3.3v1.8c.9 -1.3 2.2 -1.9 3.7 -1.9c0 0 .1 0 .2 0c1.2 0 2.5 .6 3.5 1.6c1.1 1.1 1.6 2.7 1.6 4.6c-.1 1.9 -.5 3.4 -1.5 4.5c-1.1 1 -2.3 1.7 -3.8 1.7c-1.6 -.1 -2.7 -.6 -3.7 -1.8v5.2Zm28.6 0V202.8h3.3v1.8c.9 -1.3 2.2 -1.9 3.7 -1.9c0 0 .1 0 .2 0c1.2 0 2.5 .6 3.5 1.6c1.1 1.1 1.6 2.7 1.6 4.6c-.1 1.9 -.5 3.4 -1.5 4.5c-1.1 1 -2.3 1.7 -3.8 1.7c-1.6 -.1 -2.7 -.6 -3.7 -1.8v5.2Zm146.9 0V202.8h3.3v1.8c.8 -1.3 2.1 -1.9 3.6 -1.9c.1 0 .2 0 .2 0c1.3 0 2.6 .6 3.6 1.6c1 1.1 1.6 2.7 1.6 4.6c-.1 1.9 -.6 3.4 -1.6 4.5c-1.1 1 -2.3 1.7 -3.8 1.7c-1.5 -.1 -2.6 -.6 -3.6 -1.8v5.2ZM388 215.1c-1.2 0 -2.1 -.3 -2.9 -1c-.8 -.6 -1.1 -1.5 -1.1 -2.7c0 -1.4 .4 -2.3 1.2 -2.9c.8 -.8 2.1 -1 3.5 -1c1 0 2 .2 2.9 .5v-.2c0 -1.6 -.8 -2.2 -2.5 -2.2c-.1 0 -.2 0 -.2 0c-1 0 -2 .3 -3 .7l-.9 -2.7c1.4 -.7 3 -.9 4.6 -.9c.1 0 .2 0 .3 0c1.6 0 2.9 .5 3.7 1.3c.9 .8 1.3 2.2 1.3 3.9v7h-3.3v-1.3c-.9 1 -2.1 1.5 -3.6 1.5Zm65.1 0c-1.1 0 -2.1 -.3 -2.9 -1c-.8 -.6 -1.1 -1.5 -1.1 -2.7c0 -1.4 .4 -2.3 1.3 -2.9c.7 -.8 2 -1 3.4 -1c1 0 2 .2 2.9 .5v-.2c0 -1.6 -.8 -2.2 -2.5 -2.2q-.1 0 -.2 0c-1 0 -2 .3 -3 .7l-.9 -2.7c1.5 -.7 3 -.9 4.6 -.9c.1 0 .2 0 .3 0c1.7 0 2.9 .5 3.8 1.3c.8 .8 1.3 2.2 1.3 3.9v7h-3.4v-1.3c-.9 1 -2.1 1.5 -3.6 1.5ZM340 182.3c.7 0 1.3 -.2 1.8 -.6c.4 -.4 .7 -1 .7 -1.6v-.6c-.6 -.4 -1.3 -.5 -2.1 -.5c-.8 0 -1.2 .1 -1.6 .5c-.5 .2 -.6 .7 -.6 1.3c-.1 .4 .2 .8 .5 1.1c.3 .2 .7 .4 1.3 .4Zm107 -.6c1.1 0 1.8 -.5 1.8 -1.4c0 -.5 -.2 -.7 -.5 -1c-.4 -.2 -.7 -.3 -1.3 -.3h-2.2v2.7Zm26 0c1 0 1.7 -.5 1.7 -1.4c0 -.5 -.1 -.7 -.4 -1c-.4 -.2 -.8 -.3 -1.4 -.3h-2.2v2.7Zm-65.2 0v-6.4h-3v.3c-.1 2.5 -.3 4.7 -.9 6.1Zm105 0v-6.4h-3v.3c-.1 2.5 -.3 4.7 -.9 6.1Zm-264.4 0c.9 0 1.7 -.3 2.3 -.9c.5 -.7 .9 -1.5 .9 -2.4c0 -.9 -.3 -1.7 -.9 -2.3c-.7 -.7 -1.4 -1 -2.3 -1q-.1 0 -.2 0c-.9 0 -1.6 .4 -2.1 1c-.6 .6 -.9 1.4 -.9 2.3c-.1 .9 .3 1.7 .9 2.3c.6 .7 1.4 1 2.3 1Zm132.9 0c.9 0 1.7 -.3 2.3 -.9c.5 -.7 .9 -1.5 .9 -2.4c0 -.9 -.3 -1.7 -.9 -2.3c-.7 -.7 -1.4 -1 -2.3 -1q-.1 0 -.2 0c-.9 0 -1.6 .4 -2.1 1c-.6 .6 -.9 1.4 -.9 2.3c-.1 .9 .3 1.7 .9 2.3c.6 .7 1.4 1 2.3 1Zm144.1 0c.9 0 1.7 -.3 2.3 -.9c.5 -.7 .8 -1.5 .8 -2.4c0 -.9 -.3 -1.7 -.8 -2.3c-.7 -.7 -1.4 -1 -2.3 -1q-.1 0 -.2 0c-.9 0 -1.6 .4 -2.1 1c-.7 .6 -.9 1.4 -.9 2.3c-.1 .9 .3 1.7 .9 2.3c.5 .7 1.4 1 2.3 1Zm-103.2 -4c-.1 -.8 -.3 -1.4 -.8 -1.9c-.5 -.5 -1 -.7 -1.7 -.7c0 0 -.1 0 -.1 0c-.7 0 -1.1 .3 -1.6 .7c-.5 .4 -.7 1.1 -.8 1.9Zm71.2 0c-.1 -.8 -.4 -1.4 -.8 -1.9c-.5 -.5 -1 -.7 -1.7 -.7q-.1 0 -.2 0c-.6 0 -1.1 .3 -1.5 .7c-.5 .4 -.7 1.1 -.9 1.9Zm-221.5 6.7v-9.1h-3.7v-3h10.3v3h-3.3v9.1Zm8.5 -.1v-12h3.4v7l4.4 -7h3.2v12h-3.3v-7l-4.4 7Zm13.9 0v-12h3.3v4.4h4.3v-4.4h3.4v12h-3.4v-4.6h-4.3v4.6Zm13.7 0v-12h3.3v7l4.4 -7h3.2v12h-3.3v-7l-4.4 7Zm22.9 3v-2.7h-9.1V172.3h3.4v9.4h4v-9.4h3.3v9.4h1.6l-.4 5.6Zm24.3 -3v-12h3.3v7l4.4 -7h3.3v12h-3.3v-7l-4.5 7Zm36.7 .1v-9.1h-3.7v-3h10.3v3h-3.3v9.1Zm7.1 2.9v-5.6h1.3c.7 -1.7 1.2 -4.5 1.2 -8.3v-1.1h9.6v9.4h1.6l-.4 5.6h-2.8v-2.7h-7.4l-.2 2.7Zm28.6 -2.7c-.7 -.1 -1.1 -.1 -1.7 -.2l.3 -2.8h.1c.2 0 .4 .1 .6 .1c.3 0 .7 -.1 .9 -.3c.2 -.2 .4 -.6 .6 -1.2c.2 -.7 .3 -1.5 .3 -2.8c0 -1.3 0 -3 0 -5.1h9.6v12.2H435v-9.2h-3c-.1 1.5 -.1 2.9 -.2 4c-.1 1.1 -.3 2 -.5 2.7c-.3 .7 -.5 1.3 -.8 1.6c-.4 .3 -.8 .7 -1.2 .8c-.6 .1 -1 .2 -1.7 .2Zm13.8 -.3v-12h3.4v4h2.5c1.4 0 2.6 .4 3.5 1c.8 .7 1.3 1.7 1.3 3c-.1 1.1 -.4 2.2 -1.2 2.9c-.9 .7 -2 1.1 -3.4 1.1Zm12.3 0v-12H457v4.4h4.4v-4.4h3.3v12h-3.3v-4.6H457v4.6Zm13.7 0v-12h3.3v4h2.5c1.4 0 2.6 .4 3.5 1c.9 .7 1.3 1.7 1.3 3c-.1 1.1 -.4 2.2 -1.2 2.9c-.8 .7 -1.9 1.1 -3.4 1.1Zm12.3 0v-12H483v12Zm24.3 3v-5.6h1.3c.7 -1.7 1.2 -4.5 1.2 -8.3v-1.1h9.6v9.4h1.6l-.4 5.6h-2.8v-2.7h-7.3l-.3 2.7Zm30.1 -3v-12h3.4l3.2 5.1l3.3 -5.1h3.4v12H544v-7.2l-3.3 4.9l-3.3 -4.8v7.1Zm16.1 0v-12h3.3v7l4.4 -7h3.2v12h-3.3v-7l-4.4 7Zm13.8 0v-12h3.3v5l4.3 -5h3.9l-4.4 5l4.9 7h-4l-3.1 -4.5l-1.6 1.6v2.9Zm13.3 0v-12h3.4v7l4.4 -7h3.2v12H585v-7l-4.4 7Zm20.3 0v-12H601v7l4.4 -7h3.2v12h-3.3v-7l-4.4 7Zm-335 .3c-1.8 0 -3.2 -.6 -4.4 -1.8c-1.2 -1.2 -1.8 -2.6 -1.8 -4.4c0 -1.7 .6 -3.2 1.8 -4.4c1.1 -1.3 2.7 -1.8 4.4 -1.8c.1 0 .2 0 .2 0c1.8 0 3.4 .7 4.6 2.1l-2 2c-.9 -.9 -1.8 -1.2 -2.8 -1.2c0 0 -.1 0 -.1 0c-.8 0 -1.4 .4 -1.9 1c-.6 .6 -.9 1.4 -.9 2.3c-.1 .9 .3 1.7 .9 2.4c.5 .6 1.3 .9 2.2 .9c.9 0 1.8 -.4 2.7 -1.3l2 2c-.7 .7 -1.4 1.3 -2.1 1.7c-.9 .3 -1.7 .5 -2.8 .5Zm157.5 .4c-1.9 0 -3.3 -.6 -4.5 -1.8c-1.2 -1.3 -1.7 -2.7 -1.7 -4.6c0 -1.9 .5 -3.3 1.6 -4.6c1 -1.2 2.5 -1.8 4.2 -1.8c.1 0 .2 0 .2 0c1.7 0 3.2 .7 4.1 1.9c1 1.2 1.5 2.8 1.5 4.7c-.1 .1 0 .4 0 .9h-8.3c.2 .7 .5 1.3 1 1.7c.5 .4 1.1 .6 1.9 .6c1 0 2 -.4 2.9 -1.2l1.9 1.8c-1.2 1.5 -2.8 2.4 -4.8 2.4Zm71.1 0c-1.9 0 -3.3 -.6 -4.4 -1.8c-1.2 -1.3 -1.8 -2.7 -1.8 -4.6c0 -1.9 .6 -3.3 1.7 -4.6c1 -1.2 2.5 -1.8 4.2 -1.8q.1 0 .2 0c1.7 0 3.1 .7 4.1 1.9c.9 1.2 1.5 2.8 1.5 4.7c-.2 .1 -.1 .4 -.1 .9h-8.2c.1 .7 .5 1.3 1 1.7c.5 .4 1.1 .6 1.9 .6c.9 0 2 -.4 2.8 -1.2l2 1.8c-1.3 1.5 -2.8 2.4 -4.9 2.4Zm-242.8 -.4c-1.9 0 -3.4 -.6 -4.6 -1.7c-1.3 -1.3 -1.9 -2.7 -1.9 -4.5c0 -1.8 .6 -3.2 1.9 -4.4c1.2 -1.3 2.8 -1.8 4.6 -1.8c.1 0 .2 0 .2 0c1.7 0 3.3 .6 4.4 1.8c1.2 1.1 1.9 2.7 1.9 4.4c-.1 1.7 -.6 3.2 -1.9 4.4c-1.3 1.2 -2.8 1.8 -4.6 1.8Zm132.9 0c-1.9 0 -3.4 -.6 -4.6 -1.7c-1.3 -1.3 -1.9 -2.7 -1.9 -4.5c0 -1.8 .6 -3.2 1.9 -4.4c1.2 -1.3 2.8 -1.8 4.6 -1.8c.1 0 .2 0 .2 0c1.7 0 3.3 .6 4.4 1.8c1.2 1.1 1.9 2.7 1.9 4.4c-.1 1.7 -.6 3.2 -1.9 4.4c-1.3 1.2 -2.8 1.8 -4.6 1.8Zm144.1 0c-1.9 0 -3.4 -.6 -4.7 -1.7c-1.2 -1.3 -1.8 -2.7 -1.8 -4.5c0 -1.8 .6 -3.2 1.9 -4.4c1.1 -1.3 2.8 -1.8 4.6 -1.8q.1 0 .2 0c1.7 0 3.2 .6 4.4 1.8c1.2 1.1 1.9 2.7 1.9 4.4c-.1 1.7 -.7 3.2 -1.9 4.4c-1.3 1.2 -2.8 1.8 -4.6 1.8Zm-186.5 0c-1.2 0 -2.1 -.3 -2.9 -1c-.8 -.6 -1.1 -1.5 -1.1 -2.7c0 -1.4 .4 -2.3 1.3 -2.9c.7 -.8 2 -1 3.4 -1c1 0 2 .2 2.9 .5v-.2c0 -1.6 -.8 -2.2 -2.5 -2.2c-.1 0 -.2 0 -.2 0c-1 0 -2 .3 -3 .7l-.9 -2.6c1.4 -.7 3 -1 4.6 -1c.1 0 .2 0 .3 0c1.6 0 2.9 .5 3.7 1.3c.9 .8 1.3 2.2 1.3 3.9v7h-3.3v-1.3c-.9 1 -2.1 1.5 -3.6 1.5Zm276.7 0c-2.2 0 -4 -.6 -5.4 -1.8l1.5 -2.3c1 .9 2.3 1.5 3.7 1.5c.4 0 .9 -.1 1.2 -.4c.3 -.4 .5 -.6 .5 -1c0 -.5 -.1 -.7 -.5 -.9c-.4 -.3 -.9 -.4 -1.5 -.4h-1.4v-2h1.4c.4 0 .9 -.1 1.2 -.3c.3 -.4 .5 -.6 .5 -1c0 -.3 -.1 -.6 -.4 -.8c-.4 -.3 -.7 -.4 -1.2 -.4c0 0 -.1 0 -.2 0c-1.2 0 -2.2 .5 -3 1.3L610.5 174c1.4 -1.2 3.1 -1.8 5.1 -1.8q.1 0 .2 0c1.2 0 2.2 .3 3 .9c.9 .6 1.3 1.4 1.3 2.3c-.1 1.3 -.6 2.2 -1.8 2.7c1.4 .5 2.2 1.5 2.2 2.9c-.1 .9 -.5 1.9 -1.4 2.6c-1 .6 -2.1 1 -3.5 1Zm-382.8 -.3V168.7h10.8v3h-7.5v12.6Z"/></clipPath>
<clipPath id="c4_24"><path d="M427.2 486.9c1.1 0 1.6 -.4 1.6 -1.2c0 -.8 -.5 -1.1 -1.7 -1.1h-2.6v2.3Zm145.5 0c1 0 1.5 -.4 1.5 -1.2c0 -.8 -.5 -1.1 -1.6 -1.1h-2.7v2.3Zm-321.9 .3c.7 0 1.4 -.2 1.9 -.6c.3 -.4 .7 -.9 .7 -1.6v-.6c-.7 -.4 -1.3 -.5 -2.1 -.5c-.8 0 -1.3 .2 -1.7 .5c-.5 .2 -.6 .7 -.6 1.3c-.1 .4 .2 .9 .5 1.1c.3 .2 .8 .4 1.3 .4Zm51.7 0c.7 0 1.4 -.2 1.9 -.6c.3 -.4 .7 -.9 .7 -1.6v-.6c-.6 -.4 -1.3 -.5 -2.1 -.5c-.8 0 -1.3 .2 -1.7 .5c-.5 .2 -.6 .7 -.6 1.3c-.1 .4 .2 .9 .5 1.1c.3 .2 .8 .4 1.3 .4Zm135.8 0c.8 0 1.4 -.2 1.9 -.6c.4 -.4 .7 -.9 .7 -1.6v-.6c-.6 -.4 -1.3 -.5 -2.1 -.5c-.8 0 -1.2 .2 -1.6 .5c-.5 .2 -.6 .7 -.6 1.3c-.1 .4 .1 .9 .5 1.1c.2 .2 .7 .4 1.2 .4Zm41.8 -.6c1.1 0 1.7 -.5 1.7 -1.4c0 -.5 -.1 -.7 -.4 -.9c-.4 -.3 -.8 -.4 -1.3 -.4h-2.3v2.7Zm118.8 0c1.1 0 1.8 -.5 1.8 -1.4c0 -.5 -.2 -.7 -.5 -.9c-.4 -.3 -.7 -.4 -1.3 -.4h-2.2v2.7Zm-333.4 0c.7 0 1.5 -.3 2 -.9c.4 -.6 .8 -1.3 .8 -2.2c0 -1 -.3 -1.7 -.9 -2.3c-.6 -.7 -1.2 -.9 -2 -.9c-.9 0 -1.5 .3 -2 .9c-.6 .5 -.8 1.4 -.8 2.3c-.1 .8 .3 1.6 .8 2.2c.5 .6 1.2 .9 2.1 .9Zm254.9 0v-6.4h-3v.3c-.1 2.6 -.3 4.7 -.9 6.1Zm-240.7 0c.9 0 1.7 -.3 2.3 -.9c.5 -.7 .9 -1.4 .9 -2.4c0 -.9 -.3 -1.6 -.9 -2.3c-.6 -.7 -1.4 -1 -2.3 -1q-.1 0 -.2 0c-.9 0 -1.6 .4 -2.1 1c-.6 .6 -.9 1.4 -.9 2.3c-.1 .9 .3 1.7 .9 2.4c.6 .6 1.4 .9 2.3 .9Zm132.8 0c.9 0 1.7 -.3 2.3 -.9c.5 -.7 .8 -1.4 .8 -2.4c0 -.9 -.3 -1.6 -.9 -2.3c-.6 -.7 -1.3 -1 -2.2 -1c-.1 0 -.2 0 -.2 0c-.9 0 -1.6 .4 -2.1 1c-.7 .6 -.9 1.4 -.9 2.3c-.1 .9 .3 1.7 .9 2.4c.5 .6 1.4 .9 2.3 .9Zm145.4 0c.9 0 1.7 -.3 2.3 -.9c.5 -.7 .9 -1.4 .9 -2.4c0 -.9 -.3 -1.6 -.9 -2.3c-.6 -.7 -1.4 -1 -2.3 -1q-.1 0 -.2 0c-.9 0 -1.6 .4 -2.1 1c-.6 .6 -.9 1.4 -.9 2.3c-.1 .9 .3 1.7 .9 2.4c.6 .6 1.4 .9 2.3 .9Zm-188.4 0c.7 0 1.4 -.3 2 -.9c.5 -.7 .8 -1.4 .8 -2.4c0 -1 -.3 -1.7 -.8 -2.3c-.6 -.7 -1.3 -1 -2 -1q-.1 0 -.2 0c-.8 0 -1.3 .4 -1.9 1c-.5 .6 -.8 1.4 -.8 2.3c-.1 1 .3 1.8 .8 2.4c.5 .5 1.3 .9 2.1 .9Zm28.6 0c.7 0 1.4 -.3 2 -.9c.5 -.7 .8 -1.4 .8 -2.4c0 -1 -.3 -1.7 -.8 -2.3c-.6 -.7 -1.2 -1 -2 -1q-.1 0 -.2 0c-.8 0 -1.3 .4 -1.9 1c-.5 .6 -.8 1.4 -.8 2.3c-.1 1 .3 1.8 .8 2.4c.5 .5 1.3 .9 2.1 .9Zm-65 -4c-.2 -.8 -.4 -1.4 -.8 -1.9c-.6 -.5 -1 -.7 -1.7 -.7q-.1 0 -.2 0c-.7 0 -1.1 .3 -1.5 .7c-.5 .4 -.8 1.1 -.9 1.9Zm93.7 -.4c.3 0 .8 -.1 1 -.3c.1 -.3 .3 -.5 .3 -.9c0 -.3 -.1 -.6 -.3 -.8c-.2 -.3 -.5 -.3 -1 -.3h-2.3v2.3Zm145.4 0c.4 0 .8 -.1 1 -.3c.2 -.3 .4 -.5 .4 -.9c0 -.3 -.1 -.6 -.4 -.8c-.2 -.3 -.5 -.3 -.9 -.3h-2.4v2.3Zm-281.9 7.2v-9.2h-3.7v-2.9h10.3v2.9h-3.3v9.2Zm30.1 2.8v-2.7h-9.1V477.3h3.3v9.3h4v-9.3H322v9.3h1.6l-.4 5.6Zm18.3 -3V477.3H342v4.3h4.4v-4.3h3.3v11.9h-3.3v-4.6H342v4.6Zm16 .2v-9.2h-3.6v-2.9h10.3v2.9h-3.3v9.2Zm23.4 -.2V477.3h3.3v7l4.4 -7H389v11.9h-3.3v-6.9l-4.4 6.9Zm43.1 .4V477.3h6.4c1.1 0 2.1 .2 2.8 .8c.6 .5 1.1 1.3 1.1 2.3c-.1 1.3 -.6 2.2 -1.7 2.8c1.4 .4 2.3 1.5 2.3 3.1c-.1 1 -.4 1.8 -1.2 2.4c-.8 .5 -1.8 .9 -3.2 .9Zm25.9 -.4V477.3h3.4v4.3h4.3v-4.3h3.3v11.9h-3.3v-4.6h-4.3v4.6Zm13.7 0V477.3h3.3v4.3h4.4v-4.3h3.3v11.9h-3.3v-4.6h-4.4v4.6Zm13.7 0V477.3h3.3v4h2.5c1.4 0 2.6 .3 3.5 1c.9 .6 1.3 1.6 1.3 2.9c-.1 1.2 -.4 2.2 -1.2 3c-.8 .6 -1.9 1 -3.4 1Zm12.3 0V477.3h3.3v11.9Zm6 0V477.3h3.3v7l4.4 -7h3.3v11.9h-3.3v-6.9l-4.5 6.9Zm18.8 3v-5.6h1.3c.7 -1.7 1.2 -4.5 1.2 -8.3v-1h9.6v9.3h1.6l-.3 5.6h-2.9v-2.7h-7.3l-.3 2.7Zm18.3 .7c-1.1 0 -2.1 -.3 -3 -.9l1.1 -2.5c.5 .2 1 .4 1.4 .4c.5 0 .9 -.2 1.2 -.7l-4.7 -11.9h3.6l2.7 8l2.6 -8h3.5l-4.6 12.2c-.5 1.2 -.9 2.1 -1.5 2.6c-.6 .5 -1.4 .8 -2.3 .8Zm9.2 -3.7l4.2 -6l-4 -5.9h3.6l2.2 3.4l2.2 -3.4h3.5l-4 5.8l4.2 6.1h-3.6L545 485.5l-2.4 3.7Zm27.5 .4V477.3H573c1.2 0 2.1 .2 2.8 .8c.7 .5 1.1 1.3 1.1 2.3c-.1 1.3 -.6 2.2 -1.7 2.8c1.5 .4 2.4 1.5 2.4 3.1c-.1 1 -.4 1.8 -1.2 2.4c-.9 .5 -1.9 .9 -3.3 .9Zm13.1 -.4V477.3H583v4.3h4.3v-4.3h3.3v11.9h-3.3v-4.6H583v4.6Zm13.7 0V477.3h3.3v4h2.5c1.4 0 2.6 .3 3.5 1c.8 .6 1.3 1.6 1.3 2.9c-.1 1.2 -.4 2.2 -1.2 3c-.9 .6 -2 1 -3.4 1Zm12.3 0V477.3H609v11.9Zm5.9 0V477.3H615v7l4.4 -7h3.2v11.9h-3.3v-6.9l-4.4 6.9Zm-280.7 .7c-1.9 0 -3.3 -.6 -4.5 -1.8c-1.2 -1.2 -1.7 -2.7 -1.7 -4.6c0 -1.9 .5 -3.3 1.6 -4.5c1 -1.3 2.6 -1.9 4.3 -1.9c0 0 .1 0 .2 0c1.7 0 3.1 .7 4 1.9c1 1.2 1.5 2.8 1.5 4.7c-.1 .1 0 .5 0 .9H328c.2 .7 .5 1.3 1 1.7c.5 .4 1.2 .7 1.9 .7c1 -.1 2 -.5 2.9 -1.3l1.9 1.8c-1.2 1.5 -2.8 2.4 -4.8 2.4Zm-51.2 -.3c-1.9 0 -3.4 -.6 -4.6 -1.8c-1.3 -1.3 -1.9 -2.7 -1.9 -4.5c0 -1.7 .6 -3.2 1.9 -4.4c1.2 -1.3 2.8 -1.8 4.6 -1.8c.1 0 .2 0 .2 0c1.7 0 3.3 .6 4.4 1.8c1.2 1.1 1.9 2.7 1.9 4.4c-.1 1.7 -.6 3.3 -1.9 4.5c-1.3 1.1 -2.8 1.8 -4.6 1.8Zm132.8 0c-1.9 0 -3.4 -.6 -4.7 -1.8c-1.3 -1.3 -1.8 -2.7 -1.8 -4.5c0 -1.7 .6 -3.2 1.9 -4.4c1.1 -1.3 2.7 -1.8 4.6 -1.8q.1 0 .2 0c1.7 0 3.2 .6 4.4 1.8c1.2 1.1 1.9 2.7 1.9 4.4c-.1 1.7 -.7 3.3 -1.9 4.5c-1.3 1.1 -2.8 1.8 -4.6 1.8Zm145.4 0c-1.9 0 -3.4 -.6 -4.6 -1.8c-1.3 -1.3 -1.9 -2.7 -1.9 -4.5c0 -1.7 .6 -3.2 1.9 -4.4c1.2 -1.3 2.8 -1.8 4.6 -1.8c.1 0 .2 0 .2 0c1.7 0 3.3 .6 4.4 1.8c1.2 1.1 1.9 2.7 1.9 4.4c-.1 1.7 -.6 3.3 -1.9 4.5c-1.3 1.1 -2.8 1.8 -4.6 1.8Zm-194.6 3.3V477.3h3.3v1.8c.9 -1.4 2.2 -2 3.7 -2c0 0 .1 0 .1 0c1.3 0 2.6 .6 3.6 1.7c1.1 1 1.6 2.6 1.6 4.5c-.1 1.9 -.5 3.5 -1.6 4.6c-1 1 -2.2 1.6 -3.7 1.6c-1.6 -.1 -2.7 -.6 -3.7 -1.8v5.2Zm28.6 0V477.3h3.3v1.8c.9 -1.4 2.2 -2 3.7 -2c0 0 .1 0 .2 0c1.2 0 2.5 .6 3.5 1.7c1.1 1 1.6 2.6 1.6 4.5c-.1 1.9 -.5 3.5 -1.5 4.6c-1.1 1 -2.3 1.6 -3.8 1.6c-1.6 -.1 -2.7 -.6 -3.7 -1.8v5.2ZM249.8 489.6c-1.2 0 -2.2 -.4 -2.9 -1c-.9 -.7 -1.2 -1.6 -1.2 -2.8c0 -1.4 .4 -2.3 1.3 -2.9c.8 -.8 2 -1 3.5 -1c.9 0 1.9 .2 2.9 .5v-.2c0 -1.5 -.9 -2.2 -2.6 -2.2c0 0 -.1 0 -.2 0c-1 0 -1.9 .3 -3 .7l-.9 -2.6c1.5 -.7 3 -1 4.7 -1q.1 0 .2 0c1.7 0 2.9 .5 3.8 1.3c.8 .9 1.3 2.2 1.3 3.9v7.1h-3.3v-1.3c-.9 .9 -2.1 1.5 -3.6 1.5Zm51.7 0c-1.2 0 -2.1 -.4 -2.9 -1c-.9 -.7 -1.2 -1.6 -1.2 -2.8c0 -1.4 .4 -2.3 1.3 -2.9c.8 -.8 2 -1 3.5 -1c.9 0 1.9 .2 2.9 .5v-.2c0 -1.5 -.9 -2.2 -2.6 -2.2c0 0 -.1 0 -.2 0c-1 0 -1.9 .3 -3 .7l-.8 -2.6c1.4 -.7 2.9 -1 4.6 -1q.1 0 .2 0c1.7 0 3 .5 3.8 1.3c.8 .9 1.3 2.2 1.3 3.9v7.1h-3.3v-1.3c-.9 .9 -2.1 1.5 -3.6 1.5Zm135.8 0c-1.2 0 -2.1 -.4 -2.9 -1c-.8 -.7 -1.2 -1.6 -1.2 -2.8c0 -1.4 .5 -2.3 1.3 -2.9c.8 -.8 2.1 -1 3.5 -1c1 0 2 .2 2.9 .5v-.2c0 -1.5 -.8 -2.2 -2.5 -2.2c-.1 0 -.2 0 -.3 0c-.9 0 -1.9 .3 -3 .7l-.8 -2.6c1.4 -.7 3 -1 4.6 -1c.1 0 .2 0 .3 0c1.6 0 2.9 .5 3.7 1.3c.9 .9 1.3 2.2 1.3 3.9v7.1h-3.3v-1.3c-.9 .9 -2.1 1.5 -3.6 1.5Zm-199.1 0c-1.6 0 -2.8 -.2 -3.9 -.7c-1.1 -.4 -2 -1 -2.9 -1.9l1.8 -2.4c1.3 1.3 3 2 5 2c.7 0 1.3 -.2 1.8 -.5c.4 -.4 .8 -.8 .8 -1.4c-.1 -.7 -.3 -1.1 -.9 -1.4c-.6 -.3 -1.3 -.4 -2.2 -.4h-1.8v-3h1.8c1.7 0 2.7 -.6 2.7 -1.8c0 -.6 -.2 -1 -.7 -1.4c-.5 -.3 -1 -.4 -1.8 -.4c-1.7 0 -3 .6 -4.1 1.7L232 475.8c1.5 -1.7 3.6 -2.5 6.2 -2.5c1.6 0 3 .4 4 1.2c1 .7 1.5 1.8 1.5 3c-.1 1.6 -.8 2.9 -2.4 3.7c1.8 .5 2.8 1.8 2.8 3.7c-.1 1.2 -.6 2.5 -1.6 3.3c-1.1 .9 -2.5 1.4 -4.3 1.4Zm27.2 0c-2 0 -3.5 -.7 -4.5 -1.9c-1.2 -1.3 -1.6 -3 -1.6 -5.4c0 -.8 0 -1.5 .1 -2.2c0 -.7 .2 -1.3 .3 -2c.2 -.8 .5 -1.4 .9 -1.9c.2 -.6 .8 -1 1.4 -1.4c.6 -.5 1.4 -.7 2.2 -.8l6.3 -1.2l.5 2.7l-6.4 1.3c-1.9 .3 -2.7 1.3 -2.9 2.8c.3 -.5 .8 -.9 1.6 -1.4c.7 -.5 1.6 -.6 2.7 -.6c1.5 0 2.8 .6 3.9 1.7c1.1 1.1 1.7 2.5 1.7 4.1c-.1 1.7 -.6 3.2 -1.8 4.4c-1.2 1.1 -2.6 1.8 -4.4 1.8Zm233 -13.7c-1.1 0 -1.8 -.3 -2.5 -.9c-.7 -.6 -1 -1.4 -1.2 -2.5l2 -.4c.2 .9 .9 1.5 1.7 1.5c.7 0 1.4 -.5 1.7 -1.5l1.9 .4c-.2 1 -.5 1.9 -1.1 2.5c-.7 .6 -1.5 .9 -2.5 .9Zm118.8 0c-1.1 0 -1.8 -.3 -2.4 -.9c-.7 -.6 -1.1 -1.4 -1.2 -2.5l2 -.4c.2 .9 .8 1.5 1.6 1.5c.8 0 1.4 -.5 1.7 -1.5l2 .4c-.2 1 -.6 1.9 -1.2 2.5c-.7 .6 -1.5 .9 -2.5 .9ZM469.4 428.3v-2.4h2.1v2.4Zm-6.9 -1.4c.8 0 1.5 -.1 2 -.5c.4 -.4 .7 -.8 .7 -1.4c-.1 -.6 -.3 -1 -.8 -1.3c-.5 -.3 -1.2 -.4 -2.1 -.4h-3.6v3.6Zm-128 -.1c.8 -.1 1.5 -.2 2 -.6c.4 -.4 .7 -.8 .7 -1.5c-.1 -.7 -.2 -1.1 -.7 -1.4c-.6 -.4 -1.2 -.5 -2.1 -.5h-3v4Zm65.8 .1c.8 0 1.5 -.2 2 -.5c.4 -.4 .7 -.9 .7 -1.6c-.1 -.7 -.2 -1.2 -.7 -1.5c-.6 -.4 -1.2 -.5 -2.1 -.5h-3v4.1Zm-90 0v-8.5h-4.6V420c0 2.9 -.5 5.2 -1.5 6.9Zm151.9 -5.1c.6 -.1 1.3 -.2 1.7 -.5c.3 -.3 .6 -.7 .6 -1.3c-.1 -.5 -.2 -.9 -.6 -1.1c-.5 -.4 -.9 -.5 -1.7 -.5h-3.5v3.4Zm-77.3 5.3c1.1 -.1 2.1 -.4 2.9 -1.3c.7 -.9 1.1 -1.8 1.1 -3c-.1 -1.3 -.4 -2.3 -1.2 -3.1c-.8 -.9 -1.7 -1.3 -2.9 -1.3c0 0 -.1 0 -.2 0c-1.1 0 -2 .5 -2.7 1.3c-.8 .8 -1.1 1.8 -1.1 3.1c-.1 1.1 .4 2.2 1.1 3c.7 .8 1.8 1.3 3 1.3Zm-132.7 0c1 -.1 2.1 -.4 2.8 -1.2c.8 -.9 1.2 -1.9 1.2 -3.2c-.1 -1.4 -.4 -2.4 -1.2 -3.2c-.8 -.9 -1.7 -1.2 -2.8 -1.2c-1.2 0 -2.1 .4 -2.9 1.2c-1 .8 -1.3 1.9 -1.3 3.2c0 1.2 .5 2.3 1.3 3.1c.7 .8 1.8 1.3 2.9 1.3Zm28.2 0c1.1 -.1 2.1 -.4 2.9 -1.2c.7 -.9 1.1 -1.9 1.1 -3.2c0 -1.4 -.3 -2.4 -1.1 -3.2c-.8 -.9 -1.8 -1.2 -2.9 -1.2c-1.1 0 -2 .4 -2.9 1.2c-.9 .8 -1.2 1.9 -1.2 3.2c0 1.2 .4 2.3 1.2 3.1c.8 .8 1.8 1.3 2.9 1.3Zm14 .2c1.2 0 2.2 -.5 3 -1.3c.8 -.9 1.2 -2 1.2 -3.2c-.1 -1.3 -.4 -2.3 -1.2 -3.2c-.8 -1 -1.9 -1.3 -3.1 -1.3c-1.3 0 -2.2 .4 -3 1.3c-.9 .7 -1.2 1.9 -1.2 3.2c0 1.2 .4 2.3 1.3 3.1c.7 .9 1.8 1.4 3 1.4Zm76.2 0c1.2 0 2.2 -.5 3 -1.3c.8 -.9 1.2 -2 1.2 -3.2c-.1 -1.3 -.4 -2.3 -1.2 -3.2c-.9 -1 -1.9 -1.3 -3.1 -1.3c-1.3 0 -2.2 .4 -3 1.3c-.9 .7 -1.2 1.9 -1.2 3.2c0 1.2 .4 2.3 1.3 3.1c.7 .9 1.8 1.4 3 1.4Zm45.1 -5.2c-.2 -1.2 -.4 -2 -1.1 -2.7c-.7 -.8 -1.5 -1.1 -2.6 -1.1c-1 0 -1.8 .3 -2.5 1.1c-.8 .6 -1.1 1.6 -1.2 2.7Zm32.5 5.2c1.2 0 2.2 -.5 3 -1.3c.8 -.9 1.2 -2 1.2 -3.2c-.1 -1.3 -.4 -2.3 -1.2 -3.2c-.9 -1 -1.9 -1.3 -3.1 -1.3c-1.3 0 -2.2 .4 -3 1.3c-.9 .7 -1.2 1.9 -1.2 3.2c0 1.2 .4 2.3 1.3 3.1c.7 .9 1.8 1.4 3 1.4Zm-215.4 1.1V416.9h9.9v11.5H241v-10h-6.5v10Zm28 -.1V416.9h1.7v9l6.9 -9h1.7v11.4h-1.8v-9l-6.8 9Zm40.3 2.9v-4.3h1.3c1 -1.9 1.5 -4.5 1.5 -8v-2H312v10h1.6v4.3H312v-2.8h-9.2l-.3 2.8ZM316 428.3V416.9h1.8v4.9h6.6v-4.9h1.7v11.4h-1.7v-5h-6.6v5Zm13.7 0V416.9h1.7v4.4h3.1c1.2 0 2.4 .2 3.2 .8c.8 .5 1.3 1.4 1.3 2.5c0 1.1 -.4 2 -1.2 2.7c-.8 .6 -1.8 1 -3.2 1Zm11.3 0V416.9h1.7v11.4Zm4.2 0l4.5 -5.8l-4.3 -5.6h1.9l3.4 4.4l3.4 -4.4H356l-4.4 5.6l4.6 5.8h-2l-3.6 -4.7l-3.5 4.7Zm50.3 .1v-10H392v-1.5h5.2v4.4h3.1c1.2 0 2.4 .2 3.2 .8c.8 .5 1.3 1.4 1.3 2.6c-.1 1.1 -.4 2 -1.2 2.7c-.8 .6 -1.8 1 -3.2 1Zm24.6 -.1V416.9h1.7v6.6l6.3 -6.6h2.1l-4.8 4.9l4.9 6.5h-2l-4.1 -5.2l-2.4 2.4v2.8Zm15 .1v-10h-4v-1.5h10v1.5h-4.3v10Zm21.8 0V416.9h5.6c1.1 0 2.1 .3 2.7 .8c.6 .5 1.1 1.2 1.1 2.1c0 1.1 -.7 2.1 -2 2.6c1.7 .4 2.6 1.4 2.6 2.9c0 .9 -.4 1.7 -1.1 2.3c-.8 .4 -1.8 .8 -3.1 .8Zm-44.6 .4c-1.7 -.1 -3 -.6 -4.1 -1.7c-1.1 -1.2 -1.7 -2.6 -1.7 -4.3c0 -1.8 .5 -3.1 1.6 -4.3c1 -1.2 2.4 -1.7 4 -1.7c0 0 .1 0 .2 0c1.5 0 2.8 .6 3.7 1.7c.9 1.1 1.5 2.7 1.5 4.5c-.1 .2 0 .4 0 .6h-9.2c0 1.1 .5 2 1.3 2.7c.7 .6 1.7 1 2.7 1c1.4 0 2.7 -.6 3.7 -1.6l1.1 .9c-1.4 1.4 -2.9 2.2 -4.8 2.2Zm-118 0c-1.8 -.1 -3.1 -.6 -4.2 -1.8c-1.2 -1.2 -1.7 -2.6 -1.7 -4.2c0 -1.7 .6 -3.1 1.7 -4.3c1.1 -1.2 2.6 -1.7 4.3 -1.7q.1 0 .2 0c1.6 0 3 .6 4.1 1.7c1 1.1 1.7 2.6 1.7 4.3c-.1 1.5 -.6 3 -1.8 4.2c-1.2 1.1 -2.6 1.8 -4.3 1.8Zm76.2 0c-1.8 -.1 -3.1 -.6 -4.2 -1.8c-1.2 -1.2 -1.7 -2.6 -1.7 -4.2c0 -1.7 .6 -3.1 1.7 -4.3c1.1 -1.2 2.6 -1.7 4.3 -1.7c0 0 .1 0 .2 0c1.6 0 2.9 .6 4 1.7c1.1 1.1 1.7 2.6 1.7 4.3c-.1 1.5 -.5 3 -1.7 4.2c-1.2 1.1 -2.6 1.8 -4.3 1.8Zm77.6 0c-1.8 -.1 -3.1 -.6 -4.2 -1.8c-1.2 -1.2 -1.7 -2.6 -1.7 -4.2c0 -1.7 .6 -3.1 1.7 -4.3c1.1 -1.2 2.6 -1.7 4.3 -1.7c0 0 .1 0 .2 0c1.6 0 2.9 .6 4 1.7c1.1 1.1 1.8 2.6 1.8 4.3c-.2 1.5 -.6 3 -1.8 4.2c-1.2 1.1 -2.6 1.8 -4.3 1.8Zm-201.8 3.1v-15H248v2.4c1.2 -1.7 2.7 -2.5 4.4 -2.5c.1 0 .2 0 .2 0c1.4 0 2.6 .6 3.7 1.6c1.1 1 1.6 2.5 1.6 4.3c-.1 1.7 -.5 3.2 -1.6 4.3c-1.1 1 -2.4 1.6 -3.9 1.6c-1.8 0 -3.2 -.8 -4.4 -2.4v5.7Zm28.3 0v-15h1.7v2.4c1.1 -1.7 2.6 -2.5 4.4 -2.5q.1 0 .2 0c1.3 0 2.6 .6 3.7 1.6c1 1 1.6 2.5 1.6 4.3c-.1 1.7 -.6 3.2 -1.6 4.3c-1.1 1 -2.4 1.6 -3.9 1.6c-1.9 0 -3.3 -.8 -4.4 -2.4v5.7Zm110.2 -3.3c-1.8 0 -3.2 -.6 -4.2 -1.8c-1.1 -1.2 -1.6 -2.7 -1.6 -4.7c0 -.8 0 -1.3 0 -1.8c0 -.5 .1 -1.1 .1 -1.7c.1 -.7 .3 -1.2 .5 -1.6c.1 -.5 .4 -.9 .7 -1.3c.2 -.5 .7 -.8 1.2 -1.1c.4 -.4 1.1 -.5 1.7 -.7l6.4 -1.5l.4 1.4l-6.2 1.6c-1.2 .2 -2 .8 -2.5 1.4c-.6 .6 -.8 1.6 -.9 2.7c1 -1.8 2.6 -2.6 4.8 -2.6c1.4 0 2.8 .6 3.8 1.7c1.1 1.1 1.6 2.5 1.6 4.1c-.1 1.6 -.5 3 -1.6 4.1c-1.2 1.1 -2.5 1.8 -4.2 1.8Zm26.7 -28.1l-.2 -.8c1 -.5 1.5 -1 1.5 -1.7v-.2H412v-2.4h2v2c0 .9 -.2 1.6 -.6 2.1c-.4 .4 -1 .8 -1.9 1Zm-6.4 -4.1c.7 0 1.4 -.1 1.9 -.5c.4 -.4 .7 -.8 .7 -1.4c-.1 -.6 -.2 -1 -.7 -1.3c-.6 -.3 -1.2 -.4 -2.2 -.4h-3.6v3.6Zm-106.3 .2c1 -.1 1.9 -.3 2.7 -.8c.6 -.7 1 -1.3 1 -2.2v-1c-1.1 -.4 -2.2 -.5 -3.2 -.5c-1.1 0 -1.9 .2 -2.5 .6c-.6 .3 -.8 1 -.8 1.7c-.1 .6 .2 1.2 .8 1.6c.5 .3 1.2 .6 2 .6Zm64.2 0c1 -.1 1.9 -.3 2.7 -.8c.6 -.7 1.1 -1.3 1.1 -2.2v-1c-1.2 -.4 -2.2 -.5 -3.3 -.5c-1.1 0 -1.9 .2 -2.4 .6c-.7 .3 -.9 1 -.9 1.7c0 .6 .3 1.2 .8 1.6c.5 .3 1.2 .6 2 .6Zm79 0c.9 -.1 1.9 -.3 2.6 -.8c.7 -.7 1.1 -1.3 1.1 -2.2v-1c-1.1 -.4 -2.2 -.5 -3.3 -.5c-1 0 -1.8 .2 -2.4 .6c-.7 .3 -.9 1 -.9 1.7c0 .6 .3 1.2 .9 1.6c.4 .3 1.2 .6 2 .6ZM270.4 392v-1.8h6.2V392Zm134.3 -.7c.6 -.1 1.3 -.2 1.7 -.5c.3 -.3 .6 -.7 .6 -1.3c0 -.5 -.2 -.8 -.6 -1.1c-.5 -.4 -.9 -.5 -1.6 -.5h-3.6v3.4Zm-142.5 5.5c1.2 0 2.3 -.5 3.1 -1.3c.7 -.9 1.1 -2 1.1 -3.2c0 -1.3 -.4 -2.3 -1.2 -3.2c-.8 -1 -1.8 -1.3 -3 -1.3c-1.4 0 -2.3 .4 -3 1.3c-.9 .8 -1.2 1.9 -1.2 3.2c-.1 1.2 .4 2.3 1.2 3.2c.7 .8 1.8 1.3 3 1.3Zm64.6 -5.2c-.2 -1.1 -.5 -2 -1.1 -2.7c-.7 -.8 -1.5 -1.1 -2.6 -1.1c-1 0 -1.8 .3 -2.5 1.1c-.8 .6 -1.1 1.6 -1.3 2.7Zm10.2 5c1.1 -.1 2.1 -.4 2.9 -1.2c.7 -.9 1.2 -1.9 1.2 -3.2c-.1 -1.4 -.4 -2.4 -1.2 -3.2c-.8 -.9 -1.7 -1.2 -2.9 -1.2c-1.1 0 -2 .4 -2.8 1.2c-1 .8 -1.3 1.9 -1.3 3.2c0 1.2 .4 2.3 1.3 3.2c.7 .7 1.7 1.2 2.8 1.2Zm53.7 .2c1.2 0 2.3 -.5 3 -1.3c.8 -.9 1.2 -2 1.2 -3.2c0 -1.3 -.4 -2.3 -1.2 -3.2c-.8 -1 -1.8 -1.3 -3 -1.3c-1.4 0 -2.3 .4 -3.1 1.3c-.8 .8 -1.1 1.9 -1.1 3.2c-.1 1.2 .4 2.3 1.2 3.2c.7 .8 1.8 1.3 3 1.3Zm39.1 -.2c1 -.1 2.1 -.4 2.8 -1.2c.8 -.9 1.2 -1.9 1.2 -3.2c-.1 -1.4 -.4 -2.4 -1.2 -3.2c-.8 -.9 -1.7 -1.2 -2.8 -1.2c-1.2 0 -2.1 .4 -2.9 1.2c-1 .8 -1.3 1.9 -1.3 3.2c0 1.2 .5 2.3 1.3 3.2c.7 .7 1.8 1.2 2.9 1.2Zm52.6 -5c-.2 -1.1 -.4 -2 -1.1 -2.7c-.7 -.8 -1.5 -1.1 -2.6 -1.1c-1 0 -1.8 .3 -2.5 1.1c-.8 .6 -1.1 1.6 -1.2 2.7Zm-237.2 6.2V386.4H247V393l6.2 -6.6h2.1l-4.8 4.9l5 6.5h-2.1l-4 -5.2L247 395v2.8Zm34.6 0V386.4h1.7l4.2 6l4.2 -6h1.6v11.4h-1.7v-8.7l-4.1 5.8l-4.1 -5.8v8.7Zm30.7 .1v-10h-4v-1.5h10v1.5h-4.2v10Zm35.2 -.1V386.4h1.7v9l6.9 -9H356v11.4h-1.8v-9l-6.9 9Zm25.9 .3c-.5 0 -.9 -.1 -1.4 -.2l.2 -1.5c.2 .1 .6 .2 .8 .2c.3 -.1 .6 0 .8 -.1c.1 -.1 .4 -.3 .7 -.7c.1 -.3 .4 -.8 .5 -1.4c.1 -.8 .3 -1.6 .4 -2.7c0 -1.3 .1 -2.6 .1 -4.3v-1h8.1v11.5H380v-10h-4.5v.3c-.1 1.7 -.1 3.2 -.2 4.5c-.3 1.1 -.3 2.2 -.6 2.9c-.2 .6 -.4 1.2 -.8 1.6c-.4 .3 -.7 .6 -1.1 .7c-.3 .1 -.7 .2 -1.2 .2Zm27.9 -.2V386.4H405c1.1 0 2.1 .3 2.8 .8c.5 .5 1 1.2 1 2.1c0 1.1 -.7 2.1 -1.9 2.6c1.7 .4 2.6 1.4 2.6 2.9c0 .9 -.4 1.7 -1.2 2.3c-.8 .4 -1.8 .8 -3 .8Zm66.6 0v-10h-4v-1.5h10v1.5h-4.2v10Zm20.7 -.1V386.4h1.7v4.9h6.6v-4.9h1.7v11.4h-1.7v-5h-6.6v5Zm13.6 0V386.4h1.7v9l6.9 -9h1.7v11.4h-1.8v-9l-6.8 9Zm13.8 0V386.4h1.7v9l6.9 -9h1.7v11.4h-1.8v-9l-6.9 9Zm20.2 0V386.4h1.7v9l6.9 -9h1.7v11.4h-1.8v-9l-6.9 9Zm-78.2 .5c-1.7 -.1 -3 -.6 -4.2 -1.8c-1.1 -1.2 -1.7 -2.6 -1.7 -4.2c0 -1.7 .6 -3.1 1.7 -4.3c1.2 -1.2 2.6 -1.7 4.2 -1.7q.1 0 .2 0c1.6 0 3.2 .7 4.4 2l-1.1 1.2c-1.1 -1.2 -2.2 -1.7 -3.5 -1.7c-1.2 0 -2.1 .4 -2.9 1.3c-.9 .8 -1.2 1.9 -1.2 3.2c0 1.2 .4 2.3 1.2 3.2c.7 .8 1.8 1.3 3 1.3c1.1 0 2.4 -.6 3.5 -1.8l1.1 1.1c-1.4 1.3 -2.9 2.2 -4.7 2.2Zm-220 0c-1.1 -.1 -1.9 -.2 -2.7 -.6c-.7 -.5 -1.4 -.9 -2 -1.7l1.2 -1c1 1.1 2.2 1.8 3.4 1.8c1.1 0 2 -.4 2.8 -1.1c.8 -.9 1.3 -1.7 1.4 -2.8h-5.2v-1.5h5.2c-.2 -1 -.6 -1.8 -1.4 -2.5c-.8 -.8 -1.6 -1.1 -2.7 -1.1c-1.3 0 -2.5 .5 -3.5 1.7l-1 -1.1c1.1 -1.5 2.7 -2.1 4.6 -2.1q.1 0 .2 0c1.5 0 2.9 .6 3.9 1.8c1.1 1 1.7 2.6 1.7 4.2c0 1.6 -.6 3 -1.7 4.2c-1.3 1.2 -2.6 1.8 -4.2 1.8Zm87.2 0c-1.7 -.1 -3 -.6 -4.1 -1.7c-1.2 -1.2 -1.7 -2.6 -1.7 -4.3c0 -1.8 .5 -3.1 1.6 -4.3c1 -1.2 2.4 -1.7 4 -1.7c0 0 .1 0 .2 0c1.5 0 2.8 .6 3.7 1.7c.9 1.1 1.5 2.7 1.5 4.5c-.1 .2 0 .4 -.1 .6h-9.2c.1 1.1 .6 2 1.4 2.7c.7 .6 1.7 1 2.7 1c1.4 0 2.6 -.6 3.7 -1.6l1.1 .9c-1.4 1.4 -2.9 2.2 -4.8 2.2Zm155.6 0c-1.7 -.1 -3 -.6 -4.1 -1.7c-1.1 -1.2 -1.7 -2.6 -1.7 -4.3c0 -1.8 .5 -3.1 1.6 -4.3c1 -1.2 2.4 -1.7 4 -1.7c0 0 .1 0 .2 0c1.5 0 2.8 .6 3.7 1.7c.9 1.1 1.5 2.7 1.5 4.5c-.1 .2 0 .4 0 .6H475c0 1.1 .5 2 1.3 2.7c.7 .6 1.7 1 2.7 1c1.4 0 2.7 -.6 3.7 -1.6l1.1 .9c-1.4 1.4 -2.9 2.2 -4.8 2.2Zm-216.8 0c-1.8 -.1 -3.1 -.6 -4.3 -1.8c-1.1 -1.2 -1.7 -2.6 -1.7 -4.2c0 -1.7 .6 -3.1 1.7 -4.3c1.2 -1.2 2.6 -1.7 4.3 -1.7c.1 0 .2 0 .2 0c1.6 0 3 .6 4.1 1.7c1 1.1 1.7 2.6 1.7 4.3c-.1 1.6 -.6 3 -1.7 4.2c-1.3 1.2 -2.6 1.8 -4.3 1.8Zm128.5 0c-1.8 -.1 -3.2 -.6 -4.3 -1.8c-1.1 -1.2 -1.7 -2.6 -1.7 -4.2c0 -1.7 .6 -3.1 1.7 -4.3c1.2 -1.2 2.6 -1.7 4.3 -1.7q.1 0 .2 0c1.6 0 3 .6 4.1 1.7c1 1.1 1.7 2.6 1.7 4.3c-.1 1.6 -.6 3 -1.7 4.2c-1.3 1.2 -2.6 1.8 -4.3 1.8Zm-59.5 3.1v-15h1.7v2.4c1.1 -1.7 2.6 -2.5 4.4 -2.5q.1 0 .2 0c1.3 0 2.6 .6 3.7 1.6c1 1 1.6 2.5 1.6 4.3c-.1 1.7 -.5 3.2 -1.6 4.3c-1.1 1 -2.4 1.6 -3.9 1.6c-1.8 0 -3.3 -.8 -4.4 -2.4v5.7Zm92.7 0v-15h1.7v2.4c1.2 -1.7 2.7 -2.5 4.4 -2.5c.1 0 .2 0 .2 0c1.4 0 2.6 .6 3.7 1.6c1.1 1 1.6 2.5 1.6 4.3c-.1 1.7 -.5 3.2 -1.6 4.3c-1.1 1 -2.4 1.6 -3.9 1.6c-1.8 0 -3.2 -.8 -4.4 -2.4v5.7ZM298.5 398.1c-1.3 0 -2.2 -.3 -3 -1c-.9 -.6 -1.3 -1.5 -1.3 -2.7c0 -1.3 .5 -2.1 1.3 -2.8c.8 -.7 2.1 -1 3.6 -1c.1 0 .2 0 .3 0c1 0 2.1 .2 3.1 .5v-.3c0 -1 -.3 -1.7 -.8 -2.2c-.7 -.6 -1.4 -.8 -2.5 -.8c-1.2 0 -2.3 .2 -3.4 .8l-.5 -1.4c1.4 -.6 2.8 -.9 4.1 -.9c.1 0 .2 0 .3 0c1.4 0 2.6 .4 3.4 1.2c.7 .8 1.2 1.9 1.2 3.4v6.9h-1.8V396c-1 1.3 -2.3 2.1 -4 2.1Zm64.2 0c-1.3 0 -2.2 -.3 -3 -1c-.9 -.6 -1.3 -1.5 -1.3 -2.7c0 -1.3 .5 -2.1 1.4 -2.8c.7 -.7 2 -1 3.5 -1c.1 0 .2 0 .3 0c1 0 2.1 .2 3.2 .5v-.3c0 -1 -.3 -1.7 -.9 -2.2c-.6 -.6 -1.4 -.8 -2.5 -.8c-1.2 0 -2.2 .2 -3.4 .8l-.5 -1.4c1.4 -.6 2.8 -.9 4.1 -.9c.1 0 .2 0 .3 0c1.4 0 2.6 .4 3.4 1.2c.7 .8 1.2 1.9 1.2 3.4v6.9h-1.7V396c-1.1 1.3 -2.4 2.1 -4.1 2.1Zm78.9 0c-1.2 0 -2.1 -.3 -3 -1c-.9 -.6 -1.2 -1.5 -1.2 -2.7c0 -1.3 .4 -2.1 1.3 -2.8c.8 -.7 2.1 -1 3.5 -1c.2 0 .3 0 .4 0c1 0 2.1 .2 3.1 .5v-.3c0 -1 -.3 -1.7 -.9 -2.2c-.6 -.6 -1.4 -.8 -2.4 -.8c-1.2 0 -2.3 .2 -3.5 .8l-.5 -1.4c1.4 -.6 2.8 -.9 4.2 -.9q.1 0 .2 0c1.5 0 2.7 .4 3.5 1.2c.7 .8 1.2 1.9 1.2 3.4v6.9h-1.8V396c-1 1.3 -2.4 2.1 -4.1 2.1Zm77.7 -13.3c-.9 0 -1.6 -.3 -2.1 -.8c-.6 -.6 -1 -1.2 -1.1 -2l1.2 -.3c.2 1 .9 1.6 2 1.6c.9 -.1 1.6 -.5 1.9 -1.6l1.2 .3c-.2 .7 -.5 1.5 -1.1 2c-.6 .5 -1.2 .8 -2 .8ZM342.2 365.9c.8 0 1.5 -.1 2 -.5c.4 -.4 .7 -.8 .7 -1.4c-.1 -.6 -.3 -1 -.8 -1.3c-.5 -.3 -1.2 -.4 -2.1 -.4h-3.6v3.6Zm-37.7 0c.8 0 1.6 -.1 2 -.5c.5 -.4 .8 -.9 .8 -1.6c-.1 -.7 -.3 -1.2 -.8 -1.5c-.5 -.4 -1.1 -.5 -2 -.5h-3v4.1Zm214.9 0c.8 0 1.5 -.1 2 -.5c.4 -.4 .7 -.9 .7 -1.6c0 -.7 -.2 -1.2 -.7 -1.5c-.5 -.4 -1.2 -.5 -2.1 -.5h-3v4.1Zm25.3 -.1c.8 -.1 1.6 -.2 2 -.6c.5 -.4 .8 -.8 .8 -1.5c-.1 -.6 -.3 -1.1 -.8 -1.4c-.5 -.4 -1.2 -.5 -2 -.5h-3.1v4ZM353 366.1c1 -.1 1.9 -.3 2.6 -.8c.7 -.7 1.1 -1.3 1.1 -2.2v-1c-1.1 -.4 -2.2 -.5 -3.3 -.5c-1 0 -1.8 .2 -2.4 .6c-.6 .3 -.8 1 -.8 1.7c-.1 .6 .2 1.2 .8 1.6c.4 .3 1.2 .6 2 .6Zm88.4 0c.9 -.1 1.9 -.3 2.6 -.8c.6 -.7 1.1 -1.3 1.1 -2.2v-1c-1.1 -.4 -2.2 -.5 -3.3 -.5c-1 0 -1.8 .2 -2.4 .6c-.7 .3 -.9 1 -.9 1.7c0 .6 .3 1.2 .8 1.6c.5 .3 1.3 .6 2.1 .6Zm50.8 0c1 -.1 1.9 -.3 2.7 -.8c.6 -.7 1.1 -1.3 1.1 -2.2v-1c-1.1 -.4 -2.2 -.5 -3.3 -.5c-1.1 0 -1.9 .2 -2.4 .6c-.7 .3 -.9 1 -.9 1.7c0 .6 .3 1.2 .8 1.6c.5 .3 1.2 .6 2 .6ZM341.9 360.8c.6 -.1 1.3 -.2 1.7 -.5c.3 -.3 .6 -.7 .6 -1.3c-.1 -.5 -.2 -.8 -.6 -1.1c-.5 -.4 -.9 -.4 -1.7 -.4h-3.5v3.3Zm-64.1 5.5c1.3 0 2.3 -.5 3.1 -1.3c.7 -.9 1.2 -1.9 1.2 -3.2c-.1 -1.3 -.5 -2.3 -1.3 -3.2c-.8 -1 -1.8 -1.3 -3 -1.3c-1.3 0 -2.3 .4 -3 1.3c-.9 .8 -1.2 1.9 -1.2 3.2c0 1.2 .4 2.3 1.2 3.2c.7 .8 1.8 1.3 3 1.3Zm50.1 0c1.2 0 2.2 -.5 3 -1.3c.8 -.9 1.2 -1.9 1.2 -3.2c-.1 -1.3 -.4 -2.3 -1.2 -3.2c-.9 -1 -1.9 -1.3 -3.1 -1.3c-1.3 0 -2.2 .4 -3 1.3c-.9 .8 -1.2 1.9 -1.2 3.2c0 1.2 .4 2.3 1.2 3.2c.8 .8 1.9 1.3 3.1 1.3ZM398 361.1c-.2 -1.1 -.5 -2 -1.1 -2.7c-.7 -.8 -1.5 -1.1 -2.6 -1.1c-1.1 0 -1.9 .3 -2.6 1.1c-.8 .7 -1.1 1.6 -1.2 2.7Zm82 5c1.1 -.1 2.1 -.4 2.9 -1.2c.7 -.9 1.1 -1.9 1.1 -3.2c-.1 -1.3 -.4 -2.4 -1.1 -3.2c-.8 -.9 -1.8 -1.2 -2.9 -1.2c-1.2 0 -2.1 .4 -2.9 1.2c-.9 .8 -1.2 1.9 -1.2 3.2c0 1.2 .4 2.3 1.2 3.2c.7 .7 1.8 1.2 2.9 1.2Zm-247.2 1.2V356h1.7v8.9l6.9 -8.9h1.7v11.3h-1.8v-9l-6.9 9Zm26.2 .1V356h9.9v11.4h-1.7v-9.9h-6.5v9.9Zm26.9 .2c-.5 0 -.9 -.1 -1.4 -.2l.2 -1.5c.2 .1 .6 .2 .8 .2c.3 -.1 .6 0 .8 -.1c.1 -.1 .4 -.3 .7 -.7c.1 -.3 .4 -.8 .5 -1.4c.1 -.8 .3 -1.6 .4 -2.7c0 -1.3 .1 -2.6 .1 -4.3V356h8.1v11.4h-1.7v-9.9h-4.6v.2c0 1.7 -.1 3.3 -.2 4.5c-.2 1.1 -.3 2.2 -.5 2.9c-.2 .6 -.5 1.2 -.9 1.6c-.4 .3 -.7 .6 -1 .7c-.4 .1 -.8 .2 -1.3 .2Zm13.8 -.2V356h1.8v4.3h3c1.3 0 2.4 .3 3.3 .8c.8 .5 1.2 1.5 1.2 2.6c0 1.1 -.4 2.1 -1.2 2.7c-.8 .6 -1.8 1 -3.1 1Zm36.9 0V356h5.6c1.1 0 2.1 .2 2.7 .7c.6 .5 1.1 1.2 1.1 2.1c0 1.1 -.7 2.1 -2 2.6c1.7 .4 2.6 1.4 2.6 2.9c0 .9 -.4 1.7 -1.1 2.3c-.8 .4 -1.8 .8 -3.1 .8Zm25.4 -.1V356h1.8v4.8h6.5V356h1.8v11.3h-1.8v-5h-6.5v5Zm13.6 0V356h1.8v8.9l6.8 -8.9h1.7v11.3h-1.7v-9l-6.9 9Zm26.7 0V356H404l4.2 5.9l4.2 -5.9H414v11.3h-1.7v-8.7l-4.1 5.8l-4.1 -5.8v8.7Zm21.9 0V356h1.7v4.8h6.6V356h1.7v11.3h-1.7v-5h-6.6v5Zm28.8 .1v-9.9h-3.9V356H459v1.5h-4.2v9.9Zm9.9 3.5c-.8 0 -1.6 -.2 -2.4 -.5l.6 -1.4c.5 .3 1.1 .4 1.8 .4c.4 0 .9 -.1 1.3 -.4c.2 -.4 .7 -.9 1 -1.7L460 356h1.9l4.2 9.4l3.6 -9.4h1.8l-4.8 11.7c-.5 1.1 -1 2 -1.6 2.5c-.6 .4 -1.3 .7 -2.2 .7Zm37.9 -3.3c-.5 0 -.9 -.1 -1.4 -.2l.2 -1.5c.2 .1 .6 .2 .8 .2c.3 -.1 .6 0 .8 -.1c.1 -.1 .4 -.3 .7 -.7c.1 -.3 .4 -.8 .5 -1.4c.1 -.8 .3 -1.6 .4 -2.7c0 -1.3 .1 -2.6 .1 -4.3V356H511v11.4h-1.8v-9.9h-4.5v.2c-.1 1.7 -.1 3.3 -.2 4.5c-.3 1.1 -.3 2.2 -.6 2.9c-.2 .6 -.4 1.2 -.8 1.6c-.4 .3 -.7 .6 -1.1 .7c-.3 .1 -.7 .2 -1.2 .2Zm13.8 -.2V356h1.7v4.3h3.1c1.3 0 2.4 .3 3.2 .8c.8 .5 1.3 1.5 1.3 2.6c0 1.1 -.4 2.1 -1.2 2.7c-.8 .6 -1.8 1 -3.1 1Zm11.7 -.1V356H528v4.8h6.6V356h1.8v11.3h-1.8v-5H528v5Zm13.6 0V356h1.7v4.3h3.1c1.3 0 2.4 .3 3.2 .8c.9 .5 1.3 1.4 1.3 2.5c0 1.1 -.4 2 -1.2 2.7c-.8 .6 -1.8 1 -3.1 1Zm11.3 0V356H553v11.3Zm4.2 0l4.5 -5.8L555.6 356h1.9l3.4 4.3l3.4 -4.3h1.9l-4.3 5.5l4.5 5.8h-2l-3.5 -4.6l-3.6 4.6Zm-303.7 .5c-1.7 -.1 -3 -.6 -4.1 -1.8c-1.2 -1.2 -1.7 -2.6 -1.7 -4.2c0 -1.7 .5 -3.1 1.7 -4.2c1.1 -1.3 2.5 -1.8 4.1 -1.8c.1 0 .2 0 .2 0c1.7 0 3.2 .7 4.4 2l-1.1 1.2c-1 -1.2 -2.2 -1.7 -3.5 -1.7c-1.2 0 -2.1 .4 -2.9 1.3c-.9 .8 -1.2 1.9 -1.2 3.2c0 1.2 .4 2.3 1.2 3.2c.7 .8 1.8 1.3 3 1.3c1.2 0 2.4 -.6 3.5 -1.8l1.1 1.1c-1.4 1.3 -2.9 2.2 -4.7 2.2Zm142.8 0c-1.6 -.1 -3 -.6 -4.1 -1.7c-1.1 -1.2 -1.7 -2.6 -1.7 -4.3c0 -1.7 .6 -3.1 1.6 -4.3c1 -1.2 2.4 -1.7 4 -1.7q.1 0 .2 0c1.5 0 2.8 .6 3.8 1.8c.9 1 1.4 2.6 1.4 4.4c-.1 .2 0 .4 0 .6h-9.2c.1 1.1 .6 2 1.3 2.7c.8 .6 1.7 1 2.8 1c1.3 0 2.6 -.5 3.6 -1.6l1.1 .9c-1.4 1.4 -2.9 2.2 -4.8 2.2Zm-116.7 0c-1.8 -.1 -3.1 -.6 -4.3 -1.8c-1.1 -1.2 -1.7 -2.6 -1.7 -4.2c0 -1.7 .6 -3.1 1.8 -4.2c1.1 -1.3 2.5 -1.8 4.2 -1.8c.1 0 .2 0 .2 0c1.6 0 3 .6 4.1 1.7c1 1.1 1.7 2.6 1.7 4.3c-.1 1.6 -.6 3 -1.7 4.2c-1.3 1.2 -2.6 1.8 -4.3 1.8Zm50 0c-1.8 -.1 -3.1 -.6 -4.2 -1.8c-1.2 -1.2 -1.7 -2.6 -1.7 -4.2c0 -1.7 .5 -3.1 1.7 -4.2c1.1 -1.3 2.6 -1.8 4.3 -1.8c0 0 .1 0 .2 0c1.6 0 2.9 .6 4 1.7c1.1 1.1 1.7 2.6 1.7 4.3c-.1 1.6 -.5 3 -1.7 4.2c-1.2 1.2 -2.6 1.8 -4.3 1.8Zm146.3 3.1V356h1.8v2.3c1.1 -1.7 2.6 -2.5 4.4 -2.5c0 0 .1 0 .2 0c1.3 0 2.6 .6 3.6 1.6c1.1 1 1.7 2.5 1.7 4.3c-.1 1.7 -.6 3.2 -1.7 4.3c-1.1 1 -2.3 1.6 -3.8 1.6c-1.9 0 -3.3 -.8 -4.4 -2.4v5.7ZM352.7 367.6c-1.3 0 -2.2 -.3 -3 -1c-1 -.6 -1.3 -1.5 -1.3 -2.7c0 -1.3 .5 -2.1 1.3 -2.8c.8 -.7 2.1 -1 3.6 -1c.1 0 .2 0 .3 0c1 0 2.1 .2 3.1 .6v-.4c0 -1 -.3 -1.7 -.8 -2.2c-.7 -.6 -1.4 -.8 -2.5 -.8c-1.2 0 -2.3 .2 -3.4 .8l-.6 -1.4c1.5 -.6 2.9 -.9 4.2 -.9c.1 0 .2 0 .2 0c1.5 0 2.7 .5 3.5 1.2c.7 .8 1.2 2 1.2 3.4v6.9h-1.8v-1.8c-1 1.3 -2.3 2.1 -4 2.1Zm88.3 0c-1.2 0 -2.1 -.3 -3 -1c-.9 -.6 -1.2 -1.5 -1.2 -2.7c0 -1.3 .4 -2.1 1.3 -2.8c.8 -.7 2 -1 3.5 -1c.1 0 .2 0 .4 0c1 0 2.1 .2 3.1 .6v-.4c0 -1 -.3 -1.7 -.9 -2.2c-.6 -.6 -1.4 -.8 -2.5 -.8c-1.2 0 -2.2 .2 -3.4 .8l-.5 -1.4c1.4 -.6 2.8 -.9 4.2 -.9c0 0 .1 0 .2 0c1.5 0 2.7 .5 3.4 1.2c.8 .8 1.2 2 1.2 3.4v6.9h-1.7v-1.8c-1 1.3 -2.4 2.1 -4.1 2.1Zm50.9 0c-1.3 0 -2.2 -.3 -3 -1c-.9 -.6 -1.3 -1.5 -1.3 -2.7c0 -1.3 .5 -2.1 1.4 -2.8c.7 -.7 2 -1 3.5 -1c.1 0 .2 0 .3 0c1 0 2.1 .2 3.2 .6v-.4c0 -1 -.3 -1.7 -.9 -2.2c-.6 -.6 -1.4 -.8 -2.5 -.8c-1.2 0 -2.2 .2 -3.4 .8l-.5 -1.4c1.4 -.6 2.8 -.9 4.1 -.9c.1 0 .2 0 .3 0c1.4 0 2.6 .5 3.4 1.2c.7 .8 1.2 2 1.2 3.4v6.9H496v-1.8c-1.1 1.3 -2.4 2.1 -4.1 2.1Zm-177 .2c-1.8 -.1 -3.4 -.6 -4.8 -1.7l.9 -1.3c1.1 .9 2.5 1.5 3.9 1.5c.7 0 1.4 -.2 2 -.6c.5 -.4 .8 -.8 .8 -1.4c0 -.6 -.2 -1 -.7 -1.4c-.6 -.4 -1.3 -.5 -2.2 -.5h-1.6v-1.5h1.6c.7 0 1.4 -.1 1.9 -.5c.4 -.4 .7 -.8 .7 -1.4c0 -.5 -.2 -.9 -.7 -1.2c-.6 -.4 -1.1 -.5 -1.8 -.5c-1.4 0 -2.6 .4 -3.5 1.1l-.9 -1.2c1.2 -1 2.8 -1.4 4.5 -1.4c.1 0 .2 0 .2 0c1.1 0 2.1 .3 2.8 .9c.7 .5 1.1 1.3 1.1 2.2c0 1.1 -.6 2.1 -1.8 2.6c1.4 .4 2.2 1.5 2.2 2.8c0 1 -.4 1.8 -1.3 2.5c-.9 .6 -1.9 1 -3.3 1Zm143.8 -31v-3.6h3.6v3.6ZM292 334.8c.7 0 1.4 -.2 1.9 -.6c.3 -.5 .7 -1 .7 -1.6v-.7c-.7 -.3 -1.3 -.4 -2.1 -.4c-.8 0 -1.3 .1 -1.7 .4c-.5 .3 -.6 .8 -.6 1.3c-.1 .5 .2 .9 .5 1.2c.3 .2 .8 .4 1.3 .4Zm28.1 -.7c1.1 0 1.8 -.4 1.8 -1.4c0 -.5 -.2 -.7 -.5 -.9c-.3 -.2 -.7 -.3 -1.3 -.3h-2.2v2.6Zm26 0c1.1 0 1.7 -.4 1.7 -1.4c0 -.5 -.1 -.7 -.4 -.9c-.4 -.2 -.8 -.3 -1.3 -.3h-2.3v2.6Zm76.4 .7c.7 0 1.4 -.2 1.9 -.6c.3 -.5 .7 -1 .7 -1.6v-.7c-.6 -.3 -1.3 -.4 -2.1 -.4c-.8 0 -1.3 .1 -1.7 .4c-.5 .3 -.6 .8 -.6 1.3c-.1 .5 .2 .9 .5 1.2c.3 .2 .8 .4 1.3 .4Zm151.7 .6c.8 0 1.6 -.1 2.1 -.5c.4 -.4 .7 -.9 .7 -1.6c-.1 -.7 -.3 -1.2 -.8 -1.5c-.5 -.3 -1.1 -.5 -2 -.5h-3v4.1ZM509.6 331v-1.8h6.2V331Zm-123.2 3.1v-6.3h-3v.2c-.1 2.6 -.3 4.7 -.9 6.1Zm115 1.7c1.2 0 2.3 -.5 3.1 -1.3c.7 -.9 1.1 -1.9 1.1 -3.2c0 -1.3 -.4 -2.3 -1.2 -3.2c-.8 -1 -1.8 -1.3 -3 -1.3c-1.4 0 -2.3 .4 -3 1.3c-.9 .8 -1.2 1.9 -1.2 3.2c-.1 1.2 .4 2.3 1.2 3.2c.7 .8 1.8 1.3 3 1.3Zm-17 1V325.5h1.7V332l6.3 -6.5h2.1l-4.8 4.9l5 6.4h-2.1l-4 -5.2l-2.5 2.4v2.8Zm49.7 .1V327h-4v-1.5h10V327h-4.2v9.9Zm8.2 -.1V325.5h1.8v8.9l6.8 -8.9h1.7v11.3h-1.7v-9l-6.9 9Zm13.3 .3c-.5 0 -.9 -.1 -1.4 -.2l.2 -1.4c.2 .1 .6 .1 .8 .1c.3 0 .6 0 .8 -.1c.1 -.1 .4 -.3 .7 -.7c.1 -.3 .4 -.8 .6 -1.4c0 -.7 .2 -1.6 .3 -2.7c0 -1.3 .1 -2.6 .1 -4.3v-.9h8.1v11.4h-1.7V327h-4.6v.2c0 1.7 -.1 3.3 -.2 4.5c-.2 1.1 -.3 2.2 -.5 2.9c-.2 .6 -.5 1.2 -.9 1.6c-.4 .4 -.7 .6 -1 .7c-.4 .1 -.8 .2 -1.3 .2Zm13.8 -.2V325.5h1.8v4.3h3c1.3 0 2.4 .3 3.3 .8c.8 .5 1.2 1.5 1.2 2.6c0 1.1 -.4 2.1 -1.2 2.7c-.8 .7 -1.8 1 -3.1 1Zm-45.2 .4c-1.7 -.1 -3 -.6 -4.2 -1.8c-1.1 -1.2 -1.7 -2.6 -1.7 -4.2c0 -1.7 .6 -3.1 1.7 -4.2c1.2 -1.3 2.6 -1.8 4.2 -1.8q.1 0 .2 0c1.6 0 3.2 .7 4.4 2l-1.1 1.2c-1.1 -1.1 -2.2 -1.7 -3.5 -1.7c-1.2 0 -2.1 .4 -2.9 1.3c-.9 .8 -1.2 1.9 -1.2 3.2c0 1.2 .4 2.3 1.2 3.2c.7 .8 1.8 1.3 3 1.3c1.1 0 2.4 -.6 3.5 -1.8l1.1 1.1c-1.4 1.3 -2.9 2.2 -4.7 2.2Zm68.6 0c-1.8 -.1 -3.1 -.6 -4.2 -1.8c-1.2 -1.2 -1.7 -2.6 -1.7 -4.2c0 -1.7 .5 -3.1 1.7 -4.2c1.1 -1.3 2.5 -1.8 4.2 -1.8c0 0 .1 0 .1 0c1.7 0 3.2 .7 4.4 2l-1 1.2c-1.1 -1.1 -2.3 -1.7 -3.6 -1.7c-1.2 0 -2.1 .4 -2.9 1.3c-.9 .8 -1.2 1.9 -1.2 3.2c0 1.2 .4 2.3 1.2 3.2c.7 .8 1.8 1.3 3 1.3c1.2 0 2.4 -.6 3.5 -1.8l1.1 1.1c-1.4 1.3 -2.9 2.2 -4.6 2.2Zm-117.4 0c-1.1 -.1 -1.9 -.2 -2.7 -.6c-.7 -.4 -1.4 -.9 -2 -1.7l1.2 -1c1 1.1 2.2 1.8 3.4 1.8c1.1 0 2 -.4 2.8 -1.1c.8 -.8 1.3 -1.7 1.4 -2.7h-5.2v-1.5h5.2c-.2 -1.1 -.6 -1.9 -1.4 -2.6c-.8 -.8 -1.6 -1.1 -2.7 -1.1c-1.3 0 -2.5 .6 -3.5 1.7l-1 -1.1c1.1 -1.5 2.7 -2.1 4.6 -2.1q.1 0 .2 0c1.5 0 2.9 .6 3.9 1.8c1.1 1.1 1.7 2.6 1.7 4.2c0 1.6 -.6 3.1 -1.7 4.2c-1.3 1.2 -2.6 1.8 -4.2 1.8Zm26 0c-1.8 -.1 -3.1 -.6 -4.3 -1.8c-1.1 -1.2 -1.7 -2.6 -1.7 -4.2c0 -1.7 .6 -3.1 1.7 -4.2c1.2 -1.3 2.6 -1.8 4.3 -1.8c.1 0 .2 0 .2 0c1.6 0 3 .6 4.1 1.7c1 1.1 1.7 2.6 1.7 4.3c-.1 1.6 -.6 3 -1.7 4.2c-1.3 1.2 -2.6 1.8 -4.3 1.8Zm-42.7 -8.9v-3.5h3.6v3.5Zm-211.4 8.4v-12h3.3v4.4h4.3v-4.4h3.3v12h-3.3v-4.7h-4.3v4.7Zm13.6 0v-12h3.4v7l4.4 -7h3.2v12h-3.3v-7l-4.4 7Zm13.9 0v-12h3.3v4.9l4.3 -4.9h3.8l-4.3 4.9l4.9 7.1h-4l-3.1 -4.6l-1.6 1.7v2.9Zm26 .3c-.7 -.1 -1.2 -.1 -1.7 -.2l.2 -2.9c0 0 .1 0 .1 0c.2 0 .4 .1 .6 .1c.3 0 .7 -.1 .9 -.2c.2 -.2 .4 -.6 .6 -1.2c.2 -.7 .3 -1.6 .3 -2.8c0 -1.3 0 -3 0 -5.1h9.6v12.1h-3.3v-9.1h-3c-.1 1.5 0 2.9 -.1 4c-.2 1.1 -.3 2 -.5 2.7c-.4 .7 -.5 1.2 -.9 1.6c-.4 .3 -.8 .6 -1.2 .8c-.5 .1 -1 .2 -1.6 .2Zm13.8 -.3v-12h3.3v4h2.5c1.4 0 2.6 .3 3.5 1c.9 .7 1.3 1.6 1.3 2.9c-.1 1.2 -.4 2.3 -1.2 3c-.8 .6 -1.9 1.1 -3.4 1.1Zm12.2 0v-12h3.4v4.4h4.3v-4.4h3.3v12h-3.3v-4.7h-4.3v4.7Zm13.7 0v-12h3.3v4h2.5c1.4 0 2.7 .3 3.5 1c.9 .7 1.4 1.6 1.4 2.9c-.2 1.2 -.4 2.3 -1.3 3c-.8 .6 -1.9 1.1 -3.3 1.1Zm12.3 0v-12h3.4v12Zm6 0v-12h3.3v7l4.5 -7h3.2v12h-3.3v-7l-4.5 7Zm18.8 3v-5.7h1.3c.8 -1.7 1.2 -4.4 1.2 -8.2v-1.1h9.6v9.3h1.7l-.4 5.7h-2.8v-2.7h-7.4l-.3 2.7Zm15.6 -3v-12h3.3v7l4.4 -7h3.3v12h-3.4v-7l-4.4 7Zm38.1 0v-12h3.3v7l4.5 -7h3.2v12H439v-7l-4.5 7Zm13.9 0v-12h3.3v4.4h4.3v-4.4h3.3v12h-3.3v-4.7h-4.3v4.7ZM291 337.1c-1.2 0 -2.2 -.3 -2.9 -1c-.9 -.7 -1.2 -1.6 -1.2 -2.8c0 -1.3 .4 -2.2 1.3 -2.9c.8 -.7 2 -.9 3.5 -.9c.9 0 1.9 .1 2.9 .4v-.2c0 -1.5 -.9 -2.1 -2.6 -2.1c0 0 -.1 0 -.2 0c-1 0 -1.9 .2 -3 .6l-.9 -2.6c1.5 -.7 3 -1 4.7 -1q.1 0 .2 0c1.7 0 2.9 .5 3.8 1.4c.8 .8 1.3 2.1 1.3 3.9v7h-3.3v-1.3c-.9 1 -2.1 1.5 -3.6 1.5Zm130.5 0c-1.2 0 -2.1 -.3 -2.9 -1c-.9 -.7 -1.2 -1.6 -1.2 -2.8c0 -1.3 .4 -2.2 1.3 -2.9c.8 -.7 2 -.9 3.5 -.9c.9 0 1.9 .1 2.9 .4v-.2c0 -1.5 -.9 -2.1 -2.6 -2.1c0 0 -.1 0 -.2 0c-.9 0 -1.9 .2 -3 .6l-.8 -2.6c1.4 -.7 2.9 -1 4.6 -1c.1 0 .2 0 .2 0c1.7 0 3 .5 3.8 1.4c.8 .8 1.3 2.1 1.3 3.9v7h-3.3v-1.3c-.9 1 -2.1 1.5 -3.6 1.5Zm-10.3 0c-2.3 0 -4.1 -.6 -5.5 -1.9l1.6 -2.2c1 .9 2.2 1.4 3.6 1.4c.4 0 .9 -.1 1.3 -.3c.3 -.4 .5 -.6 .5 -1c0 -.5 -.2 -.7 -.5 -.9c-.4 -.3 -.9 -.4 -1.6 -.4h-1.4v-2h1.4c.5 0 1 -.1 1.3 -.4c.2 -.3 .5 -.5 .5 -.9c0 -.3 -.2 -.6 -.5 -.9c-.4 -.2 -.7 -.3 -1.1 -.3c-.1 0 -.2 0 -.2 0c-1.2 0 -2.2 .5 -3.1 1.3l-1.4 -2.1c1.3 -1.3 3 -1.9 5 -1.9c.1 0 .2 0 .3 0c1.1 0 2.2 .4 3 1c.8 .6 1.3 1.4 1.3 2.3c-.1 1.2 -.6 2.2 -1.8 2.7c1.3 .5 2.1 1.5 2.1 2.8c-.1 1 -.4 1.9 -1.4 2.7c-1 .6 -2 1 -3.4 1Zm-175.6 0c-1.2 0 -2.3 -.3 -3.3 -.9l1.3 -2.6c.5 .3 1.2 .6 1.8 .6c.7 -.1 1.4 -.5 2 -1.3l-6.2 -11.8H235l4.2 8.4l3.7 -8.4h3.7l-5.9 12.2c-.8 1.3 -1.4 2.3 -2.2 2.9c-.9 .6 -1.8 .9 -2.9 .9ZM364.4 323.5c-1.1 0 -1.8 -.3 -2.5 -.9c-.7 -.7 -1 -1.5 -1.1 -2.6l1.9 -.4c.2 1 .9 1.5 1.7 1.5c.7 0 1.4 -.5 1.7 -1.5l1.9 .4c-.2 1 -.5 1.9 -1.1 2.6c-.7 .5 -1.5 .9 -2.5 .9Zm72.5 0c-1.1 0 -1.8 -.3 -2.5 -.9c-.6 -.7 -1 -1.5 -1.1 -2.6l1.9 -.4c.2 1 .9 1.5 1.7 1.5c.7 0 1.4 -.5 1.7 -1.5l2 .4c-.3 1 -.6 1.9 -1.2 2.6c-.7 .5 -1.5 .9 -2.5 .9Z"/></clipPath>
<clipPath id="c5_24"><path d="M482.4 580.7v-2.3h2v2.3ZM337.6 579.4c.8 0 1.5 -.2 2 -.5c.4 -.4 .7 -.8 .7 -1.4c-.1 -.6 -.3 -1 -.8 -1.3c-.5 -.4 -1.2 -.5 -2.1 -.5h-3.6v3.7Zm10.8 .1c1 0 1.9 -.2 2.7 -.8c.6 -.7 1 -1.3 1 -2.1v-1.1c-1.1 -.3 -2.2 -.4 -3.2 -.4c-1.1 0 -1.9 .2 -2.5 .6c-.6 .3 -.8 .9 -.8 1.6c-.1 .6 .2 1.2 .8 1.6c.5 .4 1.2 .6 2 .6Zm-11.1 -5.3c.6 0 1.3 -.1 1.7 -.4c.3 -.4 .6 -.8 .6 -1.3c-.1 -.5 -.2 -.9 -.6 -1.2c-.5 -.3 -.9 -.4 -1.7 -.4h-3.5v3.3Zm-84.9 5.3c1.1 0 2.1 -.4 2.9 -1.2c.7 -.9 1.1 -1.9 1.1 -3.1c-.1 -1.2 -.4 -2.2 -1.2 -3c-.8 -.9 -1.7 -1.3 -2.9 -1.3c0 0 -.1 0 -.1 0c-1.2 0 -2 .5 -2.8 1.2c-.8 .9 -1.1 1.9 -1.1 3.1c0 1.2 .4 2.2 1.2 3.1c.7 .7 1.7 1.2 2.9 1.2Zm-14.3 .2c1.2 0 2.2 -.4 3 -1.3c.8 -.9 1.2 -1.9 1.2 -3.2c-.1 -1.3 -.4 -2.3 -1.2 -3.2c-.8 -.9 -1.8 -1.3 -3 -1.3c-1.4 0 -2.3 .5 -3.1 1.3c-.8 .8 -1.2 2 -1.2 3.2c0 1.2 .5 2.3 1.3 3.2c.7 .9 1.8 1.3 3 1.3Zm156.7 -.2c1.2 0 2.1 -.4 2.8 -1.2c.7 -.9 1.1 -1.9 1.1 -3.2c-.1 -1.2 -.4 -2.3 -1.1 -3.1c-.8 -.9 -1.7 -1.3 -2.8 -1.3c-1.3 0 -2.2 .5 -2.9 1.3c-.7 .7 -1 1.9 -1 3.1c0 1.3 .3 2.3 1.1 3.2c.6 .7 1.6 1.2 2.8 1.2Zm29.6 .2c1.2 0 2.2 -.4 3 -1.3c.8 -.9 1.2 -1.9 1.2 -3.2c-.1 -1.3 -.4 -2.3 -1.2 -3.2c-.9 -.9 -1.9 -1.3 -3.1 -1.3c-1.3 0 -2.2 .5 -3 1.3c-.9 .8 -1.2 2 -1.2 3.2c0 1.2 .4 2.3 1.2 3.2c.8 .9 1.9 1.3 3.1 1.3Zm40.2 -5.1c-.2 -1.2 -.5 -2.1 -1.2 -2.8c-.6 -.7 -1.5 -1.1 -2.5 -1.1c-1.1 0 -1.9 .4 -2.6 1.1c-.8 .7 -1.1 1.6 -1.2 2.8ZM273 581c-.6 0 -1 0 -1.5 -.1l.2 -1.5c.3 .1 .7 .1 .9 .1c.2 0 .6 0 .8 -.1c.1 -.1 .4 -.3 .6 -.6c.2 -.4 .5 -.9 .6 -1.5c.1 -.7 .2 -1.5 .3 -2.7c.1 -1.2 .2 -2.6 .2 -4.2v-1h8.1v11.5h-1.8v-10h-4.6v.3c0 1.7 0 3.2 -.2 4.4c-.2 1.2 -.3 2.2 -.5 2.9c-.2 .7 -.5 1.2 -.8 1.6c-.4 .4 -.7 .7 -1.1 .8c-.4 0 -.7 .1 -1.2 .1Zm15.4 3.4c-.8 0 -1.6 -.2 -2.4 -.6l.6 -1.3c.5 .2 1.1 .4 1.8 .4c.4 -.1 .9 -.2 1.3 -.5c.2 -.3 .7 -.9 1 -1.7l-5.2 -11.3h1.9l4.2 9.5l3.6 -9.5H297l-4.8 11.8c-.5 1.1 -1 1.9 -1.6 2.4c-.6 .4 -1.3 .8 -2.2 .8Zm9.8 -3.7l4.7 -6.5l-4.5 -4.8h2.1l5.8 6.6v-6.6H308V576l5.9 -6.6h2l-4.4 4.8l4.7 6.5h-2l-3.8 -5.3L308 578v2.7h-1.7V578L304 575.4l-3.9 5.3Zm20.1 0V569.4H320v8.9l6.9 -8.9h1.7v11.3h-1.8v-8.9l-6.8 8.9Zm13.8 .2V569.4h5.5c1.1 0 2.1 .3 2.7 .8c.6 .4 1.1 1.2 1.1 2c0 1.2 -.7 2.1 -2 2.7c1.7 .4 2.6 1.4 2.6 2.8c0 1 -.4 1.8 -1.1 2.3c-.8 .5 -1.8 .9 -3.1 .9Zm25.3 -.2V569.4h1.8v4.8h6.6v-4.8h1.7v11.3h-1.7v-5h-6.6v5Zm13.7 0V569.4h1.7v8.9l6.9 -8.9h1.7v11.3h-1.8v-8.9l-6.9 8.9Zm38.6 .2V569.4h7.8v1.5h-6.1v10Zm38.5 0v-10h-4v-1.5h10v1.5H450v10Zm20.7 -.2V569.4h1.8v8.9l6.8 -8.9h1.7v11.3h-1.7v-8.9l-6.9 8.9Zm-202.7 .5c-1.7 0 -3.1 -.6 -4.2 -1.8c-1.1 -1.2 -1.7 -2.5 -1.7 -4.2c0 -1.7 .6 -3 1.7 -4.2c1.1 -1.3 2.5 -1.8 4.2 -1.8q.1 0 .2 0c1.6 0 3.1 .8 4.4 2.1l-1.1 1.1c-1.1 -1.1 -2.2 -1.7 -3.5 -1.7c-1.2 0 -2.2 .5 -2.9 1.3c-.9 .8 -1.2 2 -1.2 3.2c-.1 1.2 .4 2.3 1.2 3.2c.7 .9 1.8 1.3 3 1.3c1.1 0 2.4 -.6 3.4 -1.7l1.2 1c-1.4 1.4 -2.9 2.2 -4.7 2.2Zm172.1 0c-1.7 0 -3 -.6 -4.1 -1.8c-1.2 -1.2 -1.7 -2.5 -1.7 -4.2c0 -1.7 .5 -3 1.7 -4.2c1.1 -1.3 2.5 -1.8 4.1 -1.8c.1 0 .2 0 .2 0c1.7 0 3.2 .8 4.4 2.1l-1.1 1.1c-1 -1.1 -2.2 -1.7 -3.5 -1.7c-1.2 0 -2.1 .5 -2.9 1.3c-.9 .8 -1.2 2 -1.2 3.2c0 1.2 .4 2.3 1.2 3.2c.7 .9 1.8 1.3 3 1.3c1.2 0 2.4 -.6 3.5 -1.7l1.1 1c-1.4 1.4 -2.9 2.2 -4.7 2.2Zm22.8 0c-1.7 0 -3 -.5 -4.1 -1.7c-1.1 -1.1 -1.7 -2.5 -1.7 -4.3c0 -1.7 .6 -3.1 1.6 -4.2c1 -1.3 2.4 -1.8 4 -1.8q.1 0 .2 0c1.5 0 2.8 .7 3.7 1.8c.9 1.1 1.5 2.7 1.5 4.4c-.1 .3 0 .5 0 .7h-9.2c.1 1.1 .5 2 1.3 2.6c.8 .7 1.7 1 2.8 1c1.3 0 2.6 -.5 3.6 -1.5l1.1 .9c-1.4 1.4 -2.9 2.1 -4.8 2.1Zm-223.1 0c-1.8 0 -3.1 -.6 -4.2 -1.7c-1.1 -1.2 -1.7 -2.6 -1.7 -4.3c0 -1.7 .6 -3 1.7 -4.2c1.1 -1.3 2.6 -1.8 4.3 -1.8q.1 0 .2 0c1.6 0 3 .7 4.1 1.8c1 1.1 1.7 2.6 1.7 4.2c-.1 1.6 -.6 3.1 -1.8 4.2c-1.2 1.2 -2.5 1.8 -4.3 1.8Zm186.3 0c-1.8 0 -3.1 -.6 -4.2 -1.7c-1.2 -1.2 -1.7 -2.6 -1.7 -4.3c0 -1.7 .5 -3 1.7 -4.2c1.1 -1.3 2.6 -1.8 4.3 -1.8c0 0 .1 0 .2 0c1.6 0 2.9 .7 4 1.8c1.1 1.1 1.7 2.6 1.7 4.2c-.1 1.6 -.5 3.1 -1.7 4.2c-1.2 1.2 -2.6 1.8 -4.3 1.8ZM394.7 581c-1.6 0 -2.8 -.5 -3.8 -1.5c-1.1 -1 -1.6 -2.3 -1.8 -3.8h-2.5v5h-1.8V569.4h1.8v4.8h2.5c.1 -1.5 .8 -2.6 1.8 -3.5c1 -1.1 2.3 -1.5 3.9 -1.5c0 0 .1 0 .2 0c1.5 0 2.9 .7 3.9 1.7c1 1.1 1.6 2.6 1.6 4.2c-.2 1.6 -.6 3.1 -1.6 4.2c-1.1 1.1 -2.5 1.7 -4.2 1.7Zm-46.6 0c-1.3 0 -2.2 -.3 -3 -.9c-.9 -.7 -1.3 -1.6 -1.3 -2.7c0 -1.4 .5 -2.2 1.3 -2.8c.8 -.8 2.1 -1 3.6 -1c.1 0 .2 0 .3 0c1 0 2.1 .2 3.1 .5v-.3c0 -1 -.2 -1.8 -.8 -2.3c-.7 -.5 -1.4 -.8 -2.5 -.8c-1.2 0 -2.2 .3 -3.4 .8l-.5 -1.3c1.4 -.7 2.8 -1 4.1 -1c.1 0 .2 0 .3 0c1.4 0 2.6 .5 3.4 1.3c.7 .8 1.2 1.9 1.2 3.3v7h-1.8V579c-1 1.3 -2.3 2 -4 2Zm-95.8 0c-1.8 0 -3.1 -.5 -4.2 -1.7c-1.1 -1.2 -1.6 -2.7 -1.6 -4.7c0 -.8 0 -1.4 0 -1.9c0 -.5 .1 -1 .2 -1.7c0 -.7 .2 -1.1 .4 -1.6c.1 -.4 .4 -.8 .7 -1.3c.2 -.4 .7 -.8 1.2 -1.1c.5 -.4 1.1 -.5 1.7 -.6l6.5 -1.5l.3 1.4l-6.2 1.5c-1.2 .3 -2 .8 -2.5 1.5c-.6 .6 -.7 1.5 -.8 2.7c.9 -1.8 2.5 -2.6 4.7 -2.6c1.4 0 2.8 .6 3.9 1.7c1 1.1 1.6 2.4 1.6 4c-.1 1.6 -.6 3.1 -1.7 4.2c-1.2 1.1 -2.5 1.7 -4.2 1.7ZM474 567.7c-.9 0 -1.5 -.2 -2.1 -.7c-.6 -.6 -.9 -1.2 -1 -2.1l1.1 -.2c.3 .9 1 1.5 2 1.5c1 0 1.7 -.5 2 -1.5l1.1 .2c-.2 .8 -.4 1.5 -1 2.1c-.7 .4 -1.3 .7 -2.1 .7ZM356.9 552.9l-.3 -.8c1 -.4 1.5 -.9 1.5 -1.7v-.2h-.8v-2.3h2.1v2c-.1 .9 -.2 1.6 -.6 2c-.5 .5 -1 .8 -1.9 1Zm-31.1 -4c.7 0 1.5 -.2 1.9 -.5c.5 -.4 .8 -.8 .8 -1.4c-.1 -.6 -.3 -1 -.8 -1.3c-.5 -.4 -1.2 -.5 -2.1 -.5H322v3.7Zm107.8 0c.8 0 1.5 -.2 2 -.5c.4 -.4 .7 -.8 .7 -1.4c-.1 -.6 -.3 -1 -.8 -1.3c-.5 -.4 -1.2 -.5 -2.1 -.5h-3.6v3.7Zm-95.8 0c.8 0 1.6 -.2 2 -.6c.5 -.4 .8 -.9 .8 -1.6c-.1 -.7 -.3 -1.1 -.8 -1.5c-.5 -.3 -1.1 -.5 -2 -.5h-3v4.2Zm121.5 -.2c.8 0 1.5 -.2 2 -.5c.4 -.5 .7 -.9 .7 -1.5c-.1 -.7 -.2 -1.1 -.7 -1.5c-.6 -.3 -1.2 -.5 -2.1 -.5h-3v4Zm-187.6 .2v-8.5h-4.5V542c-.1 2.9 -.5 5.2 -1.5 6.9Zm53.8 -5.2c.6 0 1.3 -.1 1.7 -.4c.3 -.3 .6 -.8 .6 -1.3c-.1 -.5 -.2 -.9 -.6 -1.2c-.5 -.3 -1 -.4 -1.7 -.4H322v3.3Zm51.1 5.2v-8.5H372V542c0 2.9 -.5 5.2 -1.4 6.9Zm56.7 -5.2c.6 0 1.3 -.1 1.7 -.4c.3 -.3 .6 -.8 .6 -1.3c-.1 -.5 -.2 -.9 -.6 -1.2c-.5 -.3 -.9 -.4 -1.6 -.4h-3.6v3.3Zm92.7 5.2v-8.5h-4.6V542c0 2.9 -.4 5.2 -1.4 6.9Zm39.1 0v-8.5h-4.6V542c0 2.9 -.5 5.2 -1.4 6.9Zm-327 .3c1.2 0 2.2 -.4 3 -1.3c.8 -.8 1.2 -1.9 1.2 -3.2c-.1 -1.3 -.4 -2.3 -1.2 -3.1c-.8 -1 -1.8 -1.4 -3 -1.4c-1.4 0 -2.3 .5 -3.1 1.3c-.8 .8 -1.2 2 -1.2 3.2c0 1.2 .5 2.3 1.3 3.2c.7 .9 1.8 1.3 3 1.3Zm44.8 0c1.2 0 2.2 -.4 3 -1.3c.8 -.8 1.2 -1.9 1.2 -3.2c-.1 -1.3 -.4 -2.3 -1.2 -3.1c-.9 -1 -1.9 -1.4 -3.1 -1.4c-1.3 0 -2.2 .5 -3 1.3c-.9 .8 -1.2 2 -1.2 3.2c0 1.2 .4 2.3 1.2 3.2c.8 .9 1.9 1.3 3.1 1.3Zm14.6 -.1c1.1 -.1 2.1 -.4 2.9 -1.2c.7 -.9 1.1 -1.9 1.1 -3.3c-.1 -1.3 -.4 -2.3 -1.1 -3.1c-.9 -.9 -1.8 -1.3 -2.9 -1.3c-1.2 0 -2.1 .5 -2.9 1.3c-.9 .7 -1.2 1.9 -1.2 3.2c0 1.2 .4 2.3 1.2 3.1c.7 .8 1.8 1.3 2.9 1.3Zm14 .1c1.2 0 2.2 -.4 3 -1.3c.8 -.8 1.2 -1.9 1.2 -3.2c-.1 -1.3 -.4 -2.3 -1.2 -3.1c-.9 -1 -1.9 -1.4 -3.1 -1.4c-1.3 0 -2.2 .5 -3 1.3c-.9 .8 -1.2 2 -1.2 3.2c0 1.2 .4 2.3 1.2 3.2c.8 .9 1.9 1.3 3.1 1.3Zm41.8 -5.1c-.2 -1.2 -.5 -2 -1.1 -2.8c-.7 -.7 -1.5 -1.1 -2.6 -1.1c-1.1 0 -1.9 .4 -2.6 1.1c-.8 .7 -1.1 1.7 -1.2 2.8Zm70.4 0c-.2 -1.2 -.5 -2 -1.1 -2.8c-.7 -.7 -1.5 -1.1 -2.6 -1.1c-1 0 -1.8 .4 -2.5 1.1c-.8 .7 -1.1 1.7 -1.3 2.8Zm86.5 5.1c1.2 0 2.2 -.4 3 -1.3c.8 -.8 1.2 -1.9 1.2 -3.2c-.1 -1.3 -.4 -2.3 -1.3 -3.1c-.8 -1 -1.8 -1.4 -3 -1.4c-1.3 0 -2.2 .5 -3 1.3c-.9 .8 -1.2 2 -1.2 3.2c0 1.2 .4 2.3 1.2 3.2c.7 .9 1.9 1.3 3.1 1.3Zm39 0c1.2 0 2.2 -.4 3 -1.3c.8 -.8 1.2 -1.9 1.2 -3.2c-.1 -1.3 -.4 -2.3 -1.2 -3.1c-.8 -1 -1.8 -1.4 -3 -1.4c-1.4 0 -2.3 .5 -3.1 1.3c-.8 .8 -1.1 2 -1.1 3.2c-.1 1.2 .4 2.3 1.2 3.2c.7 .9 1.8 1.3 3 1.3Zm-286.6 4v-4.3h1.3c1 -1.9 1.5 -4.6 1.5 -8v-2h8.1v10h1.6v4.3h-1.6v-2.8h-9.2l-.3 2.8Zm57.6 -2.8V538.9h5.6c1.1 0 2 .3 2.7 .8c.6 .5 1 1.2 1 2c0 1.2 -.6 2.1 -1.9 2.7c1.7 .4 2.6 1.4 2.6 2.8c0 1 -.4 1.8 -1.1 2.3c-.8 .5 -1.8 .9 -3.1 .9Zm12.8 0V538.9h1.8v4.3h3c1.3 0 2.4 .3 3.3 .9c.8 .5 1.2 1.4 1.2 2.6c0 1.1 -.4 2 -1.2 2.7c-.8 .6 -1.8 1 -3.1 1Zm34.4 2.8v-4.3h1.3c1 -1.9 1.6 -4.6 1.6 -8v-2h8v10h1.6v4.3h-1.6v-2.8h-9.1l-.4 2.8Zm16.6 .7c-.8 0 -1.6 -.2 -2.4 -.6l.6 -1.3c.5 .2 1.1 .4 1.8 .4c.4 -.1 .9 -.2 1.3 -.5c.3 -.3 .7 -.9 1 -1.7l-5.2 -11.3H383l4.2 9.5l3.6 -9.5h1.9l-4.8 11.8c-.6 1.1 -1.1 1.9 -1.7 2.4c-.6 .4 -1.3 .8 -2.2 .8Zm11.2 -3.5V538.9H397v10h5.5v-10h1.7v10h5.5v-10h1.7v11.5Zm32.9 0V538.9h5.5c1.1 0 2.1 .3 2.7 .8c.6 .5 1.1 1.2 1.1 2c0 1.2 -.7 2.1 -2 2.7c1.8 .4 2.6 1.4 2.6 2.8c0 1 -.3 1.8 -1.1 2.3c-.8 .5 -1.8 .9 -3.1 .9Zm12.7 -.2V538.9h1.8v4.8h6.5v-4.8h1.8v11.3h-1.8v-5h-6.5v5Zm13.6 0V538.9h1.8v4.3h3c1.3 0 2.5 .3 3.3 .9c.8 .5 1.3 1.4 1.3 2.5c0 1.1 -.4 2 -1.2 2.6c-.9 .7 -1.9 1 -3.2 1Zm11.3 0V538.9h1.8v11.3Zm5.4 0V538.9h1.7v9l6.9 -9h1.7v11.3h-1.7v-8.9l-6.9 8.9Zm20.2 .2V538.9h10v11.5h-1.8v-10H493v10Zm25.6 2.8v-4.3h1.2c1 -1.9 1.6 -4.6 1.6 -8v-2h8.1v10h1.5v4.3h-1.5v-2.8h-9.2l-.3 2.8Zm13.8 -3l4.5 -5.7l-4.4 -5.6h2l3.4 4.4l3.4 -4.4h1.9l-4.4 5.5l4.6 5.8h-2l-3.6 -4.6l-3.5 4.6Zm25.2 3v-4.3h1.3c1 -1.9 1.5 -4.6 1.5 -8v-2h8.1v10h1.6v4.3h-1.6v-2.8h-9.1l-.4 2.8Zm21.4 -3V538.9H579v6.5l6.3 -6.5h2.1l-4.8 4.9l4.9 6.4h-2L581.4 545l-2.4 2.5v2.7Zm-227.5 .5c-1.6 0 -3 -.5 -4.1 -1.7c-1.1 -1.1 -1.7 -2.5 -1.7 -4.3c0 -1.7 .6 -3.1 1.6 -4.2c1 -1.3 2.4 -1.8 4 -1.8q.1 0 .2 0c1.5 0 2.8 .7 3.8 1.8c.9 1.1 1.4 2.7 1.4 4.4c-.1 .3 0 .5 0 .7h-9.2c.1 1.1 .6 2 1.3 2.6c.8 .7 1.7 1 2.8 1c1.3 0 2.6 -.5 3.6 -1.5l1.1 .9c-1.4 1.4 -2.9 2.1 -4.8 2.1Zm70.5 0c-1.7 0 -3 -.5 -4.1 -1.7c-1.2 -1.1 -1.7 -2.5 -1.7 -4.3c0 -1.7 .5 -3.1 1.6 -4.2c1 -1.3 2.4 -1.8 4 -1.8c0 0 .1 0 .1 0c1.5 0 2.9 .7 3.8 1.8c.9 1.1 1.5 2.7 1.5 4.4c-.1 .3 0 .5 -.1 .7h-9.2c.1 1.1 .6 2 1.4 2.6c.7 .7 1.7 1 2.7 1c1.4 0 2.6 -.5 3.7 -1.5l1.1 .9c-1.4 1.4 -2.9 2.1 -4.8 2.1Zm-182.3 0c-1.8 0 -3.1 -.6 -4.2 -1.7c-1.1 -1.2 -1.7 -2.6 -1.7 -4.3c0 -1.7 .6 -3 1.7 -4.2c1.1 -1.3 2.6 -1.8 4.3 -1.8q.1 0 .2 0c1.6 0 3 .7 4.1 1.8c1 1.1 1.7 2.6 1.7 4.2c-.1 1.6 -.6 3.1 -1.8 4.3c-1.2 1.1 -2.5 1.7 -4.3 1.7Zm44.8 0c-1.8 0 -3.1 -.6 -4.2 -1.7c-1.2 -1.2 -1.7 -2.6 -1.7 -4.3c0 -1.7 .5 -3 1.7 -4.2c1.1 -1.3 2.6 -1.8 4.3 -1.8c0 0 .1 0 .2 0c1.6 0 2.9 .7 4 1.8c1.1 1.1 1.7 2.6 1.7 4.2c-.1 1.6 -.5 3.1 -1.7 4.3c-1.2 1.1 -2.6 1.7 -4.3 1.7Zm28.6 0c-1.8 0 -3.1 -.6 -4.2 -1.7c-1.2 -1.2 -1.7 -2.6 -1.7 -4.3c0 -1.7 .5 -3 1.7 -4.2c1.1 -1.3 2.6 -1.8 4.3 -1.8c0 0 .1 0 .2 0c1.6 0 2.9 .7 4 1.8c1.1 1.1 1.7 2.6 1.7 4.2c-.1 1.6 -.5 3.1 -1.7 4.3c-1.2 1.1 -2.6 1.7 -4.3 1.7Zm198.7 0c-1.8 0 -3.1 -.6 -4.2 -1.7c-1.2 -1.2 -1.7 -2.6 -1.7 -4.3c0 -1.7 .5 -3 1.7 -4.2c1.1 -1.3 2.6 -1.8 4.3 -1.8c0 0 .1 0 .1 0c1.7 0 3 .7 4.1 1.8c1.1 1.1 1.7 2.6 1.7 4.2c-.1 1.6 -.6 3.1 -1.7 4.3c-1.2 1.1 -2.6 1.7 -4.3 1.7Zm39.1 0c-1.8 0 -3.2 -.6 -4.3 -1.7c-1.1 -1.2 -1.7 -2.6 -1.7 -4.3c0 -1.7 .6 -3 1.7 -4.2c1.2 -1.3 2.6 -1.8 4.3 -1.8q.1 0 .2 0c1.6 0 3 .7 4.1 1.8c1 1.1 1.7 2.6 1.7 4.2c-.1 1.6 -.6 3.1 -1.8 4.3c-1.2 1.1 -2.5 1.7 -4.2 1.7Zm-257.6 3.2v-15h1.8v2.4c1.1 -1.7 2.6 -2.6 4.4 -2.6c0 0 .1 0 .2 0c1.3 0 2.6 .6 3.6 1.7c1.1 1 1.7 2.5 1.7 4.3c-.1 1.7 -.6 3.1 -1.7 4.2c-1.1 1.1 -2.3 1.7 -3.8 1.7c-1.9 0 -3.3 -.8 -4.4 -2.4v5.7Zm-34.8 -3.2c-1.8 0 -3.4 -.6 -4.8 -1.7l.9 -1.2c1.1 .9 2.4 1.4 3.8 1.4c.8 0 1.5 -.2 2.1 -.5c.5 -.4 .8 -.8 .8 -1.5c0 -.5 -.2 -1 -.8 -1.3c-.5 -.4 -1.2 -.5 -2.1 -.5h-1.6v-1.5h1.6c.7 0 1.4 -.2 1.9 -.5c.3 -.4 .7 -.9 .7 -1.5c0 -.5 -.3 -.9 -.7 -1.2c-.6 -.3 -1.1 -.5 -1.8 -.5c-1.4 0 -2.6 .4 -3.5 1.2l-.9 -1.2c1.2 -1.1 2.8 -1.5 4.5 -1.5q.1 0 .2 0c1.1 0 2.1 .4 2.8 .9c.7 .6 1.1 1.3 1.1 2.2c0 1.2 -.6 2.2 -1.8 2.7c1.4 .4 2.2 1.4 2.2 2.8c-.1 .9 -.5 1.7 -1.3 2.4c-.9 .6 -1.9 1 -3.3 1ZM476.2 537.2c-.9 0 -1.5 -.2 -2.1 -.7c-.6 -.6 -.9 -1.2 -1.1 -2.1l1.2 -.2c.3 .9 1 1.5 2 1.5c1 0 1.7 -.5 2 -1.5l1.1 .2c-.2 .8 -.4 1.5 -1 2.1c-.7 .4 -1.3 .7 -2.1 .7Zm80.7 -14.8l-.3 -.7c1 -.5 1.5 -1 1.5 -1.7v-.3h-.8v-2.3h2v2c0 .9 -.2 1.6 -.6 2c-.4 .5 -1 .8 -1.8 1ZM311.7 519.7v-3.5h3.6v3.5Zm-33.1 -2.3c1 0 1.6 -.4 1.6 -1.2c0 -.8 -.6 -1.1 -1.7 -1.1h-2.6v2.3Zm123.6 1c.7 0 1.4 -.2 1.9 -.5c.4 -.4 .7 -.8 .7 -1.4c-.1 -.6 -.2 -1 -.7 -1.3c-.6 -.4 -1.2 -.5 -2.2 -.5h-3.6v3.7Zm58.9 0c.8 0 1.5 -.2 2 -.5c.4 -.4 .7 -.8 .7 -1.4c-.1 -.6 -.3 -1 -.8 -1.3c-.5 -.4 -1.2 -.5 -2.1 -.5h-3.6v3.7Zm89.6 0c.8 0 1.5 -.2 2 -.6c.4 -.4 .7 -.9 .7 -1.6c-.1 -.7 -.2 -1.1 -.7 -1.4c-.6 -.4 -1.2 -.6 -2.1 -.6h-3v4.2Zm33.2 .2c1 -.1 1.9 -.3 2.7 -.9c.6 -.6 1.1 -1.2 1.1 -2.1v-1.1c-1.1 -.3 -2.2 -.4 -3.3 -.4c-1.1 0 -1.9 .2 -2.4 .6c-.7 .3 -.9 .9 -.9 1.6c0 .6 .3 1.3 .8 1.7c.5 .3 1.2 .6 2 .6Zm50.8 0c1 -.1 2 -.3 2.7 -.9c.6 -.6 1.1 -1.2 1.1 -2.1v-1.1c-1.1 -.3 -2.2 -.4 -3.3 -.4c-1 0 -1.8 .2 -2.4 .6c-.7 .3 -.9 .9 -.9 1.6c0 .6 .3 1.3 .8 1.7c.5 .3 1.2 .6 2 .6ZM362.7 514v-1.8h6.1V514Zm-98.8 3.1c.8 0 1.5 -.3 2.1 -.9c.4 -.7 .8 -1.4 .8 -2.4c0 -1 -.3 -1.7 -.8 -2.4c-.7 -.6 -1.3 -.9 -2.1 -.9c0 0 -.1 0 -.1 0c-.8 0 -1.4 .4 -1.9 .9c-.6 .6 -.8 1.4 -.8 2.4c-.1 .9 .3 1.8 .8 2.4c.5 .5 1.2 .9 2 .9Zm-11.8 -4c-.1 -.8 -.3 -1.4 -.8 -1.9c-.5 -.5 -1 -.7 -1.7 -.7c0 0 -.1 0 -.1 0c-.7 0 -1.1 .3 -1.6 .7c-.5 .4 -.7 1.1 -.8 1.9Zm26.1 -.4c.3 0 .7 -.1 1 -.3c.1 -.3 .3 -.5 .3 -.9c0 -.3 -.1 -.6 -.3 -.8c-.2 -.3 -.6 -.3 -1 -.3h-2.3v2.3Zm123.6 .5c.7 0 1.3 -.1 1.7 -.4c.4 -.3 .7 -.8 .7 -1.3c-.1 -.5 -.2 -.9 -.6 -1.2c-.5 -.3 -1 -.4 -1.7 -.4h-3.6v3.3Zm59 0c.6 0 1.3 -.1 1.7 -.4c.3 -.3 .6 -.8 .6 -1.3c-.1 -.5 -.2 -.9 -.6 -1.2c-.5 -.3 -.9 -.4 -1.7 -.4h-3.5v3.3Zm137.7 5.4c1.1 -.1 2.1 -.5 2.9 -1.3c.7 -.9 1.1 -1.8 1.1 -3.1c-.1 -1.2 -.4 -2.2 -1.2 -3c-.8 -.9 -1.7 -1.3 -2.9 -1.3c0 0 -.1 0 -.2 0c-1.1 0 -1.9 .5 -2.7 1.3c-.8 .8 -1.1 1.8 -1.1 3c-.1 1.2 .4 2.3 1.2 3.1c.7 .8 1.7 1.3 2.9 1.3Zm-244 .1c1.2 0 2.2 -.4 3 -1.3c.8 -.8 1.2 -1.9 1.2 -3.1c-.1 -1.4 -.4 -2.4 -1.2 -3.2c-.9 -1 -1.9 -1.4 -3.1 -1.4c-1.3 0 -2.2 .5 -3 1.4c-.9 .7 -1.2 1.9 -1.2 3.2c0 1.1 .4 2.3 1.3 3.1c.7 .9 1.8 1.3 3 1.3Zm22.9 0c1.2 0 2.2 -.4 3 -1.3c.8 -.8 1.2 -1.9 1.2 -3.1c-.1 -1.4 -.4 -2.4 -1.2 -3.2c-.8 -1 -1.8 -1.4 -3 -1.4c-1.4 0 -2.3 .5 -3.1 1.4c-.8 .7 -1.1 1.9 -1.1 3.2c-.1 1.1 .4 2.3 1.2 3.1c.7 .9 1.8 1.3 3 1.3Zm40.5 -5.1c-.2 -1.2 -.4 -2 -1.1 -2.8c-.7 -.7 -1.5 -1.1 -2.6 -1.1c-1 0 -1.8 .4 -2.5 1.1c-.8 .7 -1.1 1.7 -1.2 2.8Zm59 0c-.2 -1.2 -.5 -2 -1.1 -2.8c-.7 -.7 -1.5 -1.1 -2.6 -1.1c-1.1 0 -1.9 .4 -2.6 1.1c-.8 .7 -1.1 1.7 -1.2 2.8Zm36.9 5.1c1.2 0 2.2 -.4 3 -1.3c.8 -.8 1.2 -1.9 1.2 -3.1c-.1 -1.4 -.4 -2.4 -1.2 -3.2c-.8 -1 -1.9 -1.4 -3.1 -1.4c-1.3 0 -2.2 .5 -3 1.4c-.9 .7 -1.2 1.9 -1.2 3.2c0 1.1 .5 2.3 1.3 3.1c.7 .9 1.8 1.3 3 1.3Zm98.6 0c1.2 0 2.3 -.4 3 -1.3c.8 -.8 1.2 -1.9 1.2 -3.1c0 -1.4 -.4 -2.4 -1.2 -3.2c-.8 -1 -1.8 -1.4 -3 -1.4c-1.4 0 -2.3 .5 -3.1 1.4c-.8 .7 -1.1 1.9 -1.1 3.2c-.1 1.1 .4 2.3 1.2 3.1c.7 .9 1.8 1.3 3 1.3Zm-274.9 1V508.4h1.7v6.5l6.3 -6.5h2.1l-4.8 4.9l4.9 6.4h-2l-4.1 -5.2l-2.4 2.5v2.7Zm50.9 .2v-10h-4v-1.5h10v1.5h-4.3v10Zm8.2 0V508.4h5.6c1 0 2 .3 2.7 .8c.6 .5 1 1.2 1 2c0 1.2 -.6 2.1 -1.9 2.7c1.7 .4 2.6 1.4 2.6 2.8c0 1 -.4 1.8 -1.2 2.3c-.8 .5 -1.7 .9 -3 .9Zm27.9 0v-10h-4v-1.5h10v1.5h-4.3v10Zm22.9 0v-10h-4v-1.5h9.9v1.5h-4.2v10Zm8.2 0V508.4h5.5c1.1 0 2.1 .3 2.7 .8c.6 .5 1.1 1.2 1.1 2c0 1.2 -.7 2.1 -2 2.7c1.7 .4 2.6 1.4 2.6 2.8c0 1 -.3 1.8 -1.1 2.3c-.8 .5 -1.8 .9 -3.1 .9Zm25.6 -.2V508.4H483v4.8h6.5v-4.8h1.8v11.3h-1.8v-5H483v5Zm13.6 0V508.4h1.8v4.8h6.6v-4.8h1.7v11.3h-1.7v-5h-6.6v5Zm42.9 .2v-10h-4v-1.5h9.9v1.5h-4.2v10Zm8.2 0V508.4h1.7v4.3h3.1c1.2 0 2.4 .3 3.2 .9c.8 .5 1.3 1.4 1.3 2.6c0 1.1 -.4 2 -1.2 2.7c-.8 .6 -1.8 1 -3.2 1Zm77.5 0v-10h-4v-1.5h10v1.5h-4.2v10Zm-185.9 .3c-1.8 0 -3.1 -.6 -4.2 -1.7c-1.2 -1.2 -1.7 -2.6 -1.7 -4.3c0 -1.7 .5 -3 1.7 -4.2c1.1 -1.2 2.5 -1.7 4.2 -1.7c0 -.1 .1 -.1 .1 -.1c1.7 0 3.2 .8 4.4 2.1l-1 1.1c-1.1 -1.1 -2.3 -1.7 -3.6 -1.7c-1.2 0 -2.1 .5 -2.9 1.4c-.9 .7 -1.2 1.9 -1.2 3.2c0 1.1 .4 2.3 1.2 3.1c.7 .9 1.8 1.3 3 1.3c1.2 0 2.4 -.5 3.5 -1.7l1.1 1c-1.4 1.4 -2.9 2.2 -4.6 2.2Zm90.3 0c-1.8 0 -3.1 -.6 -4.2 -1.7c-1.2 -1.2 -1.7 -2.6 -1.7 -4.3c0 -1.7 .6 -3 1.7 -4.2c1.1 -1.2 2.5 -1.7 4.2 -1.7c0 -.1 .1 -.1 .1 -.1c1.7 0 3.2 .8 4.5 2.1l-1.1 1.1c-1.1 -1.1 -2.3 -1.7 -3.6 -1.7c-1.2 0 -2.1 .5 -2.9 1.4c-.9 .7 -1.2 1.9 -1.2 3.2c0 1.1 .4 2.3 1.2 3.1c.8 .9 1.9 1.3 3.1 1.3c1.1 0 2.3 -.5 3.4 -1.7l1.1 1c-1.4 1.4 -2.8 2.2 -4.6 2.2Zm-199.3 0c-1.1 0 -2 -.2 -2.7 -.5c-.8 -.5 -1.4 -1 -2 -1.7l1.1 -1.1c1 1.2 2.3 1.8 3.5 1.8c1.1 0 2 -.3 2.8 -1.1c.7 -.8 1.3 -1.6 1.4 -2.7h-5.2v-1.5h5.1c-.1 -1 -.5 -1.9 -1.3 -2.6c-.8 -.7 -1.7 -1.1 -2.7 -1.1c-1.4 0 -2.5 .6 -3.6 1.7l-1 -1.1c1.2 -1.4 2.8 -2 4.7 -2c0 -.1 .1 -.1 .1 -.1c1.6 0 2.9 .7 4 1.8c1.1 1.1 1.6 2.6 1.6 4.3c0 1.5 -.5 3 -1.7 4.2c-1.2 1.1 -2.5 1.7 -4.1 1.7Zm86 0c-1.7 0 -3 -.5 -4.1 -1.6c-1.1 -1.2 -1.7 -2.6 -1.7 -4.4c0 -1.7 .5 -3 1.6 -4.2c1 -1.2 2.4 -1.7 4 -1.7c0 -.1 .1 -.1 .2 -.1c1.5 0 2.8 .7 3.7 1.8c.9 1.1 1.5 2.7 1.5 4.5c-.1 .2 0 .4 0 .6h-9.2c0 1.1 .5 2 1.3 2.6c.7 .7 1.7 1 2.7 1c1.4 0 2.7 -.5 3.7 -1.5l1.1 .9c-1.4 1.4 -2.9 2.1 -4.8 2.1Zm58.9 0c-1.6 0 -3 -.5 -4.1 -1.6c-1.1 -1.2 -1.6 -2.6 -1.6 -4.4c0 -1.7 .5 -3 1.6 -4.2c.9 -1.2 2.3 -1.7 3.9 -1.7c.1 -.1 .2 -.1 .2 -.1c1.5 0 2.8 .7 3.8 1.8c.9 1.1 1.4 2.7 1.4 4.5c-.1 .2 0 .4 0 .6h-9.2c.1 1.1 .6 2 1.3 2.6c.8 .7 1.7 1 2.8 1c1.3 0 2.6 -.5 3.7 -1.5l1 .9c-1.4 1.4 -2.9 2.1 -4.8 2.1Zm-119 0c-1.8 0 -3.1 -.6 -4.2 -1.7c-1.2 -1.2 -1.7 -2.6 -1.7 -4.3c0 -1.7 .6 -3 1.7 -4.2c1.1 -1.2 2.6 -1.7 4.3 -1.7c0 -.1 .1 -.1 .2 -.1c1.6 0 2.9 .7 4 1.8c1.1 1.1 1.8 2.6 1.8 4.2c-.2 1.6 -.6 3.1 -1.8 4.3c-1.2 1.1 -2.6 1.7 -4.3 1.7Zm23 0c-1.8 0 -3.2 -.6 -4.3 -1.7c-1.1 -1.2 -1.7 -2.6 -1.7 -4.3c0 -1.7 .6 -3 1.7 -4.2c1.2 -1.2 2.6 -1.7 4.3 -1.7q.1 -.1 .2 -.1c1.6 0 3 .7 4.1 1.8c1 1.1 1.7 2.6 1.7 4.2c-.1 1.6 -.6 3.1 -1.8 4.3c-1.2 1.1 -2.5 1.7 -4.2 1.7Zm136.3 0c-1.8 0 -3.1 -.6 -4.2 -1.7c-1.2 -1.2 -1.7 -2.6 -1.7 -4.3c0 -1.7 .6 -3 1.7 -4.2c1.1 -1.2 2.6 -1.7 4.3 -1.7q.1 -.1 .2 -.1c1.6 0 3 .7 4.1 1.8c1 1.1 1.7 2.6 1.7 4.2c-.1 1.6 -.6 3.1 -1.8 4.3c-1.2 1.1 -2.6 1.7 -4.3 1.7Zm98.7 0c-1.8 0 -3.2 -.6 -4.3 -1.7c-1.1 -1.2 -1.7 -2.6 -1.7 -4.3c0 -1.7 .6 -3 1.7 -4.2c1.2 -1.2 2.6 -1.7 4.3 -1.7q.1 -.1 .2 -.1c1.6 0 3 .7 4.1 1.8c1 1.1 1.7 2.6 1.7 4.2c-.1 1.6 -.6 3.1 -1.7 4.3c-1.3 1.1 -2.6 1.7 -4.3 1.7Zm-28.8 -.1c-1.3 0 -2.2 -.4 -3 -1c-.9 -.7 -1.3 -1.6 -1.3 -2.7c0 -1.3 .5 -2.2 1.4 -2.8c.7 -.7 2 -1 3.5 -1c.1 0 .2 0 .3 0c1 0 2.1 .2 3.2 .5v-.3c0 -1 -.3 -1.8 -.9 -2.3c-.6 -.5 -1.4 -.8 -2.5 -.8c-1.2 0 -2.2 .3 -3.4 .8l-.5 -1.3c1.4 -.7 2.8 -.9 4.1 -.9c.1 -.1 .2 -.1 .3 -.1c1.4 0 2.6 .5 3.4 1.3c.7 .8 1.2 1.9 1.2 3.3v7h-1.7V518c-1.1 1.3 -2.4 2.1 -4.1 2.1Zm50.8 0c-1.2 0 -2.2 -.4 -3 -1c-.9 -.7 -1.2 -1.6 -1.2 -2.7c0 -1.3 .4 -2.2 1.3 -2.8c.7 -.7 2 -1 3.5 -1c.1 0 .2 0 .3 0c1.1 0 2.1 .2 3.2 .5v-.3c0 -1 -.3 -1.8 -.9 -2.3c-.6 -.5 -1.4 -.8 -2.5 -.8c-1.2 0 -2.2 .3 -3.4 .8l-.5 -1.3c1.4 -.7 2.8 -.9 4.1 -.9c.1 -.1 .2 -.1 .3 -.1c1.4 0 2.6 .5 3.4 1.3c.8 .8 1.2 1.9 1.2 3.3v7h-1.7V518c-1 1.3 -2.4 2.1 -4.1 2.1Zm-61.7 .1c-1.8 0 -3.4 -.5 -4.8 -1.7l.9 -1.2c1.1 .9 2.4 1.4 3.9 1.4c.7 0 1.4 -.1 2 -.5c.5 -.4 .8 -.8 .8 -1.5c0 -.5 -.2 -1 -.7 -1.3c-.6 -.4 -1.3 -.5 -2.2 -.5H571v-1.5h1.6c.7 0 1.4 -.2 1.9 -.5c.4 -.4 .7 -.9 .7 -1.5c0 -.5 -.2 -.9 -.7 -1.2c-.6 -.3 -1.1 -.5 -1.8 -.5c-1.4 0 -2.6 .4 -3.5 1.2l-.9 -1.2c1.2 -1.1 2.8 -1.4 4.5 -1.4c.1 -.1 .2 -.1 .2 -.1c1.1 0 2.1 .4 2.8 .9c.7 .6 1.1 1.3 1.1 2.2c0 1.2 -.6 2.2 -1.8 2.7c1.4 .4 2.2 1.4 2.2 2.8c0 .9 -.4 1.8 -1.3 2.4c-.9 .6 -1.9 1 -3.3 1Zm-261 -8.8v-3.5h3.6v3.5Zm-39.2 8.7V507.8h6.4c1.2 0 2.2 .2 2.9 .8c.6 .5 1 1.3 1 2.3c-.1 1.2 -.5 2.2 -1.6 2.8c1.4 .4 2.3 1.5 2.3 3.1c-.1 1 -.4 1.8 -1.2 2.4c-.8 .5 -1.9 .9 -3.2 .9Zm13.1 -.4V507.8h3.3v6.9l4.5 -6.9h3.2v11.9h-3.3v-6.9l-4.4 6.9Zm-47.7 .4c-1.8 0 -3.2 -.6 -4.4 -1.8c-1.2 -1.3 -1.7 -2.7 -1.7 -4.5c0 -1.7 .6 -3.2 1.7 -4.4c1.2 -1.3 2.7 -1.8 4.5 -1.8q.1 0 .2 0c1.7 0 3.3 .7 4.5 2.1l-2 2c-.9 -.9 -1.7 -1.2 -2.7 -1.2q-.1 0 -.2 0c-.8 0 -1.4 .4 -1.9 1c-.6 .6 -.8 1.4 -.8 2.3c-.1 .9 .3 1.7 .8 2.4c.5 .6 1.3 .9 2.2 .9c.9 0 1.8 -.4 2.7 -1.3l2 2.1c-.7 .6 -1.3 1.2 -2.1 1.6c-.8 .3 -1.6 .6 -2.8 .6Zm67.1 0c-1.8 0 -3.3 -.6 -4.4 -1.8c-1.2 -1.3 -1.8 -2.7 -1.8 -4.5c0 -1.7 .6 -3.2 1.8 -4.4c1.1 -1.3 2.7 -1.8 4.4 -1.8c.1 0 .2 0 .2 0c1.8 0 3.4 .7 4.6 2.1l-2 2c-.9 -.9 -1.8 -1.2 -2.8 -1.2c0 0 -.1 0 -.1 0c-.8 0 -1.4 .4 -1.9 1c-.6 .6 -.9 1.4 -.9 2.3c-.1 .9 .3 1.7 .9 2.4c.5 .6 1.2 .9 2.1 .9c1 0 1.9 -.4 2.8 -1.3l1.9 2.1c-.6 .6 -1.3 1.2 -2 1.6c-.9 .3 -1.7 .6 -2.8 .6Zm-55 .3c-1.9 0 -3.3 -.6 -4.5 -1.8c-1.2 -1.2 -1.7 -2.7 -1.7 -4.6c0 -1.9 .5 -3.3 1.6 -4.6c1 -1.2 2.5 -1.8 4.2 -1.8c.1 0 .2 0 .2 0c1.7 0 3.2 .7 4.1 1.9c.9 1.2 1.5 2.8 1.5 4.7c-.1 .1 0 .4 0 .9h-8.3c.2 .7 .5 1.3 1 1.7c.5 .4 1.1 .6 1.9 .6c1 0 2 -.4 2.9 -1.2l1.9 1.8c-1.2 1.5 -2.8 2.4 -4.8 2.4Zm7.8 3V507.8h3.3v1.8c.8 -1.4 2.2 -2 3.7 -2c0 0 .1 0 .1 0c1.3 0 2.6 .6 3.6 1.7c1 1 1.6 2.6 1.6 4.5c-.1 1.9 -.5 3.4 -1.6 4.6c-1 1 -2.3 1.6 -3.7 1.6c-1.6 -.1 -2.7 -.6 -3.7 -1.8v5.2Zm340.6 -3.3c-1.8 0 -3.1 -.6 -4.2 -1.8c-1.1 -1.2 -1.6 -2.7 -1.6 -4.7c0 -.8 0 -1.3 0 -1.9c0 -.5 .1 -1 .2 -1.7c0 -.7 .2 -1.1 .4 -1.5c.1 -.5 .4 -.9 .7 -1.4c.2 -.4 .7 -.8 1.2 -1c.5 -.4 1.1 -.6 1.7 -.7l6.5 -1.5l.3 1.4l-6.2 1.6c-1.2 .2 -2 .7 -2.5 1.4c-.6 .6 -.8 1.5 -.8 2.7c.9 -1.8 2.5 -2.6 4.7 -2.6c1.4 0 2.8 .6 3.9 1.7c1 1.1 1.6 2.5 1.6 4c-.1 1.7 -.6 3.1 -1.7 4.2c-1.2 1.1 -2.5 1.8 -4.2 1.8ZM427.2 486.9c1.1 0 1.6 -.4 1.6 -1.2c0 -.8 -.5 -1.1 -1.7 -1.1h-2.6v2.3Zm145.5 0c1 0 1.5 -.4 1.5 -1.2c0 -.8 -.5 -1.1 -1.6 -1.1h-2.7v2.3Zm-321.9 .3c.7 0 1.4 -.2 1.9 -.6c.3 -.4 .7 -.9 .7 -1.6v-.6c-.7 -.4 -1.3 -.5 -2.1 -.5c-.8 0 -1.3 .2 -1.7 .5c-.5 .2 -.6 .7 -.6 1.3c-.1 .4 .2 .9 .5 1.1c.3 .2 .8 .4 1.3 .4Zm51.7 0c.7 0 1.4 -.2 1.9 -.6c.3 -.4 .7 -.9 .7 -1.6v-.6c-.6 -.4 -1.3 -.5 -2.1 -.5c-.8 0 -1.3 .2 -1.7 .5c-.5 .2 -.6 .7 -.6 1.3c-.1 .4 .2 .9 .5 1.1c.3 .2 .8 .4 1.3 .4Zm135.8 0c.8 0 1.4 -.2 1.9 -.6c.4 -.4 .7 -.9 .7 -1.6v-.6c-.6 -.4 -1.3 -.5 -2.1 -.5c-.8 0 -1.2 .2 -1.6 .5c-.5 .2 -.6 .7 -.6 1.3c-.1 .4 .1 .9 .5 1.1c.2 .2 .7 .4 1.2 .4Zm41.8 -.6c1.1 0 1.7 -.5 1.7 -1.4c0 -.5 -.1 -.7 -.4 -.9c-.4 -.3 -.8 -.4 -1.3 -.4h-2.3v2.7Zm118.8 0c1.1 0 1.8 -.5 1.8 -1.4c0 -.5 -.2 -.7 -.5 -.9c-.4 -.3 -.7 -.4 -1.3 -.4h-2.2v2.7Zm-333.4 0c.7 0 1.5 -.3 2 -.9c.4 -.6 .8 -1.3 .8 -2.2c0 -1 -.3 -1.7 -.9 -2.3c-.6 -.7 -1.2 -.9 -2 -.9c-.9 0 -1.5 .3 -2 .9c-.6 .5 -.8 1.4 -.8 2.3c-.1 .8 .3 1.6 .8 2.2c.5 .6 1.2 .9 2.1 .9Zm254.9 0v-6.4h-3v.3c-.1 2.6 -.3 4.7 -.9 6.1Zm-240.7 0c.9 0 1.7 -.3 2.3 -.9c.5 -.7 .9 -1.4 .9 -2.4c0 -.9 -.3 -1.6 -.9 -2.3c-.6 -.7 -1.4 -1 -2.3 -1q-.1 0 -.2 0c-.9 0 -1.6 .4 -2.1 1c-.6 .6 -.9 1.4 -.9 2.3c-.1 .9 .3 1.7 .9 2.4c.6 .6 1.4 .9 2.3 .9Zm132.8 0c.9 0 1.7 -.3 2.3 -.9c.5 -.7 .8 -1.4 .8 -2.4c0 -.9 -.3 -1.6 -.9 -2.3c-.6 -.7 -1.3 -1 -2.2 -1c-.1 0 -.2 0 -.2 0c-.9 0 -1.6 .4 -2.1 1c-.7 .6 -.9 1.4 -.9 2.3c-.1 .9 .3 1.7 .9 2.4c.5 .6 1.4 .9 2.3 .9Zm145.4 0c.9 0 1.7 -.3 2.3 -.9c.5 -.7 .9 -1.4 .9 -2.4c0 -.9 -.3 -1.6 -.9 -2.3c-.6 -.7 -1.4 -1 -2.3 -1q-.1 0 -.2 0c-.9 0 -1.6 .4 -2.1 1c-.6 .6 -.9 1.4 -.9 2.3c-.1 .9 .3 1.7 .9 2.4c.6 .6 1.4 .9 2.3 .9Zm-188.4 0c.7 0 1.4 -.3 2 -.9c.5 -.7 .8 -1.4 .8 -2.4c0 -1 -.3 -1.7 -.8 -2.3c-.6 -.7 -1.3 -1 -2 -1q-.1 0 -.2 0c-.8 0 -1.3 .4 -1.9 1c-.5 .6 -.8 1.4 -.8 2.3c-.1 1 .3 1.8 .8 2.4c.5 .5 1.3 .9 2.1 .9Zm28.6 0c.7 0 1.4 -.3 2 -.9c.5 -.7 .8 -1.4 .8 -2.4c0 -1 -.3 -1.7 -.8 -2.3c-.6 -.7 -1.2 -1 -2 -1q-.1 0 -.2 0c-.8 0 -1.3 .4 -1.9 1c-.5 .6 -.8 1.4 -.8 2.3c-.1 1 .3 1.8 .8 2.4c.5 .5 1.3 .9 2.1 .9Zm-65 -4c-.2 -.8 -.4 -1.4 -.8 -1.9c-.6 -.5 -1 -.7 -1.7 -.7q-.1 0 -.2 0c-.7 0 -1.1 .3 -1.5 .7c-.5 .4 -.8 1.1 -.9 1.9Zm93.7 -.4c.3 0 .8 -.1 1 -.3c.1 -.3 .3 -.5 .3 -.9c0 -.3 -.1 -.6 -.3 -.8c-.2 -.3 -.5 -.3 -1 -.3h-2.3v2.3Zm145.4 0c.4 0 .8 -.1 1 -.3c.2 -.3 .4 -.5 .4 -.9c0 -.3 -.1 -.6 -.4 -.8c-.2 -.3 -.5 -.3 -.9 -.3h-2.4v2.3Zm-281.9 7.2v-9.2h-3.7v-2.9h10.3v2.9h-3.3v9.2Zm30.1 2.8v-2.7h-9.1V477.3h3.3v9.3h4v-9.3H322v9.3h1.6l-.4 5.6Zm18.3 -3V477.3H342v4.3h4.4v-4.3h3.3v11.9h-3.3v-4.6H342v4.6Zm16 .2v-9.2h-3.6v-2.9h10.3v2.9h-3.3v9.2Zm23.4 -.2V477.3h3.3v7l4.4 -7H389v11.9h-3.3v-6.9l-4.4 6.9Zm43.1 .4V477.3h6.4c1.1 0 2.1 .2 2.8 .8c.6 .5 1.1 1.3 1.1 2.3c-.1 1.3 -.6 2.2 -1.7 2.8c1.4 .4 2.3 1.5 2.3 3.1c-.1 1 -.4 1.8 -1.2 2.4c-.8 .5 -1.8 .9 -3.2 .9Zm25.9 -.4V477.3h3.4v4.3h4.3v-4.3h3.3v11.9h-3.3v-4.6h-4.3v4.6Zm13.7 0V477.3h3.3v4.3h4.4v-4.3h3.3v11.9h-3.3v-4.6h-4.4v4.6Zm13.7 0V477.3h3.3v4h2.5c1.4 0 2.6 .3 3.5 1c.9 .6 1.3 1.6 1.3 2.9c-.1 1.2 -.4 2.2 -1.2 3c-.8 .6 -1.9 1 -3.4 1Zm12.3 0V477.3h3.3v11.9Zm6 0V477.3h3.3v7l4.4 -7h3.3v11.9h-3.3v-6.9l-4.5 6.9Zm18.8 3v-5.6h1.3c.7 -1.7 1.2 -4.5 1.2 -8.3v-1h9.6v9.3h1.6l-.3 5.6h-2.9v-2.7h-7.3l-.3 2.7Zm18.3 .7c-1.1 0 -2.1 -.3 -3 -.9l1.1 -2.5c.5 .2 1 .4 1.4 .4c.5 0 .9 -.2 1.2 -.7l-4.7 -11.9h3.6l2.7 8l2.6 -8h3.5l-4.6 12.2c-.5 1.2 -.9 2.1 -1.5 2.6c-.6 .5 -1.4 .8 -2.3 .8Zm9.2 -3.7l4.2 -6l-4 -5.9h3.6l2.2 3.4l2.2 -3.4h3.5l-4 5.8l4.2 6.1h-3.6L545 485.5l-2.4 3.7Zm27.5 .4V477.3H573c1.2 0 2.1 .2 2.8 .8c.7 .5 1.1 1.3 1.1 2.3c-.1 1.3 -.6 2.2 -1.7 2.8c1.5 .4 2.4 1.5 2.4 3.1c-.1 1 -.4 1.8 -1.2 2.4c-.9 .5 -1.9 .9 -3.3 .9Zm13.1 -.4V477.3H583v4.3h4.3v-4.3h3.3v11.9h-3.3v-4.6H583v4.6Zm13.7 0V477.3h3.3v4h2.5c1.4 0 2.6 .3 3.5 1c.8 .6 1.3 1.6 1.3 2.9c-.1 1.2 -.4 2.2 -1.2 3c-.9 .6 -2 1 -3.4 1Zm12.3 0V477.3H609v11.9Zm5.9 0V477.3H615v7l4.4 -7h3.2v11.9h-3.3v-6.9l-4.4 6.9Zm-280.7 .7c-1.9 0 -3.3 -.6 -4.5 -1.8c-1.2 -1.2 -1.7 -2.7 -1.7 -4.6c0 -1.9 .5 -3.3 1.6 -4.5c1 -1.3 2.6 -1.9 4.3 -1.9c0 0 .1 0 .2 0c1.7 0 3.1 .7 4 1.9c1 1.2 1.5 2.8 1.5 4.7c-.1 .1 0 .5 0 .9H328c.2 .7 .5 1.3 1 1.7c.5 .4 1.2 .7 1.9 .7c1 -.1 2 -.5 2.9 -1.3l1.9 1.8c-1.2 1.5 -2.8 2.4 -4.8 2.4Zm-51.2 -.3c-1.9 0 -3.4 -.6 -4.6 -1.8c-1.3 -1.3 -1.9 -2.7 -1.9 -4.5c0 -1.7 .6 -3.2 1.9 -4.4c1.2 -1.3 2.8 -1.8 4.6 -1.8c.1 0 .2 0 .2 0c1.7 0 3.3 .6 4.4 1.8c1.2 1.1 1.9 2.7 1.9 4.4c-.1 1.7 -.6 3.3 -1.9 4.5c-1.3 1.1 -2.8 1.8 -4.6 1.8Zm132.8 0c-1.9 0 -3.4 -.6 -4.7 -1.8c-1.3 -1.3 -1.8 -2.7 -1.8 -4.5c0 -1.7 .6 -3.2 1.9 -4.4c1.1 -1.3 2.7 -1.8 4.6 -1.8q.1 0 .2 0c1.7 0 3.2 .6 4.4 1.8c1.2 1.1 1.9 2.7 1.9 4.4c-.1 1.7 -.7 3.3 -1.9 4.5c-1.3 1.1 -2.8 1.8 -4.6 1.8Zm145.4 0c-1.9 0 -3.4 -.6 -4.6 -1.8c-1.3 -1.3 -1.9 -2.7 -1.9 -4.5c0 -1.7 .6 -3.2 1.9 -4.4c1.2 -1.3 2.8 -1.8 4.6 -1.8c.1 0 .2 0 .2 0c1.7 0 3.3 .6 4.4 1.8c1.2 1.1 1.9 2.7 1.9 4.4c-.1 1.7 -.6 3.3 -1.9 4.5c-1.3 1.1 -2.8 1.8 -4.6 1.8Zm-194.6 3.3V477.3h3.3v1.8c.9 -1.4 2.2 -2 3.7 -2c0 0 .1 0 .1 0c1.3 0 2.6 .6 3.6 1.7c1.1 1 1.6 2.6 1.6 4.5c-.1 1.9 -.5 3.5 -1.6 4.6c-1 1 -2.2 1.6 -3.7 1.6c-1.6 -.1 -2.7 -.6 -3.7 -1.8v5.2Zm28.6 0V477.3h3.3v1.8c.9 -1.4 2.2 -2 3.7 -2c0 0 .1 0 .2 0c1.2 0 2.5 .6 3.5 1.7c1.1 1 1.6 2.6 1.6 4.5c-.1 1.9 -.5 3.5 -1.5 4.6c-1.1 1 -2.3 1.6 -3.8 1.6c-1.6 -.1 -2.7 -.6 -3.7 -1.8v5.2ZM249.8 489.6c-1.2 0 -2.2 -.4 -2.9 -1c-.9 -.7 -1.2 -1.6 -1.2 -2.8c0 -1.4 .4 -2.3 1.3 -2.9c.8 -.8 2 -1 3.5 -1c.9 0 1.9 .2 2.9 .5v-.2c0 -1.5 -.9 -2.2 -2.6 -2.2c0 0 -.1 0 -.2 0c-1 0 -1.9 .3 -3 .7l-.9 -2.6c1.5 -.7 3 -1 4.7 -1q.1 0 .2 0c1.7 0 2.9 .5 3.8 1.3c.8 .9 1.3 2.2 1.3 3.9v7.1h-3.3v-1.3c-.9 .9 -2.1 1.5 -3.6 1.5Zm51.7 0c-1.2 0 -2.1 -.4 -2.9 -1c-.9 -.7 -1.2 -1.6 -1.2 -2.8c0 -1.4 .4 -2.3 1.3 -2.9c.8 -.8 2 -1 3.5 -1c.9 0 1.9 .2 2.9 .5v-.2c0 -1.5 -.9 -2.2 -2.6 -2.2c0 0 -.1 0 -.2 0c-1 0 -1.9 .3 -3 .7l-.8 -2.6c1.4 -.7 2.9 -1 4.6 -1q.1 0 .2 0c1.7 0 3 .5 3.8 1.3c.8 .9 1.3 2.2 1.3 3.9v7.1h-3.3v-1.3c-.9 .9 -2.1 1.5 -3.6 1.5Zm135.8 0c-1.2 0 -2.1 -.4 -2.9 -1c-.8 -.7 -1.2 -1.6 -1.2 -2.8c0 -1.4 .5 -2.3 1.3 -2.9c.8 -.8 2.1 -1 3.5 -1c1 0 2 .2 2.9 .5v-.2c0 -1.5 -.8 -2.2 -2.5 -2.2c-.1 0 -.2 0 -.3 0c-.9 0 -1.9 .3 -3 .7l-.8 -2.6c1.4 -.7 3 -1 4.6 -1c.1 0 .2 0 .3 0c1.6 0 2.9 .5 3.7 1.3c.9 .9 1.3 2.2 1.3 3.9v7.1h-3.3v-1.3c-.9 .9 -2.1 1.5 -3.6 1.5Zm-199.1 0c-1.6 0 -2.8 -.2 -3.9 -.7c-1.1 -.4 -2 -1 -2.9 -1.9l1.8 -2.4c1.3 1.3 3 2 5 2c.7 0 1.3 -.2 1.8 -.5c.4 -.4 .8 -.8 .8 -1.4c-.1 -.7 -.3 -1.1 -.9 -1.4c-.6 -.3 -1.3 -.4 -2.2 -.4h-1.8v-3h1.8c1.7 0 2.7 -.6 2.7 -1.8c0 -.6 -.2 -1 -.7 -1.4c-.5 -.3 -1 -.4 -1.8 -.4c-1.7 0 -3 .6 -4.1 1.7L232 475.8c1.5 -1.7 3.6 -2.5 6.2 -2.5c1.6 0 3 .4 4 1.2c1 .7 1.5 1.8 1.5 3c-.1 1.6 -.8 2.9 -2.4 3.7c1.8 .5 2.8 1.8 2.8 3.7c-.1 1.2 -.6 2.5 -1.6 3.3c-1.1 .9 -2.5 1.4 -4.3 1.4Zm27.2 0c-2 0 -3.5 -.7 -4.5 -1.9c-1.2 -1.3 -1.6 -3 -1.6 -5.4c0 -.8 0 -1.5 .1 -2.2c0 -.7 .2 -1.3 .3 -2c.2 -.8 .5 -1.4 .9 -1.9c.2 -.6 .8 -1 1.4 -1.4c.6 -.5 1.4 -.7 2.2 -.8l6.3 -1.2l.5 2.7l-6.4 1.3c-1.9 .3 -2.7 1.3 -2.9 2.8c.3 -.5 .8 -.9 1.6 -1.4c.7 -.5 1.6 -.6 2.7 -.6c1.5 0 2.8 .6 3.9 1.7c1.1 1.1 1.7 2.5 1.7 4.1c-.1 1.7 -.6 3.2 -1.8 4.4c-1.2 1.1 -2.6 1.8 -4.4 1.8Zm233 -13.7c-1.1 0 -1.8 -.3 -2.5 -.9c-.7 -.6 -1 -1.4 -1.2 -2.5l2 -.4c.2 .9 .9 1.5 1.7 1.5c.7 0 1.4 -.5 1.7 -1.5l1.9 .4c-.2 1 -.5 1.9 -1.1 2.5c-.7 .6 -1.5 .9 -2.5 .9Zm118.8 0c-1.1 0 -1.8 -.3 -2.4 -.9c-.7 -.6 -1.1 -1.4 -1.2 -2.5l2 -.4c.2 .9 .8 1.5 1.6 1.5c.8 0 1.4 -.5 1.7 -1.5l2 .4c-.2 1 -.6 1.9 -1.2 2.5c-.7 .6 -1.5 .9 -2.5 .9Z"/></clipPath>
<clipPath id="c6_24"><path d="M835.2 106.6c2.7 0 4.2 -1 4.2 -3.1c-.1 -2 -1.5 -2.9 -4.4 -2.9h-6.9v6Zm278.1 0c2.7 0 4.2 -1 4.2 -3.1c0 -2 -1.4 -2.9 -4.4 -2.9h-6.9v6Zm-535.6 -.2c2.9 0 4.5 -1.3 4.5 -3.8c0 -2.5 -1.5 -3.7 -4.6 -3.7h-5.3v7.5ZM433.2 102.5V96.9h11.9v5.6Zm188.4 3.9V89.8h-8v2.8c0 5.1 -.8 9.8 -2.5 13.8ZM772.5 98.1c1.5 0 2.7 -.4 3.6 -1.2c.9 -.8 1.3 -1.7 1.3 -3c-.1 -1.4 -.4 -2.3 -1.3 -3c-.9 -.8 -2.1 -1.1 -3.7 -1.1h-4.8v8.3Zm143.3 0c1.5 0 2.7 -.4 3.6 -1.2c.8 -.8 1.3 -1.7 1.3 -3c-.1 -1.4 -.5 -2.3 -1.4 -3c-.8 -.8 -2.1 -1.1 -3.7 -1.1h-4.7v8.3Zm79.4 0c1.5 0 2.7 -.4 3.6 -1.2c.8 -.8 1.3 -1.7 1.3 -3c-.1 -1.4 -.5 -2.3 -1.3 -3c-.9 -.8 -2.2 -1.1 -3.7 -1.1h-4.8v8.3ZM681.6 98V89.8h-6.1c-1.5 0 -2.6 .3 -3.5 1c-.9 .7 -1.2 1.8 -1.2 3.2c0 1.1 .4 2.1 1.2 2.9c.8 .7 2 1.1 3.4 1.1Zm152 -2.6c2.8 0 4.3 -1 4.3 -3c-.1 -1 -.4 -1.6 -1 -2.1c-.8 -.5 -1.7 -.7 -2.9 -.7h-5.9v5.8Zm278.1 0c2.9 0 4.3 -1 4.3 -3c-.1 -1 -.3 -1.6 -1 -2.1c-.8 -.5 -1.6 -.7 -2.9 -.7h-5.9v5.8Zm-697.3 11c2.3 0 4.3 -.8 5.8 -2.4c1.5 -1.7 2.3 -3.7 2.3 -6.1c-.1 -2.4 -.8 -4.3 -2.3 -6c-1.6 -1.7 -3.5 -2.4 -5.9 -2.4c-2.4 0 -4.3 .8 -5.8 2.4c-1.6 1.6 -2.3 3.6 -2.3 6c0 2.3 .8 4.4 2.3 6.1c1.5 1.5 3.5 2.4 5.9 2.4Zm49.6 0c2.3 0 4.3 -.8 5.8 -2.4c1.5 -1.7 2.3 -3.7 2.3 -6.1c-.1 -2.4 -.8 -4.3 -2.3 -6c-1.6 -1.7 -3.5 -2.4 -5.9 -2.4c-2.4 0 -4.3 .8 -5.8 2.4c-1.6 1.6 -2.3 3.6 -2.3 6c0 2.3 .8 4.4 2.3 6.1c1.5 1.5 3.5 2.4 5.9 2.4Zm337.7 0c2.3 0 4.3 -.8 5.8 -2.4c1.5 -1.7 2.3 -3.7 2.3 -6.1c-.1 -2.4 -.8 -4.3 -2.3 -6c-1.6 -1.7 -3.5 -2.4 -5.9 -2.4c-2.4 0 -4.3 .8 -5.8 2.4c-1.7 1.6 -2.3 3.6 -2.3 6c0 2.3 .7 4.4 2.3 6.1c1.4 1.5 3.5 2.4 5.9 2.4Zm278.1 0c2.3 0 4.3 -.8 5.8 -2.4c1.5 -1.7 2.3 -3.7 2.3 -6.1c-.1 -2.4 -.8 -4.3 -2.3 -6c-1.6 -1.7 -3.5 -2.4 -5.9 -2.4c-2.4 0 -4.3 .8 -5.8 2.4c-1.6 1.6 -2.3 3.6 -2.3 6c0 2.3 .8 4.4 2.3 6.1c1.5 1.5 3.5 2.4 5.9 2.4ZM374 111.7V84.5h5.8V96.4L390.9 84.5h7.2L387 96l11.6 15.7h-7.2L383 100.1l-3.2 3.3v8.3Zm115.7 .2V90.1h-8.3V84.5H504v5.6h-8.5v21.8Zm19.6 -.2V84.5h20.5v5.3H515.2v5.6h12.9v5.4H515.2v5.6H530v5.3Zm27.3 .4c-1.3 0 -2.3 -.1 -3.2 -.4l.4 -4.8c.4 0 .7 .1 .9 .1c.8 -.1 1.6 -.2 2.2 -.6c.5 -.5 1.1 -1.1 1.5 -2.3c.4 -1.1 .9 -2.8 1.1 -5.1c.2 -2.4 .3 -5.3 .3 -8.9V84.5h19.3v27.2h-5.8V89.8h-7.9v2.1c0 5.3 -.3 9.4 -.9 12.4c-.7 2.9 -1.6 5 -2.8 6.1c-1.3 1 -2.9 1.7 -5.1 1.7Zm29.8 -.4V84.5h5.9v9.3h5.8c3 0 5.5 .8 7.3 2.4c1.8 1.5 2.7 3.7 2.7 6.4c-.2 2.7 -1 5 -2.8 6.7c-1.9 1.6 -4.4 2.4 -7.5 2.4Zm35.9 5.7v-11h2.5c1.1 -2.5 1.8 -5.1 2.3 -7.8c.4 -2.9 .7 -6.4 .7 -10.9V84.5h19.6v21.9h3.3l-.8 11H625v-5.7H608l-.4 5.7Zm34 -5.3c-1.3 0 -2.3 -.1 -3.2 -.4l.4 -4.8c.3 0 .7 .1 .9 .1c.8 -.1 1.6 -.2 2.2 -.6c.5 -.5 1 -1.1 1.5 -2.3c.4 -1.1 .8 -2.8 1 -5.1c.2 -2.4 .4 -5.3 .4 -8.9V84.5h19.2v27.2h-5.8V89.8h-7.8v2.1c0 5.3 -.3 9.4 -.9 12.4c-.7 2.9 -1.6 5 -2.8 6.1c-1.3 1 -3 1.7 -5.1 1.7Zm27.7 -.4l6.5 -9.6c-3.8 -1.5 -5.7 -4.3 -5.7 -8.6c0 -2.8 .9 -5 2.7 -6.6c1.8 -1.7 4.3 -2.4 7.5 -2.4h12.4v27.2h-5.8v-8.6h-4.8l-5.9 8.6Zm48.9 .2V90.1h-8.3V84.5h22.6v5.6h-8.5v21.8Zm149.8 -.2V84.5h5.8v17.9l12 -17.9H886v27.2h-5.8V93.9l-12 17.8Zm69 0V84.5h20.5v5.3H937.6v5.6h12.9v5.4H937.6v5.6h14.8v5.3Zm33.1 .2V90.1h-8.3V84.5h22.6v5.6h-8.4v21.8Zm46.4 -.2V84.5h5.8v17.9l12 -17.9h5.4v27.2h-5.8V93.9l-11.9 17.8Zm37 .2V90.1h-8.3V84.5h22.6v5.6H1054v21.8Zm-286.4 -.3V84.5h11.1c0 0 .1 0 .1 0c3.1 0 5.7 .8 7.6 2.6c1.8 1.6 2.8 4 2.8 6.8c-.1 3 -1.1 5.4 -3.2 7c-2.1 1.6 -4.7 2.5 -8 2.5h-4.6v8.2Zm143.2 0V84.5h11.2c3.2 0 5.8 .8 7.7 2.6c1.8 1.6 2.8 4 2.8 6.8c-.1 3 -1.1 5.4 -3.2 7c-2.2 1.6 -4.8 2.5 -8 2.5h-4.6v8.2Zm79.5 0V84.5h11.1c3.2 0 5.8 .8 7.7 2.6c1.8 1.6 2.8 4 2.8 6.8c-.1 3 -1.1 5.4 -3.2 7c-2.1 1.6 -4.8 2.5 -8 2.5h-4.6v8.2Zm-162.2 .1V84.5h12.5c3 0 5.5 .8 7 2.4c1.2 1.2 1.9 2.8 1.9 4.7c-.1 2.5 -1.2 4.5 -3.5 5.9c1.7 .6 2.9 1.5 3.7 2.5c.9 1 1.3 2.5 1.3 4.3c-.1 2.3 -.9 4.3 -2.7 5.5c-1.9 1.3 -4.3 1.9 -7.4 1.9Zm278.1 0V84.5h12.5c3.1 0 5.5 .8 7.1 2.4c1.1 1.2 1.8 2.8 1.8 4.7c0 2.5 -1.1 4.5 -3.4 5.9c1.6 .6 2.8 1.5 3.7 2.5c.8 1 1.2 2.5 1.2 4.3c-.1 2.3 -.9 4.3 -2.7 5.5c-1.9 1.3 -4.2 1.9 -7.4 1.9Zm-362.8 .4c-2 0 -3.9 -.6 -5.8 -1.6l2.3 -4.4c.9 .5 2.1 .9 3.2 .9c1.3 -.1 2.5 -.8 3.5 -2.2L729.9 84.3h6.7l7.3 14.4l6.6 -14.4H757l-10.5 21.1c-1.2 2.4 -2.4 4.1 -3.8 5.1c-1.5 1 -3.1 1.6 -5.1 1.6Zm-383.5 0c-2.6 0 -4.7 -.4 -6.5 -1.1c-1.8 -.9 -3.4 -1.9 -4.9 -3.5l3.7 -4c1.1 1.1 2.4 1.9 3.5 2.5c1.1 .4 2.5 .7 4 .7c1.9 0 3.6 -.5 5 -1.7c1.3 -1.3 2.3 -2.7 2.8 -4.6H350.5V95.3h11.1c-.5 -1.9 -1.4 -3.3 -2.8 -4.5c-1.5 -1.1 -3.1 -1.7 -4.9 -1.7c-2.6 0 -5 1 -7.1 2.9l-3.3 -4.1c2.9 -2.8 6.4 -4.1 10.4 -4.1c4.1 0 7.5 1.4 10.2 4.1c2.5 2.7 4 6.1 4 10c-.1 4 -1.3 7.4 -4 10.1c-2.8 2.6 -6 4.1 -10 4.1Zm60.2 0c-4.2 0 -7.6 -1.4 -10.3 -4.1c-2.8 -2.8 -4.1 -6.1 -4.1 -10.1c0 -3.9 1.4 -7.2 4.1 -10c2.7 -2.8 6.2 -4.1 10.4 -4.1c4.1 0 7.6 1.4 10.3 4.1c2.7 2.7 4.1 6.1 4.1 10c-.1 3.9 -1.4 7.3 -4.1 10c-2.9 2.7 -6.3 4.2 -10.4 4.2Zm49.6 0c-4.2 0 -7.6 -1.4 -10.3 -4.1c-2.8 -2.8 -4.1 -6.1 -4.1 -10.1c0 -3.9 1.4 -7.2 4.1 -10c2.7 -2.8 6.2 -4.1 10.4 -4.1c4.1 0 7.6 1.4 10.3 4.1c2.7 2.7 4.1 6.1 4.1 10c-.1 3.9 -1.4 7.3 -4.1 10c-2.9 2.7 -6.3 4.2 -10.4 4.2Zm337.7 0c-4.2 0 -7.6 -1.4 -10.3 -4.1c-2.8 -2.8 -4.1 -6.1 -4.1 -10.1c0 -3.9 1.3 -7.2 4.1 -10c2.7 -2.8 6.2 -4.1 10.4 -4.1c4.1 0 7.6 1.4 10.3 4.1c2.7 2.7 4.1 6.1 4.1 10c-.1 3.9 -1.4 7.3 -4.2 10c-2.8 2.7 -6.2 4.2 -10.3 4.2Zm278.1 0c-4.2 0 -7.6 -1.4 -10.3 -4.1c-2.8 -2.8 -4.1 -6.1 -4.1 -10.1c0 -3.9 1.4 -7.2 4.1 -10c2.7 -2.8 6.3 -4.1 10.4 -4.1c4.1 0 7.6 1.4 10.3 4.1c2.7 2.7 4.1 6.1 4.1 10c-.1 3.9 -1.3 7.3 -4.1 10c-2.8 2.7 -6.2 4.2 -10.4 4.2Z"/></clipPath>
<clipPath id="c7_24"><path d="M150.1 693.7V628.5H483.9c18 0 32.6 14.6 32.6 32.6c0 18 -14.6 32.6 -32.6 32.6Z"/></clipPath>
<clipPath id="c8_24"><path d="M356.7 668.2v-3.1h3.2v3.1Zm94.1 0v-3.1h3.1v3.1Zm25.6 0v-3.1h3.2v3.1Zm-31.8 -2.3c.8 0 1.3 -.4 1.3 -1c0 -.8 -.5 -1 -1.4 -1h-2.3v2Zm-203.7 .5c.6 -.1 1.2 -.2 1.6 -.5c.4 -.5 .6 -.9 .6 -1.4V664c-.5 -.3 -1.1 -.4 -1.8 -.4c-.6 0 -1.1 .1 -1.4 .3c-.4 .3 -.5 .7 -.5 1.2c-.1 .3 .1 .7 .4 .9c.3 .2 .7 .4 1.1 .4Zm25.1 -.5c.9 0 1.5 -.4 1.5 -1.2c0 -.4 -.2 -.6 -.4 -.8c-.4 -.3 -.6 -.3 -1.1 -.3h-1.9v2.3Zm39.1 .5c.6 -.1 1.2 -.2 1.6 -.5c.4 -.5 .6 -.9 .6 -1.4V664c-.5 -.3 -1.1 -.4 -1.8 -.4c-.7 0 -1.1 .1 -1.4 .3c-.4 .3 -.6 .7 -.6 1.2c0 .3 .2 .7 .5 .9c.3 .2 .6 .4 1.1 .4Zm44 0c.6 -.1 1.2 -.2 1.6 -.5c.4 -.5 .6 -.9 .6 -1.4V664c-.6 -.3 -1.2 -.4 -1.8 -.4c-.7 0 -1.1 .1 -1.5 .3c-.3 .3 -.5 .7 -.5 1.2c-.1 .3 .2 .7 .5 .9c.2 .2 .6 .4 1.1 .4Zm65 -.4c.7 -.1 1.3 -.2 1.8 -.5c.3 -.4 .6 -.8 .6 -1.3c-.1 -.5 -.2 -.9 -.7 -1.2c-.4 -.3 -1 -.4 -1.7 -.4c-.1 -.1 -.2 -.1 -.3 -.1c-.6 0 -1 .3 -1.4 .5c-.4 .3 -.6 .7 -.6 1.3c0 .4 .2 .8 .6 1.2c.4 .2 1 .5 1.7 .5Zm-158.8 -.3v-5.2h-2.8v.2c0 2.1 -.2 3.8 -.8 5Zm-44.6 .1c.7 -.1 1.5 -.2 2 -.8c.4 -.5 .7 -1.2 .7 -1.9c0 -.9 -.3 -1.4 -.8 -2c-.6 -.6 -1.1 -.8 -1.9 -.8q-.1 0 -.1 0c-.9 0 -1.4 .3 -1.9 .8c-.6 .5 -.7 1.2 -.7 2c-.1 .7 .2 1.4 .8 1.9c.5 .5 1.1 .8 1.9 .8Zm233.6 -3.9c.4 0 .7 -.1 1 -.2c.2 -.2 .3 -.4 .3 -.7c0 -.2 -.1 -.4 -.3 -.5c-.2 -.3 -.5 -.3 -.9 -.3h-2.2v1.7Zm-262.9 6.3V657.9h9.3v10.3h-2.9v-7.7h-3.5v7.7Zm12.2 0c-.6 0 -1 0 -1.5 0l.2 -2.6c.2 0 .5 .1 .6 .1c.3 -.1 .6 -.1 .8 -.3c.1 -.2 .4 -.4 .5 -.9c.2 -.6 .3 -1.3 .3 -2.4c0 -1.1 0 -2.4 0 -4.2h8.3v10.3h-2.9v-7.7h-2.5c-.1 1.2 0 2.4 -.1 3.3c-.2 .9 -.3 1.7 -.5 2.3c-.3 .5 -.4 1 -.7 1.3c-.4 .3 -.7 .5 -1.1 .6c-.4 .1 -.8 .2 -1.4 .2Zm39 2.5v-2.5h-14V657.9h2.9v7.8H225v-7.8h2.9v7.8h3.4v-7.8h2.9v7.8h1.1v5Zm14.9 0v-5h1.1c.6 -1.5 1 -3.7 1 -6.9v-.9h8.6v7.8h1.1v5h-2.7v-2.5h-6.4l-.2 2.5Zm13.7 -2.5V657.9h2.9v3.3h2.1c1.2 0 2.3 .3 3 .9c.8 .5 1.2 1.4 1.2 2.6c-.1 1 -.4 1.9 -1.1 2.6c-.7 .6 -1.7 .9 -2.9 .9Zm19.2 3c-1 0 -1.8 -.2 -2.6 -.7l.9 -2.2c.4 .2 .9 .4 1.3 .4c.4 -.1 .8 -.3 1 -.7l-4 -10.1h3.1l2.3 6.9l2.3 -6.9h3.1l-4 10.5c-.5 1 -.9 1.7 -1.4 2.2c-.5 .4 -1.2 .6 -2 .6Zm15.2 -3v-3.7c-.9 .4 -1.8 .7 -2.8 .7c-1.1 0 -1.9 -.3 -2.6 -.8c-.7 -.7 -1 -1.4 -1 -2.5v-4h2.9V661c-.1 1.1 .5 1.7 1.5 1.7c.6 -.1 1.3 -.2 2 -.5v-4.3h2.9v10.3Zm30.4 0v-7.7h-3.1v-2.6h9.3v2.6h-3.3v7.7Zm7.6 0V657.9h2.9v4.2l3.7 -4.2h3.4l-3.8 4.2l4.3 6.1h-3.5l-2.7 -3.9l-1.4 1.4v2.5Zm93.8 0V657.9h2.9v4.2l3.7 -4.2h3.4l-3.8 4.2l4.3 6.1h-3.5l-2.7 -3.9l-1.4 1.4v2.5Zm11.9 0V657.9H445c1.1 0 1.9 .2 2.6 .7c.5 .4 .9 1.1 .9 1.8c-.1 1 -.5 1.9 -1.6 2.3c1.2 .4 1.9 1.3 1.9 2.7c-.1 .8 -.3 1.5 -1 2.1c-.8 .4 -1.6 .7 -2.8 .7Zm23 0V657.9h3l2.8 4.3l2.8 -4.3h2.9v10.3h-2.9V662l-2.9 4.3l-2.8 -4.2v6.1ZM356.7 660.9v-3.1h3.2v3.1Zm-39.2 7.5c-1.5 -.1 -2.8 -.5 -3.8 -1.6c-1.1 -1.1 -1.6 -2.3 -1.6 -3.7c0 -1.6 .5 -2.8 1.6 -3.8c.9 -1.1 2.3 -1.6 3.9 -1.6c0 0 .1 0 .2 0c1.5 0 2.9 .7 3.9 1.9l-1.7 1.7c-.8 -.7 -1.5 -1 -2.4 -1q-.1 0 -.1 0c-.7 0 -1.3 .3 -1.7 .8c-.6 .5 -.8 1.2 -.8 2c0 .7 .3 1.4 .8 1.9c.3 .5 1.1 .8 1.9 .8c.7 -.1 1.6 -.3 2.4 -1l1.7 1.7c-.6 .5 -1.2 1.1 -1.8 1.4c-.7 .3 -1.5 .5 -2.5 .5Zm-106.8 0c-1.7 -.1 -3 -.5 -4 -1.6c-1.2 -1.1 -1.6 -2.2 -1.6 -3.7c0 -1.6 .5 -2.8 1.6 -3.8c1 -1.1 2.4 -1.6 4 -1.6q.1 0 .2 0c1.4 0 2.8 .6 3.8 1.6c1 1 1.6 2.3 1.6 3.8c-.1 1.4 -.5 2.7 -1.6 3.7c-1.2 1 -2.4 1.6 -4 1.6Zm29.3 0c-1.1 -.1 -1.8 -.3 -2.5 -.9c-.7 -.6 -1 -1.3 -1 -2.3c0 -1.2 .4 -1.9 1.1 -2.5c.7 -.6 1.8 -.8 3 -.8c.8 0 1.7 .1 2.5 .4v-.2c0 -1.3 -.7 -1.8 -2.1 -1.8q-.1 0 -.2 0c-.8 0 -1.7 .2 -2.7 .5l-.7 -2.2c1.2 -.6 2.6 -.9 4 -.9c.1 0 .2 0 .3 0c1.3 0 2.5 .5 3.2 1.2c.7 .6 1.1 1.8 1.1 3.3v6h-2.9v-1.1c-.7 .8 -1.8 1.3 -3.1 1.3Zm64.2 0c-1.1 -.1 -1.9 -.3 -2.5 -.9c-.7 -.6 -1.1 -1.3 -1.1 -2.3c0 -1.2 .4 -1.9 1.2 -2.5c.7 -.6 1.7 -.8 3 -.8c.8 0 1.7 .1 2.5 .4v-.2c0 -1.3 -.7 -1.8 -2.2 -1.8c0 0 -.1 0 -.1 0c-.9 0 -1.7 .2 -2.7 .5l-.7 -2.2c1.1 -.6 2.6 -.9 4 -.9q.1 0 .2 0c1.4 0 2.5 .5 3.3 1.2c.7 .6 1.1 1.8 1.1 3.3v6h-2.9v-1.1c-.8 .8 -1.8 1.3 -3.1 1.3Zm44 0c-1.1 -.1 -1.9 -.3 -2.6 -.9c-.6 -.6 -1 -1.3 -1 -2.3c0 -1.2 .4 -1.9 1.1 -2.5c.7 -.6 1.8 -.8 3.1 -.8c.8 0 1.7 .1 2.5 .4v-.2c0 -1.3 -.8 -1.8 -2.2 -1.8c0 0 -.1 0 -.1 0c-.9 0 -1.8 .2 -2.7 .5l-.8 -2.2c1.2 -.6 2.6 -.9 4.1 -.9c0 0 .1 0 .2 0c1.4 0 2.5 .5 3.3 1.2c.7 .6 1.1 1.8 1.1 3.3v6h-2.9v-1.1c-.8 .8 -1.8 1.3 -3.1 1.3ZM401 665.8c.8 -.1 1.6 -.4 2.1 -1.3c.5 -.9 .8 -1.8 .8 -3.1c0 -1.3 -.3 -2.2 -.8 -3.1c-.7 -.8 -1.3 -1.2 -2.2 -1.2c0 0 -.1 0 -.1 0c-.9 0 -1.5 .5 -2 1.2c-.6 .8 -.8 1.9 -.8 3.1c-.1 1.2 .3 2.3 .8 3.1c.5 .7 1.3 1.3 2.2 1.3Zm-27.6 -4.7c.7 -.1 1.3 -.2 1.7 -.6c.4 -.5 .7 -.8 .7 -1.5c-.1 -.6 -.3 -1.1 -.7 -1.4c-.5 -.5 -1 -.6 -1.7 -.6q-.1 0 -.1 0c-.7 0 -1.2 .2 -1.6 .5c-.4 .3 -.6 .9 -.6 1.6c-.1 .5 .2 1.1 .6 1.4c.4 .3 1 .6 1.7 .6Zm40.7 -.9c.6 -.1 1.1 -.2 1.4 -.5c.3 -.3 .6 -.7 .6 -1.2c0 -.5 -.2 -.8 -.6 -1.1c-.4 -.4 -.8 -.5 -1.4 -.5c-.6 0 -1 .2 -1.4 .5c-.3 .2 -.5 .7 -.5 1.1c-.1 .4 .2 .9 .5 1.2c.4 .3 .9 .5 1.4 .5Zm-25 8V657.6l-2.3 .6l-.7 -2.5l3.9 -1.1h2.1v13.6Zm25 .2c-1.5 -.1 -2.7 -.4 -3.7 -1.1c-1 -.7 -1.5 -1.7 -1.5 -2.8c-.1 -1.6 .7 -2.6 2.2 -3.3c-1.2 -.8 -1.7 -1.7 -1.7 -3c0 -1.2 .4 -2 1.3 -2.7c.9 -.8 2 -1 3.4 -1c.1 -.1 .2 -.1 .3 -.1c1.3 0 2.4 .5 3.2 1.1c.8 .6 1.3 1.6 1.3 2.7c-.1 1.2 -.6 2.3 -1.7 3c.7 .3 1.3 .8 1.6 1.3c.3 .4 .6 1.1 .6 1.9c0 1.2 -.5 2.2 -1.5 2.9c-1 .7 -2.2 1.1 -3.8 1.1Zm-13.2 .1c-1.8 -.1 -3.2 -.7 -4.3 -2c-1.1 -1.5 -1.7 -3.1 -1.7 -5.1c0 -2 .6 -3.6 1.7 -5c1.1 -1.4 2.6 -2 4.4 -2c0 0 .1 0 .2 0c1.6 0 3 .7 4.1 2c1.1 1.3 1.7 3 1.7 5c-.1 2 -.6 3.7 -1.7 5c-1.2 1.3 -2.6 2.1 -4.4 2.1Zm-28 0c-1.8 -.1 -3.2 -.6 -4.5 -1.7l1.6 -2.2c.8 .7 1.9 1.1 2.9 1.1c.7 0 1.5 -.2 1.9 -.8c.4 -.6 .8 -1.3 .9 -2.2c-.7 .5 -1.6 .9 -2.8 .9c-1.5 0 -2.6 -.4 -3.5 -1.2c-.9 -.8 -1.3 -1.8 -1.3 -3.2c0 -1.5 .5 -2.5 1.4 -3.4c.9 -1 2.2 -1.4 3.8 -1.4c.1 0 .2 0 .3 0c.7 0 1.4 .2 1.9 .4c.6 .1 1.2 .6 1.7 1.1c1 1 1.6 2.8 1.6 5.1c-.1 2.2 -.5 4.1 -1.6 5.4c-1.1 1.3 -2.4 2.1 -4.3 2.1Z"/></clipPath>
</defs>
<image clip-path="url(#c0_24)" preserveAspectRatio="none" x="150" y="0" width="1167" height="825" xlink:href="img/1.jpg"/>
<image clip-path="url(#c1_24)" preserveAspectRatio="none" x="150" y="0" width="1167" height="825" xlink:href="img/2.jpg"/>
<image clip-path="url(#c2_24)" preserveAspectRatio="none" x="150" y="0" width="1167" height="825" xlink:href="img/3.jpg"/>
<image clip-path="url(#c3_24)" preserveAspectRatio="none" x="150" y="0" width="1167" height="825" xlink:href="img/4.jpg"/>
<image clip-path="url(#c4_24)" preserveAspectRatio="none" x="150" y="0" width="1167" height="825" xlink:href="img/5.jpg"/>
<image clip-path="url(#c5_24)" preserveAspectRatio="none" x="150" y="0" width="1167" height="825" xlink:href="img/6.jpg"/>
<image clip-path="url(#c6_24)" preserveAspectRatio="none" x="150" y="0" width="1167" height="825" xlink:href="img/7.jpg"/>
<image clip-path="url(#c7_24)" preserveAspectRatio="none" x="150" y="0" width="1167" height="825" xlink:href="img/8.jpg"/>
<image clip-path="url(#c8_24)" preserveAspectRatio="none" x="150" y="0" width="1167" height="825" xlink:href="img/9.jpg"/>
</svg>