<?xml version="1.0" encoding="UTF-8" standalone="no"?>
<!DOCTYPE svg PUBLIC "-//W3C//DTD SVG 1.1//EN"
"http://www.w3.org/Graphics/SVG/1.1/DTD/svg11.dtd">
<svg viewBox="0 0 1466 825" version="1.1" xmlns="http://www.w3.org/2000/svg" xmlns:xlink="http://www.w3.org/1999/xlink">
<defs>
<clipPath id="c0_27"><path d="M149.9 825V0h1167V825Z"/></clipPath>
<clipPath id="c1_27"><path d="M236.7 825c-1.8 0 -3.3 -1.5 -3.3 -3.3V0h999.7V821.7c0 1.8 -1.5 3.3 -3.4 3.3Z"/></clipPath>
<clipPath id="c2_27"><path d="M678.1 106c2.8 -.1 4.3 -1.1 4.3 -3.1c-.1 -2 -1.5 -3 -4.4 -3h-6.9V106ZM376.8 100l-3.6 -8.9l-3.6 8.9Zm204.3 0l-3.6 -8.9l-3.6 8.9ZM403.5 97.4c1.5 0 2.7 -.3 3.6 -1.1c.8 -.9 1.3 -1.8 1.3 -3.1c-.1 -1.3 -.5 -2.3 -1.4 -3c-.8 -.7 -2.1 -1.1 -3.7 -1.1h-4.8v8.3Zm148.8 0c1.5 0 2.7 -.3 3.6 -1.1c.9 -.9 1.3 -1.8 1.3 -3.1c-.1 -1.3 -.4 -2.3 -1.3 -3c-.9 -.7 -2.1 -1.1 -3.7 -1.1h-4.8v8.3ZM676.6 94.8c2.8 0 4.3 -1 4.3 -3c-.1 -1.1 -.4 -1.7 -1 -2.2c-.8 -.5 -1.7 -.7 -2.9 -.7h-5.9v5.9Zm-31.9 11c2.3 0 4.3 -.9 5.8 -2.5c1.5 -1.7 2.3 -3.6 2.3 -6c-.2 -2.4 -.8 -4.4 -2.4 -6c-1.5 -1.7 -3.5 -2.5 -5.8 -2.5c-2.4 0 -4.3 .8 -5.9 2.4c-1.6 1.6 -2.2 3.7 -2.2 6.1c0 2.3 .7 4.3 2.3 6c1.4 1.6 3.5 2.5 5.9 2.5Zm-313.4 5.1V83.8h22.6v27.1h-5.8V89.1h-11v21.8Zm27.6 .3L370.5 83.8H376l11.7 27.4h-6.3l-2.5 -6.1H367.5l-2.5 6.1Zm60.5 -.1V83.8h5.9V95.7l11 -11.9h7.2L432.4 95.4L444 111.1h-7.2L428.4 99.5l-3.1 3.2v8.4Zm90.9 0l9.4 -13.9l-9 -13.4h6.9l5.7 8.9l5.8 -8.9h6.8l-9.1 13.3l9.5 14h-7l-6.1 -9.4l-6.1 9.4Zm52.9 .1L574.8 83.8h5.5L592 111.2h-6.3l-2.5 -6.1H571.7l-2.4 6.1Zm33.8 -.1V83.8h6.4l7.2 11.5l7.2 -11.5h6.3v27.3h-5.8V93.3l-7.7 11.6h-.2L602.8 93.4v17.7Zm-204.3 -.2V83.8h11.2c3.2 0 5.8 .9 7.6 2.6c1.9 1.6 2.8 4 2.8 6.8c-.1 3 -1 5.4 -3.1 7.1c-2.2 1.6 -4.8 2.5 -8 2.5h-4.7v8.1Zm148.9 0V83.8h11.1c0 0 .1 0 .1 0c3.1 0 5.7 .9 7.6 2.6c1.8 1.6 2.8 4 2.8 6.8c-.1 3 -1.1 5.4 -3.2 7.1c-2.1 1.6 -4.7 2.5 -8 2.5h-4.6v8.1Zm123.6 .2V83.8h12.6c3 0 5.4 .8 7 2.4c1.2 1.2 1.9 2.8 1.9 4.7c-.1 2.6 -1.2 4.6 -3.5 5.9c1.7 .7 2.9 1.5 3.7 2.6c.8 .9 1.3 2.4 1.3 4.2c-.1 2.4 -.9 4.3 -2.7 5.6c-1.9 1.2 -4.3 1.9 -7.4 1.9Zm-201.8 0V89.8L458.6 91l-1.2 -4.9l7.8 -2.4h4.1v27.4Zm11.4 0v-4.8l9 -7.4c1.7 -1.5 3 -2.6 3.7 -3.5c.5 -1 1 -1.9 1 -3c-.1 -1.2 -.4 -2 -1 -2.6c-.8 -.6 -1.6 -.9 -2.7 -.9c0 0 -.1 0 -.1 0c-1 0 -1.8 .3 -2.6 .8c-.9 .5 -1.7 1.5 -2.8 2.8l-4.2 -3.3c1.3 -2 2.9 -3.4 4.4 -4.3c1.4 -.9 3.4 -1.4 5.7 -1.4q.1 0 .2 0c2.7 0 4.9 .8 6.6 2.4c1.7 1.5 2.6 3.5 2.6 6.1c-.1 1.4 -.3 2.8 -.9 4c-.6 1.1 -1.3 2.2 -2.2 3.1c-.9 .8 -2.3 2 -4.1 3.4l-4.4 3.4h11.8v5.2Zm169.8 .3c-4.2 0 -7.6 -1.4 -10.4 -4.1c-2.7 -2.8 -4.1 -6.1 -4.1 -10c0 -4 1.4 -7.3 4.2 -10c2.7 -2.8 6.2 -4.2 10.3 -4.2c0 0 .1 0 .1 0c4 0 7.5 1.4 10.3 4.1c2.6 2.7 4.1 6.1 4.1 10.1c-.1 3.8 -1.4 7.2 -4.2 10c-2.8 2.7 -6.2 4.1 -10.3 4.1Z"/></clipPath>
<clipPath id="c3_27"><path d="M1121 129.8c1.1 0 1.6 -.4 1.6 -1.2c0 -.8 -.5 -1.2 -1.7 -1.2h-2.6v2.4Zm-45.4 .3c.7 0 1.3 -.2 1.8 -.6c.4 -.5 .7 -1 .7 -1.6v-.7c-.6 -.3 -1.3 -.4 -2.1 -.4c-.8 0 -1.2 .1 -1.6 .4c-.5 .3 -.6 .8 -.6 1.4c-.1 .4 .1 .8 .5 1.1c.3 .2 .7 .4 1.3 .4Zm-233.4 -.7v-6.3h-3v.2c-.1 2.6 -.3 4.7 -.9 6.1Zm105.3 0v-6.3h-3v.2c-.2 2.6 -.4 4.7 -1 6.1Zm-121 .1c.9 0 1.7 -.3 2.3 -1c.5 -.6 .8 -1.4 .8 -2.3c0 -.9 -.3 -1.7 -.9 -2.3c-.6 -.7 -1.3 -1 -2.3 -1c0 0 -.1 0 -.1 0c-.9 0 -1.6 .3 -2.1 .9c-.7 .6 -.9 1.4 -.9 2.4c-.1 .9 .3 1.7 .9 2.3c.5 .6 1.4 1 2.3 1Zm279.8 0c.9 0 1.7 -.3 2.3 -1c.5 -.6 .8 -1.4 .8 -2.3c0 -.9 -.3 -1.7 -.8 -2.3c-.7 -.7 -1.4 -1 -2.3 -1q-.1 0 -.2 0c-.9 0 -1.6 .3 -2.1 .9c-.7 .6 -.9 1.4 -.9 2.4c-.1 .9 .3 1.7 .9 2.3c.5 .6 1.4 1 2.3 1Zm-43.4 -.1c.7 0 1.4 -.3 2 -.9c.5 -.6 .8 -1.4 .8 -2.4c0 -.9 -.3 -1.7 -.8 -2.3c-.6 -.6 -1.2 -.9 -2 -.9q-.1 0 -.2 0c-.8 0 -1.3 .3 -1.9 .9c-.5 .6 -.8 1.4 -.8 2.4c-.1 .9 .3 1.7 .8 2.3c.5 .6 1.3 .9 2.1 .9Zm-206.2 -4c-.1 -.7 -.4 -1.4 -.8 -1.8c-.5 -.5 -1 -.7 -1.7 -.7c0 0 -.1 0 -.1 0c-.7 0 -1.2 .3 -1.6 .7c-.5 .4 -.7 1 -.9 1.8Zm26.9 0c-.1 -.7 -.3 -1.4 -.8 -1.8c-.5 -.5 -1 -.7 -1.7 -.7c0 0 -.1 0 -.1 0c-.7 0 -1.1 .3 -1.6 .7c-.5 .4 -.7 1 -.8 1.8Zm237 -.3c.3 0 .8 -.1 1 -.3c.1 -.4 .3 -.6 .3 -.9c0 -.4 -.1 -.6 -.3 -.8c-.2 -.3 -.5 -.3 -1 -.3h-2.3v2.3Zm-376.9 7v-12h3.4v7l4.4 -7h3.2v12h-3.3v-7l-4.4 7Zm60.8 0v-12H808l3.2 5l3.3 -5h3.3v12h-3.3v-7.2l-3.3 4.9L807.9 125v7.1Zm28.9 3v-5.7h1.3c.8 -1.7 1.2 -4.4 1.2 -8.2v-1.1h9.7v9.3h1.6l-.4 5.7H844v-2.7h-7.4l-.3 2.7Zm28.7 -2.7c-.7 -.1 -1.2 -.1 -1.7 -.2l.2 -2.8q.1 -.1 .1 -.1c.2 0 .5 .1 .7 .1c.3 0 .6 -.1 .8 -.2c.2 -.2 .5 -.6 .7 -1.2c.1 -.7 .3 -1.6 .3 -2.8c0 -1.3 0 -3 0 -5.1h9.6v12.1h-3.3v-9.1h-3c-.1 1.5 -.1 2.9 -.2 4c-.2 1.1 -.3 2 -.5 2.7c-.3 .7 -.5 1.2 -.9 1.6c-.4 .3 -.7 .6 -1.2 .8c-.5 .1 -.9 .2 -1.6 .2Zm27.2 -.3v-12h3.3v7l4.4 -7h3.3v12h-3.4v-7l-4.4 7Zm37.2 0v-12h3.3v4.4h4.3v-4.4h3.3v12h-3.3v-4.7h-4.3v4.7Zm12.1 3v-5.7H940c.7 -1.7 1.1 -4.4 1.1 -8.2v-1.1h9.7v9.3h1.6l-.4 5.7h-2.8v-2.7h-7.4l-.2 2.7Zm15.6 -3v-12h3.3v7l4.5 -7h3.2v12h-3.3v-7l-4.5 7Zm13.9 0v-12h3.3v7l4.4 -7H979v12h-3.3v-7l-4.4 7Zm26.3 0v-12h3.3V125l4.2 -4.9h3.9l-4.3 4.9l4.9 7.1h-4l-3.2 -4.6l-1.5 1.7v2.9Zm13.3 0v-12h3.3v7l4.4 -7h3.3v12h-3.4v-7l-4.4 7Zm12.7 0l4.2 -6.1l-4 -5.9h3.6l2.2 3.5l2.2 -3.5h3.5l-4 5.8l4.2 6.2h-3.6l-2.4 -3.7l-2.4 3.7Zm64 0v-12h3.4l3.2 5l3.3 -5h3.4v12h-3.4v-7.2l-3.3 4.9l-3.3 -4.8v7.1Zm30.6 .3V120.1h6.4c1.1 0 2.1 .3 2.8 .9c.6 .5 1.1 1.3 1.1 2.2c-.1 1.3 -.6 2.3 -1.7 2.9c1.4 .3 2.3 1.5 2.3 3c-.1 1 -.4 1.8 -1.2 2.4c-.8 .6 -1.8 .9 -3.2 .9Zm-127.6 0c-1.8 0 -3.2 -.6 -4.4 -1.8c-1.2 -1.3 -1.7 -2.7 -1.7 -4.4c0 -1.8 .6 -3.2 1.7 -4.4c1.2 -1.4 2.7 -1.9 4.5 -1.9c0 0 .1 0 .2 0c1.7 0 3.3 .8 4.5 2.2l-2 2c-.9 -.9 -1.7 -1.2 -2.7 -1.2q-.1 0 -.2 0c-.8 0 -1.4 .3 -1.9 .9c-.6 .7 -.8 1.5 -.8 2.4c-.1 .9 .3 1.7 .8 2.3c.5 .6 1.3 1 2.2 1c.9 0 1.8 -.5 2.7 -1.3l2 2c-.7 .7 -1.3 1.3 -2.1 1.7c-.8 .3 -1.6 .5 -2.8 .5Zm-132.9 .3c-1.8 0 -3.2 -.5 -4.4 -1.7c-1.2 -1.3 -1.8 -2.8 -1.8 -4.7c0 -1.8 .6 -3.3 1.7 -4.5c1 -1.2 2.5 -1.9 4.2 -1.9q.1 0 .2 0c1.7 0 3.1 .7 4.1 1.9c.9 1.3 1.5 2.9 1.5 4.7c-.1 .2 0 .5 -.1 .9h-8.2c.1 .8 .5 1.4 1 1.8c.5 .4 1.1 .6 1.9 .6c.9 0 2 -.4 2.9 -1.2l1.9 1.7c-1.2 1.6 -2.8 2.4 -4.9 2.4Zm27 0c-1.9 0 -3.3 -.5 -4.5 -1.7c-1.2 -1.3 -1.7 -2.8 -1.7 -4.7c0 -1.8 .5 -3.3 1.6 -4.5c1 -1.2 2.5 -1.9 4.2 -1.9c.1 0 .2 0 .2 0c1.7 0 3.2 .7 4.1 1.9c.9 1.3 1.5 2.9 1.5 4.7c-.1 .2 0 .5 -.1 .9h-8.2c.2 .8 .5 1.4 1 1.8c.5 .4 1.1 .6 1.9 .6c1 0 2 -.4 2.9 -1.2l1.9 1.7c-1.2 1.6 -2.8 2.4 -4.8 2.4Zm-55.1 -.3c-1.9 0 -3.4 -.6 -4.6 -1.8c-1.3 -1.2 -1.8 -2.7 -1.8 -4.4c0 -1.8 .6 -3.2 1.8 -4.4c1.2 -1.4 2.8 -1.9 4.7 -1.9c0 0 .1 0 .2 0c1.7 0 3.2 .7 4.4 1.8c1.2 1.1 1.8 2.7 1.8 4.5c-.1 1.7 -.6 3.2 -1.8 4.4c-1.3 1.2 -2.8 1.8 -4.7 1.8Zm279.9 0c-1.9 0 -3.4 -.6 -4.7 -1.8c-1.2 -1.2 -1.8 -2.7 -1.8 -4.4c0 -1.8 .6 -3.2 1.9 -4.4c1.1 -1.4 2.8 -1.9 4.6 -1.9q.1 0 .2 0c1.7 0 3.2 .7 4.4 1.8c1.2 1.1 1.9 2.7 1.9 4.5c-.1 1.7 -.7 3.2 -1.9 4.4c-1.3 1.2 -2.8 1.8 -4.6 1.8Zm-49.6 3.3V120.1h3.3v1.8c.9 -1.3 2.2 -2 3.7 -2c0 0 .1 0 .1 0c1.3 0 2.6 .6 3.6 1.7c1.1 1.1 1.6 2.7 1.6 4.6c-.1 1.9 -.5 3.4 -1.5 4.5c-1.1 1 -2.3 1.7 -3.8 1.7c-1.6 -.1 -2.7 -.6 -3.7 -1.9v5.2Zm17.8 -3.3c-1.2 0 -2.1 -.3 -2.9 -1c-.8 -.6 -1.1 -1.6 -1.1 -2.7c0 -1.4 .4 -2.3 1.3 -3c.7 -.7 2 -.9 3.4 -.9c1 0 2 .1 2.9 .5v-.2c0 -1.6 -.8 -2.2 -2.5 -2.2c-.1 0 -.2 0 -.2 0c-1 0 -2 .2 -3 .6l-.9 -2.6c1.4 -.7 3 -1 4.6 -1c.1 0 .2 0 .3 0c1.6 0 2.9 .5 3.7 1.4c.9 .8 1.3 2.2 1.3 3.9v7h-3.3v-1.3c-.9 1 -2.1 1.5 -3.6 1.5Zm-312.8 0c-2.2 0 -4 -.6 -5.4 -1.9l1.5 -2.2c1 .9 2.3 1.5 3.6 1.5c.5 0 1 -.2 1.3 -.4c.3 -.4 .5 -.6 .5 -1c0 -.5 -.1 -.7 -.5 -.9c-.4 -.3 -.9 -.4 -1.5 -.4h-1.5v-2h1.5c.4 0 .9 -.1 1.2 -.4c.3 -.3 .5 -.5 .5 -.9c0 -.3 -.1 -.6 -.4 -.8c-.4 -.3 -.7 -.4 -1.2 -.4c0 0 -.1 0 -.2 0c-1.2 0 -2.2 .5 -3 1.3l-1.5 -2.1c1.4 -1.2 3.1 -1.9 5.1 -1.9q.1 0 .2 0c1.2 0 2.2 .4 3 1c.9 .6 1.3 1.4 1.3 2.3c-.1 1.2 -.6 2.2 -1.8 2.7c1.4 .5 2.2 1.5 2.2 2.8c-.1 1 -.5 2 -1.4 2.7c-1 .6 -2.1 1 -3.5 1Zm16 -.3V119.9l-2.7 .7l-.7 -2.8l4.4 -1.3H781v15.6Zm132.2 0V116.4h3.3v10.3l6.9 -10.3h3.1v15.7h-3.3V121.8l-6.8 10.3Zm129.8 0l5.4 -8l-5.1 -7.7h3.9l3.3 5.1l3.3 -5.1h3.9l-5.2 7.7l5.4 8h-4l-3.5 -5.4l-3.5 5.4Zm-255.8 0v-2.7l5.2 -4.2c.9 -.9 1.7 -1.6 2.1 -2.1c.4 -.5 .6 -1.1 .6 -1.7c-.1 -.7 -.2 -1.1 -.6 -1.5c-.4 -.4 -.9 -.5 -1.5 -.5c-.1 0 -.2 0 -.3 0c-.5 0 -.9 .2 -1.3 .5c-.5 .3 -1 .8 -1.6 1.6l-2.4 -1.9c.8 -1.2 1.7 -2 2.6 -2.5c.8 -.5 1.9 -.7 3.2 -.7c.1 -.1 .2 -.1 .3 -.1c1.5 0 2.7 .6 3.6 1.4c.9 .8 1.5 2 1.5 3.5c-.1 .8 -.2 1.6 -.5 2.3c-.4 .6 -.8 1.2 -1.3 1.7c-.5 .5 -1.3 1.2 -2.3 2l-2.5 1.9h6.7v3Zm111 -13.3c-1.1 0 -1.8 -.3 -2.5 -.9c-.7 -.7 -1 -1.5 -1.2 -2.6l2 -.4c.2 1 .9 1.5 1.7 1.5c.7 0 1.4 -.5 1.6 -1.5l2 .4c-.2 1 -.5 2 -1.2 2.6c-.6 .5 -1.4 .9 -2.4 .9Zm78.8 0c-1.1 0 -1.9 -.3 -2.5 -.9c-.7 -.7 -1 -1.5 -1.2 -2.6l2 -.4c.2 1 .8 1.5 1.7 1.5c.7 0 1.3 -.5 1.6 -1.5l2 .4c-.2 1 -.5 2 -1.2 2.6c-.6 .5 -1.4 .9 -2.4 .9ZM791 96.2c1.1 0 1.8 -.5 1.8 -1.4c0 -.5 -.2 -.7 -.5 -1c-.4 -.2 -.7 -.3 -1.3 -.3h-2.2v2.7Zm265.6 .6c.7 0 1.4 -.2 1.8 -.6c.4 -.4 .8 -1 .8 -1.6V94c-.7 -.4 -1.3 -.5 -2.1 -.5c-.8 0 -1.3 .2 -1.7 .5c-.5 .2 -.6 .7 -.6 1.3c-.1 .4 .2 .8 .5 1.1c.3 .2 .8 .4 1.3 .4ZM863.2 93.6V90.3H870v3.3Zm-8.1 2.6c.9 0 1.7 -.3 2.2 -.9c.6 -.7 .9 -1.5 .9 -2.4c0 -.9 -.3 -1.7 -.9 -2.3c-.6 -.7 -1.3 -1 -2.3 -1c0 0 -.1 0 -.1 0c-.9 0 -1.6 .4 -2.2 1c-.6 .6 -.8 1.4 -.8 2.3c-.1 .9 .3 1.7 .9 2.3c.5 .7 1.3 1 2.3 1Zm60.1 0c.8 0 1.7 -.3 2.2 -.9c.6 -.7 .9 -1.5 .9 -2.4c0 -.9 -.3 -1.7 -.9 -2.3c-.6 -.7 -1.4 -1 -2.3 -1c0 0 -.1 0 -.1 0c-1 0 -1.6 .4 -2.2 1c-.6 .6 -.8 1.4 -.8 2.3c-.1 .9 .3 1.7 .9 2.3c.5 .7 1.3 1 2.3 1Zm-88.3 0c.8 0 1.5 -.3 2.1 -1c.4 -.6 .8 -1.4 .8 -2.3c0 -1 -.3 -1.8 -.8 -2.4c-.6 -.6 -1.3 -.9 -2.1 -.9h-.1c-.8 0 -1.4 .4 -1.9 .9c-.6 .6 -.8 1.4 -.8 2.4c-.1 .9 .3 1.7 .8 2.3c.5 .6 1.2 1 2 1Zm103.1 0c.7 0 1.4 -.3 2 -1c.5 -.6 .8 -1.4 .8 -2.3c0 -1 -.3 -1.8 -.8 -2.4c-.6 -.6 -1.3 -.9 -2 -.9q-.1 0 -.2 0c-.8 0 -1.3 .4 -1.9 .9c-.5 .6 -.8 1.4 -.8 2.4c-.1 .9 .3 1.7 .8 2.3c.5 .6 1.3 1 2.1 1Zm141.5 0c.8 0 1.5 -.3 2.1 -1c.5 -.6 .8 -1.4 .8 -2.3c0 -1 -.3 -1.8 -.8 -2.4c-.6 -.6 -1.3 -.9 -2.1 -.9h-.1c-.8 0 -1.3 .4 -1.9 .9c-.5 .6 -.8 1.4 -.8 2.4c-.1 .9 .3 1.7 .8 2.3c.5 .6 1.3 1 2 1Zm-98.2 -4c-.1 -.8 -.3 -1.4 -.8 -1.9c-.5 -.5 -1 -.7 -1.7 -.7c0 0 -.1 0 -.1 0c-.7 0 -1.1 .3 -1.6 .7c-.5 .4 -.7 1.1 -.8 1.9ZM761.7 102.5c-1.1 0 -2.1 -.3 -3 -.9l1.1 -2.5c.5 .2 1 .4 1.5 .4c.4 0 .9 -.2 1.2 -.7l-4.7 -12h3.6l2.7 8.1l2.6 -8.1h3.5l-4.6 12.3c-.5 1.2 -1 2.1 -1.5 2.6c-.6 .4 -1.4 .8 -2.4 .8Zm9.9 -3.4c-.7 -.1 -1.1 -.1 -1.7 -.2l.2 -2.8q.1 0 .2 0c.2 0 .4 .1 .6 .1c.3 0 .6 -.1 .9 -.3c.1 -.2 .4 -.6 .6 -1.2c.2 -.7 .3 -1.5 .3 -2.8c0 -1.3 0 -3 0 -5.1h9.6V99H779V89.8h-3c-.1 1.5 -.1 2.9 -.2 4c-.2 1.1 -.3 2 -.5 2.7c-.3 .7 -.5 1.3 -.9 1.6c-.4 .3 -.7 .7 -1.2 .8c-.5 .1 -.9 .2 -1.6 .2Zm13.8 -.3v-12h3.4v4h2.4c1.4 0 2.7 .4 3.5 1c.9 .7 1.4 1.7 1.4 3c-.1 1.1 -.4 2.2 -1.2 2.9c-.9 .7 -2 1.1 -3.4 1.1Zm13.7 .1V89.8h-3.6v-3h10.3v3h-3.3v9.1Zm11.3 3.6c-1.1 0 -2.1 -.3 -3 -.9l1.1 -2.5c.5 .2 1 .4 1.5 .4c.4 0 .9 -.2 1.1 -.7l-4.6 -12h3.6l2.7 8.1l2.6 -8.1h3.5l-4.6 12.3c-.5 1.2 -1 2.1 -1.6 2.6c-.5 .4 -1.3 .8 -2.3 .8Zm25.1 -3.7v-12h3.4v4.4h4.3V86.8h3.3v12h-3.3V94.2h-4.3v4.6Zm37.1 0v-12h3.3v7l4.4 -7h3.2v12h-3.3V91.9l-4.4 6.9Zm28.6 .1V89.8h-3.7v-3h10.3v3h-3.3v9.1Zm37.4 -.1v-12h3.3v7l4.4 -7h3.2v12h-3.3V91.9l-4.4 6.9Zm20.8 0V94.6c-1.1 .5 -2.1 .9 -3.2 .9c-1.3 -.1 -2.2 -.4 -3 -1.1c-.8 -.7 -1.1 -1.6 -1.1 -2.8V86.8h3.3v3.8c-.1 1.2 .6 1.9 1.7 1.9c.8 0 1.5 -.2 2.3 -.6V86.8h3.3v12Zm32 0v-12h3.4v5l4.2 -5h3.9l-4.4 5l4.9 7h-3.9l-3.2 -4.5l-1.5 1.6v2.9Zm13.4 0v-12h3.3v7l4.4 -7h3.2v12h-3.3V91.9l-4.4 6.9Zm13.8 0v-12h3.3v7l4.5 -7h3.2v12h-3.3V91.9l-4.4 6.9Zm20.3 .1V86.8h10.7V98.9h-3.4V89.8h-4v9.1Zm41.3 -.1v-12h3.3v5l4.2 -5h3.9l-4.4 5l5 7h-4L1085 94.3l-1.5 1.6v2.9Zm-188.3 .4c-1.8 0 -3.2 -.6 -4.4 -1.9c-1.2 -1.2 -1.8 -2.6 -1.8 -4.4c0 -1.7 .6 -3.2 1.8 -4.4c1.2 -1.3 2.7 -1.8 4.5 -1.8c0 0 .1 0 .2 0c1.7 0 3.3 .7 4.5 2.1l-2 2c-.9 -.9 -1.7 -1.2 -2.8 -1.2h-.1c-.8 0 -1.4 .4 -1.9 1c-.6 .6 -.8 1.4 -.8 2.3c-.1 .9 .2 1.7 .8 2.4c.5 .6 1.3 .9 2.2 .9c.9 0 1.8 -.4 2.7 -1.3l2 2c-.7 .7 -1.4 1.3 -2.1 1.7c-.8 .3 -1.7 .6 -2.8 .6Zm92.6 0c-1.8 0 -3.2 -.6 -4.4 -1.9c-1.2 -1.2 -1.8 -2.6 -1.8 -4.4c0 -1.7 .6 -3.2 1.8 -4.4c1.2 -1.3 2.7 -1.8 4.5 -1.8c0 0 .1 0 .2 0c1.7 0 3.3 .7 4.5 2.1l-2 2c-.9 -.9 -1.7 -1.2 -2.8 -1.2h-.1c-.8 0 -1.4 .4 -1.9 1c-.6 .6 -.8 1.4 -.8 2.3c-.2 .9 .2 1.7 .8 2.4c.5 .6 1.3 .9 2.2 .9c.9 0 1.8 -.4 2.7 -1.3l2 2c-.7 .7 -1.4 1.3 -2.1 1.7c-.9 .3 -1.7 .6 -2.8 .6Zm-13.3 .3c-1.9 0 -3.3 -.6 -4.5 -1.8C965.5 96.4 965 95 965 93.1c0 -1.9 .5 -3.3 1.6 -4.6c1 -1.2 2.5 -1.8 4.2 -1.8c.1 0 .2 0 .2 0c1.8 0 3.2 .7 4.1 1.9c1 1.2 1.5 2.8 1.5 4.7c-.1 .1 0 .4 0 .9h-8.3c.2 .7 .5 1.3 1 1.7c.5 .4 1.1 .6 1.9 .6c1 0 2 -.4 2.9 -1.2l1.9 1.8c-1.2 1.5 -2.8 2.4 -4.8 2.4ZM855 99.2c-1.9 0 -3.4 -.6 -4.6 -1.8c-1.3 -1.3 -1.8 -2.7 -1.8 -4.5c0 -1.8 .6 -3.2 1.8 -4.4c1.2 -1.3 2.8 -1.8 4.7 -1.8c0 0 .1 0 .2 0c1.7 0 3.2 .6 4.4 1.8c1.2 1.1 1.8 2.7 1.8 4.4c-.1 1.7 -.6 3.2 -1.8 4.4c-1.3 1.2 -2.8 1.9 -4.7 1.9Zm60.1 0c-1.9 0 -3.4 -.6 -4.6 -1.8c-1.3 -1.3 -1.9 -2.7 -1.9 -4.5c0 -1.8 .7 -3.2 1.9 -4.4c1.2 -1.3 2.8 -1.8 4.7 -1.8c0 0 .1 0 .2 0c1.7 0 3.2 .6 4.4 1.8c1.2 1.1 1.8 2.7 1.8 4.4c-.1 1.7 -.6 3.2 -1.9 4.4c-1.2 1.2 -2.7 1.9 -4.6 1.9Zm-94.3 3.3V86.8h3.3v1.8c.8 -1.3 2.2 -1.9 3.7 -1.9c0 0 .1 0 .1 0c1.3 0 2.6 .6 3.6 1.7c1 1 1.6 2.6 1.6 4.5c-.1 1.9 -.5 3.4 -1.6 4.5c-1 1.1 -2.3 1.7 -3.7 1.7c-1.6 -.1 -2.7 -.6 -3.7 -1.8v5.2Zm103 0V86.8h3.3v1.8c.9 -1.3 2.2 -1.9 3.7 -1.9c0 0 .1 0 .2 0c1.2 0 2.5 .6 3.5 1.7c1.1 1 1.6 2.6 1.6 4.5c-.1 1.9 -.5 3.4 -1.6 4.5c-1 1.1 -2.2 1.7 -3.7 1.7c-1.6 -.1 -2.7 -.6 -3.7 -1.8v5.2Zm141.6 0V86.8h3.3v1.8c.9 -1.3 2.2 -1.9 3.7 -1.9c0 0 .1 0 .1 0c1.3 0 2.6 .6 3.6 1.7c1.1 1 1.6 2.6 1.6 4.5c-.1 1.9 -.5 3.4 -1.6 4.5c-1 1.1 -2.3 1.7 -3.7 1.7c-1.6 -.1 -2.7 -.6 -3.7 -1.8v5.2Zm-9.8 -3.3c-1.2 0 -2.2 -.4 -2.9 -1c-.9 -.7 -1.2 -1.6 -1.2 -2.8c0 -1.4 .4 -2.3 1.3 -2.9c.8 -.8 2 -1 3.5 -1c.9 0 1.9 .2 2.9 .5v-.2c0 -1.5 -.9 -2.2 -2.6 -2.2c0 0 -.1 0 -.2 0c-1 0 -1.9 .3 -3 .7l-.9 -2.6c1.5 -.7 3 -1 4.7 -1q.1 0 .2 0c1.7 0 2.9 .5 3.8 1.3c.8 .8 1.3 2.2 1.3 3.9v7h-3.3V97.6c-.9 1 -2.1 1.6 -3.6 1.6ZM744.1 98.8V83.2h3.3V90l6.3 -6.8h4.1l-6.3 6.6l6.6 9H754l-4.8 -6.6L747.4 94v4.8ZM1024.2 85.5c-1.1 0 -1.8 -.3 -2.5 -.9c-.6 -.6 -1 -1.5 -1.1 -2.6l1.9 -.3c.2 .9 .9 1.5 1.7 1.5c.7 0 1.4 -.5 1.7 -1.5l2 .3c-.3 1.1 -.6 2 -1.2 2.6c-.7 .6 -1.5 .9 -2.5 .9Z"/></clipPath>
<clipPath id="c4_27"><path d="M532 774.1v-2h1.8v2Zm-34.7 -1c.9 0 1.7 -.2 2.4 -.7c.6 -.6 .9 -1.2 .9 -2v-.9c-.9 -.3 -1.9 -.4 -2.9 -.4c-.9 0 -1.6 .2 -2.1 .6c-.6 .2 -.8 .8 -.8 1.4c0 .6 .3 1.1 .8 1.5c.4 .3 1 .5 1.7 .5Zm24.9 -.3c.7 0 1.3 -.2 1.7 -.5c.5 -.4 .7 -.8 .7 -1.4c0 -.6 -.2 -1 -.7 -1.3c-.4 -.4 -1 -.5 -1.8 -.5h-2.6v3.7Zm-151.3 0v-7.4h-4.1v1.4c-.1 2.5 -.5 4.5 -1.3 6Zm34.2 -3.7v-3.7H402c-.8 0 -1.3 .2 -1.7 .5c-.5 .3 -.6 .8 -.6 1.3c-.1 .6 .2 1.1 .6 1.4c.4 .3 1 .5 1.7 .5Zm-59.3 4c1 0 1.9 -.4 2.6 -1.1c.6 -.8 1.1 -1.7 1.1 -2.8c0 -1.1 -.4 -2 -1.1 -2.8c-.8 -.8 -1.6 -1.1 -2.7 -1.1c0 0 -.1 0 -.2 0c-1 0 -1.8 .4 -2.4 1.1c-.8 .7 -1.1 1.7 -1.1 2.8c0 1.1 .4 2 1.1 2.8c.6 .7 1.6 1.1 2.7 1.1Zm72.5 0c1.1 0 1.9 -.4 2.5 -1.1c.6 -.8 .9 -1.7 .9 -2.8c0 -1.2 -.3 -2.1 -.9 -2.8c-.7 -.8 -1.5 -1.1 -2.5 -1.1q-.1 0 -.2 0c-.9 0 -1.7 .4 -2.3 1.1c-.6 .6 -.9 1.7 -.9 2.8c-.1 1.1 .3 2 1 2.8c.5 .7 1.4 1.1 2.4 1.1Zm68.4 0c1 0 1.9 -.4 2.5 -1.1c.6 -.8 1 -1.6 1 -2.8c0 -1.2 -.3 -2.1 -1 -2.8c-.8 -.8 -1.5 -1.1 -2.5 -1.1c0 0 -.1 0 -.2 0c-.9 0 -1.6 .4 -2.3 1.1c-.8 .6 -1.1 1.7 -1.1 2.8c-.1 1.1 .4 2.1 1.1 2.8c.6 .7 1.5 1.1 2.5 1.1Zm-126 -4.7c-.2 -.9 -.5 -1.6 -1 -2.2c-.6 -.6 -1.3 -.9 -2.3 -.9q-.1 0 -.2 0c-.8 0 -1.4 .3 -2 .9c-.7 .5 -1 1.3 -1.1 2.2Zm101.3 0c-.1 -.9 -.4 -1.6 -1 -2.2c-.6 -.6 -1.3 -.9 -2.2 -.9c-.1 0 -.2 0 -.2 0c-.9 0 -1.5 .3 -2.1 .9c-.7 .5 -.9 1.3 -1 2.2Zm-99.3 8.4v-4h1.1c.9 -1.7 1.4 -4 1.4 -6.9v-1.8h7.2v8.7h1.5v4h-1.5v-2.7h-8.1l-.3 2.7Zm12.7 -2.7v-10h1.5V772l5.9 -7.9h1.5v10h-1.6v-7.9l-5.8 7.9Zm11.8 0v-10h1.5v4.3h5.8v-4.3H396v10h-1.5v-4.3h-5.8v4.3Zm10.5 0l3.1 -3.9c-.8 -.2 -1.4 -.5 -1.9 -1.1c-.6 -.5 -.8 -1.1 -.8 -1.9c0 -.9 .4 -1.7 1 -2.2c.7 -.7 1.6 -.9 2.8 -.9h4.7v10h-1.5v-3.7h-2.7c-.2 .2 -.6 .7 -1.2 1.6c-.7 .9 -1.2 1.6 -1.6 2.1Zm42.1 2.7v-2.7H425.5v-10H427v8.7h4.8v-8.7h1.5v8.7h4.9v-8.7h1.6v8.7h1.5v4Zm3 -2.7v-10h1.6V772l5.8 -7.9h1.5v10h-1.6v-7.9l-5.8 7.9Zm27.2 0l3.9 -5.1l-3.7 -4.9h1.7l2.9 3.9l3 -3.9h1.7l-3.8 4.9l3.9 5.1h-1.7L474.8 770l-3.1 4.1Zm34.7 0v-10h1.5l3.7 5.3l3.7 -5.3H515v10h-1.5v-7.6l-3.6 5.1l-3.6 -5.1v7.6Zm13.2 0v-10h1.6v3.7h2.6c1.1 0 2.2 .2 2.9 .7c.7 .5 1.1 1.3 1.1 2.3c-.1 1 -.3 1.8 -1 2.4c-.8 .6 -1.6 .9 -2.8 .9Zm10 0v-10h1.5v10ZM335 774.4c-1.5 0 -2.6 -.5 -3.6 -1.5c-1.1 -1.1 -1.5 -2.3 -1.5 -3.7c0 -1.5 .5 -2.7 1.5 -3.7c.9 -1 2.2 -1.5 3.6 -1.5c.1 -.1 .2 -.1 .2 -.1c1.5 0 2.8 .7 3.9 1.9l-1 1c-1 -1.1 -2 -1.5 -3.1 -1.5c0 0 -.1 0 -.1 0c-1 0 -1.8 .4 -2.4 1.1c-.8 .7 -1.1 1.7 -1.1 2.8c0 1.1 .4 2 1.1 2.8c.6 .7 1.6 1.1 2.6 1.1c1 0 2.1 -.5 3 -1.5l1 .9c-1.2 1.3 -2.5 1.9 -4.1 1.9Zm10.7 0c-1.5 0 -2.7 -.5 -3.7 -1.5c-1.1 -1.1 -1.5 -2.3 -1.5 -3.7c0 -1.5 .5 -2.7 1.5 -3.7c1 -1 2.3 -1.5 3.8 -1.5c0 -.1 .1 -.1 .2 -.1c1.3 0 2.6 .6 3.5 1.6c1 1 1.5 2.2 1.5 3.7c0 1.4 -.5 2.7 -1.5 3.7c-1 1 -2.3 1.5 -3.8 1.5Zm72.6 0c-1.4 0 -2.5 -.4 -3.4 -1.3c-1 -.9 -1.4 -2 -1.5 -3.3h-2.2v4.3h-1.6v-10h1.6v4.3h2.2c.1 -1.2 .7 -2.3 1.6 -3.2c.8 -.9 2 -1.2 3.3 -1.2c.1 -.1 .2 -.1 .2 -.1c1.4 0 2.5 .6 3.4 1.6c.8 1 1.4 2.2 1.4 3.7c0 1.4 -.5 2.7 -1.4 3.7c-1 1 -2.1 1.5 -3.6 1.5Zm-60.7 0c-1.4 0 -2.6 -.5 -3.6 -1.4c-1 -1.1 -1.4 -2.3 -1.4 -3.8c0 -1.5 .4 -2.7 1.4 -3.7c.9 -1 2.1 -1.5 3.4 -1.5c.1 -.1 .2 -.1 .2 -.1c1.3 0 2.5 .6 3.3 1.6c.9 1 1.3 2.2 1.3 3.8c0 .1 0 .3 0 .5h-8.1c0 1 .5 1.8 1.2 2.4c.6 .6 1.4 .9 2.4 .9c1.2 0 2.3 -.5 3.2 -1.4l.9 .8c-1.2 1.3 -2.5 1.9 -4.2 1.9Zm101.4 0c-1.5 0 -2.6 -.5 -3.6 -1.4c-1 -1.1 -1.5 -2.3 -1.5 -3.8c0 -1.5 .5 -2.7 1.4 -3.7c.9 -1 2.1 -1.5 3.5 -1.5q.1 -.1 .2 -.1c1.3 0 2.5 .6 3.3 1.6c.8 1 1.3 2.2 1.3 3.8c0 .1 0 .3 -.1 .5h-8c0 1 .5 1.8 1.1 2.4c.7 .6 1.5 .9 2.4 .9c1.2 0 2.3 -.5 3.3 -1.4l.9 .8c-1.2 1.3 -2.5 1.9 -4.2 1.9Zm22.6 2.7v-13h1.5v2.1c1 -1.5 2.3 -2.2 3.9 -2.2c0 -.1 .1 -.1 .1 -.1c1.2 0 2.3 .6 3.2 1.5c.9 .8 1.5 2.2 1.5 3.8c-.1 1.5 -.5 2.8 -1.5 3.8c-1 .9 -2.1 1.4 -3.3 1.4c-1.6 0 -2.9 -.7 -3.9 -2.1v4.8ZM497 774.4c-1 0 -1.9 -.3 -2.6 -.8c-.8 -.7 -1.1 -1.4 -1.1 -2.4c0 -1.1 .4 -1.9 1.2 -2.5c.7 -.7 1.8 -.9 3.1 -.9c.9 0 2 .1 3 .5v-.4c0 -.9 -.2 -1.5 -.7 -1.9c-.6 -.6 -1.3 -.7 -2.2 -.7c-.1 0 -.2 0 -.3 0c-.9 0 -1.8 .3 -2.7 .7l-.5 -1.2c1.2 -.6 2.5 -.8 3.7 -.8c0 -.1 .1 -.1 .2 -.1c1.2 0 2.3 .5 3 1.2c.7 .6 1.1 1.6 1.1 2.9v6.1h-1.6v-1.5c-.9 1.2 -2.1 1.8 -3.6 1.8ZM415.5 751.5l-.3 -.7c.8 -.3 1.3 -.8 1.3 -1.5v-.2h-.7v-2h1.8v1.8c-.1 .7 -.2 1.3 -.5 1.7c-.4 .4 -.9 .7 -1.6 .9Zm482.1 0l-.2 -.7c.7 -.3 1.2 -.8 1.2 -1.5v-.2H898v-2h1.7v1.8c-.1 .7 -.1 1.3 -.5 1.7c-.4 .4 -.9 .7 -1.6 .9ZM508.4 747.8c.7 0 1.3 -.1 1.7 -.4c.3 -.4 .6 -.7 .6 -1.1c0 -.5 -.2 -.9 -.6 -1.1c-.5 -.3 -1.1 -.4 -1.9 -.4h-3.1v3Zm-102.4 0c.6 0 1.3 -.1 1.7 -.5c.4 -.3 .7 -.8 .7 -1.4c0 -.6 -.2 -1 -.7 -1.3c-.4 -.3 -1 -.4 -1.8 -.4h-2.6v3.6Zm23 .4c.9 0 1.7 -.3 2.3 -.8c.6 -.6 1 -1.1 1 -1.9v-.9c-1 -.3 -2 -.4 -2.9 -.4c-1 0 -1.6 .1 -2.2 .5c-.6 .3 -.7 .9 -.7 1.5c-.1 .6 .2 1.1 .7 1.4c.4 .3 1.1 .6 1.8 .6Zm24.9 0c.9 0 1.7 -.3 2.3 -.8c.6 -.6 1 -1.1 1 -1.9v-.9c-1 -.3 -2 -.4 -2.9 -.4c-1 0 -1.6 .1 -2.1 .5c-.7 .3 -.8 .9 -.8 1.5c-.1 .6 .2 1.1 .7 1.4c.4 .3 1.1 .6 1.8 .6Zm99.5 -.4c.7 0 1.3 -.1 1.8 -.5c.4 -.3 .6 -.8 .6 -1.4c0 -.6 -.2 -1 -.7 -1.3c-.4 -.3 -1 -.4 -1.8 -.4h-2.6v3.6Zm276.9 .4c.9 0 1.7 -.3 2.4 -.8c.6 -.6 .9 -1.1 .9 -1.9v-.9c-.9 -.3 -1.9 -.4 -2.9 -.4c-.9 0 -1.6 .1 -2.1 .5c-.6 .3 -.8 .9 -.8 1.5c0 .6 .3 1.1 .8 1.4c.4 .3 1 .6 1.7 .6Zm-433.1 -.4v-7.3h-4.1v1.4c-.1 2.5 -.5 4.5 -1.3 5.9Zm111 -4.3c.5 0 1.1 -.1 1.5 -.4c.3 -.4 .5 -.7 .5 -1.2c0 -.4 -.1 -.8 -.5 -1c-.4 -.3 -.8 -.4 -1.5 -.4h-3.1v3Zm24.8 4.3v-7.3h-4.1v1.4c-.1 2.5 -.5 4.5 -1.3 5.9Zm-149.7 .4c1 0 2 -.4 2.7 -1.2c.6 -.8 1 -1.6 1 -2.7c0 -1.2 -.4 -2.1 -1.1 -2.8c-.8 -.9 -1.6 -1.2 -2.7 -1.2c0 0 -.1 0 -.1 0c-1.1 0 -1.9 .5 -2.5 1.2c-.8 .6 -1.1 1.7 -1.1 2.8c0 1 .4 2 1.1 2.7c.6 .7 1.6 1.2 2.7 1.2Zm135.8 0c1 0 1.9 -.4 2.6 -1.2c.6 -.8 1.1 -1.6 1.1 -2.7c0 -1.2 -.4 -2.1 -1.1 -2.8c-.8 -.9 -1.6 -1.2 -2.7 -1.2c0 0 -.1 0 -.2 0c-1 0 -1.8 .5 -2.4 1.2c-.8 .6 -1.1 1.7 -1.1 2.8c0 1 .4 2 1.1 2.7c.6 .7 1.6 1.2 2.7 1.2Zm-171.8 0c.9 0 1.8 -.4 2.5 -1.1c.5 -.8 1 -1.7 1 -2.9c0 -1.1 -.4 -2.1 -1.1 -2.8c-.7 -.8 -1.5 -1.1 -2.4 -1.1c-.1 0 -.2 0 -.2 0c-.9 0 -1.7 .4 -2.4 1.1c-.8 .7 -1 1.7 -1 2.9c-.1 1.1 .3 2 1 2.7c.7 .7 1.6 1.2 2.6 1.2Zm24.1 0c1 0 1.9 -.4 2.5 -1.1c.6 -.8 1 -1.7 1 -2.9c0 -1.1 -.3 -2.1 -1 -2.8c-.8 -.8 -1.5 -1.1 -2.5 -1.1c0 0 -.1 0 -.2 0c-.9 0 -1.6 .4 -2.3 1.1c-.8 .7 -1.1 1.7 -1.1 2.9c-.1 1.1 .4 2 1.1 2.7c.6 .7 1.6 1.2 2.5 1.2Zm320.1 0c.9 0 1.8 -.4 2.5 -1.1c.6 -.8 1 -1.7 1 -2.9c0 -1.1 -.3 -2.1 -1 -2.8c-.8 -.8 -1.5 -1.1 -2.5 -1.1q-.1 0 -.2 0c-.9 0 -1.7 .4 -2.3 1.1c-.8 .7 -1.1 1.7 -1.1 2.9c-.1 1.1 .4 2 1.1 2.7c.6 .7 1.5 1.2 2.5 1.2Zm151.4 0c.9 0 1.8 -.4 2.5 -1.1c.5 -.8 1 -1.7 1 -2.9c0 -1.1 -.4 -2.1 -1 -2.8c-.8 -.8 -1.6 -1.1 -2.5 -1.1c-.1 0 -.2 0 -.2 0c-.9 0 -1.7 .4 -2.4 1.1c-.8 .7 -1 1.7 -1 2.9c-.1 1.1 .3 2 1 2.7c.7 .7 1.6 1.2 2.6 1.2Zm29.5 0c1 0 1.8 -.4 2.5 -1.1c.6 -.8 1 -1.7 1 -2.9c0 -1.1 -.3 -2.1 -1 -2.8c-.8 -.8 -1.5 -1.1 -2.5 -1.1q-.1 0 -.2 0c-.9 0 -1.6 .4 -2.3 1.1c-.8 .7 -1.1 1.7 -1.1 2.9c-.1 1.1 .4 2 1.1 2.7c.6 .7 1.5 1.2 2.5 1.2ZM494.7 743.5c-.1 -.9 -.4 -1.7 -1 -2.3c-.6 -.6 -1.3 -.9 -2.3 -.9c0 0 -.1 0 -.2 0c-.8 0 -1.4 .4 -2 .9c-.7 .6 -1 1.4 -1.1 2.3Zm121.9 0c-.1 -.9 -.4 -1.7 -1 -2.3c-.6 -.6 -1.3 -.9 -2.3 -.9c0 0 -.1 0 -.1 0c-.9 0 -1.5 .4 -2.1 .9c-.7 .6 -1 1.4 -1.1 2.3Zm143.7 0c-.2 -.9 -.5 -1.7 -1 -2.3c-.6 -.6 -1.3 -.9 -2.3 -.9q-.1 0 -.2 0c-.8 0 -1.5 .4 -2 .9c-.7 .6 -1 1.4 -1.1 2.3Zm-429.7 5.6v-9.9h8.6v9.9h-1.5v-8.6h-5.6v8.6Zm23.9 0v-9.9h1.6v7.9l5.8 -7.9h1.5v9.9h-1.6v-7.8l-5.8 7.8Zm34.5 2.7v-4h1.2c.8 -1.6 1.3 -3.9 1.3 -6.9v-1.7h7.2v8.6h1.5v4h-1.5v-2.7h-8.1l-.3 2.7Zm12.7 -2.7v-9.9h1.6v3.6h2.6c1.1 0 2.2 .3 2.9 .8c.7 .5 1.1 1.2 1.1 2.3c-.1 1 -.3 1.8 -1 2.4c-.8 .5 -1.6 .8 -2.8 .8Zm10 0v-9.9h1.5v9.9Zm32.7 0v-8.6h-3.7v-1.3h8.6v1.3h-3.4v8.6Zm16.9 0v-9.9h1.5v5.7l5.5 -5.7h1.8l-4.2 4.3l4.4 5.6h-1.8l-3.6 -4.5l-2.1 2.1v2.4Zm9.4 0l4.1 -5.7l-3.9 -4.2h1.8l5.1 5.8v-5.8h1.5V745l5.1 -5.8h1.8l-3.9 4.2l4.1 5.7h-1.7l-3.3 -4.6l-2.1 2.2v2.4h-1.5v-2.4l-2 -2.2l-3.4 4.6Zm32.9 0v-9.9h4.9c.9 0 1.8 .2 2.4 .7c.5 .4 .9 1 .9 1.8c-.1 1 -.6 1.9 -1.7 2.4c1.4 .3 2.1 1.2 2.1 2.4c0 .7 -.3 1.4 -1 1.9c-.6 .4 -1.5 .7 -2.6 .7Zm21.2 2.7v-4H526c.8 -1.6 1.3 -3.9 1.3 -6.9v-1.7h7.2v8.6H536v4h-1.5v-2.7h-8.1l-.3 2.7Zm12.7 -2.7v-9.9H539v4.3h5.8v-4.3h1.6v9.9h-1.6v-4.3H539v4.3Zm11.6 0v-9.9h1.6v3.6h2.6c1.1 0 2.2 .3 2.9 .8c.7 .5 1.1 1.2 1.1 2.3c0 1 -.3 1.8 -1 2.4c-.8 .5 -1.6 .8 -2.8 .8Zm10 0v-9.9h1.5v9.9Zm4.3 0v-9.9h1.5v7.9l5.9 -7.9h1.5v9.9h-1.6v-7.8l-5.8 7.8Zm17.1 0v-9.9H582v7.9l5.9 -7.9h1.5v9.9h-1.6v-7.8l-5.8 7.8Zm17.1 0v-9.9h8.7v9.9h-1.6v-8.6h-5.6v8.6Zm22.6 0v-9.9h1.5v8.6h4.8v-8.6H628v8.6h4.8v-8.6h1.5v9.9Zm17.1 0v-9.9h1.5v7.9l5.9 -7.9h1.4v9.9h-1.5v-7.8l-5.8 7.8Zm11.8 0v-9.9h1.5v7.9l5.8 -7.9h1.5v9.9h-1.5v-7.8l-5.9 7.8Zm19.7 0v-8.6h-3.6v-1.3h8.6v1.3h-3.5v8.6Zm8.1 3c-.8 0 -1.4 -.1 -2.1 -.5l.5 -1.2c.4 .2 1 .4 1.6 .4c.4 0 .8 -.1 1.1 -.4c.2 -.4 .6 -.8 .9 -1.4l-4.5 -9.8H676l3.7 8.2l3.2 -8.2h1.6l-4.2 10.2c-.5 .9 -.9 1.7 -1.5 2.1c-.5 .4 -1.1 .6 -1.9 .6Zm21.9 -3v-9.9h1.5v7.9l5.8 -7.9h1.5v9.9h-1.5v-7.8l-5.9 7.8Zm25 0v-8.6h-3.7v-1.3h8.7v1.3h-3.5v8.6Zm6.5 0v-9.9h1.6v7.9l5.8 -7.9h1.5v9.9h-1.5v-7.8l-5.9 7.8Zm18.1 0v-4.2c-.4 .2 -.9 .4 -1.6 .6c-.6 .2 -1.2 .3 -1.7 .3c-1.1 0 -1.8 -.2 -2.4 -.7c-.7 -.6 -.9 -1.3 -.9 -2.2v-3.7h1.5v3.4c-.1 .6 .2 1.1 .5 1.4c.3 .3 .9 .5 1.5 .5c1.1 0 2.2 -.3 3.1 -.9v-4.4h1.5v9.9Zm26 0v-9.9h1.5v5.7l5.5 -5.7h1.9l-4.2 4.3l4.3 5.6h-1.8L778 744.6l-2.1 2.1v2.4Zm10.5 0v-9.9h1.6v7.9l5.8 -7.9h1.5v9.9h-1.6v-7.8l-5.8 7.8Zm11.8 0v-9.9h1.5v7.9l5.8 -7.9h1.5v9.9H804v-7.8l-5.8 7.8Zm17.1 0v-9.9h1.5l3.7 5.2l3.6 -5.2h1.5v9.9h-1.5v-7.6l-3.7 5.1l-3.6 -5.1v7.6Zm36.3 0v-9.9h1.6v8.6h4.8v-8.6H858v8.6h4.8v-8.6h1.5v9.9Zm30.7 3c-.8 0 -1.4 -.1 -2.1 -.5l.5 -1.2c.4 .2 1 .4 1.6 .4c.4 0 .8 -.1 1.1 -.4c.2 -.4 .6 -.8 .9 -1.4l-4.5 -9.8h1.6l3.7 8.2l3.2 -8.2h1.6l-4.2 10.2c-.5 .9 -.9 1.7 -1.4 2.1c-.6 .4 -1.2 .6 -2 .6Zm12.1 -3v-8.6h-3.6v-1.3h8.6v1.3h-3.4v8.6ZM715 749.5c-1.5 0 -2.7 -.5 -3.7 -1.6c-1 -1 -1.4 -2.2 -1.4 -3.7c0 -1.4 .4 -2.6 1.4 -3.7c1 -1 2.2 -1.5 3.7 -1.5q.1 0 .2 0c1.4 0 2.7 .6 3.8 1.8l-.9 1c-1.1 -1.1 -2 -1.5 -3.1 -1.5q-.1 0 -.2 0c-1 0 -1.7 .5 -2.4 1.2c-.7 .6 -1 1.7 -1 2.8c-.1 1 .3 2 1 2.7c.7 .7 1.6 1.2 2.7 1.2c1 0 2 -.6 3 -1.6l1 .9c-1.3 1.3 -2.5 2 -4.1 2Zm53.3 0c-1.5 0 -2.7 -.5 -3.7 -1.6c-1 -1 -1.5 -2.2 -1.5 -3.7c0 -1.4 .5 -2.6 1.5 -3.7c1 -1 2.2 -1.5 3.7 -1.5c0 0 .1 0 .2 0c1.4 0 2.7 .6 3.8 1.8l-1 1c-1 -1.1 -1.9 -1.5 -3 -1.5c-.1 0 -.2 0 -.2 0c-1 0 -1.7 .5 -2.4 1.2c-.8 .6 -1 1.7 -1 2.8c-.1 1 .3 2 1 2.7c.6 .7 1.6 1.2 2.7 1.2c1 0 2 -.6 3 -1.6l1 .9c-1.3 1.3 -2.6 2 -4.1 2Zm-385.1 0c-1.5 0 -2.7 -.5 -3.7 -1.6c-1 -1 -1.5 -2.2 -1.5 -3.7c0 -1.4 .5 -2.6 1.5 -3.7c1 -1 2.3 -1.5 3.8 -1.5c0 0 .1 0 .2 0c1.3 0 2.6 .6 3.5 1.5c1 1 1.5 2.3 1.5 3.7c0 1.5 -.5 2.7 -1.5 3.7c-1 1 -2.3 1.6 -3.8 1.6Zm135.8 0c-1.5 0 -2.7 -.5 -3.7 -1.6c-1.1 -1 -1.5 -2.2 -1.5 -3.7c0 -1.4 .5 -2.6 1.5 -3.7c1 -1 2.3 -1.5 3.8 -1.5c0 0 .1 0 .2 0c1.3 0 2.6 .6 3.5 1.5c1 1 1.5 2.3 1.5 3.7c0 1.5 -.5 2.7 -1.5 3.7c-1 1 -2.3 1.6 -3.8 1.6Zm-27.3 0c-1.5 0 -2.7 -.5 -3.7 -1.5c-1 -1 -1.4 -2.2 -1.4 -3.8c0 -1.4 .4 -2.7 1.4 -3.7c.9 -1 2.1 -1.5 3.5 -1.5c0 0 .1 0 .2 0c1.3 0 2.4 .6 3.2 1.5c.9 1 1.3 2.3 1.3 3.8c0 .1 0 .4 0 .5h-8.1c.1 1 .5 1.9 1.2 2.5c.6 .5 1.5 .9 2.4 .9c1.2 0 2.3 -.5 3.2 -1.5l1 .9c-1.3 1.2 -2.6 1.9 -4.2 1.9Zm121.9 0c-1.5 0 -2.7 -.5 -3.6 -1.5c-1.1 -1 -1.5 -2.2 -1.5 -3.8c0 -1.4 .5 -2.7 1.4 -3.7c.9 -1 2.1 -1.5 3.5 -1.5c0 0 .1 0 .2 0c1.3 0 2.4 .6 3.3 1.5c.8 1 1.2 2.3 1.2 3.8c0 .1 0 .4 0 .5H610c.1 1 .5 1.9 1.2 2.5c.7 .5 1.5 .9 2.4 .9c1.2 0 2.3 -.5 3.2 -1.5l1 .9c-1.3 1.2 -2.6 1.9 -4.2 1.9Zm143.6 0c-1.4 0 -2.6 -.5 -3.6 -1.5c-1 -1 -1.5 -2.2 -1.5 -3.8c0 -1.4 .5 -2.7 1.4 -3.7c1 -1 2.1 -1.5 3.5 -1.5c.1 0 .2 0 .2 0c1.3 0 2.5 .6 3.3 1.5c.8 1 1.3 2.3 1.3 3.8c0 .1 0 .4 0 .5h-8.1c0 1 .5 1.9 1.2 2.5c.6 .5 1.4 .9 2.4 .9c1.1 0 2.3 -.5 3.2 -1.5l.9 .9c-1.2 1.2 -2.5 1.9 -4.2 1.9Zm-415.1 2.6V739.2h1.6v2c.9 -1.5 2.2 -2.2 3.8 -2.2q.1 0 .2 0c1.2 0 2.2 .5 3.2 1.4c.9 .9 1.4 2.3 1.4 3.9c-.1 1.5 -.5 2.8 -1.4 3.7c-1 .9 -2.1 1.5 -3.4 1.5c-1.6 0 -2.9 -.7 -3.8 -2.1v4.7Zm24.2 0V739.2h1.5v2c1 -1.5 2.3 -2.2 3.9 -2.2c0 0 .1 0 .1 0c1.2 0 2.3 .5 3.2 1.4c1 .9 1.5 2.3 1.5 3.9c-.1 1.5 -.5 2.8 -1.5 3.7c-1 .9 -2.1 1.5 -3.3 1.5c-1.6 0 -2.9 -.7 -3.9 -2.1v4.7Zm320.1 0V739.2h1.5v2c.9 -1.5 2.3 -2.2 3.8 -2.2c.1 0 .2 0 .2 0c1.2 0 2.3 .5 3.2 1.4c.9 .9 1.4 2.3 1.4 3.9c0 1.5 -.4 2.8 -1.4 3.7c-1 .9 -2.1 1.5 -3.4 1.5c-1.6 0 -2.8 -.7 -3.8 -2.1v4.7Zm151.3 0V739.2h1.6v2c.9 -1.5 2.3 -2.2 3.8 -2.2q.1 0 .2 0c1.2 0 2.3 .5 3.2 1.4c.9 .9 1.4 2.3 1.4 3.9c-.1 1.5 -.5 2.8 -1.4 3.7c-1 .9 -2.1 1.5 -3.4 1.5c-1.6 0 -2.9 -.7 -3.8 -2.1v4.7Zm29.6 0V739.2h1.5v2c.9 -1.5 2.3 -2.2 3.8 -2.2c.1 0 .2 0 .2 0c1.2 0 2.3 .5 3.2 1.4c.9 .9 1.5 2.3 1.5 3.9c-.1 1.5 -.5 2.8 -1.5 3.7c-1 .9 -2.1 1.5 -3.4 1.5c-1.6 0 -2.8 -.7 -3.8 -2.1v4.7ZM428.7 749.5c-1.1 0 -1.9 -.3 -2.7 -.9c-.7 -.6 -1.1 -1.4 -1.1 -2.4c0 -1.1 .4 -1.9 1.2 -2.5c.7 -.6 1.8 -.9 3.1 -.9c.9 0 2.1 .2 3.1 .5V743c0 -.9 -.3 -1.5 -.8 -2c-.6 -.5 -1.3 -.7 -2.2 -.7q-.1 0 -.2 0c-.9 0 -1.8 .3 -2.8 .7l-.5 -1.2c1.2 -.5 2.5 -.8 3.7 -.8c.1 0 .2 0 .2 0c1.3 0 2.3 .4 3 1.1c.7 .6 1.1 1.7 1.1 2.9v6.1h-1.5v-1.4c-.9 1.1 -2.1 1.8 -3.6 1.8Zm24.9 0c-1.1 0 -1.9 -.3 -2.6 -.9c-.8 -.6 -1.1 -1.4 -1.1 -2.4c0 -1.1 .3 -1.9 1.1 -2.5c.7 -.6 1.8 -.9 3.1 -.9c1 0 2.1 .2 3.1 .5V743c0 -.9 -.3 -1.5 -.8 -2c-.6 -.5 -1.2 -.7 -2.2 -.7c0 0 -.1 0 -.2 0c-.9 0 -1.8 .3 -2.8 .7l-.4 -1.2c1.1 -.5 2.4 -.8 3.6 -.8c.1 0 .2 0 .2 0c1.3 0 2.4 .4 3.1 1.1c.6 .6 1 1.7 1 2.9v6.1h-1.5v-1.4c-.9 1.1 -2.1 1.8 -3.6 1.8Zm376.4 0c-1 0 -1.9 -.3 -2.6 -.9c-.8 -.6 -1.1 -1.4 -1.1 -2.4c0 -1.1 .4 -1.9 1.2 -2.5c.7 -.6 1.8 -.9 3.1 -.9c.9 0 2 .2 3 .5V743c0 -.9 -.2 -1.5 -.7 -2c-.6 -.5 -1.3 -.7 -2.2 -.7c-.1 0 -.2 0 -.3 0c-.9 0 -1.8 .3 -2.7 .7l-.5 -1.2c1.2 -.5 2.5 -.8 3.7 -.8q.1 0 .2 0c1.3 0 2.3 .4 3 1.1c.7 .6 1.1 1.7 1.1 2.9v6.1h-1.6v-1.4c-.9 1.1 -2.1 1.8 -3.6 1.8Zm-262.2 -12c-.7 0 -1.3 -.2 -1.8 -.7c-.6 -.5 -.8 -1 -.9 -1.8l1 -.2c.3 .8 .8 1.4 1.7 1.4c.8 0 1.4 -.5 1.7 -1.4l1 .2c-.2 .7 -.4 1.4 -.9 1.8c-.6 .4 -1.1 .7 -1.8 .7Zm85.6 0c-.7 0 -1.2 -.2 -1.7 -.7c-.6 -.5 -.8 -1 -.9 -1.8l1 -.2c.2 .8 .8 1.4 1.6 1.4c.9 0 1.5 -.5 1.7 -1.4l1 .2c-.1 .7 -.4 1.4 -.9 1.8c-.5 .4 -1.1 .7 -1.8 .7Zm147.7 0c-.7 0 -1.3 -.2 -1.8 -.7c-.6 -.5 -.8 -1 -.9 -1.8l1 -.2c.2 .8 .8 1.4 1.7 1.4c.8 0 1.4 -.5 1.6 -1.4l1 .2c-.1 .7 -.4 1.4 -.9 1.8c-.5 .4 -1 .7 -1.7 .7ZM584 724.2v-2h1.8v2Zm-5.8 -1.3c.6 0 1.2 -.2 1.6 -.4c.4 -.4 .6 -.7 .6 -1.2c0 -.5 -.2 -.8 -.6 -1c-.5 -.3 -1 -.4 -1.8 -.4h-3.1v3Zm286.7 0c.6 0 1.3 -.2 1.7 -.4c.3 -.4 .6 -.7 .6 -1.2c-.1 -.5 -.2 -.8 -.7 -1c-.4 -.3 -1 -.4 -1.8 -.4h-3.1v3ZM402 723.2c.9 0 1.7 -.2 2.4 -.7c.6 -.6 .9 -1.2 .9 -2v-.9c-.9 -.3 -1.9 -.4 -2.9 -.4c-.9 0 -1.6 .2 -2.1 .6c-.6 .2 -.8 .8 -.8 1.4c0 .6 .3 1.1 .8 1.5c.4 .3 1 .5 1.7 .5Zm23 -.3c.7 0 1.4 -.2 1.8 -.5c.4 -.4 .6 -.8 .6 -1.4c0 -.6 -.2 -1 -.6 -1.3c-.4 -.4 -1 -.5 -1.8 -.5h-2.7v3.7Zm21.6 0c.7 0 1.4 -.2 1.8 -.5c.4 -.4 .6 -.8 .6 -1.4c0 -.6 -.2 -1 -.6 -1.3c-.5 -.4 -1.1 -.5 -1.8 -.5h-2.7v3.7Zm176.6 .3c.9 0 1.7 -.2 2.3 -.7c.6 -.6 1 -1.2 1 -2v-.9c-1 -.3 -2 -.4 -2.9 -.4c-1 0 -1.6 .2 -2.2 .6c-.6 .2 -.7 .8 -.7 1.4c-.1 .6 .2 1.1 .7 1.5c.4 .3 1.1 .5 1.8 .5Zm24.8 -.3c.7 0 1.4 -.2 1.8 -.5c.4 -.4 .6 -.8 .6 -1.4c0 -.6 -.2 -1 -.6 -1.3c-.5 -.4 -1.1 -.5 -1.8 -.5h-2.7v3.7Zm90.1 .3c.9 0 1.7 -.2 2.4 -.7c.6 -.6 .9 -1.2 .9 -2v-.9c-.9 -.3 -1.9 -.4 -2.9 -.4c-.9 0 -1.6 .2 -2.1 .6c-.6 .2 -.8 .8 -.8 1.4c0 .6 .3 1.1 .8 1.5c.4 .3 1 .5 1.7 .5Zm106.6 -.3c.7 0 1.4 -.2 1.8 -.5c.4 -.4 .6 -.8 .6 -1.4c0 -.6 -.2 -1 -.7 -1.3c-.4 -.4 -1 -.5 -1.8 -.5H842v3.7ZM578 718.5c.5 0 1.1 -.1 1.4 -.4c.4 -.3 .6 -.6 .6 -1.1c0 -.5 -.2 -.8 -.5 -1.1c-.4 -.2 -.9 -.3 -1.5 -.3h-3.1v2.9Zm90.2 4.7c.9 0 1.8 -.4 2.5 -1.1c.6 -.8 1 -1.7 1 -2.7c0 -1.1 -.3 -2 -1 -2.7c-.8 -.8 -1.6 -1.1 -2.6 -1.1c-1 0 -1.8 .3 -2.5 1.1c-.8 .7 -1 1.6 -1 2.7c-.1 1 .3 1.9 1 2.7c.6 .7 1.5 1.1 2.6 1.1Zm24.1 -.3v-7.3h-4.1v1.3c-.1 2.5 -.4 4.5 -1.3 6Zm172.4 -4.4c.5 0 1.1 -.1 1.5 -.4c.3 -.3 .5 -.6 .5 -1.1c0 -.5 -.2 -.8 -.5 -1.1c-.4 -.2 -.8 -.3 -1.5 -.3h-3.1v2.9Zm-529.5 4.7c1 0 1.9 -.4 2.6 -1.1c.6 -.8 1.1 -1.7 1.1 -2.8c0 -1.1 -.4 -2 -1.1 -2.8c-.8 -.8 -1.6 -1.1 -2.7 -1.1c0 0 -.1 0 -.2 0c-1 0 -1.8 .4 -2.4 1.1c-.8 .7 -1.1 1.7 -1.1 2.8c0 1.1 .4 2 1.1 2.8c.6 .7 1.6 1.1 2.7 1.1Zm166 0c1 0 2 -.4 2.7 -1.1c.6 -.8 1 -1.7 1 -2.8c0 -1.1 -.3 -2 -1.1 -2.8c-.8 -.8 -1.6 -1.1 -2.6 -1.1c-.1 0 -.2 0 -.2 0c-1.1 0 -1.8 .4 -2.5 1.1c-.8 .7 -1 1.7 -1 2.8c-.1 1.1 .3 2 1 2.8c.7 .7 1.6 1.1 2.7 1.1Zm20.5 0c1 0 2 -.4 2.7 -1.1c.6 -.8 1 -1.7 1 -2.8c0 -1.1 -.4 -2 -1.1 -2.8c-.8 -.8 -1.6 -1.1 -2.6 -1.1c-.1 0 -.2 0 -.2 0c-1.1 0 -1.9 .4 -2.5 1.1c-.8 .7 -1 1.7 -1 2.8c-.1 1.1 .3 2 1 2.8c.7 .7 1.6 1.1 2.7 1.1Zm44.2 0c1 0 2 -.4 2.7 -1.1c.6 -.8 1 -1.7 1 -2.8c0 -1.1 -.4 -2 -1.1 -2.8c-.8 -.8 -1.6 -1.1 -2.7 -1.1c0 0 -.1 0 -.1 0c-1.1 0 -1.9 .4 -2.5 1.1c-.8 .7 -1.1 1.7 -1.1 2.8c0 1.1 .4 2 1.1 2.8c.6 .7 1.6 1.1 2.7 1.1Zm206.4 0c1 0 1.9 -.4 2.6 -1.1c.6 -.8 1.1 -1.7 1.1 -2.8c0 -1.1 -.4 -2 -1.1 -2.8c-.8 -.8 -1.6 -1.1 -2.7 -1.1c0 0 -.1 0 -.2 0c-1 0 -1.8 .4 -2.4 1.1c-.8 .7 -1.1 1.7 -1.1 2.8c0 1.1 .4 2 1.1 2.8c.6 .7 1.6 1.1 2.7 1.1Zm23.2 0c1 0 2 -.4 2.7 -1.1c.6 -.8 1 -1.7 1 -2.8c0 -1.1 -.3 -2 -1.1 -2.8c-.8 -.8 -1.6 -1.1 -2.6 -1.1c-.1 0 -.2 0 -.2 0c-1.1 0 -1.8 .4 -2.5 1.1c-.8 .7 -1 1.7 -1 2.8c-.1 1.1 .3 2 1 2.8c.7 .7 1.6 1.1 2.7 1.1Zm85.4 0c1 0 2 -.4 2.7 -1.1c.6 -.8 1 -1.7 1 -2.8c0 -1.1 -.4 -2 -1.1 -2.8c-.8 -.8 -1.6 -1.1 -2.6 -1.1c-.1 0 -.2 0 -.2 0c-1.1 0 -1.9 .4 -2.5 1.1c-.8 .7 -1 1.7 -1 2.8c-.1 1.1 .3 2 1 2.8c.7 .7 1.6 1.1 2.7 1.1Zm-533.1 0c.9 0 1.8 -.4 2.5 -1.1c.5 -.8 1 -1.6 1 -2.8c0 -1.2 -.4 -2.1 -1.1 -2.8c-.7 -.8 -1.5 -1.1 -2.4 -1.1c-.1 0 -.2 0 -.2 0c-.9 0 -1.7 .4 -2.4 1.1c-.8 .6 -1 1.7 -1 2.8c-.1 1.1 .3 2.1 1 2.8c.7 .7 1.6 1.1 2.6 1.1Zm141.5 0c1 0 1.9 -.4 2.5 -1.1c.6 -.8 1 -1.6 1 -2.8c0 -1.2 -.3 -2.1 -1 -2.8c-.8 -.8 -1.5 -1.1 -2.5 -1.1c0 0 -.1 0 -.1 0c-1 0 -1.7 .4 -2.4 1.1c-.8 .6 -1.1 1.7 -1.1 2.8c0 1.1 .4 2.1 1.1 2.8c.6 .7 1.6 1.1 2.5 1.1Zm123.2 0c1 0 1.9 -.4 2.6 -1.1c.5 -.8 1 -1.6 1 -2.8c0 -1.2 -.4 -2.1 -1.1 -2.8c-.8 -.8 -1.5 -1.1 -2.5 -1.1c0 0 -.1 0 -.1 0c-1 0 -1.7 .4 -2.4 1.1c-.8 .6 -1.1 1.7 -1.1 2.8c0 1.1 .4 2.1 1.1 2.8c.6 .7 1.6 1.1 2.5 1.1Zm115 0c1 0 1.9 -.4 2.5 -1.1c.6 -.8 1 -1.6 1 -2.8c0 -1.2 -.3 -2.1 -1 -2.8c-.8 -.8 -1.5 -1.1 -2.5 -1.1c0 0 -.1 0 -.2 0c-.9 0 -1.6 .4 -2.3 1.1c-.8 .6 -1.1 1.7 -1.1 2.8c-.1 1.1 .4 2.1 1.1 2.8c.6 .7 1.6 1.1 2.5 1.1Zm176.5 0c1 0 1.8 -.4 2.5 -1.1c.6 -.8 1 -1.6 1 -2.8c0 -1.2 -.3 -2.1 -1 -2.8c-.8 -.8 -1.5 -1.1 -2.5 -1.1q-.1 0 -.2 0c-.9 0 -1.7 .4 -2.3 1.1c-.8 .6 -1.1 1.7 -1.1 2.8c-.1 1.1 .4 2.1 1.1 2.8c.6 .7 1.5 1.1 2.5 1.1Zm-78.7 -4.7c-.2 -.9 -.5 -1.6 -1 -2.2c-.6 -.6 -1.3 -.9 -2.3 -.9q-.1 0 -.2 0c-.8 0 -1.4 .3 -2 .9c-.7 .6 -1 1.3 -1.1 2.2Zm119.5 0c-.2 -.9 -.5 -1.6 -1 -2.2c-.6 -.6 -1.3 -.9 -2.3 -.9q-.1 0 -.2 0c-.8 0 -1.5 .3 -2 .9c-.7 .6 -1 1.3 -1.1 2.2ZM355 724.2v-10h1.6v7.9l5.8 -7.9h1.5v10h-1.6v-7.9l-5.8 7.9Zm11.8 0v-10h6.8v1.4h-5.3v8.6Zm8.5 0v-10h1.5v7.9l5.8 -7.9h1.5v10h-1.5v-7.9l-5.8 7.9Zm11.7 0v-10h1.6v4.3h5.8v-4.3h1.5v10h-1.5v-4.3h-5.8v4.3Zm21.9 .3c-.5 0 -.8 -.1 -1.3 -.3l.2 -1.1c.3 0 .6 .1 .7 .1c.3 0 .6 0 .7 -.1c.2 -.1 .4 -.3 .6 -.6c.2 -.4 .4 -.7 .5 -1.3c.1 -.5 .2 -1.3 .3 -2.4c0 -1.1 .2 -2.3 .2 -3.7v-.9h7.1v10h-1.5v-8.6h-4.1v.2c-.1 1.5 -.1 2.8 -.2 3.9c-.1 1.1 -.3 2 -.4 2.6c-.3 .6 -.5 1.1 -.8 1.4c-.4 .3 -.6 .6 -.9 .7c-.4 0 -.7 .1 -1.1 .1Zm11.9 -.3v-10h1.5v3.7H425c1.1 0 2.1 .2 2.9 .7c.7 .5 1.1 1.3 1.1 2.3c-.1 1 -.4 1.8 -1.1 2.4c-.7 .6 -1.6 .9 -2.7 .9Zm9.9 0v-10h1.6v4.3h5.8v-4.3h1.5v10h-1.5v-4.3h-5.8v4.3Zm11.7 0v-10h1.5v3.7h2.7c1.1 0 2.1 .2 2.8 .7c.8 .5 1.2 1.3 1.2 2.3c-.1 1 -.4 1.8 -1.1 2.4c-.7 .6 -1.6 .9 -2.8 .9Zm10 0v-10h1.5v10Zm3.3 0l4 -5.1l-3.8 -4.9h1.7l3 3.9l2.9 -3.9h1.7l-3.8 4.9l4 5.1h-1.8l-3.1 -4.1l-3.1 4.1Zm16.9 0v-10h8.7v10h-1.5v-8.6h-5.6v8.6Zm38.3 0v-8.6h-3.6v-1.4h8.6v1.4h-3.4v8.6Zm20.5 0v-8.6h-3.6v-1.4h8.6v1.4h-3.5v8.6Zm6.6 0v-10h1.5v7.9l5.8 -7.9h1.5v10h-1.5v-7.9l-5.9 7.9Zm11.7 0v-10h8.7v10h-1.6v-8.6h-5.5v8.6Zm23.6 0v-10h4.9c.9 0 1.8 .3 2.4 .7c.5 .5 .9 1.1 .9 1.9c-.1 1 -.5 1.8 -1.7 2.3c1.4 .3 2.2 1.2 2.2 2.4c0 .7 -.3 1.5 -1 2c-.7 .4 -1.6 .7 -2.7 .7Zm57.3 0v-10h1.5l3.6 5.3l3.7 -5.3h1.5v10h-1.6v-7.6l-3.6 5.1l-3.6 -5.1v7.6Zm13.2 0v-10h1.5v3.7H648c1.1 0 2.1 .2 2.8 .7c.7 .5 1.1 1.3 1.1 2.3c0 1 -.3 1.8 -1 2.4c-.7 .6 -1.6 .9 -2.8 .9Zm9.9 0v-10h1.6v10Zm22.9 3c-.8 0 -1.4 -.2 -2.1 -.5l.5 -1.2c.4 .1 1 .4 1.6 .4c.4 0 .8 -.2 1.1 -.4c.2 -.4 .6 -.8 .9 -1.5l-4.5 -9.8h1.6l3.7 8.2l3.2 -8.2h1.6l-4.3 10.2c-.5 .9 -.8 1.7 -1.4 2.2c-.5 .4 -1.1 .6 -1.9 .6Zm7.6 -.3v-4h1.1c.8 -1.7 1.4 -4 1.4 -6.9v-1.8h7.1v8.7h1.5v4h-1.5v-2.7h-8.1l-.3 2.7Zm14.2 .3c-.8 0 -1.4 -.2 -2.1 -.5l.5 -1.2c.4 .1 1 .4 1.5 .4c.4 0 .9 -.2 1.2 -.4c.2 -.4 .6 -.8 .9 -1.5l-4.6 -9.8h1.7l3.6 8.2l3.2 -8.2h1.6l-4.2 10.2c-.5 .9 -.9 1.7 -1.4 2.2c-.6 .4 -1.1 .6 -1.9 .6Zm12.1 -3v-8.6h-3.7v-1.4h8.7v1.4H712v8.6Zm45.6 0v-10h8.7v10h-1.6v-8.6h-5.5v8.6Zm22.9 .3c-.4 0 -.8 -.1 -1.2 -.3l.1 -1.1c.3 0 .6 .1 .8 .1c.2 0 .5 0 .6 -.1c.2 -.1 .4 -.3 .6 -.6c.2 -.4 .4 -.7 .5 -1.3c.1 -.5 .2 -1.3 .3 -2.4c0 -1.1 .2 -2.3 .2 -3.7v-.9H788v10h-1.5v-8.6h-4.1v.2c-.1 1.5 -.1 2.8 -.2 3.9c-.1 1.1 -.3 2 -.4 2.6c-.3 .6 -.5 1.1 -.8 1.4c-.3 .3 -.6 .6 -.9 .7c-.4 0 -.7 .1 -1.1 .1Zm22.2 -.3l4.2 -5.7l-3.9 -4.3h1.8l5.1 5.8v-5.8h1.5V720l5.1 -5.8h1.8l-3.9 4.3l4.1 5.7h-1.7l-3.4 -4.7l-2 2.3v2.4h-1.5v-2.4l-2.1 -2.3l-3.3 4.7Zm27.6 0v-10h1.6v4.3h5.7v-4.3h1.6v10h-1.6v-4.3h-5.7v4.3Zm11.6 0v-10H842v3.7h2.7c1.1 0 2.1 .2 2.8 .7c.7 .5 1.1 1.3 1.1 2.3c0 1 -.3 1.8 -1 2.4c-.7 .6 -1.6 .9 -2.8 .9Zm10 0v-10H852v10Zm9.7 0v-10H865c.9 0 1.8 .3 2.4 .7c.5 .5 .9 1.1 .9 1.9c-.1 1 -.6 1.8 -1.7 2.3c1.3 .3 2.1 1.2 2.1 2.4c0 .7 -.3 1.5 -1 2c-.6 .4 -1.5 .7 -2.6 .7Zm28.2 0v-10h1.6V720l5.5 -5.8h1.8l-4.2 4.3l4.3 5.7h-1.7L892 719.6l-2.1 2.2v2.4Zm24.1 3c-.8 0 -1.4 -.2 -2.1 -.5l.5 -1.2c.4 .1 1 .4 1.6 .4c.4 0 .8 -.2 1.1 -.4c.2 -.4 .6 -.8 .9 -1.5l-4.5 -9.8h1.6l3.7 8.2l3.2 -8.2H920l-4.2 10.2c-.5 .9 -.9 1.7 -1.5 2.2c-.5 .4 -1.1 .6 -1.9 .6Zm8.3 -3l4.1 -5.7L921 714.2h1.8l5 5.8v-5.8h1.6V720l5.1 -5.8h1.8l-3.9 4.3l4.1 5.7h-1.8l-3.3 -4.7l-2 2.3v2.4h-1.6v-2.4l-2 -2.3l-3.3 4.7Zm27.6 0v-10h1.5v4.3h5.8v-4.3h1.6v10h-1.6v-4.3h-5.8v4.3Zm11.6 0v-10h1.6v7.9l5.8 -7.9h1.5v10h-1.5v-7.9l-5.9 7.9Zm11.8 0v-10h1.5v7.9l5.9 -7.9h1.4v10H979v-7.9l-5.8 7.9ZM750 724.5c-1.5 0 -2.7 -.5 -3.7 -1.5c-1 -1.1 -1.4 -2.3 -1.4 -3.7c0 -1.5 .5 -2.7 1.4 -3.7c1 -1 2.3 -1.5 3.7 -1.5q.1 0 .2 0c1.4 0 2.7 .6 3.8 1.8l-.9 1c-1 -1.1 -2 -1.5 -3.1 -1.5q-.1 0 -.2 0c-1 0 -1.7 .4 -2.4 1.1c-.7 .7 -1 1.7 -1 2.8c-.1 1.1 .3 2 1.1 2.8c.6 .7 1.5 1.1 2.6 1.1c1 0 2.1 -.5 3 -1.5l1 .9c-1.3 1.3 -2.5 1.9 -4.1 1.9Zm-414.9 0c-1.5 0 -2.7 -.5 -3.7 -1.5c-1.1 -1.1 -1.5 -2.3 -1.5 -3.7c0 -1.5 .5 -2.7 1.5 -3.7c1 -1 2.3 -1.5 3.8 -1.5c0 0 .1 0 .2 0c1.3 0 2.6 .5 3.5 1.5c1 1 1.5 2.2 1.5 3.7c0 1.4 -.5 2.7 -1.5 3.7c-1 1 -2.3 1.5 -3.8 1.5Zm166.1 0c-1.6 0 -2.8 -.5 -3.8 -1.5c-1 -1.1 -1.5 -2.3 -1.5 -3.7c0 -1.5 .5 -2.7 1.5 -3.7c1 -1 2.3 -1.5 3.8 -1.5q.1 0 .2 0c1.3 0 2.6 .5 3.5 1.5c1 1 1.5 2.2 1.5 3.7c0 1.4 -.5 2.7 -1.5 3.7c-1 1 -2.2 1.5 -3.7 1.5Zm20.5 0c-1.6 0 -2.8 -.5 -3.8 -1.5c-1 -1.1 -1.5 -2.3 -1.5 -3.7c0 -1.5 .5 -2.7 1.5 -3.7c1 -1 2.3 -1.5 3.8 -1.5q.1 0 .2 0c1.3 0 2.6 .5 3.5 1.5c1 1 1.5 2.2 1.5 3.7c0 1.4 -.5 2.7 -1.5 3.7c-1 1 -2.2 1.5 -3.7 1.5Zm44.1 0c-1.5 0 -2.7 -.5 -3.7 -1.5c-1 -1.1 -1.5 -2.3 -1.5 -3.7c0 -1.5 .5 -2.7 1.5 -3.7c1 -1 2.3 -1.5 3.8 -1.5c0 0 .1 0 .2 0c1.3 0 2.6 .5 3.5 1.5c1 1 1.5 2.2 1.5 3.7c0 1.4 -.5 2.7 -1.5 3.7c-1 1 -2.3 1.5 -3.8 1.5Zm206.4 0c-1.5 0 -2.7 -.5 -3.7 -1.5c-1 -1.1 -1.5 -2.3 -1.5 -3.7c0 -1.5 .5 -2.7 1.5 -3.7c1 -1 2.3 -1.5 3.8 -1.5c0 0 .1 0 .2 0c1.3 0 2.6 .5 3.5 1.5c1 1 1.5 2.2 1.5 3.7c0 1.4 -.5 2.7 -1.5 3.7c-1 1 -2.3 1.5 -3.8 1.5Zm23.3 0c-1.6 0 -2.8 -.5 -3.8 -1.5c-1 -1.1 -1.5 -2.3 -1.5 -3.7c0 -1.5 .5 -2.7 1.6 -3.7c.9 -1 2.2 -1.5 3.7 -1.5q.1 0 .2 0c1.3 0 2.6 .5 3.5 1.5c1 1 1.6 2.2 1.6 3.7c-.1 1.4 -.6 2.7 -1.6 3.7c-1 1 -2.2 1.5 -3.7 1.5Zm85.4 0c-1.6 0 -2.8 -.5 -3.8 -1.5c-1 -1.1 -1.5 -2.3 -1.5 -3.7c0 -1.5 .5 -2.7 1.5 -3.7c1 -1 2.3 -1.5 3.8 -1.5q.1 0 .2 0c1.3 0 2.6 .5 3.5 1.5c1 1 1.5 2.2 1.5 3.7c0 1.4 -.5 2.7 -1.5 3.7c-1 1 -2.2 1.5 -3.7 1.5Zm-58.7 0c-1.4 0 -2.6 -.5 -3.6 -1.4c-1 -1.1 -1.4 -2.3 -1.4 -3.8c0 -1.5 .4 -2.7 1.4 -3.7c.9 -1 2.1 -1.5 3.4 -1.5c.1 0 .2 0 .2 0c1.3 0 2.5 .5 3.3 1.5c.9 1 1.3 2.2 1.3 3.8c0 .1 0 .3 0 .5h-8.1c0 1 .5 1.8 1.2 2.4c.6 .6 1.4 .9 2.4 .9c1.2 0 2.3 -.5 3.2 -1.4l.9 .8c-1.2 1.3 -2.5 1.9 -4.2 1.9Zm119.5 0c-1.4 0 -2.6 -.5 -3.6 -1.4c-1 -1.1 -1.5 -2.3 -1.5 -3.8c0 -1.5 .5 -2.7 1.4 -3.7c1 -1 2.1 -1.5 3.5 -1.5c.1 0 .2 0 .2 0c1.3 0 2.5 .5 3.3 1.5c.8 1 1.3 2.2 1.3 3.8c0 .1 0 .3 0 .5h-8.1c0 1 .5 1.8 1.2 2.4c.6 .6 1.4 .9 2.4 .9c1.1 0 2.3 -.5 3.2 -1.4l.9 .8c-1.2 1.3 -2.5 1.9 -4.2 1.9Zm-599.1 2.7v-13h1.6v2.1c.9 -1.5 2.2 -2.2 3.8 -2.2q.1 0 .2 0c1.2 0 2.3 .5 3.2 1.4c.9 .8 1.4 2.2 1.4 3.8c-.1 1.5 -.5 2.8 -1.4 3.8c-1 .9 -2.1 1.4 -3.4 1.4c-1.6 0 -2.9 -.7 -3.8 -2.1v4.8Zm141.6 0v-13h1.5v2.1c1 -1.5 2.3 -2.2 3.9 -2.2c0 0 .1 0 .2 0c1.1 0 2.2 .5 3.1 1.4c1 .8 1.5 2.2 1.5 3.8c-.1 1.5 -.5 2.8 -1.5 3.8c-1 .9 -2 1.4 -3.3 1.4c-1.6 0 -2.9 -.7 -3.9 -2.1v4.8Zm123.2 0v-13h1.5v2.1c1 -1.5 2.3 -2.2 3.9 -2.2c0 0 .1 0 .2 0c1.2 0 2.2 .5 3.2 1.4c.9 .8 1.4 2.2 1.4 3.8c-.1 1.5 -.5 2.8 -1.4 3.8c-1 .9 -2.1 1.4 -3.4 1.4c-1.6 0 -2.9 -.7 -3.9 -2.1v4.8Zm115 0v-13h1.5v2.1c1 -1.5 2.3 -2.2 3.9 -2.2c0 0 .1 0 .1 0c1.2 0 2.3 .5 3.2 1.4c.9 .8 1.5 2.2 1.5 3.8c-.1 1.5 -.5 2.8 -1.5 3.8c-1 .9 -2.1 1.4 -3.3 1.4c-1.6 0 -2.9 -.7 -3.9 -2.1v4.8Zm176.5 0v-13h1.5v2.1c.9 -1.5 2.3 -2.2 3.8 -2.2c.1 0 .2 0 .2 0c1.2 0 2.3 .5 3.2 1.4c.9 .8 1.4 2.2 1.4 3.8c0 1.5 -.4 2.8 -1.4 3.8c-1 .9 -2.1 1.4 -3.4 1.4c-1.6 0 -2.8 -.7 -3.8 -2.1v4.8ZM401.7 724.5c-1 0 -1.9 -.3 -2.6 -.8c-.8 -.6 -1.1 -1.4 -1.1 -2.4c0 -1.1 .4 -1.9 1.2 -2.5c.7 -.7 1.8 -.9 3.1 -.9c.9 0 2 .1 3 .5v-.3c0 -1 -.2 -1.6 -.8 -2c-.5 -.5 -1.2 -.7 -2.1 -.7c-.1 0 -.2 0 -.3 0c-.9 0 -1.8 .3 -2.7 .7l-.5 -1.2c1.2 -.6 2.5 -.8 3.7 -.8c0 0 .1 0 .2 0c1.2 0 2.3 .4 3 1.1c.7 .6 1.1 1.6 1.1 2.9v6.1h-1.6v-1.5c-.9 1.2 -2.1 1.8 -3.6 1.8Zm221.2 0c-1.1 0 -1.9 -.3 -2.7 -.8c-.7 -.6 -1.1 -1.4 -1.1 -2.4c0 -1.1 .4 -1.9 1.2 -2.5c.7 -.7 1.8 -.9 3.1 -.9c.9 0 2.1 .1 3.1 .5v-.3c0 -1 -.3 -1.6 -.8 -2c-.6 -.5 -1.2 -.7 -2.2 -.7q-.1 0 -.2 0c-.9 0 -1.8 .3 -2.8 .7l-.4 -1.2c1.1 -.6 2.4 -.8 3.6 -.8c.1 0 .2 0 .2 0c1.3 0 2.4 .4 3 1.1c.7 .6 1.1 1.6 1.1 2.9v6.1h-1.5v-1.5c-.9 1.2 -2.1 1.8 -3.6 1.8Zm114.9 0c-1 0 -1.9 -.3 -2.6 -.8c-.8 -.6 -1.1 -1.4 -1.1 -2.4c0 -1.1 .4 -1.9 1.2 -2.5c.7 -.7 1.8 -.9 3.1 -.9c.9 0 2 .1 3 .5v-.3c0 -1 -.2 -1.6 -.7 -2c-.6 -.5 -1.3 -.7 -2.2 -.7c-.1 0 -.2 0 -.3 0c-.9 0 -1.8 .3 -2.7 .7l-.5 -1.2c1.2 -.6 2.5 -.8 3.7 -.8c0 0 .1 0 .2 0c1.3 0 2.3 .4 3 1.1c.7 .6 1.1 1.6 1.1 2.9v6.1h-1.6v-1.5c-.9 1.2 -2.1 1.8 -3.6 1.8Zm-144.7 -.3l5.2 -7l-5.1 -6.6h1.9l4.1 5.5l4.1 -5.5h1.8l-5 6.6l5.2 7h-1.8l-4.3 -5.9l-4.4 5.9Zm75 .3c-1.5 0 -2.8 -.5 -3.7 -1.5c-.9 -1.1 -1.4 -2.4 -1.4 -4.2c0 -.7 0 -1.2 0 -1.6c0 -.6 .1 -1 .2 -1.5c0 -.6 .2 -1.1 .3 -1.4c.1 -.5 .4 -.8 .7 -1.2c.2 -.5 .6 -.7 1 -1c.4 -.3 1 -.4 1.5 -.6l5.6 -1.3l.3 1.3l-5.4 1.3c-1 .2 -1.7 .7 -2.1 1.3c-.5 .5 -.7 1.4 -.8 2.4c.8 -1.6 2.2 -2.3 4.1 -2.3c1.3 0 2.5 .5 3.4 1.5c.9 .9 1.4 2.2 1.4 3.6c0 1.4 -.5 2.7 -1.4 3.7c-1 1 -2.2 1.5 -3.7 1.5ZM954 697.9c.6 0 1.2 -.1 1.6 -.4c.4 -.3 .7 -.6 .7 -1.1c-.1 -.5 -.3 -.8 -.7 -1.1c-.5 -.3 -1 -.4 -1.8 -.4h-3.1v3Zm-573.9 .4c.9 0 1.7 -.3 2.3 -.8c.6 -.6 1 -1.1 1 -1.9v-.9c-1 -.3 -2 -.4 -2.9 -.4c-1 0 -1.7 .1 -2.2 .5c-.6 .3 -.7 .9 -.7 1.5c-.1 .6 .2 1.1 .7 1.4c.4 .3 1.1 .6 1.8 .6Zm138.1 0c.9 0 1.7 -.3 2.3 -.8c.7 -.6 1 -1.1 1 -1.9v-.9c-1 -.3 -1.9 -.4 -2.9 -.4c-.9 0 -1.6 .1 -2.1 .5c-.6 .3 -.8 .9 -.8 1.5c-.1 .6 .2 1.1 .7 1.4c.4 .3 1.1 .6 1.8 .6Zm120.7 -.4c.6 0 1.3 -.1 1.7 -.5c.4 -.3 .7 -.8 .7 -1.4c0 -.6 -.3 -1 -.7 -1.3c-.4 -.3 -1 -.4 -1.8 -.4h-2.7v3.6Zm79.6 0c.7 0 1.4 -.1 1.8 -.5c.4 -.3 .6 -.8 .6 -1.4c0 -.6 -.2 -1 -.6 -1.3c-.5 -.3 -1.1 -.4 -1.8 -.4h-2.7v3.6Zm53.4 0c.7 0 1.4 -.1 1.8 -.5c.4 -.3 .6 -.8 .6 -1.4c0 -.6 -.2 -1 -.6 -1.3c-.5 -.3 -1.1 -.4 -1.8 -.4h-2.7v3.6Zm-399.7 0v-7.3h-4.1V692c-.1 2.5 -.5 4.5 -1.3 5.9Zm465.2 .4c1 0 1.9 -.4 2.6 -1.2c.5 -.8 1 -1.6 1 -2.7c0 -1.1 -.4 -1.9 -1.1 -2.7c-.8 -.8 -1.5 -1.1 -2.5 -1.1c-1.1 0 -1.9 .4 -2.5 1.1c-.8 .7 -1.1 1.7 -1.1 2.7c0 1 .4 2 1.1 2.7c.6 .7 1.5 1.2 2.5 1.2Zm116.4 -4.7c.5 0 1.1 -.1 1.4 -.4c.4 -.4 .6 -.7 .6 -1.2c0 -.4 -.2 -.8 -.5 -1c-.4 -.3 -.9 -.4 -1.5 -.4h-3.1v3ZM349 698.3c1 0 2 -.4 2.7 -1.2c.6 -.8 1 -1.6 1 -2.7c0 -1.2 -.3 -2.1 -1.1 -2.8c-.8 -.9 -1.6 -1.2 -2.6 -1.2c-.1 0 -.2 0 -.2 0c-1.1 0 -1.8 .5 -2.5 1.2c-.8 .6 -1 1.7 -1 2.8c-.1 1 .3 2 1 2.7c.7 .7 1.7 1.2 2.7 1.2Zm139.9 0c.9 0 1.9 -.4 2.6 -1.2c.6 -.8 1.1 -1.6 1.1 -2.7c0 -1.2 -.4 -2.1 -1.1 -2.8c-.8 -.9 -1.6 -1.2 -2.7 -1.2c0 0 -.1 0 -.2 0c-1 0 -1.8 .5 -2.4 1.2c-.8 .6 -1.1 1.7 -1.1 2.8c0 1 .4 2 1.1 2.7c.6 .7 1.6 1.2 2.7 1.2Zm313.6 0c1 0 2 -.4 2.7 -1.2c.6 -.8 1.1 -1.6 1.1 -2.7c0 -1.2 -.4 -2.1 -1.1 -2.8c-.8 -.9 -1.6 -1.2 -2.7 -1.2q-.1 0 -.2 0c-1 0 -1.8 .5 -2.5 1.2c-.7 .6 -1 1.7 -1 2.8c-.1 1 .4 2 1.1 2.7c.6 .7 1.6 1.2 2.6 1.2Zm22.7 0c1 0 2 -.4 2.7 -1.2c.6 -.8 1 -1.6 1 -2.7c0 -1.2 -.3 -2.1 -1.1 -2.8c-.8 -.9 -1.6 -1.2 -2.6 -1.2c-.1 0 -.2 0 -.2 0c-1.1 0 -1.9 .5 -2.5 1.2c-.8 .6 -1 1.7 -1 2.8c-.1 1 .3 2 1 2.7c.7 .7 1.6 1.2 2.7 1.2Zm58.4 0c1 0 1.9 -.4 2.6 -1.2c.6 -.8 1.1 -1.6 1.1 -2.7c0 -1.2 -.4 -2.1 -1.1 -2.8c-.8 -.9 -1.6 -1.2 -2.7 -1.2c0 0 -.1 0 -.2 0c-1 0 -1.8 .5 -2.4 1.2c-.8 .6 -1.1 1.7 -1.1 2.8c0 1 .4 2 1.1 2.7c.6 .7 1.6 1.2 2.7 1.2Zm81 0c1 0 2 -.4 2.7 -1.2c.6 -.8 1.1 -1.6 1.1 -2.7c0 -1.2 -.4 -2.1 -1.1 -2.8c-.8 -.9 -1.6 -1.2 -2.7 -1.2q-.1 0 -.2 0c-1.1 0 -1.8 .5 -2.5 1.2c-.7 .6 -1 1.7 -1 2.8c-.1 1 .4 2 1.1 2.7c.6 .7 1.6 1.2 2.6 1.2Zm-433.9 0c1 0 1.9 -.4 2.5 -1.1c.6 -.8 1 -1.7 1 -2.9c0 -1.1 -.3 -2.1 -1 -2.8c-.8 -.8 -1.5 -1.1 -2.5 -1.1c0 0 -.1 0 -.1 0c-1 0 -1.7 .5 -2.4 1.1c-.8 .7 -1.1 1.7 -1.1 2.9c0 1.1 .4 2 1.1 2.8c.6 .6 1.6 1.1 2.5 1.1Zm85 0c1 0 1.8 -.4 2.5 -1.1c.6 -.8 1 -1.7 1 -2.9c0 -1.1 -.3 -2.1 -1 -2.8c-.8 -.8 -1.5 -1.1 -2.5 -1.1c0 0 -.1 0 -.2 0c-.9 0 -1.6 .5 -2.3 1.1c-.8 .7 -1.1 1.7 -1.1 2.9c-.1 1.1 .4 2 1.1 2.8c.6 .6 1.5 1.1 2.5 1.1Zm133.1 0c.9 0 1.8 -.4 2.5 -1.1c.6 -.8 1 -1.7 1 -2.9c0 -1.1 -.3 -2.1 -1 -2.8c-.8 -.8 -1.5 -1.1 -2.5 -1.1q-.1 0 -.2 0c-.9 0 -1.7 .5 -2.3 1.1c-.9 .7 -1.1 1.7 -1.1 2.9c-.1 1.1 .3 2 1.1 2.8c.6 .6 1.5 1.1 2.5 1.1ZM418.3 693.6c-.2 -.9 -.4 -1.7 -1 -2.3c-.6 -.6 -1.3 -.9 -2.3 -.9c0 0 -.1 0 -.2 0c-.8 0 -1.4 .4 -2 .9c-.7 .6 -1 1.4 -1.1 2.3Zm54 0c-.2 -.9 -.5 -1.7 -1 -2.3c-.6 -.6 -1.3 -.9 -2.3 -.9q-.1 0 -.2 0c-.8 0 -1.5 .4 -2 .9c-.7 .6 -1 1.4 -1.1 2.3Zm104 0c-.1 -.9 -.4 -1.7 -1 -2.3c-.6 -.6 -1.3 -.9 -2.3 -.9c0 0 -.1 0 -.1 0c-.9 0 -1.5 .4 -2.1 .9c-.7 .6 -1 1.4 -1.1 2.3Zm275.9 0c-.2 -.9 -.5 -1.7 -1 -2.3c-.6 -.6 -1.3 -.9 -2.3 -.9q-.1 0 -.2 0c-.8 0 -1.4 .4 -2 .9c-.7 .6 -1 1.4 -1.1 2.3Zm65.7 0c-.1 -.9 -.4 -1.7 -1 -2.3c-.6 -.6 -1.3 -.9 -2.3 -.9c0 0 -.1 0 -.1 0c-.9 0 -1.5 .4 -2.1 .9c-.7 .6 -1 1.4 -1.1 2.3ZM364 701.9v-4h1.1c.9 -1.6 1.4 -3.9 1.4 -6.9v-1.7h7.2v8.6h1.5v4h-1.5v-2.6h-8.1l-.3 2.6Zm23.5 -2.6v-10H389v4.3h5.8v-4.3h1.5v10h-1.5v-4.4H389v4.4Zm11.6 0v-10h1.5v7.9l5.8 -7.9h1.5v10h-1.5v-7.9l-5.8 7.9Zm45.6 2.9c-.8 0 -1.5 -.1 -2.2 -.5l.5 -1.1c.4 .1 1 .3 1.6 .3c.4 0 .8 -.1 1.1 -.4c.3 -.4 .7 -.7 1 -1.4l-4.6 -9.8h1.7l3.6 8.2l3.2 -8.2h1.6L448 699.5c-.5 .9 -.9 1.7 -1.4 2.1c-.6 .4 -1.2 .6 -1.9 .6Zm15.7 -2.9V695c-.4 .2 -.9 .4 -1.6 .6c-.6 .2 -1.2 .3 -1.7 .3c-1.1 0 -1.8 -.2 -2.4 -.7c-.7 -.6 -.9 -1.3 -.9 -2.2v-3.7h1.5v3.4c-.1 .6 .2 1.1 .5 1.4c.4 .3 .9 .5 1.5 .5c1.1 0 2.2 -.3 3.1 -.9v-4.4h1.5v10Zm17.7 0v-8.7h-3.7v-1.3h8.7v1.3h-3.5v8.7Zm18.2 0v-10h1.5l3.7 5.2l3.7 -5.2h1.4v10h-1.5v-7.7l-3.7 5.1l-3.6 -5.1v7.7Zm40.4 0l3.9 -5.1l-3.8 -4.9h1.8l2.9 3.8l3 -3.8h1.7l-3.8 4.8l3.9 5.2h-1.7l-3.1 -4.1l-3.1 4.1Zm11.6 0v-10h1.5v7.9l5.8 -7.9h1.5v10h-1.5v-7.9l-5.9 7.9Zm14.4 0v-8.7H559v-1.3h8.7v1.3h-3.5v8.7Zm17.2 0v-10h1.5V695l5.5 -5.7h1.8l-4.2 4.3l4.3 5.7h-1.7l-3.6 -4.6l-2.1 2.1v2.5Zm13.1 0v-8.7h-3.6v-1.3H598v1.3h-3.4v8.7Zm8.1 2.9c-.8 0 -1.4 -.1 -2.1 -.5l.5 -1.1c.4 .1 1 .3 1.6 .3c.4 0 .8 -.1 1.1 -.4c.2 -.4 .6 -.7 .9 -1.4l-4.5 -9.8h1.6l3.7 8.2l3.2 -8.2h1.6l-4.2 10.2c-.5 .9 -.9 1.7 -1.4 2.1c-.6 .4 -1.2 .6 -2 .6ZM623 699.3v-10h1.5v4.3h5.8v-4.3h1.5v10h-1.5v-4.4h-5.8v4.4Zm11.6 0v-10h1.5v3.6h2.7c1.1 0 2.1 .3 2.9 .8c.7 .5 1.1 1.2 1.1 2.3c-.1 1 -.4 1.8 -1 2.4c-.8 .5 -1.7 .9 -2.8 .9Zm10 0v-10h1.5v10Zm3.4 0l3.9 -5.1l-3.8 -4.9h1.7l3 3.8l3 -3.8h1.6l-3.8 4.8l4 5.2h-1.7l-3.1 -4.1l-3.2 4.1Zm16.9 0v-10h1.5v7.9l5.8 -7.9h1.5v10h-1.5v-7.9l-5.8 7.9Zm17.1 0v-10h1.5V695l5.5 -5.7h1.8l-4.2 4.3l4.3 5.7h-1.7l-3.6 -4.6l-2.1 2.1v2.5Zm12 2.9c-.8 0 -1.4 -.1 -2.1 -.5l.5 -1.1c.4 .1 1 .3 1.6 .3c.4 0 .8 -.1 1.1 -.4c.2 -.4 .6 -.7 .9 -1.4l-4.5 -9.8h1.6l3.7 8.2l3.2 -8.2h1.6l-4.2 10.2c-.5 .9 -.9 1.7 -1.4 2.1c-.6 .4 -1.2 .6 -2 .6Zm8.4 -2.6c-.5 0 -.9 -.1 -1.3 -.3l.2 -1.2c.3 0 .5 .2 .7 .2c.3 0 .5 -.1 .7 -.1c.1 -.2 .4 -.3 .6 -.6c.2 -.4 .4 -.8 .5 -1.3c0 -.6 .2 -1.4 .3 -2.4c0 -1.1 .1 -2.3 .1 -3.8v-.8h7.2v10h-1.5v-8.7h-4.1v.2c-.1 1.5 -.1 2.9 -.2 4c-.2 1 -.3 1.9 -.5 2.5c-.2 .6 -.4 1.1 -.7 1.5c-.4 .3 -.6 .5 -.9 .6c-.4 .1 -.7 .2 -1.1 .2Zm11.9 -.3v-10h1.5v3.6h2.7c1.1 0 2.1 .3 2.8 .8c.8 .5 1.2 1.2 1.2 2.3c-.1 1 -.4 1.8 -1.1 2.4c-.7 .5 -1.6 .9 -2.8 .9Zm11.8 0v-8.7h-3.7v-1.3h8.7v1.3h-3.5v8.7Zm8.1 2.9c-.8 0 -1.4 -.1 -2.1 -.5l.5 -1.1c.4 .1 1 .3 1.6 .3c.4 0 .8 -.1 1.1 -.4c.2 -.4 .6 -.7 .9 -1.4l-4.5 -9.8h1.6l3.7 8.2l3.2 -8.2h1.6l-4.3 10.2c-.5 .9 -.9 1.7 -1.4 2.1c-.5 .4 -1.1 .6 -1.9 .6ZM756 699.3v-10h1.6v4.3h5.8v-4.3h1.5v10h-1.5v-4.4h-5.8v4.4Zm11.7 0v-10h1.5v3.6h2.7c1.1 0 2.1 .3 2.8 .8c.8 .5 1.2 1.2 1.2 2.3c-.1 1 -.4 1.8 -1.1 2.4c-.7 .5 -1.6 .9 -2.8 .9Zm10 0v-10h1.5v10Zm3.3 0l4 -5.1l-3.8 -4.9h1.7l3 3.8l2.9 -3.8h1.7l-3.8 4.8l4 5.2h-1.8l-3.1 -4.1l-3.1 4.1Zm74.7 0v-10h1.6v4.3H863v-4.3h1.6v10H863v-4.4h-5.7v4.4Zm11.6 0v-10h1.6v4.3h5.8v-4.3h1.5v10h-1.5v-4.4h-5.8v4.4Zm37 0v-8.7h-3.7v-1.3h8.7v1.3h-3.5v8.7Zm17.2 0v-10H923v7.9l5.8 -7.9h1.5v10h-1.5v-7.9l-5.9 7.9Zm27.6 0v-10H954c1 0 1.8 .2 2.4 .7c.5 .4 .9 1 .9 1.8c0 1 -.5 1.9 -1.7 2.4c1.4 .3 2.2 1.2 2.2 2.4c0 .7 -.3 1.4 -1 1.9c-.7 .4 -1.5 .8 -2.6 .8Zm23 0v-10h1.5v7.9l5.8 -7.9h1.5v10h-1.5v-7.9l-5.8 7.9Zm10.8 0l4 -5.1l-3.8 -4.9h1.7l3 3.8l2.9 -3.8h1.7l-3.8 4.8l4 5.2h-1.8l-3.1 -4.1l-3.1 4.1Zm-551.2 .3c-1.5 0 -2.7 -.5 -3.7 -1.6c-1 -1 -1.5 -2.2 -1.5 -3.6c0 -1.5 .5 -2.7 1.5 -3.7c.9 -1.1 2.2 -1.6 3.7 -1.6c0 0 .1 0 .1 0c1.5 0 2.8 .7 3.9 1.8l-1 1c-1 -1.1 -1.9 -1.5 -3.1 -1.5c0 0 -.1 0 -.1 0c-1 0 -1.8 .5 -2.4 1.2c-.8 .6 -1.1 1.7 -1.1 2.8c0 1 .4 2 1.1 2.7c.6 .7 1.6 1.2 2.6 1.2c1 0 2.1 -.5 3.1 -1.6l.9 1c-1.2 1.2 -2.5 1.9 -4 1.9Zm382.8 0c-1.5 0 -2.7 -.5 -3.7 -1.6c-1 -1 -1.5 -2.2 -1.5 -3.6c0 -1.5 .5 -2.7 1.5 -3.7c1 -1.1 2.2 -1.6 3.7 -1.6c0 0 .1 0 .1 0c1.5 0 2.8 .7 3.9 1.8l-1 1c-1 -1.1 -1.9 -1.5 -3 -1.5c-.1 0 -.2 0 -.2 0c-1 0 -1.7 .5 -2.4 1.2c-.8 .6 -1 1.7 -1 2.8c-.1 1 .3 2 1 2.7c.6 .7 1.6 1.2 2.6 1.2c1 0 2.1 -.5 3.1 -1.6l1 1c-1.3 1.2 -2.6 1.9 -4.1 1.9Zm81 0c-1.5 0 -2.7 -.5 -3.7 -1.6c-1 -1 -1.4 -2.2 -1.4 -3.6c0 -1.5 .5 -2.7 1.4 -3.7c1 -1.1 2.2 -1.6 3.7 -1.6q.1 0 .2 0c1.4 0 2.7 .7 3.8 1.8l-.9 1c-1 -1.1 -2 -1.5 -3.1 -1.5q-.1 0 -.2 0c-1 0 -1.7 .5 -2.4 1.2c-.7 .6 -1 1.7 -1 2.8c-.1 1 .3 2 1 2.7c.7 .7 1.6 1.2 2.7 1.2c1 0 2.1 -.5 3 -1.6l1 1c-1.3 1.2 -2.5 1.9 -4.1 1.9Zm47.5 0c-1.5 0 -2.6 -.5 -3.6 -1.6c-1.1 -1 -1.5 -2.2 -1.5 -3.6c0 -1.5 .5 -2.7 1.5 -3.7c.9 -1.1 2.2 -1.6 3.6 -1.6q.1 0 .2 0c1.4 0 2.8 .7 3.8 1.8l-.9 1c-1 -1.1 -2 -1.5 -3.1 -1.5q-.1 0 -.2 0c-.9 0 -1.7 .5 -2.3 1.2c-.8 .6 -1.1 1.7 -1.1 2.8c-.1 1 .4 2 1.1 2.7c.6 .7 1.6 1.2 2.6 1.2c1 0 2.1 -.5 3 -1.6l1 1c-1.2 1.2 -2.5 1.9 -4.1 1.9Zm-594 0c-1.6 0 -2.8 -.5 -3.8 -1.5c-1 -1.1 -1.5 -2.3 -1.5 -3.8c0 -1.4 .5 -2.6 1.6 -3.6c.9 -1.1 2.2 -1.6 3.7 -1.6q.1 0 .2 0c1.3 0 2.6 .6 3.6 1.5c.9 1.1 1.5 2.3 1.5 3.7c-.1 1.5 -.5 2.7 -1.6 3.7c-1 1 -2.2 1.6 -3.7 1.6Zm139.8 0c-1.6 0 -2.7 -.5 -3.7 -1.5c-1.1 -1.1 -1.5 -2.3 -1.5 -3.8c0 -1.4 .5 -2.6 1.5 -3.6c.9 -1.1 2.3 -1.6 3.8 -1.6c0 0 .1 0 .1 0c1.4 0 2.6 .6 3.6 1.5c1 1.1 1.5 2.3 1.5 3.7c-.1 1.5 -.5 2.7 -1.5 3.7c-1 1 -2.3 1.6 -3.8 1.6Zm313.7 0c-1.6 0 -2.7 -.5 -3.7 -1.5c-1.1 -1.1 -1.5 -2.3 -1.5 -3.8c0 -1.4 .5 -2.6 1.5 -3.6c.9 -1.1 2.3 -1.6 3.7 -1.6c.1 0 .2 0 .2 0c1.4 0 2.6 .6 3.6 1.5c1 1.1 1.5 2.3 1.5 3.7c-.1 1.5 -.5 2.7 -1.5 3.7c-1 1 -2.3 1.6 -3.8 1.6Zm22.7 0c-1.6 0 -2.8 -.5 -3.8 -1.5c-1 -1.1 -1.5 -2.3 -1.5 -3.8c0 -1.4 .5 -2.6 1.5 -3.6c1 -1.1 2.3 -1.6 3.8 -1.6q.1 0 .2 0c1.3 0 2.6 .6 3.5 1.5c1 1.1 1.5 2.3 1.5 3.7c0 1.5 -.5 2.7 -1.5 3.7c-1 1 -2.2 1.6 -3.7 1.6Zm58.3 0c-1.5 0 -2.7 -.5 -3.7 -1.5c-1.1 -1.1 -1.5 -2.3 -1.5 -3.8c0 -1.4 .5 -2.6 1.5 -3.6c1 -1.1 2.3 -1.6 3.8 -1.6c0 0 .1 0 .2 0c1.3 0 2.6 .6 3.5 1.5c1 1.1 1.5 2.3 1.5 3.7c0 1.5 -.5 2.7 -1.5 3.7c-1 1 -2.3 1.6 -3.8 1.6Zm81.1 0c-1.6 0 -2.7 -.5 -3.7 -1.5c-1.1 -1.1 -1.5 -2.3 -1.5 -3.8c0 -1.4 .5 -2.6 1.5 -3.6c.9 -1.1 2.2 -1.6 3.7 -1.6c.1 0 .2 0 .2 0c1.4 0 2.6 .6 3.6 1.5c1 1.1 1.5 2.3 1.5 3.7c-.1 1.5 -.5 2.7 -1.5 3.7c-1.1 1 -2.3 1.6 -3.8 1.6Zm-549.3 0c-1.5 0 -2.7 -.5 -3.7 -1.5c-1 -1 -1.4 -2.2 -1.4 -3.8c0 -1.4 .4 -2.7 1.4 -3.7c.9 -1 2.1 -1.5 3.5 -1.5c0 0 .1 0 .1 0c1.4 0 2.5 .6 3.3 1.5c.9 1 1.3 2.3 1.3 3.8c0 .2 0 .4 0 .5h-8.1c0 1 .5 1.9 1.2 2.5c.6 .5 1.5 .9 2.4 .9c1.2 0 2.3 -.5 3.2 -1.5l1 .9c-1.3 1.2 -2.6 1.9 -4.2 1.9Zm53.9 0c-1.4 0 -2.6 -.5 -3.6 -1.5c-1 -1 -1.5 -2.2 -1.5 -3.8c0 -1.4 .5 -2.7 1.4 -3.7c1 -1 2.1 -1.5 3.5 -1.5c.1 0 .2 0 .2 0c1.3 0 2.5 .6 3.3 1.5c.8 1 1.3 2.3 1.3 3.8c0 .2 0 .4 0 .5h-8.1c0 1 .5 1.9 1.2 2.5c.6 .5 1.4 .9 2.4 .9c1.2 0 2.3 -.5 3.2 -1.5l.9 .9c-1.2 1.2 -2.5 1.9 -4.2 1.9Zm104.1 0c-1.5 0 -2.7 -.5 -3.6 -1.5c-1.1 -1 -1.5 -2.2 -1.5 -3.8c0 -1.4 .4 -2.7 1.4 -3.7c.9 -1 2.1 -1.5 3.5 -1.5c0 0 .1 0 .2 0c1.3 0 2.4 .6 3.2 1.5c.9 1 1.3 2.3 1.3 3.8c0 .2 0 .4 0 .5h-8.1c.1 1 .5 1.9 1.2 2.5c.7 .5 1.5 .9 2.4 .9c1.2 0 2.3 -.5 3.2 -1.5l1 .9c-1.3 1.2 -2.6 1.9 -4.2 1.9Zm275.8 0c-1.4 0 -2.6 -.5 -3.6 -1.5c-1 -1 -1.4 -2.2 -1.4 -3.8c0 -1.4 .4 -2.7 1.3 -3.7c1 -1 2.2 -1.5 3.5 -1.5c.1 0 .2 0 .2 0c1.3 0 2.5 .6 3.3 1.5c.9 1 1.3 2.3 1.3 3.8c0 .2 0 .4 0 .5h-8.1c0 1 .5 1.9 1.2 2.5c.6 .5 1.4 .9 2.4 .9c1.2 0 2.3 -.5 3.2 -1.5l.9 .9c-1.2 1.2 -2.5 1.9 -4.2 1.9Zm65.8 0c-1.5 0 -2.7 -.5 -3.6 -1.5c-1.1 -1 -1.5 -2.2 -1.5 -3.8c0 -1.4 .4 -2.7 1.4 -3.7c.9 -1 2.1 -1.5 3.5 -1.5c0 0 .1 0 .2 0c1.3 0 2.4 .6 3.2 1.5c.9 1 1.3 2.3 1.3 3.8c0 .2 0 .4 0 .5h-8.1c.1 1 .5 1.9 1.2 2.5c.7 .5 1.5 .9 2.4 .9c1.2 0 2.3 -.5 3.2 -1.5l1 .9c-1.3 1.2 -2.6 1.9 -4.2 1.9Zm-389.3 2.6V689.3h1.5v2c1 -1.5 2.3 -2.2 3.9 -2.2c0 0 .1 0 .1 0c1.2 0 2.3 .5 3.2 1.4c1 .9 1.5 2.3 1.5 3.9c-.1 1.5 -.5 2.8 -1.5 3.7c-1 .9 -2 1.5 -3.3 1.5c-1.6 0 -2.9 -.7 -3.9 -2.1v4.7Zm85 0V689.3h1.5v2c1 -1.5 2.3 -2.2 3.9 -2.2c0 0 .1 0 .1 0c1.2 0 2.3 .5 3.2 1.4c.9 .9 1.5 2.3 1.5 3.9c-.1 1.5 -.5 2.8 -1.5 3.7c-1 .9 -2.1 1.5 -3.3 1.5c-1.6 0 -2.9 -.7 -3.9 -2.1v4.7Zm133 0V689.3h1.6v2c.9 -1.5 2.3 -2.2 3.8 -2.2q.1 0 .2 0c1.2 0 2.3 .5 3.2 1.4c.9 .9 1.4 2.3 1.4 3.9c0 1.5 -.5 2.8 -1.4 3.7c-1 .9 -2.1 1.5 -3.4 1.5c-1.6 0 -2.8 -.7 -3.8 -2.1v4.7ZM379.8 699.6c-1.1 0 -1.9 -.3 -2.7 -.9c-.7 -.6 -1.1 -1.4 -1.1 -2.4c0 -1.1 .4 -1.9 1.2 -2.5c.7 -.6 1.8 -.9 3.1 -.9c.9 0 2 .2 3.1 .5v-.3c0 -.9 -.3 -1.5 -.8 -2c-.6 -.5 -1.3 -.7 -2.2 -.7c-.1 0 -.2 0 -.2 0c-.9 0 -1.9 .3 -2.8 .7l-.5 -1.2c1.2 -.5 2.5 -.8 3.7 -.8c.1 0 .2 0 .2 0c1.3 0 2.3 .4 3 1.1c.7 .6 1.1 1.7 1.1 3v6.1h-1.5v-1.5c-.9 1.1 -2.1 1.8 -3.6 1.8Zm138.1 0c-1 0 -1.9 -.3 -2.6 -.9c-.8 -.6 -1.1 -1.4 -1.1 -2.4c0 -1.1 .4 -1.9 1.1 -2.5c.8 -.6 1.8 -.9 3.1 -.9c1 0 2.1 .2 3.1 .5v-.3c0 -.9 -.3 -1.5 -.8 -2c-.6 -.5 -1.2 -.7 -2.2 -.7c0 0 -.1 0 -.2 0c-.9 0 -1.8 .3 -2.8 .7l-.4 -1.2c1.1 -.5 2.4 -.8 3.6 -.8c.1 0 .2 0 .3 0c1.2 0 2.3 .4 3 1.1c.6 .6 1 1.7 1 3v6.1h-1.5v-1.5c-.9 1.1 -2.1 1.8 -3.6 1.8Zm-158.7 0c-1.6 0 -3 -.5 -4.2 -1.5l.8 -1.1c1 .8 2.1 1.3 3.4 1.3c.6 0 1.3 -.2 1.8 -.5c.4 -.4 .7 -.7 .7 -1.3c0 -.6 -.2 -.9 -.7 -1.1c-.5 -.4 -1 -.5 -1.9 -.5h-1.4v-1.3h1.4c.7 0 1.2 -.2 1.7 -.5c.4 -.3 .6 -.7 .6 -1.2c0 -.5 -.2 -.8 -.6 -1.1c-.5 -.3 -1 -.4 -1.6 -.4c-.1 0 -.2 0 -.2 0c-1.2 0 -2.1 .4 -2.9 1l-.7 -1c1 -.9 2.4 -1.3 3.9 -1.3q.1 0 .2 0c1 0 1.8 .3 2.4 .8c.6 .4 1 1.1 1 1.9c0 1 -.5 1.9 -1.6 2.3c1.2 .4 2 1.3 2 2.5c-.1 .7 -.4 1.5 -1.1 2.1c-.8 .6 -1.8 .9 -3 .9Zm-22.2 0c-2 0 -3.5 -.7 -4.8 -2.1c-1.4 -1.4 -2 -3 -2 -5.1c0 -2 .7 -3.6 2 -5c1.2 -1.5 2.9 -2.1 4.9 -2.1c1 0 2.1 .2 2.9 .5c.7 .3 1.5 .9 2.3 1.6l-1 1.1c-1.3 -1.3 -2.7 -1.9 -4.3 -1.9c-1.5 0 -2.7 .6 -3.7 1.7c-1 1.1 -1.5 2.5 -1.5 4.1c-.1 1.6 .5 3 1.5 4.2c1 1 2.2 1.7 3.7 1.7c.9 0 1.7 -.2 2.4 -.5c.6 -.4 1.3 -.9 2 -1.6l1 1.1c-.8 .8 -1.5 1.3 -2.4 1.7c-.9 .4 -1.8 .6 -3 .6Zm500.4 0c-1.6 0 -2.8 -.5 -3.7 -1.6c-.9 -1 -1.4 -2.4 -1.4 -4.1c0 -.8 0 -1.2 0 -1.7c0 -.5 .1 -.9 .1 -1.5c.1 -.6 .2 -1 .4 -1.4c.1 -.4 .4 -.8 .7 -1.2c.2 -.4 .6 -.7 1 -.9c.4 -.4 .9 -.5 1.5 -.6l5.6 -1.4l.3 1.3l-5.4 1.4c-1.1 .2 -1.7 .7 -2.2 1.3c-.4 .5 -.7 1.3 -.7 2.3c.7 -1.6 2.2 -2.2 4.1 -2.2c1.3 0 2.4 .5 3.4 1.5c.9 .9 1.4 2.1 1.4 3.5c-.1 1.5 -.5 2.7 -1.5 3.7c-1 1 -2.2 1.6 -3.6 1.6Zm88.4 -12c-.7 0 -1.3 -.2 -1.7 -.7c-.6 -.5 -.8 -1 -.9 -1.8l1 -.2c.2 .8 .8 1.4 1.6 1.4c.9 0 1.5 -.5 1.7 -1.4l1 .2c-.1 .7 -.4 1.4 -.9 1.8c-.5 .4 -1.1 .7 -1.8 .7Z"/></clipPath>
<clipPath id="c5_27"><path d="M440.8 477.5c.6 -.1 1 -.3 1 -.9c0 -.3 -.1 -.4 -.3 -.6c-.2 -.2 -.4 -.2 -.7 -.2h-1.1v1.7Zm-14 0v-3.7H425v.2c-.1 1.4 -.2 2.7 -.5 3.5Zm-9.2 0c.4 -.1 .9 -.2 1.2 -.6c.3 -.4 .5 -.7 .5 -1.3c0 -.5 -.2 -.9 -.5 -1.2c-.4 -.5 -.7 -.6 -1.3 -.6c-.6 0 -.9 .2 -1.2 .6c-.3 .2 -.5 .7 -.5 1.2c0 .5 .2 1 .5 1.3c.3 .3 .8 .6 1.3 .6Zm31.2 -2v-1.7h-1.3c0 0 -.1 0 -.1 0c-.3 0 -.6 .1 -.8 .2c-.2 .1 -.3 .4 -.3 .7c0 .2 .1 .4 .3 .6c.2 .1 .5 .2 .9 .2Zm-47.2 0l-1.2 -3l-1.1 3Zm4.8 3.6v-7h1.8v4.1l2.6 -4.1h1.8v7h-1.9v-4l-2.5 4Zm11.1 0c-1.1 0 -1.8 -.3 -2.5 -1c-.7 -.8 -1 -1.5 -1 -2.5c0 -1 .3 -1.8 1 -2.4c.7 -.7 1.5 -1.1 2.6 -1.1c.9 0 1.9 .4 2.5 1.1c.7 .6 1.1 1.5 1.1 2.4c-.1 1 -.4 1.8 -1.1 2.5c-.7 .6 -1.5 1 -2.6 1Zm4.3 1.7v-3.3h.7c.4 -1.1 .6 -2.6 .6 -4.7v-.7h5.5v5.4h.8v3.3h-1.8v-1.7h-4.1l-.1 1.7Zm8 -1.7l2.3 -3.5l-2.2 -3.5h2l1.3 2.1l1.2 -2.1h2l-2.3 3.4l2.4 3.6h-2L433.1 477l-1.3 2.1Zm8 0v-7h1.9v2.4H441c.7 0 1.4 .2 1.9 .6c.5 .3 .7 .9 .7 1.7c0 .6 -.2 1.3 -.6 1.7c-.5 .4 -1.1 .6 -1.9 .6Zm6.4 0l1.6 -2.6c-.9 -.4 -1.3 -1 -1.3 -2c0 -.9 .2 -1.3 .7 -1.7c.4 -.5 1.1 -.7 2 -.7h3.5v7h-1.9v-2.3h-1l-1.5 2.3Zm-48.4 0l3.8 -8.9h1.7l3.8 8.9h-2l-.8 -2h-3.7l-.8 2Zm13.7 -7.6c-.6 0 -1 -.2 -1.4 -.5c-.4 -.4 -.5 -.9 -.6 -1.5l1.1 -.2c.1 .5 .5 .9 .9 .9c.4 0 .8 -.3 1 -.9l1.1 .2c-.2 .6 -.3 1.1 -.7 1.5c-.4 .3 -.8 .5 -1.4 .5Z"/></clipPath>
<clipPath id="c6_27"><path d="M403.9 309.8c.3 0 .7 -.1 1 -.3c.2 -.3 .4 -.5 .4 -.8v-.4c-.3 -.2 -.7 -.2 -1.2 -.2c-.4 0 -.7 .1 -.9 .2c-.3 .1 -.4 .4 -.4 .7c0 .2 .1 .4 .3 .6c.2 .1 .5 .2 .8 .2Zm21.9 -.4c.4 -.1 .9 -.1 1.2 -.5c.3 -.4 .5 -.8 .5 -1.3c0 -.5 -.2 -.9 -.5 -1.3c-.4 -.4 -.7 -.5 -1.2 -.5h-.1c-.5 0 -.9 .2 -1.2 .5c-.3 .3 -.5 .8 -.5 1.3c0 .5 .2 .9 .5 1.3c.3 .3 .8 .5 1.3 .5Zm14.5 0c.4 -.1 .8 -.1 1.2 -.5c.2 -.4 .4 -.8 .4 -1.3c0 -.6 -.1 -1 -.4 -1.3c-.5 -.4 -.7 -.5 -1.2 -.5c-.5 0 -.8 .2 -1.2 .5c-.3 .3 -.4 .8 -.4 1.3c-.1 .5 .1 1 .4 1.3c.4 .3 .7 .5 1.2 .5Zm-37 1.7c-.8 0 -1.2 -.2 -1.7 -.6c-.5 -.4 -.6 -.9 -.6 -1.5c0 -.8 .2 -1.3 .7 -1.7c.5 -.4 1.1 -.5 2 -.5c.5 0 1.1 .1 1.6 .3V307c0 -.9 -.5 -1.2 -1.4 -1.2h-.1c-.6 0 -1.1 .1 -1.8 .3l-.4 -1.4c.7 -.5 1.7 -.6 2.6 -.6c.9 0 1.7 .3 2.2 .8c.5 .5 .8 1.2 .8 2.2v4h-1.9v-.8c-.5 .5 -1.2 .8 -2 .8Zm5.7 0v-7h1.9v2.7h2.5v-2.7h1.8v7h-1.8v-2.6h-2.5v2.6Zm7.8 0v-7h4.9v1.7h-3v5.3Zm9 0c-1.1 0 -1.9 -.3 -2.6 -1c-.7 -.8 -1 -1.5 -1 -2.5c0 -1 .3 -1.8 1 -2.5c.7 -.6 1.6 -1 2.6 -1c.9 0 1.9 .4 2.5 1c.7 .7 1.1 1.5 1.1 2.5c-.1 .9 -.4 1.8 -1.1 2.5c-.7 .6 -1.5 1 -2.5 1Zm6.1 0v-5.3h-2v-1.7h6v1.7h-2.2v5.3Zm4.9 2v-9h1.9v1.1c.4 -.7 1.2 -1.1 2.1 -1.1c.7 0 1.5 .3 2.1 1c.6 .5 .9 1.4 .9 2.5c0 1 -.3 1.9 -.9 2.6c-.6 .6 -1.3 .9 -2.1 .9c-1 0 -1.6 -.3 -2.1 -1v3Zm8.4 -2v-7h1.9v4.1l2.5 -4.1h1.8v7h-1.8V307l-2.6 4.1Zm-49.4 0v-9H402v1.7h-4.3v7.3Z"/></clipPath>
<clipPath id="c7_27"><path d="M414.3 651.2c.4 0 .8 -.1 1.1 -.3c.2 -.2 .4 -.4 .4 -.8v-.3c-.4 -.2 -.8 -.2 -1.2 -.2c-.4 0 -.7 .1 -.9 .2c-.3 .1 -.4 .4 -.4 .7c0 .1 .1 .4 .3 .5c.2 .1 .4 .2 .7 .2Zm47.8 0c.3 0 .8 -.1 1 -.3c.2 -.2 .4 -.4 .4 -.8v-.3c-.3 -.2 -.7 -.2 -1.1 -.2c-.5 0 -.8 .1 -1 .2c-.3 .1 -.3 .4 -.3 .7c-.1 .1 .1 .4 .3 .5c.1 .1 .4 .2 .7 .2Zm-80.3 -.3c.6 -.1 .9 -.3 .9 -.9c0 -.3 -.1 -.4 -.2 -.5c-.2 -.3 -.4 -.3 -.7 -.3h-1.2v1.7Zm-14.1 0v-3.6h-1.8v.1c-.1 1.5 -.2 2.7 -.5 3.5Zm80 0v-3.6h-1.8v.1c0 1.5 -.1 2.7 -.5 3.5Zm46.6 0v-3.6h-1.8v.1c0 1.5 -.1 2.7 -.5 3.5Zm-135.8 0c.4 -.1 .9 -.2 1.2 -.5c.3 -.4 .5 -.8 .5 -1.3c0 -.6 -.2 -1 -.5 -1.3c-.4 -.4 -.7 -.5 -1.2 -.5h-.1c-.5 0 -.9 .1 -1.2 .5c-.3 .3 -.4 .8 -.4 1.3c-.1 .4 .1 .9 .4 1.3c.4 .3 .8 .5 1.3 .5Zm126.6 0c.4 -.1 .9 -.2 1.3 -.5c.2 -.4 .4 -.8 .4 -1.3c0 -.6 -.1 -1 -.5 -1.3c-.3 -.4 -.7 -.5 -1.2 -.5c-.6 0 -1 .1 -1.3 .5c-.3 .3 -.4 .8 -.4 1.3c-.1 .4 .1 .9 .5 1.3c.3 .3 .7 .5 1.2 .5Zm-62.1 0c.4 -.1 .8 -.2 1.2 -.5c.2 -.4 .4 -.8 .4 -1.3c0 -.6 -.1 -1 -.4 -1.3c-.5 -.4 -.7 -.5 -1.2 -.5c-.5 0 -.8 .1 -1.1 .5c-.4 .2 -.5 .7 -.5 1.3c-.1 .5 .1 .9 .5 1.3c.3 .3 .6 .5 1.1 .5Zm31.9 0c.4 -.1 .9 -.2 1.2 -.5c.2 -.4 .5 -.8 .5 -1.3c-.1 -.6 -.2 -1 -.5 -1.3c-.4 -.4 -.7 -.5 -1.2 -.5c-.5 0 -.8 .1 -1.1 .5c-.3 .2 -.5 .7 -.5 1.3c0 .5 .2 .9 .5 1.3c.3 .3 .7 .5 1.1 .5Zm-22.5 -2.7c-.1 -.3 -.2 -.5 -.5 -.7c-.3 -.2 -.5 -.2 -.9 -.2c0 0 -.1 0 -.1 0c-.4 0 -.7 .1 -.9 .2c-.3 .1 -.4 .4 -.5 .7Zm-42.7 .7v-1.6h-1.3c-.4 0 -.6 0 -.8 .2c-.3 0 -.3 .3 -.3 .6c-.1 .2 .1 .5 .3 .6c.1 .1 .4 .2 .8 .2Zm-47.2 0L341.3 646l-1.1 2.9Zm4.8 3.7v-7h1.9v4.1l2.5 -4.1h1.8v7h-1.9v-4.1l-2.5 4.1Zm11.2 0c-1.1 0 -1.9 -.4 -2.6 -1c-.7 -.8 -1 -1.5 -1 -2.5c0 -1.1 .3 -1.8 1 -2.5c.7 -.7 1.6 -1 2.6 -1c.9 0 1.9 .3 2.6 1c.6 .7 1 1.5 1 2.5c-.1 .9 -.4 1.8 -1.1 2.5c-.7 .5 -1.5 1 -2.5 1Zm4.2 1.6v-3.3h.7c.4 -1.1 .6 -2.5 .6 -4.7v-.6h5.6v5.3h.8v3.3h-1.9v-1.6h-4.1l-.1 1.6Zm8 -1.6l2.4 -3.6l-2.3 -3.4h2l1.3 2l1.2 -2h2l-2.2 3.4l2.3 3.6h-2L374 650.4l-1.3 2.2Zm8 0v-7h1.9v2.3h1.3c.8 0 1.5 .2 1.9 .6c.5 .3 .8 1 .8 1.7c-.1 .6 -.3 1.3 -.7 1.7c-.5 .4 -1.1 .7 -1.9 .7Zm6.4 0l1.7 -2.7c-1 -.3 -1.4 -1 -1.4 -2c0 -.8 .2 -1.3 .7 -1.7c.5 -.5 1.1 -.6 2 -.6h3.5v7h-1.9v-2.4h-1l-1.5 2.4Zm28.7 0c-.8 0 -1.2 -.2 -1.7 -.6c-.5 -.4 -.6 -.9 -.6 -1.6c0 -.8 .2 -1.2 .7 -1.6c.5 -.4 1.1 -.6 2 -.6c.5 0 1.1 .2 1.6 .4v-.1c0 -.9 -.5 -1.2 -1.4 -1.2c0 0 -.1 0 -.1 0c-.6 0 -1.1 .1 -1.8 .3l-.4 -1.5c.7 -.4 1.6 -.5 2.6 -.5c.9 0 1.7 .2 2.2 .8c.5 .4 .8 1.2 .8 2.2v4h-1.9v-.8c-.5 .4 -1.2 .8 -2 .8Zm5.7 2v-9h1.9v1.1c.4 -.8 1.2 -1.1 2.1 -1.1c.7 0 1.5 .3 2.1 .9c.6 .6 .9 1.5 .9 2.6c0 1 -.3 1.9 -.9 2.5c-.6 .6 -1.3 1 -2.1 1c-1 0 -1.6 -.4 -2.1 -1.1v3.1Zm11.7 -2c-1.2 0 -1.9 -.4 -2.6 -1c-.7 -.7 -1 -1.5 -1 -2.5c0 -1.1 .3 -1.8 1 -2.5c.5 -.7 1.4 -1 2.4 -1c1 0 1.8 .3 2.4 1c.5 .7 .9 1.5 .9 2.5c0 0 0 .2 -.1 .5h-4.7c0 .4 .3 .7 .6 1c.2 .1 .6 .3 1.1 .3c.5 -.1 1.1 -.2 1.6 -.7l1.1 1c-.8 .8 -1.6 1.4 -2.7 1.4Zm4.4 0v-7h1.9v2.6h2.4v-2.6h1.9v7h-1.9v-2.7h-2.4v2.7Zm7.1 1.6v-3.3h.7c.5 -1.1 .7 -2.5 .7 -4.7v-.6h5.5v5.3h.8v3.3h-1.9v-1.6h-4l-.2 1.6Zm8.8 .4v-9h1.8v1.1c.5 -.8 1.2 -1.1 2.1 -1.1c.7 0 1.5 .3 2.1 .9c.6 .6 .9 1.5 .9 2.6c0 1 -.3 1.9 -.9 2.5c-.6 .6 -1.3 1 -2.1 1c-.9 0 -1.5 -.4 -2.1 -1.1v3.1Zm10 -2c-.7 0 -1.2 -.2 -1.6 -.6c-.6 -.4 -.7 -.9 -.7 -1.6c0 -.8 .3 -1.2 .7 -1.6c.5 -.4 1.2 -.6 2 -.6c.5 0 1.1 .2 1.6 .4v-.1c0 -.9 -.4 -1.2 -1.4 -1.2c-.7 0 -1.2 .1 -1.8 .3l-.5 -1.5c.7 -.4 1.7 -.5 2.6 -.5c1 0 1.8 .2 2.3 .8c.4 .4 .7 1.2 .7 2.2v4h-1.9v-.8c-.5 .4 -1.1 .8 -2 .8Zm23.6 0c-1.1 0 -1.9 -.4 -2.6 -1c-.7 -.8 -1 -1.5 -1 -2.5c0 -1.1 .3 -1.8 1 -2.5c.7 -.7 1.6 -1 2.6 -1c.9 0 1.9 .3 2.6 1c.6 .7 1 1.5 1 2.5c-.1 .9 -.4 1.8 -1 2.5c-.8 .5 -1.6 1 -2.6 1Zm4.2 1.6v-3.3h.7c.4 -1.1 .7 -2.5 .7 -4.7v-.6h5.5v5.3h.8v3.3h-1.9v-1.6H491l-.1 1.6Zm8.7 -1.6v-7h1.9v4.1l2.5 -4.1h1.8v7h-1.8v-4.1l-2.5 4.1Zm-97.7 1.7c-1.2 -.6 -2 -1.4 -2.6 -2.2c-.7 -.9 -.9 -1.9 -.9 -3.1c0 -1.2 .3 -2.2 .9 -3.1c.5 -.9 1.4 -1.6 2.6 -2.2l.8 1.2c-.8 .6 -1.4 1.2 -1.8 1.8c-.5 .6 -.6 1.4 -.6 2.3c-.1 .8 .2 1.6 .6 2.2c.3 .7 1 1.3 1.8 1.9l-.8 1.2Zm106 0l-.8 -1.2c.8 -.7 1.4 -1.2 1.8 -1.9c.4 -.6 .6 -1.3 .6 -2.2c-.1 -.9 -.2 -1.6 -.6 -2.3c-.4 -.6 -1 -1.2 -1.8 -1.8l.8 -1.2c1.2 .6 2 1.3 2.6 2.2c.5 .9 .9 1.9 .9 3.1c-.1 1.2 -.3 2.2 -.9 3.1c-.7 .8 -1.4 1.6 -2.6 2.2ZM336.7 652.6l3.8 -9h1.8l3.7 9h-2l-.8 -2h-3.7l-.8 2Zm66 0v-9h1.8v3.6h3.6v-3.6H410v9h-1.9v-3.7h-3.6v3.7Zm68.3 0v-9h2.1l2.2 3.8l2.3 -3.8h2.1v9h-1.9v-5.9l-2.5 3.8l-2.4 -3.8v5.9ZM350.5 644.9c-.7 0 -1.1 -.2 -1.4 -.5c-.4 -.4 -.6 -.8 -.7 -1.5l1.1 -.2c.1 .6 .5 .9 1 .9c.4 0 .7 -.3 .9 -.9l1.1 .2c-.1 .7 -.3 1.1 -.7 1.5c-.4 .3 -.8 .5 -1.3 .5Z"/></clipPath>
<clipPath id="c8_27"><path d="M1032.5 476.8c.4 0 .8 -.1 1.1 -.3c.2 -.2 .4 -.4 .4 -.8v-.3c-.4 -.2 -.8 -.2 -1.2 -.2c-.5 0 -.7 .1 -1 .2c-.2 .1 -.3 .4 -.3 .7c-.1 .1 .1 .4 .3 .5c.1 .1 .4 .2 .7 .2Zm13.1 0c.3 0 .8 -.1 1 -.3c.2 -.2 .4 -.4 .4 -.8v-.3c-.3 -.2 -.7 -.2 -1.2 -.2c-.4 0 -.7 .1 -.9 .2c-.3 .1 -.3 .4 -.3 .7c-.1 .1 .1 .4 .2 .5c.2 .1 .5 .2 .8 .2Zm23 0c.4 0 .8 -.1 1.1 -.3c.1 -.2 .4 -.4 .4 -.8v-.3c-.4 -.2 -.8 -.2 -1.2 -.2c-.5 0 -.7 .1 -1 .2c-.3 .1 -.3 .4 -.3 .7c-.1 .1 .1 .4 .3 .5c.1 .1 .4 .2 .7 .2Zm-50.2 1.4l2.5 -4.1l-2.4 -2.9h2.1l2.4 3v-3h1.9v3l2.3 -3h2.2l-2.5 2.9l2.5 4.1h-2.1l-1.7 -2.8l-.7 1v1.8H1023v-1.8l-.8 -1l-1.7 2.8Zm13.6 0c-.8 0 -1.3 -.2 -1.7 -.6c-.5 -.4 -.6 -.9 -.6 -1.6c0 -.8 .2 -1.2 .7 -1.6c.4 -.4 1.1 -.6 1.9 -.6c.6 0 1.1 .2 1.7 .4v-.1c0 -.9 -.5 -1.2 -1.5 -1.2c-.6 0 -1.1 .1 -1.8 .3l-.5 -1.5c.8 -.4 1.7 -.5 2.6 -.5c1 0 1.8 .2 2.3 .8c.5 .4 .7 1.2 .7 2.2v4H1034v-.8c-.5 .4 -1.2 .8 -2 .8Zm5.7 0v-7h4.8v1.7h-2.9v5.3Zm7.3 0c-.8 0 -1.2 -.2 -1.6 -.6c-.6 -.4 -.7 -.9 -.7 -1.6c0 -.8 .2 -1.2 .7 -1.6c.5 -.4 1.2 -.6 2 -.6c.5 0 1.1 .2 1.6 .4v-.1c0 -.9 -.5 -1.2 -1.4 -1.2c-.7 0 -1.2 .1 -1.8 .3l-.5 -1.5c.7 -.4 1.7 -.5 2.6 -.5c.9 0 1.8 .2 2.3 .8c.4 .4 .7 1.2 .7 2.2v4H1047v-.8c-.5 .4 -1.2 .8 -2 .8Zm5.7 0v-7h1.9v2.6h2.5v-2.6h1.8v7h-1.8v-2.7h-2.5v2.7Zm7.9 0v-7h1.8v2.6h2.5v-2.6h1.9v7h-1.9v-2.7h-2.5v2.7Zm9.4 0c-.7 0 -1.2 -.2 -1.6 -.6c-.6 -.4 -.7 -.9 -.7 -1.6c0 -.8 .3 -1.2 .8 -1.6c.4 -.4 1.1 -.6 1.9 -.6c.6 0 1.1 .2 1.7 .4v-.1c0 -.9 -.5 -1.2 -1.5 -1.2c-.6 0 -1.2 .1 -1.8 .3l-.5 -1.5c.7 -.4 1.7 -.5 2.6 -.5c1 0 1.8 .2 2.3 .8c.4 .4 .7 1.2 .7 2.2v4h-1.8v-.8c-.6 .4 -1.2 .8 -2.1 .8Zm7 0v-5.3h-2v-1.7h6v1.7h-2.2v5.3Zm4.2 0l2.3 -3.6l-2.2 -3.4h2l1.3 2l1.2 -2h2l-2.3 3.4l2.4 3.6h-2l-1.4 -2.2l-1.3 2.2Zm-63.8 -1.7v-5.6h-2.7v.9c0 1.7 -.2 3.3 -.8 4.7Zm-6.3 3.7v-3.7h.8c.3 -.9 .6 -1.7 .7 -2.6c.1 -1 .2 -2.1 .2 -3.6v-1.1h6.4v7.3h1v3.7h-1.8v-2h-5.5v2Z"/></clipPath>
<clipPath id="c9_27"><path d="M1036.5 650.2c.4 0 .8 -.1 1.1 -.4c.2 -.2 .4 -.4 .4 -.8v-.3c-.4 -.2 -.8 -.2 -1.2 -.2c-.5 0 -.7 .1 -.9 .2c-.3 .1 -.4 .4 -.4 .7c0 .2 .1 .4 .3 .6c.1 0 .4 .2 .7 .2Zm15.8 0c.4 0 .8 -.1 1.1 -.4c.2 -.2 .4 -.4 .4 -.8v-.3c-.4 -.2 -.8 -.2 -1.2 -.2c-.4 0 -.7 .1 -.9 .2c-.3 .1 -.4 .4 -.4 .7c0 .2 .1 .4 .3 .6c.1 0 .4 .2 .7 .2Zm15.2 0c.4 0 .8 -.1 1.1 -.4c.2 -.2 .4 -.4 .4 -.8v-.3c-.4 -.2 -.7 -.2 -1.2 -.2c-.4 0 -.7 .1 -.9 .2c-.3 .1 -.4 .4 -.4 .7c0 .2 .1 .4 .3 .6c.2 0 .4 .2 .7 .2Zm-36.9 -.4v-3.6h-1.8v.1c-.1 1.5 -.2 2.7 -.5 3.5Zm14.6 0c.4 -.1 .8 -.2 1.2 -.5c.2 -.4 .4 -.8 .4 -1.3c0 -.6 -.1 -1 -.4 -1.3c-.5 -.4 -.7 -.5 -1.2 -.5c-.5 0 -.9 .2 -1.2 .5c-.3 .3 -.4 .8 -.4 1.3c-.1 .5 .1 1 .4 1.3c.4 .3 .7 .5 1.2 .5Zm-22.1 -2.6c-.1 -.3 -.2 -.6 -.5 -.7c-.3 -.3 -.5 -.3 -.9 -.3q-.1 0 -.1 0c-.4 0 -.7 .1 -.9 .2c-.3 .1 -.4 .5 -.5 .8Zm-1.3 4.3c-1.1 0 -1.8 -.3 -2.5 -1c-.7 -.6 -1 -1.5 -1 -2.5c0 -1 .3 -1.8 .9 -2.5c.6 -.7 1.5 -1 2.4 -1c1.1 0 1.9 .3 2.5 1c.5 .7 .8 1.5 .8 2.5c0 0 0 .3 0 .5h-4.7c0 .4 .3 .7 .6 1c.2 .1 .6 .3 1.1 .3c.5 -.1 1.1 -.2 1.6 -.7l1.1 1c-.8 .8 -1.6 1.4 -2.8 1.4Zm3.8 1.6v-3.3h.7c.4 -1.1 .6 -2.5 .6 -4.7v-.6h5.6v5.3h.8v3.3h-1.9v-1.6h-4.1l-.1 1.6Zm10.4 -1.6c-.8 0 -1.2 -.2 -1.7 -.6c-.5 -.4 -.6 -.9 -.6 -1.5c0 -.8 .2 -1.3 .7 -1.7c.5 -.4 1.1 -.5 1.9 -.5c.6 0 1.1 .1 1.7 .3v-.1c0 -.9 -.5 -1.2 -1.4 -1.2q-.1 0 -.1 0c-.6 0 -1.1 .1 -1.8 .3l-.5 -1.4c.8 -.5 1.7 -.6 2.7 -.6c.9 0 1.7 .3 2.2 .8c.5 .4 .7 1.2 .7 2.2v4H1038v-.8c-.5 .5 -1.2 .8 -2 .8Zm5.7 2v-9h1.9v1.1c.4 -.8 1.2 -1.1 2.1 -1.1c.7 0 1.5 .3 2.1 .9c.6 .6 .9 1.5 .9 2.6c0 1 -.3 1.9 -.9 2.6c-.6 .6 -1.3 .9 -2.1 .9c-1 0 -1.6 -.4 -2.1 -1.1v3.1Zm10.1 -2c-.8 0 -1.2 -.2 -1.7 -.6c-.5 -.4 -.6 -.9 -.6 -1.5c0 -.8 .2 -1.3 .7 -1.7c.5 -.4 1.1 -.5 2 -.5c.5 0 1.1 .1 1.6 .3v-.1c0 -.9 -.5 -1.2 -1.4 -1.2q-.1 0 -.1 0c-.6 0 -1.1 .1 -1.8 .3l-.5 -1.4c.8 -.5 1.7 -.6 2.7 -.6c.9 0 1.7 .3 2.2 .8c.5 .4 .8 1.2 .8 2.2v4h-1.9v-.8c-.5 .5 -1.2 .8 -2 .8Zm5.7 0v-7h1.9v2.7h2.4v-2.7h1.9v7h-1.9v-2.7h-2.4v2.7Zm9.5 0c-.8 0 -1.2 -.2 -1.7 -.6c-.5 -.4 -.6 -.9 -.6 -1.5c0 -.8 .2 -1.3 .7 -1.7c.5 -.4 1.1 -.5 2 -.5c.5 0 1.1 .1 1.6 .3v-.1c0 -.9 -.5 -1.2 -1.4 -1.2c0 0 -.1 0 -.1 0c-.6 0 -1.1 .1 -1.8 .3l-.4 -1.4c.7 -.5 1.6 -.6 2.6 -.6c.9 0 1.7 .3 2.2 .8c.5 .4 .8 1.2 .8 2.2v4H1069v-.8c-.5 .5 -1.2 .8 -2 .8Zm6.9 0v-5.3h-2v-1.7h6v1.7h-2.1v5.3Zm4.2 0l2.4 -3.6l-2.3 -3.4h2.1l1.2 2l1.3 -2h1.9l-2.2 3.4l2.3 3.6h-2l-1.3 -2.2l-1.4 2.2Zm-68.3 0v-9h1.8v3.9l3.6 -3.9h2.3l-3.6 3.8l3.8 5.2h-2.4l-2.7 -3.8l-1 1v2.8Z"/></clipPath>
<clipPath id="ca_27"><path d="M1053 309.2c.3 0 .8 -.1 1 -.3c.2 -.2 .4 -.5 .4 -.8v-.3c-.3 -.3 -.7 -.3 -1.2 -.3c-.4 0 -.7 .1 -.9 .3c-.3 .1 -.3 .4 -.3 .6c-.1 .2 .1 .5 .2 .6c.2 .1 .5 .2 .8 .2Zm20.8 0c.4 0 .8 -.1 1.1 -.3c.2 -.2 .4 -.5 .4 -.8v-.3c-.4 -.3 -.8 -.3 -1.2 -.3c-.4 0 -.7 .1 -.9 .3c-.3 .1 -.4 .4 -.4 .6c0 .2 .1 .5 .3 .6c.1 .1 .4 .2 .7 .2Zm-48 -.3c.4 -.1 .9 -.2 1.2 -.5c.2 -.4 .5 -.8 .5 -1.4c-.1 -.5 -.2 -.9 -.5 -1.3c-.4 -.4 -.7 -.5 -1.2 -.5c-.5 0 -.8 .2 -1.1 .5c-.3 .3 -.5 .8 -.5 1.4c-.1 .4 .2 .9 .5 1.3c.3 .2 .7 .5 1.1 .5Zm-3.5 3.6v-8.9h1.9v1c.5 -.7 1.2 -1 2.1 -1c.7 0 1.5 .3 2.1 .9c.6 .5 .9 1.5 .9 2.6c0 1 -.3 1.9 -.9 2.5c-.6 .6 -1.3 .9 -2.1 .9c-.9 0 -1.5 -.3 -2.1 -1v3Zm8.5 -2v-6.9h1.8v4l2.5 -4h1.9v6.9h-1.9v-4l-2.5 4Zm21.6 0c-.8 0 -1.2 -.2 -1.7 -.5c-.5 -.4 -.6 -.9 -.6 -1.6c0 -.8 .2 -1.3 .7 -1.6c.5 -.5 1.2 -.6 2 -.6c.5 0 1.1 .1 1.6 .3v-.1c0 -.8 -.5 -1.2 -1.4 -1.2c-.7 0 -1.2 .1 -1.8 .4l-.5 -1.5c.7 -.4 1.7 -.5 2.6 -.5c.9 0 1.8 .2 2.3 .7c.4 .5 .7 1.3 .7 2.2v4h-1.9v-.8c-.5 .5 -1.2 .8 -2 .8Zm5.7 0v-6.9h1.9v2.6h2.5v-2.6h1.8v6.9h-1.8v-2.6H1060v2.6Zm7.9 0v-6.9h4.8v1.6h-3v5.3Zm7.3 0c-.8 0 -1.2 -.2 -1.7 -.5c-.5 -.4 -.6 -.9 -.6 -1.6c0 -.8 .2 -1.3 .7 -1.6c.5 -.5 1.1 -.6 2 -.6c.5 0 1.1 .1 1.6 .3v-.1c0 -.8 -.5 -1.2 -1.4 -1.2c0 0 -.1 0 -.1 0c-.6 0 -1.1 .1 -1.8 .4l-.5 -1.5c.8 -.4 1.7 -.5 2.7 -.5c.9 0 1.7 .2 2.2 .7c.5 .5 .8 1.3 .8 2.2v4h-1.9v-.8c-.5 .5 -1.2 .8 -2 .8Zm5.7 0v-6.9h1.9l1.9 2.9l1.9 -2.9h1.8v6.9h-1.8v-4.2l-1.9 2.9l-1.9 -2.8v4.1Zm-33.1 -4.3c.4 -.1 .8 -.1 1.1 -.4c.2 -.4 .4 -.7 .4 -1.1c0 -.5 -.1 -.8 -.4 -1.1c-.4 -.3 -.7 -.4 -1.2 -.4h-1.5v3Zm-37.6 4.3v-8.9h1.8v7.3h3.1v-7.3h1.9v7.3h3.1v-7.3h1.9v8.9Zm34.1 0v-8.9h3.6c.9 0 1.8 .2 2.4 .8c.5 .5 .9 1.4 .9 2.3c-.1 1 -.4 1.8 -1 2.3c-.7 .5 -1.5 .9 -2.5 .9h-1.5v2.6Z"/></clipPath>
<clipPath id="cb_27"><path d="M631 476.4c.5 -.1 1 -.1 1.3 -.5c.2 -.4 .4 -.8 .4 -1.3c0 -.5 -.1 -.9 -.4 -1.3c-.4 -.4 -.8 -.5 -1.3 -.5c-.6 0 -.9 .2 -1.2 .5c-.4 .3 -.5 .8 -.5 1.3c-.1 .5 .1 .9 .5 1.3c.3 .3 .7 .5 1.2 .5Zm14.5 0c.4 -.1 .9 -.1 1.2 -.5c.2 -.4 .5 -.8 .5 -1.3c-.1 -.6 -.2 -1 -.5 -1.3c-.4 -.4 -.7 -.5 -1.2 -.5c-.5 0 -.8 .2 -1.1 .5c-.3 .3 -.5 .8 -.5 1.3c-.1 .5 .2 1 .5 1.3c.3 .3 .7 .5 1.1 .5Zm-42.2 1.7v-7h1.9L607 474l1.9 -2.9h1.9v7h-1.9v-4.2l-1.9 2.9l-1.9 -2.9v4.2Zm10.6 2c-.6 0 -1.2 -.2 -1.7 -.5l.6 -1.4c.3 .1 .6 .2 .9 .2c.2 -.1 .5 -.1 .6 -.4l-2.6 -6.9h2l1.5 4.7l1.5 -4.7h1.9l-2.5 7.1c-.4 .7 -.6 1.2 -.9 1.5c-.4 .2 -.8 .4 -1.3 .4Zm6 -2v-7h1.9v2.7h2.5v-2.7h1.8v7h-1.8v-2.6h-2.5v2.6Zm11.1 0c-1.1 0 -1.9 -.3 -2.6 -1c-.6 -.8 -1 -1.5 -1 -2.5c0 -1 .4 -1.8 1.1 -2.5c.6 -.6 1.5 -1 2.5 -1c1 0 1.9 .4 2.6 1c.6 .7 1 1.5 1 2.5c-.1 .9 -.3 1.8 -1 2.5c-.8 .6 -1.6 1 -2.6 1Zm6.1 0v-5.3h-2v-1.7h6v1.7H639v5.3Zm5 2v-9h1.8v1.1c.5 -.7 1.2 -1.1 2.1 -1.1c.7 0 1.5 .3 2.1 1c.6 .5 .9 1.4 .9 2.5c0 1 -.3 1.9 -.9 2.6c-.6 .6 -1.3 .9 -2.1 .9c-.9 0 -1.5 -.3 -2.1 -1v3Zm8.4 -2v-7h1.8v4.1l2.5 -4.1h1.9v7h-1.9V474l-2.5 4.1Zm-51.3 -4.7v-2.6h-1.9c-.5 0 -.9 .1 -1.1 .3c-.4 .3 -.4 .6 -.4 1c-.1 .4 .1 .8 .4 1c.2 .1 .6 .3 1.1 .3Zm-5.5 4.7l2 -3.3c-1.2 -.5 -1.8 -1.4 -1.8 -2.8c0 -1 .3 -1.6 .9 -2.1c.5 -.6 1.4 -.8 2.4 -.8h3.9v9h-1.9v-3h-1.5l-1.9 3Z"/></clipPath>
<clipPath id="cc_27"><path d="M602.1 308.7c.4 0 .8 -.1 1.1 -.3c.1 -.2 .4 -.4 .4 -.8v-.3c-.4 -.2 -.8 -.2 -1.2 -.2c-.5 0 -.7 .1 -1 .2c-.3 .1 -.3 .4 -.3 .7c-.1 .1 .1 .4 .3 .5c.1 .1 .4 .2 .7 .2Zm39.6 0c.4 0 .8 -.1 1 -.3c.2 -.2 .4 -.4 .4 -.8v-.3c-.3 -.2 -.7 -.2 -1.1 -.2c-.5 0 -.8 .1 -1 .2c-.3 .1 -.3 .4 -.3 .7c-.1 .1 .1 .4 .3 .5c.1 .1 .4 .2 .7 .2Zm-46.6 -.3c.9 -.1 1.4 -.4 1.4 -1.2c-.1 -.8 -.5 -1.1 -1.4 -1.1h-2.2v2.3Zm16.5 0v-3.6h-1.8v.1c-.1 1.5 -.2 2.7 -.5 3.5Zm7.2 0c.4 -.1 .9 -.2 1.2 -.5c.2 -.4 .4 -.8 .4 -1.3c0 -.6 -.1 -1 -.4 -1.3c-.5 -.4 -.7 -.5 -1.2 -.5c-.5 0 -.8 .1 -1.1 .5c-.4 .3 -.5 .8 -.5 1.3c-.1 .5 .1 1 .5 1.3c.3 .3 .7 .5 1.1 .5Zm-17.3 1.7c-.7 0 -1.2 -.2 -1.6 -.6c-.6 -.4 -.7 -.9 -.7 -1.6c0 -.7 .3 -1.2 .8 -1.6c.4 -.4 1.1 -.5 1.9 -.5c.6 0 1.1 .1 1.7 .3V306c0 -.9 -.5 -1.2 -1.5 -1.2c-.7 0 -1.2 .1 -1.8 .3l-.5 -1.5c.7 -.4 1.7 -.5 2.6 -.5c1 0 1.8 .2 2.3 .8c.4 .4 .7 1.2 .7 2.2v4h-1.8v-.8c-.6 .4 -1.2 .8 -2.1 .8Zm5.1 1.6v-3.3h.7c.4 -1.1 .6 -2.5 .6 -4.7v-.6h5.6v5.3h.8v3.3h-1.9v-1.6h-4.1l-.1 1.6Zm8.7 .4v-9h1.9v1.1c.5 -.8 1.2 -1.1 2.1 -1.1c.7 0 1.5 .3 2.1 .9c.6 .6 .9 1.5 .9 2.6c0 1 -.3 1.9 -.9 2.5c-.6 .6 -1.3 1 -2.1 1c-1 0 -1.6 -.4 -2.1 -1.1v3.1Zm8.4 -2v-7h1.9v4.1l2.5 -4.1h1.8v7h-1.8V306l-2.5 4.1Zm8 0v-7h1.8v2.7H636v-2.7h1.9v7H636v-2.7h-2.5v2.7Zm9.4 0c-.7 0 -1.2 -.2 -1.6 -.6c-.6 -.4 -.7 -.9 -.7 -1.6c0 -.7 .3 -1.2 .7 -1.6c.5 -.4 1.2 -.5 2 -.5c.6 0 1.1 .1 1.6 .3V306c0 -.9 -.4 -1.2 -1.4 -1.2c-.7 0 -1.2 .1 -1.8 .3l-.5 -1.5c.7 -.4 1.7 -.5 2.6 -.5c1 0 1.8 .2 2.3 .8c.4 .4 .7 1.2 .7 2.2v4h-1.9v-.8c-.5 .4 -1.1 .8 -2 .8Zm7 0v-5.3h-2v-1.7h6v1.7h-2.2v5.3Zm4.2 0l2.3 -3.6l-2.2 -3.4h2l1.3 2l1.2 -2h2l-2.3 3.4l2.4 3.6h-2l-1.4 -2.2l-1.3 2.2Zm-61.3 0v-9h6.7v1.7h-4.8v1.6h2.3c.9 0 1.8 .3 2.3 .8c.5 .4 .8 1.2 .8 2c0 .9 -.3 1.6 -.8 2.1c-.7 .4 -1.4 .8 -2.4 .8Z"/></clipPath>
<clipPath id="cd_27"><path d="M607.8 650.2c.3 0 .8 -.1 1 -.3c.2 -.2 .4 -.5 .4 -.8v-.3c-.3 -.3 -.7 -.3 -1.2 -.3c-.4 0 -.7 .1 -.9 .3c-.3 .1 -.3 .3 -.3 .6c-.1 .2 .1 .5 .2 .6c.2 .1 .5 .2 .8 .2Zm15.2 0c.4 0 .8 -.1 1.1 -.3c.2 -.2 .4 -.5 .4 -.8v-.3c-.4 -.3 -.8 -.3 -1.2 -.3c-.5 0 -.7 .1 -1 .3c-.2 .1 -.3 .3 -.3 .6c-.1 .2 .1 .5 .3 .6c.1 .1 .4 .2 .7 .2Zm-22.3 -.3c.9 -.1 1.4 -.4 1.4 -1.2c0 -.8 -.4 -1.1 -1.4 -1.1h-2.2v2.3Zm31.8 0v-3.7h-1.8v.2c0 1.4 -.1 2.7 -.5 3.5Zm-25.3 1.6c-.8 0 -1.2 -.2 -1.7 -.5c-.5 -.4 -.6 -.9 -.6 -1.6c0 -.8 .2 -1.3 .7 -1.6c.5 -.5 1.2 -.6 2 -.6c.5 0 1.1 .1 1.6 .3v-.1c0 -.8 -.5 -1.2 -1.4 -1.2h-.1c-.6 0 -1.1 .1 -1.7 .4l-.5 -1.5c.7 -.4 1.7 -.6 2.6 -.6c.9 0 1.8 .3 2.3 .8c.4 .5 .7 1.3 .7 2.2v4h-1.9v-.8c-.5 .5 -1.2 .8 -2 .8Zm5.8 0c-.3 0 -.6 0 -.9 0l.1 -1.7h.1c.1 0 .2 .1 .3 .1c.2 -.1 .4 -.1 .5 -.2c.1 -.1 .2 -.3 .3 -.7c.1 -.4 .2 -.8 .2 -1.6c0 -.8 0 -1.7 0 -2.9h5.3v7h-1.8v-5.3h-1.6c-.1 .9 -.1 1.7 -.1 2.3c-.1 .6 -.2 1.2 -.3 1.6c-.2 .3 -.3 .7 -.5 .9c-.2 .2 -.4 .3 -.7 .4c-.3 0 -.5 .1 -.9 .1Zm9.5 0c-.8 0 -1.3 -.2 -1.7 -.5c-.5 -.4 -.6 -.9 -.6 -1.6c0 -.8 .2 -1.3 .7 -1.6c.4 -.5 1.1 -.6 1.9 -.6c.6 0 1.1 .1 1.7 .3v-.1c0 -.8 -.5 -1.2 -1.5 -1.2c-.6 0 -1.1 .1 -1.8 .4l-.5 -1.5c.8 -.4 1.7 -.6 2.6 -.6c1 0 1.8 .3 2.3 .8c.5 .5 .7 1.3 .7 2.2v4h-1.8v-.8c-.5 .5 -1.2 .8 -2 .8Zm5 1.7v-3.3h.7c.4 -1.1 .7 -2.6 .7 -4.7v-.7h5.5v5.4h.8v3.3h-1.9v-1.7h-4.1l-.1 1.7Zm7.8 -1.7l2.5 -4.1l-2.4 -2.9h2.2l2.3 3v-3h1.9v3l2.3 -3h2.2l-2.5 2.9l2.6 4.1h-2.1l-1.7 -2.8l-.8 1v1.8h-1.9v-1.8l-.8 -1l-1.7 2.8Zm12.1 0v-7h1.8v4.1l2.5 -4.1h1.9v7h-1.9v-4l-2.5 4Zm-50.7 0v-8.9h6.7v1.6h-4.9v1.7h2.4c.9 0 1.7 .2 2.3 .7c.5 .5 .8 1.2 .8 2.1c0 .8 -.3 1.6 -.9 2.1c-.6 .4 -1.3 .7 -2.4 .7Z"/></clipPath>
<clipPath id="ce_27"><path d="M800.8 476.8c.4 0 .8 -.1 1.1 -.3c.1 -.3 .4 -.5 .4 -.8v-.4c-.4 -.2 -.8 -.2 -1.2 -.2c-.5 0 -.7 .1 -1 .2c-.2 .1 -.3 .4 -.3 .7c-.1 .2 .1 .4 .3 .6c.1 .1 .4 .2 .7 .2Zm20 0c.4 0 .8 -.1 1.1 -.3c.2 -.3 .4 -.5 .4 -.8v-.4c-.4 -.2 -.8 -.2 -1.2 -.2c-.5 0 -.7 .1 -.9 .2c-.3 .1 -.4 .4 -.4 .7c0 .2 .1 .4 .3 .6c.1 .1 .4 .2 .7 .2Zm15.3 0c.3 0 .8 -.1 1 -.3c.2 -.3 .4 -.5 .4 -.8v-.4c-.3 -.2 -.7 -.2 -1.1 -.2c-.5 0 -.8 .1 -1 .2c-.3 .1 -.3 .4 -.3 .7c-.1 .2 .1 .4 .3 .6c.1 .1 .4 .2 .7 .2Zm15.8 0c.4 0 .8 -.1 1 -.3c.2 -.3 .4 -.5 .4 -.8v-.4c-.3 -.2 -.7 -.2 -1.1 -.2c-.5 0 -.8 .1 -1 .2c-.3 .1 -.3 .4 -.3 .7c-.1 .2 .1 .4 .3 .6c.1 .1 .4 .2 .7 .2Zm31.1 0c.4 0 .8 -.1 1.1 -.3c.2 -.3 .4 -.5 .4 -.8v-.4c-.4 -.2 -.8 -.2 -1.2 -.2c-.5 0 -.7 .1 -.9 .2c-.3 .1 -.4 .4 -.4 .7c0 .2 .1 .4 .3 .6c.1 .1 .4 .2 .7 .2Zm-69.2 -.4c.9 -.1 1.4 -.4 1.4 -1.2c-.1 -.7 -.5 -1.1 -1.4 -1.1h-2.2v2.3Zm86.6 0v-3.6h-1.8v.2c-.1 1.4 -.2 2.6 -.6 3.4Zm-134.1 0c.4 -.1 .8 -.1 1.1 -.5c.2 -.4 .5 -.8 .5 -1.3c0 -.6 -.1 -1 -.5 -1.3c-.4 -.4 -.7 -.5 -1.1 -.5c-.5 0 -.9 .2 -1.2 .5c-.3 .3 -.4 .8 -.4 1.3c-.1 .5 .1 1 .4 1.3c.3 .3 .7 .5 1.2 .5Zm78.4 0c.4 -.1 .9 -.1 1.2 -.5c.2 -.4 .5 -.8 .5 -1.3c-.1 -.6 -.2 -1 -.5 -1.3c-.4 -.4 -.7 -.5 -1.2 -.5c-.5 0 -.8 .2 -1.1 .5c-.3 .3 -.5 .8 -.5 1.3c0 .5 .2 1 .5 1.3c.3 .3 .7 .5 1.1 .5Zm70.8 0c.4 -.1 .8 -.1 1.1 -.5c.2 -.4 .5 -.8 .5 -1.3c0 -.6 -.1 -1 -.5 -1.3c-.4 -.4 -.7 -.5 -1.1 -.5c-.5 0 -.9 .2 -1.2 .5c-.3 .3 -.4 .8 -.4 1.3c-.1 .5 .1 1 .4 1.3c.3 .3 .7 .5 1.2 .5Zm-152.7 3.7v-9h1.9v1.1c.4 -.7 1.2 -1.1 2 -1.1c.8 0 1.6 .3 2.2 1c.5 .5 .9 1.4 .9 2.5c0 1 -.3 1.9 -.9 2.6c-.6 .6 -1.3 .9 -2.2 .9c-.9 0 -1.5 -.3 -2 -1v3Zm8.4 -2v-7h1.9v4.1l2.5 -4.1h1.8v7h-1.9V474l-2.5 4.1Zm7.9 0v-7H781v5.3h2.1v-5.3H785v5.3h2.1v-5.3H789v7Zm11.7 0v-7h1.9v2.7h2.4v-2.7H797v7h-1.9v-2.6h-2.4v2.6Zm9.4 0c-.7 0 -1.2 -.2 -1.6 -.6c-.5 -.4 -.7 -.9 -.7 -1.5c0 -.8 .3 -1.3 .8 -1.7c.4 -.4 1.1 -.5 1.9 -.5c.6 0 1.1 .1 1.7 .3V474c0 -.9 -.5 -1.2 -1.5 -1.2c-.6 0 -1.2 .1 -1.8 .3l-.5 -1.4c.8 -.5 1.7 -.6 2.6 -.6c1 0 1.8 .3 2.3 .8c.4 .5 .7 1.2 .7 2.2v4h-1.8v-.8c-.5 .5 -1.2 .8 -2.1 .8Zm20.1 0c-.8 0 -1.3 -.2 -1.7 -.6c-.5 -.4 -.6 -.9 -.6 -1.5c0 -.8 .2 -1.3 .7 -1.7c.4 -.4 1.1 -.5 1.9 -.5c.6 0 1.1 .1 1.7 .3V474c0 -.9 -.5 -1.2 -1.5 -1.2c-.6 0 -1.1 .1 -1.8 .3l-.5 -1.4c.8 -.5 1.7 -.6 2.7 -.6c.9 0 1.7 .3 2.2 .8c.5 .5 .7 1.2 .7 2.2v4h-1.8v-.8c-.5 .5 -1.2 .8 -2 .8Zm5.8 0c-.4 0 -.7 0 -1 0l.2 -1.7c.1 0 .3 0 .4 0c.2 -.1 .3 0 .5 -.1c0 -.2 .2 -.3 .3 -.7c.1 -.4 .2 -.9 .2 -1.6c0 -.8 0 -1.7 0 -2.9H832v7h-1.9v-5.3h-1.6c0 .9 0 1.7 -.1 2.3c-.1 .5 -.1 1.1 -.2 1.5c-.2 .4 -.3 .7 -.5 .9c-.2 .2 -.5 .4 -.7 .5c-.4 0 -.5 .1 -.9 .1Zm9.4 0c-.7 0 -1.2 -.2 -1.6 -.6c-.6 -.4 -.7 -.9 -.7 -1.5c0 -.8 .3 -1.3 .7 -1.7c.5 -.4 1.2 -.5 2 -.5c.5 0 1.1 .1 1.6 .3V474c0 -.9 -.4 -1.2 -1.4 -1.2c-.7 0 -1.2 .1 -1.8 .3l-.5 -1.4c.7 -.5 1.7 -.6 2.6 -.6c.9 0 1.8 .3 2.3 .8c.4 .5 .7 1.2 .7 2.2v4h-1.9v-.8c-.5 .5 -1.1 .8 -2 .8Zm5.8 2v-9h1.8v1.1c.5 -.7 1.2 -1.1 2.1 -1.1c.7 0 1.5 .3 2.1 1c.6 .5 .9 1.4 .9 2.5c0 1 -.3 1.9 -.8 2.6c-.7 .6 -1.4 .9 -2.2 .9c-.9 0 -1.5 -.3 -2.1 -1v3Zm10 -2c-.7 0 -1.2 -.2 -1.6 -.6c-.6 -.4 -.7 -.9 -.7 -1.5c0 -.8 .3 -1.3 .7 -1.7c.5 -.4 1.2 -.5 2 -.5c.6 0 1.1 .1 1.6 .3V474c0 -.9 -.4 -1.2 -1.4 -1.2c-.7 0 -1.2 .1 -1.8 .3l-.5 -1.4c.7 -.5 1.7 -.6 2.6 -.6c1 0 1.8 .3 2.3 .8c.4 .5 .7 1.2 .7 2.2v4h-1.9v-.8c-.5 .5 -1.1 .8 -2 .8Zm5.8 0v-7H859l1.8 2.9l1.9 -2.9h1.9v7h-1.9v-4.2l-1.9 2.9l-1.9 -2.9v4.2Zm25.4 0c-.8 0 -1.3 -.2 -1.7 -.6c-.5 -.4 -.6 -.9 -.6 -1.5c0 -.8 .2 -1.3 .7 -1.7c.5 -.4 1.1 -.5 1.9 -.5c.6 0 1.1 .1 1.7 .3V474c0 -.9 -.5 -1.2 -1.5 -1.2c-.6 0 -1.1 .1 -1.8 .3l-.5 -1.4c.8 -.5 1.7 -.6 2.6 -.6c1 0 1.8 .3 2.3 .8c.5 .5 .7 1.2 .7 2.2v4h-1.8v-.8c-.5 .5 -1.2 .8 -2 .8Zm5.7 0v-7h1.9v2.7h2.4v-2.7h1.9v7h-1.9v-2.6h-2.4v2.6Zm7.2 1.7v-3.4h.7c.4 -1 .6 -2.5 .6 -4.7v-.6h5.5v5.3h.8v3.4h-1.9v-1.7h-4l-.2 1.7Zm8.7 -1.7v-7h1.8v4.1l2.5 -4.1h1.9v7h-1.9V474l-2.5 4.1Zm7.9 2v-9h1.9v1.1c.4 -.7 1.2 -1.1 2 -1.1c.8 0 1.6 .3 2.2 1c.5 .5 .9 1.4 .9 2.5c0 1 -.3 1.9 -.9 2.6c-.6 .6 -1.3 .9 -2.2 .9c-.9 0 -1.5 -.3 -2 -1v3Zm-158.3 -2v-9h1.9V473l3.5 -3.9h2.3l-3.5 3.8l3.7 5.2h-2.3l-2.7 -3.8l-1 1.1v2.7Zm56 0v-9h6.8v1.7h-4.9v1.6h2.3c1 0 1.8 .3 2.3 .8c.5 .5 .9 1.2 .9 2c0 .9 -.3 1.7 -.9 2.2c-.6 .4 -1.4 .7 -2.4 .7Zm60.3 0v-9h2l2.3 3.8l2.3 -3.8h2v9h-1.8v-5.9l-2.5 3.9l-2.4 -3.8v5.8Z"/></clipPath>
<clipPath id="cf_27"><path d="M823.2 308.4c.5 -.1 .9 -.2 .9 -.5c0 -.4 -.4 -.5 -1 -.5h-1.5v1Zm6.2 .3c.4 0 .8 -.1 1.1 -.3c.2 -.2 .4 -.4 .4 -.8v-.3c-.4 -.2 -.8 -.2 -1.2 -.2c-.5 0 -.7 .1 -.9 .2c-.3 .1 -.4 .4 -.4 .7c0 .1 .1 .4 .3 .5c.1 .1 .4 .2 .7 .2Zm15.8 0c.4 0 .8 -.1 1.1 -.3c.2 -.2 .4 -.4 .4 -.8v-.3c-.4 -.2 -.8 -.2 -1.2 -.2c-.4 0 -.7 .1 -.9 .2c-.3 .1 -.4 .4 -.4 .7c0 .1 .1 .4 .3 .5c.1 .1 .4 .2 .7 .2Zm14.9 0c.4 0 .8 -.1 1.1 -.3c.2 -.2 .4 -.4 .4 -.8v-.3c-.4 -.2 -.8 -.2 -1.2 -.2c-.5 0 -.7 .1 -1 .2c-.2 .1 -.3 .4 -.3 .7c-.1 .1 .1 .4 .3 .5c.1 .1 .4 .2 .7 .2Zm-22 -.3c.4 -.1 .8 -.2 1.2 -.5c.2 -.4 .4 -.8 .4 -1.3c0 -.6 -.1 -1 -.4 -1.3c-.5 -.4 -.7 -.5 -1.2 -.5c-.5 0 -.8 .1 -1.2 .5c-.3 .3 -.4 .8 -.4 1.3c-.1 .5 .1 1 .4 1.3c.4 .3 .7 .5 1.2 .5Zm-15.2 -2.3c.2 0 .5 -.1 .6 -.3c.1 -.1 .2 -.3 .2 -.6c0 -.3 0 -.4 -.2 -.5c-.1 -.3 -.3 -.3 -.5 -.3h-1.4v1.7Zm-3.2 4v-7h3.7c.6 0 1.2 .2 1.6 .5c.3 .3 .6 .8 .6 1.4c-.1 .7 -.3 1.3 -1 1.6c.8 .2 1.3 .9 1.3 1.7c0 .5 -.2 1 -.6 1.3c-.6 .3 -1.1 .5 -1.9 .5Zm9.2 0c-.8 0 -1.2 -.2 -1.7 -.6c-.5 -.4 -.6 -.9 -.6 -1.6c0 -.7 .2 -1.2 .7 -1.6c.5 -.4 1.1 -.5 2 -.5c.5 0 1.1 .1 1.6 .3V306c0 -.9 -.5 -1.2 -1.4 -1.2q-.1 0 -.1 0c-.6 0 -1.1 .1 -1.8 .3l-.5 -1.5c.8 -.4 1.7 -.5 2.7 -.5c.9 0 1.7 .2 2.2 .8c.5 .4 .7 1.2 .7 2.2v4h-1.8v-.8c-.5 .4 -1.2 .8 -2 .8Zm5.7 2v-9h1.9v1.1c.4 -.8 1.2 -1.1 2.1 -1.1c.7 0 1.5 .3 2.1 .9c.6 .6 .9 1.5 .9 2.6c0 1 -.3 1.9 -.9 2.5c-.6 .6 -1.3 1 -2.1 1c-1 0 -1.6 -.4 -2.1 -1.1v3.1Zm10.1 -2c-.8 0 -1.2 -.2 -1.7 -.6c-.5 -.4 -.6 -.9 -.6 -1.6c0 -.7 .2 -1.2 .7 -1.6c.5 -.4 1.1 -.5 2 -.5c.5 0 1.1 .1 1.6 .3V306c0 -.9 -.5 -1.2 -1.4 -1.2q-.1 0 -.1 0c-.6 0 -1.1 .1 -1.8 .3l-.5 -1.5c.8 -.4 1.7 -.5 2.7 -.5c.9 0 1.7 .2 2.2 .8c.5 .4 .8 1.2 .8 2.2v4h-1.9v-.8c-.5 .4 -1.2 .8 -2 .8Zm5.7 0v-7h1.9V306l2.4 -2.9h2.1l-2.4 2.9l2.8 4.1h-2.3l-1.8 -2.7l-.8 1v1.7Zm9.2 0c-.8 0 -1.3 -.2 -1.7 -.6c-.5 -.4 -.7 -.9 -.7 -1.6c0 -.7 .3 -1.2 .8 -1.6c.4 -.4 1.1 -.5 1.9 -.5c.6 0 1.1 .1 1.7 .3V306c0 -.9 -.5 -1.2 -1.5 -1.2c-.6 0 -1.2 .1 -1.8 .3l-.5 -1.5c.8 -.4 1.7 -.5 2.6 -.5c1 0 1.8 .2 2.3 .8c.5 .4 .7 1.2 .7 2.2v4h-1.8v-.8c-.5 .4 -1.2 .8 -2 .8Zm-43.8 -1.7v-5.6h-2.7v.9c0 1.7 -.2 3.3 -.7 4.7Zm-6.3 3.7v-3.7h.8c.3 -.9 .6 -1.7 .7 -2.6c.1 -.9 .3 -2.1 .3 -3.6v-1.1h6.4v7.3h1v3.7h-1.9v-2h-5.5v2Z"/></clipPath>
<clipPath id="cg_27"><path d="M843 649.9c.6 -.1 .9 -.2 .9 -.5c0 -.4 -.3 -.5 -1 -.5h-1.5v1Zm-37.1 .3c.4 0 .8 -.1 1.1 -.3c.1 -.2 .4 -.5 .4 -.8v-.3c-.4 -.3 -.8 -.3 -1.2 -.3c-.5 0 -.7 .1 -1 .3c-.3 .1 -.3 .3 -.3 .6c-.1 .2 .1 .5 .3 .6c.1 .1 .4 .2 .7 .2Zm43.4 0c.3 0 .7 -.1 1 -.3c.2 -.2 .4 -.5 .4 -.8v-.3c-.3 -.3 -.7 -.3 -1.2 -.3c-.4 0 -.7 .1 -.9 .3c-.3 .1 -.4 .3 -.4 .6c0 .2 .1 .5 .3 .6c.2 .1 .5 .2 .8 .2Zm15.8 0c.3 0 .7 -.1 1 -.3c.2 -.2 .4 -.5 .4 -.8v-.3c-.3 -.3 -.7 -.3 -1.2 -.3c-.4 0 -.7 .1 -.9 .3c-.3 .1 -.3 .3 -.3 .6c-.1 .2 0 .5 .2 .6c.2 .1 .5 .2 .8 .2Zm-7.2 -.3c.4 -.1 .9 -.2 1.2 -.5c.2 -.4 .5 -.8 .5 -1.4c-.1 -.5 -.2 -.9 -.5 -1.3c-.4 -.4 -.7 -.5 -1.2 -.5c-.5 0 -.8 .2 -1.1 .5c-.3 .3 -.5 .8 -.5 1.4c-.1 .4 .2 .9 .5 1.3c.3 .2 .7 .5 1.1 .5Zm-33.2 -2.7c-.1 -.3 -.2 -.5 -.5 -.7c-.3 -.3 -.5 -.3 -.9 -.3c-.4 0 -.7 .1 -1 .3c-.3 .1 -.4 .4 -.5 .7Zm18.1 .3c.1 0 .4 0 .5 -.2c.1 -.2 .3 -.4 .3 -.6c0 -.3 -.1 -.4 -.2 -.6c-.2 -.2 -.4 -.2 -.6 -.2h-1.4v1.6Zm-37.5 4c-.7 0 -1.2 -.2 -1.6 -.5c-.6 -.4 -.7 -.9 -.7 -1.6c0 -.8 .3 -1.3 .8 -1.6c.4 -.5 1.1 -.6 1.9 -.6c.6 0 1.1 .1 1.7 .3v-.1c0 -.8 -.5 -1.2 -1.5 -1.2c-.6 0 -1.2 .1 -1.8 .4l-.5 -1.5c.7 -.4 1.7 -.6 2.6 -.6c1 0 1.8 .3 2.3 .8c.4 .5 .7 1.3 .7 2.2v4h-1.8v-.8c-.6 .5 -1.2 .8 -2.1 .8Zm5.8 0v-7H813l1.9 3l1.8 -3h1.9v7h-1.9v-4.2l-1.9 2.9l-1.9 -2.8v4.1Zm12.4 0c-1.1 0 -1.9 -.3 -2.6 -.9c-.6 -.7 -1 -1.5 -1 -2.6c0 -1 .3 -1.8 1 -2.4c.5 -.7 1.4 -1.1 2.4 -1.1c1 0 1.9 .4 2.4 1.1c.5 .6 .9 1.5 .9 2.5c0 0 0 .2 0 .4h-4.8c0 .5 .3 .8 .6 1c.2 .1 .7 .4 1.1 .4c.5 -.1 1.1 -.3 1.6 -.7l1.1 1c-.8 .8 -1.6 1.3 -2.7 1.3Zm4.4 0v-7h1.9v5.4h2.1v-5.4h1.9v5.4h2.1v-5.4h1.9v7Zm11.7 0v-7h3.6c.6 0 1.2 .2 1.6 .6c.3 .2 .6 .7 .6 1.3c0 .7 -.3 1.4 -1 1.7c.8 .2 1.3 .8 1.3 1.7c0 .4 -.2 .9 -.6 1.3c-.5 .2 -1.1 .4 -1.9 .4Zm9.1 0c-.8 0 -1.2 -.2 -1.7 -.5c-.5 -.4 -.6 -.9 -.6 -1.6c0 -.8 .2 -1.3 .7 -1.6c.5 -.5 1.1 -.6 2 -.6c.5 0 1.1 .1 1.6 .3v-.1c0 -.8 -.5 -1.2 -1.4 -1.2c0 0 -.1 0 -.1 0c-.6 0 -1.1 .1 -1.8 .4l-.4 -1.5c.7 -.4 1.7 -.6 2.6 -.6c.9 0 1.7 .3 2.2 .8c.5 .5 .8 1.3 .8 2.2v4h-1.9v-.8c-.5 .5 -1.2 .8 -2 .8Zm5.7 2v-9h1.9v1.1c.5 -.7 1.2 -1.1 2.1 -1.1c.7 0 1.5 .4 2.1 1c.6 .5 .9 1.5 .9 2.6c0 1 -.3 1.9 -.9 2.5c-.6 .6 -1.3 .9 -2.1 .9c-.9 0 -1.5 -.3 -2.1 -1v3Zm10.1 -2c-.8 0 -1.2 -.2 -1.7 -.5c-.5 -.4 -.6 -.9 -.6 -1.6c0 -.8 .2 -1.3 .7 -1.6c.5 -.5 1.2 -.6 2 -.6c.5 0 1.1 .1 1.6 .3v-.1c0 -.8 -.5 -1.2 -1.4 -1.2c0 0 -.1 0 -.1 0c-.6 0 -1.1 .1 -1.8 .4l-.4 -1.5c.7 -.4 1.7 -.6 2.6 -.6c.9 0 1.8 .3 2.3 .8c.4 .5 .7 1.3 .7 2.2v4h-1.9v-.8c-.5 .5 -1.2 .8 -2 .8Zm5.7 0v-7h2l1.8 3l1.9 -3h1.9v7h-1.9v-4.2l-1.9 2.9l-1.9 -2.8v4.1Zm-71.4 -4.3c.4 -.1 .9 -.1 1.1 -.4c.2 -.4 .5 -.7 .5 -1.1c0 -.5 -.2 -.8 -.5 -1.1c-.3 -.3 -.6 -.4 -1.2 -.4h-1.5v3Zm-3.4 4.3v-8.9h3.5c1 0 1.8 .2 2.4 .8c.5 .5 .9 1.4 .9 2.3c0 1 -.3 1.8 -1 2.3c-.7 .5 -1.5 .9 -2.5 .9h-1.5v2.6Z"/></clipPath>
<clipPath id="ch_27"><path d="M1027.3 804.5c-18 0 -32.6 -14.6 -32.6 -32.6c0 -18 14.6 -32.6 32.6 -32.6h289.6v65.2Z"/></clipPath>
<clipPath id="ci_27"><path d="M1204 777.7v-3.1h3.2v3.1Zm23.7 3.1l-.2 -1.2c1.2 -.2 1.9 -.7 1.9 -1.7v-.2h-1.2v-3.1h3.1v2.6c0 1.2 -.3 2.1 -.9 2.7c-.6 .5 -1.5 .9 -2.7 .9Zm44.6 -3.1v-3.1h3.2v3.1Zm-184.1 -1.9c.6 0 1.2 -.1 1.6 -.5c.4 -.5 .6 -.8 .6 -1.4v-.5c-.5 -.3 -1.1 -.4 -1.8 -.4c-.6 0 -1.1 .1 -1.4 .4c-.4 .2 -.5 .6 -.5 1.1c-.1 .4 .1 .7 .4 1c.3 .2 .7 .3 1.1 .3Zm25.1 -.5c.9 0 1.5 -.4 1.5 -1.2c0 -.4 -.2 -.6 -.4 -.8c-.4 -.3 -.6 -.3 -1.1 -.3h-1.9v2.3Zm39.1 .5c.6 0 1.2 -.1 1.6 -.5c.4 -.5 .6 -.8 .6 -1.4v-.5c-.5 -.3 -1.1 -.4 -1.8 -.4c-.7 0 -1.1 .1 -1.4 .4c-.4 .2 -.6 .6 -.6 1.1c0 .4 .2 .7 .5 1c.3 .2 .6 .3 1.1 .3Zm44 0c.6 0 1.2 -.1 1.6 -.5c.3 -.5 .6 -.8 .6 -1.4v-.5c-.6 -.3 -1.2 -.4 -1.8 -.4c-.7 0 -1.1 .1 -1.5 .4c-.3 .2 -.5 .6 -.5 1.1c-.1 .4 .2 .7 .4 1c.3 .2 .7 .3 1.2 .3Zm68.3 0c.7 0 1.2 -.1 1.6 -.5c.4 -.5 .7 -.8 .7 -1.4v-.5c-.6 -.3 -1.2 -.4 -1.8 -.4c-.7 0 -1.1 .1 -1.5 .4c-.3 .2 -.5 .6 -.5 1.1c-.1 .4 .2 .7 .4 1c.3 .2 .7 .3 1.1 .3Zm-26.1 -.4c.7 0 1.3 -.2 1.7 -.5c.4 -.4 .7 -.7 .7 -1.2c-.1 -.5 -.3 -1 -.7 -1.3c-.5 -.3 -1 -.4 -1.7 -.4c-.1 0 -.2 0 -.3 0c-.6 0 -1 .2 -1.4 .5c-.4 .2 -.6 .7 -.6 1.2c-.1 .5 .2 .9 .6 1.2c.4 .3 1 .5 1.7 .5Zm-136 -.3v-5.2h-2.8v.2c0 2.2 -.2 3.9 -.8 5Zm-44.6 .2c.7 -.1 1.5 -.3 2 -.8c.4 -.6 .7 -1.2 .7 -2c0 -.8 -.3 -1.4 -.8 -1.9c-.6 -.7 -1.1 -.9 -1.9 -.9q-.1 0 -.1 0c-.9 0 -1.4 .3 -1.9 .8c-.6 .5 -.7 1.2 -.7 2c-.1 .7 .2 1.4 .8 2c.5 .5 1.1 .8 1.9 .8Zm-29.3 2.4V767.3h9.3v10.4h-2.9v-7.8h-3.5v7.8Zm12.2 0c-.6 0 -1 -.1 -1.5 -.1l.2 -2.5c.2 0 .4 0 .6 0c.3 0 .6 -.1 .8 -.2c.1 -.2 .4 -.5 .5 -1c.2 -.6 .3 -1.3 .3 -2.3c0 -1.2 0 -2.5 0 -4.3h8.3v10.4h-2.9v-7.8h-2.5c-.1 1.3 0 2.5 -.2 3.4c-.1 .8 -.2 1.6 -.4 2.2c-.3 .5 -.4 1 -.7 1.3c-.4 .3 -.7 .6 -1.1 .7c-.4 .1 -.8 .2 -1.4 .2Zm39 2.4v-2.4h-14V767.3h2.9v7.8h3.5v-7.8h2.9v7.8h3.4v-7.8h2.9v7.8h1.1v5Zm14.9 0v-5h1.1c.6 -1.4 1 -3.7 1 -6.9v-.9h8.6v7.8h1.1v5h-2.7v-2.4h-6.4l-.2 2.4Zm13.7 -2.4V767.3h2.9v3.4h2.1c1.2 0 2.3 .3 3 .9c.8 .5 1.2 1.4 1.2 2.5c-.1 1.1 -.4 2 -1.1 2.6c-.7 .6 -1.7 1 -2.9 1Zm19.2 3c-1 0 -1.8 -.3 -2.7 -.8l1 -2.2c.4 .3 .9 .4 1.3 .4c.4 0 .8 -.2 1 -.7l-4 -10.1h3.1l2.3 6.9l2.3 -6.9h3.1l-4 10.5c-.5 1 -.9 1.8 -1.4 2.2c-.5 .4 -1.2 .7 -2 .7Zm15.2 -3V774c-.9 .3 -1.8 .7 -2.8 .7c-1.1 0 -1.9 -.3 -2.6 -.9c-.7 -.6 -1 -1.4 -1 -2.4v-4.1h2.9v3.2c-.1 1 .5 1.6 1.5 1.6c.6 0 1.3 -.1 2 -.5v-4.3h2.9v10.4Zm30.4 0v-7.8h-3.1v-2.6h9.3v2.6h-3.3v7.8Zm7.6 0V767.3h2.9v4.3l3.7 -4.3h3.4l-3.8 4.3l4.3 6.1h-3.5l-2.7 -4l-1.4 1.5v2.5Zm23.1 -7.3v-3.1h3.2v3.1Zm-39.2 7.4c-1.5 0 -2.8 -.5 -3.8 -1.5c-1.1 -1.1 -1.6 -2.3 -1.6 -3.8c0 -1.5 .5 -2.7 1.6 -3.8c.9 -1 2.3 -1.5 3.9 -1.5c0 0 .1 0 .2 0c1.5 0 2.9 .6 3.9 1.8l-1.7 1.7c-.8 -.7 -1.6 -1 -2.4 -1q-.1 0 -.1 0c-.7 0 -1.3 .3 -1.7 .8c-.6 .5 -.8 1.2 -.8 2c0 .7 .3 1.4 .8 2c.3 .5 1.1 .8 1.9 .8c.7 -.1 1.6 -.4 2.4 -1.1l1.7 1.7c-.6 .6 -1.2 1.1 -1.8 1.4c-.7 .4 -1.5 .5 -2.5 .5Zm-106.8 0c-1.7 0 -3 -.5 -4 -1.5c-1.2 -1.1 -1.6 -2.3 -1.6 -3.8c0 -1.5 .5 -2.7 1.6 -3.8c1 -1 2.4 -1.5 4 -1.5q.1 0 .2 0c1.4 0 2.8 .5 3.8 1.5c1 1 1.6 2.3 1.6 3.8c-.1 1.4 -.5 2.8 -1.6 3.8c-1.2 .9 -2.4 1.5 -4 1.5Zm29.3 0c-1.1 0 -1.8 -.3 -2.5 -.8c-.7 -.7 -1 -1.4 -1 -2.4c0 -1.2 .4 -1.9 1.1 -2.4c.7 -.6 1.8 -.9 3 -.9c.8 0 1.7 .2 2.5 .4v-.1c0 -1.3 -.7 -1.9 -2.2 -1.9h-.1c-.8 0 -1.7 .2 -2.7 .6l-.7 -2.3c1.2 -.5 2.6 -.8 4 -.8c.1 0 .2 0 .3 0c1.3 0 2.5 .4 3.2 1.1c.7 .7 1.1 1.9 1.1 3.3v6.1h-2.9v-1.2c-.7 .8 -1.8 1.3 -3.1 1.3Zm64.2 0c-1.1 0 -1.9 -.3 -2.6 -.8c-.6 -.7 -1 -1.4 -1 -2.4c0 -1.2 .4 -1.9 1.2 -2.4c.7 -.6 1.7 -.9 3 -.9c.8 0 1.7 .2 2.5 .4v-.1c0 -1.3 -.7 -1.9 -2.2 -1.9c0 0 -.1 0 -.1 0c-.9 0 -1.7 .2 -2.7 .6l-.8 -2.3c1.2 -.5 2.7 -.8 4.1 -.8q.1 0 .2 0c1.4 0 2.5 .4 3.3 1.1c.7 .7 1.1 1.9 1.1 3.3v6.1h-2.9v-1.2c-.8 .8 -1.8 1.3 -3.1 1.3Zm44 0c-1.1 0 -1.9 -.3 -2.6 -.8c-.7 -.7 -1 -1.4 -1 -2.4c0 -1.2 .4 -1.9 1.1 -2.4c.7 -.6 1.8 -.9 3.1 -.9c.8 0 1.7 .2 2.5 .4v-.1c0 -1.3 -.8 -1.9 -2.2 -1.9q-.1 0 -.1 0c-.9 0 -1.8 .2 -2.7 .6l-.8 -2.3c1.2 -.5 2.6 -.8 4 -.8c.1 0 .2 0 .3 0c1.4 0 2.5 .4 3.2 1.1c.8 .7 1.2 1.9 1.2 3.3v6.1h-2.9v-1.2c-.8 .8 -1.9 1.3 -3.1 1.3Zm68.3 0c-1 0 -1.8 -.3 -2.5 -.8c-.7 -.7 -1 -1.4 -1 -2.4c0 -1.2 .4 -1.9 1.1 -2.4c.7 -.6 1.8 -.9 3 -.9c.9 0 1.7 .2 2.6 .4v-.1c0 -1.3 -.8 -1.9 -2.2 -1.9q-.1 0 -.1 0c-.9 0 -1.8 .2 -2.7 .6l-.8 -2.3c1.2 -.5 2.6 -.8 4 -.8c.1 0 .2 0 .3 0c1.3 0 2.5 .4 3.2 1.1c.7 .7 1.2 1.9 1.2 3.3v6.1H1267v-1.2c-.8 .8 -1.9 1.3 -3.2 1.3Zm-43.1 -7.3c.7 0 1.3 -.1 1.7 -.5c.4 -.5 .6 -.9 .6 -1.5c0 -.7 -.2 -1.1 -.6 -1.5c-.5 -.5 -1 -.6 -1.7 -.6q-.1 0 -.1 0c-.7 0 -1.2 .2 -1.6 .6c-.4 .3 -.6 .9 -.6 1.5c-.1 .6 .2 1.1 .6 1.5c.4 .3 1 .5 1.7 .5Zm17.9 -.9c.6 -.1 1.1 -.1 1.4 -.4c.3 -.4 .6 -.7 .6 -1.2c-.1 -.6 -.2 -.9 -.6 -1.2c-.4 -.3 -.8 -.4 -1.4 -.4c-.6 0 -1.1 .1 -1.4 .4c-.4 .3 -.5 .7 -.5 1.2c-.1 .4 .2 .8 .5 1.2c.4 .2 .8 .4 1.4 .4Zm13.6 8.1V764h9.5v2.6h-6.6v11.1Zm-13.6 .2c-1.5 -.1 -2.8 -.4 -3.7 -1.1c-1 -.8 -1.5 -1.7 -1.5 -2.9c-.1 -1.6 .7 -2.6 2.2 -3.3c-1.2 -.8 -1.8 -1.7 -1.8 -3c0 -1.1 .5 -1.9 1.4 -2.6c.9 -.8 2 -1.1 3.4 -1.1c.1 0 .2 0 .3 0c1.3 0 2.3 .4 3.2 1.1c.8 .6 1.3 1.6 1.3 2.7c-.1 1.1 -.6 2.2 -1.7 2.9c.6 .3 1.2 .9 1.6 1.3c.3 .4 .5 1.2 .5 2c0 1.1 -.4 2.2 -1.4 2.9c-1.1 .7 -2.3 1.1 -3.8 1.1Zm-18.4 0c-1.8 -.1 -3.2 -.5 -4.5 -1.6l1.6 -2.3c.8 .8 1.9 1.2 2.9 1.2c.7 -.1 1.5 -.3 1.9 -.9c.4 -.5 .8 -1.3 .9 -2.2c-.7 .6 -1.7 .9 -2.8 .9c-1.5 0 -2.6 -.4 -3.5 -1.1c-.9 -.9 -1.3 -1.9 -1.3 -3.3c0 -1.4 .5 -2.5 1.4 -3.4c.9 -1 2.2 -1.3 3.8 -1.3c.1 0 .2 -.1 .3 -.1c.7 0 1.4 .2 1.9 .4c.5 .2 1.2 .6 1.7 1.1c1 1 1.6 2.8 1.6 5.2c-.1 2.2 -.5 4 -1.6 5.4c-1.1 1.3 -2.5 2 -4.3 2Z"/></clipPath>
</defs>
<image clip-path="url(#c0_27)" preserveAspectRatio="none" x="150" y="0" width="1167" height="825" xlink:href="img/1.jpg"/>
<image clip-path="url(#c1_27)" preserveAspectRatio="none" x="150" y="0" width="1167" height="825" xlink:href="img/2.jpg"/>
<image clip-path="url(#c2_27)" preserveAspectRatio="none" x="150" y="0" width="1167" height="825" xlink:href="img/3.jpg"/>
<image clip-path="url(#c3_27)" preserveAspectRatio="none" x="150" y="0" width="1167" height="825" xlink:href="img/4.jpg"/>
<image clip-path="url(#c4_27)" preserveAspectRatio="none" x="150" y="0" width="1167" height="825" xlink:href="img/5.jpg"/>
<image clip-path="url(#c5_27)" preserveAspectRatio="none" x="150" y="0" width="1167" height="825" xlink:href="img/6.jpg"/>
<image clip-path="url(#c6_27)" preserveAspectRatio="none" x="150" y="0" width="1167" height="825" xlink:href="img/7.jpg"/>
<image clip-path="url(#c7_27)" preserveAspectRatio="none" x="150" y="0" width="1167" height="825" xlink:href="img/8.jpg"/>
<image clip-path="url(#c8_27)" preserveAspectRatio="none" x="150" y="0" width="1167" height="825" xlink:href="img/9.jpg"/>
<image clip-path="url(#c9_27)" preserveAspectRatio="none" x="150" y="0" width="1167" height="825" xlink:href="img/10.jpg"/>
<image clip-path="url(#ca_27)" preserveAspectRatio="none" x="150" y="0" width="1167" height="825" xlink:href="img/11.jpg"/>
<image clip-path="url(#cb_27)" preserveAspectRatio="none" x="150" y="0" width="1167" height="825" xlink:href="img/12.jpg"/>
<image clip-path="url(#cc_27)" preserveAspectRatio="none" x="150" y="0" width="1167" height="825" xlink:href="img/13.jpg"/>
<image clip-path="url(#cd_27)" preserveAspectRatio="none" x="150" y="0" width="1167" height="825" xlink:href="img/14.jpg"/>
<image clip-path="url(#ce_27)" preserveAspectRatio="none" x="150" y="0" width="1167" height="825" xlink:href="img/15.jpg"/>
<image clip-path="url(#cf_27)" preserveAspectRatio="none" x="150" y="0" width="1167" height="825" xlink:href="img/16.jpg"/>
<image clip-path="url(#cg_27)" preserveAspectRatio="none" x="150" y="0" width="1167" height="825" xlink:href="img/17.jpg"/>
<image clip-path="url(#ch_27)" preserveAspectRatio="none" x="150" y="0" width="1167" height="825" xlink:href="img/18.jpg"/>
<image clip-path="url(#ci_27)" preserveAspectRatio="none" x="150" y="0" width="1167" height="825" xlink:href="img/19.jpg"/>
</svg>