<?xml version="1.0" encoding="UTF-8" standalone="no"?>
<!DOCTYPE svg PUBLIC "-//W3C//DTD SVG 1.1//EN"
"http://www.w3.org/Graphics/SVG/1.1/DTD/svg11.dtd">
<svg viewBox="0 0 1466 825" version="1.1" xmlns="http://www.w3.org/2000/svg" xmlns:xlink="http://www.w3.org/1999/xlink">
<defs>
<clipPath id="c0_3"><path d="M.1 825V0H1466.7V825Z"/></clipPath>
<style type="text/css"><![CDATA[
.g0_3{
fill: #FFF;
}
.g1_3{
fill: #FFC000;
}
.g2_3{
fill: none;
stroke: #FFF;
stroke-width: 2.444;
stroke-miterlimit: 10;
}
]]></style>
</defs>
<g clip-path="url(#c0_3)">
<path fill-rule="evenodd" d="M.1 825H1466.7V0H.1V825Z" class="g0_3"/>
<path fill-rule="evenodd" d="M-94.9 873.6H1690.7V204.1H-94.9V873.6Z" class="g0_3"/>
<image preserveAspectRatio="none" x="-94" y="204" width="1785" height="670" xlink:href="img/1.jpg"/>
</g>
<path fill-rule="evenodd" d="M61.8 290H93.9V256.7H61.8V290Z" class="g0_3"/>
<path fill-rule="evenodd" d="M245.7 591.6h31.8V558.2H245.7v33.4Z" class="g0_3"/>
<path fill-rule="evenodd" d="M503.6 519.4h32.1V486.1H503.6v33.3Z" class="g0_3"/>
<path fill-rule="evenodd" d="M426.6 623h32.1V589.7H426.6V623Z" class="g0_3"/>
<path fill-rule="evenodd" d="M985.5 593.1h32.1V559.8H985.5v33.3Z" class="g0_3"/>
<path fill-rule="evenodd" d="M1168.5 665.5h32.1V632.2h-32.1v33.3Z" class="g0_3"/>
<path fill-rule="evenodd" d="M108.2 519.7H417.8V429.6H108.2v90.1Z" class="g0_3"/>
<path fill-rule="evenodd" d="M494.8 465.1H837V368.8H494.8v96.3Z" class="g0_3"/>
<path fill-rule="evenodd" d="M74.8 326c1.3 2.8 3.5 2.8 4.9 0c5.8 -12 19.9 -41.1 20.4 -42.3v-.2c.9 -2.5 1.4 -5.1 1.4 -7.9c0 -13.3 -10.9 -24.1 -24.3 -24.1c-13.4 0 -24.3 10.8 -24.3 24.1c0 1.9 .3 3.8 .7 5.7l.1 .1c.6 2.4 15.2 32.5 21.1 44.6Zm2.4 -64c7.6 0 13.7 6.1 13.7 13.6c0 7.5 -6.1 13.6 -13.7 13.6c-7.5 0 -13.7 -6.1 -13.7 -13.6c0 -7.5 6.2 -13.6 13.7 -13.6Z" class="g1_3"/>
<path d="M74.8 326c1.3 2.8 3.5 2.8 4.9 0c5.8 -12 19.9 -41.1 20.4 -42.3v-.2c.9 -2.5 1.4 -5.1 1.4 -7.9c0 -13.3 -10.9 -24.1 -24.3 -24.1c-13.4 0 -24.3 10.8 -24.3 24.1c0 1.9 .3 3.8 .7 5.7l.1 .1c.6 2.4 15.2 32.5 21.1 44.6Zm2.4 -64c7.6 0 13.7 6.1 13.7 13.6c0 7.5 -6.1 13.6 -13.7 13.6c-7.5 0 -13.7 -6.1 -13.7 -13.6c0 -7.5 6.2 -13.6 13.7 -13.6Z" class="g2_3"/>
<path fill-rule="evenodd" d="M516.5 553.6c1.3 2.8 3.5 2.8 4.8 0c5.8 -12 19.8 -41.2 20.3 -42.4l.1 -.2c.9 -2.5 1.3 -5.2 1.3 -8c0 -13.4 -10.8 -24.2 -24.1 -24.2c-13.3 0 -24.1 10.8 -24.1 24.2c0 2 .2 3.9 .7 5.7v.1c.6 2.5 15.1 32.7 21 44.8Zm2.4 -64.3c7.5 0 13.6 6.2 13.6 13.7c0 7.5 -6.1 13.6 -13.6 13.6c-7.5 0 -13.6 -6.1 -13.6 -13.6c0 -7.5 6.1 -13.7 13.6 -13.7Z" class="g1_3"/>
<path d="M516.5 553.6c1.3 2.8 3.5 2.8 4.8 0c5.8 -12 19.8 -41.2 20.3 -42.4l.1 -.2c.9 -2.5 1.3 -5.2 1.3 -8c0 -13.4 -10.8 -24.2 -24.1 -24.2c-13.3 0 -24.1 10.8 -24.1 24.2c0 2 .2 3.9 .7 5.7v.1c.6 2.5 15.1 32.7 21 44.8Zm2.4 -64.3c7.5 0 13.6 6.2 13.6 13.7c0 7.5 -6.1 13.6 -13.6 13.6c-7.5 0 -13.6 -6.1 -13.6 -13.6c0 -7.5 6.1 -13.7 13.6 -13.7Z" class="g2_3"/>
<path fill-rule="evenodd" d="M258.9 625.4c1.3 2.8 3.5 2.8 4.9 0c5.7 -11.9 19.8 -41 20.2 -42.2l.1 -.2c.9 -2.5 1.4 -5.2 1.4 -8c0 -13.3 -10.8 -24.1 -24.2 -24.1c-13.3 0 -24.1 10.8 -24.1 24.1c0 2 .2 3.9 .7 5.7v.1c.6 2.5 15.1 32.5 21 44.6Zm2.4 -64c7.5 0 13.6 6.1 13.6 13.6c0 7.5 -6.1 13.6 -13.6 13.6c-7.5 0 -13.6 -6.1 -13.6 -13.6c0 -7.5 6.1 -13.6 13.6 -13.6Z" class="g1_3"/>
<path d="M258.9 625.4c1.3 2.8 3.5 2.8 4.9 0c5.7 -11.9 19.8 -41 20.2 -42.2l.1 -.2c.9 -2.5 1.4 -5.2 1.4 -8c0 -13.3 -10.8 -24.1 -24.2 -24.1c-13.3 0 -24.1 10.8 -24.1 24.1c0 2 .2 3.9 .7 5.7v.1c.6 2.5 15.1 32.5 21 44.6Zm2.4 -64c7.5 0 13.6 6.1 13.6 13.6c0 7.5 -6.1 13.6 -13.6 13.6c-7.5 0 -13.6 -6.1 -13.6 -13.6c0 -7.5 6.1 -13.6 13.6 -13.6Z" class="g2_3"/>
<path fill-rule="evenodd" d="M874 511.8h342.2V410.7H874V511.8Z" class="g0_3"/>
<path fill-rule="evenodd" d="M1160.3 619.4H1423V541.7H1160.3v77.7Z" class="g0_3"/>
<path fill-rule="evenodd" d="M442.3 658.1c1.4 2.8 3.6 2.8 5 0c5.8 -12 19.9 -41.2 20.3 -42.4l.1 -.2c.9 -2.5 1.4 -5.2 1.4 -8c0 -13.4 -10.9 -24.2 -24.3 -24.2c-13.4 0 -24.3 10.8 -24.3 24.2c0 2 .3 3.9 .7 5.7v.1c.7 2.5 15.2 32.7 21.1 44.8Zm2.5 -64.3c7.6 0 13.7 6.2 13.7 13.7c0 7.5 -6.1 13.6 -13.7 13.6c-7.6 0 -13.7 -6.1 -13.7 -13.6c0 -7.5 6.1 -13.7 13.7 -13.7Z" class="g1_3"/>
<path d="M442.3 658.1c1.4 2.8 3.6 2.8 5 0c5.8 -12 19.9 -41.2 20.3 -42.4l.1 -.2c.9 -2.5 1.4 -5.2 1.4 -8c0 -13.4 -10.9 -24.2 -24.3 -24.2c-13.4 0 -24.3 10.8 -24.3 24.2c0 2 .3 3.9 .7 5.7v.1c.7 2.5 15.2 32.7 21.1 44.8Zm2.5 -64.3c7.6 0 13.7 6.2 13.7 13.7c0 7.5 -6.1 13.6 -13.7 13.6c-7.6 0 -13.7 -6.1 -13.7 -13.6c0 -7.5 6.1 -13.7 13.7 -13.7Z" class="g2_3"/>
<path fill-rule="evenodd" d="M998.9 627c1.4 2.8 3.6 2.8 4.9 0c5.8 -12 19.8 -41.3 20.3 -42.5v-.2c.9 -2.5 1.4 -5.2 1.4 -8c0 -13.3 -10.8 -24.2 -24.1 -24.2c-13.4 0 -24.2 10.9 -24.2 24.2c0 2 .3 3.9 .7 5.8l.1 .1c.6 2.4 15.1 32.6 20.9 44.8Zm2.5 -64.3c7.5 0 13.6 6.1 13.6 13.6c0 7.6 -6.1 13.7 -13.6 13.7c-7.5 0 -13.7 -6.1 -13.7 -13.7c0 -7.5 6.2 -13.6 13.7 -13.6Z" class="g1_3"/>
<path d="M998.9 627c1.4 2.8 3.6 2.8 4.9 0c5.8 -12 19.8 -41.3 20.3 -42.5v-.2c.9 -2.5 1.4 -5.2 1.4 -8c0 -13.3 -10.8 -24.2 -24.1 -24.2c-13.4 0 -24.2 10.9 -24.2 24.2c0 2 .3 3.9 .7 5.8l.1 .1c.6 2.4 15.1 32.6 20.9 44.8Zm2.5 -64.3c7.5 0 13.6 6.1 13.6 13.6c0 7.6 -6.1 13.7 -13.6 13.7c-7.5 0 -13.7 -6.1 -13.7 -13.7c0 -7.5 6.2 -13.6 13.7 -13.6Z" class="g2_3"/>
<path fill-rule="evenodd" d="M1182 699.4c1.3 2.8 3.5 2.8 4.8 0c5.8 -12 19.8 -41.2 20.3 -42.5l.1 -.2c.9 -2.5 1.3 -5.1 1.3 -7.9c0 -13.4 -10.8 -24.2 -24.1 -24.2c-13.3 0 -24.1 10.8 -24.1 24.2c0 1.9 .2 3.8 .7 5.7v.1c.6 2.5 15.1 32.6 21 44.8Zm2.4 -64.3c7.5 0 13.6 6.1 13.6 13.7c0 7.5 -6.1 13.6 -13.6 13.6c-7.5 0 -13.6 -6.1 -13.6 -13.6c0 -7.6 6.1 -13.7 13.6 -13.7Z" class="g1_3"/>
<path d="M1182 699.4c1.3 2.8 3.5 2.8 4.8 0c5.8 -12 19.8 -41.2 20.3 -42.5l.1 -.2c.9 -2.5 1.3 -5.1 1.3 -7.9c0 -13.4 -10.8 -24.2 -24.1 -24.2c-13.3 0 -24.1 10.8 -24.1 24.2c0 1.9 .2 3.8 .7 5.7v.1c.6 2.5 15.1 32.6 21 44.8Zm2.4 -64.3c7.5 0 13.6 6.1 13.6 13.7c0 7.5 -6.1 13.6 -13.6 13.6c-7.5 0 -13.6 -6.1 -13.6 -13.6c0 -7.6 6.1 -13.7 13.6 -13.7Z" class="g2_3"/>
<image clip-path="url(#c0_3)" preserveAspectRatio="none" x="113" y="68" width="110" height="21" xlink:href="img/2.png"/>
</svg>