<?xml version="1.0" encoding="UTF-8" standalone="no"?>
<!DOCTYPE svg PUBLIC "-//W3C//DTD SVG 1.1//EN"
"http://www.w3.org/Graphics/SVG/1.1/DTD/svg11.dtd">
<svg viewBox="0 0 1466 825" version="1.1" xmlns="http://www.w3.org/2000/svg" xmlns:xlink="http://www.w3.org/1999/xlink">
<defs>
<clipPath id="c0_17"><path d="M237.1 741.8c-1.9 0 -3.4 -1.5 -3.4 -3.3V86.5c0 -1.8 1.5 -3.3 3.4 -3.3h993c1.8 0 3.3 1.5 3.3 3.3v652c0 1.8 -1.5 3.3 -3.3 3.3Z"/></clipPath>
<clipPath id="c1_17"><path d="M923.4 550.3c1.1 0 1.6 -.3 1.6 -1.1c0 -.8 -.5 -1.2 -1.6 -1.2h-2.7v2.3Zm-353.8 .4c.7 0 1.4 -.2 1.9 -.6c.3 -.5 .7 -1 .7 -1.6v-.7c-.6 -.3 -1.3 -.4 -2.1 -.4c-.8 0 -1.3 .1 -1.7 .4c-.5 .3 -.6 .8 -.6 1.3c-.1 .5 .2 .9 .5 1.2c.3 .2 .8 .4 1.3 .4Zm48.2 -.7c1.1 0 1.8 -.4 1.8 -1.4c0 -.5 -.2 -.7 -.5 -.9c-.3 -.2 -.7 -.3 -1.3 -.3h-2.2V550Zm59.3 .7c.7 0 1.4 -.2 1.9 -.6c.3 -.5 .7 -1 .7 -1.6v-.7c-.7 -.3 -1.3 -.4 -2.1 -.4c-.8 0 -1.3 .1 -1.7 .4c-.5 .3 -.6 .8 -.6 1.3c-.1 .5 .2 .9 .5 1.2c.3 .2 .8 .4 1.3 .4Zm48 -.7c1.1 0 1.7 -.4 1.7 -1.4c0 -.5 -.1 -.7 -.4 -.9c-.4 -.2 -.8 -.3 -1.3 -.3h-2.3V550Zm78.6 .7c.7 0 1.3 -.2 1.8 -.6c.4 -.5 .7 -1 .7 -1.6v-.7c-.6 -.3 -1.3 -.4 -2.1 -.4c-.8 0 -1.2 .1 -1.6 .4c-.5 .3 -.6 .8 -.6 1.3c-.1 .5 .2 .9 .5 1.2c.3 .2 .7 .4 1.3 .4Zm48.2 -.7c1.1 0 1.7 -.4 1.7 -1.4c0 -.5 -.1 -.7 -.4 -.9c-.4 -.2 -.8 -.3 -1.3 -.3h-2.2V550Zm56.7 .7c.7 0 1.3 -.2 1.8 -.6c.4 -.5 .7 -1 .7 -1.6v-.7c-.6 -.3 -1.3 -.4 -2.1 -.4c-.8 0 -1.2 .1 -1.6 .4c-.5 .3 -.6 .8 -.6 1.3c-.1 .5 .2 .9 .5 1.2c.3 .2 .7 .4 1.3 .4Zm75.7 0c.7 0 1.4 -.2 1.8 -.6c.4 -.5 .7 -1 .7 -1.6v-.7c-.6 -.3 -1.3 -.4 -2 -.4c-.8 0 -1.3 .1 -1.7 .4c-.5 .3 -.6 .8 -.6 1.3c-.1 .5 .2 .9 .5 1.2c.3 .2 .8 .4 1.3 .4ZM743.7 547.4v-3.2h9.5v3.2ZM652.6 550v-6.3h-3v.2c-.1 2.6 -.3 4.7 -.9 6.1Zm60.2 0v-6.3h-3v.2c-.1 2.6 -.3 4.7 -.9 6.1Zm260.6 0v-6.3h-3v.2c-.1 2.6 -.3 4.7 -.9 6.1Zm-336.6 .1c.9 -.1 1.7 -.4 2.3 -1c.5 -.6 .9 -1.4 .9 -2.3c0 -1 -.3 -1.7 -.9 -2.3c-.7 -.7 -1.4 -1 -2.3 -1q-.1 0 -.2 0c-.9 0 -1.6 .3 -2.1 .9c-.7 .6 -.9 1.4 -.9 2.4c-.1 .9 .3 1.7 .9 2.3c.5 .6 1.4 1 2.3 1Zm131.2 0c.9 -.1 1.7 -.4 2.3 -1c.5 -.6 .8 -1.4 .8 -2.3c0 -1 -.3 -1.7 -.8 -2.3c-.7 -.7 -1.4 -1 -2.3 -1q-.1 0 -.2 0c-.9 0 -1.6 .3 -2.1 .9c-.7 .6 -.9 1.4 -.9 2.4c-.1 .9 .3 1.7 .9 2.3c.5 .6 1.4 1 2.3 1ZM499 550c.7 0 1.5 -.3 2 -.9c.5 -.6 .8 -1.4 .8 -2.4c0 -.9 -.2 -1.7 -.8 -2.3c-.6 -.6 -1.2 -.9 -2 -.9q-.1 0 -.1 0c-.8 0 -1.4 .3 -1.9 .9c-.6 .6 -.8 1.4 -.8 2.4c-.1 .9 .2 1.7 .8 2.3c.5 .6 1.2 .9 2 .9Zm30.2 -4c-.2 -.7 -.4 -1.4 -.8 -1.8c-.6 -.5 -1 -.7 -1.7 -.7q-.1 0 -.2 0c-.7 0 -1.1 .2 -1.5 .7c-.5 .4 -.8 1 -.9 1.8Zm56.9 0c-.1 -.7 -.3 -1.4 -.8 -1.8c-.5 -.5 -1 -.7 -1.7 -.7c0 0 -.1 0 -.1 0c-.7 0 -1.1 .2 -1.6 .7c-.5 .4 -.7 1 -.8 1.8Zm234.1 0c-.1 -.7 -.4 -1.4 -.8 -1.8c-.5 -.5 -1 -.7 -1.7 -.7q-.1 0 -.2 0c-.6 0 -1.1 .2 -1.5 .7c-.5 .4 -.8 1 -.9 1.8Zm130 0c-.2 -.7 -.4 -1.4 -.9 -1.8c-.5 -.5 -1 -.7 -1.6 -.7q-.1 0 -.2 0c-.7 0 -1.1 .2 -1.5 .7c-.6 .4 -.8 1 -.9 1.8Zm-72.2 .4v-3h-2.3c-.8 0 -1.1 .1 -1.5 .4c-.4 .2 -.5 .6 -.5 1.1c-.1 .4 .2 .8 .5 1.1c.3 .1 .9 .4 1.5 .4Zm45 -.7c.3 0 .8 -.1 1 -.3c.1 -.4 .4 -.6 .4 -.9c0 -.4 -.2 -.6 -.4 -.8c-.2 -.3 -.5 -.3 -1 -.3h-2.3v2.3Zm-415.4 7v-12h3.3v7l4.4 -7h3.3v12h-3.3v-7l-4.5 7Zm37.1 0l4.5 -7l-4.4 -5h3.9l4.2 5.1v-5.1h3.3v5.1l4.1 -5.1h3.9l-4.3 5l4.4 7h-3.7l-3 -4.8l-1.4 1.7v3.1h-3.3v-3.1l-1.5 -1.7l-3 4.8Zm47.1 0v-12h3.3v9h4v-9h3.3v9h4v-9h3.3v12Zm20.5 0v-12h3.3v4h2.5c1.4 0 2.6 .3 3.5 1c.9 .7 1.3 1.6 1.3 2.9c-.1 1.2 -.4 2.3 -1.2 3c-.9 .6 -1.9 1.1 -3.4 1.1Zm31.5 3V550h1.3c.7 -1.7 1.1 -4.4 1.1 -8.2v-1.1h9.7V550h1.6l-.4 5.7h-2.8V553h-7.4l-.2 2.7Zm15.5 -3v-12h3.3v4.4H667v-4.4h3.3v12H667V548h-4.4v4.7Zm44.6 3v-3h-3.6l-3 -4.8l-1.4 1.7v3.1h-3.3v-3.1l-1.5 -1.7l-2.9 4.8h-3.8l4.5 -7l-4.4 -5h3.9l4.2 5.1v-5.1h3.3v5.1l4.1 -5.1h3.9l-4.3 5l4.3 6.8V550h1.4c.7 -1.7 1.1 -4.4 1.1 -8.2v-1.1h9.7V550h1.6l-.4 5.7h-2.8V553h-7.4l-.2 2.7Zm15.6 -3v-12h3.3v4h2.5c1.4 0 2.7 .3 3.5 1c.9 .7 1.4 1.6 1.4 2.9c-.1 1.2 -.4 2.3 -1.3 3c-.8 .6 -1.9 1.1 -3.3 1.1Zm12.3 0v-12h3.4v12Zm59.6 .1v-9.1h-3.6v-3h10.3v3h-3.3v9.1Zm34.4 -.1v-12h3.4v9h4v-9h3.3v9h4v-9h3.3v12Zm20.5 0v-12h3.4v4h2.4c1.4 0 2.7 .3 3.5 1c.9 .7 1.4 1.6 1.4 2.9c-.1 1.2 -.4 2.3 -1.3 3c-.8 .6 -1.9 1.1 -3.3 1.1Zm23.5 0l3 -4.5c-1.7 -.7 -2.4 -1.8 -2.4 -3.6c0 -1.3 .4 -2.1 1.2 -2.8c.8 -.8 2 -1.1 3.5 -1.1h6.2v12H878v-4h-1.8l-2.6 4Zm21 0v-12h3.3v4.4h4.3v-4.4h3.4v12h-3.4V548h-4.3v4.7Zm26.6 .3V540.7h6.4c1.1 0 2.1 .3 2.8 .8c.6 .5 1.1 1.4 1.1 2.3c-.1 1.3 -.6 2.3 -1.7 2.9c1.5 .3 2.3 1.5 2.3 3c-.1 1 -.4 1.8 -1.2 2.4c-.8 .6 -1.8 .9 -3.2 .9Zm38.4 -.2V540.7h8.7v3h-5.4v9.1Zm8.8 2.9V550h1.3c.8 -1.7 1.2 -4.4 1.2 -8.2v-1.1h9.6V550h1.7l-.4 5.7h-2.8V553h-7.4l-.3 2.7ZM782.2 553c-1.9 0 -3.3 -.6 -4.4 -1.8c-1.2 -1.3 -1.8 -2.7 -1.8 -4.4c0 -1.8 .6 -3.2 1.8 -4.4c1.1 -1.4 2.6 -1.9 4.4 -1.9q.1 0 .2 0c1.8 0 3.3 .8 4.5 2.2l-1.9 2c-1 -.9 -1.8 -1.2 -2.8 -1.2c0 0 -.1 0 -.1 0c-.9 0 -1.4 .3 -2 .9c-.6 .7 -.8 1.5 -.8 2.4c-.1 .9 .3 1.7 .9 2.3c.5 .6 1.2 1 2.1 1c1 -.1 1.9 -.5 2.8 -1.3l1.9 2c-.6 .7 -1.3 1.3 -2.1 1.6c-.8 .4 -1.6 .6 -2.7 .6Zm81.9 0c-1.8 0 -3.2 -.6 -4.4 -1.8c-1.2 -1.3 -1.8 -2.7 -1.8 -4.4c0 -1.8 .6 -3.2 1.8 -4.4c1.1 -1.4 2.7 -1.9 4.5 -1.9c0 0 .1 0 .1 0c1.8 0 3.4 .8 4.6 2.2l-2 2c-.9 -.9 -1.7 -1.2 -2.8 -1.2c0 0 -.1 0 -.1 0c-.8 0 -1.4 .3 -1.9 .9c-.6 .7 -.9 1.5 -.9 2.4c-.1 .9 .3 1.7 .9 2.3c.5 .6 1.3 1 2.2 1c.9 -.1 1.8 -.5 2.7 -1.3l2 2c-.7 .7 -1.4 1.3 -2.1 1.6c-.9 .4 -1.7 .6 -2.8 .6Zm71.9 0c-1.9 0 -3.3 -.6 -4.5 -1.8c-1.2 -1.3 -1.7 -2.7 -1.7 -4.4c0 -1.8 .6 -3.2 1.8 -4.4c1.1 -1.4 2.6 -1.9 4.4 -1.9q.1 0 .2 0c1.7 0 3.3 .8 4.5 2.2l-1.9 2c-1 -.9 -1.8 -1.2 -2.8 -1.2q-.1 0 -.1 0c-.9 0 -1.5 .3 -2 .9c-.6 .7 -.8 1.5 -.8 2.4c-.1 .9 .3 1.7 .8 2.3c.5 .6 1.3 1 2.2 1c1 -.1 1.9 -.5 2.8 -1.3l1.9 2c-.6 .7 -1.3 1.3 -2.1 1.6c-.8 .4 -1.6 .6 -2.7 .6Zm-409 .3c-1.9 0 -3.3 -.5 -4.5 -1.7c-1.2 -1.3 -1.7 -2.8 -1.7 -4.7c0 -1.8 .5 -3.3 1.7 -4.5c.9 -1.3 2.5 -1.9 4.2 -1.9c0 0 .1 0 .2 0c1.7 0 3.1 .7 4 1.9c1 1.3 1.5 2.9 1.5 4.7c-.1 .2 0 .5 0 .9h-8.3c.2 .8 .5 1.4 1 1.8c.5 .4 1.2 .6 1.9 .6c1 0 2 -.4 2.9 -1.3l1.9 1.8c-1.2 1.6 -2.8 2.4 -4.8 2.4Zm57 0c-1.9 0 -3.3 -.5 -4.5 -1.7c-1.2 -1.3 -1.7 -2.8 -1.7 -4.7c0 -1.8 .5 -3.3 1.6 -4.5c1 -1.3 2.5 -1.9 4.2 -1.9c.1 0 .2 0 .2 0c1.7 0 3.2 .7 4.1 1.9c.9 1.3 1.5 2.9 1.5 4.7c-.1 .2 0 .5 -.1 .9h-8.2c.2 .8 .5 1.4 1 1.8c.5 .4 1.1 .6 1.9 .6c1 0 2 -.4 2.9 -1.3l1.9 1.8c-1.2 1.6 -2.8 2.4 -4.8 2.4Zm234 0c-1.9 0 -3.3 -.5 -4.4 -1.7c-1.2 -1.3 -1.8 -2.8 -1.8 -4.7c0 -1.8 .6 -3.3 1.7 -4.5c1 -1.3 2.5 -1.9 4.2 -1.9c0 0 .1 0 .2 0c1.7 0 3.1 .7 4.1 1.9c.9 1.3 1.4 2.9 1.4 4.7c-.1 .2 0 .5 0 .9h-8.2c.1 .8 .4 1.4 .9 1.8c.5 .4 1.2 .6 2 .6c.9 0 2 -.4 2.8 -1.3l2 1.8c-1.3 1.6 -2.9 2.4 -4.9 2.4Zm130 0c-1.9 0 -3.3 -.5 -4.5 -1.7c-1.2 -1.3 -1.7 -2.8 -1.7 -4.7c0 -1.8 .5 -3.3 1.6 -4.5c1 -1.3 2.5 -1.9 4.3 -1.9c0 0 .1 0 .2 0c1.7 0 3.1 .7 4 1.9c1 1.3 1.5 2.9 1.5 4.7c-.1 .2 0 .5 0 .9h-8.3c.2 .8 .5 1.4 1 1.8c.5 .4 1.2 .6 1.9 .6c1 0 2 -.4 2.9 -1.3l1.9 1.8c-1.2 1.6 -2.8 2.4 -4.8 2.4ZM636.8 553c-1.9 0 -3.4 -.6 -4.7 -1.8c-1.2 -1.3 -1.8 -2.7 -1.8 -4.4c0 -1.8 .6 -3.2 1.9 -4.4c1.1 -1.4 2.8 -1.9 4.6 -1.9q.1 0 .2 0c1.7 0 3.2 .7 4.4 1.8c1.2 1.1 1.9 2.7 1.9 4.5c-.1 1.7 -.7 3.2 -1.9 4.4c-1.3 1.1 -2.8 1.8 -4.6 1.8ZM768 553c-1.9 0 -3.4 -.6 -4.7 -1.8c-1.2 -1.3 -1.8 -2.7 -1.8 -4.4c0 -1.8 .6 -3.2 1.9 -4.4c1.1 -1.4 2.8 -1.9 4.6 -1.9q.1 0 .2 0c1.7 0 3.2 .7 4.4 1.8c1.2 1.1 1.9 2.7 1.9 4.5c-.1 1.7 -.7 3.2 -1.9 4.4c-1.3 1.1 -2.8 1.8 -4.6 1.8Zm-275.1 3.3V540.7h3.3v1.8c.8 -1.4 2.1 -2 3.6 -2q.1 0 .2 0c1.3 0 2.6 .6 3.6 1.7c1 1.1 1.6 2.7 1.6 4.6c-.2 1.9 -.6 3.4 -1.6 4.5c-1.1 1 -2.3 1.7 -3.8 1.7c-1.5 -.1 -2.7 -.6 -3.6 -1.9v5.2ZM568.6 553c-1.2 0 -2.1 -.3 -2.9 -1c-.8 -.7 -1.2 -1.6 -1.2 -2.8c0 -1.3 .4 -2.2 1.3 -2.9c.8 -.7 2 -.9 3.5 -.9c.9 0 1.9 .1 2.9 .4v-.2c0 -1.5 -.9 -2.1 -2.6 -2.1c0 0 -.1 0 -.2 0c-1 0 -1.9 .2 -3 .6l-.8 -2.6c1.4 -.7 2.9 -1 4.6 -1c.1 0 .2 0 .2 0c1.7 0 3 .5 3.8 1.4c.8 .8 1.3 2.2 1.3 3.9v7h-3.3v-1.3c-.9 1 -2.1 1.5 -3.6 1.5Zm107.5 0c-1.2 0 -2.2 -.3 -2.9 -1c-.9 -.7 -1.2 -1.6 -1.2 -2.8c0 -1.3 .4 -2.2 1.3 -2.9c.8 -.7 2 -.9 3.5 -.9c.9 0 1.9 .1 2.9 .4v-.2c0 -1.5 -.9 -2.1 -2.6 -2.1c0 0 -.1 0 -.2 0c-1 0 -1.9 .2 -3 .6l-.9 -2.6c1.5 -.7 3 -1 4.7 -1q.1 0 .2 0c1.7 0 2.9 .5 3.8 1.4c.8 .8 1.3 2.2 1.3 3.9v7h-3.3v-1.3c-.9 1 -2.1 1.5 -3.6 1.5Zm126.5 0c-1.2 0 -2.1 -.3 -2.9 -1c-.8 -.7 -1.1 -1.6 -1.1 -2.8c0 -1.3 .4 -2.2 1.3 -2.9c.7 -.7 2 -.9 3.4 -.9c1 0 2 .1 2.9 .4v-.2c0 -1.5 -.8 -2.1 -2.5 -2.1c-.1 0 -.2 0 -.2 0c-1 0 -2 .2 -3 .6l-.9 -2.6c1.4 -.7 3 -1 4.6 -1c.1 0 .2 0 .3 0c1.7 0 2.9 .5 3.8 1.4c.8 .8 1.2 2.2 1.2 3.9v7h-3.3v-1.3c-.9 1 -2.1 1.5 -3.6 1.5Zm104.9 0c-1.2 0 -2.1 -.3 -2.9 -1c-.8 -.7 -1.1 -1.6 -1.1 -2.8c0 -1.3 .4 -2.2 1.3 -2.9c.7 -.7 2 -.9 3.4 -.9c1 0 2 .1 2.9 .4v-.2c0 -1.5 -.8 -2.1 -2.5 -2.1c-.1 0 -.2 0 -.2 0c-1 0 -2 .2 -3 .6l-.9 -2.6c1.4 -.7 3 -1 4.6 -1c.1 0 .2 0 .3 0c1.6 0 2.9 .5 3.8 1.4c.8 .8 1.2 2.2 1.2 3.9v7h-3.3v-1.3c-.9 1 -2.1 1.5 -3.6 1.5Zm75.8 0c-1.2 0 -2.2 -.3 -3 -1c-.8 -.7 -1.1 -1.6 -1.1 -2.8c0 -1.3 .4 -2.2 1.3 -2.9c.7 -.7 2 -.9 3.4 -.9c1 0 2 .1 2.9 .4v-.2c0 -1.5 -.8 -2.1 -2.5 -2.1q-.1 0 -.2 0c-1 0 -1.9 .2 -3 .6l-.9 -2.6c1.5 -.7 3 -1 4.6 -1c.1 0 .2 0 .3 0c1.7 0 2.9 .5 3.8 1.4c.8 .8 1.3 2.2 1.3 3.9v7h-3.4v-1.3c-.9 1 -2.1 1.5 -3.5 1.5ZM539 553c-2.3 0 -4.1 -.6 -5.5 -1.9l1.5 -2.2c1 .9 2.3 1.4 3.7 1.4c.4 0 .9 -.1 1.3 -.3c.3 -.4 .5 -.6 .5 -1c0 -.5 -.2 -.7 -.6 -.9c-.4 -.3 -.8 -.4 -1.5 -.4H537v-2h1.4c.4 0 1 -.1 1.3 -.4c.2 -.3 .4 -.5 .4 -.9c0 -.3 -.1 -.6 -.4 -.9c-.4 -.2 -.7 -.3 -1.1 -.3c-.1 0 -.2 0 -.2 0c-1.2 0 -2.2 .5 -3.1 1.3l-1.4 -2.1c1.3 -1.3 3 -1.9 5 -1.9c.1 0 .2 0 .3 0c1.1 0 2.2 .4 3 1c.8 .6 1.3 1.4 1.3 2.3c-.1 1.2 -.6 2.2 -1.8 2.7c1.3 .5 2.1 1.5 2.1 2.8c-.1 1 -.5 1.9 -1.4 2.7c-1 .6 -2 1 -3.4 1Zm-62.3 -.3V537.1h13v15.6h-3.3V540h-6.3v12.7Z"/></clipPath>
<clipPath id="c2_17"><path d="M709.5 481c2.7 -.1 4.2 -1 4.2 -3.1c-.1 -2 -1.5 -3 -4.4 -3h-6.9V481Zm269 -6l-3.6 -8.9l-3.6 8.9ZM496 480.8V464.1h-7.9v2.8c-.1 5.2 -.9 9.9 -2.5 13.9Zm58.5 -8.5v-8.2h-6.1c-1.5 0 -2.6 .4 -3.5 1.1c-.9 .7 -1.2 1.7 -1.2 3.1c0 1.2 .4 2.2 1.2 2.9c.7 .7 2 1.1 3.4 1.1Zm40.7 8.5V464.1h-8v2.8c-.1 5.2 -.8 9.9 -2.5 13.9Zm269.3 -8.3c1.5 0 2.7 -.4 3.6 -1.2c.8 -.8 1.3 -1.8 1.3 -3c-.1 -1.4 -.5 -2.4 -1.4 -3.1c-.8 -.7 -2.1 -1.1 -3.7 -1.1h-4.7v8.4ZM707.9 469.8c2.8 0 4.3 -1 4.3 -3c-.1 -1.1 -.4 -1.7 -1 -2.1c-.8 -.6 -1.7 -.8 -2.9 -.8h-5.9v5.9Zm-31.2 11c2.3 0 4.3 -.8 5.9 -2.5c1.5 -1.7 2.2 -3.6 2.2 -6c-.1 -2.4 -.7 -4.4 -2.3 -6c-1.5 -1.7 -3.5 -2.5 -5.8 -2.5c-2.5 0 -4.4 .8 -5.9 2.5c-1.6 1.5 -2.3 3.6 -2.3 6c0 2.3 .8 4.4 2.4 6c1.4 1.6 3.5 2.5 5.8 2.5Zm90.5 0c2.3 0 4.4 -.8 5.9 -2.5c1.5 -1.7 2.3 -3.6 2.3 -6c-.2 -2.4 -.8 -4.4 -2.4 -6c-1.5 -1.7 -3.5 -2.5 -5.8 -2.5c-2.4 0 -4.3 .8 -5.9 2.5c-1.6 1.5 -2.2 3.6 -2.2 6c0 2.3 .7 4.4 2.3 6c1.4 1.6 3.5 2.5 5.8 2.5Zm55.1 0c2.3 0 4.3 -.8 5.8 -2.5c1.5 -1.7 2.3 -3.6 2.3 -6c-.1 -2.4 -.8 -4.4 -2.3 -6c-1.6 -1.7 -3.5 -2.5 -5.9 -2.5c-2.4 0 -4.3 .8 -5.8 2.5c-1.6 1.5 -2.3 3.6 -2.3 6c0 2.3 .8 4.4 2.3 6c1.5 1.6 3.5 2.5 5.9 2.5Zm70.5 0c2.3 0 4.4 -.8 5.9 -2.5c1.5 -1.7 2.3 -3.6 2.3 -6c-.2 -2.4 -.8 -4.4 -2.4 -6c-1.5 -1.7 -3.5 -2.5 -5.8 -2.5c-2.4 0 -4.3 .8 -5.9 2.5c-1.6 1.5 -2.2 3.6 -2.2 6c0 2.3 .7 4.4 2.3 6c1.4 1.6 3.5 2.5 5.8 2.5Zm-416 10.9V480.8h2.5c1 -2.5 1.8 -5.1 2.2 -7.9c.4 -2.8 .7 -6.4 .7 -10.9v-3.2h19.7v22h3.2l-.8 10.9h-4.9v-5.6H482.5l-.4 5.6Zm33.1 -5.3c-1.2 0 -2.3 -.1 -3.1 -.3l.4 -4.9c.3 0 .6 .1 .9 .1c.8 -.1 1.6 -.2 2.1 -.6c.6 -.4 1.1 -1.1 1.6 -2.2c.4 -1.2 .8 -2.9 1 -5.2c.2 -2.3 .3 -5.2 .3 -8.8v-5.7h19.3v27.3h-5.8v-22h-7.8v2.1c0 5.3 -.3 9.5 -1 12.4c-.6 2.9 -1.5 5 -2.8 6.1c-1.3 1.1 -2.9 1.7 -5.1 1.7Zm27 -.3l6.5 -9.6c-3.8 -1.5 -5.7 -4.4 -5.7 -8.6c0 -2.9 .9 -5.1 2.7 -6.7c1.8 -1.6 4.3 -2.4 7.5 -2.4h12.4v27.3h-5.8v-8.7h-4.8l-5.9 8.7Zm39 5.6V480.8h2.5c1 -2.5 1.8 -5.1 2.3 -7.9c.3 -2.8 .7 -6.4 .7 -10.9v-3.2H601v22h3.2l-.7 10.9h-5v-5.6H581.6l-.4 5.6ZM635 486.1l9.4 -13.9l-9.1 -13.4h7l5.7 8.9l5.8 -8.9h6.8l-9.1 13.3l9.4 14H654l-6.1 -9.4l-6.2 9.4Zm89.6 0V458.8h5.8v10.7h11.3V458.8h5.8v27.3h-5.8v-11H730.4v11Zm62.5 -.2V458.8H806v5.3H792.9v21.8Zm160.5 .4V464.5h-8.3v-5.7h22.6v5.7h-8.5v21.8Zm13 0l11.6 -27.5h5.5l11.6 27.5h-6.2l-2.5 -6.2H969.1l-2.4 6.2Zm-106.9 -.4V458.8h11.2c3.2 0 5.8 .9 7.6 2.6c1.9 1.6 2.9 4 2.9 6.9c-.2 2.9 -1.1 5.3 -3.2 7c-2.2 1.6 -4.8 2.5 -8 2.5h-4.6v8.1Zm-157.2 .2V458.8h12.6c3 0 5.4 .8 7 2.4c1.2 1.2 1.9 2.9 1.9 4.7c-.1 2.6 -1.2 4.6 -3.5 5.9c1.7 .7 2.9 1.5 3.7 2.6c.9 .9 1.3 2.4 1.3 4.2c-.1 2.4 -.9 4.3 -2.7 5.6c-1.9 1.2 -4.3 1.9 -7.4 1.9Zm-82.8 .3c-2.1 0 -4 -.5 -5.8 -1.6l2.3 -4.4c.9 .5 2.1 .9 3.2 .9c1.3 -.1 2.5 -.7 3.4 -2.2L606 458.7h6.6l7.4 14.4l6.6 -14.4H633l-10.4 21.1c-1.2 2.3 -2.4 4 -3.9 5.1c-1.4 1 -3 1.5 -5 1.5Zm62.9 0c-4.1 0 -7.5 -1.3 -10.3 -4.1c-2.7 -2.8 -4.1 -6.1 -4.1 -10c0 -4 1.4 -7.3 4.2 -10c2.7 -2.8 6.2 -4.1 10.3 -4.1c4.1 0 7.6 1.3 10.4 4.1c2.6 2.6 4.1 6 4.1 10c-.1 3.9 -1.4 7.3 -4.2 10c-2.8 2.7 -6.2 4.1 -10.4 4.1Zm90.6 0c-4.2 0 -7.6 -1.3 -10.4 -4.1c-2.7 -2.8 -4.1 -6.1 -4.1 -10c0 -4 1.4 -7.3 4.2 -10c2.7 -2.8 6.2 -4.1 10.3 -4.1h.1c4 0 7.5 1.3 10.3 4.1c2.6 2.6 4.1 6 4.1 10c-.1 3.9 -1.4 7.3 -4.2 10c-2.8 2.7 -6.2 4.1 -10.3 4.1Zm55 0c-4.2 0 -7.6 -1.3 -10.3 -4.1c-2.8 -2.8 -4.1 -6.1 -4.1 -10c0 -4 1.4 -7.3 4.1 -10c2.7 -2.8 6.2 -4.1 10.4 -4.1c4.1 0 7.6 1.3 10.3 4.1c2.7 2.6 4.1 6 4.1 10c-.1 3.9 -1.4 7.3 -4.1 10c-2.9 2.7 -6.3 4.1 -10.4 4.1Zm70.6 0c-4.2 0 -7.6 -1.3 -10.4 -4.1c-2.7 -2.8 -4.1 -6.1 -4.1 -10c0 -4 1.4 -7.3 4.2 -10c2.7 -2.8 6.2 -4.1 10.3 -4.1h.1c4 0 7.5 1.3 10.3 4.1c2.6 2.6 4.1 6 4.1 10c-.1 3.9 -1.4 7.3 -4.2 10c-2.8 2.7 -6.2 4.1 -10.3 4.1Zm32.5 0c-4.1 0 -7.3 -1.3 -10 -4.1c-2.7 -2.8 -4 -6 -4 -10c0 -4 1.4 -7.3 4 -10c2.7 -2.8 6.1 -4.1 10.2 -4.1h.1c2.2 0 4.3 .4 5.9 1.1c1.5 .8 3.1 1.9 4.6 3.4l-3.6 4.1c-1.2 -1 -2.3 -1.8 -3.3 -2.3c-1.1 -.5 -2.2 -.7 -3.7 -.7c-2.3 0 -4.1 .8 -5.6 2.5c-1.6 1.5 -2.2 3.6 -2.2 6c0 2.3 .7 4.4 2.2 6c1.4 1.6 3.3 2.5 5.6 2.5c1.4 0 2.7 -.3 3.8 -.8c.9 -.6 2.2 -1.3 3.4 -2.4l3.8 4.1c-1.6 1.5 -3.1 2.8 -4.8 3.6c-1.8 .7 -3.9 1.1 -6.4 1.1ZM646.9 441.7v-6.2h6.3v6.2Zm315.9 -5.1c2.7 0 4.2 -1 4.2 -3.1c-.1 -2 -1.5 -2.9 -4.4 -2.9h-6.9v6Zm-360.2 -6L599 421.7l-3.6 8.9Zm248.8 0l-3.6 -8.9l-3.6 8.9ZM646.9 427.2V421h6.3v6.2Zm-72.3 .9c1.5 0 2.7 -.4 3.6 -1.2c.9 -.8 1.3 -1.7 1.3 -3c-.1 -1.4 -.4 -2.3 -1.3 -3c-.9 -.8 -2.1 -1.1 -3.7 -1.1h-4.8v8.3Zm59.6 8.3V419.8h-8v2.8c0 5.1 -.8 9.8 -2.4 13.8Zm76.5 -8.3c1.5 0 2.7 -.4 3.6 -1.2c.9 -.8 1.3 -1.7 1.3 -3c-.1 -1.4 -.4 -2.3 -1.3 -3c-.9 -.8 -2.2 -1.1 -3.7 -1.1h-4.8v8.3Zm112.7 0c1.5 0 2.7 -.4 3.6 -1.2c.9 -.8 1.3 -1.7 1.3 -3c-.1 -1.4 -.4 -2.3 -1.3 -3c-.9 -.8 -2.1 -1.1 -3.7 -1.1h-4.8v8.3Zm137.8 -2.7c2.8 0 4.3 -1 4.3 -3c-.1 -1 -.4 -1.6 -1 -2.1c-.8 -.5 -1.7 -.7 -2.9 -.7h-5.9v5.8Zm-485.7 11c2.3 0 4.3 -.8 5.9 -2.4c1.5 -1.7 2.2 -3.7 2.2 -6.1c-.1 -2.4 -.7 -4.3 -2.3 -6c-1.5 -1.7 -3.5 -2.4 -5.9 -2.4c-2.4 0 -4.3 .8 -5.8 2.4c-1.6 1.6 -2.3 3.6 -2.3 6c0 2.3 .8 4.4 2.4 6c1.4 1.6 3.5 2.5 5.8 2.5Zm263.6 0c2.3 0 4.3 -.8 5.8 -2.4c1.5 -1.7 2.3 -3.7 2.3 -6.1c-.1 -2.4 -.8 -4.3 -2.3 -6c-1.6 -1.7 -3.5 -2.4 -5.9 -2.4c-2.4 0 -4.3 .8 -5.8 2.4c-1.7 1.6 -2.3 3.6 -2.3 6c0 2.3 .8 4.4 2.3 6c1.4 1.6 3.5 2.5 5.9 2.5Zm251.9 0c2.3 0 4.4 -.8 5.9 -2.4c1.5 -1.7 2.3 -3.7 2.3 -6.1c-.2 -2.4 -.8 -4.3 -2.4 -6c-1.5 -1.7 -3.5 -2.4 -5.8 -2.4c-2.5 0 -4.3 .8 -5.9 2.4c-1.6 1.6 -2.2 3.6 -2.2 6c0 2.3 .7 4.4 2.3 6c1.4 1.6 3.5 2.5 5.8 2.5Zm-495.7 5.3V414.5h6.4l7.2 11.5l7.2 -11.5h6.3v27.2h-5.8V423.9l-7.7 11.7h-.1L501.2 424v17.7Zm45.4 -.1V414.5h18.9v5.3H546.5v21.8Zm44 .3l11.6 -27.4h5.5l11.7 27.4h-6.3l-2.5 -6.2H593.3l-2.5 6.2Zm30.2 5.5v-11h2.6c1 -2.5 1.8 -5.1 2.2 -7.8c.4 -2.9 .7 -6.4 .7 -10.9v-3.2H640v21.9h3.3l-.8 11h-4.9v-5.7H620.7l-.4 5.7Zm55.9 -5.8V414.5h22.6v27.1h-5.8V419.8h-11v21.8Zm123 .3V420.1h-8.3v-5.6h22.6v5.6h-8.4v21.8Zm39.7 0l11.6 -27.4h5.5l11.7 27.4H856l-2.5 -6.2H842.1l-2.5 6.2Zm33 -.2V414.5h5.9v10.6h11.3V414.5h5.8v27.2h-5.8V430.8H872.4v10.9Zm64.5 .2V420.1h-8.3v-5.6h22.6v5.6h-8.5v21.8Zm-367.1 -.3V414.5H575c0 0 .1 0 .1 0c3.1 0 5.7 .8 7.6 2.6c1.8 1.6 2.8 4 2.8 6.8c-.1 3 -1.1 5.4 -3.2 7c-2.1 1.6 -4.7 2.5 -8 2.5h-4.6v8.2Zm136.1 0V414.5h11.1c3.2 0 5.8 .8 7.7 2.6c1.8 1.6 2.8 4 2.8 6.8c-.1 3 -1.1 5.4 -3.2 7c-2.1 1.6 -4.8 2.5 -8 2.5h-4.6v8.2Zm112.7 0V414.5h11.2c3.1 0 5.7 .8 7.6 2.6c1.8 1.6 2.8 4 2.8 6.8c-.1 3 -1.1 5.4 -3.2 7c-2.1 1.6 -4.7 2.5 -8 2.5h-4.6v8.2Zm137.1 .1V414.5h12.6c3 0 5.4 .8 7 2.4c1.2 1.2 1.9 2.8 1.9 4.7c-.1 2.5 -1.2 4.5 -3.5 5.9c1.7 .6 2.9 1.5 3.7 2.5c.9 1 1.3 2.5 1.3 4.3c-.1 2.3 -.9 4.3 -2.7 5.5c-1.9 1.3 -4.3 1.9 -7.4 1.9Zm-474.4 .4c-4.1 0 -7.5 -1.4 -10.3 -4.1c-2.8 -2.8 -4.1 -6.1 -4.1 -10.1c0 -3.9 1.4 -7.2 4.2 -10c2.7 -2.8 6.2 -4.1 10.3 -4.1c4.1 0 7.6 1.4 10.3 4.1c2.7 2.7 4.2 6.1 4.2 10c-.2 3.9 -1.4 7.3 -4.2 10c-2.8 2.7 -6.2 4.2 -10.4 4.2Zm263.6 0c-4.2 0 -7.6 -1.4 -10.3 -4.1c-2.8 -2.8 -4.1 -6.1 -4.1 -10.1c0 -3.9 1.3 -7.2 4.1 -10c2.7 -2.8 6.2 -4.1 10.4 -4.1c4.1 0 7.6 1.4 10.3 4.1c2.7 2.7 4.1 6.1 4.1 10c-.1 3.9 -1.4 7.3 -4.1 10c-2.9 2.7 -6.3 4.2 -10.4 4.2Zm252 0c-4.2 0 -7.6 -1.4 -10.4 -4.1c-2.7 -2.8 -4.1 -6.1 -4.1 -10.1c0 -3.9 1.4 -7.2 4.2 -10c2.7 -2.8 6.2 -4.1 10.3 -4.1c0 0 .1 0 .1 0c4 0 7.5 1.4 10.3 4.1c2.6 2.7 4.1 6.1 4.1 10c-.1 3.9 -1.4 7.3 -4.2 10c-2.8 2.7 -6.2 4.2 -10.3 4.2Zm-219.5 0c-4.1 0 -7.3 -1.4 -10 -4.1c-2.7 -2.8 -3.9 -6.1 -3.9 -10.1c0 -4 1.3 -7.3 4 -10c2.6 -2.8 6 -4.1 10.2 -4.1c2.3 0 4.3 .4 5.9 1.2c1.5 .7 3.1 1.9 4.6 3.3l-3.6 4.2c-1.2 -1.1 -2.2 -1.9 -3.3 -2.3c-1.1 -.5 -2.2 -.7 -3.7 -.7c-2.3 0 -4.1 .8 -5.6 2.4c-1.6 1.6 -2.2 3.6 -2.2 6c0 2.3 .7 4.4 2.2 6c1.4 1.6 3.4 2.5 5.6 2.5c1.4 0 2.7 -.2 3.8 -.8c1 -.5 2.2 -1.3 3.4 -2.3l3.8 4c-1.6 1.6 -3.1 2.8 -4.8 3.6c-1.8 .7 -3.9 1.2 -6.4 1.2Zm137.2 0c-4.1 0 -7.3 -1.4 -10 -4.1c-2.8 -2.8 -4 -6.1 -4 -10.1c0 -4 1.4 -7.3 4 -10c2.7 -2.8 6.1 -4.1 10.2 -4.1h.1c2.2 0 4.3 .4 5.9 1.2c1.5 .7 3.1 1.9 4.6 3.3l-3.6 4.2c-1.2 -1.1 -2.3 -1.9 -3.3 -2.3c-1.1 -.5 -2.2 -.7 -3.7 -.7c-2.3 0 -4.1 .8 -5.6 2.4c-1.6 1.6 -2.3 3.6 -2.3 6c0 2.3 .8 4.4 2.3 6c1.4 1.6 3.3 2.5 5.6 2.5c1.4 0 2.7 -.2 3.8 -.8c.9 -.5 2.2 -1.3 3.3 -2.3l3.8 4c-1.5 1.6 -3 2.8 -4.8 3.6c-1.7 .7 -3.8 1.2 -6.3 1.2Z"/></clipPath>
<clipPath id="c3_17"><path d="M809.7 358.4c1 0 2 -.3 2.7 -.8c.6 -.7 1.1 -1.3 1.1 -2.2v-1c-1.1 -.4 -2.2 -.5 -3.3 -.5c-1.1 0 -1.8 .2 -2.4 .6c-.7 .4 -.9 1 -.9 1.7c0 .6 .3 1.2 .8 1.6c.5 .3 1.2 .6 2 .6Zm-118 -4.6V352h6.2v1.8Zm-8.2 4.8c1.2 0 2.2 -.4 3 -1.3c.8 -.9 1.2 -1.9 1.2 -3.2c-.1 -1.3 -.4 -2.3 -1.2 -3.2c-.8 -1 -1.9 -1.3 -3.1 -1.3c-1.3 0 -2.2 .4 -3 1.3c-.9 .8 -1.2 1.9 -1.2 3.2c0 1.2 .4 2.3 1.3 3.2c.7 .8 1.8 1.3 3 1.3Zm34.6 0c1.2 0 2.2 -.4 3 -1.3c.8 -.9 1.2 -1.9 1.2 -3.2c-.1 -1.3 -.4 -2.3 -1.2 -3.2c-.8 -1 -1.8 -1.3 -3 -1.3c-1.4 0 -2.3 .4 -3.1 1.3c-.8 .8 -1.2 1.9 -1.2 3.2c0 1.2 .5 2.3 1.3 3.2c.7 .8 1.8 1.3 3 1.3Zm59.6 -5.2c-.2 -1.1 -.5 -2 -1.1 -2.7c-.7 -.8 -1.5 -1.1 -2.6 -1.1c-1.1 0 -1.8 .4 -2.6 1.1c-.8 .7 -1.1 1.6 -1.2 2.7Zm-111.2 6.2V348.3h1.7v6.5l6.3 -6.5h2.1l-4.8 4.9l4.9 6.4h-2l-4.1 -5.2l-2.4 2.4v2.8Zm34.6 0V348.3h1.7v6.5l6.3 -6.5h2.1l-4.8 4.9l4.9 6.4h-2l-4.1 -5.2l-2.4 2.4v2.8Zm25.8 0V348.3h1.7l4.2 5.9l4.1 -5.9h1.7v11.3h-1.8V351l-4.1 5.7L728.6 351v8.6Zm15.4 .2V348.3h10v11.5h-1.8v-10H744v10Zm13 .1c-.5 0 -.9 0 -1.4 -.2l.2 -1.4c.2 .1 .6 .1 .8 .1c.3 0 .6 0 .8 -.1c.2 -.1 .5 -.3 .7 -.6c.2 -.4 .4 -.9 .6 -1.5c0 -.7 .2 -1.6 .3 -2.7c.1 -1.3 .2 -2.6 .2 -4.3v-.9h8v11.4h-1.7v-9.9h-4.6v.2c0 1.8 -.1 3.3 -.2 4.5c-.2 1.1 -.3 2.2 -.5 2.9c-.2 .6 -.5 1.2 -.9 1.6c-.4 .4 -.7 .6 -1 .8c-.4 0 -.8 .1 -1.3 .1Zm26.7 -.3V348.3h1.8v6.5l6.3 -6.5h2.1l-4.8 4.9l4.9 6.4h-2l-4.1 -5.2l-2.4 2.4v2.8Zm16.9 .5c-1.7 -.1 -3 -.6 -4.2 -1.8c-1.1 -1.2 -1.6 -2.6 -1.6 -4.2c0 -1.7 .5 -3.1 1.6 -4.2c1.2 -1.3 2.6 -1.8 4.2 -1.8q.1 0 .2 0c1.6 0 3.2 .7 4.4 2l-1.1 1.2c-1.1 -1.1 -2.2 -1.7 -3.5 -1.7c-1.2 0 -2.1 .4 -2.9 1.3c-.9 .8 -1.2 1.9 -1.2 3.2c0 1.2 .4 2.3 1.2 3.2c.7 .8 1.8 1.3 3 1.3c1.1 0 2.4 -.6 3.5 -1.8l1.1 1.1c-1.4 1.4 -2.9 2.2 -4.7 2.2Zm-141.4 0c-1.1 -.1 -2 -.2 -2.7 -.6c-.8 -.4 -1.4 -.9 -2 -1.6l1.1 -1.1c1 1.1 2.3 1.8 3.5 1.8c1.1 0 2 -.4 2.8 -1.1c.7 -.8 1.3 -1.7 1.4 -2.7h-5.2v-1.5h5.2c-.2 -1.1 -.6 -1.9 -1.4 -2.6c-.8 -.8 -1.7 -1.1 -2.7 -1.1c-1.4 0 -2.5 .6 -3.6 1.7l-1 -1.1c1.2 -1.5 2.8 -2.1 4.7 -2.1c0 0 .1 0 .2 0c1.5 0 2.8 .6 3.9 1.8c1.1 1.1 1.6 2.6 1.6 4.2c0 1.6 -.5 3.1 -1.7 4.2c-1.2 1.2 -2.5 1.8 -4.1 1.8Zm116.8 0c-1.7 -.1 -3.1 -.6 -4.2 -1.7c-1.1 -1.2 -1.6 -2.5 -1.6 -4.3c0 -1.7 .5 -3.1 1.6 -4.3c.9 -1.2 2.3 -1.7 3.9 -1.7q.1 0 .2 0c1.5 0 2.8 .6 3.8 1.8c.9 1.1 1.4 2.6 1.4 4.4c-.1 .2 0 .4 0 .6h-9.2c.1 1.1 .6 2 1.3 2.7c.8 .7 1.7 1 2.8 1c1.3 0 2.6 -.5 3.7 -1.6l1 .9c-1.4 1.5 -2.9 2.2 -4.7 2.2Zm-90.9 0c-1.8 -.1 -3.1 -.6 -4.2 -1.8c-1.2 -1.2 -1.7 -2.5 -1.7 -4.2c0 -1.7 .6 -3.1 1.7 -4.2c1.1 -1.3 2.6 -1.8 4.3 -1.8q.1 0 .2 0c1.6 0 3 .6 4 1.8c1.1 1 1.8 2.5 1.8 4.2c-.2 1.6 -.6 3 -1.8 4.2c-1.2 1.2 -2.6 1.8 -4.3 1.8Zm34.6 0c-1.8 -.1 -3.1 -.6 -4.2 -1.8c-1.1 -1.2 -1.7 -2.5 -1.7 -4.2c0 -1.7 .6 -3.1 1.7 -4.2c1.1 -1.3 2.6 -1.8 4.3 -1.8q.1 0 .2 0c1.6 0 3 .6 4.1 1.8c1 1 1.7 2.5 1.7 4.2c-.1 1.6 -.6 3 -1.8 4.2c-1.2 1.2 -2.5 1.8 -4.3 1.8Zm91.4 -.2c-1.2 0 -2.2 -.3 -3 -1c-.9 -.6 -1.2 -1.5 -1.2 -2.7c0 -1.3 .4 -2.1 1.3 -2.8c.7 -.7 2 -1 3.5 -1c.1 0 .2 0 .3 0c1 0 2.1 .2 3.2 .6v-.4c0 -1 -.3 -1.7 -.9 -2.2c-.6 -.6 -1.4 -.8 -2.5 -.8c-1.2 0 -2.2 .3 -3.4 .8l-.5 -1.4c1.4 -.6 2.8 -.9 4.1 -.9c.1 0 .2 0 .3 0c1.4 0 2.6 .5 3.4 1.3c.8 .7 1.2 1.9 1.2 3.3v6.9h-1.7v-1.7c-1 1.2 -2.4 2 -4.1 2Zm-104 -28.1c1 0 1.9 -.3 2.7 -.8c.6 -.7 1 -1.3 1 -2.2v-1c-1.1 -.4 -2.2 -.5 -3.2 -.5c-1.1 0 -1.9 .2 -2.5 .6c-.6 .3 -.8 1 -.8 1.7c-.1 .6 .2 1.2 .8 1.6c.5 .3 1.2 .6 2 .6Zm-9.4 -.2v-8.4h-4.5v1.6c-.1 2.8 -.5 5.1 -1.5 6.8Zm-143.8 .2c1 0 2.1 -.4 2.8 -1.2c.8 -.9 1.2 -1.9 1.2 -3.2c-.1 -1.3 -.4 -2.4 -1.2 -3.2c-.8 -.9 -1.7 -1.2 -2.8 -1.2c-1.2 0 -2.1 .4 -2.9 1.2c-1 .8 -1.3 1.9 -1.3 3.2c0 1.3 .4 2.3 1.3 3.2c.7 .7 1.8 1.2 2.9 1.2Zm13.9 .2c1.2 0 2.3 -.5 3.1 -1.3c.7 -.9 1.1 -1.9 1.1 -3.2c0 -1.3 -.4 -2.3 -1.2 -3.2c-.8 -1 -1.8 -1.3 -3 -1.3c-1.4 0 -2.3 .4 -3.1 1.3c-.8 .8 -1.1 1.9 -1.1 3.2c-.1 1.2 .4 2.3 1.2 3.2c.7 .8 1.8 1.3 3 1.3Zm17.3 -5.2c-.1 -1.1 -.4 -2 -1.1 -2.7c-.6 -.8 -1.5 -1.1 -2.6 -1.1c-1 0 -1.8 .4 -2.5 1.1c-.8 .7 -1.1 1.6 -1.2 2.7Zm52.9 5.2c1.2 0 2.2 -.5 3 -1.3c.8 -.9 1.2 -1.9 1.2 -3.2c-.1 -1.3 -.4 -2.3 -1.2 -3.2c-.8 -1 -1.9 -1.3 -3.1 -1.3c-1.3 0 -2.2 .4 -3 1.3c-.9 .8 -1.2 1.9 -1.2 3.2c0 1.2 .4 2.3 1.3 3.2c.7 .8 1.8 1.3 3 1.3Zm33 0c1.2 0 2.2 -.5 3 -1.3c.8 -.9 1.2 -1.9 1.2 -3.2c-.1 -1.3 -.4 -2.3 -1.3 -3.2c-.8 -1 -1.8 -1.3 -3 -1.3c-1.3 0 -2.2 .4 -3 1.3c-.9 .8 -1.2 1.9 -1.2 3.2c0 1.2 .4 2.3 1.2 3.2c.7 .8 1.9 1.3 3.1 1.3Zm82.5 -.2c1.2 0 2.1 -.4 2.8 -1.3c.7 -.9 1.1 -1.8 1.1 -3.1c-.1 -1.3 -.4 -2.3 -1.1 -3.1c-.8 -1 -1.7 -1.3 -2.8 -1.3c-1.3 0 -2.2 .4 -2.9 1.3c-.7 .7 -1 1.8 -1 3.1c0 1.2 .3 2.3 1.1 3.1c.6 .8 1.6 1.3 2.8 1.3Zm44.5 0c1.1 0 2.1 -.4 2.8 -1.2c.8 -.9 1.2 -1.9 1.2 -3.2c-.1 -1.3 -.4 -2.4 -1.2 -3.2c-.8 -.9 -1.7 -1.2 -2.8 -1.2c-1.2 0 -2.1 .4 -2.9 1.2c-.9 .8 -1.2 1.9 -1.2 3.2c-.1 1.3 .4 2.3 1.2 3.2c.7 .7 1.8 1.2 2.9 1.2Zm80.6 -5c-.2 -1.1 -.5 -2 -1.1 -2.7c-.7 -.8 -1.5 -1.1 -2.6 -1.1c-1.1 0 -1.9 .4 -2.6 1.1c-.8 .7 -1.1 1.6 -1.2 2.7Zm33.8 5.2c1.2 0 2.2 -.5 3 -1.3c.8 -.9 1.2 -1.9 1.2 -3.2c-.1 -1.3 -.4 -2.3 -1.2 -3.2c-.9 -1 -1.9 -1.3 -3.1 -1.3c-1.3 0 -2.2 .4 -3 1.3c-.9 .8 -1.2 1.9 -1.2 3.2c0 1.2 .4 2.3 1.2 3.2c.8 .8 1.9 1.3 3.1 1.3Zm23.5 0c1.2 0 2.2 -.5 3 -1.3c.8 -.9 1.2 -1.9 1.2 -3.2c-.1 -1.3 -.4 -2.3 -1.3 -3.2c-.8 -1 -1.8 -1.3 -3 -1.3c-1.3 0 -2.2 .4 -3 1.3c-.9 .8 -1.2 1.9 -1.2 3.2c0 1.2 .4 2.3 1.2 3.2c.7 .8 1.9 1.3 3.1 1.3Zm-346.4 1V321.7h1.7v6.5l6.3 -6.5h2.1l-4.8 4.9L598 333h-2l-4 -5.2l-2.5 2.4V333Zm15 .1v-9.9h-4v-1.5h10v1.5h-4.2v9.9Zm14.6 0V321.7h10v11.4h-1.7v-9.9h-6.5v9.9Zm69.5 2.9v-4.4h1.3c1 -1.8 1.5 -4.5 1.5 -7.9v-2h8.1v9.9h1.6V336h-1.6v-2.9h-9.2l-.3 2.9Zm27.5 -3V321.7h1.8v4.8h6.6v-4.8h1.7V333h-1.7v-5h-6.6v5Zm13.7 0V321.7h1.7v8.9l6.9 -8.9h1.7V333h-1.8v-9l-6.9 9Zm41.2 .1v-9.9h-4v-1.5h10v1.5h-4.2v9.9Zm9.9 3.5c-.8 0 -1.6 -.2 -2.4 -.5l.5 -1.4c.5 .3 1.2 .4 1.8 .4c.5 0 1 -.1 1.3 -.4c.3 -.4 .7 -.9 1.1 -1.7l-5.2 -11.3h1.9l4.1 9.4l3.7 -9.4h1.8L783 333.4c-.5 1.1 -1 2 -1.6 2.5c-.7 .4 -1.3 .7 -2.2 .7ZM804.9 333V321.7h1.8v8.9l6.8 -8.9h1.7V333h-1.7v-9l-6.9 9Zm28.9 .1v-9.9h-4v-1.5h10v1.5h-4.3v9.9ZM842 333V321.7h1.7v8.9l6.9 -8.9h1.7V333h-1.8v-9l-6.8 9Zm21 0v-4.7c-.6 .1 -1.1 .5 -1.8 .7c-.8 .2 -1.4 .3 -2 .3c-1.2 0 -2.1 -.3 -2.8 -.9c-.7 -.6 -1 -1.4 -1 -2.5v-4.2h1.8v4c-.1 .6 .2 1.2 .6 1.5c.3 .3 .9 .6 1.6 .6c1.3 0 2.5 -.3 3.6 -1v-5.1h1.7V333Zm30.7 0V321.7h1.7v6.5l6.3 -6.5h2.1l-4.8 4.9l4.9 6.4h-2l-4.1 -5.2l-2.4 2.4V333Zm25.7 .1V321.7h7.9v1.5h-6.1v9.9Zm-262.7 .4c-1.7 -.1 -3.1 -.6 -4.2 -1.8c-1.1 -1.2 -1.7 -2.6 -1.7 -4.2c0 -1.7 .6 -3.1 1.7 -4.2c1.1 -1.3 2.5 -1.8 4.2 -1.8q.1 0 .2 0c1.6 0 3.1 .7 4.4 2l-1.1 1.2C659.1 323.5 658 323 656.7 323c-1.2 0 -2.1 .4 -2.9 1.3c-.9 .8 -1.2 1.9 -1.2 3.2c-.1 1.2 .4 2.3 1.2 3.2c.7 .8 1.8 1.3 3 1.3c1.1 0 2.4 -.6 3.4 -1.8l1.2 1.1c-1.4 1.3 -2.9 2.2 -4.7 2.2Zm167.2 0c-1.8 -.1 -3.1 -.6 -4.2 -1.8c-1.1 -1.2 -1.7 -2.6 -1.7 -4.2c0 -1.7 .6 -3.1 1.7 -4.2c1.1 -1.3 2.5 -1.8 4.2 -1.8c0 0 .1 0 .1 0c1.7 0 3.2 .7 4.5 2l-1.1 1.2c-1.1 -1.2 -2.3 -1.7 -3.5 -1.7c-1.3 0 -2.2 .4 -3 1.3c-.8 .8 -1.1 1.9 -1.1 3.2c-.1 1.2 .4 2.3 1.2 3.2c.7 .8 1.8 1.3 3 1.3c1.1 0 2.3 -.6 3.4 -1.8l1.2 1.1c-1.5 1.3 -2.9 2.2 -4.7 2.2Zm62.5 0c-1.7 -.1 -3 -.6 -4.2 -1.8c-1.1 -1.2 -1.6 -2.6 -1.6 -4.2c0 -1.7 .5 -3.1 1.6 -4.2c1.2 -1.3 2.6 -1.8 4.2 -1.8q.1 0 .2 0c1.6 0 3.2 .7 4.4 2l-1.1 1.2c-1.1 -1.2 -2.2 -1.7 -3.5 -1.7c-1.2 0 -2.1 .4 -2.9 1.3c-.9 .8 -1.2 1.9 -1.2 3.2c0 1.2 .4 2.3 1.2 3.2c.7 .8 1.8 1.3 3 1.3c1.1 0 2.4 -.6 3.5 -1.8l1.1 1.1c-1.4 1.3 -2.9 2.2 -4.7 2.2Zm-306.4 0c-1.7 -.1 -3 -.6 -4.1 -1.7c-1.1 -1.2 -1.7 -2.6 -1.7 -4.3c0 -1.7 .6 -3.1 1.6 -4.3c1 -1.2 2.4 -1.7 4 -1.7c0 0 .1 0 .2 0c1.5 0 2.8 .6 3.7 1.8c.9 1.1 1.5 2.6 1.5 4.4c-.1 .2 0 .4 0 .6H576c.1 1.1 .5 2 1.3 2.7c.7 .6 1.7 1 2.8 1c1.3 0 2.6 -.5 3.6 -1.6l1.1 .9c-1.4 1.5 -2.9 2.2 -4.8 2.2Zm293.4 0c-1.6 -.1 -3 -.6 -4.1 -1.7c-1.1 -1.2 -1.6 -2.6 -1.6 -4.3c0 -1.7 .5 -3.1 1.5 -4.3c1 -1.2 2.4 -1.7 4 -1.7q.1 0 .2 0c1.5 0 2.8 .6 3.8 1.8c.9 1.1 1.4 2.6 1.4 4.4c-.1 .2 0 .4 0 .6h-9.2c.1 1.1 .6 2 1.3 2.7c.8 .6 1.7 1 2.8 1c1.3 0 2.6 -.5 3.6 -1.6l1.1 .9c-1.4 1.5 -2.9 2.2 -4.8 2.2Zm-307.3 0c-1.8 -.1 -3.2 -.6 -4.3 -1.8c-1.1 -1.2 -1.7 -2.6 -1.7 -4.2c0 -1.7 .6 -3.1 1.7 -4.2c1.2 -1.3 2.6 -1.8 4.3 -1.8q.1 0 .2 0c1.6 0 3 .6 4.1 1.7c1 1.1 1.7 2.6 1.7 4.3c-.1 1.6 -.6 3 -1.7 4.2c-1.3 1.2 -2.6 1.8 -4.3 1.8Zm70.1 0c-1.8 -.1 -3.1 -.6 -4.2 -1.8c-1.2 -1.2 -1.7 -2.6 -1.7 -4.2c0 -1.7 .6 -3.1 1.7 -4.2c1.1 -1.3 2.6 -1.8 4.3 -1.8q.1 0 .2 0c1.6 0 3 .6 4.1 1.7c1 1.1 1.7 2.6 1.7 4.3c-.1 1.6 -.6 3 -1.8 4.2c-1.2 1.2 -2.6 1.8 -4.3 1.8Zm33 0c-1.8 -.1 -3.1 -.6 -4.2 -1.8c-1.2 -1.2 -1.7 -2.6 -1.7 -4.2c0 -1.7 .5 -3.1 1.7 -4.2c1.1 -1.3 2.6 -1.8 4.3 -1.8c0 0 .1 0 .2 0c1.6 0 2.9 .6 4 1.7c1.1 1.1 1.7 2.6 1.7 4.3c-.1 1.6 -.5 3 -1.7 4.2c-1.2 1.2 -2.6 1.8 -4.3 1.8Zm241.4 0c-1.8 -.1 -3.1 -.6 -4.2 -1.8c-1.2 -1.2 -1.7 -2.6 -1.7 -4.2c0 -1.7 .6 -3.1 1.7 -4.2c1.1 -1.3 2.6 -1.8 4.3 -1.8c0 0 .1 0 .2 0c1.6 0 2.9 .6 4 1.7c1.1 1.1 1.7 2.6 1.7 4.3c-.1 1.6 -.5 3 -1.7 4.2c-1.2 1.2 -2.6 1.8 -4.3 1.8Zm23.5 0c-1.8 -.1 -3.1 -.6 -4.2 -1.8c-1.2 -1.2 -1.7 -2.6 -1.7 -4.2c0 -1.7 .5 -3.1 1.7 -4.2c1.1 -1.3 2.6 -1.8 4.3 -1.8c0 0 .1 0 .1 0c1.7 0 3 .6 4.1 1.7c1.1 1.1 1.7 2.6 1.7 4.3c-.1 1.6 -.5 3 -1.7 4.2c-1.2 1.2 -2.6 1.8 -4.3 1.8Zm-182.4 -.2c-1.6 0 -2.8 -.5 -3.8 -1.5c-1.1 -1.1 -1.6 -2.3 -1.8 -3.8h-2.5v5h-1.8V321.7h1.8v4.8h2.5c.1 -1.5 .8 -2.6 1.8 -3.6c1 -1 2.3 -1.4 3.9 -1.4c0 0 .1 0 .2 0c1.5 0 2.9 .6 3.9 1.7c1 1.1 1.6 2.5 1.6 4.2c-.2 1.6 -.6 3 -1.6 4.2c-1.1 1 -2.5 1.7 -4.2 1.7Zm-205.4 3.3V321.7H548V324c1.2 -1.7 2.7 -2.5 4.4 -2.5q.1 0 .2 0c1.4 0 2.6 .6 3.7 1.6c1.1 1 1.6 2.5 1.6 4.3c-.1 1.7 -.5 3.2 -1.6 4.3c-1.1 1.1 -2.4 1.6 -3.9 1.6c-1.8 0 -3.2 -.8 -4.4 -2.4v5.7Zm244.1 0V321.7h1.8V324c1.1 -1.7 2.6 -2.5 4.4 -2.5c0 0 .1 0 .1 0c1.4 0 2.6 .6 3.7 1.6c1.1 1 1.6 2.5 1.6 4.3c-.1 1.7 -.5 3.2 -1.6 4.3c-1.1 1.1 -2.4 1.6 -3.8 1.6c-1.9 0 -3.3 -.8 -4.4 -2.4v5.7Zm-85.3 -3.3c-1.3 0 -2.2 -.3 -3 -1c-.9 -.6 -1.3 -1.5 -1.3 -2.7c0 -1.3 .5 -2.1 1.3 -2.8c.8 -.7 2.1 -1 3.6 -1c.1 0 .2 0 .3 0c1 0 2.1 .2 3.1 .6V326c0 -1 -.3 -1.7 -.8 -2.2c-.7 -.6 -1.4 -.8 -2.5 -.8c-1.2 0 -2.3 .3 -3.4 .8l-.5 -1.4c1.4 -.6 2.8 -.9 4.1 -.9c.1 0 .2 0 .2 0c1.5 0 2.7 .5 3.5 1.2c.7 .8 1.2 2 1.2 3.4V333h-1.8v-1.7c-1 1.2 -2.3 2 -4 2Zm-24 .2c-1.9 -.1 -3.4 -.6 -4.8 -1.7l.9 -1.3c1.1 .9 2.4 1.5 3.8 1.5c.8 0 1.5 -.2 2.1 -.6c.5 -.4 .8 -.8 .8 -1.4c0 -.6 -.2 -1 -.8 -1.4c-.5 -.4 -1.2 -.5 -2.1 -.5h-1.6v-1.5H681c.7 0 1.4 -.1 1.9 -.5c.3 -.4 .7 -.8 .7 -1.4c0 -.5 -.3 -.9 -.7 -1.2c-.6 -.4 -1.1 -.5 -1.8 -.5c-1.5 0 -2.6 .4 -3.5 1.1l-.9 -1.2c1.2 -1 2.7 -1.4 4.5 -1.4c0 0 .1 0 .2 0c1.1 0 2.1 .3 2.8 .9c.7 .5 1.1 1.3 1.1 2.2c0 1.2 -.6 2.1 -1.8 2.6c1.4 .4 2.2 1.5 2.2 2.8c-.1 1 -.5 1.8 -1.3 2.5c-.9 .6 -1.9 1 -3.3 1ZM530.2 333V317.7h12.3V333h-1.7V319.2H532V333Z"/></clipPath>
</defs>
<image preserveAspectRatio="none" x="150" y="0" width="1167" height="825" xlink:href="img/1.jpg"/>
<image clip-path="url(#c0_17)" preserveAspectRatio="none" x="150" y="0" width="1167" height="825" xlink:href="img/2.jpg"/>
<image clip-path="url(#c1_17)" preserveAspectRatio="none" x="150" y="0" width="1167" height="825" xlink:href="img/3.jpg"/>
<image clip-path="url(#c2_17)" preserveAspectRatio="none" x="150" y="0" width="1167" height="825" xlink:href="img/4.jpg"/>
<image clip-path="url(#c3_17)" preserveAspectRatio="none" x="150" y="0" width="1167" height="825" xlink:href="img/5.jpg"/>
</svg>