<?xml version="1.0" encoding="UTF-8" standalone="no"?>
<!DOCTYPE svg PUBLIC "-//W3C//DTD SVG 1.1//EN"
"http://www.w3.org/Graphics/SVG/1.1/DTD/svg11.dtd">
<svg viewBox="0 0 1466 825" version="1.1" xmlns="http://www.w3.org/2000/svg" xmlns:xlink="http://www.w3.org/1999/xlink">
<defs>
<clipPath id="c0_30"><path d="M149.9 825V0h1167V825Z"/></clipPath>
<clipPath id="c1_30"><path d="M236 825c-1.2 -.5 -1.9 -1.7 -1.9 -3V86.8c0 -1.8 1.5 -3.3 3.3 -3.3h992.3c1.9 0 3.4 1.5 3.4 3.3V822c0 1.3 -.8 2.5 -1.9 3Z"/></clipPath>
<clipPath id="c2_30"><path d="M804.3 252c.8 0 1.5 -.2 2 -.5c.4 -.5 .7 -.9 .7 -1.6c-.1 -.6 -.2 -1.1 -.7 -1.4c-.6 -.3 -1.2 -.5 -2.1 -.5h-3v4Zm-350.8 .3c1 0 2 -.2 2.7 -.8c.6 -.7 1.1 -1.3 1.1 -2.1v-1.1c-1.1 -.3 -2.2 -.4 -3.3 -.4c-1 0 -1.8 .2 -2.4 .6c-.7 .3 -.9 .9 -.9 1.6c0 .6 .3 1.2 .8 1.6c.5 .4 1.2 .6 2 .6Zm74.3 0c1 0 2 -.2 2.7 -.8c.6 -.7 1.1 -1.3 1.1 -2.1v-1.1c-1.1 -.3 -2.2 -.4 -3.3 -.4c-1 0 -1.8 .2 -2.4 .6c-.7 .3 -.9 .9 -.9 1.6c0 .6 .3 1.2 .8 1.6c.5 .4 1.2 .6 2 .6Zm486.6 0c1 0 1.9 -.2 2.7 -.8c.6 -.7 1 -1.3 1 -2.1v-1.1c-1.1 -.3 -2.2 -.4 -3.2 -.4c-1.1 0 -1.9 .2 -2.5 .6c-.6 .3 -.8 .9 -.8 1.6c-.1 .6 .2 1.2 .8 1.6c.5 .4 1.2 .6 2 .6ZM572.2 248v-4.3h-3.5c-.1 0 -.2 0 -.2 0c-.8 0 -1.3 .2 -1.8 .6c-.5 .3 -.7 .9 -.7 1.5c0 .6 .3 1.2 .8 1.6c.4 .3 1.1 .6 1.9 .6Zm-168.4 4.3c1.1 0 2.1 -.4 2.9 -1.2c.7 -.9 1.1 -1.8 1.1 -3.2c0 -1.3 -.3 -2.3 -1.1 -3.2c-.8 -.8 -1.8 -1.2 -2.9 -1.2c-1.1 0 -2 .4 -2.9 1.3c-.9 .7 -1.2 1.9 -1.2 3.1c0 1.3 .4 2.4 1.2 3.2c.8 .7 1.8 1.2 2.9 1.2Zm215.7 .2c1.2 0 2.2 -.4 3 -1.3c.8 -.9 1.2 -1.9 1.2 -3.2c-.1 -1.3 -.4 -2.3 -1.2 -3.2c-.8 -.9 -1.9 -1.3 -3.1 -1.3c-1.3 0 -2.2 .5 -3 1.3c-.9 .8 -1.2 2 -1.2 3.2c0 1.2 .4 2.3 1.3 3.2c.7 .9 1.8 1.3 3 1.3Zm35.2 -.2c1.1 0 2.2 -.4 2.9 -1.2c.8 -.9 1.2 -1.8 1.2 -3.2c-.1 -1.3 -.4 -2.3 -1.2 -3.2c-.8 -.8 -1.7 -1.2 -2.9 -1.2c-1.1 0 -2 .4 -2.8 1.3c-1 .7 -1.3 1.9 -1.3 3.1c0 1.3 .4 2.4 1.3 3.2c.7 .7 1.8 1.2 2.8 1.2Zm14.2 .2c1.3 0 2.3 -.4 3.1 -1.3c.7 -.9 1.2 -1.9 1.2 -3.2c-.1 -1.3 -.5 -2.3 -1.3 -3.2c-.8 -.9 -1.8 -1.3 -3 -1.3c-1.3 0 -2.2 .5 -3 1.3c-.9 .8 -1.2 2 -1.2 3.2c0 1.2 .4 2.3 1.2 3.2c.7 .9 1.8 1.3 3 1.3Zm37.7 0c1.2 0 2.2 -.4 3 -1.3c.8 -.9 1.2 -1.9 1.2 -3.2c-.1 -1.3 -.4 -2.3 -1.3 -3.2c-.8 -.9 -1.8 -1.3 -3 -1.3c-1.3 0 -2.2 .5 -3 1.3c-.9 .8 -1.2 2 -1.2 3.2c0 1.2 .4 2.3 1.2 3.2c.7 .9 1.9 1.3 3.1 1.3Zm55.6 0c1.2 0 2.2 -.4 3 -1.3c.8 -.9 1.2 -1.9 1.2 -3.2c-.1 -1.3 -.4 -2.3 -1.2 -3.2c-.9 -.9 -1.9 -1.3 -3.1 -1.3c-1.3 0 -2.2 .5 -3 1.3c-.9 .8 -1.2 2 -1.2 3.2c0 1.2 .4 2.3 1.2 3.2c.8 .9 1.9 1.3 3.1 1.3Zm88.9 -5.1c-.2 -1.2 -.5 -2.1 -1.1 -2.8c-.7 -.7 -1.5 -1.1 -2.6 -1.1c-1.1 0 -1.8 .4 -2.5 1.1c-.9 .7 -1.2 1.6 -1.3 2.8Zm37.6 5.1c1.2 0 2.2 -.4 3 -1.3c.8 -.9 1.2 -1.9 1.2 -3.2c-.1 -1.3 -.4 -2.3 -1.2 -3.2c-.9 -.9 -1.9 -1.3 -3.1 -1.3c-1.3 0 -2.2 .5 -3 1.3c-.9 .8 -1.2 2 -1.2 3.2c0 1.2 .4 2.3 1.2 3.2c.7 .9 1.9 1.3 3.1 1.3Zm161.5 -5.1c-.2 -1.2 -.5 -2.1 -1.1 -2.8c-.7 -.7 -1.5 -1.1 -2.6 -1.1c-1 0 -1.8 .4 -2.5 1.1c-.8 .7 -1.1 1.6 -1.2 2.8Zm42.3 0c-.2 -1.2 -.4 -2.1 -1.1 -2.8c-.7 -.7 -1.5 -1.1 -2.6 -1.1c-1 0 -1.8 .4 -2.5 1.1c-.8 .7 -1.1 1.6 -1.2 2.8Zm-716.1 6.3v-10h-4v-1.5h10v1.5h-4.2v10Zm10.1 3.5c-.8 0 -1.6 -.2 -2.4 -.6l.6 -1.3c.5 .2 1.1 .4 1.8 .4c.4 -.1 .9 -.2 1.3 -.5c.2 -.3 .7 -.9 1 -1.7l-5.2 -11.3h1.9l4.2 9.5l3.6 -9.5h1.8L390.3 254c-.5 1.1 -1 1.9 -1.6 2.4c-.6 .4 -1.3 .8 -2.2 .8Zm26.2 -3.7V242.2h1.7v8.9l6.9 -8.9H423v11.3h-1.8v-8.9l-6.8 8.9Zm29.3 .2v-10h-4v-1.5h10v1.5h-4.3v10Zm20.8 -.2V242.2h1.7l4.2 5.9l4.2 -5.9h1.6v11.3h-1.7v-8.6l-4.2 5.7l-4 -5.7v8.6Zm15.6 0V242.2h1.8v8.9l6.8 -8.9h1.7v11.3H487v-8.9l-6.9 8.9Zm32 0V242.2h1.8V247h6.5v-4.8h1.8v11.3h-1.8v-5h-6.5v5Zm26.7 0V242.2h1.8V247h6.5v-4.8h1.8v11.3h-1.8v-5h-6.5v5Zm13.8 0V242.2h1.8v8.9l6.9 -8.9h1.6v11.3h-1.7v-8.9l-6.9 8.9Zm12.9 .2l3.6 -4.5c-1 -.2 -1.7 -.6 -2.3 -1.2c-.6 -.6 -.8 -1.3 -.8 -2.2c0 -1.2 .3 -2 1.1 -2.6c.7 -.8 1.8 -1 3.2 -1H574v11.5h-1.8v-4.2h-3.1c-.2 .2 -.6 .8 -1.4 1.8c-.8 1 -1.3 1.8 -1.7 2.4Zm14.1 -.2V242.2h1.7l4.2 5.9l4.1 -5.9h1.7v11.3h-1.7v-8.6l-4.2 5.7l-4.1 -5.7v8.6Zm15.6 0V242.2h1.8v8.9l6.8 -8.9h1.7v11.3h-1.7v-8.9l-6.9 8.9Zm41.6 .2V242.2h10v11.5h-1.7v-10h-6.5v10Zm58.1 0v-10h-3.9v-1.5h9.9v1.5H695v10Zm22.3 -.2V242.2h1.8v8.9l6.9 -8.9h1.7v11.3h-1.8v-8.9l-6.9 8.9Zm20.7 0V242.2h1.7v8.9l6.9 -8.9h1.7v11.3h-1.7v-8.9l-6.9 8.9Zm47.6 0V242.2h1.7l4.2 5.9l4.2 -5.9h1.6v11.3h-1.7v-8.6l-4.1 5.7l-4.1 -5.7v8.6Zm15.7 0V242.2h1.7v4.3h3.1c1.2 0 2.4 .3 3.2 .9c.8 .5 1.3 1.3 1.3 2.5c0 1.1 -.4 2 -1.2 2.6c-.9 .7 -1.9 1 -3.2 1Zm11.3 0V242.2h1.7v11.3Zm17.7 .3c-.5 0 -.9 0 -1.4 -.1l.2 -1.5c.2 .1 .6 .1 .8 .1c.3 0 .6 0 .8 -.1c.1 -.1 .4 -.3 .7 -.6c.1 -.4 .4 -.9 .6 -1.5c0 -.7 .2 -1.5 .3 -2.7c0 -1.2 .1 -2.6 .1 -4.3v-.9h8.1v11.5H837v-10h-4.6v.3c0 1.7 -.1 3.2 -.2 4.4c-.2 1.2 -.3 2.2 -.5 2.9c-.2 .7 -.5 1.2 -.9 1.6c-.4 .4 -.7 .7 -1 .8c-.4 0 -.8 .1 -1.3 .1Zm27.2 -.3V242.2h1.7V247H864v-4.8h1.7v11.3H864v-5h-6.6v5Zm13.8 0V242.2h1.7V247h6.6v-4.8h1.8v11.3h-1.8v-5h-6.6v5Zm28.2 0V242.2h1.7v8.9l6.9 -8.9H908v11.3h-1.8v-8.9l-6.9 8.9Zm19.1 0l4.7 -6.5l-4.4 -4.8h2l5.8 6.6v-6.6h1.8v6.6l5.8 -6.6h2.1l-4.5 4.8l4.7 6.5h-2L929 248.2l-2.3 2.6v2.7h-1.8v-2.7l-2.3 -2.6l-3.8 5.3Zm20.4 0V242.2h1.7v8.9l6.9 -8.9h1.7v11.3h-1.8v-8.9l-6.9 8.9Zm25.3 0V242.2h1.8V247h6.5v-4.8h1.8v11.3h-1.8v-5h-6.5v5Zm13.8 0V242.2h1.8v8.9l6.9 -8.9h1.7v11.3h-1.8v-8.9l-6.9 8.9Zm20.7 0V242.2h1.7V247h6.6v-4.8h1.8v11.3h-1.8v-5h-6.6v5Zm57.8 0V242.2h1.7l4.2 5.9l4.2 -5.9h1.6v11.3h-1.7v-8.6l-4.2 5.7l-4.1 -5.7v8.6Zm15.1 .3c-.5 0 -.9 0 -1.4 -.1l.2 -1.5c.3 .1 .6 .1 .9 .1c.2 0 .5 0 .8 -.1c.1 -.1 .4 -.3 .6 -.6c.2 -.4 .5 -.9 .6 -1.5c.1 -.7 .2 -1.5 .3 -2.7c.1 -1.2 .2 -2.6 .2 -4.3v-.9h8.1v11.5h-1.8v-10h-4.6v.3c0 1.7 0 3.2 -.2 4.4c-.2 1.2 -.3 2.2 -.5 2.9c-.2 .7 -.5 1.2 -.8 1.6c-.5 .4 -.7 .7 -1.1 .8c-.4 0 -.7 .1 -1.3 .1Zm-638 .2c-1.8 0 -3.1 -.6 -4.2 -1.8C426.6 251 426 249.7 426 248c0 -1.7 .6 -3 1.7 -4.2c1.1 -1.3 2.5 -1.8 4.2 -1.8c0 0 .1 0 .2 0c1.6 0 3.1 .8 4.4 2.1l-1.1 1.1c-1.1 -1.1 -2.3 -1.7 -3.5 -1.7c-1.3 0 -2.2 .5 -3 1.3c-.8 .8 -1.1 2 -1.1 3.2c-.1 1.2 .4 2.3 1.2 3.2c.7 .9 1.8 1.3 3 1.3c1.1 0 2.3 -.6 3.4 -1.7l1.1 1c-1.4 1.4 -2.8 2.2 -4.6 2.2Zm251.2 0c-1.7 0 -3 -.6 -4.1 -1.8c-1.2 -1.2 -1.7 -2.5 -1.7 -4.2c0 -1.7 .5 -3 1.7 -4.2c1.1 -1.3 2.5 -1.8 4.1 -1.8c.1 0 .2 0 .2 0c1.6 0 3.2 .8 4.4 2.1l-1.1 1.1c-1.1 -1.1 -2.2 -1.7 -3.5 -1.7c-1.2 0 -2.1 .5 -2.9 1.3c-.9 .8 -1.2 2 -1.2 3.2c0 1.2 .4 2.3 1.2 3.2c.7 .9 1.8 1.3 3 1.3c1.1 0 2.4 -.6 3.5 -1.7l1.1 1c-1.4 1.4 -2.9 2.2 -4.7 2.2Zm93.3 0c-1.8 0 -3.1 -.6 -4.2 -1.8C771 251 770.5 249.7 770.5 248c0 -1.7 .6 -3 1.7 -4.2c1.1 -1.3 2.5 -1.8 4.2 -1.8c0 0 .1 0 .1 0c1.7 0 3.2 .8 4.4 2.1l-1 1.1c-1.1 -1.1 -2.3 -1.7 -3.6 -1.7c-1.2 0 -2.1 .5 -2.9 1.3c-.9 .8 -1.2 2 -1.2 3.2c0 1.2 .4 2.3 1.3 3.2c.7 .9 1.8 1.3 3 1.3c1.1 0 2.3 -.6 3.4 -1.7l1.1 1c-1.4 1.4 -2.8 2.2 -4.6 2.2Zm45.1 0c-1.7 0 -3 -.6 -4.1 -1.8c-1.2 -1.2 -1.7 -2.5 -1.7 -4.2c0 -1.7 .5 -3 1.7 -4.2c1.1 -1.3 2.5 -1.8 4.1 -1.8c.1 0 .2 0 .2 0c1.6 0 3.2 .8 4.4 2.1l-1.1 1.1c-1.1 -1.1 -2.2 -1.7 -3.5 -1.7c-1.2 0 -2.1 .5 -2.9 1.3c-.9 .8 -1.2 2 -1.2 3.2c0 1.2 .4 2.3 1.2 3.2c.7 .9 1.8 1.3 3 1.3c1.1 0 2.4 -.6 3.5 -1.7l1.1 1c-1.4 1.4 -2.9 2.2 -4.7 2.2Zm26.2 0c-1.7 0 -3 -.6 -4.2 -1.7c-1.1 -1.1 -1.6 -2.5 -1.6 -4.3c0 -1.7 .5 -3.1 1.6 -4.2c.9 -1.3 2.3 -1.8 3.9 -1.8c.1 0 .2 0 .2 0c1.5 0 2.9 .7 3.8 1.8c.9 1.1 1.4 2.7 1.4 4.4c-.1 .2 0 .5 0 .7h-9.2c.1 1.1 .6 2 1.3 2.6c.8 .7 1.7 1 2.8 1c1.3 0 2.6 -.5 3.7 -1.5l1 .9c-1.4 1.4 -2.9 2.1 -4.7 2.1Zm199.1 0c-1.7 0 -3 -.6 -4.1 -1.7c-1.1 -1.1 -1.7 -2.5 -1.7 -4.3c0 -1.7 .5 -3.1 1.6 -4.2c1 -1.3 2.4 -1.8 4 -1.8c0 0 .1 0 .2 0c1.5 0 2.8 .7 3.7 1.8c.9 1.1 1.5 2.7 1.5 4.4c-.1 .2 0 .5 -.1 .7h-9.1c0 1.1 .5 2 1.3 2.6c.7 .7 1.7 1 2.7 1c1.4 0 2.6 -.5 3.7 -1.5l1.1 .9c-1.4 1.4 -2.9 2.1 -4.8 2.1Zm42.3 0c-1.7 0 -3 -.6 -4.1 -1.7c-1.1 -1.1 -1.7 -2.5 -1.7 -4.3c0 -1.7 .5 -3.1 1.6 -4.2c1 -1.3 2.4 -1.8 4 -1.8c0 0 .1 0 .2 0c1.5 0 2.8 .7 3.7 1.8c.9 1.1 1.5 2.7 1.5 4.4c-.1 .2 0 .5 0 .7h-9.2c0 1.1 .5 2 1.3 2.6c.7 .7 1.7 1 2.7 1c1.4 0 2.7 -.5 3.7 -1.5l1.1 .9c-1.4 1.4 -2.9 2.1 -4.8 2.1Zm-469.7 0c-1.8 0 -3.1 -.6 -4.2 -1.7c-1.2 -1.2 -1.7 -2.6 -1.7 -4.3c0 -1.7 .6 -3 1.7 -4.2c1.1 -1.3 2.6 -1.8 4.3 -1.8q.1 0 .2 0c1.6 0 3 .7 4.1 1.8c1 1.1 1.7 2.6 1.7 4.2c-.1 1.6 -.6 3.1 -1.8 4.2c-1.2 1.2 -2.6 1.8 -4.3 1.8Zm49.5 0c-1.8 0 -3.1 -.6 -4.3 -1.7c-1.1 -1.2 -1.7 -2.6 -1.7 -4.3c0 -1.7 .6 -3 1.8 -4.2c1.1 -1.3 2.5 -1.8 4.2 -1.8c.1 0 .2 0 .2 0c1.6 0 3 .7 4.1 1.8c1 1.1 1.7 2.6 1.7 4.2c-.1 1.6 -.6 3.1 -1.7 4.2c-1.3 1.2 -2.6 1.8 -4.3 1.8Zm37.6 0c-1.8 0 -3.1 -.6 -4.2 -1.7c-1.2 -1.2 -1.7 -2.6 -1.7 -4.3c0 -1.7 .5 -3 1.7 -4.2c1.1 -1.3 2.6 -1.8 4.3 -1.8c0 0 .1 0 .2 0c1.6 0 2.9 .7 4 1.8c1.1 1.1 1.7 2.6 1.7 4.2c-.1 1.6 -.5 3.1 -1.7 4.2c-1.2 1.2 -2.6 1.8 -4.3 1.8Zm55.6 0c-1.8 0 -3.1 -.6 -4.2 -1.7c-1.2 -1.2 -1.7 -2.6 -1.7 -4.3c0 -1.7 .5 -3 1.7 -4.2c1.1 -1.3 2.6 -1.8 4.3 -1.8c0 0 .1 0 .2 0c1.6 0 2.9 .7 4 1.8c1.1 1.1 1.7 2.6 1.7 4.2c-.1 1.6 -.5 3.1 -1.7 4.2c-1.2 1.2 -2.6 1.8 -4.3 1.8Zm126.5 0c-1.8 0 -3.1 -.6 -4.2 -1.7c-1.2 -1.2 -1.7 -2.6 -1.7 -4.3c0 -1.7 .5 -3 1.7 -4.2c1.1 -1.3 2.6 -1.8 4.3 -1.8c0 0 .1 0 .2 0c1.6 0 2.9 .7 4 1.8c1.1 1.1 1.7 2.6 1.7 4.2c-.1 1.6 -.5 3.1 -1.7 4.2c-1.2 1.2 -2.6 1.8 -4.3 1.8Zm-490.7 3.2v-15h1.8v2.3c1.1 -1.6 2.6 -2.5 4.4 -2.5q.1 0 .2 0c1.3 0 2.6 .6 3.6 1.6c1.1 1.1 1.7 2.6 1.7 4.3c-.1 1.8 -.6 3.2 -1.7 4.3c-1.1 1.1 -2.3 1.6 -3.8 1.6c-1.9 0 -3.3 -.8 -4.4 -2.4v5.8Zm251 0v-15h1.7v2.3c1.2 -1.6 2.6 -2.5 4.4 -2.5c.1 0 .2 0 .2 0c1.4 0 2.6 .6 3.7 1.6c1.1 1.1 1.6 2.6 1.6 4.3c-.1 1.8 -.5 3.2 -1.6 4.3c-1.1 1.1 -2.4 1.6 -3.9 1.6c-1.8 0 -3.2 -.8 -4.4 -2.4v5.8ZM453.2 253.8c-1.2 0 -2.1 -.3 -3 -.9c-.9 -.7 -1.2 -1.6 -1.2 -2.7c0 -1.4 .4 -2.2 1.3 -2.9c.8 -.7 2 -.9 3.5 -.9c.1 0 .2 -.1 .4 -.1c1 0 2.1 .3 3.1 .6v-.4c0 -.9 -.3 -1.7 -.9 -2.2c-.6 -.5 -1.4 -.8 -2.5 -.8c-1.2 0 -2.2 .3 -3.4 .8L450 243c1.4 -.7 2.8 -1 4.2 -1c0 0 .1 0 .2 0c1.4 0 2.7 .5 3.4 1.3c.8 .7 1.2 1.9 1.2 3.3v7h-1.7v-1.8c-1 1.3 -2.4 2 -4.1 2Zm74.3 0c-1.2 0 -2.2 -.3 -3 -.9c-.9 -.7 -1.2 -1.6 -1.2 -2.7c0 -1.4 .4 -2.2 1.3 -2.9c.8 -.7 2 -.9 3.5 -.9c.1 0 .2 -.1 .4 -.1c1 0 2.1 .3 3.1 .6v-.4c0 -.9 -.3 -1.7 -.9 -2.2c-.6 -.5 -1.4 -.8 -2.5 -.8c-1.2 0 -2.2 .3 -3.4 .8l-.5 -1.3c1.4 -.7 2.8 -1 4.2 -1c0 0 .1 0 .2 0c1.5 0 2.7 .5 3.4 1.3c.8 .7 1.2 1.9 1.2 3.3v7h-1.7v-1.8c-1 1.3 -2.4 2 -4.1 2Zm486.6 0c-1.3 0 -2.2 -.3 -3 -.9c-.9 -.7 -1.3 -1.6 -1.3 -2.7c0 -1.4 .5 -2.2 1.3 -2.9c.8 -.7 2.1 -.9 3.6 -.9c.1 0 .2 -.1 .3 -.1c1 0 2.1 .3 3.1 .6v-.4c0 -.9 -.3 -1.7 -.8 -2.2c-.7 -.5 -1.4 -.8 -2.5 -.8c-1.2 0 -2.3 .3 -3.4 .8l-.5 -1.3c1.4 -.7 2.8 -1 4.1 -1c.1 0 .2 0 .3 0c1.4 0 2.6 .5 3.4 1.3c.7 .7 1.2 1.9 1.2 3.3v7h-1.8v-1.8c-1 1.3 -2.3 2 -4 2ZM502.6 254c-1.9 0 -3.4 -.6 -4.8 -1.7l.8 -1.2c1.2 .9 2.5 1.4 3.9 1.4c.8 0 1.5 -.2 2.1 -.5c.5 -.4 .8 -.9 .8 -1.5c0 -.6 -.3 -1 -.8 -1.3c-.6 -.5 -1.2 -.5 -2.1 -.5h-1.6v-1.5h1.6c.7 0 1.4 -.2 1.8 -.6c.4 -.4 .8 -.8 .8 -1.4c0 -.5 -.3 -.9 -.7 -1.2c-.6 -.4 -1.1 -.5 -1.8 -.5c-1.5 0 -2.6 .4 -3.6 1.2l-.8 -1.2c1.2 -1.1 2.7 -1.5 4.5 -1.5c0 0 .1 0 .2 0c1.1 0 2.1 .4 2.8 .9c.6 .6 1.1 1.3 1.1 2.2c0 1.2 -.6 2.2 -1.8 2.7c1.3 .4 2.1 1.4 2.1 2.8c0 .9 -.4 1.7 -1.2 2.4c-.9 .6 -1.9 1 -3.3 1Zm452 0c-1.8 0 -3.3 -.6 -4.7 -1.7l.8 -1.2c1.1 .9 2.5 1.4 3.9 1.4c.8 0 1.5 -.2 2 -.5c.5 -.4 .9 -.9 .9 -1.5c0 -.6 -.3 -1 -.8 -1.3c-.6 -.5 -1.2 -.5 -2.2 -.5H953v-1.5h1.6c.7 0 1.3 -.2 1.8 -.6c.4 -.4 .7 -.8 .7 -1.4c0 -.5 -.2 -.9 -.7 -1.2c-.5 -.4 -1 -.5 -1.8 -.5c-1.4 0 -2.5 .4 -3.5 1.2l-.8 -1.2c1.2 -1.1 2.7 -1.5 4.4 -1.5c.1 0 .2 0 .3 0c1.1 0 2.1 .4 2.8 .9c.6 .6 1.1 1.3 1.1 2.2c0 1.2 -.6 2.2 -1.8 2.7c1.3 .4 2.1 1.4 2.1 2.8c0 .9 -.4 1.7 -1.2 2.4c-.9 .6 -2 1 -3.4 1Zm79.2 0c-1.8 0 -3.4 -.6 -4.8 -1.7l.9 -1.2c1.1 .9 2.5 1.4 3.9 1.4c.7 0 1.4 -.2 2 -.5c.5 -.4 .8 -.9 .8 -1.5c0 -.6 -.2 -1 -.7 -1.3c-.6 -.5 -1.3 -.5 -2.2 -.5h-1.6v-1.5h1.6c.8 0 1.4 -.2 1.9 -.6c.4 -.4 .7 -.8 .7 -1.4c0 -.5 -.2 -.9 -.7 -1.2c-.6 -.4 -1.1 -.5 -1.8 -.5c-1.4 0 -2.6 .4 -3.5 1.2l-.9 -1.2c1.2 -1.1 2.8 -1.5 4.5 -1.5c.1 0 .2 0 .2 0c1.1 0 2.1 .4 2.8 .9c.7 .6 1.2 1.3 1.2 2.2c-.1 1.2 -.7 2.2 -1.9 2.7c1.4 .4 2.2 1.4 2.2 2.8c0 .9 -.4 1.7 -1.3 2.4c-.9 .6 -1.9 1 -3.3 1ZM720.7 240.5c-.9 0 -1.6 -.2 -2.1 -.7c-.6 -.6 -1 -1.2 -1.1 -2.1l1.2 -.2c.2 .9 .9 1.5 1.9 1.5c1 0 1.7 -.5 2 -1.5l1.2 .2c-.2 .8 -.5 1.5 -1.1 2.1c-.6 .4 -1.2 .7 -2 .7Zm182.1 0c-.9 0 -1.6 -.2 -2.1 -.7c-.6 -.6 -1 -1.2 -1.1 -2.1l1.2 -.2c.2 .9 .9 1.5 2 1.5c.9 0 1.6 -.5 1.9 -1.5l1.2 .2c-.2 .8 -.5 1.5 -1.1 2.1c-.6 .4 -1.2 .7 -2 .7ZM860.6 222.9l-.3 -.7c1 -.5 1.5 -1 1.5 -1.7v-.3H861v-2.3h2.1v2c-.1 .9 -.2 1.6 -.6 2c-.5 .5 -1 .9 -1.9 1Zm66.8 -4c.8 0 1.5 -.2 2 -.5c.4 -.4 .7 -.8 .7 -1.4c-.1 -.6 -.3 -1 -.8 -1.3c-.5 -.3 -1.2 -.4 -2.1 -.4h-3.6v3.6Zm-484.9 -.2c.8 0 1.5 -.1 2 -.5c.4 -.4 .7 -.8 .7 -1.5c-.1 -.7 -.3 -1.1 -.7 -1.4c-.6 -.4 -1.2 -.5 -2.1 -.5h-3v3.9Zm103 0c.8 0 1.5 -.1 2 -.5c.4 -.4 .7 -.8 .7 -1.5c-.1 -.7 -.3 -1.1 -.8 -1.4c-.5 -.4 -1.1 -.5 -2 -.5h-3v3.9Zm394.2 0c.8 0 1.5 -.1 2 -.5c.4 -.4 .7 -.8 .7 -1.5c-.1 -.7 -.2 -1.1 -.7 -1.4c-.6 -.4 -1.2 -.5 -2.1 -.5h-3v3.9Zm129.6 .2c.8 0 1.5 -.2 2 -.5c.4 -.4 .7 -.9 .7 -1.6c-.1 -.7 -.3 -1.2 -.8 -1.5c-.5 -.4 -1.1 -.5 -2 -.5h-3v4.1ZM368 219.1c.9 -.1 1.9 -.3 2.6 -.9c.7 -.6 1.1 -1.2 1.1 -2.1v-1c-1.1 -.4 -2.2 -.5 -3.3 -.5c-1 0 -1.8 .2 -2.4 .6c-.7 .3 -.9 1 -.9 1.7c0 .5 .3 1.2 .9 1.6c.4 .3 1.2 .6 2 .6Zm16.5 -.2v-8.5H380V212c-.1 2.9 -.5 5.2 -1.5 6.9Zm542.6 -5.1c.6 -.1 1.3 -.2 1.7 -.5c.3 -.3 .6 -.7 .6 -1.3c-.1 -.5 -.2 -.9 -.6 -1.1c-.5 -.4 -.9 -.5 -1.6 -.5h-3.6v3.4Zm79.6 5.1v-8.5h-4.6V212c0 2.9 -.5 5.2 -1.4 6.9Zm89.6 -4.1v-4.4h-3.5c-.1 0 -.2 0 -.3 0c-.7 0 -1.3 .3 -1.7 .6c-.5 .3 -.7 .9 -.7 1.6c0 .5 .3 1.2 .8 1.6c.4 .3 1.1 .6 1.9 .6Zm-633.2 -.7c-.2 -1.2 -.5 -2 -1.2 -2.7c-.6 -.8 -1.4 -1.1 -2.5 -1.1c-1.1 0 -1.9 .3 -2.6 1c-.8 .7 -1.1 1.7 -1.2 2.8Zm35.4 0c-.2 -1.2 -.5 -2 -1.1 -2.7c-.7 -.8 -1.5 -1.1 -2.6 -1.1c-1.1 0 -1.9 .3 -2.6 1c-.8 .7 -1.1 1.7 -1.2 2.8Zm67.6 0c-.2 -1.2 -.5 -2 -1.2 -2.7c-.6 -.8 -1.5 -1.1 -2.5 -1.1c-1.1 0 -1.9 .3 -2.6 1c-.8 .7 -1.1 1.7 -1.2 2.8Zm63.2 0c-.2 -1.2 -.4 -2 -1.1 -2.7c-.7 -.8 -1.5 -1.1 -2.6 -1.1c-1 0 -1.8 .3 -2.5 1c-.8 .7 -1.1 1.7 -1.2 2.8ZM730 219.2c1.2 0 2.2 -.4 3 -1.2c.8 -.9 1.2 -2 1.2 -3.2c-.1 -1.3 -.4 -2.3 -1.2 -3.2c-.9 -1 -1.9 -1.3 -3.1 -1.3c-1.3 0 -2.2 .4 -3 1.3c-.9 .7 -1.2 1.9 -1.2 3.2c0 1.2 .4 2.3 1.3 3.1c.7 .9 1.8 1.3 3 1.3Zm28.1 0c1.2 0 2.2 -.4 3 -1.2c.8 -.9 1.2 -2 1.2 -3.2c-.1 -1.3 -.4 -2.3 -1.3 -3.2c-.8 -1 -1.8 -1.3 -3 -1.3c-1.3 0 -2.2 .4 -3 1.3c-.9 .7 -1.2 1.9 -1.2 3.2c0 1.2 .4 2.3 1.2 3.1c.7 .9 1.9 1.3 3.1 1.3Zm30.2 -5.1c-.2 -1.2 -.5 -2 -1.1 -2.7c-.7 -.8 -1.5 -1.1 -2.6 -1.1c-1.1 0 -1.9 .3 -2.6 1c-.8 .7 -1.1 1.7 -1.2 2.8Zm26.6 0c-.1 -1.2 -.4 -2 -1.1 -2.7c-.7 -.8 -1.5 -1.1 -2.6 -1.1c-1 0 -1.8 .3 -2.5 1c-.8 .7 -1.1 1.7 -1.2 2.8Zm73.4 5.1c1.3 0 2.3 -.4 3.1 -1.2c.8 -.9 1.2 -2 1.2 -3.2c-.1 -1.3 -.4 -2.3 -1.3 -3.2c-.8 -1 -1.8 -1.3 -3 -1.3c-1.3 0 -2.2 .4 -3 1.3c-.9 .7 -1.2 1.9 -1.2 3.2c0 1.2 .4 2.3 1.2 3.1c.7 .9 1.8 1.3 3 1.3Zm24.6 0c1.2 0 2.2 -.4 3 -1.2c.8 -.9 1.2 -2 1.2 -3.2c-.1 -1.3 -.4 -2.3 -1.2 -3.2c-.9 -1 -1.9 -1.3 -3.1 -1.3c-1.3 0 -2.2 .4 -3 1.3c-.9 .7 -1.2 1.9 -1.2 3.2c0 1.2 .4 2.3 1.2 3.1c.8 .9 1.9 1.3 3.1 1.3Zm47.4 -5.1c-.2 -1.2 -.5 -2 -1.1 -2.7c-.7 -.8 -1.5 -1.1 -2.6 -1.1c-1.1 0 -1.9 .3 -2.6 1c-.8 .7 -1.1 1.7 -1.2 2.8Zm30.3 5.1c1.2 0 2.2 -.4 3 -1.2c.8 -.9 1.2 -2 1.2 -3.2c-.1 -1.3 -.4 -2.3 -1.2 -3.2c-.9 -1 -1.9 -1.3 -3.1 -1.3c-1.3 0 -2.2 .4 -3 1.3c-.9 .7 -1.2 1.9 -1.2 3.2c0 1.2 .4 2.3 1.3 3.1c.7 .9 1.8 1.3 3 1.3Zm30.6 -5.1c-.2 -1.2 -.4 -2 -1.1 -2.7c-.7 -.8 -1.5 -1.1 -2.6 -1.1c-1 0 -1.8 .3 -2.5 1c-.8 .7 -1.1 1.7 -1.2 2.8Zm-645.8 9.1v-4.3h1.3c1 -1.9 1.5 -4.5 1.5 -8v-2h8.1v10h1.6v4.3h-1.6v-2.8h-9.2l-.3 2.8Zm16.8 .7c-.8 0 -1.6 -.2 -2.4 -.6l.6 -1.3c.5 .2 1.1 .4 1.8 .4c.4 0 .9 -.2 1.3 -.5c.2 -.3 .7 -.8 1 -1.6l-5.2 -11.4h1.9l4.2 9.5l3.6 -9.5h1.9L396 220.7c-.5 1.1 -1 2 -1.6 2.5c-.6 .4 -1.3 .7 -2.2 .7Zm11.5 -3.5V208.9h1.7v10h5.5v-10h1.7v10h5.5v-10h1.8v11.5Zm20.1 -.2V208.9h1.7v4.9h6.6v-4.9h1.8v11.3h-1.8v-4.9h-6.6v4.9Zm13.8 0V208.9h1.8v4.4h3c1.3 0 2.4 .2 3.3 .8c.8 .5 1.2 1.4 1.2 2.5c0 1.1 -.4 2 -1.1 2.7c-.9 .6 -1.9 .9 -3.2 .9Zm11.3 0V208.9h1.8v11.3Zm25.4 0V208.9H476l4.2 6l4.1 -6H486v11.3h-1.7v-8.6l-4.2 5.8L476 211.6v8.6Zm44.1 .2v-10h-4v-1.5h9.9v1.5h-4.2v10Zm8.4 -.2V208.9h1.7v4.9h6.6v-4.9h1.7v11.3h-1.7v-4.9h-6.6v4.9Zm13.8 0V208.9h1.8v4.4h3c1.3 0 2.4 .2 3.3 .8c.8 .5 1.2 1.4 1.2 2.5c0 1.1 -.4 2 -1.1 2.7c-.9 .6 -1.9 .9 -3.2 .9Zm11.3 0V208.9h1.8v11.3Zm23.9 0l4.7 -6.4L576 208.9h2.1l5.8 6.6v-6.6h1.8v6.6l5.8 -6.6h2.1l-4.5 4.9l4.7 6.4h-2L588 215l-2.3 2.5v2.7h-1.8v-2.7L581.6 215l-3.8 5.2Zm20.3 0V208.9h1.8v9l6.8 -9h1.7v11.3h-1.7v-8.9l-6.9 8.9Zm16.7 .2v-10h-4v-1.5h10v1.5h-4.3v10Zm20.6 .2c-.5 0 -.9 -.1 -1.4 -.2l.2 -1.5c.2 .1 .6 .2 .8 .2c.3 -.1 .6 -.1 .8 -.1c.1 -.1 .5 -.3 .7 -.7c.2 -.4 .4 -.8 .6 -1.5c0 -.7 .2 -1.5 .3 -2.7c.1 -1.2 .2 -2.5 .2 -4.2v-1h8v11.5h-1.7v-10h-4.6v.3c0 1.7 -.1 3.2 -.2 4.5c-.2 1.1 -.3 2.1 -.5 2.8c-.2 .7 -.5 1.3 -.9 1.7c-.4 .3 -.7 .6 -1 .7c-.4 .1 -.8 .2 -1.3 .2Zm14 -.4V208.9h1.8v9l6.9 -9h1.7v11.3H656v-8.9l-6.9 8.9Zm20.7 0V208.9h1.7v9l6.9 -9h1.7v11.3h-1.8v-8.9l-6.8 8.9Zm44.6 0V208.9h1.8v6.6l6.3 -6.6h2.1l-4.8 4.9l4.9 6.4h-2l-4.1 -5.1l-2.4 2.4v2.7Zm26.3 .2V208.9h10v11.5h-1.8v-10h-6.5v10Zm53.4 .2c-.6 0 -1 -.1 -1.5 -.2l.2 -1.5c.3 .1 .7 .2 .9 .2c.3 -.1 .6 -.1 .8 -.1c.1 -.1 .4 -.3 .6 -.7c.2 -.4 .5 -.8 .6 -1.5c.1 -.7 .3 -1.5 .3 -2.7c.1 -1.2 .2 -2.5 .2 -4.2v-1h8.1v11.5h-1.8v-10h-4.6v.3c0 1.7 0 3.2 -.2 4.5c-.2 1.1 -.3 2.1 -.5 2.8c-.2 .7 -.5 1.3 -.8 1.7c-.4 .3 -.7 .6 -1.1 .7c-.4 .1 -.7 .2 -1.2 .2Zm27.1 -.4V208.9h1.8v4.9h6.5v-4.9h1.8v11.3h-1.8v-4.9h-6.5v4.9Zm13.8 0V208.9h1.8v9l6.8 -9h1.7v11.3h-1.7v-8.9l-6.9 8.9Zm14 0V208.9h1.8v9l6.8 -9h1.7v11.3h-1.7v-8.9l-6.9 8.9Zm26.1 .2V208.9h7.8v1.5h-6v10Zm26.1 0v-10h-3.9v-1.5h9.9v1.5h-4.2v10Zm22.4 0V208.9h5.5c1.1 0 2.1 .3 2.7 .8c.6 .5 1.1 1.2 1.1 2.1c0 1.1 -.7 2.1 -2 2.6c1.7 .4 2.6 1.4 2.6 2.9c0 .9 -.3 1.7 -1.1 2.3c-.8 .4 -1.8 .8 -3.1 .8Zm12.9 -.2V208.9h1.8v4.4h3c1.3 0 2.5 .2 3.3 .8c.8 .5 1.3 1.4 1.3 2.5c0 1.1 -.4 2 -1.2 2.7c-.9 .6 -1.9 .9 -3.2 .9Zm11.4 0V208.9h1.7v11.3Zm25.3 .2V208.9h10v11.5h-1.8v-10h-6.4v10Zm26 2.8v-4.3h1.3c1 -1.9 1.5 -4.5 1.5 -8v-2h8.1v10h1.6v4.3h-1.6v-2.8h-9.1l-.4 2.8Zm27.8 -2.6c-.5 0 -.9 -.1 -1.4 -.2l.2 -1.5c.3 .1 .6 .2 .8 .2c.3 -.1 .6 -.1 .8 -.1c.2 -.1 .5 -.3 .7 -.7c.2 -.4 .4 -.8 .6 -1.5c0 -.7 .2 -1.5 .3 -2.7c.1 -1.2 .2 -2.5 .2 -4.2v-1h8v11.5h-1.7v-10h-4.6v.3c0 1.7 -.1 3.2 -.2 4.5c-.2 1.1 -.3 2.1 -.5 2.8c-.2 .7 -.5 1.3 -.9 1.7c-.4 .3 -.7 .6 -1 .7c-.4 .1 -.8 .2 -1.3 .2Zm14 -.4V208.9h1.8v9l6.9 -9h1.7v11.3h-1.8v-8.9l-6.9 8.9Zm16.7 .2v-10h-4v-1.5h10v1.5h-4.2v10Zm8.4 0V208.9h1.8v4.4h3c1.3 0 2.4 .2 3.3 .8c.8 .5 1.2 1.4 1.2 2.6c0 1.1 -.4 2 -1.1 2.7c-.9 .6 -1.9 1 -3.2 1Zm23.5 0l3.5 -4.4c-.9 -.2 -1.6 -.6 -2.2 -1.2c-.6 -.7 -.9 -1.4 -.9 -2.3c0 -1.1 .4 -1.9 1.2 -2.6c.7 -.7 1.8 -1 3.2 -1h5.4v11.5h-1.8v-4.1h-3.1c-.2 .1 -.6 .7 -1.4 1.8c-.8 .9 -1.3 1.8 -1.7 2.3Zm-579.7 .3c-1.7 0 -3 -.5 -4.1 -1.7c-1.2 -1.2 -1.7 -2.6 -1.7 -4.2c0 -1.7 .5 -3.1 1.7 -4.3c1.1 -1.2 2.5 -1.7 4.1 -1.7c.1 0 .2 0 .2 0c1.7 0 3.2 .7 4.4 2l-1.1 1.2c-1 -1.2 -2.2 -1.7 -3.5 -1.7c-1.2 0 -2.1 .4 -2.9 1.3c-.9 .7 -1.2 1.9 -1.2 3.2c0 1.2 .4 2.3 1.2 3.1c.7 .9 1.8 1.3 3 1.3c1.2 0 2.4 -.5 3.5 -1.7l1.1 1.1c-1.4 1.3 -2.9 2.1 -4.7 2.1Zm264.1 0c-1.8 0 -3.1 -.5 -4.2 -1.7c-1.2 -1.2 -1.7 -2.6 -1.7 -4.2c0 -1.7 .5 -3.1 1.7 -4.3c1.1 -1.2 2.5 -1.7 4.2 -1.7c0 0 .1 0 .1 0c1.7 0 3.2 .7 4.4 2l-1 1.2c-1.1 -1.2 -2.3 -1.7 -3.6 -1.7c-1.2 0 -2.1 .4 -2.9 1.3c-.9 .7 -1.2 1.9 -1.2 3.2c0 1.2 .4 2.3 1.2 3.1c.7 .9 1.8 1.3 3 1.3c1.2 0 2.4 -.5 3.5 -1.7l1.1 1.1c-1.4 1.3 -2.9 2.1 -4.6 2.1Zm309.3 0c-1.8 0 -3.1 -.5 -4.2 -1.7c-1.2 -1.2 -1.7 -2.6 -1.7 -4.2c0 -1.7 .5 -3.1 1.7 -4.3c1.1 -1.2 2.5 -1.7 4.2 -1.7c0 0 .1 0 .1 0c1.7 0 3.2 .7 4.4 2l-1 1.2c-1.1 -1.2 -2.3 -1.7 -3.6 -1.7c-1.2 0 -2.1 .4 -2.9 1.3c-.9 .7 -1.2 1.9 -1.2 3.2c0 1.2 .4 2.3 1.2 3.1c.8 .9 1.9 1.3 3 1.3c1.2 0 2.4 -.5 3.5 -1.7l1.1 1.1c-1.4 1.3 -2.9 2.1 -4.6 2.1Zm32.2 0c-1.7 0 -3 -.5 -4.2 -1.7c-1.1 -1.2 -1.7 -2.6 -1.7 -4.2c0 -1.7 .6 -3.1 1.7 -4.3c1.2 -1.2 2.6 -1.7 4.2 -1.7q.1 0 .2 0c1.6 0 3.2 .7 4.4 2l-1.1 1.2c-1.1 -1.2 -2.2 -1.7 -3.5 -1.7c-1.2 0 -2.1 .4 -2.9 1.3c-.9 .7 -1.2 1.9 -1.2 3.2c0 1.2 .4 2.3 1.2 3.1c.7 .9 1.8 1.3 3 1.3c1.1 0 2.4 -.5 3.5 -1.7l1.1 1.1c-1.4 1.3 -2.9 2.1 -4.7 2.1Zm-410.3 0c-1.1 0 -1.9 -.1 -2.6 -.5c-.8 -.5 -1.4 -.9 -2.1 -1.7l1.2 -1c1 1.1 2.2 1.7 3.4 1.7c1.1 0 2.1 -.3 2.9 -1.1c.7 -.8 1.2 -1.6 1.3 -2.7h-5.2v-1.5h5.2c-.2 -1 -.6 -1.9 -1.3 -2.6c-.9 -.7 -1.7 -1 -2.8 -1c-1.3 0 -2.5 .5 -3.5 1.6l-1 -1c1.1 -1.5 2.8 -2.1 4.6 -2.1q.1 0 .2 0c1.5 0 2.9 .6 4 1.7c1 1.1 1.6 2.6 1.6 4.3c0 1.6 -.6 3 -1.7 4.2c-1.2 1.1 -2.5 1.7 -4.2 1.7Zm-243.9 0c-1.7 0 -3 -.5 -4.1 -1.6c-1.1 -1.2 -1.7 -2.6 -1.7 -4.3c0 -1.8 .6 -3.1 1.6 -4.3c1 -1.2 2.4 -1.7 4 -1.7q.1 0 .2 0c1.5 0 2.8 .6 3.8 1.7c.9 1.1 1.4 2.7 1.4 4.5c-.1 .2 0 .4 0 .6h-9.2c.1 1.1 .5 2 1.3 2.7c.8 .6 1.7 .9 2.8 .9c1.3 0 2.6 -.5 3.6 -1.5l1.1 .9c-1.4 1.4 -2.9 2.1 -4.8 2.1Zm35.4 0c-1.6 0 -3 -.5 -4.1 -1.6c-1.1 -1.2 -1.7 -2.6 -1.7 -4.3c0 -1.8 .6 -3.1 1.6 -4.3c1 -1.2 2.4 -1.7 4 -1.7q.1 0 .2 0c1.5 0 2.8 .6 3.8 1.7c.9 1.1 1.4 2.7 1.4 4.5c-.1 .2 0 .4 0 .6H491c.1 1.1 .6 2 1.3 2.7c.8 .6 1.7 .9 2.8 .9c1.3 0 2.6 -.5 3.6 -1.5l1.1 .9c-1.4 1.4 -2.9 2.1 -4.8 2.1Zm67.6 0c-1.7 0 -3 -.5 -4.1 -1.6c-1.1 -1.2 -1.7 -2.6 -1.7 -4.3c0 -1.8 .6 -3.1 1.6 -4.3c1 -1.2 2.4 -1.7 4 -1.7q.1 0 .2 0c1.5 0 2.8 .6 3.7 1.7c.9 1.1 1.5 2.7 1.5 4.5c-.1 .2 0 .4 0 .6h-9.2c.1 1.1 .5 2 1.3 2.7c.8 .6 1.7 .9 2.8 .9c1.3 0 2.6 -.5 3.6 -1.5l1.1 .9c-1.4 1.4 -2.9 2.1 -4.8 2.1Zm63.3 0c-1.7 0 -3 -.5 -4.1 -1.6c-1.1 -1.2 -1.7 -2.6 -1.7 -4.3c0 -1.8 .5 -3.1 1.6 -4.3c1 -1.2 2.4 -1.7 4 -1.7c0 0 .1 0 .2 0c1.5 0 2.8 .6 3.7 1.7c.9 1.1 1.5 2.7 1.5 4.5c-.1 .2 0 .4 0 .6h-9.2c0 1.1 .5 2 1.3 2.7c.7 .6 1.7 .9 2.7 .9c1.4 0 2.7 -.5 3.7 -1.5l1.1 .9c-1.4 1.4 -2.9 2.1 -4.8 2.1Zm158.9 0c-1.6 0 -3 -.5 -4.1 -1.6c-1.1 -1.2 -1.7 -2.6 -1.7 -4.3c0 -1.8 .6 -3.1 1.6 -4.3c1 -1.2 2.4 -1.7 4 -1.7q.1 0 .2 0c1.5 0 2.8 .6 3.8 1.7c.9 1.1 1.4 2.7 1.4 4.5c-.1 .2 0 .4 0 .6h-9.2c.1 1.1 .6 2 1.3 2.7c.8 .6 1.7 .9 2.8 .9c1.3 0 2.6 -.5 3.6 -1.5l1.1 .9c-1.4 1.4 -2.9 2.1 -4.8 2.1Zm26.7 0c-1.7 0 -3 -.5 -4.1 -1.6c-1.1 -1.2 -1.7 -2.6 -1.7 -4.3c0 -1.8 .5 -3.1 1.6 -4.3c1 -1.2 2.4 -1.7 4 -1.7c0 0 .1 0 .2 0c1.5 0 2.8 .6 3.7 1.7c.9 1.1 1.5 2.7 1.5 4.5c-.1 .2 0 .4 0 .6h-9.2c.1 1.1 .5 2 1.3 2.7c.7 .6 1.7 .9 2.8 .9c1.3 0 2.6 -.5 3.6 -1.5l1.1 .9c-1.4 1.4 -2.9 2.1 -4.8 2.1Zm145.3 0c-1.6 0 -3 -.5 -4.1 -1.6c-1.1 -1.2 -1.6 -2.6 -1.6 -4.3c0 -1.8 .5 -3.1 1.6 -4.3c.9 -1.2 2.3 -1.7 3.9 -1.7q.1 0 .2 0c1.5 0 2.8 .6 3.8 1.7c.9 1.1 1.4 2.7 1.4 4.5c-.1 .2 0 .4 0 .6h-9.2c.1 1.1 .6 2 1.3 2.7c.8 .6 1.7 .9 2.8 .9c1.3 0 2.6 -.5 3.7 -1.5l1 .9c-1.4 1.4 -2.9 2.1 -4.8 2.1Zm61 0c-1.7 0 -3 -.5 -4.1 -1.6c-1.1 -1.2 -1.7 -2.6 -1.7 -4.3c0 -1.8 .5 -3.1 1.6 -4.3c1 -1.2 2.4 -1.7 4 -1.7c0 0 .1 0 .2 0c1.5 0 2.8 .6 3.7 1.7c.9 1.1 1.5 2.7 1.5 4.5c-.1 .2 0 .4 0 .6h-9.2c0 1.1 .5 2 1.3 2.7c.7 .6 1.7 .9 2.7 .9c1.4 0 2.7 -.5 3.7 -1.5l1.1 .9c-1.4 1.4 -2.9 2.1 -4.8 2.1Zm-287.9 0c-1.8 0 -3.1 -.5 -4.2 -1.7c-1.2 -1.2 -1.7 -2.6 -1.7 -4.2c0 -1.7 .6 -3.1 1.7 -4.3c1.1 -1.2 2.6 -1.7 4.3 -1.7q.1 0 .2 0c1.6 0 3 .6 4 1.7c1.1 1.1 1.8 2.6 1.8 4.3c-.2 1.5 -.6 3 -1.8 4.2c-1.2 1.1 -2.6 1.7 -4.3 1.7Zm28.1 0c-1.8 0 -3.1 -.5 -4.2 -1.7c-1.2 -1.2 -1.7 -2.6 -1.7 -4.2c0 -1.7 .5 -3.1 1.7 -4.3c1.1 -1.2 2.6 -1.7 4.3 -1.7c0 0 .1 0 .2 0c1.6 0 2.9 .6 4 1.7c1.1 1.1 1.7 2.6 1.7 4.3c-.1 1.5 -.6 3 -1.7 4.2c-1.2 1.1 -2.6 1.7 -4.3 1.7Zm130.3 0c-1.8 0 -3.1 -.5 -4.3 -1.7c-1.1 -1.2 -1.7 -2.6 -1.7 -4.2c0 -1.7 .6 -3.1 1.8 -4.3c1.1 -1.2 2.5 -1.7 4.2 -1.7c.1 0 .2 0 .2 0c1.7 0 3 .6 4.1 1.7c1 1.1 1.7 2.6 1.7 4.3c-.1 1.5 -.6 3 -1.7 4.2c-1.3 1.1 -2.6 1.7 -4.3 1.7Zm24.5 0c-1.8 0 -3.1 -.5 -4.2 -1.7c-1.2 -1.2 -1.7 -2.6 -1.7 -4.2c0 -1.7 .5 -3.1 1.7 -4.3c1.1 -1.2 2.6 -1.7 4.3 -1.7c0 0 .1 0 .2 0c1.6 0 2.9 .6 4 1.7c1.1 1.1 1.7 2.6 1.7 4.3c-.1 1.5 -.5 3 -1.7 4.2c-1.2 1.1 -2.6 1.7 -4.3 1.7Zm77.7 0c-1.8 0 -3.1 -.5 -4.2 -1.7c-1.2 -1.2 -1.7 -2.6 -1.7 -4.2c0 -1.7 .6 -3.1 1.7 -4.3c1.1 -1.2 2.6 -1.7 4.3 -1.7c0 0 .1 0 .2 0c1.6 0 2.9 .6 4 1.7c1.1 1.1 1.8 2.6 1.8 4.3c-.2 1.5 -.6 3 -1.8 4.2c-1.2 1.1 -2.6 1.7 -4.3 1.7Zm-622.9 -.1c-1.2 0 -2.1 -.3 -3 -1c-.9 -.6 -1.2 -1.5 -1.2 -2.7c0 -1.3 .4 -2.2 1.3 -2.8c.8 -.7 2.1 -1 3.5 -1c.2 0 .3 0 .4 0c1 0 2.1 .2 3.1 .5v-.3c0 -1 -.3 -1.7 -.9 -2.3c-.6 -.5 -1.4 -.7 -2.4 -.7c-1.2 0 -2.3 .2 -3.5 .7l-.5 -1.3c1.4 -.7 2.8 -.9 4.2 -.9q.1 0 .2 0c1.5 0 2.7 .4 3.5 1.2c.7 .8 1.2 1.9 1.2 3.4v6.9h-1.8v-1.8c-1 1.3 -2.4 2.1 -4.1 2.1Zm318 .1c-1.9 0 -3.4 -.5 -4.8 -1.7l.8 -1.2c1.2 .9 2.5 1.4 3.9 1.4c.8 0 1.5 -.1 2.1 -.5c.5 -.4 .8 -.8 .8 -1.4c0 -.6 -.3 -1.1 -.8 -1.4c-.6 -.4 -1.2 -.5 -2.1 -.5h-1.6v-1.5h1.6c.7 0 1.4 -.2 1.8 -.5c.4 -.4 .8 -.8 .8 -1.4c0 -.6 -.3 -1 -.7 -1.3c-.6 -.3 -1.1 -.4 -1.8 -.4c-1.5 0 -2.6 .3 -3.6 1.1l-.8 -1.2c1.2 -1 2.7 -1.4 4.5 -1.4c0 0 .1 0 .2 0c1.1 0 2.1 .3 2.8 .8c.6 .6 1.1 1.3 1.1 2.2c0 1.2 -.6 2.2 -1.8 2.7c1.3 .4 2.2 1.4 2.2 2.8c-.1 .9 -.5 1.8 -1.3 2.4c-.9 .7 -1.9 1 -3.3 1ZM355.5 213.4c1.2 0 2.3 -.3 3.1 -.9c.8 -.7 1.2 -1.5 1.2 -2.6c-.1 -1.2 -.4 -2 -1.1 -2.6c-.8 -.6 -1.8 -.9 -3.1 -.9h-3.9v7Zm-5.6 7V204.9h5.8c1.8 0 3.2 .5 4.3 1.4c1 .7 1.6 2.1 1.6 3.6c-.2 1.5 -.6 2.8 -1.8 3.7c-1.2 .9 -2.6 1.3 -4.4 1.3h-3.7v5.5ZM852.4 207.3c-.8 0 -1.5 -.3 -2.1 -.8c-.5 -.6 -.9 -1.2 -1 -2l1.2 -.3c.2 1 .9 1.6 1.9 1.6c1 -.1 1.7 -.5 2 -1.6l1.2 .3c-.2 .7 -.5 1.5 -1.1 2c-.6 .4 -1.2 .8 -2.1 .8Z"/></clipPath>
<clipPath id="c3_30"><path d="M640 153.1v-5.6h11.9v5.6ZM621.2 157c2.3 0 4.3 -.8 5.8 -2.5c1.5 -1.7 2.3 -3.6 2.3 -6c-.1 -2.4 -.8 -4.4 -2.3 -6c-1.6 -1.7 -3.5 -2.5 -5.9 -2.5c-2.4 0 -4.3 .8 -5.8 2.5c-1.6 1.6 -2.3 3.6 -2.3 6c0 2.3 .8 4.4 2.3 6c1.4 1.6 3.5 2.5 5.9 2.5Zm79.5 0c2.3 0 4.4 -.8 5.9 -2.5c1.5 -1.7 2.3 -3.6 2.3 -6c-.2 -2.4 -.8 -4.4 -2.4 -6C705 140.8 703 140 700.7 140c-2.4 0 -4.3 .8 -5.9 2.5c-1.6 1.6 -2.2 3.6 -2.2 6c0 2.3 .7 4.4 2.3 6c1.4 1.6 3.5 2.5 5.8 2.5Zm-119.9 5.3V135h5.8v12l11.1 -12h7.2l-11.1 11.6l11.6 15.7h-7.2l-8.4 -11.6l-3.2 3.3v8.3Zm76.8 -.2V135h22.6v27.1h-5.8V140.3h-11v21.8Zm93.2 .2V135h20.4v5.3H756.6V146h12.9v5.3H756.6V157h14.8v5.3Zm27.2 .3c-1.3 0 -2.3 -.1 -3.2 -.3l.4 -4.9c.4 .1 .7 .1 1 .1c.7 0 1.6 -.2 2.1 -.5c.5 -.5 1.1 -1.2 1.6 -2.3c.3 -1.2 .8 -2.9 1 -5.2c.2 -2.3 .3 -5.2 .3 -8.8V135h19.3v27.3h-5.8v-22h-7.8v2.1c0 5.3 -.4 9.5 -1 12.5c-.7 2.8 -1.6 4.9 -2.8 6c-1.3 1.1 -2.9 1.7 -5.1 1.7Zm29.9 -.3V135h20.4v5.3H813.7V146h12.9v5.3H813.7V157h14.8v5.3Zm26.7 0V135h5.9v10.7h11.3V135h5.8v27.3h-5.8v-11H840.5v11Zm30.3 0V135h5.8v17.9l12 -17.9h5.5v27.3h-5.8V144.4l-11.9 17.9Zm30.7 0V135h20.5v5.3H901.4V146h13v5.3h-13V157h14.8v5.3Zm-334.7 .3c-2.6 0 -4.7 -.3 -6.5 -1.1c-1.8 -.8 -3.4 -1.9 -4.9 -3.4l3.7 -4c1.1 1 2.4 1.9 3.5 2.4c1.1 .5 2.5 .8 4 .8c1.9 0 3.6 -.6 5 -1.8c1.3 -1.2 2.3 -2.6 2.8 -4.5H557.3v-5.1h11.1c-.5 -1.9 -1.4 -3.4 -2.8 -4.5c-1.5 -1.2 -3.1 -1.7 -4.9 -1.7c-2.6 0 -5 1 -7.1 2.9l-3.3 -4.1c2.9 -2.8 6.4 -4.1 10.4 -4.1c4.1 0 7.5 1.3 10.2 4.1c2.5 2.7 4 6 4 10c-.1 3.9 -1.3 7.3 -4 10.1c-2.8 2.6 -6 4 -10 4Zm60.2 0c-4.2 0 -7.6 -1.3 -10.3 -4.1c-2.8 -2.8 -4.1 -6 -4.1 -10c0 -4 1.4 -7.3 4.1 -10c2.7 -2.8 6.2 -4.1 10.4 -4.1c4.1 0 7.6 1.3 10.3 4.1c2.7 2.7 4.1 6 4.1 10c-.1 3.9 -1.4 7.3 -4.1 10c-2.9 2.7 -6.3 4.1 -10.4 4.1Zm79.6 0c-4.2 0 -7.6 -1.3 -10.4 -4.1c-2.7 -2.8 -4.1 -6 -4.1 -10c0 -4 1.4 -7.3 4.2 -10c2.7 -2.8 6.2 -4.1 10.3 -4.1c0 0 .1 0 .1 0c4 0 7.5 1.3 10.3 4.1c2.6 2.7 4.1 6 4.1 10c-.1 3.9 -1.4 7.3 -4.2 10c-2.8 2.7 -6.2 4.1 -10.3 4.1Zm33.3 0c-4.1 0 -7.3 -1.3 -10 -4c-2.8 -2.9 -4 -6.1 -4 -10.1c0 -4 1.3 -7.3 4 -10c2.7 -2.8 6.1 -4.1 10.2 -4.1c2.3 0 4.4 .4 6 1.1c1.5 .8 3.1 1.9 4.5 3.4l-3.5 4.1c-1.3 -1 -2.3 -1.8 -3.3 -2.3c-1.1 -.5 -2.3 -.7 -3.7 -.7c-2.3 0 -4.2 .8 -5.6 2.5c-1.6 1.6 -2.3 3.6 -2.3 6c0 2.3 .8 4.4 2.3 6c1.4 1.6 3.3 2.5 5.6 2.5c1.4 0 2.7 -.3 3.8 -.8c.9 -.6 2.1 -1.3 3.3 -2.4l3.8 4.1c-1.5 1.5 -3 2.8 -4.8 3.6c-1.7 .7 -3.8 1.1 -6.3 1.1Z"/></clipPath>
<clipPath id="c4_30"><path d="M149.9 774.6V709.3H444c18 0 32.6 14.6 32.6 32.6c0 18.1 -14.6 32.7 -32.6 32.7Z"/></clipPath>
<clipPath id="c5_30"><path d="M359.4 747.7v-3.1h3.1v3.1Zm37.8 3.2l-.3 -1.3c1.2 -.2 1.9 -.7 1.9 -1.7v-.2h-1.2v-3.1h3.2v2.6c-.1 1.2 -.3 2.2 -1 2.8c-.6 .5 -1.4 .8 -2.6 .9Zm44.6 -3.2v-3.1h3.1v3.1ZM243.6 745.9c.6 -.1 1.2 -.2 1.6 -.5c.4 -.5 .6 -.8 .6 -1.4v-.5c-.5 -.3 -1.1 -.4 -1.8 -.4c-.7 0 -1.1 .1 -1.4 .4c-.4 .2 -.5 .6 -.5 1.1c-.1 .3 .1 .7 .4 .9c.3 .2 .6 .4 1.1 .4Zm25 -.5c1 0 1.5 -.4 1.5 -1.2c0 -.4 -.1 -.6 -.4 -.8c-.3 -.3 -.6 -.3 -1.1 -.3h-1.9v2.3Zm39.1 .5c.7 -.1 1.2 -.2 1.6 -.5c.4 -.5 .7 -.8 .7 -1.4v-.5c-.6 -.3 -1.2 -.4 -1.8 -.4c-.7 0 -1.1 .1 -1.5 .4c-.3 .2 -.5 .6 -.5 1.1c-.1 .3 .2 .7 .4 .9c.3 .2 .7 .4 1.1 .4Zm44 0c.6 -.1 1.2 -.2 1.6 -.5c.4 -.5 .6 -.8 .6 -1.4v-.5c-.5 -.3 -1.1 -.4 -1.8 -.4c-.6 0 -1.1 .1 -1.4 .4c-.4 .2 -.5 .6 -.5 1.1c-.1 .3 .1 .7 .4 .9c.3 .2 .7 .4 1.1 .4Zm82.5 0c.6 -.1 1.2 -.2 1.6 -.5c.4 -.5 .6 -.8 .6 -1.4v-.5c-.5 -.3 -1.1 -.4 -1.8 -.4c-.7 0 -1.1 .1 -1.4 .4c-.4 .2 -.5 .6 -.5 1.1c-.1 .3 .1 .7 .4 .9c.3 .2 .6 .4 1.1 .4ZM258 745.2V740h-2.8v.2c-.1 2.1 -.3 3.8 -.8 5Zm-44.6 .1c.7 -.1 1.4 -.2 1.9 -.8c.4 -.5 .8 -1.1 .8 -1.9c0 -.8 -.3 -1.4 -.8 -2c-.6 -.6 -1.2 -.8 -2 -.8c-.9 0 -1.4 .3 -1.9 .8c-.6 .5 -.7 1.2 -.7 2c-.1 .7 .2 1.4 .7 1.9c.5 .5 1.2 .8 2 .8Zm164 -2.9v-4.3l-3.6 4.3Zm13.4 0v-4.3l-3.6 4.3Zm-206.7 5.3V737.4h9.3v10.3h-2.9V740H187v7.7Zm12.2 0c-.6 0 -1.1 0 -1.5 0l.1 -2.6c.3 0 .5 .1 .7 .1c.3 -.1 .6 -.1 .8 -.2c.1 -.3 .3 -.5 .5 -1c.2 -.6 .3 -1.3 .3 -2.4c0 -1.1 0 -2.4 0 -4.2h8.3v10.3h-2.9V740h-2.5c-.1 1.2 -.1 2.4 -.2 3.3c-.1 .9 -.2 1.7 -.4 2.3c-.3 .5 -.5 1 -.8 1.3c-.4 .3 -.7 .5 -1 .7c-.5 0 -.9 .1 -1.4 .1Zm39 2.5v-2.5h-14V737.4h2.9v7.8h3.4v-7.8h2.9v7.8h3.4v-7.8h2.9v7.8h1.1v5Zm14.8 0v-5h1.2c.6 -1.5 1 -3.7 1 -6.9v-.9h8.6v7.8h1v5h-2.6v-2.5h-6.4l-.2 2.5Zm13.7 -2.5V737.4h2.9v3.3h2.2c1.2 0 2.2 .3 3 .9c.7 .5 1.1 1.5 1.1 2.6c0 1 -.3 2 -1 2.6c-.8 .6 -1.7 .9 -3 .9ZM283 751c-.9 0 -1.8 -.2 -2.6 -.7l1 -2.2c.4 .2 .9 .4 1.3 .4c.4 0 .8 -.2 1 -.7l-4.1 -10.4h3.1l2.4 7.1l2.3 -7.1h3l-4 10.7c-.4 1.1 -.8 1.9 -1.3 2.3c-.6 .4 -1.2 .6 -2.1 .6Zm15.3 -3.3V744c-1 .4 -1.9 .7 -2.8 .7c-1.2 0 -2 -.3 -2.6 -.8c-.7 -.7 -1 -1.4 -1 -2.5v-4h2.9v3.1c-.1 1.1 .5 1.7 1.4 1.7c.7 -.1 1.4 -.2 2.1 -.5v-4.3h2.9v10.3Zm30.3 0V740h-3.1v-2.6h9.4V740h-3.4v7.7Zm7.7 0V737.4h2.9v4.2l3.7 -4.2h3.4l-3.8 4.2l4.3 6.1h-3.5l-2.8 -3.9l-1.3 1.4v2.5Zm23.1 -7.3v-3.1h3.1v3.1Zm-39.2 7.5c-1.6 -.1 -2.8 -.5 -3.9 -1.6c-1.1 -1.1 -1.5 -2.2 -1.5 -3.7c0 -1.6 .5 -2.8 1.5 -3.8c1 -1.1 2.4 -1.6 3.9 -1.6c.1 0 .2 0 .2 0c1.6 0 2.9 .7 4 1.9l-1.8 1.7c-.7 -.7 -1.5 -1 -2.4 -1c-.8 0 -1.3 .3 -1.8 .8c-.6 .5 -.7 1.2 -.7 2c-.1 .7 .2 1.4 .7 1.9c.4 .5 1.1 .8 1.9 .8c.8 -.1 1.6 -.3 2.4 -1l1.7 1.7c-.5 .5 -1.1 1.1 -1.8 1.4c-.7 .3 -1.4 .5 -2.4 .5Zm-106.9 0c-1.7 -.1 -2.9 -.5 -4 -1.5c-1.1 -1.2 -1.6 -2.3 -1.6 -3.8c0 -1.6 .6 -2.8 1.7 -3.8c.9 -1.1 2.4 -1.6 4 -1.6c0 0 .1 0 .2 0c1.4 0 2.8 .6 3.8 1.6c.9 1 1.6 2.3 1.6 3.8c-.1 1.4 -.6 2.7 -1.6 3.7c-1.2 1 -2.5 1.6 -4.1 1.6Zm29.4 0c-1.1 -.1 -1.9 -.3 -2.5 -.9c-.7 -.6 -1.1 -1.3 -1.1 -2.3c0 -1.2 .4 -1.9 1.2 -2.5c.7 -.6 1.7 -.8 3 -.8c.8 0 1.7 .1 2.5 .4v-.2c0 -1.3 -.7 -1.8 -2.2 -1.8c0 0 -.1 0 -.1 0c-.9 0 -1.7 .2 -2.7 .5l-.7 -2.2c1.1 -.6 2.6 -.9 4 -.9q.1 0 .2 0c1.4 0 2.6 .5 3.3 1.2c.7 .6 1.1 1.9 1.1 3.3v6h-2.9v-1.1c-.8 .8 -1.8 1.3 -3.1 1.3Zm64.1 0c-1 -.1 -1.8 -.3 -2.5 -.9c-.7 -.6 -1 -1.3 -1 -2.3c0 -1.2 .4 -1.9 1.1 -2.5c.7 -.6 1.8 -.8 3 -.8c.9 0 1.7 .1 2.6 .4v-.2c0 -1.3 -.8 -1.8 -2.2 -1.8q-.1 0 -.1 0c-.9 0 -1.8 .2 -2.7 .5l-.8 -2.2c1.2 -.6 2.6 -.9 4 -.9c.1 0 .2 0 .3 0c1.3 0 2.5 .5 3.2 1.2c.8 .6 1.2 1.9 1.2 3.3v6H310v-1.1c-.8 .8 -1.9 1.3 -3.2 1.3Zm44 0c-1.1 -.1 -1.8 -.3 -2.5 -.9c-.7 -.6 -1 -1.3 -1 -2.3c0 -1.2 .4 -1.9 1.1 -2.5c.7 -.6 1.8 -.8 3 -.8c.8 0 1.7 .1 2.5 .4v-.2c0 -1.3 -.7 -1.8 -2.1 -1.8q-.1 0 -.2 0c-.8 0 -1.7 .2 -2.7 .5l-.7 -2.2c1.2 -.6 2.6 -.9 4 -.9c.1 0 .2 0 .3 0c1.3 0 2.5 .5 3.2 1.2c.7 .6 1.1 1.9 1.1 3.3v6h-2.9v-1.1c-.7 .8 -1.8 1.3 -3.1 1.3Zm82.5 0c-1.1 -.1 -1.9 -.3 -2.5 -.9c-.7 -.6 -1 -1.3 -1 -2.3c0 -1.2 .3 -1.9 1.1 -2.5c.7 -.6 1.7 -.8 3 -.8c.8 0 1.7 .1 2.5 .4v-.2c0 -1.3 -.7 -1.8 -2.2 -1.8h-.1c-.9 0 -1.7 .2 -2.7 .5l-.7 -2.2c1.1 -.6 2.6 -.9 4 -.9c.1 0 .2 0 .2 0c1.4 0 2.6 .5 3.3 1.2c.7 .6 1.1 1.9 1.1 3.3v6h-2.9v-1.1c-.8 .8 -1.8 1.3 -3.1 1.3Zm-25.4 .1c-2.1 -.1 -3.7 -.7 -5.1 -2.1l1.8 -2.1c1 .9 2.2 1.4 3.2 1.4c.7 0 1.3 -.1 1.7 -.5c.3 -.3 .6 -.8 .6 -1.4c0 -.6 -.2 -1 -.7 -1.3c-.4 -.4 -1 -.5 -1.7 -.5c0 0 -.1 0 -.1 0c-.7 0 -1.4 .2 -2.2 .5l-1.7 -1.2l.4 -6.6h8.3v2.6h-5.7l-.2 2.3c.6 -.2 1.2 -.2 1.8 -.2q.1 0 .2 0c1.3 0 2.4 .4 3.2 1.1c.9 .6 1.3 1.8 1.3 3.3c0 1.3 -.4 2.5 -1.4 3.4c-.9 .7 -2.2 1.3 -3.7 1.3Zm13.8 -.3V734.1h9.5v2.5h-6.6v11.1Zm-44.3 0v-2.9h-6.6l-.5 -2.1l7.4 -8.6h2.5v8.3h1.9v2.4h-1.9v2.9Zm13.4 0v-2.9h-6.7l-.5 -2.1l7.5 -8.6h2.5v8.3h1.8v2.4h-1.8v2.9Z"/></clipPath>
</defs>
<image clip-path="url(#c0_30)" preserveAspectRatio="none" x="150" y="0" width="1167" height="825" xlink:href="img/1.jpg"/>
<image clip-path="url(#c1_30)" preserveAspectRatio="none" x="150" y="0" width="1167" height="825" xlink:href="img/2.jpg"/>
<image clip-path="url(#c2_30)" preserveAspectRatio="none" x="150" y="0" width="1167" height="825" xlink:href="img/3.jpg"/>
<image clip-path="url(#c3_30)" preserveAspectRatio="none" x="150" y="0" width="1167" height="825" xlink:href="img/4.jpg"/>
<image clip-path="url(#c4_30)" preserveAspectRatio="none" x="150" y="0" width="1167" height="825" xlink:href="img/5.jpg"/>
<image clip-path="url(#c5_30)" preserveAspectRatio="none" x="150" y="0" width="1167" height="825" xlink:href="img/6.jpg"/>
</svg>