<?xml version="1.0" encoding="UTF-8" standalone="no"?>
<!DOCTYPE svg PUBLIC "-//W3C//DTD SVG 1.1//EN"
"http://www.w3.org/Graphics/SVG/1.1/DTD/svg11.dtd">
<svg viewBox="0 0 1466 825" version="1.1" xmlns="http://www.w3.org/2000/svg" xmlns:xlink="http://www.w3.org/1999/xlink">
<defs>
<clipPath id="c0_20"><path d="M149.9 825V0h1167V825Z"/></clipPath>
<clipPath id="c1_20"><path d="M149.9 741.8V83.2h1167V741.8Z"/></clipPath>
<clipPath id="c2_20"><path d="M932.5 199.4c2.7 0 4.1 -1 4.1 -3.1c0 -2 -1.4 -2.9 -4.3 -2.9h-6.9v6Zm-225.2 -.1c2.9 -.1 4.5 -1.3 4.5 -3.9c0 -2.4 -1.5 -3.6 -4.5 -3.6h-5.2v7.5Zm111 -5.9l-3.6 -8.8l-3.6 8.8Zm85.4 0l-3.6 -8.8l-3.6 8.8Zm-457.1 -2c1.4 0 2.6 -.4 3.5 -1.2c.7 -.8 1.3 -1.8 1.3 -3c-.1 -1.4 -.5 -2.4 -1.3 -3.1c-1 -.7 -2.1 -1.1 -3.6 -1.1h-4.7v8.4Zm428.4 0c1.4 0 2.6 -.4 3.5 -1.2c.7 -.8 1.3 -1.8 1.3 -3c-.1 -1.4 -.5 -2.4 -1.3 -3.1c-1 -.7 -2.1 -1.1 -3.7 -1.1h-4.6v8.4Zm206.4 -.7V183h-5.9c-1.5 0 -2.6 .4 -3.4 1c-1 .7 -1.3 1.7 -1.3 2.9c0 1.1 .4 2.1 1.2 2.8c.8 .7 2 1 3.4 1ZM930.9 188.4c2.9 0 4.3 -1 4.3 -2.9c-.1 -1 -.3 -1.6 -1 -2.1c-.7 -.5 -1.6 -.7 -2.9 -.7h-5.9v5.7ZM379.1 204.8V177.7h22.6v27.1h-6V183H385v21.8Zm455.1 0V177.7h22.6v27.1h-5.9V183H840.2v21.8Zm229.8 -.1l6.6 -9.7c-3.9 -1.5 -5.8 -4.3 -5.8 -8.4c0 -2.9 .9 -5 2.7 -6.6c1.8 -1.7 4.3 -2.3 7.5 -2.3h12.4v27h-6V196h-4.7l-5.8 8.7Zm-628.2 .1V177.7H447c.1 0 .2 -.1 .4 -.1c3 0 5.4 1 7.2 2.7c1.8 1.6 2.8 4 2.8 6.8c-.1 3 -1 5.4 -3.1 7.1c-2.2 1.6 -4.7 2.5 -7.9 2.5h-4.6v8.1Zm428.4 0V177.7h11.2c.1 0 .2 -.1 .4 -.1c2.9 0 5.4 1 7.2 2.7c1.8 1.6 2.8 4 2.8 6.8c-.1 3 -1 5.4 -3.1 7.1c-2.2 1.6 -4.8 2.5 -8 2.5h-4.5v8.1Zm-359.3 -.1V194.6c-2.8 1.2 -5.1 2 -7.2 2c-2.8 -.1 -5 -.8 -6.6 -2.3c-1.7 -1.6 -2.5 -3.8 -2.5 -6.8v-10h6v8.2c-.1 3.5 1.5 5.3 4.4 5.3c2.4 0 4.4 -.6 5.9 -1.7V177.5h6v27.2Zm13.4 0V177.5h5.9v17.8l11.9 -17.8h5.5v27.2h-5.9V186.9l-11.8 17.8Zm117.2 0V177.5h6v10.7h11V177.5h6v27.2h-6v-11h-11v11Zm30.3 0V177.5h6v10.7h11V177.5h6v27.2h-6v-11h-11v11Zm30.3 0V177.5h6v9.2h5.7c3.1 0 5.5 .8 7.3 2.4c1.7 1.6 2.6 3.7 2.6 6.4c-.1 2.8 -.9 5 -2.8 6.7c-1.9 1.6 -4.3 2.5 -7.5 2.5Zm24.6 0V177.5h6v27.2Zm51.8 0V177.5h6v10.7h11V177.5h6v27.2h-6v-11h-11v11Zm232.6 0V177.5h6v10.7h11V177.5h6v27.2h-6v-11h-11v11Zm30.3 0V177.5h5.9v17.8l11.8 -17.8h5.6v27.2h-5.9V186.9L1041 204.7Zm-115.8 0V177.5h12.6q.1 0 .2 0c3 0 5.4 .8 6.9 2.4c1.2 1.1 1.9 2.8 1.9 4.6c-.1 2.5 -1.2 4.5 -3.7 5.9c1.6 .6 2.9 1.5 3.8 2.5c.8 1 1.3 2.5 1.3 4.3c-.1 2.4 -.9 4.3 -2.7 5.5c-1.9 1.3 -4.3 2 -7.4 2Zm-510.6 0V177.4h20.5v5.3H415v5.7h12.8v5.3H415v5.6h14.6v5.4Zm53.5 0V177.4H483v5.3H468.4v5.7h12.9v5.3H468.4v5.6h14.7v5.4Zm146.3 0V177.4h20.4v5.3H614.7v5.7h12.9v5.3H614.7v5.6h14.7v5.4Zm125.3 0V177.4h20.4v5.3H740v5.7h12.9v5.3H740v5.6h14.7v5.4Zm244.2 0V177.4h20.5v5.3H984.3v5.7h12.8v5.3H984.3v5.6H999v5.4ZM578.9 205c-1.3 0 -2.3 -.1 -3.2 -.4l.4 -4.9c.4 0 .7 .1 1 .1c.7 -.1 1.6 -.2 2.1 -.6c.5 -.4 1.1 -1.1 1.6 -2.2c.3 -1.3 .8 -2.9 1 -5.2c.2 -2.3 .3 -5.2 .3 -8.8v-5.6h19.3v27.2h-6V182.8h-7.7v2c-.1 5.3 -.3 9.5 -1 12.4c-.7 2.9 -1.5 5 -2.7 6.1c-1.3 1 -2.9 1.7 -5.1 1.7Zm221.5 -.2L812 177.4h5.5l11.7 27.4h-6.3l-2.5 -6.1H809l-2.5 6.1Zm85.4 0l11.6 -27.4h5.5l11.7 27.4h-6.3l-2.5 -6.1H894.4l-2.5 6.1Zm62.7 .2c-1.3 0 -2.3 -.1 -3.2 -.4l.4 -4.9c.4 0 .7 .1 .9 .1c.8 -.1 1.6 -.2 2.2 -.6c.5 -.4 1.1 -1.1 1.5 -2.2c.4 -1.3 .9 -2.9 1.1 -5.2c.2 -2.3 .3 -5.2 .3 -8.8v-5.6H971v27.2h-6V182.8h-7.7v2c-.1 5.3 -.3 9.5 -1 12.4c-.7 2.9 -1.5 5 -2.7 6.1c-1.3 1 -3 1.7 -5.1 1.7Zm-386.9 0c-4.1 0 -7.3 -1.4 -9.9 -4.1c-2.8 -2.8 -4 -6 -4 -10c0 -4 1.3 -7.2 4 -9.9c2.7 -2.9 6 -4.1 10.1 -4.1c.2 0 .3 0 .4 0c2.2 0 4.1 .4 5.6 1.1c1.5 .7 3.1 1.9 4.6 3.3l-3.6 4.1c-1.2 -1.1 -2.3 -1.8 -3.3 -2.3c-1.1 -.5 -2.2 -.7 -3.7 -.7c-2.3 0 -4.1 .8 -5.6 2.4c-1.6 1.6 -2.3 3.7 -2.3 6.1c0 2.3 .8 4.4 2.3 6.1c1.4 1.5 3.3 2.5 5.6 2.5c1.4 -.1 2.7 -.3 3.8 -.8c.9 -.5 2.2 -1.3 3.3 -2.4l3.8 4.1c-1.5 1.5 -3 2.7 -4.7 3.5c-1.9 .6 -3.9 1.1 -6.4 1.1Zm516.1 -49.9c2.8 -.1 4.2 -1.1 4.2 -3.1c0 -2 -1.4 -3 -4.4 -3h-6.8v6.1ZM806 154.9c2.6 -.1 4.1 -1.1 4.1 -3.4c0 -2.2 -1.4 -3.2 -4.2 -3.2h-6.5v6.6Zm31.4 0c2.9 -.1 4.5 -1.3 4.5 -3.8c-.1 -2.5 -1.5 -3.6 -4.5 -3.6h-5.3v7.4Zm-325 3.8l-6.5 -8.6v-.3l6.5 -8.7l4.5 2.1l-5.1 6.7l5.1 6.6l-4.5 2.2Zm10.5 0l-6.5 -8.6v-.3l6.5 -8.7l4.5 2.1l-5 6.7l5 6.6l-4.5 2.2Zm202.7 0l-4.5 -2.1l5.1 -6.7l-5.1 -6.6l4.5 -2.2l6.6 8.7v.3l-6.6 8.6Zm10.6 0l-4.5 -2.1l5 -6.7l-5 -6.6l4.5 -2.2l6.5 8.7v.3l-6.5 8.6ZM676.4 149l-3.6 -8.8l-3.6 8.8ZM364.8 147c1.5 0 2.7 -.4 3.6 -1.2c.7 -.8 1.2 -1.7 1.2 -3c-.1 -1.4 -.4 -2.3 -1.3 -3c-.9 -.8 -2 -1.1 -3.6 -1.1H360V147Zm282.9 0c1.4 0 2.6 -.4 3.5 -1.2c.7 -.8 1.3 -1.7 1.3 -3c-.1 -1.4 -.5 -2.3 -1.3 -3c-1 -.8 -2.1 -1.1 -3.6 -1.1h-4.7V147ZM987 146.4v-7.7h-5.9c-1.5 0 -2.6 .3 -3.4 1c-1 .6 -1.3 1.6 -1.3 2.9c0 1.1 .4 2.1 1.2 2.7c.8 .7 2 1.1 3.4 1.1Zm-278.4 8.5V138.4h-7.9v2.8c0 5.1 -.8 9.7 -2.4 13.7Zm187.8 0V138.4h-7.9v2.8c-.1 5.1 -.8 9.7 -2.5 13.7ZM1076.2 144c2.9 0 4.3 -.9 4.3 -2.9c-.1 -.9 -.3 -1.6 -1 -2c-.8 -.5 -1.6 -.7 -2.9 -.7h-5.9V144ZM393.9 155.1c2.3 0 4.3 -.8 5.9 -2.4c1.5 -1.7 2.3 -3.7 2.3 -6.1c-.2 -2.5 -.8 -4.4 -2.4 -6.1c-1.6 -1.7 -3.5 -2.5 -5.9 -2.5c-2.4 0 -4.3 .8 -5.8 2.5c-1.6 1.6 -2.3 3.7 -2.3 6.1c-.1 2.3 .8 4.4 2.3 6c1.5 1.6 3.5 2.5 5.9 2.5Zm152.3 0c2.3 0 4.3 -.8 5.8 -2.4c1.5 -1.7 2.3 -3.7 2.3 -6.1c-.1 -2.5 -.8 -4.4 -2.3 -6.1c-1.7 -1.7 -3.5 -2.5 -5.9 -2.5c-2.4 0 -4.3 .8 -5.9 2.5c-1.6 1.6 -2.3 3.7 -2.3 6.1c0 2.3 .8 4.4 2.4 6c1.4 1.6 3.5 2.5 5.9 2.5Zm226.6 0c2.3 0 4.3 -.8 5.9 -2.4c1.5 -1.7 2.3 -3.7 2.3 -6.1c-.2 -2.5 -.8 -4.4 -2.4 -6.1C777 138.8 775.1 138 772.7 138c-2.4 0 -4.3 .8 -5.8 2.5c-1.6 1.6 -2.3 3.7 -2.3 6.1c-.1 2.3 .8 4.4 2.3 6c1.5 1.6 3.5 2.5 5.9 2.5Zm-448.7 5.4V133.3h22.6v27.2h-6V138.7H330.1v21.8Zm288.8 0V133.3h19v5.4h-13v21.8Zm356.7 -.2l6.6 -9.6c-3.9 -1.6 -5.8 -4.3 -5.8 -8.5c0 -2.8 .9 -4.9 2.7 -6.5c1.8 -1.7 4.3 -2.4 7.5 -2.4H993v27h-6v-8.6h-4.7l-5.8 8.6Zm-615.5 .2V133.3h11.1c.2 0 .3 0 .4 0c3 0 5.5 .9 7.3 2.6c1.8 1.7 2.8 4 2.8 6.9c-.1 3 -1.1 5.4 -3.1 7c-2.2 1.6 -4.8 2.5 -8 2.5H360v8.2Zm282.8 0V133.3h11.2c.1 0 .2 0 .4 0c2.9 0 5.4 .9 7.2 2.6c1.8 1.7 2.8 4 2.8 6.9c-.1 3 -1 5.4 -3.1 7c-2.2 1.6 -4.7 2.5 -7.9 2.5h-4.6v8.2Zm-160.2 -.2V138.7h-8.3v-5.5h22.5v5.5h-8.2v21.6Zm556.9 0V138.7h-8.3v-5.5h22.5v5.5h-8.2v21.6Zm-592.3 0V133.2h6V145l11 -11.8h7.2l-11 11.5L466 160.3h-7.2l-8.4 -11.6l-3.1 3.3v8.3Zm125.5 0V133.2h6.4l7.2 11.4l7.2 -11.4H594v27.1h-5.9V142.6l-7.7 11.6h-.1l-7.6 -11.5v17.6Zm343.9 0V133.2h5.9V151l11.9 -17.8H934v27.1h-5.9V142.5l-11.7 17.8Zm30.7 0V133.2h6v10.6h11V133.2h6v27.1h-6v-11h-11v11Zm123.5 0V133.1h12.6q.1 0 .2 0c2.9 0 5.3 .9 6.9 2.4c1.2 1.2 1.9 2.8 1.9 4.7c-.1 2.5 -1.3 4.5 -3.7 5.8c1.6 .7 2.9 1.5 3.8 2.6c.8 .9 1.2 2.4 1.2 4.2c-.1 2.4 -.9 4.3 -2.7 5.6c-1.8 1.2 -4.2 1.9 -7.4 1.9Zm-650.4 0V133H435v5.4H420.5V144h12.8v5.3H420.5V155h14.7v5.3Zm438.8 0V133h20.4v5.4H859.2V144h12.9v5.3H859.2V155h14.7v5.3Zm147.2 0V133H1021v5.4h-14.5V144h12.8v5.3h-12.8V155h14.7v5.3Zm122.6 0V133h20.5v5.4h-14.5V144h12.8v5.3h-12.8V155h14.6v5.3Zm-464.6 .2L670.1 133h5.5l11.7 27.5H681l-2.5 -6.2H667.1l-2.5 6.2Zm31 5.5V154.9H692c1.1 -2.5 1.8 -5.1 2.3 -7.8c.4 -2.8 .7 -6.4 .7 -10.9V133h19.6v21.9h3.3l-.8 11.1h-5v-5.7H695.2l-.4 5.7Zm103.9 -5.7V133h20.8v5.4H799.4v4.9h7.2c2.9 0 5.3 .8 7 2.3c1.6 1.4 2.5 3.6 2.5 6.1c-.2 2.7 -.9 4.9 -2.7 6.4c-1.9 1.4 -4.3 2.2 -7.4 2.2Zm32.8 0V138.4h-6.5V133h12.4v9.3h5.8c3.1 0 5.5 .8 7.3 2.4c1.7 1.6 2.6 3.8 2.6 6.5c-.1 2.7 -.9 5 -2.8 6.6c-1.9 1.6 -4.3 2.5 -7.5 2.5Zm51 5.7V154.9h2.6c1 -2.5 1.8 -5.1 2.2 -7.8c.4 -2.8 .7 -6.4 .7 -10.9V133h19.7v21.9h3.2l-.8 11.1h-5v-5.7H883l-.4 5.7ZM393.8 160.6c-4.1 0 -7.5 -1.3 -10.3 -4c-2.7 -2.8 -4.1 -6.1 -4.1 -10c0 -4 1.4 -7.3 4.2 -10c2.7 -2.8 6.2 -4.1 10.3 -4.1c.1 0 .2 0 .2 0c4 0 7.4 1.4 10.1 4.1c2.7 2.6 4.1 6 4.1 10c-.1 3.8 -1.4 7.2 -4.1 9.9c-2.8 2.7 -6.2 4.1 -10.4 4.1Zm152.3 0c-4.2 0 -7.6 -1.3 -10.3 -4c-2.8 -2.8 -4.1 -6.1 -4.1 -10c0 -4 1.4 -7.3 4.1 -10c2.7 -2.8 6.2 -4.1 10.4 -4.1c0 0 .1 0 .2 0c4 0 7.4 1.4 10.1 4.1c2.7 2.6 4.1 6 4.1 10c-.1 3.8 -1.4 7.2 -4.2 9.9c-2.8 2.7 -6.2 4.1 -10.3 4.1Zm226.6 0c-4.1 0 -7.5 -1.3 -10.3 -4c-2.7 -2.8 -4.1 -6.1 -4.1 -10c0 -4 1.4 -7.3 4.2 -10c2.7 -2.8 6.2 -4.1 10.3 -4.1c.1 0 .2 0 .2 0c4 0 7.4 1.4 10.1 4.1c2.7 2.6 4.1 6 4.1 10c-.1 3.8 -1.4 7.2 -4.1 9.9c-2.8 2.7 -6.2 4.1 -10.4 4.1Zm333.6 0c-4.1 0 -7.3 -1.3 -10 -4c-2.7 -2.8 -3.9 -6.1 -3.9 -10c0 -4 1.3 -7.3 4 -10c2.6 -2.8 6 -4.1 10.1 -4.1c.1 0 .3 0 .4 0c2.1 0 4 .4 5.5 1.2c1.6 .6 3.2 1.8 4.6 3.2l-3.5 4.2c-1.2 -1.1 -2.3 -1.9 -3.3 -2.4c-1.1 -.5 -2.3 -.7 -3.7 -.7c-2.3 0 -4.2 .8 -5.7 2.5c-1.5 1.6 -2.2 3.7 -2.2 6.1c-.1 2.3 .8 4.4 2.2 6c1.5 1.6 3.4 2.5 5.7 2.5c1.4 0 2.7 -.2 3.7 -.8c1 -.5 2.2 -1.3 3.4 -2.4l3.8 4.1c-1.5 1.6 -3.1 2.8 -4.8 3.5c-1.8 .7 -3.8 1.1 -6.3 1.1Z"/></clipPath>
<clipPath id="c3_20"><path d="M846.7 338.6V297c0 -18.4 14.9 -33.3 33.2 -33.3h319.2c18.4 0 33.3 14.9 33.3 33.3v8.4c0 18.3 -14.9 33.2 -33.3 33.2Z"/></clipPath>
<clipPath id="c4_20"><path d="M973.2 306c1.6 0 2.5 -.6 2.5 -1.8c-.1 -1.2 -.9 -1.7 -2.6 -1.7h-4V306Zm81.4 -.1c1.5 -.1 2.4 -.7 2.4 -1.9c-.1 -1.4 -.8 -1.8 -2.4 -1.8h-3.8v3.7Zm-66 0c1.7 -.1 2.6 -.7 2.6 -2.2c0 -1.4 -.9 -2.1 -2.6 -2.1h-3v4.3Zm97.5 -3.3l-2.1 -5l-2 5ZM903.7 306v-9.3h-4.6v1.5c0 2.9 -.5 5.5 -1.4 7.8Zm15.8 .2c1.3 -.1 2.5 -.5 3.4 -1.4c.9 -1 1.3 -2.1 1.3 -3.5c-.1 -1.3 -.4 -2.5 -1.3 -3.4c-1 -1 -2 -1.4 -3.4 -1.4q-.1 0 -.2 0c-1.3 0 -2.3 .5 -3.2 1.4c-.9 .8 -1.3 2 -1.3 3.4c-.1 1.4 .5 2.5 1.4 3.4c.8 .9 2 1.5 3.3 1.5Zm34.6 0c1.3 -.1 2.5 -.5 3.4 -1.4c.8 -1 1.3 -2.1 1.3 -3.5c-.1 -1.3 -.5 -2.5 -1.4 -3.4c-1 -1 -2 -1.4 -3.4 -1.4c0 0 -.1 0 -.1 0c-1.4 0 -2.4 .5 -3.2 1.4c-1 .8 -1.3 2 -1.3 3.4c-.1 1.4 .4 2.5 1.3 3.4c.8 .9 2 1.5 3.4 1.5Zm81.6 0c1.3 -.1 2.5 -.5 3.4 -1.4c.9 -1 1.3 -2.1 1.3 -3.5c-.1 -1.3 -.4 -2.5 -1.3 -3.4c-1 -1 -2 -1.4 -3.4 -1.4q-.1 0 -.2 0c-1.4 0 -2.3 .5 -3.2 1.4c-.9 .8 -1.3 2 -1.3 3.4c-.1 1.4 .4 2.5 1.3 3.4c.9 .9 2.1 1.5 3.4 1.5Zm-98.4 -4.9c.8 -.1 1.6 -.3 2 -.7c.5 -.6 .8 -1.1 .8 -1.8c-.1 -.8 -.3 -1.3 -.8 -1.8c-.5 -.4 -1.2 -.6 -2 -.6h-2.7v4.9Zm132.5 0c.8 -.1 1.5 -.3 1.9 -.7c.5 -.6 .8 -1.1 .8 -1.8c-.1 -.8 -.3 -1.3 -.8 -1.8c-.5 -.4 -1.1 -.6 -2 -.6H1067v4.9Zm-97.6 -1.6c1.6 0 2.5 -.6 2.5 -1.8c-.1 -.6 -.2 -.9 -.6 -1.2c-.4 -.3 -.9 -.4 -1.7 -.4h-3.3v3.4Zm-79.5 12.6V306h1.4c.6 -1.4 1 -2.9 1.3 -4.5c.1 -1.6 .4 -3.6 .4 -6.1v-1.8h11.3V306H909l-.5 6.3h-2.8v-3.2h-9.8v3.2Zm183.2 -3.2l6.6 -15.6h3.2l6.6 15.6h-3.6l-1.4 -3.5h-6.5l-1.5 3.5ZM982.2 309V293.5h3.4v5.2h3.3q.1 0 .1 0c1.7 0 3.1 .5 4.1 1.4c.9 .9 1.5 2.1 1.5 3.6c0 1.6 -.6 2.9 -1.6 3.9c-1.1 .8 -2.5 1.4 -4.3 1.4Zm14.2 0V293.5h3.4V309Zm7.5 0V293.5h3.4v10.1l6.8 -10.1h3.2V309h-3.4V298.8l-6.8 10.2Zm110.7 0l6.1 -8.8l-5.9 -6.7h4.1l6.2 7.2v-7.2h3.4v7.2l6.2 -7.2h4.1l-6 6.7l6.2 8.8h-4.1l-4.4 -6.4l-2 2.2V309h-3.4v-4.2l-2.1 -2.2l-4.3 6.4Zm27.1 0V293.5h3.4v10.1l6.8 -10.1h3.1V309h-3.3V298.8l-6.8 10.2Zm32.5 0V293.5h3.4v6.2h6.2v-6.2h3.4V309h-3.4v-6.2h-6.2V309Zm17.3 0V293.5h3.3v10.1l6.8 -10.1h3.2V309h-3.3V298.8l-6.8 10.2Zm-225.7 0V293.3H973c1.7 0 3.1 .5 4 1.4c.6 .7 1.1 1.6 1.1 2.7c-.2 1.5 -.7 2.6 -2 3.4c1 .3 1.7 .8 2.2 1.4c.4 .6 .8 1.5 .8 2.5c-.2 1.4 -.6 2.4 -1.6 3.2c-1.1 .6 -2.5 1.1 -4.3 1.1Zm-46.3 .3c-2.5 0 -4.3 -.8 -5.9 -2.3c-1.6 -1.6 -2.3 -3.5 -2.3 -5.7c0 -2.2 .7 -4.1 2.3 -5.6c1.6 -1.6 3.6 -2.4 5.9 -2.4c2.3 0 4.4 .8 5.9 2.3c1.5 1.5 2.4 3.5 2.4 5.7c-.1 2.2 -.8 4.1 -2.4 5.7c-1.6 1.5 -3.5 2.3 -5.9 2.3Zm11.7 -.3V293.3h6.4c1.8 0 3.2 .5 4.3 1.5c1.1 1 1.6 2.3 1.6 4c-.1 1.7 -.6 3.1 -1.8 4.1c-1.2 .9 -2.6 1.4 -4.5 1.4h-2.6V309Zm22.8 .3c-2.4 0 -4.3 -.8 -5.9 -2.3c-1.5 -1.6 -2.3 -3.5 -2.3 -5.7c0 -2.2 .8 -4.1 2.4 -5.6c1.5 -1.6 3.5 -2.4 5.9 -2.4c2.3 0 4.3 .8 5.9 2.3c1.5 1.5 2.3 3.5 2.3 5.7c0 2.2 -.8 4.1 -2.3 5.7c-1.7 1.5 -3.6 2.3 -6 2.3Zm81.7 0c-2.5 0 -4.4 -.8 -5.9 -2.3c-1.6 -1.6 -2.4 -3.5 -2.4 -5.7c0 -2.2 .8 -4.1 2.4 -5.6c1.6 -1.6 3.6 -2.4 5.9 -2.4c2.3 0 4.4 .8 5.9 2.3c1.5 1.5 2.4 3.5 2.4 5.7c-.1 2.2 -.8 4.1 -2.4 5.7c-1.6 1.5 -3.5 2.3 -5.9 2.3Zm11.7 -.3V293.3h11.9v3.1h-8.5v2.9h4.1c1.7 0 3.1 .4 4 1.3c.9 .8 1.5 2 1.5 3.5c-.1 1.5 -.5 2.7 -1.6 3.6c-1 .8 -2.4 1.3 -4.2 1.3Zm16.2 0V293.3h6.4c1.8 0 3.3 .5 4.3 1.5c1.1 1 1.6 2.3 1.6 4c-.1 1.7 -.6 3.1 -1.7 4.1c-1.3 .9 -2.7 1.4 -4.6 1.4H1067V309ZM885 309.3c-1.7 0 -2.9 -.2 -4 -.6c-1.1 -.5 -2 -1.1 -2.9 -2l1.8 -2.4c1.3 1.3 3 2 4.9 2c.8 0 1.4 -.2 1.9 -.5c.4 -.4 .7 -.8 .7 -1.3c0 -.7 -.2 -1.1 -.8 -1.4c-.6 -.3 -1.3 -.5 -2.2 -.5h-1.8v-2.8h1.8c1.7 0 2.7 -.6 2.7 -1.8c0 -.5 -.2 -.9 -.7 -1.2c-.5 -.4 -1 -.5 -1.8 -.5c-1.7 0 -3 .6 -4.1 1.7l-1.8 -2.1c1.5 -1.8 3.7 -2.6 6.2 -2.6c.1 0 .3 0 .4 0c1.4 0 2.7 .5 3.6 1.2c1 .7 1.6 1.7 1.6 3c0 1.6 -.9 2.8 -2.5 3.5c1.8 .6 2.9 1.8 2.9 3.7c-.1 1.3 -.6 2.4 -1.6 3.3c-1.2 .9 -2.5 1.3 -4.3 1.3Zm215.4 0c-1.7 0 -2.9 -.2 -4 -.6c-1.1 -.5 -2 -1.1 -2.9 -2l1.8 -2.4c1.3 1.3 3 2 4.9 2c.8 0 1.4 -.2 1.9 -.5c.4 -.4 .7 -.8 .7 -1.3c0 -.7 -.2 -1.1 -.8 -1.4c-.6 -.3 -1.3 -.5 -2.2 -.5H1098v-2.8h1.7c1.8 0 2.8 -.6 2.8 -1.8c0 -.5 -.2 -.9 -.7 -1.2c-.6 -.4 -1 -.5 -1.8 -.5c-1.7 0 -3.1 .6 -4.2 1.7l-1.8 -2.1c1.6 -1.8 3.7 -2.6 6.3 -2.6c.1 0 .3 0 .4 0c1.4 0 2.7 .5 3.6 1.2c1 .7 1.6 1.7 1.6 3c-.1 1.6 -.9 2.8 -2.6 3.5c1.9 .6 2.9 1.8 2.9 3.7c0 1.3 -.5 2.4 -1.6 3.3c-1.1 .9 -2.4 1.3 -4.2 1.3Zm64.4 0c-1.7 0 -2.9 -.2 -4 -.6c-1.1 -.5 -2 -1.1 -2.9 -2l1.8 -2.4c1.3 1.3 3 2 4.9 2c.7 0 1.4 -.2 1.9 -.5c.4 -.4 .7 -.8 .7 -1.3c0 -.7 -.3 -1.1 -.8 -1.4c-.6 -.3 -1.3 -.5 -2.2 -.5h-1.8v-2.8h1.7c1.8 0 2.8 -.6 2.8 -1.8c0 -.5 -.2 -.9 -.7 -1.2c-.6 -.4 -1.1 -.5 -1.8 -.5c-1.7 0 -3.1 .6 -4.2 1.7l-1.8 -2.1c1.6 -1.8 3.7 -2.6 6.3 -2.6c.1 0 .2 0 .4 0c1.4 0 2.6 .5 3.6 1.2c1 .7 1.5 1.7 1.5 3c0 1.6 -.8 2.8 -2.5 3.5c1.9 .6 2.9 1.8 2.9 3.7c0 1.3 -.5 2.4 -1.6 3.3c-1.1 .9 -2.5 1.3 -4.2 1.3ZM1010.6 292.2c-1 0 -1.8 -.2 -2.5 -.8c-.7 -.6 -1 -1.5 -1.2 -2.5l2 -.4c.2 .9 .9 1.5 1.7 1.5c.9 0 1.5 -.5 1.8 -1.5l2 .4c-.2 1 -.6 1.9 -1.2 2.5c-.8 .5 -1.5 .8 -2.6 .8Z"/></clipPath>
<clipPath id="c5_20"><path d="M266.8 338.6c-18.3 0 -33.2 -14.9 -33.2 -33.2V297c0 -18.4 14.9 -33.3 33.2 -33.3H584.7c18.4 0 33.3 14.9 33.3 33.3v41.6Z"/></clipPath>
<clipPath id="c6_20"><path d="M413.2 305.9c1.7 -.1 2.6 -.7 2.6 -2.2c0 -1.4 -.9 -2.1 -2.6 -2.1h-3v4.3Zm124 0c1.6 -.1 2.5 -.7 2.5 -2.2c0 -1.4 -.8 -2.1 -2.5 -2.1h-3v4.3ZM302.7 301.3c.8 -.1 1.5 -.3 2 -.7c.4 -.6 .7 -1.1 .7 -1.8c-.1 -.8 -.3 -1.3 -.8 -1.8c-.5 -.4 -1.1 -.6 -2 -.6h-2.7v4.9Zm45.3 0c.8 -.1 1.5 -.3 2 -.7c.5 -.6 .7 -1.1 .7 -1.8c0 -.8 -.2 -1.3 -.7 -1.8c-.5 -.4 -1.2 -.6 -2 -.6h-2.7v4.9Zm173.6 0c.8 -.1 1.5 -.3 2 -.7c.4 -.6 .7 -1.1 .7 -1.8c0 -.8 -.2 -1.3 -.7 -1.8c-.5 -.4 -1.2 -.6 -2.1 -.6h-2.6v4.9ZM330.4 309V296.7h-4.6v-3.2h12.8v3.2h-4.8V309Zm47.6 0V296.7h-4.6v-3.2h12.8v3.2h-4.8V309Zm126 0V296.7h-4.7v-3.2h12.9v3.2h-4.8V309Zm-42 3.3v-3.2H450.5V293.5h3.4V306H460V293.5h3.4V306h1.9l-.5 6.3ZM357.2 309V293.5h3.3v10.1l6.8 -10.1h3.2V309h-3.4V298.8L360.4 309Zm32.3 0V293.5h3.4v6.2h6.2v-6.2h3.5V309h-3.5v-6.2h-6.2V309Zm17.3 0V293.5h3.4v5.2h3.3c0 0 .1 0 .1 0c1.7 0 3.1 .5 4.1 1.4c.9 .9 1.5 2.1 1.5 3.6c-.1 1.6 -.6 2.9 -1.6 3.9c-1.1 .8 -2.5 1.4 -4.3 1.4Zm14.2 0V293.5h3.4V309Zm62.4 0V293.5h3.4v6.2H493v-6.2h3.4V309H493v-6.2h-6.2V309Zm47.3 0V293.5h3.5v5.2h3.4c1.7 0 3 .5 4 1.4c.9 .9 1.5 2.1 1.5 3.6c0 1.6 -.5 2.9 -1.6 3.9c-1.1 .8 -2.5 1.4 -4.3 1.4Zm14.3 0V293.5h3.4V309Zm-248.5 0V293.3h6.4c1.8 0 3.3 .5 4.3 1.5c1.1 1 1.6 2.3 1.6 4c-.1 1.7 -.6 3.1 -1.7 4.1c-1.3 .9 -2.7 1.4 -4.6 1.4h-2.6V309Zm15.3 0V293.3h11.6v3.1h-8.2v3.3h7.2v3h-7.2v3.2h8.4V309Zm30.1 0V293.3h6.3c1.9 0 3.3 .5 4.4 1.5c1 1 1.6 2.3 1.6 4c-.1 1.7 -.6 3.1 -1.8 4.1c-1.2 .9 -2.7 1.4 -4.5 1.4h-2.6V309Zm86.6 0V293.3h11.6v3.1h-8.2v3.3h7.2v3h-7.2v3.2h8.4V309Zm39.6 0V293.3h11.6v3.1h-8.2v3.3h7.2v3h-7.2v3.2h8.4V309Zm47.4 0V293.3h6.3c1.9 0 3.3 .5 4.4 1.5c1 1 1.6 2.3 1.6 4c-.1 1.7 -.6 3.1 -1.8 4.1c-1.2 .9 -2.7 1.4 -4.5 1.4h-2.6V309Z"/></clipPath>
<clipPath id="c7_20"><path d="M266.5 615.1c-18.4 0 -33.3 -14.9 -33.3 -33.3v-8.4c0 -18.3 14.9 -33.2 33.3 -33.2H618.6v41.6c0 18.4 -14.9 33.3 -33.2 33.3Z"/></clipPath>
<clipPath id="c8_20"><path d="M403.6 582.4c1.6 0 2.5 -.6 2.5 -1.7c-.1 -1.3 -.9 -1.8 -2.6 -1.8h-4v3.5Zm-89.2 -.1c1.6 -.1 2.5 -.7 2.5 -2.1c0 -1.4 -.8 -2.1 -2.5 -2.1h-3v4.2Zm136 0c1.6 -.1 2.5 -.7 2.5 -2.1c0 -1.4 -.9 -2.1 -2.6 -2.1h-3v4.2Zm114.5 -3.2L562.8 574l-2 5.1Zm-203.8 3.5c1.2 -.1 2.4 -.5 3.3 -1.4c.9 -1 1.3 -2.1 1.3 -3.4c-.1 -1.4 -.4 -2.5 -1.3 -3.5c-1 -1 -2 -1.4 -3.4 -1.4c0 0 -.1 0 -.2 0c-1.3 0 -2.3 .5 -3.2 1.4c-.9 .9 -1.3 2.1 -1.3 3.5c0 1.3 .5 2.4 1.4 3.4c.8 .9 2 1.4 3.4 1.4Zm-62.3 -4.9c.8 -.1 1.5 -.2 2 -.7c.5 -.5 .8 -1 .8 -1.7c-.1 -.9 -.3 -1.4 -.8 -1.8c-.5 -.5 -1.2 -.7 -2 -.7h-2.7v4.9Zm122.7 -.3v-4.6h-3.4c0 0 -.1 0 -.1 0c-.9 0 -1.4 .3 -1.9 .6c-.5 .4 -.7 1 -.7 1.8c0 .6 .3 1.2 .7 1.6c.4 .4 1.1 .6 2 .6Zm-18.9 -1.3c1.6 0 2.5 -.6 2.5 -1.7c-.1 -.6 -.2 -.9 -.6 -1.2c-.4 -.3 -.9 -.4 -1.6 -.4h-3.4v3.3Zm-66.3 9.5V570h13v15.6h-3.4V573.1h-6.2v12.5Zm-71.8 -.2V573.1h-4.7V570h12.9v3.1h-4.8v12.3Zm167.9 0V573.1h-4.6V570h12.8v3.1h-4.8v12.3Zm114.2 0V573.1H542V570h12.8v3.1h-4.7v12.3Zm-267.8 .3c-1.2 0 -2.3 -.3 -3.3 -.9l1.3 -2.5c.5 .3 1.2 .5 1.8 .5c.7 0 1.5 -.4 2 -1.2l-6.2 -11.7h3.8l4.2 8.2l3.7 -8.2h3.7L283.9 582c-.8 1.2 -1.4 2.3 -2.2 2.9c-.8 .5 -1.8 .8 -2.9 .8Zm275.9 -.1l6.6 -15.7h3.2l6.6 15.7h-3.6l-1.4 -3.5h-6.5l-1.5 3.5ZM308 585.4V569.9h3.4v5.3h3.4c1.7 0 3 .4 4 1.3c.9 .9 1.5 2.2 1.5 3.7c0 1.6 -.5 2.9 -1.6 3.8c-1.1 .9 -2.4 1.4 -4.3 1.4Zm14.2 0V569.9h3.4v15.5Zm121.7 0V569.9h3.4v5.3h3.3q.1 0 .1 0c1.7 0 3.1 .4 4.1 1.3c.9 .9 1.5 2.2 1.5 3.7c0 1.6 -.5 2.9 -1.6 3.8c-1.1 .9 -2.5 1.4 -4.3 1.4Zm14.2 0V569.9h3.4v15.5Zm7.5 0V569.9h3.7l4.1 6.6l4.2 -6.6h3.7v15.5h-3.4V575.3l-4.5 6.6L469 575.3v10.1Zm26.4 0V569.9h3.6l4.2 6.6l4.1 -6.6h3.7v15.5h-3.4V575.3l-4.4 6.6h-.1l-4.4 -6.6v10.1Zm82.1 0V569.9h3.7l4.1 6.6l4.1 -6.6h3.7v15.5h-3.4V575.3l-4.4 6.6h-.1l-4.4 -6.6v10.1Zm-177.9 0V569.8h7.2c1.7 0 3.1 .4 4 1.4c.6 .7 1.1 1.6 1.1 2.7c-.1 1.4 -.7 2.6 -2 3.3c1 .4 1.7 .9 2.2 1.5c.4 .5 .8 1.4 .8 2.4c-.1 1.4 -.5 2.5 -1.6 3.2c-1.1 .7 -2.5 1.1 -4.3 1.1Zm-103.5 0V569.8h6.4c1.8 0 3.2 .5 4.3 1.5c1 .9 1.6 2.3 1.6 3.9c-.1 1.7 -.6 3.1 -1.8 4.1c-1.2 .9 -2.7 1.4 -4.5 1.4h-2.6v4.7Zm68.3 .3c-2.4 0 -4.3 -.7 -5.9 -2.3c-1.6 -1.5 -2.3 -3.4 -2.3 -5.6c0 -2.3 .8 -4.2 2.3 -5.7c1.6 -1.6 3.6 -2.3 6 -2.3c2.2 0 4.3 .7 5.9 2.3c1.4 1.4 2.3 3.4 2.3 5.7c-.1 2.2 -.8 4.1 -2.4 5.6c-1.6 1.6 -3.5 2.3 -5.9 2.3Zm25.7 0c-2.4 0 -4.2 -.7 -5.7 -2.3c-1.6 -1.5 -2.3 -3.4 -2.3 -5.6c0 -2.3 .8 -4.2 2.3 -5.7c1.4 -1.7 3.4 -2.3 5.8 -2.3c1.3 0 2.5 .2 3.4 .6c.8 .4 1.8 1.1 2.6 1.9l-2 2.3c-.7 -.6 -1.3 -1 -1.9 -1.3c-.7 -.3 -1.3 -.4 -2.1 -.4q-.1 0 -.2 0c-1.2 0 -2.2 .5 -3.1 1.4c-.9 .9 -1.2 2.1 -1.2 3.5c-.1 1.3 .4 2.4 1.2 3.4c.8 .9 2 1.4 3.3 1.4c.8 -.1 1.5 -.2 2.1 -.4c.5 -.4 1.3 -.8 1.9 -1.4l2.2 2.3c-.8 .9 -1.7 1.6 -2.7 2c-1.1 .4 -2.2 .6 -3.6 .6Zm24.8 -.3l3.8 -5.6C413 579 412 577.4 412 574.9c0 -1.6 .5 -2.8 1.5 -3.8c1 -.9 2.5 -1.3 4.3 -1.3h7.1v15.6h-3.4v-5h-2.7l-3.3 5Zm100.2 0V569.8h11.6v3H515v3.3h7.3v3H515v3.3h8.5v3Zm22.1 .3c-2.4 0 -4.2 -.7 -5.7 -2.3c-1.6 -1.5 -2.3 -3.4 -2.3 -5.6c0 -2.3 .8 -4.2 2.3 -5.7c1.5 -1.7 3.5 -2.3 5.8 -2.3c1.3 0 2.5 .2 3.4 .6c.9 .4 1.8 1.1 2.6 1.9l-2 2.3c-.7 -.6 -1.3 -1 -1.9 -1.3c-.6 -.3 -1.3 -.4 -2.1 -.4c0 0 -.1 0 -.2 0c-1.2 0 -2.2 .5 -3 1.4c-.9 .9 -1.3 2.1 -1.3 3.5c-.1 1.3 .4 2.4 1.3 3.4c.8 .9 1.9 1.4 3.2 1.4c.8 -.1 1.5 -.2 2.2 -.4c.5 -.4 1.2 -.8 1.9 -1.4l2.2 2.3c-.9 .9 -1.8 1.6 -2.8 2c-1 .4 -2.2 .6 -3.6 .6Z"/></clipPath>
<clipPath id="c9_20"><path d="M879.9 615.1c-18.3 0 -33.2 -14.9 -33.2 -33.3V540.2h352.4c18.4 0 33.3 14.9 33.3 33.2v8.4c0 18.4 -14.9 33.3 -33.3 33.3Z"/></clipPath>
<clipPath id="ca_20"><path d="M982.7 582.6c1.3 -.1 2.5 -.5 3.4 -1.4c.8 -1 1.3 -2.1 1.3 -3.4c-.1 -1.4 -.5 -2.5 -1.4 -3.5c-1 -1 -2 -1.4 -3.3 -1.4c-.1 0 -.2 0 -.2 0c-1.4 0 -2.4 .5 -3.2 1.4c-1 .9 -1.3 2.1 -1.3 3.5c-.1 1.3 .4 2.4 1.3 3.4c.8 .9 2 1.4 3.4 1.4Zm36.4 0c1.3 -.1 2.5 -.5 3.4 -1.4c.8 -1 1.3 -2.1 1.3 -3.4c-.1 -1.4 -.5 -2.5 -1.4 -3.5c-1 -1 -2 -1.4 -3.3 -1.4c-.1 0 -.2 0 -.2 0c-1.4 0 -2.4 .5 -3.2 1.4c-1 .9 -1.3 2.1 -1.3 3.5c-.1 1.3 .4 2.4 1.3 3.4c.8 .9 2 1.4 3.4 1.4Zm-24.7 3V570h12.9v15.6h-3.4V573.1h-6.1v12.5Zm68.6 .1c-.7 0 -1.3 0 -1.8 -.2l.3 -2.8h.1c.1 0 .3 .1 .4 .1c.4 0 .9 -.1 1.2 -.4c.3 -.2 .6 -.6 .9 -1.2c.2 -.7 .5 -1.7 .6 -3c.1 -1.3 .2 -2.9 .2 -5V570h11v15.5h-3.4V573.1h-4.4v1.2c-.1 2.9 -.2 5.4 -.6 7c-.5 1.6 -.9 2.9 -1.6 3.5c-.7 .6 -1.6 .9 -2.9 .9Zm-103.5 -.3V569.9H963v6.8l6.2 -6.8h4.2l-6.3 6.6l6.6 8.9h-4.1l-4.8 -6.6l-1.8 1.9v4.7Zm136 0V569.9h3.4v6.2h6.2v-6.2h3.4v15.5h-3.4v-6.2h-6.2v6.2Zm17.3 0V569.9h3.3v10.2l6.9 -10.2h3.1v15.5h-3.3V575.2l-6.8 10.2Zm-130.2 .3c-2.4 0 -4.3 -.7 -5.9 -2.3c-1.5 -1.5 -2.3 -3.4 -2.3 -5.6c0 -2.3 .8 -4.2 2.4 -5.7c1.5 -1.6 3.5 -2.3 5.9 -2.3c2.3 0 4.3 .7 5.9 2.3c1.5 1.4 2.3 3.4 2.3 5.7c0 2.2 -.8 4.1 -2.3 5.6c-1.7 1.6 -3.6 2.3 -6 2.3Zm36.5 0c-2.5 0 -4.4 -.7 -5.9 -2.3c-1.6 -1.5 -2.4 -3.4 -2.4 -5.6c0 -2.3 .8 -4.2 2.4 -5.7c1.5 -1.6 3.5 -2.3 5.9 -2.3c2.3 0 4.3 .7 5.9 2.3c1.5 1.4 2.3 3.4 2.3 5.7c0 2.2 -.7 4.1 -2.3 5.6c-1.7 1.6 -3.6 2.3 -5.9 2.3Zm19 0c-2.4 0 -4.2 -.7 -5.7 -2.3c-1.6 -1.5 -2.3 -3.4 -2.3 -5.6c0 -2.3 .8 -4.2 2.3 -5.7c1.4 -1.7 3.4 -2.3 5.8 -2.3c1.3 0 2.5 .2 3.4 .6c.8 .4 1.8 1.1 2.6 1.9l-2.1 2.3c-.6 -.6 -1.2 -1 -1.8 -1.3c-.7 -.3 -1.3 -.4 -2.1 -.4q-.1 0 -.2 0c-1.3 0 -2.2 .5 -3.1 1.4c-.9 .9 -1.2 2.1 -1.2 3.5c-.1 1.3 .4 2.4 1.2 3.4c.8 .9 2 1.4 3.3 1.4c.8 -.1 1.5 -.2 2.1 -.4c.5 -.4 1.3 -.8 1.9 -1.4l2.2 2.3c-.8 .9 -1.7 1.6 -2.7 2c-1.1 .4 -2.2 .6 -3.6 .6Zm9.5 -.3V569.8h11.6v3H1051v3.3h7.2v3H1051v3.3h8.4v3Zm32.6 0V569.8h11.6v3h-8.2v3.3h7.2v3h-7.2v3.3h8.4v3Zm50.1 0V569.8H1142v3h-8.3v3.3h7.3v3h-7.3v3.3h8.4v3Zm-182.4 .3c-1.5 0 -2.7 -.2 -3.7 -.6c-1 -.4 -1.9 -1.1 -2.8 -2l2.1 -2.2c.7 .5 1.4 1 2 1.3c.7 .3 1.4 .5 2.3 .5c1 -.1 2 -.4 2.8 -1c.8 -.8 1.3 -1.6 1.6 -2.6h-6.4v-2.9h6.4c-.3 -1 -.8 -1.8 -1.6 -2.5c-.9 -.7 -1.8 -.9 -2.8 -.9c-1.6 0 -2.8 .5 -4.1 1.6l-1.8 -2.3c1.6 -1.7 3.6 -2.4 5.9 -2.4c.1 0 .2 0 .3 0c2.1 0 4 .9 5.5 2.3c1.5 1.5 2.3 3.5 2.3 5.7c-.1 2.2 -.8 4.2 -2.3 5.7c-1.6 1.6 -3.4 2.3 -5.7 2.3Z"/></clipPath>
<clipPath id="cb_20"><path d="M431.4 398.2c1 -.1 2 -.3 2.7 -.8c.6 -.6 1.1 -1.3 1.1 -2.1v-1c-1.1 -.4 -2.2 -.5 -3.3 -.5c-.1 0 -.2 0 -.3 0c-.9 0 -1.6 .3 -2.1 .6c-.7 .4 -.9 1 -.9 1.6c0 .7 .3 1.2 .8 1.6c.5 .3 1.2 .6 2 .6Zm44.4 -4.4v-4.3h-3.5c-.1 0 -.2 0 -.3 0c-.7 0 -1.3 .2 -1.7 .6c-.5 .3 -.7 .9 -.7 1.5c0 .6 .3 1.2 .8 1.6c.4 .4 1.1 .6 1.9 .6Zm-81.7 4.4c1.2 -.1 2.3 -.5 3.1 -1.3c.7 -.9 1.1 -1.9 1.1 -3.1c0 -1.3 -.4 -2.3 -1.2 -3.2c-.8 -.9 -1.8 -1.3 -3 -1.3c-1.4 0 -2.3 .5 -3 1.3c-.9 .8 -1.2 1.9 -1.2 3.2c-.1 1.2 .4 2.2 1.2 3.1c.7 .8 1.8 1.3 3 1.3Zm19.9 1.1V388h1.8v4.8h6.5V388h1.8v11.3h-1.8v-5h-6.5v5Zm26.7 0V388h1.7v4.8H449V388h1.8v11.3H449v-5h-6.6v5Zm13.8 0V388h1.8v9l6.8 -9h1.7v11.3h-1.7v-8.9l-6.9 8.9Zm12.9 .2l3.5 -4.4c-.9 -.3 -1.6 -.7 -2.2 -1.3c-.6 -.6 -.8 -1.3 -.8 -2.2c0 -1.2 .3 -1.9 1.1 -2.6c.7 -.8 1.8 -1 3.2 -1h5.4v11.5h-1.8v-4.2h-3.1c-.2 .2 -.6 .8 -1.4 1.8c-.8 1 -1.3 1.9 -1.7 2.4Zm-86.1 .2c-1.7 0 -3 -.6 -4.1 -1.8c-1.2 -1.2 -1.7 -2.5 -1.7 -4.1c0 -1.7 .5 -3.1 1.7 -4.2c1.1 -1.3 2.5 -1.8 4.1 -1.8c.1 0 .2 0 .2 0c1.6 0 3.2 .8 4.4 2.1l-1.1 1.1c-1 -1.1 -2.2 -1.7 -3.5 -1.7c-1.2 0 -2.1 .5 -2.9 1.3c-.9 .8 -1.2 1.9 -1.2 3.2c0 1.2 .4 2.2 1.2 3.1c.7 .8 1.8 1.3 3 1.3c1.1 -.1 2.4 -.6 3.5 -1.7l1.1 1c-1.4 1.4 -2.9 2.2 -4.7 2.2Zm12.8 0c-1.8 0 -3.1 -.6 -4.3 -1.8c-1.1 -1.2 -1.7 -2.5 -1.7 -4.1c0 -1.7 .6 -3.1 1.7 -4.2c1.2 -1.3 2.6 -1.8 4.3 -1.8c.1 0 .2 0 .2 0c1.6 0 3 .7 4.1 1.8c1 1.1 1.7 2.5 1.7 4.2c-.1 1.5 -.6 3 -1.7 4.1c-1.3 1.1 -2.6 1.8 -4.3 1.8Zm37 0c-1.2 0 -2.2 -.4 -3 -1c-.9 -.6 -1.2 -1.5 -1.2 -2.6c0 -1.2 .4 -2.1 1.3 -2.8c.7 -.7 2 -1 3.5 -1c1.1 0 2.3 .2 3.5 .6v-.4c0 -1.1 -.3 -1.8 -.9 -2.3c-.6 -.6 -1.4 -.9 -2.5 -.9c-1.2 0 -2.2 .3 -3.4 .9l-.5 -1.4c1.4 -.7 2.8 -1 4.1 -1c.1 0 .2 0 .3 0c1.4 0 2.6 .5 3.4 1.3c.7 .8 1.2 1.9 1.2 3.3v7h-1.7v-1.8c-1 1.3 -2.4 2.1 -4.1 2.1Zm-24.9 0c-1.9 0 -3.4 -.6 -4.8 -1.8l.8 -1.2c1.1 1 2.5 1.5 3.9 1.5c.8 -.1 1.5 -.2 2 -.6c.6 -.4 .9 -.8 .9 -1.4c0 -.7 -.3 -1.1 -.8 -1.4c-.6 -.4 -1.2 -.5 -2.1 -.5h-1.6v-1.5h1.6c.7 0 1.4 -.1 1.8 -.5c.4 -.4 .8 -.8 .8 -1.3c0 -.6 -.3 -.9 -.8 -1.2c-.5 -.3 -1 -.5 -1.8 -.5c-1.4 0 -2.5 .4 -3.5 1.1l-.8 -1.1c1.2 -1.1 2.7 -1.5 4.4 -1.5c.1 0 .2 0 .3 0c1.1 0 2.1 .4 2.8 .9c.6 .5 1.1 1.3 1.1 2.1c0 1.2 -.6 2.1 -1.8 2.6c1.3 .5 2.1 1.4 2.1 2.8c0 .9 -.4 1.8 -1.2 2.5c-.9 .5 -2 1 -3.3 1ZM369 370.4c1 0 1.9 -.2 2.6 -.8c.7 -.5 1.1 -1.2 1.1 -2v-1c-1.1 -.4 -2.2 -.5 -3.2 -.5c-.1 0 -.2 0 -.3 0c-.9 0 -1.6 .2 -2.2 .6c-.6 .4 -.8 .9 -.8 1.6c-.1 .6 .2 1.2 .8 1.6c.4 .3 1.2 .5 2 .5Zm98.5 0c1 0 1.9 -.2 2.7 -.8c.6 -.5 1 -1.2 1 -2v-1c-1.1 -.4 -2.2 -.5 -3.2 -.5c-.1 0 -.2 0 -.3 0c-.9 0 -1.6 .2 -2.2 .6c-.6 .4 -.8 .9 -.8 1.6c0 .6 .3 1.2 .8 1.6c.5 .3 1.2 .5 2 .5Zm73.5 0c1 0 2 -.2 2.7 -.8c.6 -.5 1.1 -1.2 1.1 -2v-1c-1.1 -.4 -2.2 -.5 -3.3 -.5c-.1 0 -.2 0 -.3 0c-.9 0 -1.6 .2 -2.1 .6c-.7 .4 -.9 .9 -.9 1.6c0 .6 .3 1.2 .8 1.6c.5 .3 1.2 .5 2 .5ZM385.6 366.1v-4.3H382q-.1 0 -.2 0c-.8 0 -1.3 .2 -1.8 .6c-.5 .3 -.7 .9 -.7 1.5c0 .6 .3 1.2 .8 1.6c.4 .3 1.2 .6 2 .6Zm-56.3 4.3c1.2 0 2.2 -.4 3 -1.2c.8 -.9 1.2 -1.9 1.2 -3.2c-.1 -1.2 -.4 -2.2 -1.2 -3.1c-.9 -.9 -1.9 -1.3 -3.1 -1.3c-1.3 0 -2.2 .5 -3 1.3c-.9 .8 -1.2 1.9 -1.2 3.1c0 1.2 .4 2.3 1.2 3.2c.7 .7 1.9 1.2 3.1 1.2Zm90.9 -5.1c-.2 -1.1 -.5 -1.9 -1.2 -2.6c-.6 -.7 -1.4 -1.1 -2.5 -1.1c-1.1 0 -1.9 .4 -2.6 1.1c-.8 .6 -1.1 1.5 -1.2 2.6Zm10.4 5.1c1.1 0 2.1 -.4 2.9 -1.2c.7 -.9 1.1 -1.8 1.1 -3.2c-.1 -1.3 -.4 -2.3 -1.2 -3.2c-.8 -.8 -1.7 -1.2 -2.8 -1.2c-1.2 0 -2.1 .4 -2.9 1.3c-.9 .7 -1.2 1.9 -1.2 3.1c-.1 1.3 .4 2.4 1.2 3.2c.7 .7 1.8 1.2 2.9 1.2ZM448 365.3c-.2 -1.1 -.5 -1.9 -1.1 -2.6c-.7 -.7 -1.5 -1.1 -2.6 -1.1c-1 0 -1.8 .4 -2.5 1.1c-.8 .6 -1.1 1.5 -1.3 2.6Zm44.9 5.1c1.1 0 2.1 -.4 2.9 -1.2c.7 -.9 1.1 -1.8 1.1 -3.2c-.1 -1.3 -.4 -2.3 -1.1 -3.2c-.9 -.8 -1.8 -1.2 -2.9 -1.2c-1.2 0 -2.1 .4 -2.9 1.3c-.9 .7 -1.2 1.9 -1.2 3.1c-.1 1.3 .4 2.4 1.2 3.2c.7 .7 1.8 1.2 2.9 1.2Zm-155.3 1.5c-.6 0 -1 0 -1.5 -.1l.2 -1.5c.3 .1 .7 .1 .9 .1c.2 0 .6 0 .8 -.1c.1 -.1 .4 -.3 .6 -.6c.2 -.4 .5 -.9 .6 -1.5c.1 -.7 .3 -1.5 .3 -2.7c.1 -1.2 .2 -2.6 .2 -4.3v-.9h8.1v11.5H346v-10h-4.6v.3c0 1.7 0 3.2 -.2 4.4c-.2 1.2 -.3 2.2 -.5 2.9c-.2 .7 -.5 1.2 -.8 1.6c-.4 .4 -.7 .7 -1.1 .8c-.4 0 -.7 .1 -1.2 .1Zm14 -.3V360.3h1.7v4.8h6.6v-4.8h1.7v11.3h-1.7v-5h-6.6v5Zm25.5 .2l3.6 -4.5c-1 -.2 -1.7 -.6 -2.3 -1.2c-.6 -.6 -.8 -1.3 -.8 -2.2c0 -1.2 .4 -2 1.1 -2.6c.8 -.8 1.9 -1 3.2 -1h5.4v11.5h-1.7v-4.2h-3.2c-.2 .2 -.6 .8 -1.3 1.8c-.9 1 -1.4 1.8 -1.8 2.4Zm20.8 0V360.3h9.9v11.5h-1.7v-10h-6.5v10Zm78.9 0V360.3h7.8v1.5h-6.1v10Zm26.2 3.5c-.8 0 -1.6 -.2 -2.4 -.6l.5 -1.3c.5 .2 1.2 .4 1.8 .4c.4 -.1 1 -.2 1.3 -.5c.3 -.3 .7 -.9 1.1 -1.7l-5.2 -11.3h1.8l4.2 9.5l3.7 -9.5h1.8l-4.8 11.8c-.5 1.1 -1 1.9 -1.6 2.4c-.7 .4 -1.3 .8 -2.2 .8Zm22.3 -3.7V360.3h1.8v6.5l6.2 -6.5h2.1l-4.7 4.9l4.9 6.4h-2l-4.1 -5.2l-2.4 2.5v2.7Zm-196.1 .3c-1.8 0 -3.1 -.5 -4.2 -1.7c-1.2 -1.2 -1.7 -2.5 -1.7 -4.2c0 -1.6 .5 -3 1.7 -4.1c1.1 -1.3 2.6 -1.8 4.3 -1.8c0 0 .1 0 .2 0c1.6 0 2.9 .7 4 1.8c1.1 1 1.7 2.5 1.7 4.1c-.1 1.6 -.5 3 -1.7 4.2c-1.2 1.1 -2.6 1.7 -4.3 1.7Zm87.5 0c-1.7 0 -3 -.5 -4.1 -1.6c-1.1 -1.1 -1.7 -2.5 -1.7 -4.3c0 -1.6 .6 -3 1.6 -4.2c1 -1.2 2.4 -1.7 4 -1.7q.1 0 .2 0c1.5 0 2.8 .7 3.8 1.8c.9 1 1.4 2.5 1.4 4.3c-.1 .1 0 .4 0 .6h-9.2c.1 1 .5 2 1.3 2.7c.8 .6 1.7 .9 2.8 .9c1.3 0 2.6 -.5 3.6 -1.5l1.1 .9c-1.4 1.4 -2.9 2.1 -4.8 2.1Zm27.9 0c-1.7 0 -3 -.5 -4.1 -1.6c-1.2 -1.1 -1.7 -2.5 -1.7 -4.3c0 -1.6 .5 -3 1.6 -4.2c1 -1.2 2.4 -1.7 3.9 -1.7c.1 0 .2 0 .2 0c1.5 0 2.9 .7 3.8 1.8c.9 1 1.5 2.5 1.5 4.3c-.2 .1 -.1 .4 -.1 .6h-9.2c.1 1 .6 2 1.4 2.7c.7 .6 1.7 .9 2.7 .9c1.4 0 2.6 -.5 3.7 -1.5l1.1 .9c-1.4 1.4 -2.9 2.1 -4.8 2.1Zm-19.9 3.4v-15h1.8v2.3c1.1 -1.6 2.6 -2.5 4.4 -2.5c0 0 .1 0 .2 0c1.3 0 2.6 .6 3.6 1.6c1.1 1.1 1.7 2.6 1.7 4.3c-.1 1.8 -.6 3.2 -1.7 4.3c-1.1 1.1 -2.4 1.6 -3.8 1.6c-1.9 0 -3.3 -.8 -4.4 -2.4v5.8Zm62.3 0v-15h1.8v2.3c1.1 -1.6 2.6 -2.5 4.4 -2.5c0 0 .1 0 .2 0c1.3 0 2.6 .6 3.6 1.6c1.1 1.1 1.7 2.6 1.7 4.3c-.1 1.8 -.6 3.2 -1.7 4.3c-1.1 1.1 -2.3 1.6 -3.8 1.6c-1.9 0 -3.3 -.8 -4.4 -2.4v5.8ZM368.7 371.9c-1.3 0 -2.2 -.3 -3 -.9c-1 -.7 -1.3 -1.5 -1.3 -2.7c0 -1.2 .5 -2.1 1.3 -2.7c.8 -.8 2.1 -1 3.6 -1c1.1 0 2.3 .2 3.4 .6v-.4c0 -1.1 -.3 -1.8 -.8 -2.4c-.7 -.6 -1.4 -.8 -2.5 -.8c-1.2 0 -2.3 .3 -3.4 .9l-.6 -1.4c1.5 -.7 2.9 -1 4.2 -1c.1 0 .2 0 .2 0c1.5 0 2.7 .5 3.5 1.3c.7 .7 1.2 1.9 1.2 3.3v7h-1.8v-1.8c-1 1.3 -2.3 2 -4 2Zm98.5 0c-1.3 0 -2.2 -.3 -3 -.9c-.9 -.7 -1.3 -1.5 -1.3 -2.7c0 -1.2 .5 -2.1 1.3 -2.7c.8 -.8 2.1 -1 3.6 -1c1.1 0 2.3 .2 3.4 .6v-.4c0 -1.1 -.2 -1.8 -.8 -2.4c-.7 -.6 -1.4 -.8 -2.5 -.8c-1.2 0 -2.2 .3 -3.4 .9l-.5 -1.4c1.4 -.7 2.8 -1 4.1 -1c.1 0 .2 0 .3 0c1.4 0 2.6 .5 3.4 1.3c.7 .7 1.2 1.9 1.2 3.3v7h-1.8v-1.8c-1 1.3 -2.3 2 -4 2Zm73.5 0c-1.2 0 -2.2 -.3 -3 -.9c-.9 -.7 -1.2 -1.5 -1.2 -2.7c0 -1.2 .4 -2.1 1.3 -2.7c.7 -.8 2 -1 3.5 -1c1.1 0 2.3 .2 3.5 .6v-.4c0 -1.1 -.3 -1.8 -.9 -2.4c-.6 -.6 -1.4 -.8 -2.5 -.8c-1.2 0 -2.2 .3 -3.4 .9l-.5 -1.4c1.4 -.7 2.8 -1 4.1 -1c.1 0 .2 0 .3 0c1.4 0 2.6 .5 3.4 1.3c.7 .7 1.2 1.9 1.2 3.3v7h-1.7v-1.8c-1 1.3 -2.4 2 -4.1 2Zm-84.6 0c-1.9 0 -3.4 -.5 -4.8 -1.7l.8 -1.2c1.1 .9 2.5 1.4 3.9 1.4c.8 0 1.5 -.1 2.1 -.5c.5 -.4 .8 -.8 .8 -1.4c0 -.7 -.3 -1.1 -.8 -1.4c-.6 -.4 -1.2 -.5 -2.1 -.5h-1.6v-1.5H456c.7 0 1.4 -.2 1.8 -.5c.4 -.4 .8 -.8 .8 -1.4c0 -.5 -.3 -.8 -.7 -1.1c-.6 -.4 -1.1 -.5 -1.8 -.5c-1.5 0 -2.6 .4 -3.6 1.1l-.8 -1.1c1.2 -1.1 2.7 -1.5 4.4 -1.5c.1 0 .2 0 .3 0c1.1 0 2.1 .3 2.8 .9c.6 .5 1.1 1.2 1.1 2.1c0 1.2 -.6 2.1 -1.8 2.6c1.3 .5 2.1 1.4 2.1 2.8c0 .9 -.4 1.8 -1.2 2.4c-.9 .6 -2 1 -3.3 1Zm61.4 0c-1.9 0 -3.4 -.5 -4.8 -1.7l.8 -1.2c1.1 .9 2.5 1.4 3.9 1.4c.8 0 1.5 -.1 2 -.5c.6 -.4 .9 -.8 .9 -1.4c0 -.7 -.3 -1.1 -.8 -1.4c-.6 -.4 -1.2 -.5 -2.1 -.5h-1.6v-1.5h1.6c.7 0 1.4 -.2 1.8 -.5c.4 -.4 .8 -.8 .8 -1.4c0 -.5 -.3 -.8 -.7 -1.1c-.6 -.4 -1.1 -.5 -1.8 -.5c-1.5 0 -2.6 .4 -3.6 1.1l-.8 -1.1c1.2 -1.1 2.7 -1.5 4.4 -1.5c.1 0 .2 0 .3 0c1.1 0 2.1 .3 2.8 .9c.6 .5 1.1 1.2 1.1 2.1c0 1.2 -.6 2.1 -1.8 2.6c1.3 .5 2.1 1.4 2.1 2.8c0 .9 -.4 1.8 -1.2 2.4c-.9 .6 -2 1 -3.3 1Zm-209.9 -.5V356.1h12.3v15.3h-1.7V357.6h-8.8v13.8Z"/></clipPath>
<clipPath id="cc_20"><path d="M1021.9 398.2c1 -.1 2 -.3 2.7 -.8c.6 -.6 1.1 -1.3 1.1 -2.1v-1c-1.1 -.4 -2.2 -.5 -3.3 -.5c-.1 0 -.2 0 -.3 0c-.9 0 -1.6 .3 -2.1 .6c-.7 .4 -.9 1 -.9 1.6c0 .7 .3 1.2 .8 1.6c.5 .3 1.2 .6 2 .6Zm53 0c.9 -.1 1.9 -.3 2.6 -.8c.7 -.6 1.1 -1.3 1.1 -2.1v-1c-1.1 -.4 -2.2 -.5 -3.3 -.5c-.1 0 -.2 0 -.3 0c-.9 0 -1.6 .3 -2.1 .6c-.7 .4 -.9 1 -.9 1.6c0 .7 .3 1.2 .9 1.6c.4 .3 1.2 .6 2 .6Zm-65.4 0c1.1 -.1 2.1 -.4 2.9 -1.2c.7 -.9 1.1 -1.9 1.1 -3.3c-.1 -1.3 -.4 -2.3 -1.1 -3.1c-.8 -.9 -1.8 -1.3 -2.9 -1.3c-1.2 0 -2 .5 -2.9 1.3c-.9 .7 -1.2 1.9 -1.2 3.2c0 1.2 .4 2.3 1.2 3.1c.7 .8 1.8 1.3 2.9 1.3Zm34.7 4.8c-.8 0 -1.6 -.2 -2.4 -.6l.6 -1.3c.5 .2 1.1 .4 1.8 .4c.4 -.1 .9 -.2 1.3 -.5c.2 -.3 .7 -.9 1 -1.6L1041.3 388h1.9l4.2 9.5L1051 388h1.8l-4.8 11.8c-.5 1.1 -1 2 -1.6 2.4c-.6 .5 -1.3 .8 -2.2 .8Zm11.5 -3.7V388h1.7l4.1 6l4.2 -6h1.7v11.3h-1.8v-8.6l-4.1 5.7l-4.1 -5.7v8.6Zm-52.1 3.7V388h1.8v2.4c1.1 -1.7 2.6 -2.6 4.4 -2.6q.1 0 .2 0c1.3 0 2.6 .6 3.6 1.7c1.1 1 1.7 2.5 1.7 4.3c-.1 1.7 -.6 3.2 -1.7 4.2c-1.1 1.1 -2.3 1.7 -3.8 1.7c-1.9 0 -3.3 -.8 -4.4 -2.4V403Zm18 -3.3c-1.2 0 -2.2 -.4 -3 -1c-.9 -.6 -1.2 -1.5 -1.2 -2.6c0 -1.2 .4 -2.1 1.3 -2.8c.8 -.7 2 -1 3.5 -1c1.1 0 2.3 .2 3.5 .6v-.4c0 -1.1 -.3 -1.8 -.9 -2.3c-.6 -.6 -1.4 -.9 -2.5 -.9c-1.2 0 -2.2 .3 -3.4 .9l-.5 -1.4c1.4 -.7 2.8 -1 4.2 -1c0 0 .1 0 .2 0c1.4 0 2.6 .5 3.4 1.3c.8 .8 1.2 1.9 1.2 3.3v7h-1.7v-1.8c-1 1.3 -2.4 2.1 -4.1 2.1Zm52.9 0c-1.2 0 -2.1 -.4 -3 -1c-.9 -.6 -1.2 -1.5 -1.2 -2.6c0 -1.2 .4 -2.1 1.3 -2.8c.8 -.7 2.1 -1 3.5 -1c1.1 0 2.4 .2 3.5 .6v-.4c0 -1.1 -.3 -1.8 -.9 -2.3c-.6 -.6 -1.4 -.9 -2.4 -.9c-1.2 0 -2.3 .3 -3.5 .9l-.5 -1.4c1.4 -.7 2.8 -1 4.2 -1q.1 0 .2 0c1.5 0 2.7 .5 3.5 1.3c.7 .8 1.2 1.9 1.2 3.3v7h-1.8v-1.8c-1 1.3 -2.4 2.1 -4.1 2.1Zm-39.8 0c-1.8 0 -3.4 -.6 -4.8 -1.8l.9 -1.2c1.1 1 2.4 1.5 3.8 1.5c.8 -.1 1.5 -.2 2.1 -.6c.5 -.4 .8 -.8 .8 -1.4c0 -.7 -.2 -1.1 -.7 -1.4c-.6 -.4 -1.3 -.5 -2.2 -.5H1033v-1.5h1.6c.7 0 1.4 -.1 1.9 -.5c.4 -.4 .7 -.8 .7 -1.3c0 -.6 -.2 -.9 -.7 -1.2c-.6 -.3 -1.1 -.5 -1.8 -.5c-1.4 0 -2.6 .4 -3.5 1.1l-.9 -1.1c1.2 -1.1 2.8 -1.5 4.5 -1.5c.1 0 .2 0 .2 0c1.1 0 2.1 .4 2.8 .9c.7 .5 1.1 1.3 1.1 2.1c0 1.2 -.6 2.1 -1.8 2.6c1.4 .5 2.2 1.4 2.2 2.8c-.1 .9 -.4 1.8 -1.3 2.5c-.9 .5 -1.9 1 -3.3 1Zm-24.6 -29.3c1 0 1.9 -.2 2.7 -.8c.6 -.5 1.1 -1.2 1.1 -2v-1c-1.1 -.4 -2.2 -.5 -3.3 -.5c-.1 0 -.2 0 -.3 0c-.9 0 -1.6 .2 -2.1 .6c-.7 .4 -.9 .9 -.9 1.6c0 .6 .3 1.2 .8 1.6c.5 .3 1.2 .5 2 .5Zm129.1 0c1 0 1.9 -.2 2.7 -.8c.6 -.5 1 -1.2 1 -2v-1c-1.1 -.4 -2.2 -.5 -3.2 -.5c-.1 0 -.2 0 -.3 0c-.9 0 -1.6 .2 -2.2 .6c-.6 .4 -.8 .9 -.8 1.6c-.1 .6 .2 1.2 .8 1.6c.5 .3 1.2 .5 2 .5Zm-156.2 0c1.1 0 2.1 -.4 2.9 -1.2c.7 -.9 1.1 -1.9 1.1 -3.1c-.1 -1.2 -.4 -2.2 -1.2 -3c-.8 -.9 -1.7 -1.3 -2.9 -1.3c0 0 -.1 0 -.1 0c-1.2 0 -2 .5 -2.8 1.2c-.8 .9 -1.1 1.9 -1.1 3.1c0 1.2 .4 2.2 1.2 3.1c.7 .7 1.7 1.2 2.9 1.2Zm-41.8 0c1 0 2.1 -.4 2.8 -1.2c.8 -.9 1.2 -1.8 1.2 -3.2c-.1 -1.3 -.4 -2.3 -1.2 -3.2c-.8 -.8 -1.7 -1.2 -2.8 -1.2c-1.2 0 -2.1 .4 -2.9 1.3c-1 .7 -1.3 1.9 -1.3 3.1c0 1.3 .5 2.4 1.3 3.2c.7 .7 1.8 1.2 2.9 1.2Zm17.4 -5.1c-.2 -1.1 -.5 -1.9 -1.1 -2.6c-.7 -.7 -1.5 -1.1 -2.6 -1.1c-1.1 0 -1.9 .4 -2.6 1.1c-.8 .6 -1.1 1.5 -1.2 2.6Zm9.9 5.1c1.2 0 2.2 -.4 3 -1.2c.8 -.9 1.2 -1.9 1.2 -3.2c-.1 -1.2 -.4 -2.2 -1.2 -3.1c-.9 -.9 -1.9 -1.3 -3.1 -1.3c-1.3 0 -2.2 .5 -3 1.3c-.9 .8 -1.2 1.9 -1.2 3.1c0 1.2 .4 2.3 1.3 3.2c.7 .7 1.8 1.2 3 1.2Zm29.2 0c1.1 0 2.1 -.4 2.9 -1.2c.7 -.9 1.1 -1.8 1.1 -3.2c-.1 -1.3 -.4 -2.3 -1.2 -3.2c-.8 -.8 -1.7 -1.2 -2.8 -1.2c-1.2 0 -2.1 .4 -2.9 1.3c-.9 .7 -1.2 1.9 -1.2 3.1c-.1 1.3 .4 2.4 1.2 3.2c.7 .7 1.8 1.2 2.9 1.2Zm48.4 -5.1c-.1 -1.1 -.4 -1.9 -1.1 -2.6c-.7 -.7 -1.5 -1.1 -2.6 -1.1c-1 0 -1.8 .4 -2.5 1.1c-.8 .6 -1.1 1.5 -1.2 2.6Zm41 0c-.2 -1.1 -.5 -1.9 -1.1 -2.6c-.7 -.7 -1.5 -1.1 -2.6 -1.1c-1.1 0 -1.8 .4 -2.6 1.1c-.8 .6 -1.1 1.5 -1.2 2.6Zm30.4 0c-.2 -1.1 -.5 -1.9 -1.1 -2.6c-.7 -.7 -1.5 -1.1 -2.6 -1.1c-1 0 -1.8 .4 -2.5 1.1c-.8 .6 -1.1 1.5 -1.3 2.6Zm-99.6 6.3l4.7 -6.5l-4.5 -4.8h2.1l5.8 6.6v-6.6h1.8v6.6l5.8 -6.6h2.1l-4.5 4.8l4.7 6.5h-2l-3.8 -5.3l-2.3 2.6v2.7H1026v-2.7l-2.3 -2.6l-3.8 5.3Zm32.8 0V360.3h1.8v4.8h6.5v-4.8h1.8v11.3H1059v-5h-6.5v5Zm13.8 0V360.3h1.8v8.9l6.8 -8.9h1.7v11.3h-1.7v-8.9l-6.9 8.9Zm36.5 .2v-10h-4v-1.5h10v1.5h-4.3v10Zm20.6 .1c-.5 0 -.9 0 -1.4 -.1l.2 -1.5c.2 .1 .6 .1 .8 .1c.3 0 .6 0 .8 -.1c.1 -.1 .4 -.3 .7 -.6c.1 -.4 .4 -.9 .5 -1.5c.1 -.7 .3 -1.5 .4 -2.7c0 -1.2 .1 -2.6 .1 -4.3v-.9h8.1v11.5h-1.7v-10h-4.6v.3c0 1.7 -.1 3.2 -.2 4.4c-.2 1.2 -.3 2.2 -.5 2.9c-.2 .7 -.5 1.2 -.9 1.6c-.4 .4 -.7 .7 -1 .8c-.4 0 -.8 .1 -1.3 .1Zm33.5 -.3V360.3h1.8v8.9l6.8 -8.9h1.7v11.3h-1.7v-8.9l-6.9 8.9Zm-200 .3c-1.6 0 -3 -.5 -4.1 -1.6c-1.1 -1.1 -1.7 -2.5 -1.7 -4.3c0 -1.6 .6 -3 1.6 -4.2c1 -1.2 2.4 -1.7 4 -1.7q.1 0 .2 0c1.5 0 2.8 .7 3.8 1.8c.9 1 1.4 2.5 1.4 4.3c-.1 .1 0 .4 0 .6h-9.2c.1 1 .6 2 1.3 2.7c.8 .6 1.7 .9 2.8 .9c1.3 0 2.6 -.5 3.6 -1.5l1.1 .9c-1.4 1.4 -2.9 2.1 -4.8 2.1Zm13.3 0c-1.8 0 -3.1 -.5 -4.2 -1.7C963 369 962.5 367.7 962.5 366c0 -1.6 .5 -3 1.7 -4.1c1.1 -1.3 2.6 -1.8 4.3 -1.8c0 0 .1 0 .2 0c1.6 0 2.9 .7 4 1.8c1.1 1 1.7 2.5 1.7 4.1c-.1 1.6 -.5 3 -1.7 4.2c-1.2 1.1 -2.6 1.7 -4.3 1.7Zm74.3 0c-1.7 0 -3 -.5 -4.1 -1.6c-1.1 -1.1 -1.7 -2.5 -1.7 -4.3c0 -1.6 .5 -3 1.6 -4.2c1 -1.2 2.4 -1.7 4 -1.7c0 0 .1 0 .2 0c1.5 0 2.8 .7 3.7 1.8c.9 1 1.5 2.5 1.5 4.3c-.1 .1 0 .4 0 .6h-9.2c0 1 .5 2 1.3 2.7c.7 .6 1.7 .9 2.8 .9c1.3 0 2.6 -.5 3.6 -1.5l1.1 .9c-1.4 1.4 -2.9 2.1 -4.8 2.1Zm41 0c-1.7 0 -3.1 -.5 -4.2 -1.6c-1.1 -1.1 -1.6 -2.5 -1.6 -4.3c0 -1.6 .5 -3 1.6 -4.2c.9 -1.2 2.3 -1.7 3.9 -1.7c.1 0 .2 0 .2 0c1.5 0 2.8 .7 3.8 1.8c.9 1 1.4 2.5 1.4 4.3c-.1 .1 0 .4 0 .6h-9.2c.1 1 .6 2 1.3 2.7c.8 .6 1.7 .9 2.8 .9c1.3 0 2.6 -.5 3.7 -1.5l1 .9c-1.4 1.4 -2.9 2.1 -4.7 2.1Zm30.4 0c-1.7 0 -3 -.5 -4.1 -1.6c-1.2 -1.1 -1.7 -2.5 -1.7 -4.3c0 -1.6 .5 -3 1.6 -4.2c1 -1.2 2.4 -1.7 4 -1.7c0 0 .1 0 .1 0c1.5 0 2.9 .7 3.8 1.8c.9 1 1.5 2.5 1.5 4.3c-.2 .1 -.1 .4 -.1 .6H1110c.1 1 .6 2 1.4 2.7c.7 .6 1.7 .9 2.7 .9c1.4 0 2.6 -.5 3.7 -1.5l1.1 .9c-1.4 1.4 -2.9 2.1 -4.8 2.1Zm-178.8 3.4v-15H937v2.3c1.2 -1.6 2.7 -2.5 4.4 -2.5c.1 0 .2 0 .2 0c1.4 0 2.6 .6 3.7 1.6c1.1 1.1 1.6 2.6 1.6 4.3c-.1 1.8 -.5 3.2 -1.6 4.3c-1.1 1.1 -2.4 1.6 -3.9 1.6c-1.8 0 -3.2 -.8 -4.4 -2.4v5.8Zm56.5 0v-15h1.8v2.3c1.1 -1.6 2.6 -2.5 4.4 -2.5c0 0 .1 0 .1 0c1.4 0 2.7 .6 3.7 1.6c1.1 1.1 1.7 2.6 1.7 4.3c-.2 1.8 -.6 3.2 -1.7 4.3c-1.1 1.1 -2.4 1.6 -3.8 1.6c-1.9 0 -3.3 -.8 -4.4 -2.4v5.8Zm18 -3.4c-1.3 0 -2.2 -.3 -3 -.9c-.9 -.7 -1.3 -1.5 -1.3 -2.7c0 -1.2 .5 -2.1 1.3 -2.7c.8 -.8 2.1 -1 3.6 -1c1.1 0 2.3 .2 3.5 .6v-.4c0 -1.1 -.3 -1.8 -.9 -2.4c-.6 -.6 -1.4 -.8 -2.5 -.8c-1.2 0 -2.2 .3 -3.4 .9l-.5 -1.4c1.4 -.7 2.8 -1 4.1 -1c.1 0 .2 0 .3 0c1.4 0 2.6 .5 3.4 1.3c.7 .7 1.2 1.9 1.2 3.3v7h-1.7v-1.8c-1.1 1.3 -2.4 2 -4.1 2Zm129.1 0c-1.3 0 -2.2 -.3 -3 -.9c-.9 -.7 -1.3 -1.5 -1.3 -2.7c0 -1.2 .5 -2.1 1.3 -2.7c.8 -.8 2.1 -1 3.6 -1c1.1 0 2.3 .2 3.4 .6v-.4c0 -1.1 -.3 -1.8 -.8 -2.4c-.7 -.6 -1.4 -.8 -2.5 -.8c-1.2 0 -2.2 .3 -3.4 .9l-.5 -1.4c1.4 -.7 2.8 -1 4.1 -1c.1 0 .2 0 .2 0c1.5 0 2.7 .5 3.5 1.3c.7 .7 1.2 1.9 1.2 3.3v7h-1.8v-1.8c-1 1.3 -2.3 2 -4 2ZM919 371.4V356.1h12.3v15.3h-1.8V357.6h-8.8v13.8Zm63.9 .5c-1.8 0 -3.1 -.5 -4.2 -1.7c-1.1 -1.3 -1.6 -2.7 -1.6 -4.7c0 -.8 0 -1.4 0 -1.9c0 -.5 .1 -1.1 .2 -1.7c0 -.7 .2 -1.1 .4 -1.6c.1 -.4 .4 -.9 .7 -1.3c.2 -.4 .7 -.8 1.2 -1.1c.5 -.4 1.1 -.5 1.7 -.6l6.5 -1.5l.3 1.4l-6.2 1.5c-1.2 .3 -2 .8 -2.5 1.5c-.6 .5 -.7 1.5 -.8 2.7c.9 -1.8 2.5 -2.6 4.7 -2.6c1.4 0 2.8 .6 3.9 1.7c1 1.1 1.6 2.4 1.6 4c-.1 1.6 -.6 3 -1.7 4.2c-1.2 1.1 -2.5 1.7 -4.2 1.7Z"/></clipPath>
<clipPath id="cd_20"><path d="M409.1 669.9c.9 0 1.9 -.2 2.6 -.8c.7 -.5 1.1 -1.2 1.1 -2v-1c-1.1 -.4 -2.2 -.5 -3.3 -.5c-.1 0 -.2 0 -.3 0c-.9 0 -1.6 .3 -2.1 .6c-.7 .4 -.9 .9 -.9 1.6c0 .6 .3 1.2 .9 1.6c.4 .3 1.2 .5 2 .5Zm-26 0c1.1 0 2.1 -.4 2.9 -1.2c.7 -.9 1.2 -1.9 1.2 -3.1c-.1 -1.2 -.4 -2.2 -1.2 -3c-.8 -.9 -1.8 -1.3 -2.9 -1.3c-.1 0 -.2 0 -.2 0c-1.1 0 -2 .5 -2.7 1.2c-.9 .9 -1.2 1.9 -1.2 3.1c0 1.2 .4 2.2 1.2 3.1c.7 .7 1.8 1.2 2.9 1.2Zm50.2 0c1.2 0 2.2 -.4 3 -1.2c.8 -.9 1.2 -1.9 1.2 -3.2c-.1 -1.2 -.4 -2.2 -1.2 -3.1c-.9 -.9 -1.9 -1.3 -3.1 -1.3c-1.3 0 -2.2 .5 -3 1.3c-.9 .8 -1.2 1.9 -1.2 3.1c0 1.2 .4 2.3 1.2 3.2c.8 .7 1.9 1.2 3.1 1.2Zm-41.8 1.5c-.5 0 -1 0 -1.4 -.1l.2 -1.5c.2 .1 .6 .1 .8 .1c.3 0 .6 0 .8 -.1c.1 -.1 .4 -.3 .7 -.6c.1 -.4 .4 -.9 .5 -1.5c.1 -.7 .3 -1.5 .4 -2.7c0 -1.2 .1 -2.6 .1 -4.3v-.9h8.1v11.5h-1.8v-10h-4.5v.3c-.1 1.7 -.1 3.2 -.2 4.4c-.3 1.2 -.4 2.2 -.6 2.9c-.2 .7 -.4 1.2 -.8 1.6c-.4 .4 -.7 .7 -1.1 .8c-.3 0 -.7 .1 -1.2 .1Zm26.8 -.1V659.8h7.8v1.5h-6v10Zm39.3 0v-10h-4v-1.5h10v1.5h-4.3v10Zm8.4 -.2V659.8h1.8v8.9l6.8 -8.9h1.7v11.3h-1.7v-8.9l-6.9 8.9Zm-18.5 .3c-1.8 0 -3.1 -.5 -4.2 -1.7c-1.2 -1.2 -1.7 -2.5 -1.7 -4.2c0 -1.6 .6 -3 1.7 -4.1c1.1 -1.3 2.5 -1.8 4.2 -1.8c0 0 .1 0 .1 0c1.7 0 3.2 .8 4.4 2.1l-1 1.1c-1.1 -1.1 -2.3 -1.7 -3.6 -1.7c-1.2 0 -2.1 .5 -2.9 1.3c-.9 .8 -1.2 1.9 -1.2 3.1c0 1.2 .4 2.3 1.2 3.2c.8 .7 1.9 1.2 3 1.2c1.2 0 2.4 -.5 3.5 -1.7l1.1 1.1c-1.4 1.4 -2.9 2.1 -4.6 2.1Zm-14.3 0c-1.8 0 -3.1 -.5 -4.2 -1.7c-1.2 -1.2 -1.7 -2.5 -1.7 -4.2c0 -1.6 .5 -3 1.7 -4.1c1.1 -1.3 2.6 -1.8 4.3 -1.8c0 0 .1 0 .2 0c1.6 0 2.9 .7 4 1.8c1.1 1 1.7 2.5 1.7 4.1c-.1 1.6 -.5 3 -1.7 4.2c-1.2 1.1 -2.6 1.7 -4.3 1.7Zm-24.5 0c-1.2 0 -2.1 -.3 -3 -.9c-.9 -.7 -1.2 -1.5 -1.2 -2.7c0 -1.2 .4 -2.1 1.3 -2.7c.8 -.8 2.1 -1 3.5 -1c1.1 0 2.4 .2 3.5 .6v-.4c0 -1.1 -.3 -1.8 -.9 -2.4c-.6 -.6 -1.4 -.8 -2.4 -.8c-1.2 0 -2.3 .3 -3.5 .9l-.5 -1.4c1.4 -.7 2.8 -1 4.2 -1q.1 0 .2 0c1.5 0 2.7 .5 3.5 1.3c.7 .7 1.2 1.9 1.2 3.3v7h-1.8v-1.8c-1 1.3 -2.4 2 -4.1 2Zm-25.6 0c-1.8 0 -3.2 -.5 -4.3 -1.7c-1.1 -1.3 -1.5 -2.7 -1.5 -4.7c0 -.8 0 -1.4 0 -1.9c0 -.5 0 -1.1 .1 -1.7c0 -.7 .2 -1.1 .4 -1.6c.1 -.4 .5 -.9 .8 -1.3c.2 -.4 .7 -.8 1.2 -1.1c.4 -.4 1 -.5 1.7 -.6l6.4 -1.5l.3 1.4l-6.2 1.5c-1.2 .3 -1.9 .8 -2.4 1.5c-.6 .5 -.8 1.5 -.9 2.7c.9 -1.8 2.5 -2.6 4.7 -2.6c1.5 0 2.8 .6 3.9 1.7c1 1.1 1.6 2.4 1.6 4c-.1 1.6 -.6 3 -1.7 4.2c-1.2 1.1 -2.5 1.7 -4.1 1.7ZM357.8 642.1c.7 0 1.4 -.2 1.9 -.5c.4 -.4 .7 -.9 .7 -1.5c-.1 -.5 -.2 -.9 -.7 -1.2c-.6 -.4 -1.2 -.5 -2.1 -.5H354v3.7Zm26.1 -.2c.8 -.1 1.5 -.2 2 -.5c.4 -.5 .7 -.9 .7 -1.6c-.1 -.6 -.3 -1.1 -.7 -1.4c-.6 -.3 -1.2 -.5 -2.1 -.5h-3v4Zm127.7 .3c.9 0 1.9 -.2 2.6 -.8c.7 -.5 1.1 -1.2 1.1 -2.1v-.9c-1.1 -.4 -2.2 -.5 -3.3 -.5c-.1 0 -.2 0 -.3 0c-.9 0 -1.6 .2 -2.1 .6c-.7 .4 -.9 .9 -.9 1.6c0 .6 .3 1.2 .9 1.5c.4 .3 1.2 .6 2 .6ZM357.5 636.9c.6 -.1 1.2 -.2 1.6 -.5c.4 -.3 .7 -.7 .7 -1.3c-.1 -.5 -.2 -.8 -.6 -1.1c-.5 -.4 -1 -.4 -1.7 -.4H354v3.3Zm198.3 5.2v-8.5h-4.6v1.6c0 2.8 -.4 5.2 -1.4 6.9Zm-12.9 -4.2v-4.3h-3.6c-.1 0 -.2 0 -.2 0c-.8 0 -1.3 .2 -1.8 .5c-.5 .4 -.7 .9 -.7 1.6c0 .6 .3 1.2 .8 1.6c.4 .3 1.1 .6 2 .6Zm-199.7 4.3c1.2 0 2.3 -.4 3 -1.2c.8 -1 1.2 -1.9 1.2 -3.2c0 -1.2 -.4 -2.2 -1.2 -3.1c-.8 -1 -1.8 -1.3 -3 -1.3c-1.4 0 -2.3 .4 -3.1 1.3c-.8 .7 -1.1 1.9 -1.1 3.1c-.1 1.2 .4 2.3 1.2 3.1c.7 .8 1.8 1.3 3 1.3Zm79.2 0c1.1 0 2.1 -.4 2.9 -1.2c.7 -.9 1.1 -1.8 1.1 -3.2c0 -1.3 -.4 -2.4 -1.1 -3.2c-.8 -.9 -1.8 -1.2 -2.9 -1.2c-1.2 0 -2 .4 -2.9 1.3c-.9 .7 -1.2 1.9 -1.2 3.1c0 1.3 .4 2.4 1.2 3.2c.7 .7 1.8 1.2 2.9 1.2Zm14.2 0c1.2 0 2.2 -.4 3 -1.2c.8 -1 1.2 -1.9 1.2 -3.2c-.1 -1.2 -.4 -2.2 -1.2 -3.1c-.8 -1 -1.8 -1.3 -3 -1.3c-1.4 0 -2.3 .4 -3.1 1.3c-.8 .7 -1.1 1.9 -1.1 3.1c-.1 1.2 .4 2.3 1.2 3.1c.7 .8 1.8 1.3 3 1.3Zm90.1 0c1.1 0 2.1 -.4 2.9 -1.2c.7 -.9 1.1 -1.8 1.1 -3.2c-.1 -1.3 -.4 -2.4 -1.2 -3.2c-.8 -.9 -1.7 -1.2 -2.8 -1.2c-1.2 0 -2.1 .4 -2.9 1.3c-.9 .7 -1.2 1.9 -1.2 3.1c-.1 1.3 .4 2.4 1.2 3.2c.7 .7 1.8 1.2 2.9 1.2ZM314.2 647c-.9 0 -1.7 -.1 -2.5 -.5l.6 -1.4c.5 .3 1.2 .4 1.8 .4c.4 0 1 -.1 1.3 -.4c.3 -.3 .7 -.9 1.1 -1.7l-5.3 -11.3h1.9l4.2 9.5l3.7 -9.5h1.8L318 643.8c-.6 1.2 -1 2 -1.6 2.5c-.7 .4 -1.4 .7 -2.2 .7Zm10.3 -3.6l4.5 -5.8l-4.4 -5.5h2l3.4 4.4l3.4 -4.4h1.9l-4.4 5.5l4.6 5.8h-2l-3.6 -4.6l-3.5 4.6Zm27.7 .2V632.1h5.6c1 0 2 .2 2.7 .7c.6 .5 1 1.2 1 2.1c0 1.2 -.6 2.1 -1.9 2.6c1.7 .4 2.6 1.4 2.6 2.9c0 1 -.4 1.7 -1.2 2.3c-.8 .5 -1.7 .9 -3 .9Zm13 -.2V632.1h1.7v4.8h6.6v-4.8h1.8v11.3h-1.8v-5h-6.6v5Zm13.8 0V632.1h1.8v4.3h3c1.3 0 2.4 .3 3.3 .8c.8 .5 1.2 1.4 1.2 2.6c0 1.1 -.4 1.9 -1.1 2.6c-.9 .7 -1.9 1 -3.2 1Zm11.3 0V632.1h1.8v11.3Zm5.6 0V632.1h1.8V641l6.8 -8.9h1.7v11.3h-1.7v-9l-6.9 9Zm65 .2v-10h-4v-1.5h10v1.5h-4.2v10Zm15.1 -.2V632.1h1.7V641l6.9 -8.9h1.7v11.3h-1.8v-9l-6.8 9Zm58.4 .2l3.6 -4.5c-1 -.2 -1.7 -.6 -2.3 -1.2c-.6 -.7 -.8 -1.4 -.8 -2.2c0 -1.2 .4 -2 1.1 -2.6c.7 -.8 1.9 -1 3.2 -1h5.4v11.5h-1.7v-4.2h-3.2c-.2 .2 -.6 .8 -1.3 1.8c-.9 1 -1.4 1.8 -1.8 2.4Zm12.3 2.8v-4.3h1.2c1 -1.9 1.6 -4.6 1.6 -8v-2h8.1v10h1.5v4.3h-1.5v-2.8h-9.2l-.3 2.8Zm-95.9 -2.7c-1.7 0 -3.1 -.6 -4.2 -1.7c-1.1 -1.3 -1.7 -2.6 -1.7 -4.2c0 -1.6 .6 -3 1.7 -4.1c1.1 -1.3 2.5 -1.8 4.2 -1.8q.1 0 .2 0c1.6 0 3.1 .7 4.4 2l-1.1 1.2c-1.1 -1.1 -2.2 -1.7 -3.5 -1.7c-1.2 0 -2.1 .4 -2.9 1.3c-.9 .7 -1.2 1.9 -1.2 3.1c-.1 1.2 .4 2.3 1.2 3.1c.7 .8 1.8 1.3 3 1.3c1.1 0 2.4 -.5 3.4 -1.7l1.2 1c-1.4 1.4 -2.9 2.2 -4.7 2.2Zm-107.6 0c-1.8 0 -3.2 -.6 -4.3 -1.7c-1.1 -1.2 -1.7 -2.5 -1.7 -4.2c0 -1.6 .6 -3 1.7 -4.1c1.2 -1.3 2.6 -1.8 4.3 -1.8q.1 0 .2 0c1.6 0 3 .6 4.1 1.7c1 1.1 1.7 2.6 1.7 4.2c-.1 1.6 -.6 3 -1.7 4.2c-1.3 1.1 -2.6 1.7 -4.3 1.7Zm93.4 0c-1.8 0 -3.2 -.6 -4.3 -1.7c-1.1 -1.2 -1.7 -2.5 -1.7 -4.2c0 -1.6 .6 -3 1.7 -4.1c1.2 -1.3 2.6 -1.8 4.3 -1.8q.1 0 .2 0c1.6 0 3 .6 4.1 1.7c1 1.1 1.7 2.6 1.7 4.2c-.1 1.6 -.6 3 -1.8 4.2c-1.2 1.1 -2.5 1.7 -4.2 1.7ZM416.5 647V632.1h1.8v2.3c1.1 -1.7 2.6 -2.5 4.4 -2.5q.1 0 .2 0c1.3 0 2.6 .6 3.6 1.6c1.1 1.1 1.7 2.5 1.7 4.3c-.1 1.8 -.6 3.2 -1.7 4.3c-1.1 1.1 -2.3 1.6 -3.8 1.6c-1.9 0 -3.3 -.8 -4.4 -2.4V647Zm104.3 0V632.1h1.8v2.3c1.1 -1.7 2.6 -2.5 4.4 -2.5c0 0 .1 0 .2 0c1.3 0 2.6 .6 3.6 1.6c1.1 1.1 1.7 2.5 1.7 4.3c-.2 1.8 -.6 3.2 -1.7 4.3c-1.1 1.1 -2.4 1.6 -3.8 1.6c-1.9 0 -3.3 -.8 -4.4 -2.4V647Zm-9.6 -3.3c-1.2 0 -2.1 -.3 -3 -.9c-.9 -.7 -1.2 -1.5 -1.2 -2.7c0 -1.2 .4 -2.1 1.3 -2.7c.8 -.8 2.1 -1 3.5 -1c1.1 0 2.4 .2 3.5 .5v-.3c0 -1.1 -.3 -1.8 -.9 -2.4c-.6 -.6 -1.4 -.8 -2.4 -.8c-1.3 0 -2.3 .3 -3.5 .8l-.5 -1.4c1.4 -.6 2.8 -.9 4.2 -.9q.1 0 .2 0c1.5 0 2.7 .5 3.5 1.3c.7 .7 1.2 1.9 1.2 3.3v7h-1.8v-1.8c-1 1.2 -2.4 2 -4.1 2Zm-11.1 0c-1.8 0 -3.4 -.6 -4.8 -1.7l.9 -1.2c1.1 .9 2.5 1.4 3.9 1.4c.7 0 1.4 -.2 2 -.5c.5 -.5 .9 -.8 .9 -1.5c0 -.6 -.3 -1 -.8 -1.3c-.6 -.4 -1.2 -.5 -2.2 -.5h-1.5v-1.5H500c.8 -.1 1.4 -.2 1.9 -.5c.4 -.5 .7 -.8 .7 -1.4c0 -.6 -.2 -.9 -.7 -1.1c-.6 -.4 -1.1 -.5 -1.8 -.5c-1.4 0 -2.5 .4 -3.5 1.1l-.8 -1.1c1.2 -1.1 2.7 -1.5 4.4 -1.5c.1 0 .2 0 .3 0c1.1 0 2.1 .3 2.7 .8c.7 .6 1.2 1.3 1.2 2.2c-.1 1.2 -.6 2.1 -1.8 2.6c1.3 .4 2.1 1.4 2.1 2.8c0 .9 -.4 1.7 -1.2 2.4c-.9 .6 -2 1 -3.4 1ZM306.4 642.1V629.7h-6.5v2.1c-.1 2 -.2 4 -.6 5.8c-.5 1.9 -.9 3.4 -1.6 4.5ZM294.1 647v-4.9h1.6c1.5 -2.5 2.4 -6.2 2.4 -11.2v-2.6h10.1v13.8h2V647h-1.8v-3.4H295.9l-.3 3.4ZM401 630.4c-.9 0 -1.5 -.2 -2.1 -.8c-.6 -.6 -.9 -1.2 -1 -2l1.1 -.2c.3 .9 1 1.5 2 1.5c1 0 1.7 -.5 2 -1.5l1.2 .2c-.3 .8 -.5 1.5 -1.1 2c-.6 .5 -1.3 .8 -2.1 .8Z"/></clipPath>
<clipPath id="ce_20"><path d="M1150.7 669.8c.8 0 1.5 -.2 2 -.5c.4 -.4 .7 -.8 .7 -1.4c-.1 -.6 -.3 -1 -.8 -1.3c-.5 -.4 -1.2 -.5 -2.1 -.5h-3.6v3.7Zm-153.1 0v-8.5H993v1.6c0 2.9 -.5 5.2 -1.4 6.9Zm152.8 -5.2c.6 0 1.3 -.1 1.7 -.4c.3 -.4 .6 -.8 .6 -1.4c-.1 -.4 -.2 -.8 -.6 -1.1c-.5 -.4 -.9 -.4 -1.7 -.4h-3.5v3.3Zm-71.4 5.3c1.1 0 2.2 -.4 2.9 -1.2c.8 -.9 1.2 -1.9 1.2 -3.1c-.1 -1.2 -.4 -2.2 -1.2 -3c-.8 -.9 -1.8 -1.3 -2.9 -1.3q-.1 0 -.2 0c-1.1 0 -2 .5 -2.7 1.2c-.8 .9 -1.2 1.9 -1.2 3.1c0 1.2 .4 2.2 1.2 3.1c.7 .7 1.8 1.2 2.9 1.2Zm-140.4 0c1.1 0 2.1 -.4 2.9 -1.2c.7 -.9 1.1 -1.8 1.1 -3.2c-.1 -1.3 -.4 -2.3 -1.1 -3.2c-.9 -.8 -1.8 -1.2 -2.9 -1.2c-1.2 0 -2.1 .4 -2.9 1.3c-.9 .7 -1.2 1.9 -1.2 3.1c0 1.3 .4 2.4 1.2 3.2c.7 .7 1.8 1.2 2.9 1.2Zm28.7 0c1.1 0 2.1 -.4 2.9 -1.2c.7 -.9 1.1 -1.8 1.1 -3.2c0 -1.3 -.4 -2.3 -1.1 -3.2c-.8 -.8 -1.8 -1.2 -2.9 -1.2c-1.2 0 -2 .4 -2.9 1.3c-.9 .7 -1.2 1.9 -1.2 3.1c0 1.3 .4 2.4 1.2 3.2c.8 .7 1.8 1.2 2.9 1.2Zm14.2 0c1.2 0 2.2 -.4 3 -1.2c.8 -.9 1.2 -1.9 1.2 -3.2c-.1 -1.2 -.4 -2.2 -1.2 -3.1c-.8 -.9 -1.8 -1.3 -3 -1.3c-1.4 0 -2.3 .5 -3.1 1.3c-.8 .8 -1.1 1.9 -1.1 3.1c-.1 1.2 .4 2.3 1.2 3.2c.7 .7 1.8 1.2 3 1.2Zm27.4 0c1.3 0 2.3 -.4 3.1 -1.2c.7 -.9 1.2 -1.9 1.2 -3.2c-.1 -1.2 -.5 -2.2 -1.3 -3.1c-.8 -.9 -1.8 -1.3 -3 -1.3c-1.3 0 -2.3 .5 -3 1.3c-.9 .8 -1.2 1.9 -1.2 3.1c0 1.2 .4 2.3 1.2 3.2c.7 .7 1.8 1.2 3 1.2Zm55.6 0c1.3 0 2.3 -.4 3.1 -1.2c.7 -.9 1.2 -1.9 1.2 -3.2c-.1 -1.2 -.5 -2.2 -1.3 -3.1c-.8 -.9 -1.8 -1.3 -3 -1.3c-1.3 0 -2.2 .5 -3 1.3c-.9 .8 -1.2 1.9 -1.2 3.1c0 1.2 .4 2.3 1.2 3.2c.7 .7 1.8 1.2 3 1.2Zm52.3 -5.1c-.2 -1.1 -.4 -1.9 -1.1 -2.6c-.7 -.7 -1.5 -1.1 -2.6 -1.1c-1 0 -1.8 .4 -2.5 1.1c-.8 .6 -1.1 1.5 -1.2 2.6Zm46.7 5.1c1.2 0 2.2 -.4 3 -1.2c.8 -.9 1.2 -1.9 1.2 -3.2c-.1 -1.2 -.4 -2.2 -1.2 -3.1c-.9 -.9 -1.9 -1.3 -3.1 -1.3c-1.3 0 -2.2 .5 -3 1.3c-.9 .8 -1.2 1.9 -1.2 3.1c0 1.2 .4 2.3 1.2 3.2c.8 .7 1.9 1.2 3.1 1.2ZM919 671.3V659.8h10v11.5h-1.8v-10h-6.5v10Zm28.5 -.2V659.8h1.7v8.9l6.9 -8.9h1.7v11.3H956v-8.9l-6.9 8.9Zm40.9 3v-4.3h1.3c1 -1.9 1.6 -4.6 1.6 -8v-2h8v10h1.6v4.3h-1.6v-2.8h-9.1l-.3 2.8Zm29.5 -3V659.8h1.8v8.9l6.8 -8.9h1.7v11.3h-1.7v-8.9l-6.9 8.9Zm20.7 0V659.8h1.7v8.9l6.9 -8.9h1.7v11.3h-1.8v-8.9l-6.9 8.9Zm65.6 3v-2.8h-16.3V659.8h1.7v10h5.5v-10h1.8v10h5.5v-10h1.8v10h1.6v4.3Zm32.5 -2.8v-10h-4v-1.5h10v1.5h-4.2v10Zm8.4 0V659.8h5.6c1.1 0 2.1 .3 2.7 .8c.6 .4 1.1 1.2 1.1 2c0 1.2 -.7 2.1 -2 2.6c1.7 .5 2.6 1.5 2.6 2.9c0 1 -.4 1.8 -1.1 2.3c-.8 .5 -1.8 .9 -3.1 .9Zm27.4 -.2V659.8h1.7l4.2 5.9l4.1 -5.9h1.7v11.3h-1.8v-8.6l-4.1 5.7l-4.1 -5.7v8.6Zm-267.6 .3c-1.7 0 -3.1 -.5 -4.2 -1.7c-1.1 -1.2 -1.7 -2.5 -1.7 -4.2c0 -1.6 .6 -3 1.7 -4.1c1.1 -1.3 2.5 -1.8 4.2 -1.8c0 0 .1 0 .2 0c1.6 0 3.1 .8 4.4 2.1l-1.1 1.1c-1.1 -1.1 -2.3 -1.7 -3.5 -1.7c-1.3 0 -2.2 .5 -3 1.3c-.8 .8 -1.1 1.9 -1.1 3.1c-.1 1.2 .4 2.3 1.2 3.2c.7 .7 1.8 1.2 3 1.2c1.1 0 2.3 -.5 3.4 -1.7l1.2 1.1c-1.5 1.4 -2.9 2.1 -4.7 2.1Zm221.7 0c-1.7 0 -3 -.5 -4.2 -1.7c-1.1 -1.2 -1.7 -2.5 -1.7 -4.2c0 -1.6 .6 -3 1.7 -4.1c1.1 -1.3 2.6 -1.8 4.2 -1.8q.1 0 .2 0c1.6 0 3.2 .8 4.4 2.1l-1.1 1.1c-1.1 -1.1 -2.2 -1.7 -3.5 -1.7c-1.2 0 -2.1 .5 -2.9 1.3c-.9 .8 -1.2 1.9 -1.2 3.1c0 1.2 .4 2.3 1.2 3.2c.7 .7 1.8 1.2 3 1.2c1.1 0 2.4 -.5 3.5 -1.7l1.1 1.1c-1.4 1.4 -2.9 2.1 -4.7 2.1Zm-145.1 0c-1.8 0 -3.2 -.5 -4.3 -1.7c-1.1 -1.2 -1.7 -2.5 -1.7 -4.2c0 -1.6 .6 -3 1.7 -4.1c1.2 -1.3 2.6 -1.8 4.3 -1.8q.1 0 .2 0c1.6 0 3 .7 4.1 1.8c1 1 1.7 2.5 1.7 4.1c-.1 1.6 -.6 3 -1.8 4.2c-1.2 1.1 -2.5 1.7 -4.2 1.7Zm27.4 0c-1.8 0 -3.1 -.5 -4.3 -1.7c-1.1 -1.2 -1.7 -2.5 -1.7 -4.2c0 -1.6 .6 -3 1.8 -4.1c1.1 -1.3 2.5 -1.8 4.2 -1.8c.1 0 .2 0 .2 0c1.6 0 3 .7 4.1 1.8c1 1 1.7 2.5 1.7 4.1c-.1 1.6 -.6 3 -1.7 4.2c-1.3 1.1 -2.6 1.7 -4.3 1.7Zm55.6 0c-1.8 0 -3.1 -.5 -4.3 -1.7c-1.1 -1.2 -1.7 -2.5 -1.7 -4.2c0 -1.6 .6 -3 1.8 -4.1c1.1 -1.3 2.5 -1.8 4.2 -1.8c.1 0 .2 0 .2 0c1.6 0 3 .7 4.1 1.8c1 1 1.7 2.5 1.7 4.1c-.1 1.6 -.6 3 -1.7 4.2c-1.3 1.1 -2.6 1.7 -4.3 1.7Zm48.9 0c-1.7 0 -3 -.5 -4.1 -1.6c-1.1 -1.1 -1.7 -2.5 -1.7 -4.3c0 -1.6 .5 -3 1.6 -4.2c1 -1.2 2.4 -1.7 4 -1.7c0 0 .1 0 .2 0c1.5 0 2.8 .7 3.7 1.8c.9 1 1.5 2.5 1.5 4.3c-.1 .1 0 .4 0 .6h-9.2c0 1 .5 2 1.3 2.7c.7 .6 1.7 .9 2.8 .9c1.3 0 2.6 -.5 3.6 -1.5l1.1 .9c-1.4 1.4 -2.9 2.1 -4.8 2.1Zm50 0c-1.8 0 -3.1 -.5 -4.2 -1.7c-1.2 -1.2 -1.7 -2.5 -1.7 -4.2c0 -1.6 .5 -3 1.7 -4.1c1.1 -1.3 2.6 -1.8 4.3 -1.8c0 0 .1 0 .2 0c1.6 0 2.9 .7 4 1.8c1.1 1 1.7 2.5 1.7 4.1c-.1 1.6 -.5 3 -1.7 4.2c-1.2 1.1 -2.6 1.7 -4.3 1.7Zm-230.7 3.4v-15h1.8v2.3c1.1 -1.6 2.6 -2.5 4.4 -2.5c0 0 .1 0 .2 0c1.3 0 2.6 .6 3.6 1.6c1.1 1.1 1.7 2.6 1.7 4.3c-.1 1.8 -.6 3.2 -1.7 4.3c-1.1 1.1 -2.3 1.6 -3.8 1.6c-1.9 0 -3.3 -.8 -4.4 -2.4v5.8Zm28.7 0v-15h1.8v2.3c1.1 -1.6 2.6 -2.5 4.4 -2.5q.1 0 .2 0c1.3 0 2.6 .6 3.6 1.6c1.1 1.1 1.7 2.6 1.7 4.3c-.1 1.8 -.6 3.2 -1.7 4.3c-1.1 1.1 -2.3 1.6 -3.8 1.6c-1.9 0 -3.3 -.8 -4.4 -2.4v5.8ZM1079 671.4c-1.8 0 -3.2 -.5 -4.2 -1.7c-1.2 -1.3 -1.6 -2.7 -1.6 -4.7c0 -.8 0 -1.4 0 -1.9c0 -.5 0 -1.1 .1 -1.7c.1 -.7 .3 -1.1 .5 -1.6c.1 -.4 .4 -.9 .7 -1.3c.2 -.4 .7 -.8 1.2 -1.1c.4 -.4 1.1 -.5 1.7 -.6l6.4 -1.5l.4 1.4l-6.2 1.5c-1.2 .3 -2 .8 -2.5 1.5c-.6 .5 -.8 1.5 -.9 2.7c1 -1.8 2.6 -2.6 4.8 -2.6c1.4 0 2.8 .6 3.8 1.7c1.1 1.1 1.6 2.4 1.6 4c-.1 1.6 -.5 3 -1.6 4.2c-1.3 1.1 -2.5 1.7 -4.2 1.7Zm-56 -13.3c-.8 0 -1.5 -.2 -2.1 -.7c-.5 -.6 -.9 -1.2 -1 -2.1l1.2 -.2c.2 .9 .9 1.5 1.9 1.5c1 0 1.7 -.5 2 -1.5l1.2 .2c-.3 .8 -.5 1.5 -1.1 2.1c-.6 .4 -1.3 .7 -2.1 .7ZM930 642.2c1.1 0 2.1 -.4 2.9 -1.2c.7 -.9 1.1 -1.9 1.1 -3.1c-.1 -1.3 -.4 -2.2 -1.2 -3.1c-.8 -.8 -1.7 -1.2 -2.9 -1.2c0 0 -.1 0 -.1 0c-1.2 0 -2 .4 -2.8 1.2c-.8 .8 -1.1 1.9 -1.1 3.1c0 1.1 .4 2.2 1.2 3.1c.7 .7 1.7 1.2 2.9 1.2Zm14.7 0c1.1 0 2.1 -.4 2.8 -1.2c.8 -.9 1.2 -1.8 1.2 -3.2c-.1 -1.3 -.4 -2.4 -1.2 -3.2c-.8 -.9 -1.7 -1.2 -2.8 -1.2c-1.2 0 -2.1 .4 -2.9 1.3c-.9 .7 -1.2 1.9 -1.2 3.1c-.1 1.3 .4 2.4 1.2 3.2c.7 .7 1.8 1.2 2.9 1.2Zm17.4 -5.1c-.2 -1.1 -.5 -2 -1.1 -2.6c-.7 -.8 -1.5 -1.1 -2.6 -1.1c-1.1 0 -1.8 .4 -2.6 1c-.8 .7 -1.1 1.6 -1.2 2.7Zm23.3 0c-.2 -1.1 -.5 -2 -1.1 -2.6c-.7 -.8 -1.5 -1.1 -2.6 -1.1c-1 0 -1.8 .4 -2.5 1c-.8 .7 -1.1 1.6 -1.3 2.7Zm41 0c-.2 -1.1 -.5 -2 -1.1 -2.6c-.7 -.8 -1.5 -1.1 -2.6 -1.1c-1.1 0 -1.9 .4 -2.6 1c-.8 .7 -1.1 1.6 -1.2 2.7Zm33.7 0c-.2 -1.1 -.5 -2 -1.1 -2.6c-.7 -.8 -1.5 -1.1 -2.6 -1.1c-1.1 0 -1.9 .4 -2.6 1c-.8 .7 -1.1 1.6 -1.2 2.7Zm23.4 5.1c1.2 0 2.3 -.4 3.1 -1.2c.7 -1 1.1 -1.9 1.1 -3.2c0 -1.2 -.4 -2.2 -1.2 -3.1c-.8 -1 -1.8 -1.3 -3 -1.3c-1.4 0 -2.3 .4 -3 1.3c-.9 .7 -1.2 1.9 -1.2 3.1c-.1 1.2 .4 2.3 1.2 3.1c.7 .8 1.8 1.3 3 1.3Zm51.9 0c1.3 0 2.3 -.4 3.1 -1.2c.7 -1 1.2 -1.9 1.2 -3.2c-.1 -1.2 -.5 -2.2 -1.3 -3.1c-.8 -1 -1.8 -1.3 -3 -1.3c-1.3 0 -2.3 .4 -3 1.3c-.9 .7 -1.2 1.9 -1.2 3.1c-.1 1.2 .4 2.3 1.2 3.1c.7 .8 1.8 1.3 3 1.3Zm-166.5 1.4v-10h-4v-1.5h10v1.5h-4.3v10Zm21.1 -.2V632.1h1.7v4.8h6.6v-4.8h1.7v11.3h-1.7v-5h-6.6v5Zm13.8 0V632.1h1.8V641l6.8 -8.9h1.7v11.3h-1.7v-9l-6.9 9Zm43.8 3v-2.8h-10V632.1h1.7v10h6.5v-10h1.8v10h1.7v4.3Zm16.6 -2.7c-.6 0 -1 0 -1.4 -.2l.2 -1.4c.2 .1 .6 .1 .8 .1c.3 0 .6 0 .8 -.1c.1 -.1 .4 -.3 .6 -.6c.2 -.4 .5 -.9 .6 -1.5c.1 -.7 .3 -1.6 .4 -2.7c0 -1.3 .1 -2.6 .1 -4.3v-.9h8.1v11.4h-1.8v-9.9h-4.5v.2c-.1 1.8 -.1 3.3 -.3 4.5c-.2 1.1 -.3 2.2 -.5 2.9c-.2 .6 -.5 1.2 -.8 1.6c-.4 .4 -.7 .6 -1.1 .8c-.4 0 -.7 .1 -1.2 .1Zm43.6 -.1v-10h-4v-1.5h10v1.5h-4.2v10Zm8.5 -.2V632.1h1.7v4.8h6.6v-4.8h1.7v11.3h-1.7v-5H1118v5Zm43.4 .2v-10h-4v-1.5h10v1.5h-4.2v10Zm8.5 -.2V632.1h1.7V641l6.9 -8.9h1.7v11.3h-1.8v-9l-6.9 9Zm-70.5 .3c-1.7 0 -3 -.6 -4.2 -1.7c-1.1 -1.3 -1.7 -2.6 -1.7 -4.2c0 -1.6 .6 -3 1.7 -4.1c1.2 -1.3 2.6 -1.8 4.2 -1.8q.1 0 .2 0c1.6 0 3.2 .7 4.4 2l-1.1 1.2c-1.1 -1.1 -2.2 -1.7 -3.5 -1.7c-1.2 0 -2.1 .4 -2.9 1.3c-.9 .7 -1.2 1.9 -1.2 3.1c0 1.2 .4 2.3 1.2 3.1c.7 .8 1.8 1.3 3 1.3c1.1 0 2.4 -.5 3.5 -1.7l1.1 1c-1.4 1.4 -2.9 2.2 -4.7 2.2Zm51.9 0c-1.7 0 -3 -.6 -4.2 -1.7c-1.1 -1.3 -1.7 -2.6 -1.7 -4.2c0 -1.6 .6 -3 1.7 -4.1c1.2 -1.3 2.6 -1.8 4.2 -1.8q.1 0 .2 0c1.6 0 3.2 .7 4.4 2l-1.1 1.2c-1.1 -1.1 -2.2 -1.7 -3.5 -1.7c-1.2 0 -2.1 .4 -2.9 1.3c-.9 .7 -1.2 1.9 -1.2 3.1c0 1.2 .4 2.3 1.2 3.1c.7 .8 1.8 1.3 3 1.3c1.1 0 2.4 -.5 3.5 -1.7l1.1 1c-1.4 1.4 -2.9 2.2 -4.7 2.2Zm-190.9 0c-1.7 0 -3.1 -.5 -4.2 -1.6c-1.1 -1.1 -1.6 -2.6 -1.6 -4.3c0 -1.7 .5 -3 1.6 -4.2c.9 -1.2 2.3 -1.7 3.9 -1.7c.1 0 .2 0 .2 0c1.5 0 2.9 .6 3.8 1.7c.9 1.1 1.4 2.6 1.4 4.4c-.1 .1 0 .4 0 .6h-9.2c.1 1 .6 2 1.3 2.6c.8 .6 1.7 1 2.8 1c1.3 0 2.6 -.5 3.7 -1.5l1 .9c-1.4 1.3 -2.9 2.1 -4.7 2.1Zm23.3 0c-1.7 0 -3 -.5 -4.1 -1.6c-1.2 -1.1 -1.7 -2.6 -1.7 -4.3c0 -1.7 .5 -3 1.6 -4.2c1 -1.2 2.4 -1.7 4 -1.7c0 0 .1 0 .1 0c1.6 0 2.9 .6 3.8 1.7c.9 1.1 1.5 2.6 1.5 4.4c-.1 .1 0 .4 -.1 .6h-9.2c.1 1 .6 2 1.4 2.6c.7 .6 1.7 1 2.7 1c1.4 0 2.6 -.5 3.7 -1.5l1.1 .9c-1.4 1.3 -2.9 2.1 -4.8 2.1Zm40.9 0c-1.6 0 -3 -.5 -4.1 -1.6c-1.1 -1.1 -1.7 -2.6 -1.7 -4.3c0 -1.7 .6 -3 1.6 -4.2c1 -1.2 2.4 -1.7 4 -1.7q.1 0 .2 0c1.5 0 2.8 .6 3.8 1.7c.9 1.1 1.4 2.6 1.4 4.4c-.1 .1 0 .4 0 .6h-9.2c.1 1 .6 2 1.3 2.6c.8 .6 1.7 1 2.8 1c1.3 0 2.6 -.5 3.6 -1.5l1.1 .9c-1.4 1.3 -2.9 2.1 -4.8 2.1Zm33.7 0c-1.6 0 -3 -.5 -4.1 -1.6c-1.1 -1.1 -1.7 -2.6 -1.7 -4.3c0 -1.7 .6 -3 1.6 -4.2c1 -1.2 2.4 -1.7 4 -1.7q.1 0 .2 0c1.5 0 2.8 .6 3.8 1.7c.9 1.1 1.4 2.6 1.4 4.4c-.1 .1 0 .4 0 .6h-9.2c.1 1 .6 2 1.3 2.6c.8 .6 1.7 1 2.8 1c1.3 0 2.6 -.5 3.6 -1.5l1.1 .9c-1.4 1.3 -2.9 2.1 -4.8 2.1Zm26.9 0c-1.8 0 -3.1 -.6 -4.3 -1.7c-1.1 -1.2 -1.7 -2.5 -1.7 -4.2c0 -1.6 .6 -3 1.7 -4.1c1.2 -1.3 2.6 -1.8 4.3 -1.8c.1 0 .2 0 .2 0c1.6 0 3 .6 4.1 1.7c1 1.1 1.7 2.6 1.7 4.2c-.1 1.6 -.6 3 -1.7 4.2c-1.3 1.1 -2.6 1.7 -4.3 1.7Zm51.9 0c-1.8 0 -3.1 -.6 -4.3 -1.7c-1.1 -1.2 -1.7 -2.5 -1.7 -4.2c0 -1.6 .6 -3 1.7 -4.1c1.2 -1.3 2.6 -1.8 4.3 -1.8c.1 0 .2 0 .2 0c1.6 0 3 .6 4.1 1.7c1 1.1 1.7 2.6 1.7 4.2c-.1 1.6 -.6 3 -1.7 4.2c-1.3 1.1 -2.6 1.7 -4.3 1.7ZM938.8 647V632.1h1.8v2.3c1.1 -1.7 2.6 -2.5 4.4 -2.5c0 0 .1 0 .1 0c1.4 0 2.7 .6 3.7 1.6c1.1 1.1 1.6 2.5 1.6 4.3c-.1 1.8 -.5 3.2 -1.6 4.3c-1.1 1.1 -2.4 1.6 -3.8 1.6c-1.9 0 -3.3 -.8 -4.4 -2.4V647Zm-25.6 -4.8c1.6 0 3.2 -.6 4.3 -1.8c1.1 -1.4 1.8 -2.8 1.8 -4.7c-.2 -1.8 -.6 -3.3 -1.8 -4.6c-1.2 -1.2 -2.6 -1.9 -4.4 -1.9c0 0 -.1 0 -.2 0c-1.7 0 -3 .7 -4.1 1.9c-1.2 1.3 -1.8 2.8 -1.8 4.6c0 1.8 .6 3.4 1.8 4.6c1.1 1.2 2.6 1.9 4.4 1.9Zm-.1 1.5c-2.3 0 -4.1 -.8 -5.6 -2.3c-1.6 -1.7 -2.2 -3.5 -2.2 -5.7c0 -2.2 .7 -4 2.2 -5.6c1.4 -1.6 3.4 -2.3 5.7 -2.3c2.2 0 4.1 .7 5.6 2.3c1.4 1.5 2.2 3.4 2.2 5.6c0 2.2 -.7 4.1 -2.2 5.7c-1.6 1.4 -3.4 2.3 -5.7 2.3Zm16.8 0c-1.8 0 -3.1 -.6 -4.2 -1.7c-1.1 -1.3 -1.6 -2.8 -1.6 -4.7c0 -.8 0 -1.4 0 -1.9c0 -.5 .1 -1.1 .2 -1.7c0 -.7 .2 -1.1 .4 -1.6c.1 -.4 .4 -.9 .7 -1.3c.2 -.4 .7 -.8 1.2 -1.1c.5 -.4 1.1 -.5 1.7 -.7l6.5 -1.5l.3 1.5l-6.2 1.5c-1.2 .3 -2 .8 -2.5 1.4c-.6 .6 -.7 1.6 -.8 2.7c.9 -1.7 2.5 -2.5 4.7 -2.5c1.4 0 2.8 .5 3.9 1.7c1 1.1 1.6 2.4 1.6 4c-.1 1.6 -.6 3 -1.7 4.2c-1.2 1.1 -2.5 1.7 -4.2 1.7Z"/></clipPath>
</defs>
<image clip-path="url(#c0_20)" preserveAspectRatio="none" x="150" y="0" width="1167" height="825" xlink:href="img/1.jpg"/>
<image clip-path="url(#c1_20)" preserveAspectRatio="none" x="150" y="0" width="1167" height="825" xlink:href="img/2.jpg"/>
<image clip-path="url(#c2_20)" preserveAspectRatio="none" x="150" y="0" width="1167" height="825" xlink:href="img/3.jpg"/>
<image clip-path="url(#c3_20)" preserveAspectRatio="none" x="150" y="0" width="1167" height="825" xlink:href="img/4.jpg"/>
<image clip-path="url(#c4_20)" preserveAspectRatio="none" x="150" y="0" width="1167" height="825" xlink:href="img/5.jpg"/>
<image clip-path="url(#c5_20)" preserveAspectRatio="none" x="150" y="0" width="1167" height="825" xlink:href="img/6.jpg"/>
<image clip-path="url(#c6_20)" preserveAspectRatio="none" x="150" y="0" width="1167" height="825" xlink:href="img/7.jpg"/>
<image clip-path="url(#c7_20)" preserveAspectRatio="none" x="150" y="0" width="1167" height="825" xlink:href="img/8.jpg"/>
<image clip-path="url(#c8_20)" preserveAspectRatio="none" x="150" y="0" width="1167" height="825" xlink:href="img/9.jpg"/>
<image clip-path="url(#c9_20)" preserveAspectRatio="none" x="150" y="0" width="1167" height="825" xlink:href="img/10.jpg"/>
<image clip-path="url(#ca_20)" preserveAspectRatio="none" x="150" y="0" width="1167" height="825" xlink:href="img/11.jpg"/>
<image clip-path="url(#cb_20)" preserveAspectRatio="none" x="150" y="0" width="1167" height="825" xlink:href="img/12.jpg"/>
<image clip-path="url(#cc_20)" preserveAspectRatio="none" x="150" y="0" width="1167" height="825" xlink:href="img/13.jpg"/>
<image clip-path="url(#cd_20)" preserveAspectRatio="none" x="150" y="0" width="1167" height="825" xlink:href="img/14.jpg"/>
<image clip-path="url(#ce_20)" preserveAspectRatio="none" x="150" y="0" width="1167" height="825" xlink:href="img/15.jpg"/>
</svg>