<?xml version="1.0" encoding="UTF-8" standalone="no"?>
<!DOCTYPE svg PUBLIC "-//W3C//DTD SVG 1.1//EN"
"http://www.w3.org/Graphics/SVG/1.1/DTD/svg11.dtd">
<svg viewBox="0 0 1466 825" version="1.1" xmlns="http://www.w3.org/2000/svg" xmlns:xlink="http://www.w3.org/1999/xlink">
<defs>
<clipPath id="c0_35"><path d="M149.9 825V0h1167V825Z"/></clipPath>
<clipPath id="c1_35"><path d="M631 499.3c.9 -.1 1.8 -.2 2.3 -.6c.5 -.6 .9 -1 .9 -1.7c-.1 -.8 -.3 -1.3 -.9 -1.7c-.7 -.5 -1.3 -.6 -2.3 -.6c-.1 0 -.3 0 -.4 0c-.8 0 -1.4 .3 -1.9 .6c-.7 .4 -.9 1 -.9 1.7c0 .6 .3 1.2 .9 1.7c.5 .3 1.3 .6 2.3 .6Zm161.3 -.1c1 0 1.8 -.2 2.3 -.7c.6 -.6 .9 -1.2 .9 -2c-.1 -.8 -.3 -1.5 -.9 -2c-.6 -.5 -1.4 -.7 -2.4 -.7c-1 0 -1.7 .3 -2.3 .7c-.6 .5 -.8 1.2 -.8 2c-.1 .8 .3 1.5 .9 2c.5 .5 1.3 .7 2.3 .7Zm-28.5 -3v-3.9h8.1v3.9Zm38.5 0v-3.9h8.1v3.9Zm-128 2.9c1.1 -.1 2.2 -.6 2.9 -1.7c.6 -1.1 1.1 -2.5 1.1 -4.2c-.1 -1.7 -.4 -3.1 -1.2 -4.2c-.8 -1.2 -1.7 -1.7 -2.9 -1.7c0 0 -.1 0 -.2 0c-1.1 0 -2 .6 -2.7 1.7c-.7 1 -1.1 2.5 -1.1 4.2c-.1 1.7 .4 3.1 1.1 4.2c.8 1 1.8 1.7 3 1.7Zm43.7 0c1.1 -.1 2.2 -.6 2.9 -1.7c.7 -1.1 1.1 -2.5 1.1 -4.2c-.1 -1.7 -.4 -3.1 -1.1 -4.2c-.8 -1.2 -1.8 -1.7 -2.9 -1.7c-.1 0 -.2 0 -.3 0c-1.1 0 -1.9 .6 -2.6 1.7c-.8 1 -1.2 2.5 -1.2 4.2c0 1.7 .4 3.1 1.2 4.2c.7 1 1.7 1.7 2.9 1.7Zm-62.1 -6.4c1 -.1 1.8 -.2 2.3 -.7c.6 -.6 .9 -1.2 .9 -2c-.1 -.9 -.3 -1.5 -.9 -2.1c-.6 -.6 -1.4 -.8 -2.4 -.8c-1.1 0 -1.7 .3 -2.3 .8c-.5 .5 -.8 1.2 -.8 2.1c0 .7 .3 1.5 .9 2c.5 .4 1.3 .7 2.3 .7Zm80.4 0c1 -.1 1.8 -.2 2.3 -.7c.6 -.6 .9 -1.2 .9 -2c-.1 -.9 -.3 -1.5 -.9 -2.1c-.6 -.6 -1.4 -.8 -2.4 -.8c-1.1 0 -1.7 .3 -2.3 .8c-.5 .5 -.8 1.2 -.8 2.1c-.1 .7 .3 1.5 .9 2c.5 .4 1.3 .7 2.3 .7Zm17.4 0c1 -.1 1.8 -.2 2.4 -.7c.5 -.6 .8 -1.2 .8 -2c-.1 -.9 -.3 -1.5 -.9 -2.1c-.6 -.6 -1.3 -.8 -2.3 -.8q-.1 0 -.1 0c-1.1 0 -1.7 .3 -2.2 .8c-.6 .5 -.9 1.2 -.9 2.1c0 .7 .3 1.5 .9 2c.6 .4 1.4 .7 2.3 .7ZM631 491.5c.7 0 1.4 -.2 1.9 -.6c.4 -.5 .7 -1 .7 -1.7c-.1 -.6 -.2 -1.1 -.7 -1.5c-.5 -.5 -1.1 -.6 -1.9 -.6c-.1 -.1 -.2 -.1 -.3 -.1c-.7 0 -1.2 .3 -1.6 .7c-.5 .3 -.7 .9 -.7 1.5c0 .6 .2 1.2 .7 1.7c.5 .4 1.1 .6 1.9 .6Zm60.9 11.2c-2.7 -.1 -5 -.9 -6.9 -2.7l2.5 -3c1.3 1.3 2.9 2 4.3 2c.9 -.1 1.8 -.2 2.3 -.6c.5 -.6 .8 -1.1 .8 -2c0 -.7 -.3 -1.4 -.9 -1.8c-.6 -.5 -1.4 -.7 -2.3 -.7c-.1 0 -.2 0 -.3 0c-.9 0 -1.8 .3 -2.8 .7l-2.4 -1.5l.6 -9.1h11.3v3.5h-7.9l-.2 3.2c.8 -.3 1.7 -.3 2.5 -.3c.1 0 .2 0 .4 0c1.6 0 3.1 .6 4.2 1.5c1.1 .9 1.8 2.4 1.8 4.5c0 1.8 -.6 3.4 -1.9 4.6c-1.3 1.1 -3 1.7 -5.1 1.7Zm121 -.3l8.2 -14.9h-8.6V484h13.2v3l-8.2 15.4Zm16.3 0l8.2 -14.9h-8.6V484H842v3l-8.2 15.4Zm-52.1 0V488l-3.2 .7l-.8 -3.3l5.2 -1.6h2.8v18.6ZM631 502.7c-2.2 -.1 -3.8 -.5 -5.1 -1.5c-1.4 -1 -2 -2.3 -2 -3.9c-.1 -2.1 1 -3.5 3 -4.5c-1.6 -.9 -2.4 -2.3 -2.4 -4c0 -1.5 .6 -2.7 1.8 -3.6c1.1 -1 2.8 -1.5 4.7 -1.5c.1 0 .3 0 .4 0c1.7 0 3.2 .6 4.3 1.5c1.2 .9 1.8 2.1 1.8 3.6c-.1 1.7 -.8 3.1 -2.4 4c1 .5 1.8 1.2 2.3 1.8c.5 .6 .7 1.6 .7 2.6c0 1.7 -.7 3 -2 4c-1.3 .9 -3 1.5 -5.1 1.5Zm43.2 0c-2.5 -.1 -4.4 -.9 -5.9 -2.7c-1.5 -1.9 -2.2 -4.1 -2.2 -6.8c-.1 -2.8 .7 -5 2.3 -6.8c1.5 -1.9 3.5 -2.7 5.9 -2.7q.1 0 .2 0c2.2 0 4.2 .9 5.7 2.7c1.4 1.7 2.2 4.1 2.2 6.8c0 2.7 -.7 5 -2.3 6.8c-1.5 1.7 -3.5 2.7 -5.9 2.7Zm43.8 0c-2.6 -.1 -4.4 -.9 -6 -2.7c-1.5 -1.9 -2.2 -4.1 -2.2 -6.8c0 -2.8 .8 -5 2.3 -6.8c1.5 -1.9 3.5 -2.7 5.9 -2.7c.1 0 .2 0 .2 0c2.2 0 4.2 .9 5.7 2.7c1.4 1.7 2.3 4.1 2.3 6.8c-.1 2.7 -.8 5 -2.3 6.8c-1.6 1.7 -3.5 2.7 -5.9 2.7Zm74.5 0c-2.4 -.1 -4 -.6 -5.4 -2c-1.5 -1.4 -2.1 -3.8 -2.1 -7c-.1 -3.1 .6 -5.4 2 -7.2c1.3 -1.9 3.4 -2.8 6 -2.8c.1 0 .2 0 .3 0c2 0 3.9 .7 5.5 2l-2.1 3.1c-.7 -.5 -1.3 -.9 -1.9 -1.1c-.6 -.3 -1.2 -.4 -1.9 -.4c-.1 0 -.2 0 -.2 0c-1 0 -1.8 .5 -2.4 1.2c-.6 .8 -1 1.8 -1.1 3.1c1.2 -.8 2.5 -1.2 3.8 -1.2c1.9 0 3.5 .5 4.7 1.6c1.1 .9 1.8 2.5 1.8 4.4c-.1 1.7 -.7 3.3 -2 4.5c-1.4 1.2 -3 1.8 -5 1.8Zm-137.3 0c-2.4 -.1 -4.3 -.7 -6.1 -2.2l2.1 -3c1.3 1 2.7 1.5 4.1 1.5c1 -.1 1.9 -.3 2.5 -1.1c.6 -.8 1.1 -1.8 1.2 -3.1c-1 .9 -2.2 1.3 -3.7 1.3c-2.1 0 -3.7 -.5 -4.8 -1.6c-1.3 -1.1 -1.8 -2.5 -1.8 -4.4c-.1 -1.9 .6 -3.4 2 -4.6c1.2 -1.2 2.9 -1.8 5 -1.8c.2 0 .3 -.1 .4 -.1c1 0 1.9 .3 2.7 .5c.7 .3 1.5 .9 2.2 1.6c1.4 1.3 2.2 3.8 2.2 7c0 2.9 -.7 5.5 -2.1 7.3c-1.5 1.7 -3.4 2.7 -5.9 2.7Zm80.3 0c-2.3 -.1 -4.3 -.7 -6 -2.2l2.1 -3c1.3 1 2.7 1.5 4.1 1.5c1 -.1 1.9 -.3 2.5 -1.1c.6 -.8 1 -1.8 1.2 -3.1c-1 .9 -2.2 1.3 -3.7 1.3c-2.1 0 -3.7 -.5 -4.9 -1.6c-1.2 -1.1 -1.7 -2.5 -1.7 -4.4c-.1 -1.9 .6 -3.4 1.9 -4.6c1.3 -1.2 3 -1.8 5.1 -1.8c.1 0 .3 -.1 .4 -.1c1 0 1.9 .3 2.6 .5c.8 .3 1.6 .9 2.3 1.6c1.4 1.3 2.2 3.8 2.2 7c0 2.9 -.7 5.5 -2.1 7.3c-1.5 1.7 -3.4 2.7 -6 2.7Zm17.5 0c-2.4 -.1 -4.3 -.7 -6.1 -2.2l2.2 -3c1.3 1 2.6 1.5 4 1.5c1.1 -.1 1.9 -.3 2.6 -1.1c.5 -.8 1 -1.8 1.1 -3.1c-1 .9 -2.2 1.3 -3.7 1.3c-2.1 0 -3.6 -.5 -4.8 -1.6c-1.3 -1.1 -1.8 -2.5 -1.8 -4.4c0 -1.9 .7 -3.4 2 -4.6c1.2 -1.2 3 -1.8 5 -1.8c.2 0 .3 -.1 .5 -.1c1 0 1.9 .3 2.6 .5c.7 .3 1.5 .9 2.3 1.6c1.3 1.3 2.1 3.8 2.1 7c0 2.9 -.7 5.5 -2.1 7.3c-1.5 1.7 -3.4 2.7 -5.9 2.7ZM858.8 460.6c1.2 0 1.8 -.5 1.8 -1.4c0 -.9 -.6 -1.3 -1.9 -1.3h-3.1v2.7Zm-215.9 .7c.9 0 1.6 -.3 2.1 -.7c.5 -.6 .9 -1.1 .9 -1.8v-.7c-.8 -.4 -1.6 -.5 -2.5 -.5c-.9 0 -1.5 .2 -1.9 .5c-.6 .3 -.7 .8 -.7 1.5c-.1 .4 .2 .9 .6 1.2c.3 .2 .9 .5 1.5 .5Zm-31.6 -1.1c1.9 -.1 2.9 -.7 2.9 -2.1c0 -1.4 -1 -2.1 -3 -2.1h-4.7v4.2Zm50.8 0v-7.3h-4v.4c0 2.9 -.3 5.3 -1 6.9Zm179 .3c1.1 -.1 2 -.4 2.7 -1.1c.6 -.8 1 -1.7 1 -2.8c0 -1.1 -.3 -2 -1 -2.7c-.8 -.9 -1.6 -1.2 -2.7 -1.2q-.1 0 -.1 0c-1.2 0 -1.9 .4 -2.6 1.1c-.7 .7 -1 1.7 -1 2.8c-.1 1.1 .4 2 1.1 2.8c.6 .7 1.6 1.1 2.6 1.1Zm-110.7 .1c.9 0 1.8 -.4 2.5 -1.1c.6 -.8 1 -1.7 1 -2.9c0 -1.1 -.3 -2.1 -1 -2.8c-.8 -.8 -1.5 -1.1 -2.5 -1.1q-.1 0 -.1 0c-1 0 -1.8 .4 -2.4 1.1c-.8 .7 -1 1.7 -1 2.9c-.1 1.1 .3 2.1 1 2.8c.6 .7 1.5 1.1 2.5 1.1Zm63.6 -5c-.1 -.9 -.4 -1.6 -.9 -2.2c-.6 -.6 -1.2 -.8 -2.1 -.8c-.8 0 -1.5 .3 -2 .8c-.5 .5 -.9 1.3 -1 2.2Zm64.3 -.3c.6 0 1 -.2 1.3 -.4c.2 -.4 .4 -.6 .4 -1c0 -.5 -.1 -.7 -.4 -.9c-.4 -.3 -.7 -.4 -1.2 -.4h-2.8v2.7Zm-188.2 8.3v-14H674v8.2l5.5 -8.2h3.9v14h-4v-8.1l-5.5 8.1Zm16.7 0v-14h4.1l3.8 5.9l3.8 -5.9h4v14h-4v-8.4l-3.9 5.7l-3.8 -5.6v8.3Zm19.4 0v-14h3.9v8.2l5.5 -8.2h3.9v14h-4v-8.1l-5.5 8.1Zm122.1 3.3v-3.3H817.2v-14h4v10.6h5V449.6h3.9v10.6h2l-.5 6.7Zm23.3 -3.3v-14h7.7c1.4 0 2.6 .3 3.4 1c.8 .5 1.3 1.5 1.3 2.6c0 1.4 -.8 2.5 -2.2 3.2c1.8 .5 2.8 1.7 2.8 3.5c-.1 1 -.5 2 -1.4 2.7c-1 .7 -2.2 1 -3.9 1Zm-200 3.3v-6.7h1.5c.8 -2.1 1.3 -5.1 1.3 -9.5v-1.2H666v10.7h2l-.5 6.7h-3.4v-3.3h-8.9l-.3 3.3Zm149.2 -3.3V449.5h12.9v14.1h-3.9V452.9h-5v10.7Zm-159.2 .3c-1.4 0 -2.5 -.3 -3.4 -1.1c-.9 -.8 -1.4 -1.8 -1.4 -3.1c0 -1.5 .6 -2.6 1.6 -3.3c.9 -.8 2.3 -1.1 4.1 -1.1c1 0 2.3 .2 3.4 .5v-.2c0 -1.9 -1 -2.7 -3 -2.7c-1.2 0 -2.4 .3 -3.8 .8l-1 -3c1.6 -.8 3.5 -1.2 5.4 -1.2c.2 0 .3 0 .4 0c1.9 0 3.4 .6 4.4 1.6c1 .9 1.5 2.5 1.5 4.4v8.2h-3.9v-1.5c-1.1 1.1 -2.5 1.7 -4.3 1.7Zm-20.3 -.3c-.7 0 -1.4 -.1 -2 -.2l.3 -3.3c.2 0 .6 .1 .8 .1c.4 -.1 .8 -.1 1.1 -.3c.1 -.3 .5 -.7 .7 -1.4c.1 -.8 .4 -1.8 .4 -3.3c0 -1.6 0 -3.5 0 -5.9h11.3v14.1h-4V452.7h-3.4c-.1 1.9 -.1 3.5 -.2 4.7c-.2 1.3 -.4 2.4 -.6 3.2c-.3 .7 -.6 1.4 -1 1.9c-.5 .3 -.9 .7 -1.5 .9c-.5 .1 -1.1 .2 -1.9 .2Zm101.6 4.3V449.6h4v2c1 -1.5 2.6 -2.3 4.4 -2.3c1.8 0 3.3 .7 4.6 2c1.3 1.2 1.9 3.1 1.9 5.4c0 2.2 -.6 4 -1.9 5.4c-1.2 1.2 -2.8 1.9 -4.6 1.9c-1.8 0 -3.2 -.7 -4.4 -2.1v6Zm45.6 -4.3c-.8 0 -1.4 -.1 -2.1 -.2l.3 -3.3c.2 0 .6 .1 .9 .1c.4 -.1 .8 -.1 1 -.3c.2 -.3 .5 -.7 .8 -1.4c.1 -.8 .3 -1.8 .3 -3.3c0 -1.6 0 -3.5 0 -5.9H781v14.1h-3.9V452.7h-3.4c-.1 1.9 -.1 3.5 -.3 4.7c-.1 1.3 -.3 2.4 -.5 3.2c-.3 .7 -.6 1.4 -1.1 1.9c-.5 .3 -.9 .7 -1.4 .9c-.5 .1 -1.2 .2 -1.9 .2Zm22.9 .3c-2.2 0 -3.9 -.7 -5.3 -2c-1.4 -1.5 -2.1 -3.1 -2.1 -5.3c0 -2 .7 -3.8 2 -5.2c1.2 -1.4 3 -2.1 5 -2.1c2.3 0 4 .7 5.2 2.2c1.1 1.4 1.8 3.2 1.8 5.4c0 .1 0 .5 -.1 1H788c.2 .9 .6 1.6 1.2 2c.5 .4 1.4 .7 2.3 .7c1.2 0 2.4 -.5 3.4 -1.4l2.4 2c-1.6 1.7 -3.4 2.7 -5.9 2.7Zm49.7 0c-2.3 0 -4 -.7 -5.4 -2.1c-1.5 -1.5 -2.2 -3.1 -2.2 -5.2c0 -2 .7 -3.8 2.2 -5.2c1.4 -1.4 3.3 -2.1 5.4 -2.1c2.2 0 4 .7 5.5 2.1c1.4 1.4 2.1 3.1 2.1 5.2c-.1 2.1 -.7 3.8 -2.2 5.2c-1.4 1.3 -3.2 2.1 -5.4 2.1ZM610.2 452.6c2 0 3 -.6 3 -2c0 -.6 -.2 -1.1 -.7 -1.4c-.6 -.4 -1.1 -.5 -2 -.5h-4v3.9Zm-7.7 11V445.3h8.6c2 0 3.7 .5 4.8 1.6c.8 .7 1.2 1.9 1.2 3.2c-.1 1.6 -.7 3 -2.3 3.9c1 .4 2 1 2.5 1.7c.5 .7 .9 1.7 .9 2.9c0 1.5 -.6 2.8 -1.9 3.7c-1.2 .8 -2.9 1.3 -5 1.3Zm155.3 .3c-2.8 0 -5 -.9 -6.8 -2.7c-1.8 -1.9 -2.7 -4.1 -2.7 -6.8c0 -2.7 .9 -4.9 2.7 -6.7c1.8 -1.9 4.1 -2.7 6.9 -2.7c1.6 0 3 .2 4.1 .7c1.1 .5 2.1 1.3 3.1 2.2l-2.4 2.8c-.8 -.8 -1.6 -1.3 -2.2 -1.6c-.8 -.4 -1.6 -.5 -2.6 -.5c-1.5 0 -2.8 .6 -3.8 1.7c-1.1 1.1 -1.5 2.5 -1.5 4.1c0 1.6 .5 3 1.5 4.2c1 1 2.3 1.7 3.8 1.7c1 0 1.9 -.2 2.6 -.6c.6 -.4 1.5 -.9 2.3 -1.6l2.6 2.8c-1.1 .9 -2.1 1.8 -3.3 2.3c-1.2 .4 -2.6 .7 -4.3 .7Z"/></clipPath>
<clipPath id="c2_35"><path d="M639.1 636.7c.9 -.1 1.8 -.2 2.3 -.7c.5 -.5 .9 -1 .9 -1.6c-.1 -.8 -.3 -1.3 -.9 -1.7c-.7 -.5 -1.3 -.6 -2.3 -.6c-.1 0 -.3 0 -.4 0c-.8 0 -1.4 .3 -1.9 .6c-.7 .4 -.9 1 -.9 1.7c0 .6 .3 1.2 .9 1.6c.5 .4 1.3 .7 2.3 .7Zm95.2 -.1c1 0 1.8 -.2 2.3 -.7c.6 -.6 .9 -1.2 .9 -2c-.1 -.8 -.3 -1.5 -.9 -2c-.6 -.5 -1.3 -.7 -2.3 -.7q-.1 0 -.1 0c-1 0 -1.7 .2 -2.2 .7c-.6 .5 -.9 1.2 -.9 2c-.1 .8 .3 1.4 .9 2c.5 .5 1.3 .7 2.3 .7Zm82.3 0c1 0 1.8 -.2 2.3 -.7c.6 -.6 .9 -1.2 .9 -2c-.1 -.8 -.3 -1.5 -.9 -2c-.6 -.5 -1.4 -.7 -2.3 -.7q-.1 0 -.1 0c-1 0 -1.7 .2 -2.3 .7c-.5 .5 -.8 1.2 -.8 2c-.1 .8 .3 1.4 .9 2c.5 .5 1.3 .7 2.3 .7Zm-61.4 -3.1v-3.8h8.1v3.8Zm43.2 0v-3.8h8.1v3.8Zm36.5 2.9c1.1 -.1 2.2 -.5 2.9 -1.6c.7 -1.1 1.1 -2.5 1.1 -4.2c-.1 -1.7 -.4 -3.1 -1.1 -4.2c-.8 -1.2 -1.7 -1.7 -2.9 -1.7c-.1 0 -.2 0 -.2 0c-1.2 0 -2 .6 -2.7 1.7c-.8 1 -1.1 2.5 -1.1 4.2c-.1 1.6 .3 3.1 1.1 4.2c.7 1 1.7 1.6 2.9 1.6ZM664 630.1c1 -.1 1.8 -.2 2.3 -.7c.6 -.6 .9 -1.2 .9 -2.1c-.1 -.9 -.3 -1.5 -.9 -2c-.6 -.6 -1.4 -.8 -2.4 -.8c-1.1 0 -1.7 .3 -2.3 .8c-.5 .5 -.8 1.2 -.8 2.1c0 .7 .3 1.5 .9 2c.5 .4 1.3 .7 2.3 .7Zm52.8 0c1 -.1 1.8 -.2 2.4 -.7c.5 -.6 .8 -1.2 .8 -2.1c-.1 -.9 -.3 -1.5 -.9 -2c-.6 -.6 -1.3 -.8 -2.3 -.8q-.1 0 -.1 0c-1.1 0 -1.7 .3 -2.2 .8c-.6 .5 -.9 1.2 -.9 2.1c0 .7 .3 1.5 .9 2c.6 .4 1.4 .7 2.3 .7Zm-77.7 -1.2c.7 0 1.4 -.2 1.9 -.6c.4 -.5 .7 -1 .7 -1.7c0 -.6 -.2 -1.1 -.7 -1.5c-.5 -.5 -1.1 -.7 -1.9 -.7c-.1 0 -.2 0 -.3 0c-.7 0 -1.2 .3 -1.6 .7c-.5 .3 -.7 .9 -.7 1.5c0 .6 .2 1.2 .7 1.6c.5 .4 1.1 .7 1.9 .7Zm53 11.2c-3.1 -.1 -5.4 -1.1 -7.2 -3.2l2.8 -2.6c1.2 1.4 2.8 2.2 4.4 2.2c.7 0 1.4 -.2 1.9 -.6c.4 -.5 .7 -1 .7 -1.7c-.1 -.8 -.3 -1.4 -.9 -1.8c-.8 -.5 -1.6 -.6 -2.7 -.6h-1.7l-.6 -2.5l4.4 -4.5h-7.3v-3.4h12.5v3l-4.7 4.5c3.3 .5 5 2.3 5 5.2c-.1 1.7 -.6 3.2 -1.8 4.3c-1.2 1 -2.8 1.7 -4.8 1.7Zm80.4 0c-3 -.1 -5.4 -1.1 -7.2 -3.2l2.8 -2.6c1.3 1.4 2.8 2.2 4.5 2.2c.7 0 1.4 -.2 1.8 -.6c.5 -.5 .8 -1 .8 -1.7c-.1 -.8 -.3 -1.4 -1 -1.8c-.7 -.5 -1.5 -.6 -2.6 -.6h-1.7l-.6 -2.5l4.3 -4.5h-7.2v-3.4h12.5v3l-4.7 4.5c3.2 .5 4.9 2.3 4.9 5.2c0 1.7 -.6 3.2 -1.8 4.3c-1.2 1 -2.8 1.7 -4.8 1.7Zm-95.1 -.3V625.3l-3.2 .8l-.8 -3.3l5.3 -1.6h2.7v18.6Zm70 0V625.3l-3.2 .8l-.8 -3.3l5.3 -1.6h2.7v18.6Zm34.6 0v-3.2l6.1 -5.1c1.2 -1 2.1 -1.8 2.5 -2.4c.4 -.6 .7 -1.2 .7 -2c-.1 -.8 -.2 -1.3 -.7 -1.7c-.5 -.5 -1 -.7 -1.8 -.7c-.1 0 -.2 0 -.2 0c-.7 0 -1.2 .3 -1.6 .6c-.7 .3 -1.2 1 -1.9 1.9l-2.9 -2.3c.9 -1.3 2 -2.3 3 -2.9c1 -.7 2.3 -.9 3.9 -.9c.1 0 .2 0 .4 0c1.7 0 3.1 .6 4.2 1.6c1.1 1 1.7 2.4 1.7 4.1c0 1 -.2 1.9 -.6 2.7c-.4 .8 -.8 1.5 -1.5 2.1c-.6 .6 -1.5 1.4 -2.7 2.4l-3 2.3h8v3.5Zm-142.9 .3c-2.2 -.1 -3.8 -.5 -5.1 -1.5c-1.4 -1 -2 -2.3 -2 -3.9c-.1 -2.1 1 -3.6 3 -4.5c-1.6 -.9 -2.4 -2.3 -2.4 -4c0 -1.5 .6 -2.7 1.8 -3.6c1.1 -1 2.8 -1.5 4.7 -1.5c.1 0 .3 0 .4 0c1.7 0 3.2 .6 4.3 1.5c1.2 .9 1.8 2.1 1.8 3.6c-.1 1.7 -.8 3.1 -2.4 4c1 .5 1.8 1.2 2.3 1.8c.5 .6 .7 1.6 .7 2.6c0 1.6 -.6 3 -2 4c-1.3 .9 -3 1.5 -5.1 1.5Zm195.8 0c-2.6 -.1 -4.4 -.9 -5.9 -2.7c-1.6 -1.9 -2.3 -4.1 -2.3 -6.8c0 -2.8 .8 -5 2.3 -6.8c1.5 -1.9 3.5 -2.8 5.9 -2.8c.1 0 .2 0 .3 0c2.2 0 4.1 1 5.6 2.8c1.4 1.7 2.3 4 2.3 6.8c-.1 2.7 -.8 5 -2.3 6.8c-1.6 1.7 -3.5 2.7 -5.9 2.7Zm-100.4 0c-2.3 -.1 -4 -.7 -5.3 -2c-1.6 -1.4 -2.2 -3.8 -2.2 -7c0 -3.1 .7 -5.4 2 -7.3c1.4 -1.8 3.4 -2.8 6.1 -2.8c.1 0 .2 0 .2 0c2 0 3.9 .8 5.5 2.1l-2.1 3.1c-.7 -.5 -1.3 -.9 -1.8 -1.1c-.7 -.3 -1.2 -.4 -2 -.4q-.1 0 -.2 0c-1 0 -1.8 .5 -2.3 1.2c-.7 .8 -1 1.8 -1.2 3.1c1.2 -.9 2.5 -1.2 3.8 -1.2c1.9 0 3.5 .5 4.7 1.6c1.2 .9 1.8 2.5 1.8 4.3c-.1 1.8 -.7 3.4 -2 4.6c-1.4 1.1 -3 1.8 -5 1.8Zm82.3 0c-2.4 -.1 -4 -.7 -5.3 -2c-1.6 -1.4 -2.2 -3.8 -2.2 -7c-.1 -3.1 .6 -5.4 2 -7.3c1.3 -1.8 3.4 -2.8 6 -2.8c.1 0 .2 0 .3 0c2 0 3.9 .8 5.5 2.1l-2.1 3.1c-.7 -.5 -1.3 -.9 -1.9 -1.1c-.6 -.3 -1.2 -.4 -1.9 -.4c-.1 0 -.2 0 -.2 0c-1 0 -1.8 .5 -2.4 1.2c-.6 .8 -1 1.8 -1.1 3.1c1.2 -.9 2.5 -1.2 3.8 -1.2c1.9 0 3.5 .5 4.7 1.6c1.1 .9 1.8 2.5 1.8 4.3c-.1 1.8 -.7 3.4 -2 4.6c-1.4 1.1 -3 1.8 -5 1.8Zm-153.5 0c-2.4 -.1 -4.3 -.7 -6.1 -2.2l2.1 -3.1c1.3 1.1 2.7 1.6 4.1 1.6c1 -.1 1.9 -.4 2.5 -1.1c.6 -.8 1.1 -1.8 1.2 -3.1c-1 .8 -2.2 1.3 -3.7 1.3c-2.1 0 -3.6 -.5 -4.8 -1.6c-1.3 -1.1 -1.8 -2.5 -1.8 -4.4c-.1 -1.9 .6 -3.4 2 -4.6c1.2 -1.3 2.9 -1.9 5 -1.9c.2 0 .3 0 .5 0c.9 0 1.8 .2 2.6 .5c.7 .3 1.5 .8 2.2 1.6c1.4 1.3 2.2 3.7 2.2 7c0 2.9 -.7 5.4 -2.1 7.3c-1.5 1.7 -3.4 2.7 -5.9 2.7Zm52.8 0c-2.4 -.1 -4.3 -.7 -6.1 -2.2l2.2 -3.1c1.3 1.1 2.6 1.6 4 1.6c1 -.1 1.9 -.4 2.6 -1.1c.5 -.8 1 -1.8 1.1 -3.1c-1 .8 -2.2 1.3 -3.7 1.3c-2.1 0 -3.6 -.5 -4.8 -1.6c-1.3 -1.1 -1.8 -2.5 -1.8 -4.4c0 -1.9 .7 -3.4 2 -4.6c1.2 -1.3 3 -1.9 5 -1.9c.2 0 .3 0 .5 0c.9 0 1.9 .2 2.6 .5c.7 .3 1.5 .8 2.2 1.6c1.4 1.3 2.2 3.7 2.2 7c0 2.9 -.7 5.4 -2.1 7.3c-1.5 1.7 -3.4 2.7 -5.9 2.7Zm3.5 -41.4c.9 0 1.6 -.3 2.2 -.7c.4 -.6 .8 -1.1 .8 -1.8v-.7c-.7 -.4 -1.5 -.5 -2.5 -.5c-.9 0 -1.4 .2 -1.9 .5c-.6 .3 -.7 .8 -.7 1.5c-.1 .4 .2 .9 .6 1.2c.3 .2 .9 .5 1.5 .5ZM787.3 593c-.2 -.9 -.5 -1.6 -1 -2.2c-.5 -.6 -1.2 -.8 -2 -.8c-.8 0 -1.5 .3 -2 .8c-.6 .5 -.9 1.3 -1.1 2.2Zm-116 .6l-2.4 -6l-2.5 6Zm77.6 0l-2.5 -6l-2.4 6Zm9.6 7.4V587h4.1l3.8 5.9l3.8 -5.9h4v14h-4v-8.4l-3.9 5.7l-3.8 -5.6V601Zm35.6 0V587H798v5.2h5V587h4v14h-4v-5.3h-5V601Zm-75.7 .3c-1.5 0 -2.6 -.4 -3.5 -1.1c-.9 -.8 -1.3 -1.8 -1.3 -3.1c0 -1.5 .5 -2.6 1.5 -3.3c.9 -.8 2.4 -1.1 4.1 -1.1c1 0 2.3 .2 3.4 .5V593c0 -1.9 -1 -2.7 -3 -2.7c-1.2 0 -2.4 .3 -3.8 .8l-1 -3.1c1.6 -.7 3.5 -1.1 5.5 -1.1c.1 0 .2 0 .3 0c1.9 0 3.4 .6 4.4 1.6c1 .9 1.5 2.5 1.5 4.4v8.2h-3.9v-1.5c-1.1 1 -2.5 1.7 -4.2 1.7Zm-37 -.3c-.7 0 -1.4 -.1 -2 -.3l.3 -3.2c.2 0 .6 0 .8 0c.4 0 .8 -.1 1.1 -.3c.1 -.2 .5 -.6 .7 -1.3c.1 -.8 .4 -1.8 .4 -3.3c0 -1.6 0 -3.5 0 -5.9H694v14.1h-4V590.1h-3.4c-.1 1.8 -.1 3.5 -.2 4.7c-.2 1.3 -.4 2.4 -.6 3.2c-.3 .7 -.6 1.4 -1 1.8c-.5 .4 -1 .8 -1.5 .9c-.5 .2 -1.1 .3 -1.9 .3Zm16.7 0c-.8 0 -1.5 -.1 -2.1 -.3l.3 -3.2c.2 0 .6 0 .9 0c.3 0 .7 -.1 1 -.3c.2 -.2 .5 -.6 .7 -1.3c.1 -.8 .4 -1.8 .4 -3.3c0 -1.6 0 -3.5 0 -5.9h11.3v14.1h-4V590.1h-3.4c-.1 1.8 -.1 3.5 -.2 4.7c-.2 1.3 -.3 2.4 -.6 3.2c-.3 .7 -.6 1.4 -1 1.8c-.5 .4 -.9 .8 -1.4 .9c-.6 .2 -1.2 .3 -1.9 .3Zm86.6 .3c-2.2 0 -4 -.7 -5.4 -2c-1.4 -1.5 -2 -3.1 -2 -5.3c0 -2.1 .6 -3.8 1.9 -5.2c1.3 -1.5 3 -2.1 5.1 -2.1c2.2 0 4 .7 5.1 2.2c1.2 1.4 1.8 3.2 1.8 5.4c0 .1 0 .5 0 1h-9.9c.1 .9 .6 1.5 1.2 2c.5 .4 1.3 .7 2.2 .7c1.2 0 2.4 -.5 3.5 -1.4l2.3 2c-1.5 1.7 -3.4 2.7 -5.8 2.7Zm-125.5 -.2L667 582.7h3.8l7.9 18.4h-4.3L672.8 597H665l-1.7 4.1Zm77.5 0l7.9 -18.4h3.7l7.9 18.4H752L750.3 597h-7.8l-1.7 4.1Z"/></clipPath>
</defs>
<image clip-path="url(#c0_35)" preserveAspectRatio="none" x="150" y="0" width="1167" height="825" xlink:href="img/1.jpg"/>
<image clip-path="url(#c1_35)" preserveAspectRatio="none" x="150" y="0" width="1167" height="825" xlink:href="img/2.jpg"/>
<image clip-path="url(#c2_35)" preserveAspectRatio="none" x="150" y="0" width="1167" height="825" xlink:href="img/3.jpg"/>
</svg>