<?xml version="1.0" encoding="UTF-8" standalone="no"?>
<!DOCTYPE svg PUBLIC "-//W3C//DTD SVG 1.1//EN"
"http://www.w3.org/Graphics/SVG/1.1/DTD/svg11.dtd">
<svg viewBox="0 0 1466 825" version="1.1" xmlns="http://www.w3.org/2000/svg" xmlns:xlink="http://www.w3.org/1999/xlink">
<defs>
<clipPath id="c0_25"><path d="M149.9 825V0h1167V825Z"/></clipPath>
<clipPath id="c1_25"><path d="M149.9 825V83.2H1229.7c1.9 0 3.4 1.5 3.4 3.3V821.7c0 1.8 -1.5 3.3 -3.4 3.3Z"/></clipPath>
<clipPath id="c2_25"><path d="M772.6 161v-6.2h6.3V161ZM484.9 155.6c2.9 -.1 4.4 -1.3 4.4 -3.8c0 -2.5 -1.5 -3.7 -4.4 -3.7h-5.3v7.5Zm126.8 -3.8v-5.7h11.9v5.7ZM388.8 149.7l-3.6 -8.8l-3.6 8.8Zm383.8 -3.3v-6.2h6.3v6.2Zm-497 1.3c1.5 0 2.7 -.4 3.5 -1.2c.8 -.8 1.3 -1.8 1.3 -3c-.1 -1.4 -.4 -2.4 -1.3 -3.1c-1 -.7 -2.1 -1 -3.6 -1h-4.7v8.3Zm84.5 0c1.4 0 2.6 -.4 3.5 -1.2c.7 -.8 1.3 -1.8 1.3 -3c-.1 -1.4 -.5 -2.4 -1.3 -3.1c-1 -.7 -2.1 -1 -3.7 -1h-4.6v8.3Zm400.1 -.6v-7.7h-5.9c-1.5 0 -2.6 .3 -3.4 1c-1 .6 -1.3 1.6 -1.3 2.9c0 1 .4 2 1.3 2.7c.7 .7 1.9 1.1 3.3 1.1Zm-455.5 8.7c2.3 -.1 4.3 -.8 5.8 -2.5c1.5 -1.6 2.3 -3.6 2.3 -6.1c-.1 -2.4 -.8 -4.4 -2.3 -6c-1.7 -1.7 -3.5 -2.5 -5.9 -2.5c-2.4 0 -4.3 .8 -5.9 2.5c-1.6 1.6 -2.3 3.6 -2.3 6c0 2.4 .8 4.5 2.4 6.1c1.4 1.6 3.5 2.5 5.9 2.5Zm288.1 0c2.3 -.1 4.4 -.8 5.9 -2.5c1.5 -1.6 2.3 -3.6 2.3 -6.1c-.1 -2.4 -.8 -4.4 -2.4 -6c-1.6 -1.7 -3.5 -2.5 -5.8 -2.5c-2.5 0 -4.4 .8 -5.9 2.5c-1.6 1.6 -2.3 3.6 -2.3 6c-.1 2.4 .8 4.5 2.3 6.1c1.5 1.6 3.5 2.5 5.9 2.5Zm49.6 0c2.4 -.1 4.4 -.8 5.9 -2.5c1.5 -1.6 2.3 -3.6 2.3 -6.1c-.1 -2.4 -.8 -4.4 -2.4 -6c-1.6 -1.7 -3.5 -2.5 -5.8 -2.5c-2.5 0 -4.4 .8 -5.9 2.5c-1.6 1.6 -2.3 3.6 -2.3 6c-.1 2.4 .8 4.5 2.3 6.1c1.5 1.6 3.6 2.5 5.9 2.5Zm-407.5 5.3V134h22.6v27.1h-6V139.4H240.8v21.7Zm90.4 0V134h19v5.4h-13v21.7ZM742.8 161l6.6 -9.7c-3.9 -1.5 -5.8 -4.2 -5.8 -8.4c0 -2.9 .9 -5 2.7 -6.6c1.8 -1.6 4.3 -2.3 7.5 -2.3h12.4v27h-6v-8.7h-4.6l-5.9 8.7Zm-478 .1V134H276c.1 0 .3 0 .4 0c3 0 5.4 .9 7.2 2.6c1.9 1.6 2.8 4 2.8 6.8c-.1 3 -1 5.4 -3.1 7.1c-2.1 1.6 -4.7 2.5 -7.9 2.5h-4.6v8.1Zm84.5 0V134h11.1c.2 0 .3 0 .5 0c2.9 0 5.4 .9 7.2 2.6c1.8 1.6 2.8 4 2.8 6.8c-.1 3 -1 5.4 -3.1 7.1c-2.2 1.6 -4.8 2.5 -8 2.5h-4.5v8.1ZM668.2 161V139.4h-8.3v-5.5h22.5v5.5h-8.2V161Zm-263.5 0V133.8h6.5l7.1 11.5l7.2 -11.5h6.4V161H426V143.2l-7.7 11.6h-.1l-7.6 -11.4V161Zm34.5 0V133.8h6.4l7.2 11.5L460 133.8h6.4V161h-5.9V143.2l-7.7 11.6h-.2L445 143.4V161Zm34.4 0V133.8h6V143h5.8c3 0 5.5 .8 7.2 2.4c1.8 1.6 2.7 3.7 2.7 6.4c-.1 2.8 -1 5.1 -2.8 6.7c-1.9 1.6 -4.4 2.5 -7.5 2.5Zm24.7 0V133.8h5.9V161Zm54.2 0V133.8h6v11.9l11 -11.9h7.2l-11 11.5L577.2 161H570l-8.4 -11.6l-3.1 3.3V161Zm135.3 0V133.7h20.5V139H693.8v5.7h12.8V150H693.8v5.7h14.6V161Zm-316.9 .1l11.6 -27.4H388l11.7 27.4h-6.3L390.9 155H379.4l-2.4 6.1Zm344.1 .2c-1.2 0 -2.2 -.1 -3.1 -.3l.4 -5c.3 .1 .7 .1 .9 .1c.8 0 1.6 -.2 2.2 -.6c.5 -.4 1 -1.1 1.5 -2.2c.4 -1.3 .8 -2.9 1.1 -5.2c.2 -2.3 .3 -5.2 .3 -8.8v-5.6h19.3V161h-6V139.1h-7.8v2.1c0 5.2 -.3 9.4 -.9 12.3c-.7 2.9 -1.6 5 -2.8 6.1c-1.3 1 -2.9 1.7 -5.1 1.7Zm-182.4 0c-2.7 0 -4.7 -.4 -6.5 -1.1c-1.9 -.8 -3.4 -1.9 -4.9 -3.5l3.7 -4c1.1 1.1 2.4 1.9 3.5 2.5c1.1 .4 2.5 .8 4 .8c1.8 -.1 3.5 -.6 4.9 -1.8c1.4 -1.2 2.3 -2.7 2.8 -4.6H528.9v-4.9H540c-.5 -1.8 -1.4 -3.2 -2.8 -4.3c-1.5 -1.2 -3 -1.7 -4.8 -1.7c-2.7 0 -5 .9 -7.1 2.8L522 137.4c2.9 -2.7 6.3 -4.1 10.3 -4.1c.2 0 .3 0 .4 0c3.9 0 7.2 1.5 9.8 4.1c2.6 2.7 4 6 4 9.9c-.1 3.9 -1.4 7.3 -4 10c-2.7 2.6 -6 4 -9.9 4Zm-228 0c-4.2 0 -7.6 -1.4 -10.3 -4.1c-2.8 -2.8 -4.1 -6 -4.1 -10c0 -3.9 1.4 -7.2 4.1 -9.9c2.7 -2.8 6.2 -4.1 10.4 -4.1c0 0 .1 0 .2 0c4 0 7.4 1.4 10.1 4.1c2.7 2.6 4.1 6 4.1 9.9c-.1 3.9 -1.4 7.3 -4.2 10c-2.8 2.7 -6.2 4.1 -10.3 4.1Zm288.1 0c-4.1 0 -7.5 -1.4 -10.3 -4.1c-2.7 -2.8 -4 -6 -4 -10c0 -3.9 1.3 -7.2 4.1 -9.9c2.7 -2.8 6.2 -4.1 10.3 -4.1c.1 0 .2 0 .2 0c4 0 7.4 1.4 10.1 4.1c2.7 2.6 4.1 6 4.1 9.9c-.1 3.9 -1.4 7.3 -4.1 10c-2.8 2.7 -6.2 4.1 -10.4 4.1Zm49.6 0c-4.1 0 -7.5 -1.4 -10.2 -4.1c-2.8 -2.8 -4.1 -6 -4.1 -10c0 -3.9 1.3 -7.2 4.1 -9.9c2.7 -2.8 6.2 -4.1 10.3 -4.1c.1 0 .2 0 .2 0c4 0 7.4 1.4 10.1 4.1c2.7 2.6 4.1 6 4.1 9.9c-.1 3.9 -1.4 7.3 -4.1 10c-2.8 2.7 -6.2 4.1 -10.4 4.1Z"/></clipPath>
<clipPath id="c3_25"><path d="M594.6 403.3v-2.4h2.2v2.4ZM431.3 402.1c1.1 -.1 2.1 -.3 2.8 -.9c.7 -.7 1.2 -1.4 1.2 -2.3v-1.1c-1.2 -.4 -2.3 -.5 -3.5 -.5c-1.1 0 -1.9 .3 -2.5 .7c-.7 .3 -1 1 -1 1.7c0 .7 .3 1.3 .9 1.7c.6 .4 1.3 .7 2.1 .7Zm62.3 0c1.1 -.1 2.1 -.3 2.8 -.9c.7 -.7 1.2 -1.4 1.2 -2.3v-1.1c-1.2 -.4 -2.3 -.5 -3.5 -.5c-1.1 0 -1.9 .3 -2.5 .7c-.7 .3 -1 1 -1 1.7c0 .7 .3 1.3 .9 1.7c.6 .4 1.3 .7 2.1 .7Zm91.6 0c1 -.1 2 -.3 2.8 -.9c.7 -.7 1.2 -1.4 1.2 -2.3v-1.1c-1.3 -.4 -2.4 -.5 -3.5 -.5c-1.1 0 -1.9 .3 -2.6 .7c-.6 .3 -.9 1 -.9 1.7c0 .7 .3 1.3 .9 1.7c.5 .4 1.3 .7 2.1 .7ZM448.7 397.4v-4.5h-3.8c-.1 0 -.2 0 -.3 0c-.7 0 -1.3 .3 -1.8 .6c-.6 .4 -.7 .9 -.7 1.6c-.1 .7 .3 1.3 .8 1.7c.5 .4 1.2 .6 2.1 .6Zm-59.5 4.7c1.3 -.1 2.4 -.5 3.2 -1.4c.8 -.9 1.3 -2 1.3 -3.3c-.1 -1.3 -.5 -2.4 -1.3 -3.3c-.9 -1 -2 -1.4 -3.2 -1.4c-1.4 0 -2.4 .4 -3.2 1.3c-.9 .9 -1.2 2.1 -1.2 3.4c-.1 1.3 .4 2.4 1.3 3.3c.8 .9 1.9 1.4 3.1 1.4Zm151.1 0c1.3 -.1 2.3 -.5 3.2 -1.4c.7 -.9 1.2 -2 1.2 -3.3c0 -1.3 -.4 -2.4 -1.3 -3.3c-.9 -1 -1.9 -1.4 -3.2 -1.4c-1.4 0 -2.3 .4 -3.2 1.3c-.8 .9 -1.2 2.1 -1.2 3.4c-.1 1.3 .4 2.4 1.3 3.3c.8 .9 1.9 1.4 3.2 1.4Zm15.5 0c1.1 -.1 2.2 -.5 3 -1.3c.7 -.9 1.2 -2 1.2 -3.5c0 -1.5 -.4 -2.5 -1.2 -3.4c-.9 -.9 -1.8 -1.3 -3 -1.3c-.1 0 -.2 0 -.3 0c-1.1 0 -2 .5 -2.8 1.4c-.9 .8 -1.3 2 -1.3 3.4c0 1.3 .5 2.5 1.3 3.3c.9 .9 1.9 1.4 3.1 1.4Zm-36.9 0c.9 -.1 1.9 -.4 2.7 -1.2v-7.1c-.8 -.8 -1.7 -1.2 -2.7 -1.2c-.1 0 -.2 0 -.3 0c-1 0 -1.7 .5 -2.3 1.3c-.6 .8 -.8 2 -.8 3.5c-.1 3.1 1.1 4.7 3.4 4.7Zm7.2 0c2.2 -.1 3.5 -1.6 3.5 -4.8c0 -1.4 -.3 -2.6 -.9 -3.4c-.6 -.9 -1.4 -1.3 -2.6 -1.3q-.1 0 -.2 0c-1 0 -1.7 .5 -2.5 1.2v7.1c.7 .7 1.7 1.2 2.7 1.2Zm-64.9 1.4V391.4h10.6v12.1h-1.9V393h-6.8v10.5Zm13.8 .2c-.5 0 -1 -.1 -1.5 -.2l.2 -1.6c.4 0 .7 .2 .9 .2c.2 -.1 .6 -.1 .8 -.2c.2 -.1 .5 -.3 .8 -.6c.2 -.5 .4 -.9 .6 -1.6c.1 -.7 .2 -1.6 .3 -2.8c.1 -1.3 .2 -2.7 .2 -4.5v-1h8.6v12.1h-1.8V393h-5v.3c0 1.7 0 3.4 -.2 4.7c-.2 1.2 -.3 2.3 -.5 3c-.3 .7 -.5 1.3 -.9 1.7c-.5 .4 -.8 .7 -1.1 .8c-.4 0 -.9 .2 -1.4 .2Zm31.2 -.2V393h-4.3v-1.6h10.6V393H508v10.5Zm-217.7 -.2v-12h1.9v9.5l7.2 -9.5h1.8v12h-1.9v-9.5l-7.2 9.5Zm27.9 0v-12h1.9v7l6.6 -7h2.3l-5.1 5.2l5.2 6.8h-2.1l-4.4 -5.5l-2.5 2.6v2.9Zm52.5 0v-12h1.9v9.5l7.2 -9.5h1.8v12h-1.9v-9.5l-7.2 9.5Zm29.7 0v-12h1.8v5.1h6.9v-5.1h1.9v12h-1.9V398h-6.9v5.3Zm14.4 0v-12h1.9v5.1h6.9v-5.1h1.9v12h-1.9V398h-6.9v5.3Zm26.8 0l3.7 -4.6c-1.1 -.2 -1.8 -.6 -2.4 -1.3c-.7 -.6 -.9 -1.4 -.9 -2.3c0 -1.2 .4 -2 1.2 -2.7c.8 -.7 2 -1.1 3.4 -1.1h5.7v12h-1.8V399h-3.3c-.2 .2 -.7 .8 -1.5 1.9c-.8 1 -1.4 1.9 -1.9 2.4Zm125.2 0v-12h1.8l4.5 6.4l4.4 -6.4h1.8v12h-1.9v-9.1l-4.4 6.1l-4.4 -6.1v9.1ZM331.4 407c-.9 0 -1.7 -.2 -2.6 -.6l.7 -1.4c.4 .2 1.2 .4 1.9 .4c.5 0 1 -.2 1.3 -.5c.3 -.4 .8 -.9 1.2 -1.8l-5.6 -11.9h2l4.4 10l4 -10h1.9l-5.1 12.4c-.6 1.1 -1.1 2.1 -1.7 2.6c-.8 .5 -1.4 .8 -2.4 .8Zm-22.6 -3.3c-1.9 0 -3.3 -.7 -4.5 -1.9c-1.2 -1.3 -1.8 -2.7 -1.8 -4.4c0 -1.8 .6 -3.2 1.8 -4.5c1.2 -1.3 2.7 -1.8 4.5 -1.8c1.8 0 3.5 .7 4.8 2.1l-1.1 1.3c-1.3 -1.3 -2.4 -1.8 -3.8 -1.8c-1.3 0 -2.2 .4 -3.1 1.3c-.9 .9 -1.2 2.1 -1.2 3.4c-.1 1.3 .4 2.4 1.3 3.3c.8 .9 1.9 1.4 3.1 1.4c1.3 -.1 2.6 -.6 3.7 -1.8l1.2 1c-1.5 1.6 -3 2.4 -4.9 2.4Zm39.3 0c-1.9 0 -3.3 -.7 -4.5 -1.9c-1.2 -1.3 -1.8 -2.7 -1.8 -4.4c0 -1.8 .6 -3.2 1.8 -4.5c1.2 -1.3 2.7 -1.8 4.5 -1.8h.1c1.7 0 3.4 .7 4.7 2.1l-1.1 1.3c-1.2 -1.3 -2.4 -1.8 -3.7 -1.8c-1.3 0 -2.3 .4 -3.1 1.3c-.9 .9 -1.3 2.1 -1.3 3.4c-.1 1.3 .4 2.4 1.3 3.3c.8 .9 1.9 1.4 3.2 1.4c1.3 -.1 2.5 -.6 3.6 -1.8l1.2 1c-1.4 1.6 -3 2.4 -4.9 2.4Zm13.2 0c-1.9 0 -3.2 -.7 -4.4 -1.9c-1.3 -1.3 -1.8 -2.7 -1.8 -4.4c0 -1.8 .6 -3.2 1.8 -4.5c1.1 -1.3 2.6 -1.8 4.4 -1.8c0 0 .1 0 .1 0c1.7 0 3.4 .7 4.8 2.1l-1.2 1.3c-1.2 -1.3 -2.4 -1.8 -3.7 -1.8c-1.3 0 -2.3 .4 -3.1 1.3c-.9 .9 -1.3 2.1 -1.3 3.4c-.1 1.3 .4 2.4 1.3 3.3c.8 .9 1.9 1.4 3.2 1.4c1.3 -.1 2.5 -.6 3.7 -1.8l1.2 1c-1.5 1.6 -3.1 2.4 -5 2.4Zm27.9 0c-1.9 0 -3.3 -.7 -4.5 -1.9c-1.2 -1.3 -1.8 -2.7 -1.8 -4.4c0 -1.8 .6 -3.2 1.8 -4.5c1.2 -1.3 2.7 -1.8 4.5 -1.8q.1 0 .1 0c1.8 0 3.3 .6 4.4 1.8c1.2 1.2 1.8 2.7 1.8 4.5c0 1.7 -.6 3.2 -1.8 4.4c-1.3 1.2 -2.7 1.9 -4.5 1.9Zm151 0c-1.9 0 -3.3 -.7 -4.5 -1.9c-1.2 -1.3 -1.8 -2.7 -1.8 -4.4c0 -1.8 .6 -3.2 1.8 -4.5c1.2 -1.3 2.8 -1.8 4.6 -1.8h.1c1.7 0 3.2 .6 4.4 1.8c1.1 1.2 1.8 2.7 1.8 4.5c0 1.7 -.6 3.2 -1.9 4.4c-1.2 1.2 -2.7 1.9 -4.5 1.9Zm-109.2 0c-1.3 0 -2.3 -.4 -3.2 -1.1c-1 -.7 -1.3 -1.6 -1.3 -2.8c0 -1.3 .4 -2.3 1.4 -3c.9 -.7 2.1 -1 3.7 -1q.1 -.1 .2 -.1c1.1 0 2.3 .3 3.5 .6v-.4c-.1 -1.1 -.3 -1.8 -.9 -2.4c-.7 -.6 -1.5 -.8 -2.7 -.8c-1.2 0 -2.3 .3 -3.6 .8l-.5 -1.4c1.4 -.7 2.9 -1 4.4 -1c0 0 .1 0 .1 0c1.6 0 2.9 .5 3.8 1.3c.8 .8 1.2 2.1 1.2 3.6v7.4h-1.8v-1.9c-1.1 1.4 -2.5 2.2 -4.3 2.2Zm62.3 0c-1.3 0 -2.3 -.4 -3.2 -1.1c-1 -.7 -1.3 -1.6 -1.3 -2.8c0 -1.3 .4 -2.3 1.4 -3c.9 -.7 2.1 -1 3.7 -1q.1 -.1 .2 -.1c1.1 0 2.3 .3 3.5 .6v-.4c-.1 -1.1 -.3 -1.8 -1 -2.4c-.6 -.6 -1.4 -.8 -2.6 -.8c-1.2 0 -2.3 .3 -3.6 .8l-.5 -1.4c1.4 -.7 2.9 -1 4.4 -1c0 0 .1 0 .1 0c1.6 0 2.9 .5 3.8 1.3c.8 .8 1.2 2.1 1.2 3.6v7.4h-1.8v-1.9c-1.1 1.4 -2.5 2.2 -4.3 2.2Zm91.5 0c-1.2 0 -2.2 -.4 -3.1 -1.1c-1 -.7 -1.3 -1.6 -1.3 -2.8c0 -1.3 .4 -2.3 1.4 -3c.9 -.7 2.1 -1 3.7 -1q.1 -.1 .2 -.1c1.1 0 2.3 .3 3.5 .6v-.4c-.1 -1.1 -.4 -1.8 -1 -2.4c-.7 -.6 -1.5 -.8 -2.6 -.8c-1.2 0 -2.3 .3 -3.6 .8l-.5 -1.4c1.4 -.7 2.9 -1 4.4 -1h.1c1.6 0 2.9 .5 3.7 1.3c.9 .8 1.3 2.1 1.3 3.6v7.4h-1.8v-1.9c-1.2 1.4 -2.6 2.2 -4.4 2.2ZM549.6 407V391.3h1.8v2.4c1.2 -1.8 2.8 -2.7 4.7 -2.7c1.5 0 2.9 .6 4 1.7c1.1 1.2 1.8 2.7 1.8 4.7c0 1.8 -.6 3.4 -1.8 4.5c-1.2 1.1 -2.5 1.8 -4 1.8c-2 0 -3.5 -.9 -4.7 -2.6V407ZM282.3 401.7v-13h-7.1v2.1c-.1 2.1 -.2 4.2 -.6 6.2c-.5 2 -1 3.6 -1.7 4.7ZM269.2 407v-5.3h1.7c1.6 -2.6 2.4 -6.6 2.4 -11.8v-2.8h10.9v14.6h2V407h-1.9v-3.8H271.1l-.4 3.8Zm252.4 0v-4.6c-1 .8 -2 1.3 -3.1 1.3c-1.5 0 -2.6 -.6 -3.5 -1.7c-1 -1.3 -1.4 -2.7 -1.4 -4.7c0 -2 .4 -3.5 1.4 -4.6c.9 -1.1 2.1 -1.7 3.5 -1.7c1 0 2.1 .4 3.1 1.3v-5.4h1.8v5.4c.9 -1 2 -1.3 3.1 -1.3c1.4 0 2.7 .6 3.6 1.7c.8 1.1 1.3 2.7 1.3 4.7c0 1.9 -.4 3.4 -1.4 4.6c-.9 1 -2.1 1.7 -3.5 1.7c-.8 0 -1.3 -.1 -1.7 -.4c-.5 -.2 -.9 -.5 -1.4 -.9V407Zm-62 -42.5V362h2.2v2.5Zm361.3 0V362h2.2v2.5ZM590.3 362.9c.8 0 1.5 -.1 2 -.5c.4 -.4 .8 -.8 .8 -1.5c0 -.6 -.3 -1 -.8 -1.3c-.6 -.3 -1.3 -.5 -2.3 -.5h-3.7v3.8Zm-190.6 .4c1 -.1 2 -.3 2.8 -.9c.6 -.7 1.1 -1.4 1.1 -2.3V359c-1.2 -.4 -2.3 -.5 -3.5 -.5c-1 0 -1.9 .2 -2.5 .7c-.7 .3 -.9 1 -.9 1.7c-.1 .7 .3 1.3 .8 1.7c.6 .4 1.3 .7 2.2 .7Zm47.4 -.4c.9 0 1.6 -.2 2.1 -.6c.4 -.4 .8 -.9 .8 -1.7c0 -.7 -.3 -1.2 -.8 -1.5c-.6 -.5 -1.3 -.6 -2.2 -.6h-3.2v4.4Zm154.7 .4c1.1 -.1 2.1 -.3 2.8 -.9c.7 -.7 1.2 -1.4 1.2 -2.3V359c-1.2 -.4 -2.4 -.5 -3.5 -.5c-1.1 0 -1.9 .2 -2.5 .7c-.7 .3 -1 1 -1 1.7c0 .7 .3 1.3 .9 1.7c.6 .4 1.3 .7 2.1 .7Zm167.1 0c1 -.1 2 -.3 2.8 -.9c.6 -.7 1.1 -1.4 1.1 -2.3V359c-1.2 -.4 -2.3 -.5 -3.4 -.5c-1.1 0 -2 .2 -2.6 .7c-.6 .3 -.9 1 -.9 1.7c-.1 .7 .3 1.3 .9 1.7c.5 .4 1.2 .7 2.1 .7ZM315.1 358.4v-1.9h6.6v1.9Zm386.1 0v-1.9h6.5v1.9Zm-111.3 -.9c.7 0 1.4 -.1 1.8 -.4c.5 -.4 .7 -.8 .7 -1.4c0 -.5 -.2 -.9 -.6 -1.1c-.5 -.3 -1 -.5 -1.8 -.5h-3.7v3.4Zm225.4 1.1v-4.5h-3.7c-.1 0 -.2 0 -.3 0c-.8 0 -1.4 .3 -1.8 .6c-.6 .3 -.8 .9 -.8 1.6c0 .7 .3 1.3 .8 1.7c.6 .4 1.3 .6 2.1 .6Zm-509 4.7c1.3 -.1 2.3 -.5 3.2 -1.4c.7 -.9 1.2 -2 1.2 -3.3c0 -1.3 -.4 -2.4 -1.3 -3.4c-.9 -.9 -1.9 -1.3 -3.2 -1.3c-1.4 0 -2.3 .4 -3.2 1.3c-.8 .9 -1.2 2.1 -1.2 3.4c-.1 1.3 .4 2.4 1.3 3.3c.8 .9 1.9 1.4 3.2 1.4Zm54.1 0c1.3 -.1 2.4 -.5 3.2 -1.4c.8 -.9 1.3 -2 1.3 -3.3c-.1 -1.3 -.5 -2.4 -1.3 -3.4c-1 -.9 -2 -1.3 -3.2 -1.3c-1.4 0 -2.4 .4 -3.2 1.3c-.9 .9 -1.3 2.1 -1.3 3.4c0 1.3 .5 2.4 1.3 3.3c.8 .9 2 1.4 3.2 1.4Zm137.9 0c1.3 -.1 2.3 -.5 3.2 -1.4c.7 -.9 1.2 -2 1.2 -3.3c0 -1.3 -.4 -2.4 -1.3 -3.4c-.9 -.9 -1.9 -1.3 -3.2 -1.3c-1.4 0 -2.3 .4 -3.2 1.3c-.8 .9 -1.2 2.1 -1.2 3.4c-.1 1.3 .4 2.4 1.3 3.3c.8 .9 1.9 1.4 3.2 1.4Zm76.8 0c1.3 -.1 2.3 -.5 3.2 -1.4c.7 -.9 1.2 -2 1.2 -3.3c0 -1.3 -.4 -2.4 -1.3 -3.4c-.9 -.9 -1.9 -1.3 -3.2 -1.3c-1.4 0 -2.3 .4 -3.1 1.3c-.9 .9 -1.3 2.1 -1.3 3.4c-.1 1.3 .4 2.4 1.3 3.3c.8 .9 1.9 1.4 3.2 1.4Zm117.2 0c1.3 -.1 2.4 -.5 3.2 -1.4c.8 -.9 1.3 -2 1.3 -3.3c-.1 -1.3 -.5 -2.4 -1.3 -3.4c-.9 -.9 -2 -1.3 -3.2 -1.3c-1.4 0 -2.4 .4 -3.2 1.3c-.9 .9 -1.2 2.1 -1.2 3.4c-.1 1.3 .4 2.4 1.2 3.3c.9 .9 2 1.4 3.2 1.4Zm37.6 0c1.3 -.1 2.4 -.5 3.2 -1.4c.8 -.9 1.3 -2 1.3 -3.3c-.1 -1.3 -.5 -2.4 -1.3 -3.4c-1 -.9 -2 -1.3 -3.2 -1.3c-1.4 0 -2.4 .4 -3.2 1.3c-.9 .9 -1.3 2.1 -1.3 3.4c0 1.3 .5 2.4 1.3 3.3c.8 .9 1.9 1.4 3.2 1.4Zm-384.3 0c1.1 -.1 2.2 -.5 3 -1.3c.7 -.9 1.2 -2 1.2 -3.5c-.1 -1.5 -.4 -2.5 -1.2 -3.4c-.9 -.9 -1.9 -1.3 -3 -1.3c-.1 0 -.2 0 -.3 0c-1.1 0 -2 .5 -2.8 1.3c-.9 .9 -1.3 2.1 -1.3 3.4c-.1 1.4 .4 2.5 1.3 3.4c.8 .9 1.9 1.4 3.1 1.4Zm41 0c1.2 -.1 2.2 -.5 3 -1.3c.8 -.9 1.3 -2 1.3 -3.5c-.1 -1.5 -.5 -2.5 -1.3 -3.4c-.9 -.9 -1.8 -1.3 -3 -1.3q-.1 0 -.2 0c-1.1 0 -2 .5 -2.8 1.3c-1 .9 -1.3 2.1 -1.3 3.4c-.1 1.4 .4 2.5 1.3 3.4c.8 .9 1.9 1.4 3 1.4Zm127.2 0c1.1 -.1 2.2 -.5 3 -1.3c.8 -.9 1.2 -2 1.2 -3.5c0 -1.5 -.4 -2.5 -1.2 -3.4c-.9 -.9 -1.8 -1.3 -3 -1.3c-.1 0 -.2 0 -.2 0c-1.2 0 -2 .5 -2.8 1.3c-1 .9 -1.3 2.1 -1.3 3.4c-.1 1.4 .4 2.5 1.3 3.4c.8 .9 1.8 1.4 3 1.4Zm46.4 0c1.2 -.1 2.2 -.5 3 -1.3c.8 -.9 1.3 -2 1.3 -3.5c-.1 -1.5 -.5 -2.5 -1.3 -3.4c-.9 -.9 -1.8 -1.3 -3 -1.3q-.1 0 -.2 0c-1.1 0 -2 .5 -2.8 1.3c-1 .9 -1.3 2.1 -1.3 3.4c-.1 1.4 .4 2.5 1.3 3.4c.8 .9 1.9 1.4 3 1.4Zm-83.3 0c.9 -.1 1.9 -.4 2.7 -1.2V355c-.8 -.8 -1.7 -1.2 -2.7 -1.2c-.1 0 -.2 0 -.2 0c-1.1 0 -1.8 .5 -2.4 1.3c-.6 .8 -.8 2 -.8 3.5c-.1 3.1 1.1 4.7 3.4 4.7Zm7.2 0c2.3 -.1 3.5 -1.6 3.5 -4.8c0 -1.4 -.3 -2.6 -.9 -3.4c-.6 -.9 -1.4 -1.3 -2.6 -1.3c0 0 -.1 0 -.2 0c-1 0 -1.7 .5 -2.4 1.2v7.1c.7 .7 1.6 1.2 2.6 1.2Zm165.5 -5.4c-.2 -1.2 -.5 -2.2 -1.2 -2.9c-.8 -.8 -1.6 -1.2 -2.7 -1.2c-.1 0 -.2 0 -.3 0c-1 0 -1.7 .4 -2.4 1.1c-.8 .8 -1.2 1.8 -1.3 3ZM325 364.7V352.6h10.5v12.1h-1.9V354.2h-6.8v10.5Zm44.7 0V352.6h8.4v1.6h-6.5v10.5Zm-81.5 -.2v-12h1.9v6.9l6.6 -6.9H299l-5.1 5.2l5.2 6.8h-2.2L292.6 359l-2.5 2.6v2.9Zm121 0v-12H411l4.5 6.3l4.5 -6.3h1.7v12h-1.8v-9.1l-4.4 6.1l-4.4 -6.1v9.1Zm16.4 0v-12h1.8l4.5 6.3l4.4 -6.3h1.8v12h-1.9v-9.1l-4.4 6.1l-4.3 -6.1v9.1Zm16.4 0v-12h1.8v4.4h3.3c0 0 .1 0 .1 0c1.3 0 2.4 .4 3.3 .9c.8 .5 1.3 1.6 1.3 2.8c0 1.2 -.4 2.1 -1.2 2.8c-.9 .7 -2 1.1 -3.4 1.1Zm12 0v-12h1.8v12Zm69 0v-12h1.8l4.5 6.3l4.4 -6.3h1.8v12h-1.9v-9.1l-4.4 6.1l-4.3 -6.1v9.1Zm16.4 0v-12h1.8V362l7.2 -9.5h1.8v12h-1.8V355l-7.2 9.5Zm45 0v-12h5.9c1.1 0 2.1 .3 2.9 .8c.6 .5 1 1.3 1 2.2c0 1.1 -.6 2.1 -2 2.7c1.8 .5 2.7 1.5 2.7 3c-.1 1 -.4 1.8 -1.2 2.4c-.9 .6 -1.9 .9 -3.2 .9Zm27 0v-12h1.8v5.1h7v-5.1H622v12h-1.8v-5.3h-7v5.3Zm14.4 0v-12h1.9V362l7.2 -9.5h1.8v12h-1.9V355l-7.2 9.5Zm48.4 0v-12h1.9v6.9l6.7 -6.9H685l-5.1 5.2l5.2 6.8H683L678.7 359l-2.6 2.6v2.9Zm76.4 0v-12h1.8v5.1h7v-5.1h1.8v12h-1.8v-5.3h-7v5.3Zm27.9 0v-12h1.8v5.1h6.9v-5.1h1.9v12h-1.9v-5.3h-6.9v5.3Zm14.4 0v-12h1.9V362l7.2 -9.5h1.8v12h-1.9V355l-7.2 9.5Zm13.5 0l3.8 -4.6c-1.1 -.2 -1.8 -.6 -2.4 -1.3c-.7 -.6 -.9 -1.4 -.9 -2.3c0 -1.2 .4 -2 1.2 -2.7c.7 -.7 1.9 -1.1 3.4 -1.1h5.7v12h-1.9v-4.3H812c-.2 .2 -.6 .8 -1.4 1.9c-.9 1 -1.5 1.9 -1.9 2.4ZM459.6 354.8v-2.5h2.2v2.5Zm257 10.1c-1.8 0 -3.2 -.7 -4.4 -1.9c-1.3 -1.3 -1.8 -2.7 -1.8 -4.4c0 -1.8 .6 -3.2 1.8 -4.5c1.1 -1.3 2.6 -1.8 4.4 -1.8c0 0 .1 0 .1 0c1.8 0 3.4 .7 4.8 2.1l-1.2 1.2c-1.2 -1.2 -2.4 -1.7 -3.7 -1.7c-1.3 0 -2.3 .4 -3.1 1.3c-.9 .9 -1.3 2.1 -1.3 3.4c0 1.3 .4 2.4 1.3 3.3c.8 .9 1.9 1.4 3.2 1.4c1.3 -.1 2.5 -.6 3.7 -1.9l1.2 1.1c-1.5 1.6 -3.1 2.4 -5 2.4Zm-410.4 0c-1.9 0 -3.3 -.7 -4.5 -1.9c-1.2 -1.3 -1.8 -2.7 -1.8 -4.4c0 -1.8 .6 -3.2 1.9 -4.5c1.1 -1.3 2.7 -1.8 4.5 -1.8h.1c1.7 0 3.2 .6 4.4 1.8c1.1 1.2 1.8 2.7 1.8 4.5c0 1.7 -.6 3.2 -1.8 4.4c-1.3 1.2 -2.8 1.9 -4.6 1.9Zm54.2 0c-1.9 0 -3.3 -.7 -4.5 -1.9c-1.3 -1.3 -1.8 -2.7 -1.8 -4.4c0 -1.8 .6 -3.2 1.8 -4.5c1.2 -1.3 2.7 -1.8 4.5 -1.8q.1 0 .1 0c1.8 0 3.2 .6 4.4 1.8c1.2 1.2 1.8 2.7 1.8 4.5c0 1.7 -.6 3.2 -1.8 4.4c-1.3 1.2 -2.7 1.9 -4.5 1.9Zm137.8 0c-1.9 0 -3.3 -.7 -4.5 -1.9c-1.2 -1.3 -1.8 -2.7 -1.8 -4.4c0 -1.8 .6 -3.2 1.9 -4.5c1.1 -1.3 2.7 -1.8 4.5 -1.8h.1c1.7 0 3.2 .6 4.4 1.8c1.1 1.2 1.8 2.7 1.8 4.5c0 1.7 -.6 3.2 -1.8 4.4c-1.3 1.2 -2.8 1.9 -4.6 1.9Zm76.8 0c-1.9 0 -3.3 -.7 -4.5 -1.9c-1.2 -1.3 -1.7 -2.7 -1.7 -4.4c0 -1.8 .6 -3.2 1.8 -4.5c1.1 -1.3 2.7 -1.8 4.5 -1.8c0 0 .1 0 .1 0c1.7 0 3.2 .6 4.4 1.8c1.1 1.2 1.8 2.7 1.8 4.5c0 1.7 -.6 3.2 -1.8 4.4c-1.3 1.2 -2.8 1.9 -4.6 1.9Zm117.3 0c-1.9 0 -3.3 -.7 -4.5 -1.9c-1.3 -1.3 -1.8 -2.7 -1.8 -4.4c0 -1.8 .6 -3.2 1.8 -4.5c1.2 -1.3 2.7 -1.8 4.5 -1.8q.1 0 .1 0c1.8 0 3.2 .6 4.4 1.8c1.2 1.2 1.8 2.7 1.8 4.5c0 1.7 -.6 3.2 -1.8 4.4c-1.3 1.2 -2.7 1.9 -4.5 1.9Zm37.6 0c-1.9 0 -3.3 -.7 -4.5 -1.9c-1.3 -1.3 -1.8 -2.7 -1.8 -4.4c0 -1.8 .6 -3.2 1.8 -4.5c1.2 -1.3 2.7 -1.8 4.5 -1.8c0 0 .1 0 .1 0c1.8 0 3.2 .6 4.4 1.8c1.2 1.2 1.8 2.7 1.8 4.5c0 1.7 -.6 3.2 -1.8 4.4c-1.3 1.2 -2.7 1.9 -4.5 1.9Zm-330.6 0c-1.3 0 -2.3 -.4 -3.2 -1.1c-.9 -.8 -1.3 -1.6 -1.3 -2.8c0 -1.4 .5 -2.3 1.4 -3c.9 -.8 2.2 -1.1 3.7 -1.1c.1 0 .2 0 .2 0c1.2 0 2.4 .3 3.5 .6v-.4c0 -1.1 -.3 -1.8 -.9 -2.4c-.7 -.6 -1.5 -.8 -2.6 -.8c-1.3 0 -2.4 .3 -3.6 .8l-.6 -1.4c1.5 -.7 3 -1 4.4 -1q.1 0 .1 0c1.6 0 2.9 .5 3.8 1.3c.8 .8 1.3 2 1.3 3.6v7.4h-1.9v-1.9c-1.1 1.4 -2.5 2.2 -4.3 2.2Zm202.2 0c-1.3 0 -2.3 -.4 -3.2 -1.1c-1 -.8 -1.3 -1.6 -1.3 -2.8c0 -1.4 .4 -2.3 1.4 -3c.9 -.8 2.1 -1.1 3.7 -1.1q.1 0 .2 0c1.1 0 2.3 .3 3.5 .6v-.4c-.1 -1.1 -.3 -1.8 -1 -2.4c-.6 -.6 -1.4 -.8 -2.6 -.8c-1.2 0 -2.3 .3 -3.6 .8l-.5 -1.4c1.4 -.7 2.9 -1 4.4 -1c0 0 .1 0 .1 0c1.6 0 2.9 .5 3.8 1.3c.8 .8 1.2 2 1.2 3.6v7.4h-1.8v-1.9c-1.1 1.4 -2.5 2.2 -4.3 2.2Zm167 0c-1.2 0 -2.3 -.4 -3.1 -1.1c-1 -.8 -1.3 -1.6 -1.3 -2.8c0 -1.4 .4 -2.3 1.3 -3c.9 -.8 2.2 -1.1 3.8 -1.1c0 0 .1 0 .2 0c1.1 0 2.3 .3 3.4 .6v-.4c0 -1.1 -.3 -1.8 -.9 -2.4c-.7 -.6 -1.5 -.8 -2.6 -.8c-1.2 0 -2.4 .3 -3.6 .8l-.6 -1.4c1.5 -.7 3 -1 4.4 -1q.1 0 .2 0c1.6 0 2.9 .5 3.7 1.3c.9 .8 1.3 2 1.3 3.6v7.4h-1.9v-1.9c-1.1 1.4 -2.5 2.2 -4.3 2.2Zm-429.2 3.3V352.5h1.9v2.4c1.2 -1.8 2.8 -2.7 4.6 -2.7c1.5 0 3 .6 4.1 1.7c1.1 1.2 1.8 2.7 1.8 4.6c0 1.9 -.6 3.5 -1.8 4.6c-1.2 1.1 -2.5 1.8 -4.1 1.8c-1.9 0 -3.4 -.9 -4.6 -2.6v5.9Zm41.1 0V352.5h1.9v2.4c1.1 -1.8 2.7 -2.7 4.6 -2.7c1.5 0 2.9 .6 4.1 1.7c1.1 1.2 1.7 2.7 1.7 4.6c0 1.9 -.6 3.5 -1.7 4.6c-1.3 1.1 -2.5 1.8 -4.1 1.8c-2 0 -3.4 -.9 -4.6 -2.6v5.9Zm127.2 0V352.5h1.9v2.4c1.1 -1.8 2.7 -2.7 4.6 -2.7c1.5 0 2.9 .6 4.1 1.7c1 1.2 1.7 2.7 1.7 4.6c0 1.9 -.6 3.5 -1.7 4.6c-1.3 1.1 -2.6 1.8 -4.1 1.8c-2 0 -3.5 -.9 -4.6 -2.6v5.9Zm46.4 0V352.5h1.9v2.4c1.1 -1.8 2.7 -2.7 4.6 -2.7c1.5 0 2.9 .6 4.1 1.7c1.1 1.2 1.7 2.7 1.7 4.6c0 1.9 -.6 3.5 -1.7 4.6c-1.3 1.1 -2.5 1.8 -4.1 1.8c-2 0 -3.4 -.9 -4.6 -2.6v5.9Zm92 -3.3c-1.8 0 -3.2 -.6 -4.4 -1.8c-1.2 -1.3 -1.8 -2.7 -1.8 -4.6c0 -1.7 .6 -3.2 1.7 -4.5c1.1 -1.2 2.5 -1.8 4.2 -1.8c1.7 0 3.2 .6 4.2 1.9c1 1.2 1.6 2.8 1.6 4.7c0 .1 -.1 .5 -.1 .6h-9.7c0 1.1 .6 2.1 1.4 2.8c.7 .7 1.8 1.1 2.9 1.1c1.4 -.1 2.8 -.6 3.9 -1.7l1.1 1c-1.4 1.5 -3 2.3 -5 2.3Zm18.8 0c-1.1 0 -2 -.2 -2.8 -.6c-.7 -.5 -1.5 -1 -2.1 -1.8l1.2 -1.1c1.1 1.2 2.4 1.9 3.6 1.9c1.2 -.1 2.2 -.4 3 -1.2c.8 -.9 1.3 -1.8 1.5 -2.9h-5.5v-1.6h5.4c-.1 -1.1 -.6 -2 -1.4 -2.7c-.8 -.7 -1.8 -1.1 -2.9 -1.1q-.1 0 -.2 0c-1.3 0 -2.5 .6 -3.5 1.7L660 354.4c1.3 -1.5 3 -2.2 4.9 -2.2c1.7 0 3.2 .6 4.4 1.9c1 1.2 1.7 2.7 1.7 4.5c0 1.7 -.6 3.2 -1.8 4.4c-1.3 1.2 -2.6 1.9 -4.4 1.9Zm78 0c-1.9 0 -3.6 -.7 -5 -1.9l.9 -1.3c1.1 1 2.6 1.6 4 1.6c.8 -.1 1.6 -.2 2.2 -.6c.5 -.4 .8 -.9 .8 -1.5c0 -.8 -.2 -1.1 -.8 -1.5c-.6 -.4 -1.2 -.5 -2.2 -.5h-1.6v-1.6h1.6c.7 0 1.5 -.2 2 -.6c.4 -.4 .7 -.8 .7 -1.4c0 -.6 -.2 -1 -.7 -1.3c-.6 -.4 -1.2 -.5 -1.9 -.5c-.1 0 -.2 0 -.3 0c-1.3 0 -2.5 .5 -3.4 1.2l-.9 -1.3c1.3 -1 2.9 -1.5 4.7 -1.5c1.3 0 2.4 .3 3.2 .9c.8 .5 1.2 1.4 1.2 2.3c-.1 1.3 -.7 2.3 -2 2.8c1.5 .5 2.3 1.5 2.3 3c-.1 1 -.4 1.9 -1.3 2.6c-1 .6 -2.1 1.1 -3.5 1.1Zm-263.2 3.3v-4.6c-1 .8 -2 1.3 -3 1.3c-1.6 0 -2.7 -.6 -3.6 -1.8c-.9 -1.2 -1.4 -2.6 -1.4 -4.6c0 -2 .5 -3.5 1.4 -4.6c.9 -1.1 2.1 -1.7 3.6 -1.7c.9 0 2 .4 3 1.3v-5.4h1.9v5.4c.9 -1 1.9 -1.3 3 -1.3c1.4 0 2.7 .6 3.6 1.7c.8 1.1 1.3 2.7 1.3 4.6c0 2 -.4 3.5 -1.3 4.6c-1 1.1 -2.1 1.8 -3.6 1.8c-.8 0 -1.2 -.2 -1.7 -.4c-.5 -.2 -.9 -.5 -1.3 -.9v4.6ZM276.4 364.9c-1.4 0 -2.7 -.3 -3.7 -.8c-1.1 -.5 -2 -1.1 -3 -2.1l1.4 -1.2c.8 .8 1.7 1.5 2.5 1.9c.7 .3 1.7 .6 2.7 .6c1.6 -.1 3.1 -.6 4.3 -1.8c1.1 -1.3 1.9 -2.6 2.1 -4.4h-8.4v-1.6h8.3c-.3 -1.7 -.8 -3.2 -2 -4.3c-1.3 -1.3 -2.6 -1.7 -4.3 -1.7q-.1 0 -.2 0c-1.9 0 -3.4 .8 -5 2.3L270 350.5c.8 -1 1.9 -1.5 2.8 -2c.9 -.4 2.1 -.6 3.5 -.6c2.3 0 4.4 .8 6 2.5c1.5 1.6 2.4 3.6 2.4 6c0 2.3 -.8 4.4 -2.4 6c-1.7 1.6 -3.5 2.5 -5.9 2.5Zm278 -39.2v-2.5h2.1v2.5Zm186.9 2.9l-.3 -.8c1 -.5 1.6 -1 1.6 -1.9v-.2h-.9v-2.5h2.2v2.2c-.1 .8 -.2 1.6 -.7 2.1c-.4 .5 -1 .9 -1.9 1.1Zm259.5 -2.9v-2.5h2.1v2.5ZM335.9 324.1c.8 0 1.5 -.2 2 -.5c.5 -.4 .8 -.8 .8 -1.5c0 -.6 -.3 -1 -.8 -1.3c-.6 -.4 -1.3 -.5 -2.2 -.5h-3.8v3.8Zm27.3 0c.9 0 1.6 -.2 2.1 -.6c.4 -.4 .8 -.9 .8 -1.7c0 -.7 -.3 -1.2 -.8 -1.5c-.6 -.5 -1.3 -.6 -2.2 -.6h-3.2v4.4Zm224.1 .4c1 -.1 2 -.3 2.8 -.9c.6 -.7 1.1 -1.4 1.1 -2.3v-1.1c-1.2 -.4 -2.3 -.5 -3.5 -.5c-1.1 0 -1.9 .2 -2.5 .7c-.7 .3 -.9 1 -.9 1.7c-.1 .7 .3 1.3 .8 1.7c.6 .4 1.3 .7 2.2 .7Zm100.9 0c1 -.1 2 -.3 2.8 -.9c.6 -.7 1.1 -1.4 1.1 -2.3v-1.1c-1.2 -.4 -2.3 -.5 -3.4 -.5c-1.1 0 -2 .2 -2.6 .7c-.6 .3 -.9 1 -.9 1.7c-.1 .7 .3 1.3 .9 1.7c.5 .4 1.3 .7 2.1 .7Zm41.1 -.4c.9 0 1.6 -.2 2.1 -.6c.4 -.4 .8 -.9 .8 -1.7c0 -.7 -.3 -1.2 -.8 -1.5c-.6 -.5 -1.2 -.6 -2.2 -.6h-3.1v4.4Zm101.2 .4c1 -.1 2 -.3 2.8 -.9c.7 -.7 1.1 -1.4 1.1 -2.3v-1.1c-1.2 -.4 -2.3 -.5 -3.4 -.5c-1.1 0 -2 .2 -2.6 .7c-.6 .3 -.9 1 -.9 1.7c0 .7 .3 1.3 .9 1.7c.5 .4 1.3 .7 2.1 .7Zm30.1 -.4c.9 0 1.6 -.2 2.1 -.6c.4 -.4 .8 -.9 .8 -1.7c0 -.7 -.3 -1.2 -.8 -1.5c-.6 -.5 -1.3 -.6 -2.2 -.6h-3.2v4.4Zm127.8 0c.8 0 1.6 -.2 2.1 -.6c.4 -.4 .7 -.9 .7 -1.7c0 -.7 -.2 -1.2 -.7 -1.5c-.6 -.5 -1.3 -.6 -2.2 -.6h-3.2v4.4ZM335.6 318.7c.7 0 1.3 -.1 1.8 -.4c.4 -.4 .6 -.8 .6 -1.4c0 -.5 -.2 -.9 -.6 -1.1c-.4 -.3 -1 -.5 -1.8 -.5h-3.7v3.4ZM509 319.8v-4.5h-3.8c-.1 0 -.2 0 -.3 0c-.7 0 -1.3 .3 -1.7 .6c-.6 .3 -.8 .9 -.8 1.6c-.1 .7 .3 1.3 .8 1.7c.5 .4 1.2 .6 2.1 .6Zm39.7 0v-4.5h-3.8c-.1 0 -.2 0 -.3 0c-.7 0 -1.3 .3 -1.7 .6c-.6 .3 -.8 .9 -.8 1.6c-.1 .7 .3 1.3 .8 1.7c.5 .4 1.2 .6 2.1 .6Zm-228 4.7c1.3 -.1 2.4 -.5 3.2 -1.4c.8 -.9 1.3 -2 1.3 -3.3c-.1 -1.3 -.5 -2.4 -1.3 -3.4c-1 -.9 -2 -1.3 -3.2 -1.3c-1.4 0 -2.4 .4 -3.2 1.3c-.9 .9 -1.3 2.1 -1.3 3.4c0 1.3 .5 2.4 1.3 3.3c.8 .9 2 1.4 3.2 1.4Zm126.8 0c1.3 -.1 2.3 -.5 3.2 -1.4c.7 -.9 1.2 -2 1.2 -3.3c0 -1.3 -.4 -2.4 -1.3 -3.4c-.9 -.9 -1.9 -1.3 -3.2 -1.3c-1.4 0 -2.3 .4 -3.2 1.3c-.8 .9 -1.2 2.1 -1.2 3.4c-.1 1.3 .4 2.4 1.3 3.3c.8 .9 1.9 1.4 3.2 1.4Zm-14.9 0c1.1 -.1 2.2 -.5 3 -1.3c.8 -.9 1.2 -2 1.2 -3.5c0 -1.5 -.4 -2.5 -1.2 -3.4c-.9 -1 -1.8 -1.3 -3 -1.3c-.1 0 -.2 0 -.2 0c-1.2 0 -2 .5 -2.8 1.3c-1 .8 -1.3 2.1 -1.3 3.4c-.1 1.4 .4 2.5 1.3 3.4c.8 .9 1.8 1.4 3 1.4Zm44.8 0c1.1 -.1 2.2 -.5 3 -1.3c.7 -.9 1.2 -2 1.2 -3.5c0 -1.5 -.4 -2.5 -1.2 -3.4c-.9 -1 -1.8 -1.3 -3 -1.3c-.1 0 -.2 0 -.3 0c-1.1 0 -2 .5 -2.8 1.3c-.9 .8 -1.3 2.1 -1.3 3.4c0 1.4 .5 2.5 1.3 3.4c.8 .9 1.9 1.4 3.1 1.4Zm163.6 0c1.2 -.1 2.3 -.5 3.1 -1.3c.7 -.9 1.2 -2 1.2 -3.5c-.1 -1.5 -.4 -2.5 -1.3 -3.4c-.9 -1 -1.8 -1.3 -3 -1.3q-.1 0 -.2 0c-1.1 0 -2 .5 -2.8 1.3c-.9 .8 -1.3 2.1 -1.3 3.4c-.1 1.4 .4 2.5 1.3 3.4c.8 .9 1.9 1.4 3 1.4Zm205.3 0c1.1 -.1 2.2 -.5 3 -1.3c.7 -.9 1.2 -2 1.2 -3.5c0 -1.5 -.4 -2.5 -1.2 -3.4c-.9 -1 -1.8 -1.3 -3 -1.3c-.1 0 -.2 0 -.3 0c-1.1 0 -2 .5 -2.8 1.3c-.9 .8 -1.3 2.1 -1.3 3.4c0 1.4 .5 2.5 1.3 3.4c.8 .9 1.9 1.4 3.1 1.4Zm61.4 0c1.1 -.1 2.2 -.5 3 -1.3c.7 -.9 1.2 -2 1.2 -3.5c0 -1.5 -.4 -2.5 -1.2 -3.4c-.9 -1 -1.8 -1.3 -3 -1.3c-.1 0 -.2 0 -.3 0c-1.1 0 -2 .5 -2.8 1.3c-.9 .8 -1.3 2.1 -1.3 3.4c0 1.4 .5 2.5 1.3 3.4c.8 .9 1.9 1.4 3.1 1.4Zm40.2 0c1.1 -.1 2.2 -.5 3 -1.3c.7 -.9 1.2 -2 1.2 -3.5c0 -1.5 -.4 -2.5 -1.2 -3.4c-.9 -1 -1.8 -1.3 -3 -1.3c-.1 0 -.2 0 -.3 0c-1.1 0 -2 .5 -2.8 1.3c-.9 .8 -1.3 2.1 -1.3 3.4c0 1.4 .5 2.5 1.3 3.4c.8 .9 1.9 1.4 3.1 1.4Zm-563 -5.4c-.2 -1.2 -.5 -2.2 -1.2 -3c-.8 -.8 -1.6 -1.1 -2.7 -1.1c-.1 0 -.2 0 -.3 0c-1 0 -1.7 .4 -2.4 1.1c-.8 .8 -1.2 1.8 -1.3 3Zm36.9 0c-.1 -1.2 -.5 -2.2 -1.2 -3c-.7 -.8 -1.6 -1.1 -2.7 -1.1c-.1 0 -.2 0 -.3 0c-1 0 -1.7 .4 -2.4 1.1c-.8 .8 -1.2 1.8 -1.3 3Zm208.4 0c-.1 -1.2 -.5 -2.2 -1.1 -3c-.8 -.8 -1.6 -1.1 -2.8 -1.1c-.1 0 -.2 0 -.3 0c-.9 0 -1.7 .4 -2.4 1.1c-.8 .8 -1.2 1.8 -1.3 3Zm146.4 0c-.2 -1.2 -.5 -2.2 -1.2 -3c-.8 -.8 -1.6 -1.1 -2.7 -1.1c-.1 0 -.2 0 -.3 0c-1 0 -1.7 .4 -2.4 1.1c-.8 .8 -1.2 1.8 -1.3 3Zm149.4 0c-.2 -1.2 -.5 -2.2 -1.2 -3c-.8 -.8 -1.6 -1.1 -2.7 -1.1c-.1 0 -.2 0 -.3 0c-1 0 -1.7 .4 -2.4 1.1c-.8 .8 -1.2 1.8 -1.3 3Zm-469.2 6.8V313.8h10.5v12.1h-1.9V315.4h-6.7v10.5Zm60.9 0V315.4h-4.3v-1.6H524v1.6h-4.4v10.5Zm95.3 0V315.4h-4.3v-1.6h10.7v1.6h-4.5v10.5Zm56.6 .1c-.5 0 -1 0 -1.5 -.1l.2 -1.6c.3 0 .6 .2 .9 .2c.2 -.1 .6 -.1 .8 -.2c.2 -.2 .5 -.3 .7 -.6c.2 -.5 .5 -.9 .6 -1.6c.1 -.7 .3 -1.6 .4 -2.8c0 -1.3 .2 -2.7 .2 -4.5v-1h8.6v12.1h-1.9V315.4h-4.9v.3c-.1 1.7 -.1 3.4 -.2 4.7c-.3 1.1 -.3 2.3 -.5 3c-.3 .7 -.6 1.3 -1 1.7c-.4 .4 -.7 .7 -1.1 .8c-.4 0 -.8 .1 -1.3 .1Zm263.5 -.1V315.4h-4.3v-1.6h10.6v1.6H935v10.5Zm41.6 0V315.4h-4.3v-1.6H981v1.6h-4.4v10.5Zm-673.5 -.2l4.7 -6.1l-4.6 -5.9h2.1l3.6 4.7l3.6 -4.7h2l-4.6 5.9l4.8 6.1h-2.1L307 320.8l-3.8 4.9Zm28.8 0v-12h5.9c1.1 0 2.2 .3 2.9 .8c.7 .5 1.1 1.3 1.1 2.2c-.1 1.1 -.7 2.1 -2.1 2.7c1.8 .5 2.7 1.5 2.7 3c0 1 -.4 1.8 -1.2 2.4c-.9 .6 -1.8 .9 -3.2 .9Zm13.6 0v-12h1.9v5.1h6.9v-5.1h1.9v12h-1.9v-5.3h-6.9v5.3Zm14.5 0v-12h1.8v4.4h3.3c0 0 .1 0 .1 0c1.3 0 2.4 .4 3.3 .9c.8 .5 1.3 1.6 1.3 2.8c0 1.2 -.4 2.1 -1.2 2.8c-1 .7 -2 1.1 -3.4 1.1Zm11.9 0v-12h1.9v12Zm26.3 0v-12h1.8l4.5 6.3l4.5 -6.3h1.7v12H407v-9.1l-4.5 6.1l-4.3 -6.1v9.1Zm90.3 0v-12h1.8v9.5l7.2 -9.5h1.8v12h-1.8v-9.5l-7.2 9.5Zm13.5 0l3.7 -4.6c-1 -.2 -1.7 -.7 -2.3 -1.3c-.7 -.7 -1 -1.4 -1 -2.3c0 -1.2 .5 -2 1.3 -2.7c.7 -.7 1.9 -1.1 3.3 -1.1h5.8v12H509v-4.3h-3.3c-.2 .2 -.6 .8 -1.5 1.9c-.8 1 -1.4 1.9 -1.8 2.4Zm26.2 0v-12h1.8v9.5l7.2 -9.5h1.8v12h-1.8v-9.5l-7.2 9.5Zm13.5 0l3.7 -4.6c-1 -.2 -1.7 -.7 -2.3 -1.3c-.7 -.7 -1 -1.4 -1 -2.3c0 -1.2 .5 -2 1.3 -2.7c.7 -.7 1.9 -1.1 3.3 -1.1h5.8v12h-1.9v-4.3h-3.3c-.2 .2 -.6 .8 -1.5 1.9c-.8 1 -1.4 1.9 -1.8 2.4Zm27.2 0v-12h1.8l4.5 6.3l4.5 -6.3h1.7v12h-1.8v-9.1l-4.4 6.1l-4.4 -6.1v9.1Zm90.1 0v-12h1.8v6.9l6.7 -6.9h2.2l-5.1 5.2l5.3 6.8h-2.2l-4.3 -5.5l-2.6 2.6v2.9Zm67.1 0v-12h1.9v4.4h3.2c0 0 .1 0 .1 0c1.3 0 2.5 .4 3.3 .9c.8 .5 1.3 1.6 1.3 2.8c0 1.2 -.4 2.1 -1.2 2.8c-.9 .7 -1.9 1.1 -3.3 1.1Zm12 0v-12H738v12Zm45 0v-12H783l4.5 6.3l4.4 -6.3h1.8v12h-1.9v-9.1l-4.4 6.1L783 316.6v9.1Zm16.4 0v-12h1.8v9.5l7.2 -9.5h1.8v12h-1.9v-9.5l-7.2 9.5Zm14.6 0v-12h1.9v5.1H821v-5.1h1.8v12H821v-5.3h-6.9v5.3Zm43.3 0v-12h1.8v4.4h3.3c0 0 .1 0 .1 0c1.3 0 2.4 .4 3.3 .9c.8 .5 1.3 1.6 1.3 2.8c0 1.2 -.4 2.1 -1.2 2.8c-.9 .7 -2 1.1 -3.4 1.1Zm12 0v-12h1.8v12Zm12.5 0v-12h1.9v9.5l7.1 -9.5h1.8v12H889v-9.5l-7.2 9.5Zm77.1 0v-12h1.8v9.5l7.2 -9.5h1.8v12h-1.8v-9.5l-7.2 9.5Zm26.1 0v-12h1.9v4.4h3.2q.1 0 .2 0c1.3 0 2.4 .4 3.3 .9c.8 .5 1.3 1.6 1.3 2.8c-.1 1.2 -.4 2.1 -1.3 2.8c-.9 .7 -1.9 1.1 -3.3 1.1Zm12 0v-12h1.9v12Zm-704.7 3.7c-1 0 -1.8 -.2 -2.6 -.6l.6 -1.5c.5 .2 1.2 .5 1.9 .5c.5 0 1 -.2 1.4 -.5c.3 -.4 .7 -.9 1.1 -1.8l-5.6 -11.9h2.1l4.4 10l3.9 -10h1.9L294.5 326c-.6 1.1 -1.1 2.1 -1.7 2.6c-.7 .4 -1.4 .8 -2.3 .8ZM554.4 316v-2.5h2.1V316Zm48 10c-1.8 0 -3.2 -.6 -4.4 -1.8c-1.3 -1.3 -1.8 -2.7 -1.8 -4.4c0 -1.8 .6 -3.2 1.8 -4.5c1.1 -1.3 2.6 -1.8 4.4 -1.8c0 0 .1 0 .1 0c1.8 0 3.4 .7 4.8 2.1l-1.2 1.2c-1.2 -1.2 -2.4 -1.7 -3.7 -1.7c-1.3 0 -2.3 .4 -3.1 1.3c-.9 .9 -1.3 2.1 -1.3 3.4c-.1 1.3 .4 2.4 1.3 3.3c.8 .9 1.9 1.4 3.2 1.4c1.3 -.1 2.5 -.6 3.7 -1.9l1.2 1.1c-1.5 1.6 -3.1 2.3 -5 2.3Zm100.9 0c-1.8 0 -3.2 -.6 -4.4 -1.8c-1.3 -1.3 -1.8 -2.7 -1.8 -4.4c0 -1.8 .6 -3.2 1.8 -4.5c1.1 -1.3 2.7 -1.8 4.4 -1.8q.1 0 .1 0c1.8 0 3.5 .7 4.8 2.1l-1.2 1.2c-1.2 -1.2 -2.3 -1.7 -3.7 -1.7c-1.3 0 -2.2 .4 -3.1 1.3c-.9 .9 -1.2 2.1 -1.2 3.4c-.1 1.3 .4 2.4 1.2 3.3c.8 .9 2 1.4 3.2 1.4c1.3 -.1 2.6 -.6 3.7 -1.9l1.2 1.1c-1.5 1.6 -3.1 2.3 -5 2.3Zm13.3 0c-1.9 0 -3.3 -.6 -4.5 -1.8c-1.2 -1.3 -1.8 -2.7 -1.8 -4.4c0 -1.8 .6 -3.2 1.8 -4.5c1.2 -1.3 2.7 -1.8 4.5 -1.8c1.8 0 3.5 .7 4.8 2.1l-1.1 1.2c-1.3 -1.2 -2.4 -1.7 -3.8 -1.7c-1.3 0 -2.2 .4 -3.1 1.3c-.9 .9 -1.2 2.1 -1.2 3.4c-.1 1.3 .4 2.4 1.3 3.3c.8 .9 1.9 1.4 3.1 1.4c1.3 -.1 2.6 -.6 3.7 -1.9l1.2 1.1c-1.5 1.6 -3.1 2.3 -4.9 2.3Zm43.2 0c-1.8 0 -3.2 -.6 -4.4 -1.8c-1.3 -1.3 -1.8 -2.7 -1.8 -4.4c0 -1.8 .6 -3.2 1.8 -4.5c1.1 -1.3 2.7 -1.8 4.4 -1.8q.1 0 .1 0c1.8 0 3.5 .7 4.8 2.1l-1.1 1.2c-1.3 -1.2 -2.4 -1.7 -3.8 -1.7c-1.3 0 -2.2 .4 -3.1 1.3c-.9 .9 -1.2 2.1 -1.2 3.4c-.1 1.3 .4 2.4 1.2 3.3c.8 .9 2 1.4 3.2 1.4c1.3 -.1 2.6 -.6 3.7 -1.9l1.2 1.1c-1.5 1.6 -3.1 2.3 -5 2.3Zm-439.1 0c-1.9 0 -3.3 -.6 -4.5 -1.8c-1.3 -1.3 -1.8 -2.7 -1.8 -4.4c0 -1.8 .6 -3.2 1.8 -4.5c1.2 -1.3 2.7 -1.8 4.5 -1.8q.1 0 .1 0c1.8 0 3.2 .6 4.4 1.8c1.2 1.2 1.8 2.7 1.8 4.5c0 1.7 -.6 3.2 -1.8 4.4c-1.3 1.2 -2.7 1.8 -4.5 1.8Zm126.7 0c-1.9 0 -3.3 -.6 -4.5 -1.8c-1.2 -1.3 -1.8 -2.7 -1.8 -4.4c0 -1.8 .7 -3.2 1.9 -4.5c1.1 -1.3 2.7 -1.8 4.5 -1.8h.1c1.7 0 3.2 .6 4.4 1.8c1.1 1.2 1.8 2.7 1.8 4.5c0 1.7 -.6 3.2 -1.8 4.4c-1.3 1.2 -2.8 1.8 -4.6 1.8Zm139.5 0c-1.3 0 -2.3 -.3 -3.2 -1c-1 -.8 -1.3 -1.6 -1.3 -2.8c0 -1.4 .5 -2.3 1.4 -3c.9 -.8 2.2 -1.1 3.7 -1.1c.1 0 .2 0 .2 0c1.2 0 2.4 .2 3.5 .6v-.4c0 -1.1 -.3 -1.8 -.9 -2.4c-.7 -.6 -1.5 -.8 -2.6 -.8c-1.3 0 -2.4 .2 -3.6 .8l-.6 -1.4c1.5 -.7 3 -1 4.4 -1c0 0 .1 0 .1 0c1.6 0 2.9 .4 3.8 1.3c.8 .8 1.3 2 1.3 3.6v7.4h-1.9v-1.9c-1.1 1.4 -2.5 2.1 -4.3 2.1Zm100.9 0c-1.2 0 -2.2 -.3 -3.1 -1c-1 -.8 -1.3 -1.6 -1.3 -2.8c0 -1.4 .4 -2.3 1.3 -3c1 -.8 2.2 -1.1 3.8 -1.1c0 0 .1 0 .2 0c1.1 0 2.3 .2 3.4 .6v-.4c0 -1.1 -.3 -1.8 -.9 -2.4c-.7 -.6 -1.5 -.8 -2.6 -.8c-1.2 0 -2.4 .2 -3.6 .8l-.5 -1.4c1.4 -.7 2.9 -1 4.3 -1q.1 0 .2 0c1.6 0 2.9 .4 3.7 1.3c.9 .8 1.3 2 1.3 3.6v7.4h-1.9v-1.9c-1.1 1.4 -2.5 2.1 -4.3 2.1Zm142.3 0c-1.2 0 -2.2 -.3 -3.1 -1c-1 -.8 -1.3 -1.6 -1.3 -2.8c0 -1.4 .4 -2.3 1.4 -3c.9 -.8 2.1 -1.1 3.7 -1.1q.1 0 .2 0c1.1 0 2.3 .2 3.4 .6v-.4c0 -1.1 -.3 -1.8 -.9 -2.4c-.7 -.6 -1.5 -.8 -2.6 -.8c-1.2 0 -2.3 .2 -3.6 .8l-.5 -1.4c1.4 -.7 2.9 -1 4.4 -1h.1c1.6 0 2.9 .4 3.7 1.3c.9 .8 1.3 2 1.3 3.6v7.4h-1.9v-1.9c-1.1 1.4 -2.5 2.1 -4.3 2.1Zm-448.9 0c-1.7 0 -3.1 -.5 -4.3 -1.7c-1.2 -1.3 -1.8 -2.7 -1.8 -4.6c0 -1.7 .6 -3.2 1.7 -4.5c1.1 -1.2 2.5 -1.8 4.2 -1.8c1.7 0 3.2 .6 4.2 1.9c1 1.2 1.5 2.8 1.5 4.7c0 .1 0 .4 0 .6H377c0 1.1 .6 2.1 1.4 2.8c.7 .7 1.8 1.1 2.9 1.1c1.4 -.1 2.8 -.6 3.9 -1.7l1.1 1c-1.4 1.5 -3.1 2.2 -5.1 2.2Zm37 0c-1.8 0 -3.2 -.5 -4.4 -1.7C412.6 323 412 321.6 412 319.7c0 -1.7 .6 -3.2 1.7 -4.5c1.1 -1.2 2.5 -1.8 4.2 -1.8c1.7 0 3.2 .6 4.2 1.9c1 1.2 1.6 2.8 1.6 4.7c0 .1 0 .4 -.1 .6h-9.7c0 1.1 .6 2.1 1.4 2.8c.7 .7 1.8 1.1 2.9 1.1c1.4 -.1 2.8 -.6 3.9 -1.7l1.1 1c-1.4 1.5 -3 2.2 -5 2.2Zm8.2 3.4V313.7h1.9v2.4c1.1 -1.8 2.7 -2.7 4.6 -2.7c1.5 0 2.9 .6 4.1 1.7c1 1.2 1.7 2.7 1.7 4.6c0 1.9 -.6 3.5 -1.7 4.6c-1.3 1.1 -2.5 1.7 -4.1 1.7c-2 0 -3.4 -.8 -4.6 -2.5v5.9Zm44.8 0V313.7H473v2.4c1.2 -1.8 2.8 -2.7 4.7 -2.7c1.5 0 2.9 .6 4 1.7c1.1 1.2 1.8 2.7 1.8 4.6c0 1.9 -.6 3.5 -1.8 4.6c-1.2 1.1 -2.5 1.7 -4 1.7c-2 0 -3.5 -.8 -4.7 -2.5v5.9ZM626.6 326c-1.8 0 -3.2 -.5 -4.4 -1.7c-1.2 -1.3 -1.8 -2.7 -1.8 -4.6c0 -1.7 .6 -3.2 1.7 -4.5c1.2 -1.2 2.6 -1.8 4.3 -1.8c1.6 0 3.1 .6 4.1 1.9c1 1.2 1.6 2.8 1.6 4.7c0 .1 0 .4 0 .6h-9.8c.1 1.1 .6 2.1 1.4 2.8c.7 .7 1.8 1.1 2.9 1.1c1.4 -.1 2.8 -.6 3.9 -1.7l1.2 1c-1.5 1.5 -3.1 2.2 -5.1 2.2Zm8.2 3.4V313.7h1.9v2.4c1.1 -1.8 2.8 -2.7 4.6 -2.7c1.5 0 2.9 .6 4.1 1.7c1.1 1.2 1.7 2.7 1.7 4.6c0 1.9 -.5 3.5 -1.7 4.6c-1.3 1.1 -2.5 1.7 -4.1 1.7c-1.9 0 -3.4 -.8 -4.6 -2.5v5.9ZM773 326c-1.8 0 -3.2 -.5 -4.4 -1.7c-1.2 -1.3 -1.8 -2.7 -1.8 -4.6c0 -1.7 .6 -3.2 1.7 -4.5c1.1 -1.2 2.5 -1.8 4.2 -1.8c1.7 0 3.2 .6 4.2 1.9c1 1.2 1.6 2.8 1.6 4.7c0 .1 -.1 .4 -.1 .6h-9.7c0 1.1 .6 2.1 1.4 2.8c.7 .7 1.8 1.1 2.9 1.1c1.4 -.1 2.8 -.6 3.9 -1.7l1.1 1c-1.4 1.5 -3 2.2 -5 2.2Zm67.1 3.4V313.7h1.8v2.4c1.2 -1.8 2.8 -2.7 4.7 -2.7c1.5 0 2.9 .6 4 1.7c1.1 1.2 1.8 2.7 1.8 4.6c0 1.9 -.6 3.5 -1.8 4.6c-1.2 1.1 -2.5 1.7 -4 1.7c-2 0 -3.5 -.8 -4.7 -2.5v5.9Zm61.4 0V313.7h1.8v2.4c1.2 -1.8 2.8 -2.7 4.7 -2.7c1.5 0 2.9 .6 4 1.7c1.1 1.2 1.8 2.7 1.8 4.6c0 1.9 -.6 3.5 -1.8 4.6c-1.2 1.1 -2.5 1.7 -4 1.7c-2 0 -3.5 -.8 -4.7 -2.5v5.9ZM922.4 326c-1.8 0 -3.2 -.5 -4.4 -1.7c-1.2 -1.3 -1.8 -2.7 -1.8 -4.6c0 -1.7 .6 -3.2 1.7 -4.5c1.1 -1.2 2.5 -1.8 4.2 -1.8c1.7 0 3.2 .6 4.2 1.9c1 1.2 1.6 2.8 1.6 4.7c0 .1 -.1 .4 -.1 .6h-9.7c0 1.1 .6 2.1 1.4 2.8c.7 .7 1.8 1.1 2.9 1.1c1.4 -.1 2.8 -.6 3.9 -1.7l1.1 1c-1.4 1.5 -3 2.2 -5 2.2Zm19.3 3.4V313.7h1.8v2.4c1.2 -1.8 2.8 -2.7 4.7 -2.7c1.5 0 2.9 .6 4 1.7c1.1 1.2 1.8 2.7 1.8 4.6c0 1.9 -.6 3.5 -1.8 4.6c-1.2 1.1 -2.5 1.7 -4 1.7c-2 0 -3.5 -.8 -4.7 -2.5v5.9ZM282.3 324V311.1h-7.1v2.1c-.1 2.1 -.2 4.2 -.6 6.2c-.5 2 -1 3.5 -1.7 4.6Zm-13.1 5.4V324h1.7c1.6 -2.6 2.4 -6.5 2.4 -11.7v-2.8h10.9V324h2v5.4h-1.9v-3.8H271.1l-.4 3.8ZM390.9 289.8l-.3 -.8c1 -.5 1.6 -1 1.6 -1.9v-.2h-.9v-2.5h2.2v2.1c-.1 .9 -.2 1.7 -.6 2.2c-.5 .5 -1.1 .9 -2 1.1Zm244 0l-.2 -.8c1 -.5 1.5 -1 1.5 -1.9v-.2h-.8v-2.5h2.2v2.1c-.1 .9 -.2 1.7 -.7 2.2c-.4 .5 -1 .9 -2 1.1ZM368.8 285.3c.8 0 1.6 -.2 2.1 -.5c.4 -.4 .7 -.8 .7 -1.5c0 -.6 -.3 -1 -.8 -1.3c-.6 -.4 -1.2 -.5 -2.2 -.5h-3.8v3.8Zm206.2 0c.9 0 1.6 -.2 2.1 -.6c.5 -.4 .8 -.9 .8 -1.7c0 -.7 -.3 -1.2 -.8 -1.5c-.6 -.5 -1.2 -.6 -2.1 -.6h-3.2v4.4Zm50.9 .4c1 -.1 2 -.3 2.8 -.9c.7 -.7 1.1 -1.4 1.1 -2.3v-1.1c-1.2 -.4 -2.3 -.5 -3.4 -.5c-1.1 0 -2 .2 -2.6 .7c-.6 .3 -.9 1 -.9 1.7c0 .7 .3 1.3 .9 1.7c.5 .4 1.3 .7 2.1 .7ZM368.5 279.9c.7 0 1.3 -.1 1.8 -.5c.4 -.3 .6 -.7 .6 -1.3c0 -.5 -.2 -.9 -.6 -1.2c-.4 -.3 -1 -.4 -1.8 -.4h-3.7v3.4ZM495.6 281v-4.5h-3.7c-.2 0 -.3 0 -.4 0c-.7 0 -1.3 .3 -1.7 .6c-.6 .3 -.8 .9 -.8 1.6c0 .7 .3 1.3 .8 1.7c.6 .3 1.2 .6 2.1 .6Zm-113.4 4.7c1.3 -.1 2.3 -.5 3.2 -1.4c.7 -.9 1.2 -2 1.2 -3.3c0 -1.4 -.4 -2.5 -1.3 -3.4c-.9 -.9 -1.9 -1.3 -3.2 -1.3c-1.4 0 -2.3 .4 -3.1 1.3c-.9 .9 -1.3 2 -1.3 3.4c0 1.3 .4 2.4 1.3 3.3c.8 .9 1.9 1.4 3.2 1.4Zm66.3 0c1.3 -.1 2.3 -.5 3.2 -1.4c.7 -.9 1.2 -2 1.2 -3.3c0 -1.4 -.4 -2.5 -1.3 -3.4c-.9 -.9 -1.9 -1.3 -3.2 -1.3c-1.4 0 -2.3 .4 -3.2 1.3c-.8 .9 -1.2 2 -1.2 3.4c-.1 1.3 .4 2.4 1.3 3.3c.8 .9 1.9 1.4 3.2 1.4Zm15.5 0c1.1 -.1 2.2 -.5 3 -1.3c.7 -.9 1.2 -2 1.2 -3.5c0 -1.5 -.4 -2.5 -1.2 -3.4c-.9 -1 -1.8 -1.3 -3 -1.3c-.1 0 -.2 0 -.3 0c-1.1 0 -1.9 .5 -2.8 1.3c-.9 .8 -1.3 2.1 -1.3 3.4c0 1.4 .5 2.5 1.3 3.4c.9 .9 1.9 1.4 3.1 1.4Zm148.9 0c1.1 -.1 2.2 -.5 3 -1.3c.7 -.9 1.2 -2 1.2 -3.5c-.1 -1.5 -.4 -2.5 -1.2 -3.4c-.9 -1 -1.9 -1.3 -3 -1.3c-.1 0 -.2 0 -.3 0c-1.1 0 -2 .5 -2.8 1.3c-.9 .8 -1.3 2.1 -1.3 3.4c-.1 1.4 .4 2.5 1.3 3.4c.8 .9 1.9 1.4 3.1 1.4Zm-258.5 1.4V276.6h-4.3V275h10.6v1.6h-4.4v10.5Zm80.3 0V276.6h-4.3V275H441v1.6h-4.4v10.5Zm120.4 .1c-.5 0 -.9 0 -1.5 -.2l.3 -1.5c.3 0 .6 .2 .8 .2c.3 -.1 .7 -.1 .9 -.2c.1 -.2 .4 -.3 .7 -.7c.2 -.4 .5 -.8 .6 -1.5c.1 -.7 .3 -1.6 .4 -2.8c0 -1.3 .1 -2.7 .1 -4.5v-1h8.7v12h-1.9V276.6h-4.9v.3c-.1 1.7 -.1 3.4 -.2 4.7c-.3 1.1 -.4 2.3 -.6 3c-.2 .7 -.5 1.3 -.9 1.7c-.4 .4 -.8 .6 -1.1 .8c-.4 0 -.8 .1 -1.4 .1Zm29.3 -.1V276.6h-4.3V275h10.6v1.6h-4.4v10.5ZM271 286.9v-12h1.9v9.5l7.1 -9.5h1.9v12H280v-9.5l-7.2 9.5Zm27.9 0v-12h1.8v6.9l6.7 -6.9h2.2l-5.1 5.2l5.3 6.8h-2.2l-4.3 -5.5l-2.6 2.6v2.9Zm64.1 0v-12h5.8c1.2 0 2.2 .3 2.9 .8c.7 .5 1.1 1.3 1.1 2.2c-.1 1.1 -.7 2.1 -2.1 2.7c1.8 .5 2.8 1.5 2.8 3c-.1 1 -.4 1.8 -1.2 2.4c-.9 .6 -1.9 .9 -3.3 .9Zm40.9 0v-12h1.8v9.5l7.2 -9.5h1.8v12h-1.8v-9.5l-7.2 9.5Zm69.3 0v-12h1.9v9.5l7.1 -9.5H484v12h-1.8v-9.5l-7.2 9.5Zm13.5 0l3.7 -4.6c-1 -.2 -1.7 -.7 -2.3 -1.3c-.7 -.7 -.9 -1.4 -.9 -2.3c0 -1.2 .4 -2.1 1.2 -2.7c.7 -.7 1.9 -1.1 3.4 -1.1h5.7v12h-1.9v-4.3h-3.3c-.2 .2 -.6 .8 -1.4 1.9c-.9 1 -1.5 1.9 -1.9 2.4Zm21.5 0v-12H510v9.5l7.2 -9.5H519v12h-1.8v-9.5l-7.2 9.5Zm21.4 0v-12h1.9v6.9l6.7 -6.9h2.2l-5.1 5.2l5.2 6.8h-2.1l-4.3 -5.5l-2.6 2.6v2.9Zm40.3 0v-12h1.9v4.4H575c0 0 .1 0 .2 0c1.3 0 2.4 .4 3.2 .9c.8 .5 1.4 1.5 1.4 2.8c-.1 1.1 -.5 2.1 -1.3 2.8c-.9 .7 -1.9 1.1 -3.3 1.1Zm-256 3.7c-1 0 -1.7 -.2 -2.6 -.6l.6 -1.5c.5 .2 1.2 .5 1.9 .5c.5 0 1 -.2 1.4 -.5c.3 -.4 .8 -.9 1.1 -1.8l-5.5 -11.9h2l4.4 10l3.9 -10h2L318 287.2c-.7 1.1 -1.1 2.1 -1.8 2.6c-.7 .4 -1.4 .8 -2.3 .8Zm230.8 0c-1 0 -1.8 -.2 -2.6 -.6l.6 -1.5c.5 .2 1.2 .5 1.9 .5c.5 0 1 -.2 1.4 -.5c.3 -.4 .7 -.9 1.1 -1.8l-5.5 -11.9h2l4.4 10l3.9 -10h1.9l-5.1 12.4c-.6 1.1 -1.1 2.1 -1.7 2.6c-.7 .4 -1.4 .8 -2.3 .8Zm50.2 0c-1 0 -1.8 -.2 -2.6 -.6l.6 -1.5c.5 .2 1.2 .5 1.9 .5c.5 0 1 -.2 1.4 -.5c.3 -.4 .7 -.9 1.1 -1.8l-5.5 -11.9h2l4.4 10l3.9 -10H604l-5.1 12.4c-.6 1.1 -1.1 2.1 -1.7 2.6c-.7 .4 -1.4 .8 -2.3 .8Zm40.5 -13.4v-2.5h2.2v2.5Zm-344.2 10c-1.8 0 -3.2 -.6 -4.4 -1.8C285.5 284.1 285 282.7 285 281c0 -1.8 .6 -3.2 1.8 -4.5c1.1 -1.3 2.7 -1.8 4.4 -1.8q.1 0 .1 0c1.8 0 3.5 .7 4.8 2.1l-1.2 1.2c-1.2 -1.2 -2.3 -1.7 -3.7 -1.7c-1.3 0 -2.3 .4 -3.1 1.3c-.9 .9 -1.3 2 -1.3 3.4c0 1.3 .5 2.4 1.3 3.3c.8 .9 1.9 1.4 3.2 1.4c1.3 -.1 2.5 -.7 3.7 -1.9l1.2 1.1c-1.5 1.6 -3.1 2.3 -5 2.3Zm39.3 0c-1.8 0 -3.2 -.6 -4.4 -1.8c-1.2 -1.3 -1.8 -2.7 -1.8 -4.4c0 -1.8 .6 -3.2 1.8 -4.5c1.2 -1.3 2.7 -1.8 4.4 -1.8q.1 0 .1 0c1.8 0 3.5 .7 4.8 2.1l-1.1 1.2c-1.3 -1.2 -2.4 -1.7 -3.8 -1.7c-1.3 0 -2.2 .4 -3.1 1.3c-.9 .9 -1.2 2 -1.2 3.4c-.1 1.3 .4 2.4 1.3 3.3c.8 .9 1.9 1.4 3.1 1.4c1.3 -.1 2.6 -.7 3.7 -1.9l1.2 1.1c-1.5 1.6 -3.1 2.3 -5 2.3Zm13.3 0c-1.9 0 -3.3 -.6 -4.5 -1.8c-1.2 -1.3 -1.8 -2.7 -1.8 -4.4c0 -1.8 .6 -3.2 1.8 -4.5c1.2 -1.3 2.7 -1.8 4.5 -1.8h.1c1.7 0 3.4 .7 4.7 2.1l-1.1 1.2c-1.3 -1.2 -2.4 -1.7 -3.8 -1.7c-1.3 0 -2.2 .4 -3.1 1.3c-.8 .9 -1.2 2 -1.2 3.4c-.1 1.3 .4 2.4 1.3 3.3c.8 .9 1.9 1.4 3.2 1.4c1.3 -.1 2.5 -.7 3.6 -1.9l1.2 1.1c-1.5 1.6 -3 2.3 -4.9 2.3Zm80.3 0c-1.9 0 -3.3 -.6 -4.5 -1.8c-1.2 -1.3 -1.8 -2.7 -1.8 -4.4c0 -1.8 .6 -3.2 1.8 -4.5c1.2 -1.3 2.7 -1.8 4.5 -1.8h.1c1.7 0 3.4 .7 4.8 2.1l-1.2 1.2c-1.2 -1.2 -2.4 -1.7 -3.7 -1.7c-1.3 0 -2.3 .4 -3.1 1.3c-.9 .9 -1.3 2 -1.3 3.4c-.1 1.3 .4 2.4 1.3 3.3c.8 .9 1.9 1.4 3.2 1.4c1.3 -.1 2.5 -.7 3.6 -1.9l1.3 1.1c-1.5 1.6 -3.1 2.3 -5 2.3Zm-42 0c-1.9 0 -3.3 -.6 -4.5 -1.8c-1.2 -1.3 -1.7 -2.7 -1.7 -4.5c0 -1.7 .6 -3.1 1.8 -4.4c1.1 -1.3 2.7 -1.8 4.5 -1.8c0 0 .1 0 .1 0c1.7 0 3.2 .6 4.4 1.8c1.1 1.1 1.8 2.7 1.8 4.4c0 1.8 -.6 3.2 -1.8 4.5c-1.3 1.2 -2.8 1.8 -4.6 1.8Zm66.3 0c-1.9 0 -3.3 -.6 -4.5 -1.8c-1.2 -1.3 -1.8 -2.7 -1.8 -4.5c0 -1.7 .6 -3.1 1.8 -4.4c1.2 -1.3 2.8 -1.8 4.6 -1.8h.1c1.7 0 3.2 .6 4.4 1.8c1.1 1.1 1.8 2.7 1.8 4.4c0 1.8 -.6 3.2 -1.9 4.5c-1.2 1.2 -2.7 1.8 -4.5 1.8Zm177.1 0c-1.2 0 -2.2 -.3 -3.1 -1c-1 -.8 -1.3 -1.6 -1.3 -2.8c0 -1.4 .4 -2.3 1.3 -3c1 -.8 2.2 -1.1 3.8 -1.1q.1 0 .2 0c1.1 0 2.3 .2 3.4 .6v-.4c0 -1.1 -.3 -1.8 -.9 -2.4c-.7 -.6 -1.5 -.8 -2.6 -.8c-1.2 0 -2.4 .2 -3.6 .8l-.5 -1.4c1.4 -.7 2.9 -1 4.3 -1q.1 0 .2 0c1.6 0 2.9 .4 3.7 1.3c.9 .8 1.3 2 1.3 3.6V287h-1.9v-1.9c-1.1 1.4 -2.5 2.1 -4.3 2.1Zm-167.7 3.4V274.9h1.8v2.4c1.2 -1.8 2.8 -2.7 4.7 -2.7c1.5 0 2.9 .6 4.1 1.7c1 1.1 1.7 2.7 1.7 4.6c0 1.9 -.6 3.4 -1.7 4.6c-1.3 1.1 -2.6 1.7 -4.1 1.7c-2 0 -3.5 -.8 -4.7 -2.5v5.9Zm148.8 0V274.9h1.9v2.4c1.2 -1.8 2.8 -2.7 4.7 -2.7c1.4 0 2.9 .6 4 1.7c1.1 1.1 1.8 2.7 1.8 4.6c0 1.9 -.6 3.4 -1.8 4.6c-1.2 1.1 -2.5 1.7 -4 1.7c-2 0 -3.5 -.8 -4.7 -2.5v5.9Zm20.5 -42.5v-2.5h2.2v2.5ZM922.5 251l-.2 -.9c1 -.4 1.5 -1 1.5 -1.8v-.2H923v-2.5h2.1v2.1c-.1 .9 -.2 1.7 -.6 2.2c-.4 .5 -1.1 .9 -2 1.1ZM367.3 246.5c.8 0 1.5 -.2 2 -.5c.5 -.4 .8 -.9 .8 -1.5c0 -.6 -.3 -1 -.8 -1.3c-.6 -.4 -1.3 -.5 -2.2 -.5h-3.8v3.8Zm278.4 0c.8 0 1.5 -.2 2 -.5c.4 -.4 .8 -.9 .8 -1.5c0 -.6 -.3 -1 -.8 -1.3c-.6 -.4 -1.3 -.5 -2.2 -.5h-3.8v3.8Zm-320.6 .3c1 0 2 -.3 2.8 -.8c.6 -.7 1.1 -1.4 1.1 -2.3v-1.1c-1.2 -.4 -2.3 -.5 -3.5 -.5c-1 0 -1.9 .2 -2.5 .7c-.6 .3 -.9 1 -.9 1.7c-.1 .7 .3 1.3 .8 1.7c.6 .4 1.3 .6 2.2 .6Zm53.8 0c1 0 2 -.3 2.8 -.8c.6 -.7 1.1 -1.4 1.1 -2.3v-1.1c-1.2 -.4 -2.3 -.5 -3.5 -.5c-1 0 -1.9 .2 -2.5 .7c-.7 .3 -.9 1 -.9 1.7c-.1 .7 .3 1.3 .8 1.7c.6 .4 1.3 .6 2.2 .6Zm53.6 -.3c.8 0 1.6 -.2 2.1 -.6c.4 -.4 .8 -.9 .8 -1.7c0 -.7 -.3 -1.2 -.8 -1.5c-.6 -.5 -1.3 -.6 -2.2 -.6h-3.2v4.4Zm26.9 0c.9 0 1.6 -.2 2.1 -.6c.4 -.4 .8 -.9 .8 -1.7c0 -.7 -.3 -1.2 -.8 -1.5c-.6 -.5 -1.3 -.6 -2.2 -.6h-3.2v4.4Zm107.8 .3c1 0 2 -.3 2.8 -.8c.7 -.7 1.2 -1.4 1.2 -2.3v-1.1c-1.3 -.4 -2.4 -.5 -3.5 -.5c-1.1 0 -1.9 .2 -2.6 .7c-.6 .3 -.9 1 -.9 1.7c0 .7 .3 1.3 .9 1.7c.5 .4 1.3 .6 2.1 .6Zm47.4 -.3c.9 0 1.6 -.2 2.1 -.6c.5 -.4 .8 -.9 .8 -1.7c0 -.7 -.3 -1.2 -.8 -1.5c-.6 -.5 -1.2 -.6 -2.1 -.6h-3.2v4.4Zm137.8 .3c1.1 0 2.1 -.3 2.8 -.8c.7 -.7 1.2 -1.4 1.2 -2.3v-1.1c-1.2 -.4 -2.3 -.5 -3.5 -.5c-1.1 0 -1.9 .2 -2.5 .7c-.7 .3 -.9 1 -.9 1.7c-.1 .7 .2 1.3 .8 1.7c.6 .4 1.3 .6 2.1 .6Zm-455.8 0c1.2 0 2.3 -.4 3.1 -1.3c.7 -.9 1.2 -1.9 1.2 -3.2c0 -1.3 -.4 -2.3 -1.2 -3.2c-.9 -1 -1.9 -1.3 -3.1 -1.3c-1.3 0 -2.2 .4 -3.1 1.3c-.8 .8 -1.2 1.9 -1.2 3.2c0 1.2 .4 2.3 1.3 3.2c.8 .9 1.8 1.3 3 1.3ZM367 241.1c.7 0 1.3 -.1 1.8 -.5c.4 -.3 .6 -.7 .6 -1.3c0 -.5 -.2 -.9 -.6 -1.2c-.4 -.3 -1 -.4 -1.8 -.4h-3.7v3.4Zm278.4 0c.6 0 1.3 -.1 1.7 -.5c.5 -.3 .7 -.7 .7 -1.3c0 -.5 -.2 -.9 -.6 -1.2c-.5 -.3 -1 -.4 -1.8 -.4h-3.7v3.4Zm29.8 5.4v-8.8h-4.9v1.7c-.1 2.9 -.5 5.3 -1.5 7.1Zm94.6 -4.3v-4.5H766c-.1 0 -.2 0 -.3 0c-.7 0 -1.3 .2 -1.7 .6c-.6 .3 -.8 .9 -.8 1.6c-.1 .7 .3 1.3 .8 1.7c.5 .3 1.2 .6 2.1 .6Zm147.6 0v-4.5h-3.7c-.1 0 -.2 0 -.3 0c-.8 0 -1.4 .2 -1.8 .6c-.6 .3 -.8 .9 -.8 1.6c0 .7 .3 1.3 .8 1.7c.6 .3 1.3 .6 2.1 .6Zm-565.3 4.6c1.3 0 2.4 -.4 3.2 -1.3c.8 -.9 1.3 -2 1.3 -3.3c-.1 -1.4 -.5 -2.5 -1.3 -3.4c-.9 -.9 -2 -1.4 -3.2 -1.4c-1.4 0 -2.4 .5 -3.2 1.4c-.9 .9 -1.2 2 -1.2 3.4c-.1 1.2 .4 2.4 1.2 3.3c.8 .9 2 1.3 3.2 1.3Zm175.9 0c1.3 0 2.3 -.4 3.2 -1.3c.7 -.9 1.2 -2 1.2 -3.3c0 -1.4 -.4 -2.5 -1.3 -3.4c-.9 -.9 -1.9 -1.4 -3.2 -1.4c-1.4 0 -2.3 .5 -3.2 1.4c-.8 .9 -1.2 2 -1.2 3.4c-.1 1.2 .4 2.4 1.3 3.3c.8 .9 1.9 1.3 3.2 1.3Zm309.2 0c1.2 0 2.3 -.4 3.2 -1.3c.7 -.9 1.2 -2 1.2 -3.3c0 -1.4 -.4 -2.5 -1.3 -3.4c-.9 -.9 -1.9 -1.4 -3.2 -1.4c-1.4 0 -2.3 .5 -3.2 1.4c-.8 .9 -1.2 2 -1.2 3.4c-.1 1.2 .4 2.4 1.3 3.3c.8 .9 1.9 1.3 3.2 1.3Zm28.2 0c1.3 0 2.3 -.4 3.2 -1.3c.7 -.9 1.2 -2 1.2 -3.3c0 -1.4 -.4 -2.5 -1.3 -3.4c-.9 -.9 -1.9 -1.4 -3.2 -1.4c-1.4 0 -2.3 .5 -3.2 1.4c-.8 .9 -1.2 2 -1.2 3.4c-.1 1.2 .4 2.4 1.3 3.3c.8 .9 1.9 1.3 3.2 1.3Zm-553.4 0c1.2 0 2.2 -.4 3.1 -1.2c.7 -.9 1.2 -2.1 1.2 -3.5c-.1 -1.5 -.5 -2.5 -1.3 -3.4c-.9 -1 -1.8 -1.3 -3 -1.3q-.1 0 -.2 0c-1.1 0 -2 .5 -2.8 1.3c-.9 .8 -1.3 2.1 -1.3 3.4c-.1 1.4 .4 2.5 1.3 3.4c.8 .9 1.9 1.3 3 1.3Zm201.1 0c1.1 0 2.2 -.4 3 -1.2c.7 -.9 1.2 -2.1 1.2 -3.5c0 -1.5 -.4 -2.5 -1.2 -3.4c-.9 -1 -1.8 -1.3 -3 -1.3c-.1 0 -.2 0 -.3 0c-1.1 0 -1.9 .5 -2.8 1.3c-.9 .8 -1.3 2.1 -1.3 3.4c0 1.4 .5 2.5 1.3 3.4c.9 .9 1.9 1.3 3.1 1.3Zm41.1 0c1.1 0 2.2 -.4 3 -1.2c.7 -.9 1.2 -2.1 1.2 -3.5c0 -1.5 -.4 -2.5 -1.2 -3.4c-.9 -1 -1.9 -1.3 -3 -1.3c-.1 0 -.2 0 -.3 0c-1.1 0 -2 .5 -2.8 1.3c-.9 .8 -1.3 2.1 -1.3 3.4c-.1 1.4 .4 2.5 1.3 3.4c.8 .9 1.9 1.3 3.1 1.3Zm232.8 0c.9 0 1.9 -.4 2.7 -1.2v-7c-.8 -.9 -1.7 -1.2 -2.7 -1.2c-.1 0 -.2 0 -.3 0c-1 0 -1.7 .5 -2.3 1.2c-.6 .8 -.8 2.1 -.8 3.6c-.1 3.1 1.1 4.6 3.4 4.6Zm92.3 0c.9 0 1.9 -.4 2.7 -1.2v-7c-.8 -.9 -1.6 -1.2 -2.7 -1.2c-.1 0 -.2 0 -.2 0c-1.1 0 -1.8 .5 -2.4 1.2c-.6 .8 -.8 2.1 -.8 3.6c-.1 3.1 1.1 4.6 3.4 4.6Zm-85.1 0c2.2 0 3.5 -1.5 3.5 -4.7c0 -1.5 -.3 -2.6 -.9 -3.5c-.6 -.9 -1.4 -1.2 -2.6 -1.2q-.1 0 -.2 0c-1 0 -1.7 .4 -2.5 1.2v7c.7 .8 1.7 1.2 2.7 1.2Zm92.3 0c2.3 0 3.5 -1.5 3.5 -4.7c0 -1.5 -.3 -2.6 -.9 -3.5c-.6 -.9 -1.4 -1.2 -2.6 -1.2c0 0 -.1 0 -.2 0c-1 0 -1.7 .4 -2.4 1.2v7c.7 .8 1.6 1.2 2.6 1.2ZM408.6 241.4c-.1 -1.1 -.5 -2.1 -1.2 -2.9c-.7 -.8 -1.6 -1.1 -2.7 -1.1c-.1 0 -.2 0 -.3 0c-1 0 -1.7 .4 -2.4 1.1c-.8 .8 -1.2 1.8 -1.3 2.9Zm72.5 0c-.2 -1.1 -.5 -2.1 -1.2 -2.9c-.8 -.8 -1.6 -1.1 -2.7 -1.1c-.1 0 -.2 0 -.3 0c-1 0 -1.7 .4 -2.4 1.1c-.8 .8 -1.2 1.8 -1.3 2.9Zm181.4 0c-.1 -1.1 -.5 -2.1 -1.2 -2.9c-.7 -.8 -1.6 -1.1 -2.7 -1.1c-.1 0 -.2 0 -.3 0c-1 0 -1.7 .4 -2.4 1.1c-.8 .8 -1.2 1.8 -1.3 2.9Zm55.6 0c-.1 -1.1 -.5 -2.1 -1.1 -2.9c-.8 -.8 -1.6 -1.1 -2.8 -1.1c-.1 0 -.2 0 -.2 0c-1 0 -1.8 .4 -2.5 1.1c-.8 .8 -1.2 1.8 -1.3 2.9Zm-326.7 6.9V237.8h-4.3v-1.6h10.6v1.6h-4.4v10.5Zm21.2 .1c-.5 0 -1 0 -1.5 -.2l.2 -1.5c.3 0 .7 .1 .9 .1c.2 0 .6 0 .8 -.1c.2 -.2 .5 -.3 .8 -.7c.1 -.4 .4 -.8 .6 -1.5c0 -.7 .2 -1.6 .3 -2.8c.1 -1.3 .2 -2.8 .2 -4.5v-1h8.6v12h-1.8V237.8h-5v.3c0 1.7 0 3.4 -.2 4.6c-.2 1.2 -.3 2.3 -.5 3.1c-.3 .7 -.5 1.3 -.9 1.7c-.5 .4 -.8 .6 -1.2 .7c-.3 .1 -.8 .2 -1.3 .2Zm79.9 -.1V236.2H503v12.1h-1.8V237.8h-6.8v10.5Zm44.8 0V236.2h8.3v1.6h-6.5v10.5Zm279.4 .1c-.5 0 -1 0 -1.5 -.2l.2 -1.5c.4 0 .7 .1 .9 .1c.3 0 .6 0 .9 -.1c.1 -.2 .4 -.3 .7 -.7c.2 -.4 .4 -.8 .6 -1.5c.1 -.7 .2 -1.6 .3 -2.8c.1 -1.3 .2 -2.8 .2 -4.5v-1h8.6v12h-1.8V237.8h-4.9v.3c-.1 1.7 -.1 3.4 -.3 4.6c-.2 1.2 -.3 2.3 -.5 3.1c-.3 .7 -.5 1.3 -.9 1.7c-.5 .4 -.8 .6 -1.1 .7c-.4 .1 -.8 .2 -1.4 .2Zm-455.3 -.3v-12h5.9c1.1 0 2.2 .3 2.9 .8c.7 .5 1.1 1.3 1.1 2.2c-.1 1.1 -.7 2.1 -2.1 2.7c1.8 .5 2.8 1.5 2.8 3c-.1 1 -.4 1.8 -1.2 2.4c-1 .6 -1.9 .9 -3.3 .9Zm66 0v-12h1.8v4.4h3.3c0 0 .1 0 .1 0c1.3 0 2.4 .3 3.3 .9c.8 .5 1.3 1.5 1.3 2.8c-.1 1.1 -.4 2.1 -1.2 2.8c-1 .6 -2 1.1 -3.4 1.1Zm12.4 0v-12h1.9v5.1h6.9v-5.1h1.9v12h-1.9v-5.3h-6.9v5.3Zm14.5 0v-12h1.8v4.4h3.3c0 0 .1 0 .1 0c1.3 0 2.4 .3 3.3 .9c.8 .5 1.3 1.5 1.3 2.8c0 1.1 -.4 2.1 -1.2 2.8c-1 .6 -2 1.1 -3.4 1.1Zm12 0v-12h1.8v12Zm110.5 0v-12h1.8l4.4 6.3l4.5 -6.3h1.8v12h-1.9V239l-4.4 6l-4.4 -6v9.1Zm16.3 0v-12H595l4.4 6.3l4.5 -6.3h1.8v12h-1.9V239l-4.4 6L595 239v9.1Zm16.4 0v-12h1.9v4.4h3.2q.1 0 .2 0c1.3 0 2.4 .3 3.2 .9c.9 .5 1.4 1.5 1.4 2.8c-.1 1.1 -.5 2.1 -1.3 2.8c-.9 .6 -1.9 1.1 -3.3 1.1Zm12 0v-12h1.9v12Zm18.3 0v-12h5.9c1.1 0 2.2 .3 2.9 .8c.7 .5 1.1 1.3 1.1 2.2c-.1 1.1 -.7 2.1 -2.1 2.7c1.8 .5 2.7 1.5 2.7 3c0 1 -.4 1.8 -1.2 2.4c-.9 .6 -1.8 .9 -3.2 .9Zm25.6 3v-4.6h1.4c1.1 -2 1.6 -4.7 1.6 -8.3v-2.1h8.7v10.4h1.6v4.6h-1.6v-3h-9.8l-.4 3Zm15.6 -3v-12h1.9v9.5l7.2 -9.5h1.8v12H690v-9.5l-7.2 9.5Zm22.4 0v-4.9c-.5 .3 -1.1 .6 -1.9 .8c-.8 .2 -1.5 .4 -2.1 .4c-1.3 -.1 -2.2 -.4 -3 -1c-.7 -.7 -1.1 -1.5 -1.1 -2.7v-4.6h1.9v4.4c-.1 .7 .2 1.2 .6 1.7c.4 .4 1.1 .6 1.8 .6c1.4 0 2.7 -.4 3.8 -1.2v-5.5h1.9v12Zm32.6 0v-12h1.8V243l6.7 -6.9h2.2l-5.1 5.2l5.2 6.8h-2.1l-4.3 -5.5l-2.6 2.6v2.9Zm24.9 0l3.7 -4.6c-1 -.3 -1.7 -.7 -2.3 -1.3c-.7 -.7 -1 -1.4 -1 -2.3c0 -1.2 .4 -2.1 1.3 -2.7c.7 -.8 1.9 -1.1 3.3 -1.1h5.8v12h-1.9v-4.3h-3.3c-.2 .2 -.6 .8 -1.5 1.9c-.8 1 -1.4 1.8 -1.8 2.4Zm41.8 0v-12h1.9v9.5l7.1 -9.5h1.8v12h-1.8v-9.5l-7.2 9.5Zm92.3 0v-12h1.9v9.5l7.1 -9.5h1.9v12H904v-9.5l-7.2 9.5Zm13.5 0l3.8 -4.6c-1.1 -.3 -1.8 -.7 -2.4 -1.3c-.7 -.7 -.9 -1.4 -.9 -2.3c0 -1.2 .4 -2.1 1.2 -2.7c.7 -.8 1.9 -1.1 3.4 -1.1h5.7v12h-1.9v-4.3h-3.3c-.2 .2 -.6 .8 -1.4 1.9c-.9 1 -1.5 1.8 -1.9 2.4ZM627.1 238.4v-2.5h2.2v2.5Zm101.2 10c-1.8 0 -3.2 -.6 -4.4 -1.8c-1.3 -1.3 -1.8 -2.7 -1.8 -4.5c0 -1.7 .6 -3.2 1.8 -4.4c1.1 -1.3 2.7 -1.8 4.4 -1.8c0 0 .1 0 .1 0c1.8 0 3.4 .7 4.8 2.1l-1.2 1.2c-1.2 -1.2 -2.4 -1.8 -3.7 -1.8c-1.3 0 -2.3 .5 -3.1 1.4c-.9 .9 -1.3 2 -1.3 3.4c0 1.2 .5 2.4 1.3 3.3c.8 .9 1.9 1.3 3.2 1.3c1.3 0 2.5 -.6 3.7 -1.8l1.2 1.1c-1.5 1.5 -3.1 2.3 -5 2.3Zm123.8 0c-1.9 0 -3.3 -.6 -4.5 -1.8c-1.2 -1.3 -1.8 -2.7 -1.8 -4.5c0 -1.7 .6 -3.2 1.8 -4.4c1.2 -1.3 2.7 -1.8 4.5 -1.8c1.8 0 3.5 .7 4.8 2.1l-1.1 1.2c-1.3 -1.2 -2.4 -1.8 -3.8 -1.8c-1.3 0 -2.2 .5 -3.1 1.4c-.9 .9 -1.2 2 -1.2 3.4c-.1 1.2 .4 2.4 1.3 3.3c.8 .9 1.9 1.3 3.1 1.3c1.3 0 2.6 -.6 3.7 -1.8l1.2 1.1c-1.5 1.5 -3 2.3 -4.9 2.3Zm-500 0c-1.9 0 -3.3 -.6 -4.5 -1.8c-1.3 -1.3 -1.8 -2.7 -1.8 -4.5c0 -1.7 .6 -3.2 1.8 -4.4c1.2 -1.3 2.7 -1.8 4.5 -1.8q.1 0 .1 0c1.8 0 3.2 .6 4.4 1.8c1.2 1.1 1.8 2.7 1.8 4.4c0 1.8 -.6 3.2 -1.8 4.5c-1.3 1.2 -2.7 1.8 -4.5 1.8Zm175.8 0c-1.9 0 -3.3 -.6 -4.5 -1.8c-1.2 -1.3 -1.8 -2.7 -1.8 -4.5c0 -1.7 .6 -3.2 1.8 -4.4c1.2 -1.3 2.8 -1.8 4.6 -1.8h.1c1.7 0 3.2 .6 4.4 1.8c1.1 1.1 1.8 2.7 1.8 4.4c0 1.8 -.6 3.2 -1.9 4.5c-1.2 1.2 -2.7 1.8 -4.5 1.8Zm309.2 0c-1.9 0 -3.3 -.6 -4.5 -1.8c-1.2 -1.3 -1.8 -2.7 -1.8 -4.5c0 -1.7 .6 -3.2 1.8 -4.4c1.2 -1.3 2.8 -1.8 4.6 -1.8h.1c1.7 0 3.2 .6 4.4 1.8c1.1 1.1 1.8 2.7 1.8 4.4c0 1.8 -.6 3.2 -1.9 4.5c-1.2 1.2 -2.7 1.8 -4.5 1.8Zm28.2 0c-1.9 0 -3.3 -.6 -4.5 -1.8c-1.2 -1.3 -1.8 -2.7 -1.8 -4.5c0 -1.7 .6 -3.2 1.8 -4.4c1.2 -1.3 2.8 -1.8 4.6 -1.8h.1c1.7 0 3.2 .6 4.4 1.8c1.1 1.1 1.8 2.7 1.8 4.4c0 1.8 -.6 3.2 -1.9 4.5c-1.2 1.2 -2.7 1.8 -4.5 1.8Zm-540.6 0c-1.3 0 -2.3 -.3 -3.2 -1c-.9 -.8 -1.3 -1.6 -1.3 -2.9c0 -1.3 .5 -2.2 1.4 -2.9c.9 -.8 2.2 -1.1 3.8 -1.1c0 0 .1 0 .2 0c1.1 0 2.3 .2 3.4 .6v-.4c0 -1.1 -.3 -1.9 -.9 -2.4c-.7 -.6 -1.5 -.9 -2.6 -.9c-1.3 0 -2.4 .3 -3.6 .9l-.6 -1.4c1.5 -.7 3 -1 4.4 -1q.1 0 .1 0c1.6 0 2.9 .4 3.8 1.3c.8 .8 1.3 2 1.3 3.6v7.3H329v-1.8c-1.1 1.3 -2.5 2.1 -4.3 2.1Zm53.8 0c-1.3 0 -2.3 -.3 -3.2 -1c-1 -.8 -1.3 -1.6 -1.3 -2.9c0 -1.3 .5 -2.2 1.4 -2.9c.9 -.8 2.2 -1.1 3.7 -1.1c.1 0 .2 0 .2 0c1.2 0 2.4 .2 3.5 .6v-.4c0 -1.1 -.3 -1.9 -.9 -2.4c-.7 -.6 -1.5 -.9 -2.6 -.9c-1.3 0 -2.4 .3 -3.6 .9l-.6 -1.4c1.5 -.7 3 -1 4.4 -1c0 0 .1 0 .1 0c1.6 0 2.9 .4 3.8 1.3c.8 .8 1.3 2 1.3 3.6v7.3h-1.9v-1.8c-1.1 1.3 -2.5 2.1 -4.3 2.1Zm188.3 0c-1.2 0 -2.2 -.3 -3.1 -1c-1 -.8 -1.3 -1.6 -1.3 -2.9c0 -1.3 .4 -2.2 1.4 -2.9c.9 -.8 2.1 -1.1 3.7 -1.1q.1 0 .2 0c1.1 0 2.3 .2 3.5 .6v-.4c-.1 -1.1 -.4 -1.9 -1 -2.4c-.7 -.6 -1.5 -.9 -2.6 -.9c-1.2 0 -2.3 .3 -3.6 .9l-.5 -1.4c1.4 -.7 2.9 -1 4.4 -1h.1c1.6 0 2.9 .4 3.7 1.3c.9 .8 1.3 2 1.3 3.6v7.3h-1.8v-1.8c-1.2 1.3 -2.6 2.1 -4.4 2.1Zm185.3 0c-1.3 0 -2.3 -.3 -3.2 -1c-1 -.8 -1.3 -1.6 -1.3 -2.9c0 -1.3 .5 -2.2 1.4 -2.9c.9 -.8 2.2 -1.1 3.7 -1.1c.1 0 .2 0 .2 0c1.2 0 2.4 .2 3.5 .6v-.4c-.1 -1.1 -.3 -1.9 -.9 -2.4c-.7 -.6 -1.5 -.9 -2.6 -.9c-1.3 0 -2.4 .3 -3.7 .9l-.5 -1.4c1.5 -.7 3 -1 4.4 -1c0 0 .1 0 .1 0c1.6 0 2.9 .4 3.8 1.3c.8 .8 1.2 2 1.2 3.6v7.3h-1.8v-1.8c-1.1 1.3 -2.5 2.1 -4.3 2.1Zm-446.3 3.4V236.1h1.9v2.4c1.1 -1.8 2.7 -2.7 4.6 -2.7c1.5 0 2.9 .6 4.1 1.7c1.1 1.1 1.7 2.7 1.7 4.6c0 1.9 -.6 3.4 -1.7 4.6c-1.3 1.1 -2.5 1.7 -4.1 1.7c-2 0 -3.4 -.8 -4.6 -2.5v5.9Zm32.9 -3.4c-1.9 0 -3.6 -.6 -5.1 -1.8l1 -1.3c1.1 1 2.5 1.5 4 1.5c.7 0 1.5 -.1 2.1 -.5c.6 -.5 .9 -.9 .9 -1.6c0 -.7 -.2 -1.1 -.8 -1.4c-.6 -.4 -1.3 -.5 -2.2 -.5H337v-1.6h1.6c.7 0 1.4 -.2 1.9 -.6c.5 -.4 .8 -.8 .8 -1.5c0 -.5 -.3 -.9 -.8 -1.2c-.5 -.4 -1.1 -.5 -1.8 -.5c-.2 0 -.3 0 -.4 0c-1.3 0 -2.4 .4 -3.3 1.2l-.9 -1.3c1.3 -1.1 2.9 -1.5 4.7 -1.5c1.3 0 2.4 .3 3.2 .9c.7 .5 1.1 1.4 1.1 2.3c0 1.3 -.6 2.3 -1.9 2.8c1.4 .5 2.3 1.5 2.3 3c-.1 1 -.5 1.9 -1.3 2.6c-1 .6 -2.1 1 -3.5 1Zm66.3 0c-1.8 0 -3.2 -.6 -4.4 -1.7c-1.2 -1.3 -1.8 -2.7 -1.8 -4.6c0 -1.8 .6 -3.3 1.7 -4.5c1.1 -1.3 2.6 -1.8 4.2 -1.8c1.7 0 3.2 .6 4.2 1.9c1 1.1 1.6 2.8 1.6 4.7c0 .1 0 .4 -.1 .6h-9.7c0 1.1 .6 2.1 1.4 2.8c.7 .7 1.8 1 2.9 1c1.4 0 2.8 -.5 3.9 -1.6l1.1 1c-1.4 1.4 -3 2.2 -5 2.2Zm72.4 0c-1.7 0 -3.1 -.6 -4.3 -1.7c-1.2 -1.3 -1.8 -2.7 -1.8 -4.6c0 -1.8 .6 -3.3 1.7 -4.5c1.1 -1.3 2.5 -1.8 4.2 -1.8c1.7 0 3.2 .6 4.2 1.9c1 1.1 1.5 2.8 1.5 4.7c0 .1 0 .4 0 .6h-9.7c0 1.1 .6 2.1 1.4 2.8c.7 .7 1.8 1 2.9 1c1.4 0 2.8 -.5 3.9 -1.6l1.1 1c-1.4 1.4 -3.1 2.2 -5.1 2.2Zm29.5 3.4V236.1h1.8v2.4c1.2 -1.8 2.8 -2.7 4.7 -2.7c1.5 0 2.9 .6 4.1 1.7c1 1.1 1.7 2.7 1.7 4.6c0 1.9 -.6 3.4 -1.7 4.6c-1.3 1.1 -2.6 1.7 -4.1 1.7c-2 0 -3.5 -.8 -4.7 -2.5v5.9Zm41.1 0V236.1h1.8v2.4c1.2 -1.8 2.8 -2.7 4.7 -2.7c1.4 0 2.9 .6 4 1.7c1.1 1.1 1.8 2.7 1.8 4.6c0 1.9 -.6 3.4 -1.8 4.6c-1.2 1.1 -2.5 1.7 -4 1.7c-2 0 -3.5 -.8 -4.7 -2.5v5.9Zm110.9 -3.4c-1.8 0 -3.2 -.6 -4.4 -1.7c-1.2 -1.3 -1.8 -2.7 -1.8 -4.6c0 -1.8 .6 -3.3 1.7 -4.5c1.1 -1.3 2.6 -1.8 4.2 -1.8c1.7 0 3.2 .6 4.2 1.9c1 1.1 1.6 2.8 1.6 4.7c0 .1 0 .4 -.1 .6h-9.7c0 1.1 .6 2.1 1.4 2.8c.7 .7 1.8 1 2.9 1c1.4 0 2.8 -.5 3.9 -1.6l1.1 1c-1.4 1.4 -3 2.2 -5 2.2Zm55.6 0c-1.8 0 -3.2 -.6 -4.4 -1.7c-1.2 -1.3 -1.7 -2.7 -1.7 -4.6c0 -1.8 .5 -3.3 1.6 -4.5c1.2 -1.3 2.6 -1.8 4.3 -1.8c1.6 0 3.1 .6 4.1 1.9c1 1.1 1.6 2.8 1.6 4.7c0 .1 0 .4 0 .6h-9.8c.1 1.1 .6 2.1 1.4 2.8c.8 .7 1.8 1 2.9 1c1.5 0 2.8 -.5 3.9 -1.6l1.2 1c-1.5 1.4 -3.1 2.2 -5.1 2.2ZM279.1 246.8c1.9 0 3.5 -.6 4.7 -2c1.2 -1.3 1.9 -2.9 1.9 -4.9c0 -1.9 -.7 -3.5 -1.9 -4.8C282.5 233.6 281 233 279.1 233c-.1 0 -.2 0 -.3 0c-1.8 0 -3.2 .8 -4.4 2c-1.3 1.3 -1.9 3 -1.9 4.9c0 1.9 .7 3.6 1.9 4.9c1.2 1.3 2.8 2 4.7 2Zm510.6 5v-4.6c-1 .8 -2 1.2 -3.1 1.2c-1.5 0 -2.6 -.5 -3.5 -1.7c-1 -1.2 -1.4 -2.7 -1.4 -4.6c0 -2.1 .5 -3.5 1.4 -4.6c.9 -1.2 2.1 -1.7 3.5 -1.7c1 0 2.1 .4 3.1 1.3v-5.5h1.8v5.5c.9 -1 2 -1.3 3.1 -1.3c1.4 0 2.7 .5 3.6 1.7c.8 1.1 1.3 2.7 1.3 4.6c0 2 -.4 3.5 -1.3 4.6c-1 1.1 -2.2 1.7 -3.6 1.7c-.8 0 -1.2 -.1 -1.7 -.3c-.5 -.2 -.9 -.5 -1.4 -.9v4.6Zm92.3 0v-4.6c-1 .8 -2 1.2 -3 1.2c-1.6 0 -2.7 -.5 -3.6 -1.7c-.9 -1.2 -1.4 -2.7 -1.4 -4.6c0 -2.1 .5 -3.5 1.4 -4.6c.9 -1.2 2.1 -1.7 3.6 -1.7c.9 0 2 .4 3 1.3v-5.5h1.9v5.5c.9 -1 1.9 -1.3 3 -1.3c1.4 0 2.7 .5 3.6 1.7c.8 1.1 1.3 2.7 1.3 4.6c0 2 -.4 3.5 -1.3 4.6c-1 1.1 -2.1 1.7 -3.6 1.7c-.8 0 -1.2 -.1 -1.7 -.3c-.5 -.2 -.9 -.5 -1.3 -.9v4.6ZM279.1 248.4c-2.5 0 -4.5 -.8 -6.1 -2.5c-1.5 -1.7 -2.3 -3.6 -2.3 -6c0 -2.3 .8 -4.3 2.4 -5.9c1.5 -1.8 3.6 -2.5 6 -2.5c2.4 0 4.5 .8 6.1 2.4c1.5 1.6 2.3 3.7 2.3 6c-.1 2.3 -.8 4.4 -2.4 6c-1.6 1.6 -3.6 2.5 -6 2.5Zm17.5 0c-1.9 0 -3.3 -.6 -4.5 -1.8c-1.1 -1.3 -1.6 -2.9 -1.6 -5c0 -.8 0 -1.4 0 -1.9c0 -.6 0 -1.2 .1 -1.8c.1 -.7 .3 -1.2 .5 -1.7c.1 -.5 .4 -.9 .7 -1.4c.4 -.4 .8 -.8 1.3 -1.1c.4 -.4 1.1 -.6 1.8 -.7l6.8 -1.6l.4 1.5l-6.6 1.6c-1.2 .3 -2.1 .9 -2.6 1.5c-.5 .6 -.8 1.7 -.9 2.9c1 -1.8 2.7 -2.7 5 -2.7c0 0 .1 0 .1 0c1.5 0 2.9 .6 4 1.8c1 1.1 1.7 2.6 1.7 4.2c0 1.7 -.6 3.2 -1.8 4.4c-1.3 1.2 -2.6 1.8 -4.4 1.8ZM401.2 212.2l-.3 -.9c1 -.4 1.6 -1 1.6 -1.8v-.2h-.9v-2.5h2.2v2.1c-.1 .9 -.2 1.7 -.6 2.2c-.5 .5 -1.1 .9 -2 1.1Zm65.1 0l-.3 -.9c1 -.4 1.6 -1 1.6 -1.8v-.2h-.9v-2.5h2.2v2.1c-.1 .9 -.2 1.7 -.6 2.2c-.4 .5 -1.1 .9 -2 1.1Zm114.6 0l-.3 -.9c1.1 -.4 1.6 -1 1.6 -1.8v-.2h-.8v-2.5h2.1v2.1c-.1 .9 -.2 1.7 -.6 2.2c-.4 .5 -1.1 .9 -2 1.1Zm244.8 -2.9v-2.5h2.1v2.5ZM556.2 207.7c.7 0 1.5 -.2 2 -.5c.4 -.4 .7 -.9 .7 -1.5c0 -.6 -.2 -1 -.7 -1.3c-.6 -.4 -1.3 -.5 -2.3 -.5h-3.8v3.8Zm99 0c.8 0 1.5 -.2 2 -.5c.5 -.4 .8 -.9 .8 -1.5c0 -.6 -.3 -1 -.8 -1.3c-.6 -.4 -1.3 -.5 -2.2 -.5h-3.8v3.8ZM348.4 208c1.1 0 2 -.3 2.8 -.9c.7 -.6 1.2 -1.3 1.2 -2.2v-1.1c-1.2 -.4 -2.4 -.5 -3.5 -.5c-1.1 0 -1.9 .2 -2.5 .6c-.7 .4 -1 1.1 -1 1.8c0 .7 .3 1.3 .9 1.7c.5 .4 1.3 .6 2.1 .6Zm109 0c1 0 2 -.3 2.8 -.9c.6 -.6 1.1 -1.3 1.1 -2.2v-1.1c-1.2 -.4 -2.3 -.5 -3.5 -.5c-1 0 -1.9 .2 -2.5 .6c-.7 .4 -.9 1.1 -.9 1.8c-.1 .7 .3 1.3 .8 1.7c.6 .4 1.3 .6 2.2 .6ZM569 207.7c.8 0 1.6 -.2 2.1 -.6c.4 -.4 .7 -.9 .7 -1.7c0 -.7 -.2 -1.2 -.7 -1.6c-.6 -.4 -1.3 -.5 -2.2 -.5h-3.2v4.4Zm113.5 0c.9 0 1.6 -.2 2.1 -.6c.4 -.4 .8 -.9 .8 -1.7c0 -.7 -.3 -1.2 -.8 -1.6c-.6 -.4 -1.3 -.5 -2.2 -.5h-3.2v4.4Zm66.7 .3c1.1 0 2.1 -.3 2.8 -.9c.7 -.6 1.2 -1.3 1.2 -2.2v-1.1c-1.2 -.4 -2.3 -.5 -3.5 -.5c-1.1 0 -1.9 .2 -2.5 .6c-.7 .4 -.9 1.1 -.9 1.8c-.1 .7 .2 1.3 .8 1.7c.6 .4 1.3 .6 2.1 .6Zm-436.1 -.3v-8.8h-5v1.7c0 2.9 -.5 5.3 -1.5 7.1Zm242.7 -5.4c.7 0 1.4 -.2 1.8 -.5c.4 -.4 .7 -.7 .7 -1.3c0 -.6 -.2 -.9 -.7 -1.2c-.4 -.3 -1 -.4 -1.7 -.4h-3.8v3.4Zm46.2 5.4v-8.8h-4.9v1.7c-.1 2.9 -.5 5.3 -1.5 7.1Zm52.9 -5.4c.7 0 1.3 -.2 1.8 -.5c.4 -.4 .6 -.7 .6 -1.3c0 -.6 -.2 -.9 -.6 -1.2c-.4 -.3 -1 -.4 -1.8 -.4h-3.7v3.4ZM434.5 208c1.3 0 2.3 -.4 3.2 -1.3c.7 -.9 1.2 -2 1.2 -3.4c0 -1.3 -.4 -2.4 -1.3 -3.3c-.9 -.9 -1.9 -1.4 -3.2 -1.4c-1.4 0 -2.3 .5 -3.2 1.4c-.8 .9 -1.2 2 -1.2 3.3c-.1 1.3 .4 2.5 1.3 3.4c.8 .9 1.9 1.3 3.2 1.3Zm66.4 0c1.3 0 2.3 -.4 3.2 -1.3c.7 -.9 1.2 -2 1.2 -3.4c0 -1.3 -.4 -2.4 -1.3 -3.3c-.9 -.9 -1.9 -1.4 -3.2 -1.4c-1.4 0 -2.3 .5 -3.2 1.4c-.8 .9 -1.2 2 -1.2 3.3c-.1 1.3 .4 2.5 1.3 3.4c.8 .9 1.9 1.3 3.2 1.3ZM640 208c1.3 0 2.4 -.4 3.2 -1.3c.8 -.9 1.3 -2 1.3 -3.4c-.1 -1.3 -.5 -2.4 -1.3 -3.3c-1 -.9 -2 -1.4 -3.2 -1.4c-1.4 0 -2.4 .5 -3.2 1.4c-.9 .9 -1.3 2 -1.3 3.3c0 1.3 .5 2.5 1.3 3.4c.8 .9 2 1.3 3.2 1.3Zm96.2 0c1.1 0 2.2 -.4 3 -1.3c.7 -.9 1.2 -2 1.2 -3.4c0 -1.5 -.4 -2.6 -1.2 -3.4c-.9 -1 -1.8 -1.3 -3 -1.3c-.1 0 -.2 0 -.2 0c-1.2 0 -2 .5 -2.8 1.3c-1 .8 -1.4 2 -1.4 3.4c0 1.4 .5 2.5 1.4 3.4c.8 .9 1.8 1.3 3 1.3ZM300.4 202.6c-.2 -1.1 -.6 -2.1 -1.2 -2.9c-.8 -.8 -1.6 -1.1 -2.8 -1.1q-.1 0 -.2 0c-1 0 -1.8 .4 -2.5 1.1c-.8 .7 -1.2 1.7 -1.3 2.9Zm403.8 0c-.2 -1.1 -.5 -2.1 -1.2 -2.9c-.8 -.8 -1.6 -1.1 -2.7 -1.1c-.1 0 -.2 0 -.3 0c-1 0 -1.7 .4 -2.4 1.1c-.8 .7 -1.2 1.7 -1.3 2.9Zm-367.7 6.9V199h-4.3v-1.6h10.6V199h-4.4v10.5Zm107.3 0V197.4h8.3V199h-6.4v10.5Zm65.5 .1c-.5 0 -.9 0 -1.5 -.2l.3 -1.5c.3 0 .6 .1 .8 .1c.3 0 .7 0 .9 -.1c.1 -.2 .4 -.3 .7 -.7c.2 -.4 .5 -.8 .6 -1.5c.1 -.7 .3 -1.6 .4 -2.8c0 -1.3 .1 -2.8 .1 -4.5v-1h8.7v12h-1.9V199h-4.9v.3c-.1 1.7 -.1 3.3 -.2 4.6c-.3 1.2 -.4 2.3 -.6 3.1c-.2 .7 -.5 1.3 -.9 1.7c-.4 .4 -.8 .6 -1.1 .7c-.4 .1 -.8 .2 -1.4 .2Zm32.4 -.1V199h-4.3v-1.6h10.7V199h-4.5v10.5Zm173.9 0V197.4h10.5v12.1h-1.8V199h-6.8v10.5Zm59.3 0V199h-4.3v-1.6h10.6V199h-4.4v10.5Zm-471.6 2.8v-4.6h1.3c1.1 -2 1.7 -4.7 1.7 -8.3v-2.1h8.6v10.4h1.7v4.6h-1.7v-3h-9.8l-.3 3Zm15.6 -3v-12h1.8v9.5l7.2 -9.5h1.8v12h-1.8v-9.5l-7.2 9.5Zm53.6 0v-12h1.9v9.5l7.2 -9.5h1.8v12h-1.9v-9.5l-7.2 9.5Zm14.7 0v-12H389v9.5l7.2 -9.5H398v12h-1.8v-9.5l-7.2 9.5Zm27 0v-12H416v9.5l7.2 -9.5H425v12h-1.8v-9.5l-7.2 9.5Zm65.1 0v-12h1.8l4.5 6.3l4.4 -6.3h1.8v12h-1.9v-9.1l-4.4 6l-4.3 -6v9.1Zm44.8 0v-12H526v9.5l7.1 -9.5H535v12h-1.9v-9.5l-7.2 9.5Zm26.2 0v-12h5.9c1.1 0 2.1 .3 2.9 .8c.6 .5 1 1.3 1 2.2c0 1.1 -.7 2.1 -2 2.7c1.7 .5 2.7 1.5 2.7 3c-.1 1 -.4 1.8 -1.2 2.4c-.9 .6 -1.9 .9 -3.2 .9Zm13.6 0v-12h1.8v4.4h3.2q.1 0 .2 0c1.3 0 2.4 .3 3.3 .9c.8 .5 1.3 1.5 1.3 2.7c-.1 1.2 -.4 2.2 -1.2 2.9c-1 .6 -2 1.1 -3.4 1.1Zm11.9 0v-12h1.9v12Zm16.5 3v-4.6h1.3c1.1 -2 1.7 -4.7 1.7 -8.3v-2.1h8.6v10.4h1.7v4.6h-1.7v-3h-9.8l-.3 3Zm28.2 -3l4.7 -6.1l-4.6 -5.9h2.1l3.6 4.6l3.6 -4.6h2l-4.6 5.8l4.8 6.2H630l-3.7 -4.9l-3.8 4.9Zm28.8 0v-12h5.9c1.1 0 2.2 .3 2.9 .8c.7 .5 1.1 1.3 1.1 2.2c-.1 1.1 -.7 2.1 -2.1 2.7c1.8 .5 2.7 1.5 2.7 3c0 1 -.4 1.8 -1.2 2.4c-.9 .6 -1.8 .9 -3.2 .9Zm13.6 0v-12h1.9v5.1h6.9v-5.1h1.9v12h-1.9V204h-6.9v5.3Zm14.5 0v-12h1.8v4.4h3.3c0 0 .1 0 .1 0c1.3 0 2.4 .3 3.3 .9c.8 .5 1.3 1.5 1.3 2.7c0 1.2 -.4 2.2 -1.2 2.9c-1 .6 -2 1.1 -3.4 1.1Zm12 0v-12h1.8v12Zm69.4 0v-12h1.9v6.9l6.6 -6.9h2.3l-5.1 5.2l5.2 6.8h-2.1l-4.4 -5.5l-2.5 2.6v2.9Zm24.7 0v-12h1.8v9.5l7.2 -9.5h1.8v12h-1.8v-9.5l-7.2 9.5Zm14.6 0v-12H800v6.9l6.6 -6.9h2.3l-5.1 5.2l5.2 6.8h-2.1l-4.4 -5.5l-2.5 2.6v2.9Zm13.1 0v-12h1.9v9.5l7.2 -9.5h1.8v12h-1.9v-9.5l-7.2 9.5Zm-442.6 3v-3H358V197.1h1.8v10.6h6.8V197.1h1.9v10.6h1.8v4.6Zm241.2 .6c-1 0 -1.8 -.2 -2.6 -.6l.6 -1.4c.5 .2 1.2 .5 1.9 .5c.5 -.1 1 -.2 1.4 -.5c.3 -.5 .7 -1 1.1 -1.8l-5.5 -12h2l4.4 10.1L617 197.1h1.9l-5.1 12.5c-.6 1.1 -1.1 2 -1.7 2.6c-.7 .4 -1.4 .7 -2.3 .7ZM434.4 209.6c-1.9 0 -3.3 -.6 -4.5 -1.8c-1.2 -1.3 -1.8 -2.7 -1.8 -4.5c0 -1.7 .6 -3.2 1.9 -4.4c1.1 -1.3 2.7 -1.8 4.5 -1.8h.1c1.7 0 3.2 .6 4.4 1.8c1.1 1.1 1.8 2.7 1.8 4.4c0 1.7 -.6 3.2 -1.8 4.5c-1.3 1.2 -2.8 1.8 -4.6 1.8Zm66.4 0c-1.9 0 -3.3 -.6 -4.5 -1.8c-1.2 -1.3 -1.8 -2.7 -1.8 -4.5c0 -1.7 .6 -3.2 1.8 -4.4c1.2 -1.3 2.8 -1.8 4.6 -1.8h.1c1.7 0 3.2 .6 4.4 1.8c1.1 1.1 1.8 2.7 1.8 4.4c0 1.7 -.6 3.2 -1.9 4.5c-1.2 1.2 -2.7 1.8 -4.5 1.8Zm139.2 0c-1.9 0 -3.3 -.6 -4.5 -1.8c-1.3 -1.3 -1.8 -2.7 -1.8 -4.5c0 -1.7 .6 -3.2 1.8 -4.4c1.2 -1.3 2.7 -1.8 4.5 -1.8q.1 0 .1 0c1.8 0 3.2 .6 4.4 1.8c1.2 1.1 1.8 2.7 1.8 4.4c0 1.7 -.6 3.2 -1.8 4.5c-1.3 1.2 -2.7 1.8 -4.5 1.8Zm-291.9 0c-1.3 0 -2.3 -.3 -3.2 -1c-1 -.8 -1.3 -1.6 -1.3 -2.9c0 -1.3 .4 -2.2 1.4 -2.9c.9 -.8 2.1 -1.1 3.7 -1.1q.1 0 .2 0c1.1 0 2.3 .2 3.5 .6v-.4c-.1 -1.1 -.3 -1.9 -1 -2.4c-.6 -.6 -1.4 -.9 -2.6 -.9c-1.2 0 -2.3 .3 -3.6 .9l-.5 -1.4c1.4 -.7 2.9 -1 4.4 -1c0 0 .1 0 .1 0c1.6 0 2.9 .4 3.8 1.3c.8 .8 1.2 2 1.2 3.5v7.4h-1.8v-1.9c-1.2 1.4 -2.5 2.2 -4.3 2.2Zm108.9 0c-1.3 0 -2.3 -.3 -3.2 -1c-.9 -.8 -1.3 -1.6 -1.3 -2.9c0 -1.3 .5 -2.2 1.4 -2.9c.9 -.8 2.2 -1.1 3.7 -1.1c.1 0 .2 0 .2 0c1.2 0 2.4 .2 3.5 .6v-.4c0 -1.1 -.3 -1.9 -.9 -2.4c-.7 -.6 -1.5 -.9 -2.6 -.9c-1.3 0 -2.4 .3 -3.6 .9l-.6 -1.4c1.5 -.7 3 -1 4.4 -1q.1 0 .1 0c1.6 0 2.9 .4 3.8 1.3c.8 .8 1.3 2 1.3 3.5v7.4h-1.9v-1.9c-1.1 1.4 -2.5 2.2 -4.3 2.2Zm291.9 0c-1.3 0 -2.3 -.3 -3.2 -1c-1 -.8 -1.3 -1.6 -1.3 -2.9c0 -1.3 .5 -2.2 1.4 -2.9c.9 -.8 2.2 -1.1 3.7 -1.1c.1 0 .2 0 .2 0c1.2 0 2.3 .2 3.5 .6v-.4c-.1 -1.1 -.3 -1.9 -.9 -2.4c-.7 -.6 -1.5 -.9 -2.6 -.9c-1.3 0 -2.4 .3 -3.7 .9l-.5 -1.4c1.5 -.7 3 -1 4.4 -1c0 0 .1 0 .1 0c1.6 0 2.9 .4 3.8 1.3c.8 .8 1.2 2 1.2 3.5v7.4h-1.8v-1.9c-1.1 1.4 -2.5 2.2 -4.3 2.2Zm-452.2 0c-1.8 0 -3.2 -.6 -4.4 -1.8c-1.2 -1.2 -1.7 -2.6 -1.7 -4.5c0 -1.8 .5 -3.3 1.7 -4.5c1.1 -1.3 2.5 -1.8 4.2 -1.8c1.6 0 3.1 .6 4.2 1.9c1 1.1 1.5 2.8 1.5 4.7c0 .1 0 .4 0 .6h-9.8c.1 1.1 .6 2.1 1.4 2.8c.8 .7 1.8 1 3 1c1.4 0 2.7 -.5 3.8 -1.6l1.2 1c-1.5 1.4 -3.1 2.2 -5.1 2.2Zm403.8 0c-1.7 0 -3.1 -.6 -4.3 -1.8c-1.2 -1.2 -1.8 -2.6 -1.8 -4.5c0 -1.8 .6 -3.3 1.7 -4.5c1.1 -1.3 2.5 -1.8 4.2 -1.8c1.7 0 3.2 .6 4.2 1.9c1 1.1 1.6 2.8 1.6 4.7c0 .1 -.1 .4 -.1 .6h-9.7c0 1.1 .6 2.1 1.4 2.8c.7 .7 1.8 1 2.9 1c1.4 0 2.8 -.5 3.9 -1.6l1.1 1c-1.4 1.4 -3.1 2.2 -5.1 2.2Zm29.5 3.3V197.3h1.8v2.3c1.2 -1.7 2.8 -2.6 4.7 -2.6c1.5 0 2.9 .6 4.1 1.7c1 1.1 1.7 2.7 1.7 4.6c0 1.9 -.6 3.4 -1.7 4.6c-1.3 1.1 -2.6 1.7 -4.1 1.7c-2 0 -3.5 -.8 -4.7 -2.5v5.8ZM271.3 209.3V193h2l6 8.9l6 -8.9h1.9v16.3h-1.9V196.1l-6 8.7h-.1l-6 -8.7v13.2ZM419.5 195.6c-.8 -.1 -1.6 -.3 -2.2 -.9c-.6 -.5 -.9 -1.2 -1.1 -2.1l1.3 -.2c.2 1 1 1.6 2 1.6c1.1 0 1.8 -.6 2.1 -1.6l1.2 .2c-.1 .8 -.5 1.6 -1.1 2.1c-.7 .6 -1.3 .9 -2.2 .9Z"/></clipPath>
<clipPath id="c4_25"><path d="M244.9 206.6c-3.6 0 -6.5 -2.9 -6.5 -6.5c0 -3.6 2.9 -6.5 6.5 -6.5c3.6 0 6.5 2.9 6.5 6.5c0 3.6 -2.9 6.5 -6.5 6.5Z"/></clipPath>
<clipPath id="c5_25"><path d="M244.9 246.8c-3.6 0 -6.5 -2.9 -6.5 -6.5c0 -3.5 2.9 -6.4 6.5 -6.4c3.6 0 6.5 2.9 6.5 6.4c0 3.6 -2.9 6.5 -6.5 6.5Z"/></clipPath>
<clipPath id="c6_25"><path d="M244.9 324.3c-3.6 0 -6.5 -2.9 -6.5 -6.4c0 -3.6 2.9 -6.5 6.5 -6.5c3.6 0 6.5 2.9 6.5 6.5c0 3.5 -2.9 6.4 -6.5 6.4Z"/></clipPath>
<clipPath id="c7_25"><path d="M244.9 363.3c-3.6 0 -6.5 -2.9 -6.5 -6.5c0 -3.6 2.9 -6.5 6.5 -6.5c3.6 0 6.5 2.9 6.5 6.5c0 3.6 -2.9 6.5 -6.5 6.5Z"/></clipPath>
<clipPath id="c8_25"><path d="M244.9 403.2c-3.6 0 -6.5 -2.9 -6.5 -6.5c0 -3.6 2.9 -6.5 6.5 -6.5c3.6 0 6.5 2.9 6.5 6.5c0 3.6 -2.9 6.5 -6.5 6.5Z"/></clipPath>
</defs>
<image clip-path="url(#c0_25)" preserveAspectRatio="none" x="150" y="0" width="1167" height="825" xlink:href="img/1.jpg"/>
<image clip-path="url(#c1_25)" preserveAspectRatio="none" x="150" y="0" width="1167" height="825" xlink:href="img/2.jpg"/>
<image clip-path="url(#c2_25)" preserveAspectRatio="none" x="150" y="0" width="1167" height="825" xlink:href="img/3.jpg"/>
<image clip-path="url(#c3_25)" preserveAspectRatio="none" x="150" y="0" width="1167" height="825" xlink:href="img/4.jpg"/>
<image clip-path="url(#c4_25)" preserveAspectRatio="none" x="150" y="0" width="1167" height="825" xlink:href="img/5.jpg"/>
<image clip-path="url(#c5_25)" preserveAspectRatio="none" x="150" y="0" width="1167" height="825" xlink:href="img/6.jpg"/>
<image clip-path="url(#c6_25)" preserveAspectRatio="none" x="150" y="0" width="1167" height="825" xlink:href="img/7.jpg"/>
<image clip-path="url(#c7_25)" preserveAspectRatio="none" x="150" y="0" width="1167" height="825" xlink:href="img/8.jpg"/>
<image clip-path="url(#c8_25)" preserveAspectRatio="none" x="150" y="0" width="1167" height="825" xlink:href="img/9.jpg"/>
</svg>