<?xml version="1.0" encoding="UTF-8" standalone="no"?>
<!DOCTYPE svg PUBLIC "-//W3C//DTD SVG 1.1//EN"
"http://www.w3.org/Graphics/SVG/1.1/DTD/svg11.dtd">
<svg viewBox="0 0 1466 825" version="1.1" xmlns="http://www.w3.org/2000/svg" xmlns:xlink="http://www.w3.org/1999/xlink">
<defs>
<clipPath id="c0_10"><path d="M.1 825V0H1466.7V825Z"/></clipPath>
<clipPath id="c1_10"><path d="M172.4 733V179.1H530.5V733Z"/></clipPath>
<style type="text/css"><![CDATA[
.g0_10{
fill: #FFF;
}
.g1_10{
fill: #000;
fill-opacity: 0.68;
}
.g2_10{
fill: none;
stroke: #FFF;
stroke-width: 1.527;
stroke-miterlimit: 10;
}
]]></style>
</defs>
<g clip-path="url(#c0_10)">
<path fill-rule="evenodd" d="M.1 825H1466.7V0H.1V825Z" class="g0_10"/>
<image x="539" y="178" width="358" height="558" xlink:href="shade/1.png"/>
<image preserveAspectRatio="none" x="539" y="178" width="358" height="557" xlink:href="img/1.jpg"/>
<image x="902" y="178" width="360" height="558" xlink:href="shade/2.png"/>
<image preserveAspectRatio="none" x="902" y="178" width="360" height="557" xlink:href="img/2.jpg"/>
<image x="172" y="179" width="359" height="555" xlink:href="shade/3.png"/>
</g>
<image clip-path="url(#c1_10)" preserveAspectRatio="none" x="172" y="179" width="359" height="554" xlink:href="img/3.jpg"/>
<path fill-rule="evenodd" d="M171.8 733H531.1V519.7H171.8V733Z" class="g1_10"/>
<path fill-rule="evenodd" d="M421.2 569.4q5.8 -.1 5.8 -.1c2.2 .1 3 1.7 3 2.3q0 .3 0 .3q0 7.5 0 7.5c0 .6 -.5 .9 -1 .9c-.6 0 -.9 -.3 -.9 -.9q0 -6.5 0 -6.5q-1 0 -1 0q0 6.4 0 6.4c0 0 0 .1 0 .1q0 11.3 0 11.3c0 .7 -.5 1.2 -1.3 1.2c-.7 0 -1.2 -.5 -1.2 -1.2q0 -9.9 0 -9.9q-.8 0 -.8 0q0 9.9 0 9.9c0 .7 -.5 1.2 -1.3 1.2c-.8 0 -1.3 -.5 -1.3 -1.2q0 -11.4 0 -11.4q0 -.1 0 -.1q0 -6.3 0 -6.3q-.8 0 -.8 0q0 6.5 0 6.5c0 .6 -.4 .9 -.9 .9c-.6 0 -1.1 -.3 -1.1 -.9q0 -7.5 0 -7.5q0 -.3 0 -.3q0 -.1 0 -.1c0 -.8 .9 -2.1 2.8 -2.1Z" class="g0_10"/>
<path fill-rule="evenodd" d="M426.6 566.8c0 -1.2 -1 -2.1 -2.3 -2.1c-1.2 0 -2.3 .9 -2.3 2.1c0 1.2 1.1 2.1 2.3 2.1c1.3 0 2.3 -.9 2.3 -2.1Z" class="g0_10"/>
<path d="M402.3 562.9c0 -4.3 3.6 -7.9 7.9 -7.9h80.2c4.4 0 7.9 3.6 7.9 7.9v31.6c0 4.4 -3.5 7.9 -7.9 7.9H410.2c-4.3 0 -7.9 -3.5 -7.9 -7.9V562.9Z" class="g2_10"/>
<path fill-rule="evenodd" d="M537.2 392.6H896.6V179.1H537.2V392.6Z" class="g1_10"/>
<path fill-rule="evenodd" d="M786.8 229q5.8 -.1 5.8 -.1c2.3 .1 3.1 1.7 3.1 2.3q0 .3 0 .3q0 7.4 0 7.4c0 .6 -.5 .9 -.9 .9c-.7 0 -1 -.3 -1 -.9q0 -6.4 0 -6.4q-1 0 -1 0q0 6.3 0 6.3c0 0 0 .1 0 .1q0 11.1 0 11.1c0 .7 -.5 1.2 -1.3 1.2c-.8 0 -1.3 -.5 -1.3 -1.2q0 -9.8 0 -9.8q-.8 0 -.8 0q0 9.8 0 9.8c0 .7 -.5 1.2 -1.3 1.2c-.9 0 -1.3 -.5 -1.3 -1.2q0 -11.2 0 -11.2q0 -.2 0 -.2q0 -6.1 0 -6.1q-.9 0 -.9 0q0 6.4 0 6.4c0 .6 -.4 .9 -.9 .9c-.7 0 -1.2 -.3 -1.2 -.9q0 -7.4 0 -7.4q0 -.3 0 -.3q0 -.2 0 -.2c0 -.7 1 -2 3 -2Z" class="g0_10"/>
<path fill-rule="evenodd" d="M792.1 226.4c0 -1.2 -1.1 -2.1 -2.3 -2.1c-1.3 0 -2.3 .9 -2.3 2.1c0 1.2 1 2.2 2.3 2.2c1.2 0 2.3 -1 2.3 -2.2Z" class="g0_10"/>
<path d="M767.8 222.2c0 -4.3 3.5 -7.9 7.9 -7.9h80.1c4.4 0 7.9 3.6 7.9 7.9v31.6c0 4.4 -3.5 7.9 -7.9 7.9H775.7c-4.4 0 -7.9 -3.5 -7.9 -7.9V222.2Z" class="g2_10"/>
<path fill-rule="evenodd" d="M903 733h359.3V519.7H903V733Z" class="g1_10"/>
<path fill-rule="evenodd" d="M1152.4 569.4q5.8 -.1 5.8 -.1c2.2 .1 3 1.7 3 2.3q0 .3 0 .3q0 7.5 0 7.5c0 .6 -.5 .9 -1 .9c-.6 0 -.9 -.3 -.9 -.9q0 -6.5 0 -6.5q-1 0 -1 0q0 6.4 0 6.4c0 0 0 .1 0 .1q0 11.3 0 11.3c0 .7 -.5 1.2 -1.3 1.2c-.8 0 -1.2 -.5 -1.2 -1.2q0 -9.9 0 -9.9q-.8 0 -.8 0q0 9.9 0 9.9c0 .7 -.5 1.2 -1.3 1.2c-.8 0 -1.3 -.5 -1.3 -1.2q0 -11.4 0 -11.4q0 -.1 0 -.1q0 -6.3 0 -6.3q-.8 0 -.8 0q0 6.5 0 6.5c0 .6 -.4 .9 -.9 .9c-.7 0 -1.1 -.3 -1.1 -.9q0 -7.5 0 -7.5q0 -.3 0 -.3q0 -.1 0 -.1c0 -.8 .9 -2.1 2.8 -2.1Z" class="g0_10"/>
<path fill-rule="evenodd" d="M1157.8 566.8c0 -1.2 -1 -2.1 -2.3 -2.1c-1.2 0 -2.3 .9 -2.3 2.1c0 1.2 1.1 2.1 2.3 2.1c1.3 0 2.3 -.9 2.3 -2.1Z" class="g0_10"/>
<path d="M1133.5 562.9c0 -4.3 3.6 -7.9 7.9 -7.9h79.9c4.3 0 7.9 3.6 7.9 7.9v31.6c0 4.4 -3.6 7.9 -7.9 7.9h-79.9c-4.3 0 -7.9 -3.5 -7.9 -7.9V562.9Z" class="g2_10"/>
<image clip-path="url(#c0_10)" preserveAspectRatio="none" x="1288" y="68" width="110" height="21" xlink:href="img/4.png"/>
</svg>