<?xml version="1.0" encoding="UTF-8" standalone="no"?>
<!DOCTYPE svg PUBLIC "-//W3C//DTD SVG 1.1//EN"
"http://www.w3.org/Graphics/SVG/1.1/DTD/svg11.dtd">
<svg viewBox="0 0 1466 825" version="1.1" xmlns="http://www.w3.org/2000/svg" xmlns:xlink="http://www.w3.org/1999/xlink">
<defs>
<clipPath id="c0_26"><path d="M149.9 825V0h1167V825Z"/></clipPath>
<clipPath id="c1_26"><path d="M150.1 320.5V255.3H483.9c18 0 32.6 14.6 32.6 32.6c0 18 -14.6 32.6 -32.6 32.6Z"/></clipPath>
<clipPath id="c2_26"><path d="M356.7 294.6v-3.1h3.2v3.1Zm94.7 0v-3.1h3.1v3.1Zm25.7 0v-3.1h3.1v3.1Zm-31.9 -2.3c.8 0 1.3 -.3 1.3 -1c0 -.8 -.4 -1 -1.4 -1h-2.3v2Zm-204.3 .5c.6 -.1 1.2 -.2 1.6 -.5c.4 -.5 .6 -.8 .6 -1.4v-.5c-.5 -.3 -1.1 -.4 -1.8 -.4c-.6 0 -1.1 .1 -1.4 .4c-.4 .2 -.5 .6 -.5 1.1c-.1 .3 .1 .7 .4 .9c.3 .2 .7 .4 1.1 .4Zm25.1 -.5c.9 0 1.5 -.4 1.5 -1.2c0 -.4 -.2 -.6 -.4 -.8c-.4 -.3 -.6 -.3 -1.1 -.3h-1.9v2.3Zm39.1 .5c.6 -.1 1.2 -.2 1.6 -.5c.4 -.5 .6 -.8 .6 -1.4v-.5c-.5 -.3 -1.1 -.4 -1.8 -.4c-.7 0 -1.1 .1 -1.4 .4c-.4 .2 -.6 .6 -.6 1.1c0 .3 .2 .7 .5 .9c.3 .2 .6 .4 1.1 .4Zm44 0c.6 -.1 1.2 -.2 1.6 -.5c.4 -.5 .6 -.8 .6 -1.4v-.5c-.6 -.3 -1.2 -.4 -1.8 -.4c-.7 0 -1.1 .1 -1.5 .4c-.3 .2 -.5 .6 -.5 1.1c-.1 .3 .2 .7 .5 .9c.2 .2 .6 .4 1.1 .4Zm-93.8 -.7v-5.2h-2.8v.2c0 2.1 -.2 3.8 -.8 5Zm-44.6 .1c.7 0 1.5 -.2 2 -.7c.4 -.6 .7 -1.2 .7 -2c0 -.8 -.3 -1.4 -.8 -2c-.6 -.6 -1.1 -.8 -1.9 -.8c0 0 -.1 0 -.1 0c-.9 0 -1.4 .3 -1.9 .8c-.6 .5 -.7 1.2 -.7 2c-.1 .7 .2 1.4 .8 1.9c.5 .5 1.1 .8 1.9 .8Zm234.2 -3.9c.4 0 .8 -.1 1 -.2c.2 -.2 .3 -.4 .3 -.7c0 -.2 -.1 -.4 -.3 -.5c-.2 -.3 -.5 -.3 -.9 -.3h-2.2v1.7Zm-263.5 6.3V284.3h9.3v10.3h-2.9v-7.7h-3.5v7.7Zm12.2 0c-.6 0 -1 0 -1.5 0l.2 -2.6c.2 0 .5 .1 .6 .1c.3 -.1 .6 -.1 .8 -.2c.1 -.3 .4 -.5 .5 -1c.2 -.6 .3 -1.3 .3 -2.4c0 -1.1 0 -2.4 0 -4.2h8.3v10.3h-2.9v-7.7h-2.5c-.1 1.2 0 2.4 -.1 3.3c-.2 .9 -.3 1.7 -.5 2.3c-.3 .5 -.4 1 -.7 1.3c-.4 .3 -.7 .5 -1.1 .7c-.4 0 -.8 .1 -1.4 .1Zm39 2.5v-2.5h-14V284.3h2.9v7.8H225v-7.8h2.9v7.8h3.4v-7.8h2.9v7.8h1.1v5Zm14.9 0v-5h1.1c.6 -1.5 1 -3.7 1 -6.9v-.9h8.6v7.8h1.1v5h-2.7v-2.5h-6.4l-.2 2.5Zm13.7 -2.5V284.3h2.9v3.3h2.1c1.2 0 2.3 .3 3 .9c.8 .5 1.2 1.5 1.2 2.6c-.1 1.1 -.4 2 -1.1 2.6c-.7 .6 -1.7 .9 -2.9 .9Zm19.2 3.4c-1 0 -1.8 -.3 -2.6 -.8l.9 -2.2c.4 .3 .9 .4 1.3 .4c.4 0 .8 -.2 1 -.7l-4 -10.4h3.1l2.3 7.1l2.3 -7.1h3.1l-4 10.7c-.5 1.1 -.9 1.9 -1.4 2.3c-.5 .4 -1.2 .7 -2 .7Zm15.2 -3.4v-3.7c-.9 .4 -1.8 .7 -2.8 .7c-1.1 0 -1.9 -.2 -2.6 -.8c-.7 -.6 -1 -1.4 -1 -2.5v-4h2.9v3.1c-.1 1.1 .5 1.7 1.5 1.7c.6 -.1 1.3 -.2 2 -.5v-4.3h2.9v10.3Zm30.4 0v-7.7h-3.1v-2.6h9.3v2.6h-3.3v7.7Zm7.6 0V284.3h2.9v4.2l3.7 -4.2h3.4l-3.8 4.2l4.3 6.1h-3.5l-2.7 -3.9l-1.4 1.5v2.4Zm94.4 0V284.3h2.9v4.2l3.8 -4.2h3.4l-3.9 4.2l4.3 6.1h-3.4l-2.8 -3.9l-1.4 1.5v2.4Zm11.9 0V284.3h5.7c1.1 0 1.9 .2 2.6 .7c.5 .5 .9 1.1 .9 1.9c-.1 .9 -.5 1.8 -1.6 2.2c1.2 .4 2 1.3 2 2.7c-.1 .8 -.4 1.6 -1.1 2.1c-.7 .4 -1.6 .7 -2.8 .7Zm23 0V284.3h3l2.8 4.4l2.9 -4.4h2.9v10.3h-2.9v-6.2l-2.9 4.3l-2.9 -4.2v6.1ZM356.7 287.3v-3.1h3.2v3.1Zm-39.2 7.5c-1.5 -.1 -2.8 -.5 -3.8 -1.5c-1.1 -1.2 -1.6 -2.3 -1.6 -3.8c0 -1.6 .5 -2.8 1.6 -3.8c.9 -1 2.3 -1.5 3.9 -1.5c0 0 .1 -.1 .2 -.1c1.5 0 2.9 .7 3.9 1.9l-1.7 1.7c-.8 -.7 -1.5 -1 -2.4 -1q-.1 0 -.1 0c-.7 0 -1.3 .3 -1.7 .8c-.6 .5 -.8 1.2 -.8 2c0 .7 .3 1.4 .8 2c.3 .4 1.1 .7 1.9 .7c.7 0 1.6 -.3 2.4 -1l1.7 1.7c-.6 .5 -1.2 1.1 -1.8 1.4c-.7 .3 -1.5 .5 -2.5 .5Zm-106.8 0c-1.7 -.1 -3 -.5 -4 -1.5c-1.2 -1.2 -1.6 -2.3 -1.6 -3.8c0 -1.6 .5 -2.8 1.6 -3.8c1 -1 2.4 -1.5 4 -1.5c.1 0 .1 -.1 .2 -.1c1.4 0 2.8 .6 3.8 1.6c1 1 1.6 2.3 1.6 3.8c-.1 1.4 -.5 2.7 -1.6 3.8c-1.2 .9 -2.4 1.5 -4 1.5Zm29.3 0c-1.1 -.1 -1.8 -.3 -2.5 -.9c-.7 -.6 -1 -1.3 -1 -2.3c0 -1.2 .4 -1.9 1.1 -2.5c.7 -.6 1.8 -.8 3 -.8c.8 0 1.7 .1 2.5 .4v-.2c0 -1.3 -.7 -1.8 -2.1 -1.8q-.1 0 -.2 0c-.8 0 -1.7 .2 -2.7 .5l-.7 -2.2c1.2 -.6 2.6 -.8 4 -.8c.1 -.1 .2 -.1 .3 -.1c1.3 0 2.5 .5 3.2 1.2c.7 .7 1.1 1.9 1.1 3.3v6h-2.9v-1.1c-.7 .8 -1.8 1.3 -3.1 1.3Zm64.2 0c-1.1 -.1 -1.9 -.3 -2.5 -.9c-.7 -.6 -1.1 -1.3 -1.1 -2.3c0 -1.2 .4 -1.9 1.2 -2.5c.7 -.6 1.7 -.8 3 -.8c.8 0 1.7 .1 2.5 .4v-.2c0 -1.3 -.7 -1.8 -2.2 -1.8c0 0 -.1 0 -.1 0c-.9 0 -1.7 .2 -2.7 .5l-.7 -2.2c1.1 -.6 2.6 -.8 4 -.8q.1 -.1 .2 -.1c1.4 0 2.5 .5 3.3 1.2c.7 .7 1.1 1.9 1.1 3.3v6h-2.9v-1.1c-.8 .8 -1.8 1.3 -3.1 1.3Zm44 0c-1.1 -.1 -1.9 -.3 -2.6 -.9c-.6 -.6 -1 -1.3 -1 -2.3c0 -1.2 .4 -1.9 1.1 -2.5c.7 -.6 1.8 -.8 3.1 -.8c.8 0 1.7 .1 2.5 .4v-.2c0 -1.3 -.8 -1.8 -2.2 -1.8c0 0 -.1 0 -.1 0c-.9 0 -1.8 .2 -2.7 .5l-.8 -2.2c1.2 -.6 2.6 -.8 4.1 -.8c0 -.1 .1 -.1 .2 -.1c1.4 0 2.5 .5 3.3 1.2c.7 .7 1.1 1.9 1.1 3.3v6h-2.9v-1.1c-.8 .8 -1.8 1.3 -3.1 1.3ZM401 292.2c.8 -.1 1.6 -.4 2.1 -1.2c.5 -1 .8 -1.9 .8 -3.2c0 -1.3 -.3 -2.2 -.8 -3c-.7 -.9 -1.3 -1.3 -2.2 -1.3c0 0 -.1 0 -.1 0c-.9 0 -1.5 .5 -2 1.2c-.6 .8 -.8 1.9 -.8 3.1c-.1 1.2 .3 2.3 .8 3.2c.5 .7 1.3 1.2 2.2 1.2Zm-13.6 -4.7c.7 -.1 1.3 -.2 1.7 -.6c.4 -.4 .7 -.8 .7 -1.4c-.1 -.7 -.2 -1.1 -.7 -1.5c-.4 -.5 -1 -.6 -1.7 -.6q-.1 0 -.1 0c-.7 0 -1.2 .2 -1.6 .6c-.4 .2 -.6 .8 -.6 1.5c0 .5 .2 1.1 .6 1.5c.4 .2 1 .5 1.7 .5Zm27.1 0c.6 -.1 1.2 -.2 1.7 -.6c.3 -.4 .6 -.8 .6 -1.4c-.1 -.7 -.2 -1.1 -.7 -1.5c-.4 -.5 -1 -.6 -1.7 -.6c0 0 -.1 0 -.1 0c-.7 0 -1.2 .2 -1.6 .6c-.4 .2 -.6 .8 -.6 1.5c0 .5 .2 1.1 .6 1.5c.4 .2 1 .5 1.8 .5Zm-44 7.1V284l-2.4 .6l-.6 -2.5l3.9 -1.1h2v13.6Zm30.4 .3c-1.8 -.1 -3.2 -.7 -4.3 -2c-1.1 -1.4 -1.7 -3 -1.7 -5.1c0 -2 .6 -3.6 1.7 -5c1.1 -1.4 2.6 -2 4.4 -2c0 0 .1 0 .2 0c1.6 0 3 .7 4.1 2c1.1 1.3 1.7 3 1.7 5c-.1 2 -.6 3.7 -1.7 5.1c-1.2 1.2 -2.6 2 -4.4 2Zm-14 0c-1.8 -.1 -3.2 -.6 -4.5 -1.6L384 291c.9 .8 1.9 1.2 3 1.2c.7 -.1 1.4 -.3 1.9 -.9c.4 -.5 .7 -1.3 .8 -2.2c-.7 .6 -1.6 .9 -2.7 .9c-1.6 0 -2.7 -.4 -3.6 -1.2c-.9 -.8 -1.3 -1.8 -1.3 -3.2c0 -1.5 .5 -2.5 1.4 -3.4c.9 -1 2.3 -1.4 3.8 -1.4c.1 0 .2 0 .3 0c.7 0 1.4 .2 1.9 .4c.6 .1 1.2 .6 1.7 1.1c1 1 1.6 2.8 1.6 5.2c0 2.2 -.5 4 -1.5 5.3c-1.2 1.3 -2.5 2.1 -4.4 2.1Zm27 0c-1.8 -.1 -3.2 -.6 -4.5 -1.6L411 291c.9 .8 2 1.2 3 1.2c.7 -.1 1.4 -.3 1.9 -.9c.4 -.5 .7 -1.3 .8 -2.2c-.7 .6 -1.6 .9 -2.7 .9c-1.6 0 -2.7 -.4 -3.6 -1.2c-.9 -.8 -1.3 -1.8 -1.3 -3.2c0 -1.5 .5 -2.5 1.5 -3.4c.9 -1 2.2 -1.4 3.7 -1.4c.1 0 .2 0 .3 0c.7 0 1.4 .2 1.9 .4c.6 .1 1.2 .6 1.7 1.1c1 1 1.6 2.8 1.6 5.2c0 2.2 -.5 4 -1.5 5.3c-1.1 1.3 -2.5 2.1 -4.4 2.1Z"/></clipPath>
</defs>
<image clip-path="url(#c0_26)" preserveAspectRatio="none" x="150" y="0" width="1167" height="825" xlink:href="img/1.jpg"/>
<image clip-path="url(#c1_26)" preserveAspectRatio="none" x="150" y="0" width="1167" height="825" xlink:href="img/2.jpg"/>
<image clip-path="url(#c2_26)" preserveAspectRatio="none" x="150" y="0" width="1167" height="825" xlink:href="img/3.jpg"/>
</svg>