<?xml version="1.0" encoding="UTF-8" standalone="no"?>
<!DOCTYPE svg PUBLIC "-//W3C//DTD SVG 1.1//EN"
"http://www.w3.org/Graphics/SVG/1.1/DTD/svg11.dtd">
<svg viewBox="0 0 1466 825" version="1.1" xmlns="http://www.w3.org/2000/svg" xmlns:xlink="http://www.w3.org/1999/xlink">
<defs>
<clipPath id="c0_16"><path d="M.1 825V0H1466.7V825Z"/></clipPath>
<style type="text/css"><![CDATA[
.g0_16{
fill: #FFF;
}
.g1_16{
fill: #000;
fill-opacity: 0.85;
}
.g2_16{
fill: #FF0;
}
]]></style>
</defs>
<g clip-path="url(#c0_16)">
<path fill-rule="evenodd" d="M.1 825H1466.7V0H.1V825Z" class="g0_16"/>
<image x="110" y="249" width="385" height="496" xlink:href="shade/1.png"/>
<image preserveAspectRatio="none" x="110" y="249" width="385" height="495" xlink:href="img/1.jpg"/>
<image x="518" y="249" width="385" height="496" xlink:href="shade/2.png"/>
<image preserveAspectRatio="none" x="519" y="249" width="384" height="495" xlink:href="img/2.jpg"/>
<image x="927" y="249" width="385" height="496" xlink:href="shade/3.png"/>
<image preserveAspectRatio="none" x="927" y="249" width="384" height="495" xlink:href="img/3.jpg"/>
</g>
<path fill-rule="evenodd" d="M110.7 744.3H494.8V592.8H110.7V744.3Z" class="g1_16"/>
<path fill-rule="evenodd" d="M518.3 744.3H902.4V592.8H518.3V744.3Z" class="g1_16"/>
<path fill-rule="evenodd" d="M927.1 744.3h384.1V592.8H927.1V744.3Z" class="g1_16"/>
<path fill-rule="evenodd" d="M858.7 105.3h68.7V93.4H858.7v11.9Z" class="g2_16"/>
<image clip-path="url(#c0_16)" preserveAspectRatio="none" x="1288" y="59" width="110" height="20" xlink:href="img/4.png"/>
</svg>