<?xml version="1.0" encoding="UTF-8" standalone="no"?>
<!DOCTYPE svg PUBLIC "-//W3C//DTD SVG 1.1//EN"
"http://www.w3.org/Graphics/SVG/1.1/DTD/svg11.dtd">
<svg viewBox="0 0 1466 825" version="1.1" xmlns="http://www.w3.org/2000/svg" xmlns:xlink="http://www.w3.org/1999/xlink">
<defs>
<clipPath id="c0_18"><path d="M149.9 825V0h1167V825Z"/></clipPath>
<clipPath id="c1_18"><path d="M237.1 741.8c-1.9 0 -3.4 -1.5 -3.4 -3.3V0H1316.9V741.8Z"/></clipPath>
<clipPath id="c2_18"><path d="M994.4 176.6c1.9 -.1 2.9 -.7 2.9 -2.1c0 -1.3 -1 -2 -3 -2h-4.7v4.1Zm230.5 0c1.9 -.1 2.9 -.7 2.9 -2.1c0 -1.3 -1 -2 -3 -2h-4.7v4.1ZM956.6 170.9c.9 0 1.8 -.3 2.4 -.8c.6 -.6 .9 -1.3 .9 -2.1c-.1 -1 -.3 -1.6 -.9 -2.1c-.6 -.5 -1.4 -.7 -2.4 -.7h-3.2v5.7Zm36.7 -1.7c2 0 3 -.7 3 -2.1c-.1 -.7 -.3 -1.1 -.7 -1.4c-.6 -.4 -1.2 -.5 -2 -.5h-4v4Zm20.7 7.5c1.5 -.1 2.9 -.5 3.9 -1.6c1 -1.2 1.6 -2.5 1.6 -4.1c0 -1.7 -.5 -3 -1.6 -4.1c-1.1 -1.2 -2.4 -1.7 -4 -1.7c-1.6 0 -2.9 .5 -3.9 1.6c-1.1 1.2 -1.6 2.5 -1.6 4.2c-.1 1.5 .5 2.9 1.6 4.1c1 1 2.4 1.6 4 1.6Zm111.9 -5.8c.9 0 1.8 -.3 2.3 -.8c.6 -.6 .9 -1.3 .9 -2.1c-.1 -1 -.3 -1.6 -.9 -2.1c-.6 -.5 -1.4 -.7 -2.4 -.7h-3.2v5.7Zm76.1 5.8c1.6 -.1 2.9 -.5 4 -1.6c1 -1.2 1.5 -2.5 1.5 -4.1c0 -1.7 -.5 -3 -1.6 -4.1c-1 -1.2 -2.3 -1.7 -3.9 -1.7c-1.7 0 -3 .5 -4 1.6c-1.1 1.2 -1.5 2.5 -1.5 4.2c-.1 1.5 .5 2.9 1.5 4.1c1 1 2.4 1.6 4 1.6Zm21.8 -7.5c2 0 2.9 -.7 2.9 -2.1c-.1 -.7 -.2 -1.1 -.6 -1.4c-.6 -.4 -1.2 -.5 -2 -.5h-4v4ZM967.5 180.1V161.8h13.9v3.7h-9.9v3.7h8.6v3.6h-8.6v3.7h9.9v3.6Zm60.6 .2V161.8h12.8v3.7h-8.7v14.8Zm108.6 -.2V161.8h14v3.7h-10v3.7h8.6v3.6h-8.6v3.7h10v3.6Zm-200.7 0V165.5h-5.6v-3.7h15.3v3.7h-5.6v14.6Zm169.2 0V165.5h-5.6v-3.7h15.3v3.7h-5.6v14.6Zm-52.9 0V161.7h4v12.1l8.2 -12.1h3.7v18.4h-4v-12l-8.1 12Zm-66.7 0V161.6h8.6q.1 0 .2 0c1.9 0 3.6 .6 4.6 1.7c.8 .8 1.3 1.9 1.3 3.2c0 1.6 -.8 3.1 -2.4 4c1 .4 2 1 2.5 1.7c.6 .7 .9 1.7 .9 2.9c0 1.5 -.6 2.9 -1.8 3.8c-1.3 .8 -2.9 1.2 -5.1 1.2Zm230.5 0V161.6h8.6c0 0 .1 0 .2 0c1.9 0 3.5 .6 4.6 1.7c.8 .8 1.3 1.9 1.3 3.2c0 1.6 -.8 3.1 -2.5 4c1.1 .4 2 1 2.6 1.7c.6 .7 .9 1.7 .9 2.9c0 1.5 -.6 2.9 -1.8 3.8c-1.3 .8 -3 1.2 -5.1 1.2ZM949.3 180V161.5h7.6c2.1 0 3.9 .6 5.2 1.8c1.2 1.1 1.9 2.7 1.9 4.7c0 2 -.7 3.6 -2.1 4.8c-1.5 1 -3.2 1.7 -5.4 1.7h-3.1V180Zm169.3 0V161.5h7.5c2.1 0 3.9 .6 5.2 1.8c1.2 1.1 1.9 2.7 1.9 4.7c0 2 -.7 3.6 -2.1 4.8c-1.5 1 -3.2 1.7 -5.4 1.7h-3.1V180Zm-104.7 .5c-2.8 0 -5.1 -.9 -6.9 -2.8c-1.9 -1.9 -2.8 -4.1 -2.8 -6.7c0 -2.7 .9 -4.9 2.8 -6.8c1.8 -1.9 4.2 -2.8 7 -2.8c.1 0 .2 0 .3 0c2.6 0 4.9 1 6.7 2.8c1.8 1.8 2.7 4.1 2.7 6.8c-.1 2.6 -.9 4.8 -2.8 6.7c-1.9 1.8 -4.2 2.8 -7 2.8Zm188.1 0c-2.9 0 -5.2 -.9 -7 -2.8c-1.9 -1.9 -2.8 -4.1 -2.8 -6.7c0 -2.7 .9 -4.9 2.8 -6.8c1.8 -1.9 4.2 -2.8 7 -2.8c.1 0 .2 0 .3 0c2.7 0 4.9 1 6.7 2.8c1.8 1.8 2.8 4.1 2.8 6.8c-.1 2.6 -1 4.8 -2.8 6.7c-1.9 1.8 -4.2 2.8 -7 2.8Zm-112.5 0c-2.8 0 -5 -.9 -6.8 -2.8c-1.8 -1.9 -2.7 -4.1 -2.7 -6.7c0 -2.8 .9 -5 2.7 -6.8c1.8 -1.9 4.1 -2.8 6.9 -2.8c.2 0 .3 0 .5 0c1.3 0 2.6 .3 3.5 .8c1 .5 2.2 1.3 3.1 2.2l-2.4 2.8c-.8 -.7 -1.5 -1.2 -2.2 -1.5c-.7 -.4 -1.5 -.5 -2.5 -.5c-1.6 0 -2.8 .5 -3.8 1.6c-1.1 1.2 -1.5 2.5 -1.5 4.2c-.1 1.5 .5 2.9 1.5 4.1c.9 1 2.2 1.6 3.8 1.6c.9 -.1 1.8 -.1 2.5 -.5c.7 -.4 1.5 -.9 2.3 -1.6l2.6 2.7c-1 1 -2.1 1.9 -3.2 2.4c-1.2 .4 -2.6 .8 -4.3 .8Zm73.3 0c-2.8 0 -5 -.9 -6.8 -2.8c-1.8 -1.9 -2.7 -4.1 -2.7 -6.7c0 -2.8 .9 -5 2.7 -6.8c1.8 -1.9 4.2 -2.8 6.9 -2.8c.2 0 .4 0 .5 0c1.3 0 2.6 .3 3.6 .8c1 .5 2.1 1.3 3.1 2.2l-2.4 2.8c-.8 -.7 -1.6 -1.2 -2.3 -1.5c-.7 -.4 -1.5 -.5 -2.5 -.5c-1.6 0 -2.8 .5 -3.8 1.6c-1.1 1.2 -1.5 2.5 -1.5 4.2c-.1 1.5 .5 2.9 1.5 4.1c1 1 2.3 1.6 3.8 1.6c.9 -.1 1.9 -.1 2.6 -.5c.6 -.4 1.5 -.9 2.3 -1.6l2.5 2.7c-1 1 -2 1.9 -3.2 2.4c-1.2 .4 -2.6 .8 -4.3 .8Zm19.4 0c-2.7 0 -4.9 -.9 -6.7 -2.8c-1.8 -1.9 -2.7 -4.1 -2.7 -6.7c0 -2.8 .9 -5 2.7 -6.8c1.8 -1.9 4.1 -2.8 6.9 -2.8c.1 0 .3 0 .4 0c1.4 0 2.6 .3 3.6 .8c1 .5 2.1 1.3 3.1 2.2l-2.4 2.8c-.8 -.7 -1.5 -1.2 -2.2 -1.5c-.8 -.4 -1.6 -.5 -2.5 -.5c-1.7 0 -2.9 .5 -3.9 1.6c-1 1.2 -1.5 2.5 -1.5 4.2c-.1 1.5 .5 2.9 1.5 4.1c1 1 2.3 1.6 3.9 1.6c.9 -.1 1.8 -.1 2.5 -.5c.7 -.4 1.5 -.9 2.3 -1.6l2.6 2.7c-1 1 -2.1 1.9 -3.3 2.4c-1.2 .4 -2.6 .8 -4.3 .8Zm44.4 -34.9l-.4 -1.7c1.7 -.2 2.6 -.9 2.6 -2.3v-.3h-1.6v-4.2h4.2v3.6c0 1.7 -.4 2.9 -1.2 3.7c-.8 .7 -2 1.2 -3.6 1.2ZM788.8 137.8c1.9 -.1 2.9 -.7 2.9 -2.1c0 -1.3 -1 -2 -3 -2H784v4.1Zm421.2 -.1c1.9 0 3 -.9 3 -2.6c0 -1.6 -1 -2.4 -3 -2.4h-3.6v5ZM873.2 133.8l-2.5 -6l-2.4 6Zm234.8 0l-2.5 -6l-2.4 6ZM787.8 130.4c1.9 0 2.9 -.7 2.9 -2.1c-.1 -.7 -.2 -1.1 -.7 -1.4c-.6 -.4 -1.1 -.5 -2 -.5h-4v4Zm125.4 7.5c1.5 -.1 2.9 -.5 3.9 -1.6c1 -1.2 1.6 -2.5 1.6 -4.2c0 -1.6 -.5 -2.9 -1.6 -4.1c-1.1 -1.1 -2.4 -1.6 -4 -1.6c-1.6 0 -2.9 .5 -3.9 1.6c-1.1 1.1 -1.6 2.5 -1.6 4.1c-.1 1.6 .5 3 1.6 4.1c1 1.1 2.4 1.7 4 1.7Zm129.9 0c1.5 -.1 2.9 -.5 3.9 -1.6c1 -1.2 1.6 -2.5 1.6 -4.2c0 -1.6 -.5 -2.9 -1.6 -4.1c-1.1 -1.1 -2.4 -1.6 -4 -1.6c-1.6 0 -2.9 .5 -3.9 1.6c-1.1 1.1 -1.6 2.5 -1.6 4.1c-.1 1.6 .6 3 1.6 4.1c1 1.1 2.4 1.7 4 1.7Zm-212.2 3.4V123h14v3.6h-10v3.8h8.6V134h-8.6v3.7h10v3.6Zm18.2 .2V123h12.8v3.7h-8.8v14.8Zm35 0V123h15.3v18.5h-4V126.7h-7.3v14.8Zm42.6 .2c-.9 0 -1.6 -.1 -2.2 -.3l.3 -3.3c.1 0 .4 0 .6 0c.5 0 1.1 -.1 1.5 -.3c.3 -.3 .7 -.8 1 -1.6c.3 -.8 .6 -1.9 .7 -3.4c.1 -1.6 .2 -3.5 .2 -6V123h13.1v18.4h-4.1V126.7h-5.2v1.4c0 3.6 -.2 6.4 -.6 8.3c-.5 2 -1.1 3.4 -1.9 4.1c-.9 .7 -2 1.2 -3.4 1.2Zm61.2 -.4V123h13.9v3.6h-9.9v3.8h8.6V134h-8.6v3.7h9.9v3.6Zm26.1 .2V123h15.3v18.5h-4V126.7H1018v14.8Zm42.6 .2c-.9 0 -1.6 -.1 -2.2 -.3l.3 -3.3c.1 0 .4 0 .6 0c.5 0 1.1 -.1 1.5 -.3c.3 -.3 .7 -.8 1 -1.6c.3 -.8 .6 -1.9 .7 -3.4c.1 -1.6 .2 -3.5 .2 -6V123h13.1v18.4h-4.1V126.7h-5.2v1.4c0 3.6 -.2 6.4 -.6 8.3c-.5 2 -1.1 3.4 -1.9 4.1c-.9 .7 -2 1.2 -3.4 1.2Zm110 -.4V123h14v3.6h-10v3.8h8.6V134h-8.6v3.7h10v3.6Zm22.4 0V126.7h-5.6V123h15.3v3.7h-5.6v14.6Zm-381.5 0V122.9h4.4l4.8 7.8l4.8 -7.8h4.3v18.4h-4v-12l-5.1 7.9h-.1l-5.1 -7.8v11.9Zm139.6 0V122.9h4V135l8.2 -12.1H963v18.4h-3.9v-12l-8.2 12Zm129.9 0V122.9h4v7.4h7.6v-7.4h4v18.4h-4V134H1081v7.3Zm125.4 0V122.9h4v6.3h3.9c.1 0 .2 0 .3 0c1.9 0 3.5 .6 4.6 1.6c1.1 1.1 1.8 2.5 1.8 4.4c0 1.8 -.6 3.4 -1.8 4.5c-1.4 1.1 -3 1.6 -5.2 1.6Zm16.6 0V122.9h4v18.4Zm-358 .2l7.9 -18.6h3.8l7.8 18.6h-4.2l-1.7 -4.2h-7.8l-1.6 4.2Zm234.8 0l7.9 -18.6h3.8l7.9 18.6h-4.3l-1.7 -4.2h-7.8l-1.6 4.2Zm54.3 .2c-1.4 0 -2.7 -.4 -3.9 -1.1l1.5 -3c.7 .3 1.4 .6 2.2 .6c.9 -.1 1.7 -.5 2.3 -1.5l-7.3 -13.8h4.5l5 9.7l4.5 -9.7h4.3l-7 14.3c-.9 1.5 -1.7 2.7 -2.7 3.4c-1 .6 -2.1 1.1 -3.4 1.1Zm-370 -.4V122.8h8.5q.1 0 .2 0c2 0 3.6 .6 4.6 1.7c.9 .8 1.3 1.9 1.3 3.2c0 1.6 -.8 3.1 -2.4 4c1 .4 2 1 2.6 1.7c.5 .7 .8 1.7 .8 2.9c0 1.5 -.6 2.9 -1.8 3.7c-1.3 .9 -2.9 1.3 -5.1 1.3Zm133 .4c-2.8 0 -5.1 -1 -6.9 -2.8c-1.9 -1.9 -2.8 -4.1 -2.8 -6.8c0 -2.6 .9 -4.8 2.8 -6.7c1.8 -1.9 4.2 -2.8 7 -2.8c.1 0 .2 0 .3 0c2.6 0 4.9 1 6.7 2.8c1.8 1.8 2.7 4.1 2.7 6.7c-.1 2.6 -.9 4.9 -2.8 6.8c-1.9 1.8 -4.2 2.8 -7 2.8Zm129.9 0c-2.8 0 -5.1 -1 -6.9 -2.8c-1.9 -1.9 -2.8 -4.1 -2.8 -6.8c0 -2.6 .9 -4.8 2.8 -6.7c1.8 -1.9 4.2 -2.8 7 -2.8c.1 0 .2 0 .3 0c2.6 0 4.9 1 6.7 2.8c1.8 1.8 2.7 4.1 2.7 6.7c-.1 2.6 -.9 4.9 -2.8 6.8c-1.9 1.8 -4.2 2.8 -7 2.8Zm-66.6 0c-2.8 0 -5 -1 -6.8 -2.8c-1.8 -1.9 -2.7 -4.1 -2.7 -6.8c0 -2.7 .9 -4.9 2.7 -6.7c1.8 -1.9 4.1 -2.8 6.9 -2.8c.2 0 .3 0 .5 0c1.3 0 2.6 .3 3.5 .8c1 .5 2.2 1.3 3.2 2.2l-2.5 2.8c-.8 -.7 -1.5 -1.2 -2.2 -1.6c-.7 -.3 -1.5 -.4 -2.5 -.4c-1.6 0 -2.8 .5 -3.8 1.6c-1.1 1.1 -1.5 2.5 -1.5 4.1c-.1 1.6 .5 3 1.5 4.1c.9 1.1 2.3 1.7 3.8 1.7c.9 -.1 1.8 -.1 2.5 -.5c.7 -.4 1.5 -.9 2.3 -1.6l2.6 2.7c-1 1 -2.1 1.9 -3.2 2.4c-1.2 .4 -2.6 .8 -4.3 .8Zm158.8 0c-2.7 0 -4.9 -1 -6.7 -2.8c-1.8 -1.9 -2.7 -4.1 -2.7 -6.8c0 -2.7 .9 -4.9 2.7 -6.7c1.8 -1.9 4.1 -2.8 6.9 -2.8c.1 0 .3 0 .4 0c1.4 0 2.6 .3 3.6 .8c1 .5 2.1 1.3 3.1 2.2l-2.4 2.8c-.8 -.7 -1.5 -1.2 -2.2 -1.6c-.8 -.3 -1.6 -.4 -2.6 -.4c-1.6 0 -2.8 .5 -3.8 1.6c-1 1.1 -1.5 2.5 -1.5 4.1c-.1 1.6 .5 3 1.5 4.1c1 1.1 2.3 1.7 3.8 1.7c.9 -.1 1.9 -.1 2.6 -.5c.7 -.4 1.5 -.9 2.3 -1.6l2.6 2.7c-1 1 -2.1 1.9 -3.3 2.4c-1.2 .4 -2.6 .8 -4.3 .8ZM876.6 99c1.8 -.1 2.8 -.7 2.8 -2.1c0 -1.3 -1 -2 -3 -2h-4.6V99Zm289 0c1.9 -.1 2.9 -.7 2.9 -2.1c0 -1.3 -1 -2 -3 -2h-4.7V99ZM806.8 98.9c1.9 0 3 -.9 3 -2.6c0 -1.6 -1 -2.4 -3 -2.4h-3.6v5Zm418 -3.9l-2.4 -6l-2.5 6ZM853.7 99.1c1.5 -.1 2.9 -.5 3.9 -1.6c1 -1.2 1.6 -2.5 1.6 -4.2c0 -1.6 -.5 -2.9 -1.6 -4.1c-1.1 -1.1 -2.4 -1.6 -4 -1.6c-1.6 0 -2.9 .5 -3.9 1.6c-1.1 1.1 -1.6 2.5 -1.6 4.1c-.1 1.6 .5 3 1.6 4.1c1 1.1 2.4 1.7 4 1.7Zm21.8 -7.6c1.9 0 2.9 -.6 2.9 -2c-.1 -.7 -.2 -1.1 -.7 -1.4c-.5 -.4 -1.1 -.5 -1.9 -.5h-4v3.9Zm19.1 1.8c.9 -.1 1.8 -.3 2.4 -.8c.6 -.7 .9 -1.3 .9 -2.1c-.1 -1 -.3 -1.6 -.9 -2.1c-.6 -.5 -1.4 -.7 -2.4 -.7h-3.2v5.7Zm120.5 5.8c1.5 -.1 2.9 -.5 3.9 -1.6c1 -1.2 1.6 -2.5 1.6 -4.2c0 -1.6 -.5 -2.9 -1.6 -4.1c-1.1 -1.1 -2.4 -1.6 -4 -1.6c-1.6 0 -2.9 .5 -3.9 1.6c-1.1 1.1 -1.6 2.5 -1.6 4.1c-.1 1.6 .6 3 1.6 4.1c1 1.1 2.4 1.7 4 1.7Zm38.4 0c1.5 -.1 2.9 -.5 3.9 -1.6c1 -1.2 1.6 -2.5 1.6 -4.2c0 -1.6 -.5 -2.9 -1.6 -4.1c-1.1 -1.1 -2.4 -1.6 -4 -1.6c-1.6 0 -2.9 .5 -3.9 1.6c-1.1 1.1 -1.6 2.5 -1.6 4.1c-.1 1.6 .6 3 1.6 4.1c1 1.1 2.4 1.7 4 1.7Zm89.3 0c1.5 -.1 2.9 -.5 3.9 -1.6c1 -1.2 1.6 -2.5 1.6 -4.2c0 -1.6 -.6 -2.9 -1.6 -4.1c-1.1 -1.1 -2.4 -1.6 -4 -1.6c-1.6 0 -2.9 .5 -4 1.6c-1 1.1 -1.5 2.5 -1.5 4.1c-.1 1.6 .5 3 1.6 4.1c1 1.1 2.3 1.7 4 1.7Zm21.8 -7.6c1.9 0 2.9 -.6 2.9 -2c-.1 -.7 -.2 -1.1 -.7 -1.4c-.6 -.4 -1.1 -.5 -2 -.5h-4v3.9Zm-259.1 11V84.2h13.9v3.6h-9.9v3.7h8.6v3.7h-8.6v3.7h9.9v3.6Zm41.5 0V84.2h14v3.6h-9.9v3.7h8.6v3.7h-8.6v3.7H961v3.6Zm82.2 .2V84.2H1042v3.7h-8.7v14.8Zm66 -.2V84.2h14v3.6h-10v3.7h8.6v3.7h-8.6v3.7h10v3.6Zm18.3 .4c-.8 0 -1.5 -.1 -2.1 -.3l.3 -3.3c.1 0 .4 0 .6 0c.5 0 1.1 -.1 1.5 -.4c.3 -.2 .7 -.7 1 -1.5c.3 -.8 .6 -1.9 .7 -3.4c.1 -1.6 .2 -3.5 .2 -6V84.2h13v18.4h-4V87.9h-5.2v1.4c0 3.5 -.2 6.3 -.6 8.3c-.5 2 -1.1 3.4 -1.9 4.1c-.9 .7 -2 1.2 -3.5 1.2Zm62.9 -.4V84.2h14v3.6h-10v3.7h8.7v3.7h-8.7v3.7h10v3.6Zm-468.5 0l7.3 -10.4l-7 -8H713l7.4 8.6V84.1h4v8.6l7.4 -8.6h4.8l-7 8l7.3 10.4H732L726.8 95l-2.4 2.6v4.9h-4V97.6L717.9 95l-5.2 7.5Zm32.2 0V84.1h4V96.2l8.2 -12.1H756v18.4h-4V90.4l-8.1 12.1Zm38.5 0V84.1h4.1v7.4h7.5V84.1h4.1v18.4h-4.1V95.2h-7.5v7.3Zm145 0V84.1H928l4.8 7.8l4.8 -7.8H942v18.4h-4.1v-12l-5.1 7.9h-.1l-5.1 -7.8v11.9Zm41.6 0V84.1h4.1v7.4h7.5V84.1h4v18.4h-4V95.2h-7.5v7.3Zm20.5 0V84.1h4.1v7.4h7.5V84.1h4.1v18.4h-4.1V95.2h-7.5v7.3Zm100.5 0V95.6c-1.9 .9 -3.5 1.4 -4.9 1.4c-1.9 0 -3.4 -.5 -4.5 -1.5c-1.2 -1.2 -1.6 -2.6 -1.6 -4.7V84.1h4v5.5c0 2.4 1 3.6 3 3.6c1.6 0 2.9 -.4 4 -1.2V84.1h4v18.4Zm108.4 0V84.1h4v8.1l7.5 -8.1h4.9l-7.5 7.8l7.8 10.6h-4.8l-5.7 -7.8l-2.2 2.2v5.6Zm-395.4 0V84.1h4v6.3h3.9c.1 0 .2 0 .3 0c1.9 0 3.5 .6 4.7 1.6c1.1 1 1.8 2.5 1.8 4.4c0 1.8 -.7 3.3 -1.9 4.5c-1.3 1.1 -3 1.6 -5.1 1.6Zm413.4 .2l7.9 -18.6h3.8l7.9 18.6h-4.3l-1.7 -4.2h-7.7l-1.7 4.2Zm-344.8 -.2V84h8.6c0 0 .1 0 .1 0c2 0 3.6 .6 4.7 1.7c.8 .8 1.2 1.9 1.2 3.2c0 1.6 -.8 3.1 -2.4 4c1.1 .4 2 1 2.6 1.7c.5 .7 .9 1.7 .9 2.9c0 1.5 -.6 2.9 -1.9 3.7c-1.3 .9 -2.9 1.3 -5 1.3Zm289.1 0V84h8.5q.1 0 .2 0c2 0 3.6 .6 4.6 1.7c.9 .8 1.3 1.9 1.3 3.2c0 1.6 -.8 3.1 -2.4 4c1 .4 2 1 2.6 1.7c.5 .7 .8 1.7 .8 2.9c0 1.5 -.6 2.9 -1.8 3.7c-1.3 .9 -2.9 1.3 -5.1 1.3Zm-389.6 .4c-1.9 0 -3.4 -.3 -4.7 -.8c-1.3 -.6 -2.4 -1.3 -3.4 -2.3l2.2 -2.9c1.5 1.6 3.5 2.4 5.8 2.4c.7 0 1.6 -.2 2.1 -.6c.6 -.4 .9 -.9 .9 -1.6c0 -.8 -.3 -1.3 -1 -1.7c-.6 -.4 -1.5 -.5 -2.6 -.5h-2V91.5h2c2.2 0 3.3 -.6 3.3 -2c0 -.7 -.3 -1.1 -.8 -1.5c-.6 -.4 -1.3 -.5 -2.2 -.5c-.1 0 -.2 0 -.3 0c-1.8 0 -3.4 .7 -4.6 1.9l-2.2 -2.5c1.9 -2 4.4 -3 7.4 -3c2 0 3.6 .5 4.8 1.4c1.2 .9 1.9 2.1 1.9 3.5c0 1.8 -1 3.3 -3.1 4.2c2.2 .7 3.5 2.2 3.5 4.3c-.1 1.6 -.7 3 -1.9 4c-1.3 1 -3 1.6 -5.1 1.6Zm120 -.5V83.9h7.6c2.1 0 3.9 .6 5.2 1.8c1.2 1.1 1.9 2.7 1.9 4.7c0 2 -.7 3.6 -2.1 4.8c-1.5 1 -3.2 1.7 -5.4 1.7h-3.1v5.5Zm-33.7 .5c-2.8 0 -5.1 -1 -6.9 -2.8c-1.9 -1.9 -2.8 -4.1 -2.8 -6.8c0 -2.7 .9 -4.9 2.8 -6.7c1.8 -1.9 4.2 -2.8 7 -2.8c.1 0 .2 0 .3 0c2.6 0 4.9 1 6.7 2.8c1.8 1.8 2.7 4.1 2.7 6.7c-.1 2.6 -.9 4.9 -2.8 6.8c-1.9 1.8 -4.2 2.8 -7 2.8Zm161.4 0c-2.8 0 -5.1 -1 -6.9 -2.8c-1.9 -1.9 -2.8 -4.1 -2.8 -6.8c0 -2.7 .9 -4.9 2.8 -6.7c1.8 -1.9 4.2 -2.8 7 -2.8c.1 0 .2 0 .3 0c2.6 0 4.9 1 6.7 2.8c1.8 1.8 2.7 4.1 2.7 6.7c-.1 2.6 -.9 4.9 -2.8 6.8c-1.9 1.8 -4.2 2.8 -7 2.8Zm38.4 0c-2.8 0 -5.1 -1 -6.9 -2.8c-1.9 -1.9 -2.8 -4.1 -2.8 -6.8c0 -2.7 .9 -4.9 2.8 -6.7c1.8 -1.9 4.2 -2.8 7 -2.8c.1 0 .2 0 .3 0c2.6 0 4.9 1 6.7 2.8c1.8 1.8 2.7 4.1 2.7 6.7c0 2.6 -.9 4.9 -2.8 6.8c-1.9 1.8 -4.2 2.8 -7 2.8Zm89.3 0c-2.8 0 -5.1 -1 -7 -2.8C1133.8 98.2 1133 96 1133 93.3c0 -2.7 .9 -4.9 2.8 -6.7c1.8 -1.9 4.2 -2.8 7 -2.8c.1 0 .2 0 .3 0c2.6 0 4.8 1 6.6 2.8c1.8 1.8 2.8 4.1 2.8 6.7c-.1 2.6 -.9 4.9 -2.8 6.8c-1.9 1.8 -4.2 2.8 -7 2.8Zm-308.8 0c-2.7 0 -5 -1 -6.8 -2.8c-1.8 -1.9 -2.7 -4.1 -2.7 -6.8c0 -2.7 .9 -4.9 2.8 -6.7c1.7 -1.9 4.1 -2.8 6.9 -2.8c.1 0 .3 0 .4 0c1.3 0 2.6 .3 3.6 .8c1 .5 2.1 1.3 3.1 2.2l-2.4 2.8c-.8 -.7 -1.6 -1.2 -2.3 -1.6c-.7 -.3 -1.5 -.4 -2.5 -.4c-1.6 0 -2.8 .5 -3.8 1.6c-1 1.1 -1.5 2.5 -1.5 4.1c-.1 1.6 .5 3 1.5 4.1c1 1.1 2.3 1.7 3.8 1.7c.9 -.1 1.9 -.2 2.6 -.5c.6 -.4 1.5 -.9 2.3 -1.6l2.6 2.7c-1.1 1 -2.1 1.9 -3.3 2.4c-1.2 .4 -2.6 .8 -4.3 .8Z"/></clipPath>
<clipPath id="c3_18"><path d="M594.2 414.8l-67 -.6l55.2 -19.7l11.8 -54.6v74.9Z"/></clipPath>
<clipPath id="c4_18"><path d="M545.8 444.8l-18.6 -30l21.9 -7l.7 6.7l-4 30.3Z"/></clipPath>
<clipPath id="c5_18"><path d="M594.2 414.8l-17 -26.2V313.7l17 26.2v74.9Z"/></clipPath>
<clipPath id="c6_18"><path d="M577.2 388.9v-75H899.7v75Z"/></clipPath>
<clipPath id="c7_18"><path d="M672.5 354.1c1.1 -.1 2 -.2 2.6 -.6c.6 -.5 1 -1 1 -1.8c-.1 -.6 -.3 -1 -.8 -1.4c-.5 -.3 -1.1 -.4 -2 -.4h-4.1l-1.1 4.2Zm14.8 0c1.3 -.1 2.5 -.3 3.3 -.8c.7 -.5 1.2 -1.3 1.2 -2.3c-.1 -.7 -.3 -1.2 -.8 -1.5c-.5 -.5 -1.2 -.6 -2.1 -.6h-3.1l-1.4 5.2Zm71.8 -3.6l-1 -6.3l-4.4 6.3Zm-85.4 -2.9c1.1 0 1.9 -.2 2.5 -.6c.6 -.5 1 -1 1 -1.7c-.1 -1.2 -.9 -1.7 -2.6 -1.7h-3.7l-1.1 4Zm67.6 1.5c1.3 -.1 2.5 -.3 3.3 -.8c.8 -.6 1.3 -1.4 1.3 -2.4c-.1 -.9 -.3 -1.3 -.8 -1.7c-.6 -.5 -1.3 -.6 -2.3 -.6H740l-1.5 5.5Zm-18 5.3c1.1 -.1 2.2 -.4 3.2 -1c.9 -.7 1.7 -1.5 2.2 -2.5c.4 -1 .7 -2 .7 -3.1c0 -1.4 -.4 -2.3 -1.2 -3.2c-.8 -.8 -1.8 -1.2 -3.2 -1.2c-.1 0 -.2 0 -.2 0c-1.2 0 -2.1 .4 -3 1c-.9 .6 -1.6 1.5 -2.1 2.5c-.6 .9 -.8 2 -.8 3c-.1 1.3 .4 2.4 1.2 3.2c.8 .8 1.9 1.3 3.2 1.3Zm-58.6 2.1l4.2 -15.4h6c.1 0 .2 0 .3 0c1.4 0 2.6 .4 3.4 1.1c.8 .5 1.3 1.5 1.3 2.6c-.1 .9 -.3 1.9 -1 2.5c-.7 .7 -1.5 1.2 -2.5 1.4c1.5 .6 2.4 1.7 2.4 3.2c-.1 1.3 -.6 2.5 -1.8 3.3c-1.2 .9 -2.8 1.3 -4.8 1.3Zm37.5 .2l4.1 -15.6h10.3l-.7 2.5h-7.5l-3.5 13.1Zm97.8 -.2l4.2 -15.4h11.4l-.7 2.5h-8.6l-1.1 4h7.7l-.7 2.4h-7.7l-1.1 4.1h8.8l-.7 2.4Zm-66.2 0L738 341.1h4.9c.1 0 .2 0 .3 0c1.6 0 2.9 .4 3.9 1.1c1 .8 1.6 1.9 1.6 3.5c0 1.8 -.7 3.2 -2.1 4.3c-1.5 1 -3.2 1.5 -5.5 1.5h-3.2l-1.4 5Zm-52.7 0l4.1 -15.4h2.7l-1.4 5.5h2.7c1.6 0 2.9 .3 3.9 1.1c.9 .7 1.5 1.8 1.5 3.1c-.1 1.7 -.7 3.2 -2.1 4.2c-1.4 1 -3.1 1.5 -5.4 1.5Zm13.9 0l4.2 -15.4h2.7l-4.2 15.4Zm51.5 0l11.1 -15.4h2.6l2.6 15.4H760l-.6 -3.6h-7.3l-2.6 3.6Zm36.1 0l4.2 -15.4h2.7l-3.1 11.2l10.8 -11.2h2.6l-4.2 15.4h-2.7l3 -11.2l-10.7 11.2Zm-59.6 .4c-2.1 0 -3.7 -.7 -5 -2c-1.4 -1.3 -1.9 -2.9 -1.9 -4.8c0 -1.6 .4 -3 1.1 -4.4c.8 -1.5 1.9 -2.6 3.3 -3.5c1.4 -1 3 -1.3 4.8 -1.3c1.9 0 3.7 .6 5 1.9c1.2 1.2 1.9 2.9 1.9 4.9c0 1.5 -.3 3 -1.1 4.4c-.8 1.3 -1.9 2.6 -3.3 3.4c-1.5 .9 -3 1.4 -4.8 1.4Zm42.4 -.5l4.2 -15.5h2.7l-1.7 6.5h7.3l1.7 -6.5h2.8l-4.2 15.5h-2.7l1.7 -6.5h-7.3l-1.7 6.5Z"/></clipPath>
<clipPath id="c8_18"><path d="M771.2 546.6l-67.1 -.7l55.3 -19.6l11.8 -54.6v74.9Z"/></clipPath>
<clipPath id="c9_18"><path d="M771.2 546.6l-17 -26.3V445.4l17 26.3v74.9Z"/></clipPath>
<clipPath id="ca_18"><path d="M754.2 520.6V445.7h369.1v74.9Z"/></clipPath>
<clipPath id="cb_18"><path d="M1074.8 485.9c1.1 -.1 2 -.3 2.6 -.7c.6 -.5 1 -1 1 -1.8c-.1 -.6 -.3 -1 -.8 -1.3c-.5 -.4 -1.1 -.5 -2 -.5h-4.1l-1.1 4.3Zm-114.5 -5c1.4 -.1 2.6 -.3 3.4 -.9c.7 -.6 1.2 -1.4 1.2 -2.4c0 -.8 -.2 -1.3 -.8 -1.7c-.5 -.5 -1.3 -.6 -2.3 -.6h-2.7l-1.5 5.6Zm63.2 0c1.4 -.1 2.6 -.3 3.4 -.9c.7 -.6 1.2 -1.4 1.2 -2.4c0 -.8 -.2 -1.3 -.8 -1.7c-.5 -.5 -1.3 -.6 -2.3 -.6h-2.7l-1.5 5.6Zm52.5 -1.6c1.1 0 1.9 -.2 2.5 -.6c.6 -.4 1 -1 1 -1.7c-.1 -1.1 -.9 -1.7 -2.6 -1.7h-3.7l-1.1 4Zm-230.1 6.8c1.1 -.1 2.2 -.3 3.2 -1c.9 -.7 1.7 -1.5 2.2 -2.5c.4 -1 .7 -2 .7 -3c0 -1.4 -.4 -2.4 -1.2 -3.2c-.8 -.9 -1.8 -1.3 -3.2 -1.3c-.1 0 -.2 0 -.2 0c-1.2 0 -2.1 .4 -2.9 1c-1 .6 -1.7 1.5 -2.2 2.5c-.6 .9 -.8 2 -.8 3.1c0 1.3 .4 2.3 1.2 3.2c.8 .7 1.9 1.2 3.2 1.2Zm210.7 0c1 -.1 2.2 -.3 3.1 -1c.9 -.7 1.7 -1.5 2.2 -2.5c.4 -1 .8 -2 .8 -3c-.1 -1.4 -.4 -2.4 -1.2 -3.2c-.9 -.9 -1.9 -1.3 -3.2 -1.3c-.1 0 -.2 0 -.3 0c-1.1 0 -2 .4 -2.9 1c-1 .6 -1.7 1.5 -2.2 2.5c-.6 .9 -.7 2 -.7 3.1c-.1 1.3 .4 2.3 1.2 3.2c.7 .7 1.8 1.2 3.2 1.2Zm10.4 2.2l4.2 -15.4h6c.1 0 .2 0 .3 0c1.4 0 2.6 .4 3.4 1c.8 .6 1.3 1.5 1.3 2.6c-.1 1 -.3 1.9 -1 2.6c-.7 .6 -1.5 1.1 -2.5 1.3c1.5 .6 2.4 1.7 2.4 3.2c-.1 1.3 -.6 2.5 -1.8 3.4c-1.2 .8 -2.8 1.3 -4.8 1.3Zm-185.6 0l4.2 -15.4H897l-.7 2.4h-8.6l-1.1 4h7.7l-.7 2.4h-7.7l-1.1 4.1h8.8l-.7 2.5Zm49.7 0l4.2 -15.4h11.4l-.7 2.4h-8.6l-1.1 4H944l-.7 2.4h-7.7l-1.1 4.1h8.8l-.7 2.5Zm37.1 0l4.2 -15.4h11.4l-.7 2.4h-8.6l-1.1 4h7.7l-.7 2.4h-7.7l-1.1 4.1h8.8l-.7 2.5Zm-15.3 0L957 472.8h4.9c.1 0 .2 0 .3 0c1.6 0 3 .4 4 1.2c1 .7 1.6 1.9 1.6 3.4c0 1.8 -.7 3.3 -2.1 4.3c-1.5 1 -3.3 1.6 -5.5 1.6H957l-1.4 5Zm63.2 0l4.1 -15.5h4.9c.1 0 .2 0 .3 0c1.6 0 3 .4 4 1.2c1 .7 1.6 1.9 1.6 3.4c-.1 1.8 -.7 3.3 -2.1 4.3c-1.5 1 -3.3 1.6 -5.5 1.6h-3.2l-1.4 5Zm-225.7 0l4.1 -15.5h2.7l-3 11.2l10.7 -11.2h2.6l-4.2 15.5h-2.6L803.6 477l-10.7 11.3Zm84.7 3.3l1 -3.3H856.4l4.2 -15.5h2.7l-3.5 13h6.1l3.5 -13h2.7l-3.5 13h6.1l3.5 -13h2.7l-3.5 13h2l-1.9 5.8Zm38.6 -3.3l4.2 -15.5h2.7L917.5 484l10.8 -11.2h2.5l-4.1 15.5H924L927 477l-10.8 11.3Zm88.8 .3c-1.3 0 -2.4 -.3 -3.1 -.8l1.6 -2c.4 .3 1.1 .5 1.7 .5c1 0 2.1 -.6 3 -1.8l-3.4 -11.7h2.9l2.4 9l6.6 -9h3.1l-9 12.2c-1.8 2.4 -3.7 3.6 -5.8 3.6Zm-175.1 -.3l3.5 -13h-5l.7 -2.5h12.6l-.7 2.5h-4.9l-3.5 13Zm-11.4 .3c-2 0 -3.7 -.6 -5 -1.8c-1.4 -1.2 -2 -2.8 -2 -4.8c0 -1.6 .4 -3.1 1.3 -4.6c.7 -1.5 1.9 -2.6 3.4 -3.5c1.4 -.9 3 -1.3 4.7 -1.3c2.7 0 4.7 1.1 6 3.4l-2.2 1.5c-.6 -.9 -1.1 -1.4 -1.7 -1.8c-.7 -.4 -1.5 -.6 -2.4 -.6c-.1 0 -.2 0 -.2 0c-1.6 0 -3 .8 -4.2 2.1c-1.3 1.3 -1.9 2.9 -1.9 4.7c0 1.2 .4 2.3 1.2 3.1c.8 .7 1.8 1.1 3 1.1c.8 -.1 1.6 -.1 2.2 -.4c.6 -.4 1.3 -.8 2 -1.4l1.8 1.8c-1.8 1.6 -3.7 2.5 -6 2.5Zm29.7 0c-2.2 0 -3.8 -.6 -5.1 -1.9c-1.4 -1.3 -1.9 -2.9 -1.9 -4.9c0 -1.6 .4 -3 1.2 -4.4c.7 -1.4 1.8 -2.6 3.3 -3.4c1.3 -1 3 -1.4 4.7 -1.4c2 0 3.7 .7 5 2c1.2 1.2 2 2.9 2 4.8c-.1 1.5 -.4 3 -1.2 4.5c-.8 1.3 -1.9 2.5 -3.3 3.4c-1.5 .9 -3 1.3 -4.7 1.3Zm50.8 -.5l4.2 -15.5h2.7l-1.7 6.5H909l1.7 -6.5h2.7l-4.1 15.5h-2.7l1.7 -6.5H901l-1.7 6.5Zm95.1 .5c-2.1 0 -3.7 -.6 -5.1 -1.8c-1.4 -1.2 -1.9 -2.8 -1.9 -4.8c0 -1.6 .4 -3.1 1.2 -4.6c.8 -1.5 2 -2.6 3.4 -3.5c1.5 -.9 3.1 -1.3 4.7 -1.3c2.8 0 4.8 1.1 6.1 3.4l-2.3 1.5c-.5 -.9 -1 -1.4 -1.7 -1.8c-.7 -.4 -1.4 -.6 -2.4 -.6c0 0 -.1 0 -.2 0c-1.6 0 -2.9 .8 -4.1 2.1c-1.3 1.3 -1.9 2.9 -1.9 4.7c-.1 1.2 .4 2.3 1.2 3.1c.8 .7 1.8 1.1 3 1.1c.8 -.1 1.5 -.1 2.2 -.4c.5 -.4 1.3 -.8 1.9 -1.4l1.8 1.8c-1.8 1.6 -3.6 2.5 -5.9 2.5Zm48.1 0c-2.1 0 -3.7 -.6 -5 -1.8c-1.5 -1.2 -2 -2.8 -2 -4.8c0 -1.6 .4 -3.1 1.2 -4.6c.8 -1.5 2 -2.6 3.5 -3.5c1.4 -.9 3 -1.3 4.7 -1.3c2.7 0 4.7 1.1 6 3.4l-2.3 1.5c-.5 -.9 -1 -1.4 -1.7 -1.8c-.6 -.4 -1.4 -.6 -2.4 -.6c0 0 -.1 0 -.1 0c-1.6 0 -3 .8 -4.2 2.1c-1.3 1.3 -1.9 2.9 -1.9 4.7c0 1.2 .4 2.3 1.2 3.1c.8 .7 1.8 1.1 3 1.1c.8 -.1 1.6 -.1 2.2 -.4c.5 -.4 1.3 -.8 1.9 -1.4l1.8 1.8c-1.7 1.6 -3.6 2.5 -5.9 2.5Zm16.6 0c-2.2 0 -3.7 -.6 -5 -1.9c-1.4 -1.3 -2 -2.9 -2 -4.9c0 -1.6 .4 -3 1.2 -4.4c.7 -1.4 1.9 -2.6 3.3 -3.4c1.4 -1 3 -1.4 4.7 -1.4c2 0 3.8 .7 5.1 2c1.2 1.2 1.9 2.9 1.9 4.8c-.1 1.5 -.4 3 -1.2 4.5c-.8 1.3 -1.8 2.5 -3.3 3.4c-1.4 .9 -3 1.3 -4.7 1.3Z"/></clipPath>
<clipPath id="cc_18"><path d="M329.4 289.4l-67 -.6l55.2 -19.7l11.8 -54.6v74.9Z"/></clipPath>
<clipPath id="cd_18"><path d="M316.9 331.7L264.4 289.1l-2 -.3H295l21.9 42.9Z"/></clipPath>
<clipPath id="ce_18"><path d="M329.4 289.4l-17 -26.2V188.3l17 26.2v74.9Z"/></clipPath>
<clipPath id="cf_18"><path d="M312.4 263.4V188.5H681.5v74.9Z"/></clipPath>
<clipPath id="cg_18"><path d="M544.4 228.7c1.4 -.1 2.5 -.3 3.3 -.8c.7 -.5 1.1 -1.3 1.1 -2.3c0 -.7 -.2 -1.2 -.7 -1.5c-.6 -.5 -1.2 -.6 -2.1 -.6h-3.2l-1.4 5.2Zm81.7 0c1.4 -.1 2.5 -.3 3.3 -.8c.8 -.5 1.2 -1.3 1.2 -2.3c-.1 -.7 -.3 -1.2 -.8 -1.5c-.5 -.5 -1.2 -.6 -2.1 -.6h-3.1l-1.4 5.2ZM380.4 225l-1 -6.2l-4.3 6.2Zm63.1 0l-1 -6.2l-4.4 6.2Zm-80.9 -1.3c1.4 -.1 2.6 -.3 3.4 -.8c.7 -.6 1.2 -1.4 1.2 -2.4c0 -.9 -.3 -1.3 -.8 -1.7c-.5 -.5 -1.3 -.6 -2.3 -.6h-2.7l-1.5 5.5Zm48.9 5l2.8 -10.5h-5.4l-.7 2.4c-1.1 3.5 -2.3 6.2 -3.9 8.1Zm14.2 -5c1.3 -.1 2.5 -.3 3.3 -.8c.8 -.6 1.3 -1.4 1.3 -2.4c-.1 -.9 -.3 -1.3 -.9 -1.7c-.5 -.5 -1.2 -.6 -2.2 -.6h-2.8l-1.5 5.5ZM579 229c1.1 -.1 2.2 -.4 3.2 -1c.9 -.7 1.7 -1.5 2.2 -2.5c.4 -1 .7 -2 .7 -3.1c0 -1.4 -.4 -2.3 -1.2 -3.2c-.8 -.8 -1.8 -1.2 -3.2 -1.2c-.1 0 -.2 0 -.2 0c-1.2 0 -2.1 .4 -3 1c-1 .6 -1.6 1.5 -2.1 2.5c-.6 .8 -.8 2 -.8 3c-.1 1.3 .4 2.4 1.2 3.2c.8 .8 1.9 1.3 3.2 1.3Zm-180.7 5.5l1.6 -5.8h1.4c.9 -1.2 1.9 -2.5 2.6 -4.1c.8 -1.6 1.6 -3.6 2.2 -6.1l.8 -2.8h10.8l-3.5 13h1.9l-1.9 5.8h-2.3l.9 -3.4H401.9l-1.1 3.4Zm107.3 -3.4l4.2 -15.4h11.3l-.6 2.5h-8.7l-1.1 3.9h7.7l-.7 2.5h-7.6l-1.1 4.1h8.7l-.6 2.4Zm15.4 .4c-1.1 0 -1.8 -.2 -2.3 -.4l.9 -2.1c.2 0 .7 .1 1.2 .1c.2 0 .5 0 .8 -.1c.1 -.1 .5 -.3 .9 -.7c.3 -.4 .8 -.9 1.1 -1.6c.4 -.8 .8 -1.7 1.3 -3c.5 -1.4 1 -3 1.5 -4.9l.8 -3.1h10.6l-4.2 15.6h-2.7l3.5 -13.1h-5.2l-.4 1.6c-.6 2 -1.1 3.8 -1.7 5.2c-.6 1.4 -1 2.6 -1.5 3.4c-.5 .7 -1 1.5 -1.6 2c-.6 .4 -1 .7 -1.5 .9c-.5 0 -1 .2 -1.5 .2Zm-165.9 -.4l4.2 -15.4h4.9c.1 0 .2 0 .3 0c1.6 0 3 .4 4 1.1c1 .8 1.6 1.9 1.6 3.5c-.1 1.7 -.7 3.2 -2.1 4.3c-1.5 1 -3.3 1.5 -5.5 1.5h-3.2l-1.4 5Zm63.1 0l4.1 -15.4h5c.1 0 .2 0 .3 0c1.6 0 2.9 .4 3.9 1.1c1 .8 1.6 1.9 1.6 3.5c0 1.7 -.7 3.2 -2.1 4.3c-1.5 1 -3.2 1.5 -5.5 1.5h-3.2l-1.4 5Zm-50.3 0l11 -15.4h2.6l2.7 15.4h-2.8l-.6 -3.6h-7.4l-2.6 3.6Zm63 0L442 215.7h2.6l2.6 15.4h-2.8l-.6 -3.6h-7.3l-2.6 3.6Zm17 0l8.6 -9.1l-3.8 -6.3h3l4.6 7.9l2.2 -7.9h2.7l-2.1 7.8l8.6 -7.8h3.5l-7.6 6.6l3.7 8.8h-3.1l-2.8 -6.9l-3.3 2.8l-1.1 4.1h-2.7l1.2 -4.3l-1.6 -2.6l-6.4 6.9Zm26.1 0l4.2 -15.4h2.7l-3.1 11.2l10.8 -11.2h2.6L487 231.1h-2.7l3 -11.2l-10.7 11.2Zm64.1 0l4.1 -15.4h2.7l-1.5 5.4h2.9c1.5 0 2.9 .4 3.9 1.2c.9 .7 1.4 1.8 1.4 3.1c0 1.7 -.6 3.2 -2 4.2c-1.4 1 -3.1 1.5 -5.4 1.5Zm81.7 0L624 215.7h2.6l-1.4 5.4H628c1.6 0 3 .4 3.9 1.2c.9 .7 1.5 1.8 1.5 3.1c0 1.7 -.7 3.2 -2 4.2c-1.5 1 -3.2 1.5 -5.4 1.5Zm-124.9 0l3.5 -12.9h-5l.7 -2.6h12.6l-.7 2.6h-4.9l-3.5 12.9Zm114.2 0l3.5 -12.9h-4.9l.7 -2.6h12.5l-.6 2.6h-5l-3.5 12.9ZM553.3 231l4.2 -15.5h2.7l-1.7 6.4h7.3l1.7 -6.4h2.7L566.1 231h-2.8l1.8 -6.5h-7.3l-1.7 6.5Zm25.4 .5c-2.1 0 -3.7 -.7 -5 -2c-1.4 -1.3 -1.9 -2.9 -1.9 -4.8c0 -1.6 .4 -3.1 1.1 -4.5c.8 -1.4 1.9 -2.5 3.3 -3.4c1.4 -1 3 -1.3 4.8 -1.3c1.9 0 3.7 .6 5 1.9c1.2 1.2 1.9 2.9 1.9 4.9c0 1.5 -.3 3 -1.1 4.4c-.8 1.3 -1.9 2.6 -3.3 3.4c-1.5 .9 -3 1.4 -4.8 1.4Zm19 0c-2 0 -3.7 -.6 -5 -1.8c-1.4 -1.3 -2 -2.8 -2 -4.8c0 -1.7 .4 -3.2 1.3 -4.6c.7 -1.5 2 -2.6 3.4 -3.5c1.4 -1 3 -1.3 4.7 -1.3c2.7 0 4.8 1.1 6 3.3l-2.2 1.5c-.6 -.8 -1.1 -1.3 -1.7 -1.7c-.7 -.4 -1.4 -.6 -2.4 -.6q-.1 0 -.2 0c-1.6 0 -3 .7 -4.2 2c-1.2 1.3 -1.8 3 -1.8 4.8c-.1 1.1 .4 2.2 1.1 3c.8 .8 1.8 1.2 3.1 1.2c.8 -.1 1.5 -.2 2.1 -.5c.6 -.3 1.3 -.7 2 -1.3l1.8 1.8c-1.8 1.6 -3.7 2.5 -6 2.5Zm-205.6 0c-2.8 0 -4.8 -1 -6 -2.9L388 227c1 1.3 2.4 2 4.2 2c.9 -.1 1.8 -.2 2.4 -.7c.6 -.5 1 -1 1 -1.7c-.1 -.8 -.3 -1.3 -.9 -1.6c-.5 -.4 -1.3 -.5 -2.2 -.5h-1.4l.6 -2.3h1.5c1.1 0 2 -.2 2.7 -.7c.7 -.4 1.1 -1 1.1 -1.7c-.1 -.7 -.2 -1.1 -.7 -1.5c-.6 -.4 -1.1 -.5 -1.9 -.5c-1.4 0 -2.6 .5 -3.8 1.5l-1.5 -1.8c1.6 -1.4 3.5 -2.1 5.6 -2.1c.1 0 .2 0 .3 0c1.2 0 2.5 .4 3.3 1.1c.9 .7 1.5 1.7 1.5 2.8c-.1 1 -.4 2 -1.1 2.6c-.9 .7 -1.8 1.2 -3.1 1.5c.7 .2 1.5 .7 2 1.2c.4 .5 .7 1.3 .7 2.2c-.1 1.2 -.6 2.4 -1.7 3.3c-1.3 .8 -2.7 1.4 -4.5 1.4Z"/></clipPath>
<clipPath id="ch_18"><path d="M832.5 678L798.6 651.4l65.9 16.9l-32 9.7Z"/></clipPath>
<clipPath id="ci_18"><path d="M899.6 678.6L832.5 678l55.3 -19.7l11.8 -54.6v74.9Z"/></clipPath>
<clipPath id="cj_18"><path d="M899.6 678.6l-17 -26.2V577.5l17 26.2v74.9Z"/></clipPath>
<clipPath id="ck_18"><path d="M882.6 652.7v-75h349.1v75Z"/></clipPath>
<clipPath id="cl_18"><path d="M1162.3 617.9c1.4 -.1 2.5 -.3 3.3 -.8c.8 -.5 1.2 -1.3 1.2 -2.3c-.1 -.7 -.3 -1.2 -.8 -1.5c-.5 -.5 -1.2 -.6 -2.1 -.6h-3.1l-1.4 5.2Zm-221.1 .3c1.1 -.1 2.2 -.4 3.2 -1c.9 -.7 1.6 -1.5 2.1 -2.5c.4 -1 .8 -2 .8 -3.1c0 -1.4 -.4 -2.3 -1.2 -3.2c-.9 -.8 -1.9 -1.2 -3.2 -1.2c-.1 0 -.2 0 -.3 0c-1.1 0 -2 .4 -2.9 1c-1 .6 -1.7 1.5 -2.2 2.5c-.6 .9 -.7 2 -.7 3c-.1 1.3 .4 2.4 1.2 3.2c.7 .8 1.8 1.3 3.2 1.3Zm80.8 0c1.1 -.1 2.2 -.4 3.1 -1c1 -.7 1.7 -1.5 2.2 -2.5c.4 -1 .8 -2 .8 -3.1c0 -1.4 -.4 -2.3 -1.2 -3.2c-.9 -.8 -1.9 -1.2 -3.2 -1.2c-.1 0 -.2 0 -.3 0c-1.1 0 -2 .4 -2.9 1c-1 .6 -1.7 1.5 -2.2 2.5c-.6 .9 -.7 2 -.7 3c-.1 1.3 .4 2.4 1.2 3.2c.7 .8 1.8 1.3 3.2 1.3Zm93.2 0c1.1 -.1 2.2 -.4 3.2 -1c.9 -.7 1.7 -1.5 2.2 -2.5c.4 -1 .7 -2 .7 -3.1c0 -1.4 -.4 -2.3 -1.2 -3.2c-.8 -.8 -1.8 -1.2 -3.2 -1.2c-.1 0 -.2 0 -.2 0c-1.2 0 -2.1 .4 -2.9 1c-1 .6 -1.7 1.5 -2.2 2.5c-.6 .9 -.8 2 -.8 3c-.1 1.3 .4 2.4 1.2 3.2c.8 .8 1.9 1.3 3.2 1.3Zm-163.5 2.3l4.1 -15.6h12.5l-4.1 15.6h-2.8L965 607.4h-7.1l-3.5 13.1Zm105.5 -.2l4.2 -15.4h11.4l-.7 2.5h-8.6l-1.1 4h7.6l-.6 2.4h-7.7l-1.1 4.1h8.8l-.7 2.4Zm-86 .4c-1.4 0 -2.4 -.3 -3.2 -.8l1.6 -2c.5 .2 1.1 .4 1.8 .4c1 0 2 -.6 2.9 -1.7l-3.4 -11.7h2.9l2.5 8.9l6.6 -8.9H986L977 617c-1.9 2.4 -3.8 3.7 -5.8 3.7Zm61.3 -.4l4.1 -15.4h2.7l-3.5 13h6.1l3.5 -13h2.7l-3.5 13h6.1l3.6 -13h2.6l-4.1 15.4Zm123.5 0l4.2 -15.4h2.7l-1.5 5.5h2.8c1.6 0 3 .3 3.9 1.1c.9 .7 1.5 1.8 1.5 3.1c0 1.7 -.7 3.2 -2 4.2c-1.5 1 -3.2 1.5 -5.4 1.5Zm-152.6 0l3.5 -12.9H1002l.7 -2.6h12.6l-.7 2.6h-4.9l-3.5 12.9Zm141.9 0l3.5 -12.9h-4.9l.7 -2.6h12.5l-.6 2.6h-5l-3.5 12.9Zm-204.4 .4c-2.2 0 -3.7 -.7 -5 -2c-1.4 -1.3 -2 -2.9 -2 -4.8c0 -1.6 .4 -3 1.2 -4.4c.7 -1.5 1.9 -2.6 3.3 -3.5c1.4 -1 3 -1.3 4.7 -1.3c2 0 3.8 .6 5.1 1.9c1.2 1.2 1.9 2.9 1.9 4.9c-.1 1.5 -.4 3 -1.1 4.4c-.8 1.3 -1.9 2.6 -3.4 3.4c-1.4 .9 -3 1.4 -4.7 1.4Zm51.2 0c-2.1 0 -3.8 -.6 -5.1 -1.8c-1.4 -1.3 -1.9 -2.8 -1.9 -4.8c0 -1.7 .4 -3.2 1.2 -4.6c.8 -1.5 2 -2.6 3.4 -3.5c1.5 -1 3 -1.3 4.7 -1.3c2.8 0 4.8 1.1 6.1 3.3l-2.3 1.5c-.6 -.8 -1.1 -1.3 -1.7 -1.7c-.7 -.4 -1.4 -.6 -2.4 -.6c0 0 -.1 0 -.2 0c-1.6 0 -2.9 .7 -4.1 2c-1.3 1.3 -1.9 3 -1.9 4.8c-.1 1.1 .4 2.3 1.2 3c.7 .8 1.8 1.2 3 1.2c.8 -.1 1.5 -.2 2.2 -.5c.5 -.3 1.2 -.7 1.9 -1.3l1.8 1.8c-1.8 1.6 -3.7 2.5 -5.9 2.5Zm29.6 0c-2.2 0 -3.7 -.7 -5 -2c-1.4 -1.3 -2 -2.9 -2 -4.8c0 -1.6 .4 -3 1.2 -4.4c.7 -1.5 1.9 -2.6 3.3 -3.5c1.4 -1 3 -1.3 4.7 -1.3c2 0 3.8 .6 5.1 1.9c1.2 1.2 1.9 2.9 1.9 4.9c-.1 1.5 -.4 3 -1.2 4.4c-.7 1.3 -1.8 2.6 -3.3 3.4c-1.4 .9 -3 1.4 -4.7 1.4Zm50.6 -.5l4.2 -15.5h2.7l-1.7 6.5h7.3l1.7 -6.5h2.7l-4.1 15.5h-2.8l1.8 -6.5h-7.3l-1.7 6.5Zm17.2 0l4.2 -15.5h2.7l-1.7 6.5h7.3l1.7 -6.5h2.7l-4.1 15.5h-2.8l1.8 -6.5H1094l-1.7 6.5Zm25.4 .5c-2.1 0 -3.7 -.7 -5 -2c-1.4 -1.3 -1.9 -2.9 -1.9 -4.8c0 -1.6 .4 -3 1.1 -4.4c.8 -1.5 1.9 -2.6 3.3 -3.5c1.4 -1 3 -1.3 4.8 -1.3c1.9 0 3.7 .6 5 1.9c1.2 1.2 1.9 2.9 1.9 4.9c0 1.5 -.3 3 -1.1 4.4c-.8 1.3 -1.9 2.6 -3.3 3.4c-1.5 .9 -3 1.4 -4.8 1.4Zm19 0c-2 0 -3.7 -.6 -5 -1.8c-1.4 -1.3 -2 -2.8 -2 -4.8c0 -1.7 .5 -3.2 1.3 -4.6c.7 -1.5 2 -2.6 3.4 -3.5c1.5 -1 3 -1.3 4.7 -1.3c2.8 0 4.8 1.1 6.1 3.3l-2.3 1.5c-.6 -.8 -1.1 -1.3 -1.7 -1.7c-.7 -.4 -1.4 -.6 -2.4 -.6q-.1 0 -.2 0c-1.6 0 -3 .7 -4.2 2c-1.2 1.3 -1.8 3 -1.8 4.8c-.1 1.1 .4 2.3 1.1 3c.8 .8 1.8 1.2 3.1 1.2c.8 -.1 1.5 -.2 2.1 -.5c.6 -.3 1.3 -.7 2 -1.3l1.8 1.8c-1.8 1.6 -3.7 2.5 -6 2.5Z"/></clipPath>
</defs>
<image clip-path="url(#c0_18)" preserveAspectRatio="none" x="150" y="0" width="1167" height="825" xlink:href="img/1.jpg"/>
<image clip-path="url(#c1_18)" preserveAspectRatio="none" x="150" y="0" width="1167" height="825" xlink:href="img/2.jpg"/>
<image clip-path="url(#c2_18)" preserveAspectRatio="none" x="150" y="0" width="1167" height="825" xlink:href="img/3.jpg"/>
<image clip-path="url(#c3_18)" preserveAspectRatio="none" x="150" y="0" width="1167" height="825" xlink:href="img/4.jpg"/>
<image clip-path="url(#c4_18)" preserveAspectRatio="none" x="150" y="0" width="1167" height="825" xlink:href="img/5.jpg"/>
<image clip-path="url(#c5_18)" preserveAspectRatio="none" x="150" y="0" width="1167" height="825" xlink:href="img/6.jpg"/>
<image clip-path="url(#c6_18)" preserveAspectRatio="none" x="150" y="0" width="1167" height="825" xlink:href="img/7.jpg"/>
<image clip-path="url(#c7_18)" preserveAspectRatio="none" x="150" y="0" width="1167" height="825" xlink:href="img/8.jpg"/>
<image clip-path="url(#c8_18)" preserveAspectRatio="none" x="150" y="0" width="1167" height="825" xlink:href="img/9.jpg"/>
<image clip-path="url(#c9_18)" preserveAspectRatio="none" x="150" y="0" width="1167" height="825" xlink:href="img/10.jpg"/>
<image clip-path="url(#ca_18)" preserveAspectRatio="none" x="150" y="0" width="1167" height="825" xlink:href="img/11.jpg"/>
<image clip-path="url(#cb_18)" preserveAspectRatio="none" x="150" y="0" width="1167" height="825" xlink:href="img/12.jpg"/>
<image clip-path="url(#cc_18)" preserveAspectRatio="none" x="150" y="0" width="1167" height="825" xlink:href="img/13.jpg"/>
<image clip-path="url(#cd_18)" preserveAspectRatio="none" x="150" y="0" width="1167" height="825" xlink:href="img/14.jpg"/>
<image clip-path="url(#ce_18)" preserveAspectRatio="none" x="150" y="0" width="1167" height="825" xlink:href="img/15.jpg"/>
<image clip-path="url(#cf_18)" preserveAspectRatio="none" x="150" y="0" width="1167" height="825" xlink:href="img/16.jpg"/>
<image clip-path="url(#cg_18)" preserveAspectRatio="none" x="150" y="0" width="1167" height="825" xlink:href="img/17.jpg"/>
<image clip-path="url(#ch_18)" preserveAspectRatio="none" x="150" y="0" width="1167" height="825" xlink:href="img/18.jpg"/>
<image clip-path="url(#ci_18)" preserveAspectRatio="none" x="150" y="0" width="1167" height="825" xlink:href="img/19.jpg"/>
<image clip-path="url(#cj_18)" preserveAspectRatio="none" x="150" y="0" width="1167" height="825" xlink:href="img/20.jpg"/>
<image clip-path="url(#ck_18)" preserveAspectRatio="none" x="150" y="0" width="1167" height="825" xlink:href="img/21.jpg"/>
<image clip-path="url(#cl_18)" preserveAspectRatio="none" x="150" y="0" width="1167" height="825" xlink:href="img/22.jpg"/>
</svg>