<?xml version="1.0" encoding="UTF-8" standalone="no"?>
<!DOCTYPE svg PUBLIC "-//W3C//DTD SVG 1.1//EN"
"http://www.w3.org/Graphics/SVG/1.1/DTD/svg11.dtd">
<svg viewBox="0 0 1466 825" version="1.1" xmlns="http://www.w3.org/2000/svg" xmlns:xlink="http://www.w3.org/1999/xlink">
<defs>
<clipPath id="c0_31"><path d="M149.9 825V0h1167V825Z"/></clipPath>
<clipPath id="c1_31"><path d="M149.9 741.8V83.2h1167V741.8Z"/></clipPath>
<clipPath id="c2_31"><path d="M1176 204.7v-6.3h6.3v6.3ZM926.4 193.4l-3.6 -8.8l-3.6 8.8ZM1176 190.1v-6.2h6.3v6.2Zm-804.5 1.3c1.4 0 2.6 -.4 3.5 -1.2c.7 -.8 1.3 -1.8 1.3 -3c-.1 -1.4 -.5 -2.4 -1.3 -3.1c-1 -.7 -2.1 -1.1 -3.6 -1.1h-4.7v8.4Zm218.9 0c1.5 0 2.7 -.4 3.5 -1.2c.8 -.8 1.3 -1.8 1.3 -3c-.1 -1.4 -.4 -2.4 -1.3 -3.1c-.9 -.7 -2 -1.1 -3.6 -1.1h-4.7v8.4Zm509.4 0c1.4 0 2.6 -.4 3.5 -1.2c.7 -.8 1.3 -1.8 1.3 -3c-.1 -1.4 -.5 -2.4 -1.3 -3.1c-1 -.7 -2.1 -1.1 -3.6 -1.1H1095v8.4Zm-114.4 7.9V182.8h-7.9v2.7c0 5.1 -.8 9.8 -2.4 13.8Zm-584.8 .2c2.3 -.1 4.3 -.8 5.8 -2.5c1.5 -1.6 2.3 -3.7 2.3 -6.1c-.1 -2.4 -.8 -4.4 -2.3 -6c-1.7 -1.8 -3.5 -2.5 -5.9 -2.5c-2.4 0 -4.4 .8 -5.9 2.4c-1.6 1.6 -2.3 3.7 -2.3 6.1c-.1 2.3 .8 4.4 2.4 6.1c1.4 1.5 3.5 2.5 5.9 2.5Zm60.9 0c2.3 -.1 4.3 -.8 5.8 -2.5c1.6 -1.6 2.3 -3.7 2.3 -6.1c-.1 -2.4 -.7 -4.4 -2.3 -6c-1.7 -1.8 -3.5 -2.5 -5.9 -2.5c-2.4 0 -4.3 .8 -5.8 2.4c-1.6 1.6 -2.3 3.7 -2.3 6.1c-.1 2.3 .7 4.4 2.3 6.1c1.5 1.5 3.5 2.5 5.9 2.5Zm386.4 0c2.3 -.1 4.3 -.8 5.8 -2.5c1.5 -1.6 2.3 -3.7 2.3 -6.1c-.1 -2.4 -.8 -4.4 -2.3 -6c-1.7 -1.8 -3.5 -2.5 -5.9 -2.5c-2.4 0 -4.3 .8 -5.9 2.4c-1.6 1.6 -2.2 3.7 -2.2 6.1c-.1 2.3 .7 4.4 2.3 6.1c1.4 1.5 3.5 2.5 5.9 2.5Zm220.5 0c2.3 -.1 4.3 -.8 5.8 -2.5c1.6 -1.6 2.3 -3.7 2.3 -6.1c-.1 -2.4 -.7 -4.4 -2.3 -6c-1.7 -1.8 -3.5 -2.5 -5.9 -2.5c-2.4 0 -4.3 .8 -5.9 2.4c-1.6 1.6 -2.2 3.7 -2.2 6.1c-.1 2.3 .7 4.4 2.3 6.1c1.5 1.5 3.5 2.5 5.9 2.5Zm-707.7 5.3V177.7h11.2c.1 0 .2 -.1 .4 -.1c3 0 5.4 1 7.2 2.7c1.8 1.6 2.8 4 2.8 6.8c-.1 3 -1 5.4 -3.1 7.1c-2.2 1.6 -4.7 2.5 -7.9 2.5h-4.6v8.1Zm219 0V177.7h11.1c.2 0 .3 -.1 .4 -.1c3 0 5.5 1 7.3 2.7c1.8 1.6 2.8 4 2.8 6.8c-.1 3 -1.1 5.4 -3.2 7.1c-2.1 1.6 -4.7 2.5 -7.9 2.5h-4.6v8.1Zm509.3 0V177.7h11.2c.1 0 .2 -.1 .4 -.1c3 0 5.4 1 7.2 2.7c1.8 1.6 2.8 4 2.8 6.8c-.1 3 -1 5.4 -3.1 7.1c-2.2 1.6 -4.7 2.5 -7.9 2.5H1095v8.1Zm-803.6 -.1V177.6h6v21.7H301V177.6h6v21.7h9.7V177.6h6v27.1Zm245.4 0V183h-8.3v-5.5H545V183h-8.2v21.7Zm142 0V183h-8.3v-5.5H687V183h-8.2v21.7Zm364 0V183h-8.3v-5.5H1051V183h-8.2v21.7Zm-706.8 0V177.5h5.9v17.8l11.8 -17.8h5.6v27.2h-5.9V186.9l-11.8 17.8Zm91.2 0V177.5h6v11.9l11 -11.9h7.2L434.3 189l11.6 15.7h-7.2l-8.4 -11.6l-3.1 3.3v8.3Zm60.9 0V177.5H488v17.8l11.9 -17.8h5.5v27.2h-5.9V186.9l-11.8 17.8Zm124.3 0V177.5h5.9v17.8l11.8 -17.8h5.5v27.2h-5.9V186.9L612 204.7Zm86 0V177.5h5.9v17.8l11.8 -17.8h5.6v27.2h-5.9V186.9L698 204.7Zm46.3 0V194.6c-2.8 1.2 -5.1 2 -7.1 2c-2.9 -.1 -5.1 -.8 -6.7 -2.3c-1.7 -1.6 -2.5 -3.8 -2.5 -6.8v-10h6v8.2c-.1 3.5 1.5 5.3 4.4 5.3c2.4 0 4.4 -.6 5.9 -1.7V177.5h6v27.2Zm68.9 0V177.5h5.9v11.9l11.1 -11.9h7.2L820.7 189l11.6 15.7h-7.2l-8.4 -11.6l-3.2 3.3v8.3Zm60.9 0V177.5h5.9v17.8l11.8 -17.8h5.6v27.2h-5.9V186.9l-11.8 17.8Zm131.3 0V177.5h5.9v17.8l11.8 -17.8h5.6v27.2h-5.9V186.9l-11.8 17.8Zm115.9 0V177.5h5.9v17.8l11.8 -17.8h5.6v27.2h-5.9V186.9l-11.8 17.8Zm30.7 0V177.5h5.9v17.8l11.8 -17.8h5.6v27.2h-5.9V186.9L1152 204.7Zm-394.3 0V177.4h20.5v5.3H758.1v5.7h12.8v5.3H758.1v5.6h14.7v5.4ZM555.5 205c-2.1 0 -4 -.5 -5.8 -1.6L552 199c.9 .6 2 .9 3.2 .9c1.3 -.1 2.5 -.7 3.4 -2.2L547.8 177.4h6.6l7.4 14.3l6.6 -14.3h6.4l-10.4 21c-1.2 2.3 -2.5 4 -3.9 5c-1.4 1 -3 1.6 -5 1.6Zm353 -.2l11.6 -27.4h5.5l11.6 27.4H931l-2.5 -6.1H917l-2.5 6.1Zm37.6 .2c-2 0 -4 -.5 -5.8 -1.6l2.3 -4.4c.9 .6 2.1 .9 3.2 .9c1.3 -.1 2.5 -.7 3.4 -2.2L938.4 177.4h6.7l7.3 14.3L959 177.4h6.5l-10.5 21c-1.2 2.3 -2.4 4 -3.8 5c-1.5 1 -3.1 1.6 -5.1 1.6Zm20.2 5.3v-11h2.5c1.1 -2.6 1.8 -5.1 2.3 -7.9c.3 -2.8 .7 -6.3 .7 -10.8v-3.2h19.6v21.9h3.3l-.8 11h-5v-5.6H972l-.4 5.6ZM400.5 205c-4.2 0 -7.6 -1.4 -10.3 -4.1c-2.8 -2.8 -4.1 -6 -4.1 -10c0 -4 1.4 -7.2 4.1 -9.9c2.7 -2.9 6.2 -4.1 10.3 -4.1c.1 0 .2 0 .3 0c4 0 7.4 1.4 10 4.1c2.7 2.6 4.1 6 4.1 9.9c0 3.9 -1.3 7.3 -4.1 10c-2.8 2.6 -6.2 4.1 -10.3 4.1Zm60.9 0c-4.2 0 -7.6 -1.4 -10.3 -4.1c-2.8 -2.8 -4.1 -6 -4.1 -10c0 -4 1.4 -7.2 4.2 -9.9c2.7 -2.9 6.1 -4.1 10.3 -4.1q.1 0 .2 0c4 0 7.4 1.4 10.1 4.1c2.7 2.6 4.1 6 4.1 9.9c-.1 3.9 -1.4 7.3 -4.2 10c-2.7 2.6 -6.2 4.1 -10.3 4.1Zm386.4 0c-4.2 0 -7.6 -1.4 -10.3 -4.1c-2.8 -2.8 -4.1 -6 -4.1 -10c0 -4 1.4 -7.2 4.1 -9.9c2.8 -2.9 6.2 -4.1 10.4 -4.1c0 0 .1 0 .2 0c4 0 7.4 1.4 10.1 4.1c2.7 2.6 4.1 6 4.1 9.9c-.1 3.9 -1.4 7.3 -4.2 10c-2.8 2.6 -6.2 4.1 -10.3 4.1Zm220.5 0c-4.2 0 -7.6 -1.4 -10.3 -4.1c-2.8 -2.8 -4.1 -6 -4.1 -10c0 -4 1.4 -7.2 4.1 -9.9c2.8 -2.9 6.2 -4.1 10.4 -4.1c0 0 .1 0 .2 0c4 0 7.4 1.4 10.1 4.1c2.7 2.6 4.1 6 4.1 9.9c-.1 3.9 -1.4 7.3 -4.2 10c-2.8 2.6 -6.2 4.1 -10.3 4.1Zm-418.6 0c-4.1 0 -7.3 -1.4 -10 -4.1c-2.7 -2.8 -4 -6 -4 -10c0 -4 1.4 -7.2 4 -9.9c2.7 -2.9 6.1 -4.1 10.2 -4.1c.1 0 .2 0 .4 0c2.1 0 4 .4 5.5 1.1c1.6 .7 3.1 1.9 4.6 3.3l-3.6 4.1c-1.2 -1.1 -2.2 -1.8 -3.3 -2.3c-1 -.5 -2.2 -.7 -3.7 -.7c-2.3 0 -4.1 .8 -5.6 2.4c-1.5 1.6 -2.2 3.7 -2.2 6.1c-.1 2.3 .7 4.4 2.2 6.1c1.4 1.5 3.4 2.5 5.6 2.5c1.4 -.1 2.7 -.3 3.8 -.8c1 -.5 2.2 -1.3 3.4 -2.4l3.8 4.1c-1.5 1.5 -3.1 2.7 -4.8 3.5c-1.8 .6 -3.8 1.1 -6.3 1.1Zm141 0c-4 0 -7.3 -1.4 -9.9 -4.1c-2.8 -2.8 -4 -6 -4 -10c0 -4 1.3 -7.2 4 -9.9c2.7 -2.9 6.1 -4.1 10.2 -4.1c.1 0 .2 0 .4 0c2.1 0 4 .4 5.5 1.1c1.6 .7 3.1 1.9 4.6 3.3l-3.6 4.1c-1.2 -1.1 -2.2 -1.8 -3.3 -2.3c-1 -.5 -2.2 -.7 -3.7 -.7c-2.3 0 -4.1 .8 -5.6 2.4c-1.5 1.6 -2.2 3.7 -2.2 6.1c-.1 2.3 .7 4.4 2.2 6.1c1.4 1.5 3.4 2.5 5.6 2.5c1.4 -.1 2.7 -.3 3.8 -.8c1 -.5 2.2 -1.3 3.4 -2.4l3.8 4.1c-1.5 1.5 -3.1 2.7 -4.8 3.5c-1.8 .6 -3.9 1.1 -6.4 1.1ZM493.9 175.4c-1.8 0 -3.3 -.5 -4.4 -1.6c-1.2 -1 -1.9 -2.4 -2.1 -4.3l3.4 -.6c.5 1.7 1.6 2.6 3.1 2.6c1.4 0 2.4 -.9 3 -2.6l3.4 .6c-.3 1.8 -.9 3.3 -2.1 4.3c-1.2 1 -2.6 1.6 -4.3 1.6Zm386.3 0c-1.8 0 -3.2 -.5 -4.3 -1.6c-1.2 -1 -1.9 -2.4 -2.1 -4.3l3.4 -.6c.5 1.7 1.6 2.6 3 2.6c1.5 0 2.5 -.9 3.1 -2.6l3.4 .6c-.3 1.8 -.9 3.3 -2.1 4.3c-1.2 1 -2.6 1.6 -4.4 1.6ZM344 151.1v-5.6h12v5.6Zm272.8 7.6l-6.6 -8.6v-.3l6.6 -8.7l4.4 2.1l-5 6.7l5 6.6l-4.4 2.2Zm10.5 0l-6.5 -8.6v-.3l6.5 -8.7l4.5 2.1l-5 6.7l5 6.6l-4.5 2.2Zm202.7 0l-4.5 -2.1l5 -6.7l-5 -6.6l4.5 -2.2l6.5 8.7v.3l-6.5 8.6Zm10.5 0L836 156.6l5.1 -6.7L836 143.3l4.5 -2.2l6.6 8.7v.3l-6.6 8.6ZM780.8 149l-3.6 -8.8l-3.6 8.8ZM752 147c1.5 0 2.7 -.4 3.5 -1.2c.8 -.8 1.3 -1.7 1.3 -3c-.1 -1.4 -.4 -2.3 -1.3 -3c-.9 -.8 -2 -1.1 -3.6 -1.1h-4.7V147Zm236.5 0c1.4 0 2.6 -.4 3.5 -1.2c.7 -.8 1.3 -1.7 1.3 -3c-.1 -1.4 -.5 -2.3 -1.3 -3c-1 -.8 -2.1 -1.1 -3.6 -1.1h-4.7V147Zm216.3 -.6v-7.7h-5.9c-1.5 0 -2.6 .3 -3.4 1c-1 .6 -1.3 1.6 -1.3 2.9c0 1.1 .4 2.1 1.3 2.7c.7 .7 1.9 1.1 3.3 1.1ZM813 154.9V138.4h-7.9v2.8c0 5.1 -.8 9.7 -2.5 13.7Zm331.8 0V138.4h-7.9v2.8c0 5.1 -.8 9.7 -2.4 13.7Zm-819.6 .2c2.3 0 4.3 -.8 5.8 -2.4c1.6 -1.7 2.3 -3.7 2.3 -6.1c-.1 -2.5 -.7 -4.4 -2.3 -6.1c-1.7 -1.7 -3.5 -2.5 -5.9 -2.5c-2.4 0 -4.3 .8 -5.8 2.5c-1.6 1.6 -2.3 3.7 -2.3 6.1c-.1 2.3 .7 4.4 2.3 6c1.5 1.6 3.5 2.5 5.9 2.5Zm76.8 0c2.3 0 4.3 -.8 5.8 -2.4c1.5 -1.7 2.3 -3.7 2.3 -6.1c-.1 -2.5 -.8 -4.4 -2.3 -6.1c-1.7 -1.7 -3.5 -2.5 -5.9 -2.5c-2.4 0 -4.3 .8 -5.9 2.5c-1.6 1.6 -2.3 3.7 -2.3 6.1c0 2.3 .8 4.4 2.4 6c1.4 1.6 3.5 2.5 5.9 2.5Zm248.5 0c2.4 0 4.4 -.8 5.9 -2.4c1.5 -1.7 2.3 -3.7 2.3 -6.1c-.1 -2.5 -.8 -4.4 -2.4 -6.1c-1.6 -1.7 -3.5 -2.5 -5.8 -2.5c-2.5 0 -4.4 .8 -5.9 2.5c-1.6 1.6 -2.3 3.7 -2.3 6.1c-.1 2.3 .8 4.4 2.3 6c1.5 1.6 3.6 2.5 5.9 2.5Zm-193.4 5.4V133.3h22.6v27.2h-6V138.7H463v21.8Zm260.2 0V133.3h18.9v5.4h-13v21.8Zm470.1 -.2l6.6 -9.6c-3.9 -1.6 -5.8 -4.3 -5.8 -8.5c0 -2.8 .9 -4.9 2.7 -6.5c1.8 -1.7 4.3 -2.4 7.5 -2.4h12.4v27h-6v-8.6h-4.6l-5.8 8.6Zm-446.1 .2V133.3h11.1c.2 0 .3 0 .4 0c3 0 5.5 .9 7.3 2.6c1.8 1.7 2.8 4 2.8 6.9c-.1 3 -1.1 5.4 -3.2 7c-2.1 1.6 -4.7 2.5 -7.9 2.5h-4.6v8.2Zm236.4 0V133.3h11.2c.1 0 .2 0 .4 0c3 0 5.4 .9 7.2 2.6c1.8 1.7 2.8 4 2.8 6.9c-.1 3 -1 5.4 -3.1 7c-2.2 1.6 -4.7 2.5 -7.9 2.5h-4.6v8.2Zm-46.4 -.2V138.7H923v-5.5h22.5v5.5h-8.2v21.6Zm-646.4 0V133.2h6V145l11 -11.8h7.2L298 144.7l11.6 15.6h-7.2L294 148.7l-3.1 3.3v8.3Zm76.8 0V133.2h5.9V145l11 -11.8h7.3l-11.1 11.5l11.6 15.6h-7.2l-8.4 -11.6l-3.2 3.3v8.3Zm60.9 0V133.2H429l7.2 11.4l7.2 -11.4h6.4v27.1h-5.9V142.6l-7.7 11.6H436l-7.5 -11.5v17.6Zm121.5 0V133.2h6V145l11 -11.8h7.2l-11 11.5l11.5 15.6h-7.2l-8.4 -11.6l-3.1 3.3v8.3Zm127.1 0V133.2h6.4l7.2 11.4l7.1 -11.4h6.5v27.1h-6V142.6l-7.6 11.6h-.2L677 142.7v17.6Zm192.8 0V133.2h5.9V151l11.9 -17.8h5.5v27.1h-5.9V142.5l-11.8 17.8Zm30.7 0V133.2h6v10.6h11V133.2h6v27.1h-6v-11h-11v11Zm191.9 0V133.2h6v10.6h11V133.2h6v27.1h-6v-11h-11v11Zm-569.3 0V133h20.5v5.4H523.3V144h12.8v5.3H523.3V155H538v5.3Zm433.6 0V133h20.5v5.4H956.9V144h12.8v5.3H956.9V155h14.7v5.3Zm53.5 0V133h20.5v5.4h-14.5V144h12.8v5.3h-12.8V155H1025v5.3Zm55.4 0V133h20.5v5.4h-14.5V144h12.8v5.3h-12.8V155h14.7v5.3Zm-572.3 .3c-1.3 0 -2.3 -.1 -3.2 -.3l.4 -4.9c.4 0 .7 0 .9 0c.8 0 1.6 -.1 2.2 -.5c.5 -.5 1.1 -1.2 1.5 -2.3c.4 -1.2 .9 -2.8 1.1 -5.1c.2 -2.3 .3 -5.2 .3 -8.8V133H510v27.3h-6V138.4h-7.7v2.1c-.1 5.3 -.3 9.4 -1 12.4c-.7 2.8 -1.5 4.9 -2.8 6.1c-1.2 1 -2.9 1.6 -5 1.6Zm275.4 -.1L774.5 133H780l11.6 27.5h-6.2l-2.5 -6.2H771.4l-2.5 6.2Zm31 5.5V154.9h2.5c1 -2.5 1.8 -5.1 2.3 -7.8c.3 -2.8 .6 -6.4 .6 -10.9V133H819v21.9h3.2l-.8 11.1h-5v-5.7H799.6l-.4 5.7Zm331.8 0V154.9h2.5c1.1 -2.5 1.8 -5.1 2.3 -7.8c.4 -2.8 .7 -6.4 .7 -10.9V133h19.6v21.9h3.3l-.8 11.1h-5v-5.7h-16.9l-.4 5.7Zm33.9 -5.4c-1.2 0 -2.2 -.1 -3.1 -.3l.4 -4.9c.3 0 .7 0 .9 0c.8 0 1.6 -.1 2.2 -.5c.5 -.5 1 -1.2 1.5 -2.3c.4 -1.2 .8 -2.8 1.1 -5.1c.2 -2.3 .3 -5.2 .3 -8.8V133h19.3v27.3h-6V138.4h-7.7v2.1c-.1 5.3 -.4 9.4 -1 12.4c-.7 2.8 -1.6 4.9 -2.8 6.1c-1.3 1 -2.9 1.6 -5.1 1.6Zm-894.7 0c-2.6 0 -4.7 -.3 -6.5 -1.1c-1.8 -.8 -3.4 -1.9 -4.8 -3.4l3.7 -4c1.1 1 2.3 1.9 3.5 2.4c1.1 .5 2.4 .8 3.9 .8c1.9 -.1 3.6 -.6 5 -1.8c1.3 -1.2 2.3 -2.7 2.7 -4.5H261.3v-5h11.1c-.5 -1.8 -1.4 -3.2 -2.8 -4.3c-1.5 -1.1 -3 -1.7 -4.9 -1.7c-2.6 0 -4.9 1 -7.1 2.8l-3.3 -4c3 -2.8 6.4 -4.1 10.4 -4.1c.1 0 .3 0 .4 0c3.9 0 7.2 1.4 9.7 4c2.6 2.7 4 6 4 10c0 3.8 -1.3 7.2 -3.9 9.9c-2.8 2.6 -6 4 -10 4Zm60.2 0c-4.2 0 -7.6 -1.3 -10.3 -4c-2.7 -2.8 -4.1 -6.1 -4.1 -10c0 -4 1.4 -7.3 4.2 -10c2.7 -2.8 6.2 -4.1 10.3 -4.1q.1 0 .2 0c4 0 7.4 1.4 10.1 4.1c2.7 2.6 4.1 6 4.1 10c-.1 3.8 -1.4 7.2 -4.1 9.9c-2.8 2.7 -6.3 4.1 -10.4 4.1Zm76.8 0c-4.2 0 -7.6 -1.3 -10.3 -4c-2.8 -2.8 -4.1 -6.1 -4.1 -10c0 -4 1.4 -7.3 4.1 -10c2.7 -2.8 6.2 -4.1 10.4 -4.1c0 0 .1 0 .2 0c4 0 7.4 1.4 10.1 4.1c2.6 2.6 4.1 6 4.1 10c-.1 3.8 -1.4 7.2 -4.2 9.9c-2.8 2.7 -6.2 4.1 -10.3 4.1Zm248.5 0c-4.1 0 -7.5 -1.3 -10.2 -4c-2.8 -2.8 -4.1 -6.1 -4.1 -10c0 -4 1.3 -7.3 4.1 -10c2.7 -2.8 6.2 -4.1 10.3 -4.1c.1 0 .2 0 .2 0c4 0 7.4 1.4 10.1 4.1c2.7 2.6 4.1 6 4.1 10c-.1 3.8 -1.4 7.2 -4.1 9.9c-2.8 2.7 -6.2 4.1 -10.4 4.1Zm-66.5 0c-4.1 0 -7.3 -1.3 -10 -4c-2.7 -2.8 -3.9 -6.1 -3.9 -10c0 -4 1.3 -7.3 4 -10c2.6 -2.8 6 -4.1 10.1 -4.1c.1 0 .3 0 .4 0c2.1 0 4 .4 5.5 1.2c1.6 .6 3.2 1.8 4.6 3.2l-3.5 4.2c-1.3 -1.1 -2.3 -1.9 -3.3 -2.4c-1.1 -.5 -2.3 -.7 -3.7 -.7c-2.3 0 -4.2 .8 -5.7 2.5c-1.5 1.6 -2.2 3.7 -2.2 6.1c-.1 2.3 .7 4.4 2.2 6c1.5 1.6 3.4 2.5 5.7 2.5c1.4 0 2.7 -.2 3.7 -.8c1 -.5 2.2 -1.3 3.4 -2.4L595 156c-1.5 1.6 -3.1 2.8 -4.8 3.5c-1.8 .7 -3.8 1.1 -6.3 1.1Zm459.1 0c-4.1 0 -7.3 -1.3 -9.9 -4c-2.8 -2.8 -4 -6.1 -4 -10c0 -4 1.3 -7.3 4 -10c2.6 -2.8 6 -4.1 10.1 -4.1c.2 0 .3 0 .4 0c2.2 0 4.1 .4 5.6 1.2c1.5 .6 3.1 1.8 4.6 3.2l-3.6 4.2c-1.2 -1.1 -2.3 -1.9 -3.3 -2.4c-1.1 -.5 -2.2 -.7 -3.7 -.7c-2.3 0 -4.2 .8 -5.6 2.5c-1.6 1.6 -2.3 3.7 -2.3 6.1c-.1 2.3 .8 4.4 2.3 6c1.4 1.6 3.3 2.5 5.6 2.5c1.4 0 2.7 -.2 3.8 -.8c.9 -.5 2.1 -1.3 3.3 -2.4l3.8 4.1c-1.5 1.6 -3 2.8 -4.7 3.5c-1.9 .7 -3.9 1.1 -6.4 1.1Z"/></clipPath>
<clipPath id="c3_31"><path d="M323.7 343.9c-18.3 0 -33.2 -14.8 -33.2 -33.2v-8.4c0 -18.4 14.9 -33.3 33.2 -33.3H681.5c18.4 0 33.3 14.9 33.3 33.3v8.4c0 18.4 -14.9 33.2 -33.3 33.2Z"/></clipPath>
<clipPath id="c4_31"><path d="M491.3 324.5c1.3 -.1 2.1 -.5 2.1 -1.7c0 -1.1 -.7 -1.6 -2.1 -1.6H488v3.3ZM519 321.6l-1.8 -4.4l-1.8 4.4Zm28 0l-1.8 -4.4l-1.8 4.4Zm-42.4 -1c.6 0 1.3 -.2 1.7 -.6c.4 -.4 .6 -.9 .6 -1.6c0 -.7 -.2 -1.2 -.6 -1.6c-.5 -.4 -1 -.5 -1.8 -.5h-2.2v4.3Zm-80.9 4c1.1 0 2.2 -.4 3 -1.2c.7 -.8 1.1 -1.8 1.1 -3c0 -1.2 -.4 -2.2 -1.2 -3c-.8 -.9 -1.7 -1.2 -2.9 -1.2c-.1 0 -.2 0 -.3 0c-1.1 0 -1.9 .5 -2.6 1.2c-.9 .8 -1.2 1.8 -1.2 3c0 1.1 .4 2.2 1.2 3c.7 .8 1.7 1.2 2.9 1.2Zm28.3 0c1.1 0 2.2 -.4 3 -1.2c.7 -.8 1.1 -1.8 1.1 -3c0 -1.2 -.4 -2.2 -1.2 -3c-.8 -.9 -1.7 -1.2 -2.9 -1.2c-.1 0 -.2 0 -.3 0c-1.1 0 -1.9 .5 -2.6 1.2c-.9 .8 -1.2 1.8 -1.2 3c0 1.1 .4 2.2 1.2 3c.7 .8 1.7 1.2 2.9 1.2Zm22.7 0c1.1 0 2.2 -.4 3 -1.2c.7 -.8 1.1 -1.8 1.1 -3c0 -1.2 -.4 -2.2 -1.2 -3c-.8 -.9 -1.7 -1.2 -2.9 -1.2c-.1 0 -.2 0 -.3 0c-1.1 0 -1.9 .5 -2.6 1.2c-.9 .8 -1.2 1.8 -1.2 3c0 1.1 .4 2.2 1.2 3c.7 .8 1.7 1.2 2.9 1.2Zm-106.8 2.6v-5c-1.4 .6 -2.5 1 -3.5 1c-1.5 0 -2.5 -.3 -3.3 -1.1c-.9 -.8 -1.2 -1.9 -1.2 -3.5v-5h3v4.2c-.1 1.7 .7 2.7 2.1 2.7c1.1 -.1 2.1 -.3 2.9 -.9v-6h3v13.6Zm6.8 0V313.6h3v8.9l5.9 -8.9h2.8v13.6h-3v-8.9l-5.9 8.9Zm33.1 0V316.3h-4v-2.7H415v2.7h-4.2v10.9Zm26.3 0V313.6h9.4v2.7H437v10.9Zm51 0V313.6h10.3v2.7H488v2.5h3.6c.1 0 .2 0 .3 0c1.3 0 2.4 .4 3.2 1.1c.8 .6 1.3 1.8 1.3 3.1c0 1.3 -.5 2.4 -1.4 3.1c-1 .7 -2.1 1.1 -3.7 1.1Zm14.2 0V313.6h5.5c1.5 0 2.8 .4 3.7 1.3c.9 .8 1.4 2.1 1.4 3.5c0 1.5 -.5 2.7 -1.5 3.6c-1.1 .8 -2.3 1.2 -3.9 1.2h-2.2v4Zm10.8 0l5.8 -13.6h2.7l5.8 13.6h-3.1l-1.2 -3h-5.8l-1.2 3Zm28 0l5.8 -13.6h2.8l5.8 13.6h-3.2l-1.2 -3h-5.7l-1.3 3Zm21.2 0l5.4 -7.7l-5.2 -5.9H563l5.5 6.4v-6.4h2.9V320l5.5 -6.4h3.5l-5.1 5.9l5.3 7.7h-3.5l-3.9 -5.5l-1.8 1.9v3.6h-2.9v-3.6l-1.8 -1.9l-3.8 5.5Zm23.6 0V313.6h3v8.9l5.9 -8.9h2.8v13.6h-3v-8.9l-5.9 8.9Zm28.5 0V313.6h2.9v5.3H620v-5.3h3v13.6h-3v-5.5h-5.7v5.5Zm15.1 0V313.6h2.9v8.9l6 -8.9h2.7v13.6h-2.9v-8.9l-5.9 8.9Zm-202.8 .2c-2.1 -.1 -3.8 -.7 -5.2 -2c-1.3 -1.4 -2 -3 -2 -5c0 -2 .7 -3.6 2.1 -4.9c1.3 -1.5 3.1 -2.1 5.1 -2.1c.1 0 .2 0 .2 0c1.9 0 3.7 .8 5 2.1c1.3 1.2 2 3 2 4.9c0 1.9 -.7 3.6 -2 5c-1.4 1.3 -3.1 2 -5.2 2Zm28.3 0c-2.1 -.1 -3.8 -.7 -5.2 -2c-1.3 -1.4 -2 -3 -2 -5c0 -2 .7 -3.6 2.1 -4.9c1.3 -1.5 3.1 -2.1 5.1 -2.1c.1 0 .2 0 .2 0c1.9 0 3.7 .8 5 2.1c1.3 1.2 2 3 2 4.9c0 1.9 -.7 3.6 -2 5c-1.4 1.3 -3.1 2 -5.2 2Zm22.7 0c-2.1 -.1 -3.8 -.7 -5.1 -2c-1.4 -1.4 -2.1 -3 -2.1 -5c0 -2 .7 -3.6 2.1 -4.9c1.3 -1.5 3.1 -2.1 5.1 -2.1c.1 0 .2 0 .2 0c1.9 0 3.7 .8 5 2.1c1.3 1.2 2 3 2 4.9c0 1.9 -.7 3.6 -2 5c-1.4 1.3 -3.1 2 -5.2 2Zm56.7 0c-1.5 -.1 -2.6 -.2 -3.5 -.6c-1.1 -.4 -1.8 -.9 -2.6 -1.7l1.6 -2c1.1 1.1 2.6 1.7 4.4 1.7c.6 -.1 1.2 -.2 1.6 -.4c.5 -.4 .7 -.7 .7 -1.2c0 -.7 -.3 -1 -.8 -1.2c-.5 -.3 -1.1 -.4 -2 -.4h-1.6v-2.5h1.6c1.6 -.1 2.4 -.5 2.4 -1.5c0 -.6 -.2 -.9 -.6 -1.1c-.4 -.4 -.9 -.4 -1.6 -.4c0 0 -.1 0 -.1 0c-1.5 0 -2.6 .5 -3.6 1.4l-1.5 -1.8c1.3 -1.5 3.2 -2.3 5.5 -2.3q.1 0 .2 0c1.4 0 2.5 .4 3.3 1c.8 .7 1.4 1.6 1.4 2.6c-.1 1.4 -.7 2.5 -2.2 3.1c1.7 .5 2.6 1.7 2.6 3.2c-.1 1.2 -.5 2.2 -1.5 3c-1 .7 -2.2 1.1 -3.7 1.1Zm71.7 0c-1.5 -.1 -2.6 -.2 -3.5 -.6c-1.1 -.4 -1.8 -.9 -2.6 -1.7l1.6 -2c1.1 1.1 2.6 1.7 4.4 1.7c.6 -.1 1.2 -.2 1.6 -.4c.4 -.4 .7 -.7 .7 -1.2c0 -.7 -.3 -1 -.8 -1.2c-.6 -.3 -1.1 -.4 -2 -.4h-1.6v-2.5h1.6c1.5 -.1 2.4 -.5 2.4 -1.5c0 -.6 -.2 -.9 -.6 -1.1c-.4 -.4 -.9 -.4 -1.6 -.4c0 0 -.1 0 -.2 0c-1.4 0 -2.5 .5 -3.5 1.4l-1.5 -1.8c1.3 -1.5 3.2 -2.3 5.5 -2.3c0 0 .1 0 .2 0c1.3 0 2.4 .4 3.3 1c.8 .7 1.4 1.6 1.4 2.6c-.1 1.4 -.7 2.5 -2.2 3.1c1.7 .5 2.5 1.7 2.5 3.2c-.1 1.2 -.4 2.2 -1.4 3c-1 .7 -2.2 1.1 -3.7 1.1Zm-206.7 0c-2.1 -.1 -3.7 -.7 -5 -2c-1.4 -1.4 -2 -3 -2 -5c0 -2 .7 -3.6 2 -4.9c1.3 -1.5 3 -2.1 5.1 -2.1c.1 0 .2 0 .3 0c1 0 1.9 .3 2.7 .6c.7 .4 1.5 .9 2.2 1.6l-1.7 2.1c-.7 -.6 -1.2 -.9 -1.7 -1.2c-.6 -.3 -1.1 -.3 -1.8 -.3c-.1 0 -.2 0 -.3 0c-1 0 -1.9 .5 -2.6 1.2c-.8 .8 -1.1 1.8 -1.1 3c0 1.1 .4 2.2 1.1 3c.7 .8 1.7 1.2 2.9 1.2c.7 0 1.3 -.1 1.9 -.3c.4 -.3 1 -.7 1.6 -1.2l1.9 2c-.8 .7 -1.5 1.4 -2.4 1.7c-.9 .3 -1.9 .6 -3.1 .6Zm-5.1 -27.8c1.2 -.1 2 -.6 2 -1.7c0 -1.2 -.7 -1.6 -2.1 -1.6H388v3.3Zm120.7 .1c1.1 0 2.2 -.4 2.9 -1.2c.7 -.9 1.2 -1.8 1.2 -3c0 -1.3 -.4 -2.2 -1.2 -3c-.8 -.9 -1.7 -1.3 -2.9 -1.3c-.1 0 -.2 0 -.3 0c-1.1 0 -1.9 .5 -2.7 1.3c-.8 .7 -1.1 1.8 -1.1 3c0 1.1 .4 2.1 1.2 3c.6 .7 1.7 1.2 2.9 1.2Zm31.5 0c1.1 0 2.1 -.4 2.9 -1.2c.7 -.9 1.1 -1.8 1.1 -3c0 -1.3 -.3 -2.2 -1.1 -3c-.9 -.9 -1.8 -1.3 -3 -1.3q-.1 0 -.2 0c-1.2 0 -2 .5 -2.7 1.3c-.9 .7 -1.1 1.8 -1.1 3c-.1 1.1 .3 2.1 1.1 3c.7 .7 1.8 1.2 3 1.2Zm-168.2 0c1 0 1.9 -.4 2.6 -1.2c.5 -.9 .9 -1.8 .9 -3c-.1 -1.3 -.3 -2.2 -1 -3.1c-.7 -.8 -1.5 -1.2 -2.5 -1.2c-.1 0 -.2 0 -.2 0c-1 0 -1.7 .5 -2.3 1.2c-.7 .8 -1 1.8 -1 3.1c-.1 1.1 .3 2.2 1 3c.6 .8 1.5 1.2 2.5 1.2Zm-26.5 2.8c-.6 -.1 -1.1 -.1 -1.5 -.2l.2 -2.5h.1c.1 0 .2 .1 .3 .1c.4 -.1 .8 -.1 1.1 -.3c.2 -.3 .5 -.6 .8 -1.2c.1 -.6 .4 -1.4 .5 -2.5c0 -1.2 .2 -2.6 .2 -4.4v-2.8h9.6v13.6h-3v-11h-3.9v1.1c0 2.6 -.1 4.7 -.4 6.2c-.5 1.3 -.8 2.5 -1.4 3c-.7 .5 -1.5 .9 -2.6 .9Zm36.2 -.2V288.7h10.4v2.6H388v2.5h3.6c0 0 .1 0 .2 0c1.3 0 2.5 .4 3.3 1.1c.8 .7 1.2 1.8 1.2 3.1c0 1.4 -.4 2.4 -1.3 3.2c-1 .6 -2.1 1.1 -3.7 1.1Zm14.2 0V288.7h3v8.9l5.9 -8.9h2.8v13.6h-3v-9l-5.9 9Zm18.4 0V291.4h-4v-2.7h11.2v2.7h-4.3v10.9Zm9.9 0V288.7h10.3v2.6h-7.3V294h6.3v2.6h-6.3v3h7.3v2.7Zm13.5 .2c-.7 -.1 -1.2 -.1 -1.6 -.2l.2 -2.5c0 0 .1 0 .1 0c.1 0 .3 .1 .4 .1c.4 -.1 .8 -.1 1 -.3c.2 -.3 .6 -.6 .8 -1.2c.1 -.6 .4 -1.4 .5 -2.5c.1 -1.2 .2 -2.6 .2 -4.4v-2.8h9.6v13.6h-3v-11h-3.8v1.1c-.1 2.6 -.2 4.7 -.5 6.2c-.4 1.3 -.8 2.5 -1.4 3c-.7 .5 -1.4 .9 -2.5 .9Zm15.1 -.2V288.7H459v8.9l5.9 -8.9h2.8v13.6h-2.9v-9l-5.9 9Zm35.8 0V288.7h2.9v5.9l5.6 -5.9H504l-5.6 5.7l5.8 7.9h-3.6l-4.2 -5.8l-1.6 1.6v4.2Zm29.9 .2c-.6 -.1 -1.1 -.1 -1.6 -.2l.2 -2.5q.1 0 .1 0c.2 0 .3 .1 .4 .1c.4 -.1 .8 -.1 1.1 -.3c.2 -.3 .5 -.6 .7 -1.2c.2 -.6 .5 -1.4 .6 -2.5c0 -1.2 .1 -2.6 .1 -4.4v-2.8h9.7v13.6h-3v-11h-3.9v1.1c0 2.6 -.2 4.7 -.5 6.2c-.4 1.3 -.8 2.5 -1.4 3c-.7 .5 -1.4 .9 -2.5 .9Zm32 -.2V288.7h9.5v2.6h-6.5v11Zm12 0V288.7h2.9v8.9l6 -8.9h2.7v13.6h-2.9v-9l-5.9 9Zm23 0v-5c-1.4 .6 -2.5 1 -3.5 1c-1.5 0 -2.5 -.4 -3.3 -1.2c-.9 -.8 -1.2 -1.9 -1.2 -3.4v-5h3v4.1c-.1 1.8 .7 2.7 2.1 2.7c1.2 -.1 2.2 -.3 2.9 -.9v-5.9h3v13.6Zm6.8 0V288.7H606v2.6h-7.4V294H605v2.6h-6.4v3H606v2.7Zm27.8 0V288.7h2.9v5.9l5.6 -5.9h3.6l-5.6 5.7l5.8 7.9h-3.6l-4.2 -5.8l-1.6 1.6v4.2Zm14.5 0V288.7h3v8.9l5.9 -8.9h2.8v13.6h-3v-9l-5.9 9Zm-156.2 .2c-1.3 -.1 -2.3 -.2 -3.2 -.6c-1 -.5 -1.7 -1 -2.4 -1.7l1.8 -2c.5 .4 1.2 .9 1.7 1.2c.6 .2 1.3 .4 2 .4c1 -.1 1.8 -.3 2.5 -.9c.6 -.7 1.1 -1.3 1.4 -2.3h-5.6v-2.4h5.6c-.4 -1 -.8 -1.7 -1.5 -2.2c-.7 -.6 -1.5 -.8 -2.4 -.8q-.1 0 -.2 0c-1.2 0 -2.3 .5 -3.3 1.4l-1.7 -2.1c1.4 -1.4 3.2 -2 5.2 -2q.1 0 .2 0c2 0 3.6 .7 4.9 2c1.3 1.3 2 3 2 5c-.1 1.9 -.7 3.6 -2 4.9c-1.4 1.3 -3 2.1 -5 2.1Zm30.3 0c-2.2 -.1 -3.8 -.7 -5.2 -2.1c-1.4 -1.4 -2 -3 -2 -4.9c0 -2 .7 -3.6 2 -5c1.4 -1.4 3.1 -2 5.2 -2c.1 0 .2 0 .2 0c1.9 0 3.6 .7 5 2c1.3 1.3 2 3 2 5c0 1.9 -.7 3.6 -2.1 4.9c-1.4 1.3 -3.1 2.1 -5.1 2.1Zm31.4 0c-2.1 -.1 -3.8 -.7 -5.1 -2.1c-1.4 -1.4 -2.1 -3 -2.1 -4.9c0 -2 .7 -3.6 2.1 -5c1.4 -1.4 3.1 -2 5.2 -2c0 0 .1 0 .2 0c1.9 0 3.6 .7 4.9 2c1.4 1.3 2.1 3 2.1 5c-.1 1.9 -.7 3.6 -2.1 4.9c-1.4 1.3 -3.1 2.1 -5.2 2.1Zm-168.1 0c-1.7 -.1 -3.2 -.6 -4.3 -1.7c-1.2 -1.1 -1.9 -2.4 -2.2 -4.2h-1.9v5.7h-3V288.7h3V294h1.9c.2 -1.6 1 -2.9 2.2 -4c1.2 -1 2.7 -1.5 4.3 -1.5c.1 0 .2 0 .2 0c1.8 0 3.4 .7 4.6 2c1.1 1.3 1.8 3 1.8 5c0 1.9 -.6 3.6 -1.9 4.9c-1.2 1.3 -2.8 2.1 -4.7 2.1Zm239.6 0c-2.1 -.1 -3.6 -.7 -4.9 -2.1c-1.5 -1.4 -2 -3 -2 -4.9c0 -2 .7 -3.6 2 -5c1.3 -1.4 3 -2 5.1 -2c.1 0 .2 0 .3 0c1 0 1.9 .2 2.6 .6c.8 .3 1.6 .9 2.3 1.6l-1.8 2c-.6 -.5 -1.1 -.9 -1.6 -1.1c-.6 -.3 -1.1 -.4 -1.9 -.4c0 0 -.1 0 -.2 0c-1.1 0 -1.9 .5 -2.6 1.3c-.8 .7 -1.1 1.8 -1.1 3c0 1.1 .4 2.1 1.1 3c.7 .7 1.7 1.2 2.8 1.2c.7 0 1.4 -.1 1.9 -.4c.5 -.2 1.1 -.6 1.7 -1.2l1.9 2c-.8 .8 -1.5 1.4 -2.4 1.8c-.9 .3 -1.9 .6 -3.2 .6Z"/></clipPath>
<clipPath id="c5_31"><path d="M323.7 443.8c-18.3 0 -33.2 -14.9 -33.2 -33.3v-8.4c0 -18.4 14.9 -33.3 33.2 -33.3H681.5c18.4 0 33.3 14.9 33.3 33.3v8.4c0 18.4 -14.9 33.3 -33.3 33.3Z"/></clipPath>
<clipPath id="c6_31"><path d="M485.1 410.1c1.4 0 2.2 -.5 2.2 -1.5c0 -1.1 -.8 -1.5 -2.3 -1.5h-3.5v3Zm-14.4 -3l-1.9 -4.4l-1.8 4.4Zm-70.5 -1c.6 0 1.3 -.2 1.7 -.6c.4 -.4 .6 -.9 .6 -1.6c0 -.7 -.2 -1.2 -.6 -1.6c-.4 -.4 -1 -.5 -1.7 -.5h-2.3v4.3ZM430 410v-8.2h-4v1.4c0 2.5 -.4 4.8 -1.3 6.8Zm54.2 -5.4c1.3 -.1 2.1 -.5 2.1 -1.5c0 -.5 -.2 -.8 -.5 -1c-.4 -.4 -.8 -.4 -1.4 -.4h-2.9v2.9Zm106.5 5.5c1.1 0 2.2 -.4 2.9 -1.2c.7 -.9 1.2 -1.8 1.2 -3c0 -1.2 -.4 -2.2 -1.2 -3c-.8 -.9 -1.8 -1.2 -2.9 -1.2c-.1 0 -.2 0 -.3 0c-1.1 0 -2 .4 -2.7 1.2c-.8 .8 -1.1 1.8 -1.1 3c-.1 1.1 .4 2.2 1.1 3c.7 .8 1.8 1.2 3 1.2Zm-210.8 2.6V399.1h11.3v13.6h-3V401.8h-5.3v10.9Zm15 0V399.1h5.5c1.5 0 2.9 .4 3.8 1.3c.8 .8 1.4 2.1 1.4 3.5c0 1.5 -.5 2.7 -1.6 3.6c-1 .8 -2.3 1.2 -3.9 1.2h-2.2v4Zm13.3 0V399.1h10.4v2.6h-7.4v2.7h6.4v2.7h-6.4v3h7.4v2.6Zm12.1 2.9V410h1.3c.4 -1.3 .9 -2.5 1.1 -3.9c.2 -1.4 .4 -3.2 .4 -5.4v-1.6h9.8V410h1.7l-.4 5.6h-2.5v-2.9h-8.6v2.9Zm34.4 -2.9V401.8h-4v-2.7h11.2v2.7h-4.2v10.9Zm7 0l5.8 -13.6h2.8l5.8 13.6H473l-1.3 -3H466l-1.3 3Zm16.9 0V399.1h6.2c1.5 0 2.7 .4 3.5 1.2c.6 .6 1 1.4 1 2.3c0 1.3 -.6 2.3 -1.7 3c.9 .3 1.5 .7 2 1.3c.3 .4 .6 1.2 .6 2.1c-.1 1.1 -.4 2.1 -1.3 2.8c-1 .6 -2.2 .9 -3.8 .9Zm14.4 0V399.1h3V408l5.9 -8.9h2.8v13.6h-3v-8.9l-5.9 8.9Zm18.4 0V401.8h-4v-2.7h11.2v2.7h-4.2v10.9Zm9.9 0V399.1h10.3v2.6h-7.3v2.7h6.3v2.7h-6.3v3h7.3v2.6Zm13.5 .2c-.7 -.1 -1.2 -.1 -1.6 -.2l.2 -2.4c0 0 .1 -.1 .1 -.1c.1 0 .3 .1 .4 .1c.4 -.1 .8 -.1 1 -.3c.2 -.3 .6 -.6 .8 -1.1c.1 -.6 .4 -1.4 .5 -2.6c.1 -1.2 .2 -2.6 .2 -4.4v-2.8H546v13.6h-3V401.8h-3.8v1c-.1 2.7 -.2 4.7 -.5 6.2c-.4 1.4 -.8 2.5 -1.4 3.1c-.7 .4 -1.4 .8 -2.5 .8Zm15.1 -.2V399.1h2.9V408l5.9 -8.9h2.8v13.6h-2.9v-8.9l-5.9 8.9Zm48.6 0l5.4 -7.7l-5.2 -5.9h3.5l5.5 6.4v-6.4h3v6.4l5.4 -6.4h3.6l-5.2 5.9l5.3 7.7h-3.5l-3.9 -5.5l-1.7 1.9v3.6h-3v-3.6l-1.8 -1.9l-3.8 5.5Zm-7.8 .2c-2.2 -.1 -3.8 -.7 -5.2 -2c-1.4 -1.4 -2 -3 -2 -5c0 -2 .7 -3.6 2 -4.9c1.4 -1.5 3.1 -2.1 5.2 -2.1q.1 0 .2 0c1.9 0 3.6 .8 4.9 2.1c1.4 1.2 2.1 3 2.1 4.9c0 1.9 -.7 3.6 -2.1 5c-1.4 1.3 -3.1 2 -5.1 2Zm-14.9 0c-1.4 -.1 -2.5 -.2 -3.5 -.6c-1 -.4 -1.8 -.9 -2.5 -1.7l1.6 -2c1 1.1 2.6 1.7 4.3 1.7c.7 -.1 1.2 -.2 1.7 -.5c.4 -.3 .6 -.6 .6 -1.1c0 -.7 -.2 -1 -.7 -1.2c-.6 -.3 -1.2 -.4 -2 -.4h-1.6v-2.5h1.6c1.5 -.1 2.4 -.5 2.4 -1.5c0 -.6 -.2 -.9 -.6 -1.1c-.4 -.4 -.9 -.4 -1.6 -.4q-.1 0 -.2 0c-1.4 0 -2.6 .5 -3.5 1.4l-1.6 -1.8c1.4 -1.6 3.3 -2.3 5.5 -2.3c.1 0 .2 0 .3 0c1.3 0 2.4 .4 3.3 1c.8 .7 1.3 1.6 1.3 2.6c0 1.4 -.7 2.5 -2.1 3.1c1.6 .5 2.5 1.7 2.5 3.2c-.1 1.2 -.5 2.2 -1.4 3c-1 .7 -2.2 1.1 -3.8 1.1Zm-132.5 0c-2.1 -.1 -3.7 -.7 -5 -2c-1.4 -1.4 -2 -3 -2 -5c0 -2 .7 -3.6 2 -4.9c1.3 -1.5 3 -2.1 5.1 -2.1c.1 0 .2 0 .3 0c1 0 1.9 .3 2.6 .6c.8 .4 1.6 .9 2.3 1.6l-1.8 2.1c-.6 -.6 -1.1 -.9 -1.6 -1.2c-.6 -.3 -1.1 -.3 -1.8 -.3c-.1 0 -.2 0 -.3 0c-1 0 -1.9 .4 -2.6 1.2c-.8 .8 -1.1 1.8 -1.1 3c0 1.1 .4 2.2 1.1 3c.7 .8 1.7 1.2 2.9 1.2c.7 0 1.3 -.1 1.8 -.3c.5 -.3 1.1 -.7 1.7 -1.2l1.9 2c-.8 .7 -1.5 1.4 -2.4 1.7c-.9 .3 -1.9 .6 -3.1 .6Z"/></clipPath>
<clipPath id="c7_31"><path d="M323.7 540.9c-18.3 0 -33.2 -14.9 -33.2 -33.3v-8.4c0 -18.3 14.9 -33.2 33.2 -33.2H681.5c18.4 0 33.3 14.9 33.3 33.2v8.4c0 18.4 -14.9 33.3 -33.3 33.3Z"/></clipPath>
<clipPath id="c8_31"><path d="M426.4 521.4c1.3 -.1 2 -.5 2 -1.5c0 -1 -.7 -1.4 -2.1 -1.4h-3.2v2.9Zm-18.6 -2.9l-1.6 -4l-1.7 4Zm47.3 0l-1.7 -4l-1.7 4Zm-103.4 -1c.5 0 1.2 -.2 1.6 -.5c.3 -.4 .6 -.9 .6 -1.4c-.1 -.7 -.2 -1.1 -.6 -1.4c-.5 -.4 -1 -.5 -1.7 -.5h-2.1v3.8Zm115.7 0c.5 0 1.2 -.2 1.6 -.5c.3 -.4 .6 -.9 .6 -1.4c-.1 -.7 -.2 -1.1 -.6 -1.4c-.5 -.4 -1 -.5 -1.7 -.5h-2.1v3.8Zm123.2 0c.5 0 1.2 -.2 1.6 -.5c.3 -.4 .6 -.9 .6 -1.4c-.1 -.7 -.2 -1.1 -.6 -1.4c-.5 -.4 -1 -.5 -1.7 -.5h-2.1v3.8Zm26.3 0c.5 0 1.2 -.2 1.6 -.5c.3 -.4 .6 -.9 .6 -1.4c-.1 -.7 -.2 -1.1 -.6 -1.4c-.5 -.4 -1 -.5 -1.7 -.5h-2.1v3.8Zm30.2 3.8v-7.6h-3.7V515c0 2.3 -.4 4.5 -1.1 6.3ZM425.6 516.2c1.3 0 2 -.4 2 -1.3c-.1 -.4 -.1 -.8 -.4 -1c-.4 -.2 -.8 -.3 -1.4 -.3h-2.7v2.6Zm70.8 5.2c1.1 -.1 2 -.3 2.7 -1.1c.7 -.8 1.1 -1.7 1.1 -2.8c-.1 -1.1 -.4 -2 -1.1 -2.8c-.7 -.8 -1.6 -1.1 -2.7 -1.1c0 0 -.1 0 -.1 0c-1.1 0 -1.9 .4 -2.6 1.1c-.8 .7 -1.1 1.7 -1.1 2.8c0 1.1 .4 2 1.1 2.8c.6 .7 1.6 1.1 2.7 1.1Zm133.7 0c1.1 -.1 2 -.3 2.7 -1.1c.7 -.8 1 -1.7 1 -2.8c0 -1.1 -.3 -2 -1 -2.8c-.7 -.8 -1.6 -1.1 -2.7 -1.1q-.1 0 -.1 0c-1.2 0 -1.9 .4 -2.6 1.1c-.8 .7 -1.1 1.7 -1.1 2.8c-.1 1.1 .4 2 1.1 2.8c.6 .7 1.6 1.1 2.7 1.1Zm29.4 0c1.1 -.1 2 -.3 2.7 -1.1c.6 -.8 1 -1.7 1 -2.8c0 -1.1 -.3 -2 -1.1 -2.8c-.7 -.8 -1.6 -1.1 -2.7 -1.1c-1.2 0 -2 .4 -2.7 1.1c-.7 .7 -1 1.7 -1 2.8c-.1 1.1 .4 2 1.1 2.8c.6 .7 1.6 1.1 2.7 1.1Zm-335.2 2.4V513.7h-3.9v-2.5h10.5v2.5h-3.8v10.1Zm11.2 .2c-1 -.1 -1.8 -.3 -2.7 -.8l1.1 -2c.4 .3 1 .4 1.5 .4c.6 0 1.2 -.3 1.6 -1l-5.1 -9.4H335l3.5 6.6l3 -6.6h3l-4.8 9.7c-.6 1.1 -1.2 1.9 -1.8 2.4c-.8 .4 -1.5 .7 -2.4 .7Zm11.2 -.2V511.2h5.1c1.5 0 2.7 .4 3.6 1.2c.8 .7 1.3 1.8 1.3 3.2c0 1.3 -.5 2.4 -1.5 3.2c-1 .7 -2.2 1.2 -3.6 1.2h-2.1v3.8Zm12.2 0V511.2h2.7v8.3l5.7 -8.3h2.6v12.6h-2.8v-8.3l-5.6 8.3Zm26 0V511.2h3l3.4 5.3l3.3 -5.3h3v12.6h-2.8v-8.2l-3.5 5.4h-.1l-3.5 -5.4v8.2Zm14.6 0l5.4 -12.6h2.6l5.4 12.6H410l-1.2 -2.9h-5.3l-1.1 2.9Zm20.9 0V511.2h5.8c1.4 0 2.6 .3 3.3 1.1c.5 .5 .9 1.3 .9 2.1c0 1.1 -.6 2.1 -1.6 2.7c.7 .2 1.3 .7 1.7 1.2c.4 .5 .6 1.2 .6 2c0 1.1 -.4 2 -1.2 2.6c-.9 .6 -2 .9 -3.5 .9Zm18.4 0V511.2h8.8v2.5h-6v10.1Zm7.9 0l5.4 -12.6h2.6l5.4 12.6h-2.9L456 520.9h-5.3l-1.1 2.9Zm15.7 0V511.2h5.1c1.5 0 2.7 .4 3.6 1.2c.8 .7 1.3 1.8 1.3 3.2c0 1.3 -.5 2.4 -1.5 3.2c-1 .7 -2.2 1.2 -3.6 1.2h-2.1v3.8Zm12.2 0V511.2h3l3.3 5.3l3.4 -5.3h2.9v12.6h-2.7v-8.2l-3.6 5.4h-.1l-3.5 -5.4v8.2Zm31.3 0V511.2h2.8v5h5.1v-5h2.8v12.6h-2.8v-5.1h-5.1v5.1Zm13.9 0V511.2h2.7v8.3l5.7 -8.3h2.6v12.6H528v-8.3l-5.6 8.3Zm14.1 0V511.2h2.7v8.3l5.7 -8.3h2.5v12.6h-2.7v-8.3l-5.6 8.3Zm38 0V511.2h10.4v12.6h-2.8V513.7h-4.9v10.1Zm13.7 0V511.2h5.1c1.5 0 2.7 .4 3.6 1.2c.8 .7 1.3 1.8 1.3 3.2c0 1.3 -.5 2.4 -1.5 3.2c-1 .7 -2.2 1.2 -3.6 1.2h-2.1v3.8Zm12.2 0V511.2h2.7v8.3l5.7 -8.3h2.6v12.6h-2.7v-8.3l-5.7 8.3Zm14.1 0V511.2H617c1.5 0 2.7 .4 3.6 1.2c.8 .7 1.3 1.8 1.3 3.2c0 1.3 -.5 2.4 -1.5 3.2c-1 .7 -2.2 1.2 -3.6 1.2h-2.1v3.8Zm26.2 2.6v-5.1h1.2c.4 -1.2 .9 -2.3 1.1 -3.6c.1 -1.4 .3 -3 .3 -5v-1.5h9.1v10.1h1.5l-.3 5.1h-2.3v-2.6h-8v2.6ZM669 523.8V511.2h2.7v8.3l5.7 -8.3h2.5v12.6h-2.7v-8.3l-5.6 8.3ZM496.4 524c-2 -.1 -3.5 -.6 -4.8 -1.9c-1.3 -1.3 -1.8 -2.8 -1.8 -4.6c0 -1.8 .6 -3.3 1.9 -4.6c1.1 -1.3 2.8 -1.9 4.7 -1.9c.1 0 .2 0 .2 0c1.8 0 3.4 .7 4.6 1.9c1.2 1.2 1.9 2.8 1.9 4.6c0 1.8 -.7 3.3 -1.9 4.6c-1.3 1.2 -2.9 1.9 -4.8 1.9Zm133.7 0c-2.1 -.1 -3.5 -.6 -4.8 -1.9c-1.3 -1.3 -1.9 -2.8 -1.9 -4.6c0 -1.8 .7 -3.3 1.9 -4.6c1.2 -1.3 2.9 -1.9 4.8 -1.9q.1 0 .2 0c1.8 0 3.3 .7 4.6 1.9c1.2 1.2 1.8 2.8 1.8 4.6c0 1.8 -.6 3.3 -1.9 4.6c-1.3 1.2 -2.8 1.9 -4.7 1.9Zm29.3 0c-2 -.1 -3.5 -.6 -4.7 -1.9c-1.3 -1.3 -1.9 -2.8 -1.9 -4.6c0 -1.8 .6 -3.3 1.9 -4.6c1.2 -1.3 2.9 -1.9 4.8 -1.9c0 0 .1 0 .2 0c1.8 0 3.3 .7 4.5 1.9c1.2 1.2 1.9 2.8 1.9 4.6c0 1.8 -.6 3.3 -1.9 4.6c-1.3 1.2 -2.9 1.9 -4.8 1.9Zm-282.1 0c-1.4 -.1 -2.4 -.2 -3.3 -.5c-.9 -.5 -1.6 -.9 -2.3 -1.6l1.4 -2c1.1 1.1 2.5 1.7 4.1 1.7c.5 -.1 1.1 -.2 1.5 -.5c.4 -.3 .6 -.6 .6 -1.1c0 -.6 -.2 -.9 -.7 -1.1c-.5 -.3 -1 -.4 -1.8 -.4h-1.5v-2.3h1.4c1.5 0 2.3 -.5 2.3 -1.4c0 -.5 -.2 -.7 -.6 -1c-.4 -.3 -.9 -.3 -1.5 -.3c-.1 0 -.2 -.1 -.3 -.1c-1.3 0 -2.2 .6 -3.1 1.4l-1.4 -1.7c1.3 -1.5 3 -2.1 5.1 -2.1c0 0 .1 0 .2 0c1.2 0 2.2 .4 3 .9c.8 .6 1.3 1.5 1.3 2.4c0 1.3 -.7 2.3 -2 2.9c1.6 .5 2.4 1.5 2.4 3c-.1 1.1 -.5 2 -1.3 2.7c-1 .7 -2.1 1.1 -3.5 1.1ZM559 524c-1.9 -.1 -3.4 -.6 -4.7 -1.9c-1.3 -1.3 -1.8 -2.8 -1.8 -4.6c0 -1.8 .6 -3.3 1.8 -4.6c1.2 -1.3 2.9 -1.9 4.8 -1.9c.1 0 .2 0 .3 0c.9 0 1.7 .2 2.4 .5c.8 .4 1.5 .9 2.1 1.6l-1.6 1.9c-.6 -.6 -1.1 -.9 -1.5 -1.1c-.6 -.2 -1.1 -.3 -1.8 -.3c-1.1 0 -1.9 .4 -2.6 1.1c-.8 .7 -1 1.7 -1 2.8c-.1 1.1 .3 2 1 2.8c.6 .7 1.6 1.1 2.6 1.1c.6 -.1 1.3 -.1 1.8 -.3c.4 -.3 1 -.6 1.6 -1.1l1.7 1.8c-.8 .8 -1.4 1.3 -2.2 1.7c-.8 .2 -1.8 .5 -2.9 .5ZM674.5 510.3c-.9 0 -1.5 -.2 -2.1 -.7c-.6 -.5 -.9 -1.1 -1 -2l1.6 -.3c.3 .8 .8 1.2 1.5 1.2c.6 0 1.2 -.4 1.5 -1.2l1.6 .3c-.2 .8 -.5 1.5 -1 2c-.7 .5 -1.3 .7 -2.1 .7ZM521.8 493.6l-1.7 -4.1l-1.6 4.1Zm42.4 0l-1.7 -4.1l-1.7 4.1Zm-13.5 2.8v-7.7H547V490c0 2.4 -.4 4.5 -1.1 6.4Zm25.8 -3.8c.5 0 1.2 -.2 1.6 -.6c.3 -.4 .6 -.8 .6 -1.4c-.1 -.6 -.2 -1 -.6 -1.4c-.5 -.3 -1 -.5 -1.7 -.5h-2.1v3.9Zm38.9 3.9c1.1 -.1 2 -.4 2.7 -1.2c.7 -.8 1.1 -1.6 1.1 -2.7c0 -1.1 -.4 -2.1 -1.1 -2.8c-.7 -.9 -1.6 -1.2 -2.7 -1.2h-.1c-1.1 0 -1.9 .4 -2.6 1.2c-.8 .6 -1 1.6 -1 2.8c-.1 1 .3 2 1 2.7c.6 .8 1.6 1.2 2.7 1.2Zm26 0c1 -.1 1.9 -.4 2.6 -1.2c.7 -.8 1.1 -1.6 1.1 -2.7c0 -1.1 -.4 -2.1 -1.1 -2.8c-.7 -.9 -1.6 -1.2 -2.7 -1.2h-.1c-1.1 0 -1.9 .4 -2.6 1.2c-.8 .6 -1 1.6 -1 2.8c-.1 1 .3 2 1 2.7c.7 .8 1.7 1.2 2.8 1.2Zm-278.5 5v-2.6h-9.3V486.2h2.8v10.2h4.9V486.2H364v10.2h1.5l-.3 5.1Zm4.9 -2.6V486.2h9.4v2.5h-6.7v2.5h5.9v2.5h-5.9v2.7h6.9v2.5Zm12.2 0V486.2h2.8v5h5.1v-5h2.8v12.7h-2.8v-5.1h-5.1v5.1Zm13.9 0V486.2h2.7v8.3l5.7 -8.3h2.6v12.7h-2.8v-8.3l-5.6 8.3Zm16.9 0V488.8H407v-2.6h10.4v2.6h-3.8v10.1Zm9 0V486.2h9.5v2.5h-6.7v2.5h5.9v2.5h-5.9v2.7h6.9v2.5Zm12.4 .1c-.6 0 -1 0 -1.4 -.1l.2 -2.3c.1 0 .3 0 .4 0c.3 0 .7 -.1 1 -.2c.1 -.3 .5 -.6 .7 -1.1c.2 -.6 .4 -1.3 .5 -2.4c0 -1 .1 -2.4 .1 -4v-2.7h9v12.7h-2.8V488.7h-3.6v1c-.1 2.4 -.1 4.4 -.4 5.7c-.4 1.3 -.7 2.3 -1.3 2.9c-.6 .5 -1.4 .7 -2.4 .7Zm13.8 -.1V486.2h2.7v8.3l5.7 -8.3h2.5v12.7h-2.7v-8.3l-5.6 8.3Zm19.3 0V486.2H468v5h5.1v-5h2.8v12.7h-2.8v-5.1H468v5.1Zm13.8 0V486.2h9.5v2.5h-6.7v2.5h5.9v2.5h-5.9v2.7h6.9v2.5Zm28.3 0V488.8h-3.9v-2.6h10.4v2.6h-3.7v10.1Zm6.1 0l5.4 -12.7h2.6l5.4 12.7H524L522.8 496h-5.3l-1.2 2.9Zm15.7 0V486.2h2.7v5H537v-5h2.8v12.7H537v-5.1h-5.1v5.1Zm12.5 2.6v-5.1h1.2c.5 -1.2 .9 -2.4 1.1 -3.7c.1 -1.3 .4 -2.9 .4 -5v-1.5h9.1v10.2H555l-.4 5.1h-2.3v-2.6h-7.9v2.6Zm14.1 -2.6l5.4 -12.7h2.6l5.4 12.7h-2.9L565.1 496h-5.3l-1.1 2.9Zm15.7 0V486.2h5.1c1.5 0 2.7 .4 3.6 1.2c.8 .8 1.3 1.9 1.3 3.2c0 1.4 -.5 2.5 -1.5 3.3c-1 .6 -2.2 1.1 -3.6 1.1h-2.1v3.9Zm15.1 0V488.8h-3.9v-2.6h10.4v2.6h-3.7v10.1Zm9 0V486.2h2.7v5h5.1v-5h2.8v12.7h-2.8v-5.1h-5.1v5.1Zm29.3 0V486.2h8.8v2.5h-6v10.2Zm-9.5 .1c-2 0 -3.5 -.6 -4.7 -1.8c-1.4 -1.4 -1.9 -2.8 -1.9 -4.6c0 -1.8 .6 -3.4 1.9 -4.6c1.2 -1.3 2.8 -1.9 4.7 -1.9c.1 0 .2 0 .2 0c1.9 0 3.4 .6 4.6 1.9c1.2 1.2 1.9 2.7 1.9 4.6c0 1.8 -.7 3.3 -1.9 4.6c-1.3 1.1 -2.9 1.8 -4.8 1.8Zm25.9 0c-2 0 -3.5 -.6 -4.7 -1.8c-1.4 -1.4 -1.9 -2.8 -1.9 -4.6c0 -1.8 .6 -3.4 1.9 -4.6c1.2 -1.3 2.8 -1.9 4.8 -1.9c0 0 .1 0 .2 0c1.8 0 3.3 .6 4.5 1.9c1.2 1.2 1.9 2.7 1.9 4.6c0 1.8 -.6 3.3 -1.9 4.6c-1.3 1.1 -2.9 1.8 -4.8 1.8Zm-144.5 0c-1.9 0 -3.4 -.6 -4.6 -1.8c-1.3 -1.4 -1.8 -2.8 -1.8 -4.6c0 -1.9 .6 -3.4 1.8 -4.6c1.2 -1.3 2.8 -1.9 4.7 -1.9c.1 0 .2 0 .3 0c.9 0 1.8 .2 2.5 .5c.7 .3 1.4 .9 2.1 1.5l-1.7 1.9c-.5 -.5 -1 -.8 -1.5 -1c-.5 -.3 -1 -.4 -1.7 -.4h-.1c-1.1 0 -1.8 .4 -2.5 1.2c-.8 .6 -1 1.6 -1 2.8c-.1 1 .3 2 1 2.7c.6 .8 1.5 1.2 2.6 1.2c.6 -.1 1.3 -.1 1.8 -.4c.3 -.3 1 -.6 1.5 -1.1l1.8 1.9c-.8 .7 -1.4 1.3 -2.2 1.6c-.9 .3 -1.8 .5 -3 .5Z"/></clipPath>
<clipPath id="c9_31"><path d="M323.7 648.7c-18.3 0 -33.2 -14.9 -33.2 -33.3V607c0 -18.3 14.9 -33.2 33.2 -33.2H681.5c18.4 0 33.3 14.9 33.3 33.2v8.4c0 18.4 -14.9 33.3 -33.3 33.3Z"/></clipPath>
<clipPath id="ca_31"><path d="M664.2 625l-1.9 -4.4l-1.8 4.4Zm-61.5 -1c.6 0 1.3 -.2 1.7 -.6c.4 -.5 .6 -1 .6 -1.6c0 -.7 -.2 -1.2 -.6 -1.6c-.4 -.4 -1 -.5 -1.8 -.5h-2.2V624Zm-208.9 4c1.2 0 2.2 -.4 3 -1.2c.7 -.9 1.1 -1.8 1.1 -3c0 -1.2 -.4 -2.2 -1.1 -3c-.9 -.9 -1.8 -1.2 -3 -1.2c-.1 0 -.2 0 -.3 0c-1.1 0 -1.9 .4 -2.6 1.2c-.9 .8 -1.2 1.8 -1.2 3c0 1.1 .4 2.2 1.2 3c.7 .8 1.8 1.2 2.9 1.2Zm31.5 0c1.1 0 2.2 -.4 2.9 -1.2c.7 -.9 1.2 -1.8 1.2 -3c0 -1.2 -.4 -2.2 -1.2 -3c-.8 -.9 -1.7 -1.2 -2.9 -1.2c-.1 0 -.2 0 -.3 0c-1.1 0 -2 .4 -2.7 1.2c-.8 .8 -1.1 1.8 -1.1 3c0 1.1 .4 2.2 1.2 3c.6 .8 1.7 1.2 2.9 1.2Zm100 0c1.2 0 2.2 -.4 3 -1.2c.7 -.9 1.1 -1.8 1.1 -3c0 -1.2 -.4 -2.2 -1.1 -3c-.9 -.9 -1.8 -1.2 -3 -1.2c-.1 0 -.2 0 -.3 0c-1.1 0 -1.9 .4 -2.6 1.2c-.9 .8 -1.2 1.8 -1.2 3c0 1.1 .4 2.2 1.2 3c.7 .8 1.8 1.2 2.9 1.2Zm28.3 0c1.2 0 2.2 -.4 3 -1.2c.7 -.9 1.1 -1.8 1.1 -3c0 -1.2 -.4 -2.2 -1.1 -3c-.9 -.9 -1.8 -1.2 -3 -1.2c-.1 0 -.2 0 -.3 0c-1.1 0 -1.9 .4 -2.6 1.2c-.9 .8 -1.2 1.8 -1.2 3c0 1.1 .4 2.2 1.2 3c.7 .8 1.8 1.2 2.9 1.2Zm-225 2.6V617h11.3v13.6h-3V619.7h-5.3v10.9Zm29.7 0V617h3v8.9l5.9 -8.9h2.7v13.6H367v-8.9l-5.9 8.9Zm14.3 0l4.7 -6.9L372.8 617h3.5l2.8 4.4L382 617h3.4l-4.5 6.6l4.7 7h-3.5L379 625.9l-3 4.7Zm31 .2c-.6 -.1 -1.1 -.1 -1.5 -.2l.2 -2.5h.1c.1 0 .2 .1 .3 .1c.4 -.1 .8 -.1 1.1 -.3c.2 -.3 .5 -.6 .8 -1.1c.1 -.6 .4 -1.5 .5 -2.6c0 -1.2 .1 -2.6 .1 -4.4V617h9.7v13.6h-3V619.7H408v1c0 2.6 -.1 4.7 -.4 6.2c-.5 1.4 -.8 2.5 -1.4 3.1c-.7 .4 -1.5 .8 -2.6 .8Zm32 -.2V617h9.5v2.7h-6.5v10.9Zm12 0V617h3v8.9l5.9 -8.9h2.8v13.6h-3v-8.9l-5.9 8.9Zm23 0v-5c-1.3 .6 -2.5 1 -3.5 1c-1.4 0 -2.5 -.4 -3.3 -1.1c-.8 -.9 -1.2 -2 -1.2 -3.5v-5h3v4.2c-.1 1.7 .7 2.6 2.2 2.6c1.1 0 2.1 -.3 2.8 -.9V617h3v13.6Zm6.9 0V617h10.3v2.6h-7.3v2.7h6.3V625h-6.3v3h7.3v2.6Zm27.7 0V617h3v5.9l5.5 -5.9h3.6l-5.5 5.8l5.7 7.8H514l-4.2 -5.8l-1.6 1.7v4.1Zm30.5 0V617h9.4v2.7h-6.4v10.9Zm37.1 0V619.7h-4V617H580v2.7h-4.2v10.9Zm12.5 .2c-1.1 -.1 -2 -.3 -2.9 -.8l1.1 -2.2c.5 .2 1.1 .5 1.7 .5c.6 -.1 1.2 -.4 1.7 -1.1L581.4 617h3.4l3.6 7.2l3.3 -7.2H595l-5.3 10.5c-.5 1.1 -1.2 2 -1.9 2.5c-.7 .5 -1.5 .8 -2.5 .8Zm12.1 -.2V617h5.5c1.5 0 2.8 .4 3.8 1.3c.8 .8 1.4 2 1.4 3.5c-.1 1.5 -.6 2.7 -1.6 3.6c-1.1 .8 -2.3 1.2 -3.9 1.2h-2.2v4Zm13.3 0V617h3v8.9l5.9 -8.9h2.8v13.6h-3v-8.9l-5.9 8.9Zm28.5 0V617h3.2l3.6 5.8l3.6 -5.8h3.2v13.6h-3v-8.9l-3.8 5.8h-.1l-3.8 -5.7v8.8Zm16 0L661 617h2.8l5.8 13.6h-3.1l-1.3 -3h-5.7l-1.3 3Zm-261.4 .2c-2.1 -.1 -3.8 -.7 -5.1 -2c-1.4 -1.4 -2.1 -3 -2.1 -5c0 -2 .7 -3.6 2.1 -4.9c1.3 -1.5 3.1 -2.1 5.1 -2.1c.1 0 .2 0 .3 0c1.9 0 3.6 .7 4.9 2c1.3 1.3 2 3 2 5c0 1.9 -.6 3.6 -2 5c-1.4 1.3 -3.1 2 -5.2 2Zm31.5 0c-2.2 -.1 -3.8 -.7 -5.2 -2c-1.4 -1.4 -2 -3 -2 -5c0 -2 .7 -3.6 2 -4.9c1.4 -1.5 3.1 -2.1 5.2 -2.1q.1 0 .2 0c1.9 0 3.6 .7 5 2c1.3 1.3 2 3 2 5c0 1.9 -.7 3.6 -2.1 5c-1.4 1.3 -3.1 2 -5.1 2Zm100 0c-2.1 -.1 -3.8 -.7 -5.1 -2c-1.4 -1.4 -2.1 -3 -2.1 -5c0 -2 .7 -3.6 2.1 -4.9c1.3 -1.5 3.1 -2.1 5.1 -2.1c.1 0 .2 0 .3 0c1.9 0 3.6 .7 4.9 2c1.3 1.3 2 3 2 5c0 1.9 -.6 3.6 -2 5c-1.4 1.3 -3.1 2 -5.2 2Zm28.3 0c-2.1 -.1 -3.8 -.7 -5.1 -2c-1.4 -1.4 -2.1 -3 -2.1 -5c0 -2 .7 -3.6 2.1 -4.9c1.3 -1.5 3.1 -2.1 5.1 -2.1c.1 0 .2 0 .2 0c2 0 3.7 .7 5 2c1.3 1.3 2 3 2 5c0 1.9 -.6 3.6 -2 5c-1.4 1.3 -3.1 2 -5.2 2Zm77.3 0c-1.5 -.1 -2.6 -.2 -3.5 -.6c-1.1 -.4 -1.8 -.9 -2.6 -1.7l1.6 -2c1.1 1 2.6 1.7 4.4 1.7c.6 -.1 1.2 -.2 1.6 -.5c.4 -.3 .7 -.6 .7 -1.1c0 -.7 -.3 -1 -.8 -1.2c-.5 -.3 -1.1 -.4 -2 -.4h-1.6v-2.5h1.6c1.5 -.1 2.4 -.5 2.4 -1.6c0 -.5 -.2 -.8 -.6 -1c-.4 -.4 -.9 -.4 -1.6 -.4c0 -.1 -.1 -.1 -.1 -.1c-1.5 0 -2.6 .6 -3.6 1.5L625.3 619c1.3 -1.5 3.2 -2.2 5.5 -2.2q.1 0 .2 0c1.3 0 2.5 .4 3.3 1c.8 .7 1.4 1.6 1.4 2.6c-.1 1.4 -.7 2.5 -2.2 3.1c1.7 .5 2.6 1.6 2.6 3.2c-.2 1.2 -.5 2.2 -1.5 3c-1 .7 -2.2 1.1 -3.7 1.1Zm-281 0c-2.1 -.1 -3.7 -.7 -5 -2c-1.4 -1.4 -2 -3 -2 -5c0 -2 .7 -3.6 2 -5c1.4 -1.4 3 -2 5.1 -2c.1 0 .2 0 .3 0c1 0 1.9 .2 2.7 .6c.7 .3 1.5 .9 2.3 1.6l-1.8 2.1c-.7 -.6 -1.2 -.9 -1.7 -1.2c-.6 -.3 -1.1 -.3 -1.8 -.3c-.1 0 -.2 0 -.3 0c-1 0 -1.8 .4 -2.5 1.2c-.9 .8 -1.1 1.8 -1.1 3c-.1 1.1 .3 2.2 1.1 3c.6 .8 1.6 1.2 2.8 1.2c.7 0 1.3 -.1 1.9 -.4c.4 -.2 1.1 -.6 1.7 -1.1l1.9 2c-.9 .7 -1.6 1.3 -2.4 1.7c-1 .3 -2 .6 -3.2 .6Zm146.9 0c-2.1 -.1 -3.7 -.7 -5 -2c-1.4 -1.4 -2 -3 -2 -5c0 -2 .7 -3.6 2 -5c1.3 -1.4 3 -2 5.1 -2c.1 0 .2 0 .3 0c1 0 1.9 .2 2.7 .6c.7 .3 1.5 .9 2.2 1.6l-1.7 2.1c-.7 -.6 -1.2 -.9 -1.7 -1.2c-.6 -.3 -1.1 -.3 -1.8 -.3c-.1 0 -.2 0 -.3 0c-1 0 -1.9 .4 -2.5 1.2c-.9 .8 -1.2 1.8 -1.2 3c0 1.1 .4 2.2 1.2 3c.6 .8 1.6 1.2 2.8 1.2c.7 0 1.3 -.1 1.9 -.4c.4 -.2 1 -.6 1.6 -1.1l1.9 2c-.8 .7 -1.5 1.3 -2.4 1.7c-.9 .3 -1.9 .6 -3.1 .6Zm-31 -27.7c1.4 -.1 2.1 -.6 2.1 -1.6c0 -1 -.7 -1.5 -2.2 -1.5h-3.5v3.1Zm106 -.1c1.5 -.1 2.3 -.7 2.3 -1.9c0 -1.3 -.8 -1.9 -2.3 -1.9h-2.7V603ZM435.9 599c.6 0 1.3 -.2 1.7 -.6c.4 -.4 .6 -.9 .6 -1.5c0 -.8 -.2 -1.3 -.6 -1.6c-.4 -.5 -1 -.6 -1.7 -.6h-2.3V599Zm56.5 0c.6 0 1.3 -.2 1.7 -.6c.4 -.4 .6 -.9 .6 -1.5c0 -.8 -.2 -1.3 -.6 -1.6c-.4 -.5 -1 -.6 -1.7 -.6h-2.3V599Zm-27.5 -1.5c1.3 0 2.1 -.5 2.1 -1.4c0 -.5 -.2 -.8 -.5 -1.1c-.4 -.3 -.8 -.4 -1.4 -.4h-2.9v2.9Zm-49.3 8.2V592h11.3v13.7h-3v-11h-5.3v11Zm15 0V592h5.5c1.5 0 2.9 .5 3.8 1.4c.8 .7 1.4 2 1.4 3.4c0 1.5 -.5 2.8 -1.6 3.6c-1 .8 -2.3 1.3 -3.9 1.3h-2.2v4Zm13.3 0V592h3v9l5.9 -9h2.8v13.7h-3v-9l-5.8 9Zm15.4 0V592h6.2c1.5 0 2.7 .4 3.5 1.2c.6 .6 .9 1.4 .9 2.4c0 1.2 -.5 2.3 -1.6 2.9c.9 .3 1.5 .8 2 1.3c.3 .5 .6 1.2 .6 2.1c-.1 1.2 -.4 2.2 -1.3 2.8c-1.1 .6 -2.2 1 -3.8 1Zm14.4 0V592H484v2.7h-7.3v2.7H483V600h-6.3v3H484v2.7Zm13.4 0V592h5.5c1.5 0 2.9 .5 3.8 1.4c.8 .7 1.4 2 1.4 3.4c0 1.5 -.5 2.8 -1.6 3.6c-1.1 .8 -2.3 1.3 -3.9 1.3h-2.2v4Zm11.4 0l5.4 -7.8L498.7 592h3.6l5.4 6.4V592h3v6.4l5.4 -6.4h3.6l-5.2 5.9l5.4 7.8h-3.6l-3.8 -5.6l-1.8 2v3.6h-3v-3.6l-1.8 -2l-3.8 5.6Zm23.7 0V592h10.3v2.7h-7.4v2.7h6.4V600h-6.4v3h7.4v2.7Zm13.3 0V592h3v5.4h5.7V592h3v13.7h-3v-5.6h-5.7v5.6Zm25.2 2.8v-2.8h-10V592h3v11H559V592h3v11h1.6l-.4 5.5Zm5.4 -2.8V592h3v4.7H572c1.5 0 2.8 .4 3.7 1.2c.8 .7 1.4 1.9 1.4 3.2c-.1 1.4 -.5 2.5 -1.4 3.3c-1 .8 -2.2 1.3 -3.8 1.3Zm12.3 0V592h3v13.7Z"/></clipPath>
<clipPath id="cb_31"><path d="M787.5 389.2c-18.4 0 -33.3 -14.9 -33.3 -33.3v-8.4c0 -18.3 14.9 -33.2 33.3 -33.2h354.4c18.4 0 33.3 14.9 33.3 33.2v8.4c0 18.4 -14.9 33.3 -33.3 33.3Z"/></clipPath>
<clipPath id="cc_31"><path d="M827.9 356.2c1.3 0 2.1 -.5 2.1 -1.5c0 -1.1 -.7 -1.5 -2.2 -1.5h-3.5v3Zm201.1 0c1.3 0 2.1 -.5 2.1 -1.5c0 -1.1 -.7 -1.5 -2.2 -1.5h-3.5v3Zm-46.8 0c1.5 -.2 2.3 -.7 2.3 -2c0 -1.2 -.8 -1.8 -2.3 -1.8h-2.7v3.8Zm114.7 0c1.5 -.2 2.2 -.7 2.2 -2c0 -1.2 -.7 -1.8 -2.2 -1.8h-2.7v3.8Zm-203.4 -3l-1.8 -4.4l-1.8 4.4Zm44.4 0l-1.8 -4.4l-1.8 4.4Zm130.2 0l-1.8 -4.4l-1.8 4.4Zm-161.3 -1c.6 0 1.3 -.2 1.7 -.6c.4 -.4 .6 -.9 .6 -1.6c0 -.7 -.2 -1.2 -.6 -1.6c-.4 -.4 -1 -.5 -1.8 -.5h-2.2v4.3ZM827 350.7c1.3 -.1 2 -.5 2 -1.5c0 -.4 -.1 -.8 -.4 -1c-.4 -.4 -.8 -.4 -1.5 -.4h-2.8v2.9Zm201 0c1.4 -.1 2.1 -.5 2.1 -1.5c0 -.4 -.1 -.8 -.5 -1c-.3 -.4 -.8 -.4 -1.4 -.4h-2.8v2.9Zm-206.6 8.1V345.2h6.2c1.5 0 2.7 .4 3.5 1.2c.6 .6 .9 1.4 .9 2.4c0 1.2 -.5 2.2 -1.6 2.9c.8 .3 1.5 .7 1.9 1.3c.4 .5 .7 1.2 .7 2.1c-.1 1.1 -.5 2.1 -1.4 2.8c-1 .6 -2.1 .9 -3.7 .9Zm14.4 0V345.2h10.3v2.7h-7.4v2.6h6.4v2.7h-6.4v3h7.4v2.6Zm13.4 0V345.2h9.4v2.7h-6.5v10.9Zm12 0V345.2h10.3v2.7h-7.4v2.6h6.4v2.7h-6.4v3h7.4v2.6Zm16.3 0V347.9h-4v-2.7h11.3v2.7h-4.3v10.9Zm7.1 0l5.8 -13.6h2.7l5.8 13.6h-3.1l-1.2 -3h-5.8l-1.2 3Zm16.9 0V345.2H907c1.5 0 2.8 .4 3.8 1.3c.8 .8 1.4 2.1 1.4 3.5c-.1 1.5 -.6 2.7 -1.6 3.6c-1.1 .8 -2.3 1.2 -3.9 1.2h-2.2v4Zm13.3 0V345.2h3v8.9l5.9 -8.9h2.8v13.6h-3v-8.9l-5.9 8.9Zm14.2 0l5.8 -13.6h2.8l5.8 13.6h-3.2l-1.2 -3h-5.7l-1.3 3Zm16.9 0V345.2h3v5.3h5.7v-5.3h2.9v13.6h-2.9v-5.5h-5.7v5.5Zm25.2 2.9v-2.9H961V345.2h3v11h5.4v-11h2.9v11H974l-.4 5.5Zm5.4 -2.9V345.2h3v4.7h2.9c1.5 0 2.8 .4 3.7 1.2c.8 .7 1.3 1.8 1.3 3.2c-.1 1.3 -.4 2.5 -1.4 3.3c-1 .8 -2.2 1.2 -3.8 1.2Zm12.3 0V345.2h3v13.6Zm12.5 0V345.2h2.9v8.9l6 -8.9h2.7v13.6H1010v-8.9l-5.9 8.9Zm21.2 0V345.2h6.2c1.4 0 2.7 .4 3.5 1.2c.6 .6 .9 1.4 .9 2.4c0 1.2 -.5 2.2 -1.6 2.9c.8 .3 1.5 .7 1.9 1.3c.4 .5 .7 1.2 .7 2.1c-.1 1.1 -.5 2.1 -1.4 2.8c-1 .6 -2.1 .9 -3.7 .9Zm14.4 0V345.2h10.3v2.7h-7.4v2.6h6.4v2.7h-6.4v3h7.4v2.6Zm13.4 0V345.2h9.4v2.7h-6.5v10.9Zm8.8 0l5.8 -13.6h2.8l5.8 13.6h-3.1l-1.3 -3h-5.7l-1.2 3Zm16.9 0V345.2h3v5.3h5.7v-5.3h3v13.6h-3v-5.5H1079v5.5Zm15.2 0V345.2h3v4.7h2.9c1.5 0 2.8 .4 3.7 1.2c.8 .7 1.3 1.8 1.3 3.2c-.1 1.3 -.5 2.5 -1.4 3.3c-1 .8 -2.2 1.2 -3.8 1.2Zm12.3 0V345.2h3v13.6Z"/></clipPath>
<clipPath id="cd_31"><path d="M787.5 486.3c-18.4 0 -33.3 -14.9 -33.3 -33.2v-8.4c0 -18.4 14.9 -33.3 33.3 -33.3h354.4c18.4 0 33.3 14.9 33.3 33.3v8.4c0 18.3 -14.9 33.2 -33.3 33.2Z"/></clipPath>
<clipPath id="ce_31"><path d="M980.1 452.7c1.3 0 2.1 -.5 2.1 -1.5c0 -1.1 -.7 -1.5 -2.2 -1.5h-3.5v3Zm-.9 -5.5c1.3 -.1 2.1 -.5 2.1 -1.5c-.1 -.5 -.2 -.8 -.5 -1.1c-.4 -.3 -.8 -.3 -1.5 -.3h-2.8v2.9Zm-124.6 8.1V441.7h11.3v13.6H863V444.4h-5.4v10.9Zm17.6 .2c-1.1 -.1 -2 -.3 -2.9 -.8l1.1 -2.2c.5 .2 1 .4 1.6 .4c.7 -.1 1.3 -.3 1.7 -1l-5.4 -10.2h3.3l3.7 7.1l3.3 -7.1h3.2l-5.2 10.5c-.6 1.1 -1.2 2 -1.9 2.5c-.7 .5 -1.6 .8 -2.5 .8Zm15.1 -.2V444.4h-4.1v-2.7h11.3v2.7h-4.3v10.9Zm9.9 0V441.7h10.3v2.6h-7.3V447h6.3v2.7h-6.3v3h7.3v2.6Zm13.4 0V441.7h3v10.9h4.7V441.7h2.9v10.9h4.7V441.7h3v13.6Zm22.3 0V441.7h10.3v2.6h-7.3V447h6.3v2.7h-6.3v3h7.3v2.6Zm30.7 0V444.4h-4v-2.7h11.3v2.7h-4.3v10.9Zm10 0V441.7h6.2c1.5 0 2.7 .4 3.5 1.2c.6 .5 .9 1.4 .9 2.3c0 1.2 -.5 2.3 -1.6 3c.8 .2 1.5 .7 1.9 1.2c.4 .5 .7 1.3 .7 2.2c-.1 1.1 -.5 2.1 -1.4 2.8c-1 .6 -2.1 .9 -3.7 .9Zm14.4 0V441.7h10.3v2.6h-7.4V447h6.4v2.7h-6.4v3h7.4v2.6Zm13.4 0V441.7h3V447h5.6v-5.3h3v13.6h-3v-5.6h-5.6v5.6Zm15.1 0V441.7h3V447h5.7v-5.3h2.9v13.6h-2.9v-5.6h-5.7v5.6Zm15.1 0V441.7h3v8.9l5.9 -8.9h2.8v13.6h-3v-8.9l-5.8 8.9Zm15.4 0V441.7h3v5.9l5.5 -5.9h3.6l-5.5 5.8l5.7 7.8h-3.5l-4.2 -5.8l-1.6 1.6v4.2Zm14.5 0V441.7h3v8.9l5.9 -8.9h2.8v13.6h-3v-8.9l-5.8 8.9Zm-109.3 .2c-2.1 -.1 -3.7 -.7 -5 -2c-1.4 -1.4 -2 -3 -2 -5c0 -2 .7 -3.6 2 -5c1.4 -1.4 3.1 -2 5.1 -2c.1 0 .2 0 .3 0c1.1 0 2 .2 2.7 .6c.8 .3 1.5 .9 2.3 1.6l-1.8 2.1c-.7 -.6 -1.1 -1 -1.7 -1.2c-.6 -.3 -1.1 -.3 -1.8 -.3c-.1 -.1 -.2 -.1 -.3 -.1c-1 0 -1.8 .5 -2.5 1.3c-.9 .7 -1.1 1.8 -1.1 3c-.1 1.1 .3 2.2 1.1 3c.6 .8 1.7 1.2 2.8 1.2c.7 0 1.3 -.1 1.9 -.4c.4 -.2 1.1 -.6 1.7 -1.2l1.9 2.1c-.8 .7 -1.6 1.3 -2.4 1.7c-.9 .3 -2 .6 -3.2 .6Z"/></clipPath>
<clipPath id="cf_31"><path d="M787.5 594.1c-18.4 0 -33.3 -14.9 -33.3 -33.3v-8.3c0 -18.4 14.9 -33.3 33.3 -33.3h354.4c18.4 0 33.3 14.9 33.3 33.3v8.3c0 18.4 -14.9 33.3 -33.3 33.3Z"/></clipPath>
<clipPath id="cg_31"><path d="M825.4 571.7l-1.8 -4.4l-1.8 4.4Zm288.9 0l-1.8 -4.4l-1.8 4.4Zm-61.5 -1c.6 0 1.3 -.2 1.7 -.6c.4 -.4 .7 -.9 .7 -1.5c0 -.8 -.3 -1.2 -.7 -1.6c-.4 -.5 -1 -.6 -1.7 -.6h-2.3v4.3Zm-197.7 4.1c1.1 0 2.1 -.4 2.9 -1.2c.7 -.9 1.1 -1.8 1.1 -3c0 -1.3 -.4 -2.2 -1.1 -3c-.9 -.9 -1.8 -1.3 -3 -1.3c-.1 0 -.2 0 -.3 0c-1.1 0 -1.9 .5 -2.6 1.3c-.9 .7 -1.2 1.8 -1.2 3c0 1.1 .4 2.2 1.2 3c.7 .7 1.8 1.2 3 1.2Zm120.4 0c1.1 0 2.1 -.4 2.9 -1.2c.7 -.9 1.2 -1.8 1.2 -3c0 -1.3 -.4 -2.2 -1.2 -3c-.8 -.9 -1.8 -1.3 -3 -1.3q-.1 0 -.2 0c-1.2 0 -2 .5 -2.7 1.3c-.8 .7 -1.1 1.8 -1.1 3c-.1 1.1 .4 2.2 1.1 3c.7 .7 1.8 1.2 3 1.2Zm28.3 0c1.1 0 2.1 -.4 2.9 -1.2c.7 -.9 1.2 -1.8 1.2 -3c0 -1.3 -.4 -2.2 -1.2 -3c-.8 -.9 -1.8 -1.3 -3 -1.3q-.1 0 -.2 0c-1.2 0 -2 .5 -2.7 1.3c-.8 .7 -1.1 1.8 -1.1 3c-.1 1.1 .3 2.2 1.1 3c.7 .7 1.8 1.2 3 1.2Zm-201.2 2.6V563.8h11.3v13.6H811v-11h-5.4v11Zm13.8 0l5.8 -13.6H825l5.8 13.6h-3.1l-1.3 -3h-5.7l-1.2 3Zm17 .2c-.6 -.1 -1.1 -.1 -1.6 -.2l.2 -2.5c0 0 .1 0 .1 0c.1 0 .3 .1 .4 .1c.4 -.1 .8 -.1 1.1 -.3c.2 -.3 .5 -.6 .7 -1.2c.2 -.6 .4 -1.4 .5 -2.5c.1 -1.2 .2 -2.6 .2 -4.4v-2.8h9.6v13.6h-2.9v-11h-3.9v1.1c-.1 2.6 -.2 4.7 -.5 6.2c-.4 1.4 -.8 2.5 -1.4 3c-.7 .5 -1.4 .9 -2.5 .9Zm32 -.2V563.8h3.2l3.6 5.7l3.6 -5.7H879v13.6h-3v-8.9l-3.8 5.8h-.1l-3.8 -5.8v8.9Zm17.2 0V563.8h3v5.3h5.7v-5.3h2.9v13.6h-2.9v-5.6h-5.7v5.6Zm15.1 0V563.8h3v8.9l5.9 -8.9h2.8v13.6h-3v-9l-5.8 9Zm23.1 0v-5c-1.4 .6 -2.6 1 -3.6 1c-1.4 0 -2.4 -.4 -3.2 -1.2c-.9 -.8 -1.2 -1.9 -1.2 -3.4v-5h2.9v4.1c-.1 1.8 .8 2.7 2.2 2.7c1.1 -.1 2.1 -.3 2.9 -.9v-5.9h2.9v13.6Zm6.8 0V563.8h10.3v2.6h-7.3v2.7h6.3v2.6h-6.3v3h7.3v2.7Zm27.7 0V563.8h3v5.9l5.5 -5.9h3.6l-5.5 5.7l5.8 7.9h-3.6l-4.2 -5.8l-1.6 1.6v4.2Zm30.5 0V563.8h9.5v2.6h-6.5v11Zm37.1 0V566.5h-4v-2.7h11.3v2.7h-4.3v10.9Zm12.5 .2c-1.1 -.1 -2 -.3 -2.9 -.8l1.2 -2.2c.4 .2 1 .4 1.6 .4c.6 -.1 1.2 -.3 1.7 -1.1l-5.4 -10.1h3.3l3.7 7.1l3.3 -7.1h3.2l-5.2 10.5c-.6 1.1 -1.2 2 -1.9 2.5c-.8 .5 -1.6 .8 -2.6 .8Zm12.1 -.2V563.8h5.5c1.6 0 2.9 .4 3.8 1.3c.8 .7 1.4 2 1.4 3.5c0 1.4 -.5 2.7 -1.6 3.5c-1 .9 -2.3 1.3 -3.9 1.3h-2.2v4Zm13.4 0V563.8h2.9v8.9l5.9 -8.9h2.8v13.6h-2.9v-9l-5.9 9Zm28.4 0V563.8h3.2l3.6 5.7l3.6 -5.7h3.2v13.6h-3v-8.9l-3.8 5.8h-.1l-3.8 -5.8v8.9Zm16 0l5.8 -13.6h2.8l5.8 13.6h-3.1l-1.3 -3h-5.7l-1.2 3ZM855 577.6c-2.1 -.1 -3.8 -.7 -5.1 -2.1c-1.4 -1.4 -2.1 -3 -2.1 -4.9c0 -2 .7 -3.6 2.1 -5c1.3 -1.4 3.1 -2 5.2 -2c0 0 .1 0 .2 0c1.9 0 3.6 .7 4.9 2c1.4 1.3 2.1 3 2.1 5c-.1 1.9 -.7 3.6 -2.1 4.9c-1.4 1.3 -3.1 2.1 -5.2 2.1Zm120.4 0c-2.1 -.1 -3.7 -.7 -5.1 -2.1c-1.4 -1.4 -2.1 -3 -2.1 -4.9c0 -2 .7 -3.6 2.1 -5c1.4 -1.4 3.1 -2 5.2 -2c0 0 .1 0 .2 0c1.9 0 3.6 .7 4.9 2c1.4 1.3 2.1 3 2.1 5c-.1 1.9 -.7 3.6 -2.1 4.9c-1.4 1.3 -3.1 2.1 -5.2 2.1Zm28.3 0c-2.1 -.1 -3.7 -.7 -5.1 -2.1c-1.4 -1.4 -2.1 -3 -2.1 -4.9c0 -2 .7 -3.6 2.1 -5c1.4 -1.4 3.1 -2 5.2 -2c0 0 .1 0 .2 0c1.9 0 3.6 .7 4.9 2c1.4 1.3 2.1 3 2.1 5c-.1 1.9 -.7 3.6 -2.1 4.9c-1.4 1.3 -3.1 2.1 -5.2 2.1Zm77.3 0c-1.4 -.1 -2.6 -.2 -3.5 -.6c-1 -.5 -1.8 -.9 -2.6 -1.7l1.6 -2.1c1.1 1.1 2.7 1.7 4.4 1.7c.6 0 1.2 -.1 1.6 -.4c.5 -.3 .7 -.7 .7 -1.2c0 -.6 -.2 -.9 -.7 -1.2c-.6 -.3 -1.2 -.4 -2 -.4h-1.6v-2.4h1.5c1.6 -.1 2.5 -.6 2.5 -1.6c0 -.5 -.2 -.8 -.6 -1.1c-.5 -.3 -1 -.4 -1.6 -.4c-.1 0 -.2 0 -.2 0c-1.5 0 -2.6 .6 -3.5 1.5l-1.6 -1.9c1.4 -1.5 3.3 -2.2 5.5 -2.2c.1 0 .2 0 .3 0c1.3 0 2.4 .4 3.2 1c.9 .6 1.4 1.6 1.4 2.6c-.1 1.4 -.7 2.5 -2.2 3.1c1.7 .5 2.6 1.6 2.6 3.2c-.1 1.2 -.5 2.2 -1.4 2.9c-1 .8 -2.2 1.2 -3.8 1.2Zm-134.1 0c-2.1 -.1 -3.6 -.7 -5 -2.1c-1.4 -1.4 -1.9 -3 -1.9 -4.9c0 -2 .6 -3.6 1.9 -5c1.4 -1.4 3.1 -2 5.1 -2c.1 0 .2 0 .3 0c1.1 0 2 .2 2.7 .6c.8 .3 1.6 .9 2.3 1.6l-1.8 2c-.7 -.5 -1.1 -.9 -1.6 -1.1c-.6 -.3 -1.2 -.4 -1.9 -.4c-.1 0 -.2 0 -.2 0c-1.1 0 -1.9 .5 -2.6 1.3c-.8 .7 -1.1 1.8 -1.1 3c-.1 1.1 .3 2.2 1.1 3c.6 .7 1.7 1.2 2.8 1.2c.7 0 1.4 -.1 1.9 -.4c.4 -.2 1.1 -.6 1.7 -1.2l1.9 2.1c-.8 .7 -1.6 1.3 -2.4 1.7c-.9 .3 -1.9 .6 -3.2 .6Zm-19 -27.8c1.3 0 2.1 -.5 2.1 -1.5c0 -1.1 -.7 -1.5 -2.2 -1.5h-3.5v3Zm106 0c1.5 -.1 2.3 -.7 2.3 -2c0 -1.2 -.8 -1.8 -2.3 -1.8h-2.7v3.8ZM898 545.8c.6 0 1.3 -.2 1.7 -.6c.4 -.4 .6 -.9 .6 -1.6c0 -.7 -.2 -1.2 -.6 -1.6c-.4 -.4 -1 -.5 -1.8 -.5h-2.2v4.3Zm56.5 0c.6 0 1.3 -.2 1.7 -.6c.4 -.4 .6 -.9 .6 -1.6c0 -.7 -.2 -1.2 -.6 -1.6c-.4 -.4 -1 -.5 -1.8 -.5h-2.2v4.3ZM927 544.3c1.3 -.1 2.1 -.5 2.1 -1.5c-.1 -.4 -.2 -.8 -.5 -1c-.4 -.4 -.8 -.4 -1.5 -.4h-2.8v2.9Zm-49.3 8.1V538.8H889v13.6h-3V541.5h-5.3v10.9Zm15 0V538.8h5.5c1.5 0 2.8 .4 3.8 1.3c.8 .8 1.3 2.1 1.3 3.5c0 1.5 -.5 2.7 -1.5 3.6c-1.1 .8 -2.3 1.2 -3.9 1.2h-2.2v4Zm13.3 0V538.8h3v8.9l5.9 -8.9h2.8v13.6h-3v-8.9l-5.9 8.9Zm15.4 0V538.8h6.2c1.5 0 2.7 .4 3.5 1.2c.6 .6 .9 1.4 .9 2.4c0 1.2 -.5 2.2 -1.6 2.9c.8 .3 1.5 .7 1.9 1.3c.4 .5 .7 1.2 .7 2.1c-.1 1.1 -.5 2.2 -1.4 2.8c-1 .6 -2.1 .9 -3.7 .9Zm14.4 0V538.8h10.3v2.7h-7.4v2.6h6.4v2.7h-6.4v3h7.4v2.6Zm13.4 0V538.8h5.5c1.5 0 2.8 .4 3.8 1.3c.8 .8 1.3 2.1 1.3 3.5c0 1.5 -.5 2.7 -1.5 3.6c-1.1 .8 -2.3 1.2 -3.9 1.2h-2.2v4Zm11.4 0l5.4 -7.7l-5.2 -5.9h3.5l5.5 6.4v-6.4h2.9v6.4l5.5 -6.4h3.5l-5.1 5.9l5.3 7.7h-3.5l-3.9 -5.5l-1.8 1.9v3.6h-2.9v-3.6L968 546.9l-3.8 5.5Zm23.6 0V538.8h10.3v2.7h-7.3v2.6h6.3v2.7h-6.3v3h7.3v2.6Zm13.4 0V538.8h3v5.3h5.7v-5.3h3v13.6h-3v-5.5h-5.7v5.5Zm25.2 2.9v-2.9h-10V538.8h3v11h5.3v-11h3v11h1.6l-.4 5.5Zm5.4 -2.9V538.8h3v4.7h2.9c1.5 0 2.8 .4 3.7 1.2c.8 .7 1.3 1.8 1.3 3.2c-.1 1.3 -.4 2.5 -1.4 3.3c-1 .8 -2.2 1.2 -3.8 1.2Zm12.3 0V538.8h3v13.6Z"/></clipPath>
</defs>
<image clip-path="url(#c0_31)" preserveAspectRatio="none" x="150" y="0" width="1167" height="825" xlink:href="img/1.jpg"/>
<image clip-path="url(#c1_31)" preserveAspectRatio="none" x="150" y="0" width="1167" height="825" xlink:href="img/2.jpg"/>
<image clip-path="url(#c2_31)" preserveAspectRatio="none" x="150" y="0" width="1167" height="825" xlink:href="img/3.jpg"/>
<image clip-path="url(#c3_31)" preserveAspectRatio="none" x="150" y="0" width="1167" height="825" xlink:href="img/4.jpg"/>
<image clip-path="url(#c4_31)" preserveAspectRatio="none" x="150" y="0" width="1167" height="825" xlink:href="img/5.jpg"/>
<image clip-path="url(#c5_31)" preserveAspectRatio="none" x="150" y="0" width="1167" height="825" xlink:href="img/6.jpg"/>
<image clip-path="url(#c6_31)" preserveAspectRatio="none" x="150" y="0" width="1167" height="825" xlink:href="img/7.jpg"/>
<image clip-path="url(#c7_31)" preserveAspectRatio="none" x="150" y="0" width="1167" height="825" xlink:href="img/8.jpg"/>
<image clip-path="url(#c8_31)" preserveAspectRatio="none" x="150" y="0" width="1167" height="825" xlink:href="img/9.jpg"/>
<image clip-path="url(#c9_31)" preserveAspectRatio="none" x="150" y="0" width="1167" height="825" xlink:href="img/10.jpg"/>
<image clip-path="url(#ca_31)" preserveAspectRatio="none" x="150" y="0" width="1167" height="825" xlink:href="img/11.jpg"/>
<image clip-path="url(#cb_31)" preserveAspectRatio="none" x="150" y="0" width="1167" height="825" xlink:href="img/12.jpg"/>
<image clip-path="url(#cc_31)" preserveAspectRatio="none" x="150" y="0" width="1167" height="825" xlink:href="img/13.jpg"/>
<image clip-path="url(#cd_31)" preserveAspectRatio="none" x="150" y="0" width="1167" height="825" xlink:href="img/14.jpg"/>
<image clip-path="url(#ce_31)" preserveAspectRatio="none" x="150" y="0" width="1167" height="825" xlink:href="img/15.jpg"/>
<image clip-path="url(#cf_31)" preserveAspectRatio="none" x="150" y="0" width="1167" height="825" xlink:href="img/16.jpg"/>
<image clip-path="url(#cg_31)" preserveAspectRatio="none" x="150" y="0" width="1167" height="825" xlink:href="img/17.jpg"/>
</svg>