<?xml version="1.0" encoding="UTF-8" standalone="no"?>
<!DOCTYPE svg PUBLIC "-//W3C//DTD SVG 1.1//EN"
"http://www.w3.org/Graphics/SVG/1.1/DTD/svg11.dtd">
<svg viewBox="0 0 1466 825" version="1.1" xmlns="http://www.w3.org/2000/svg" xmlns:xlink="http://www.w3.org/1999/xlink">
<defs>
<clipPath id="c0_8"><path d="M.1 825V0H1466.7V825Z"/></clipPath>
<clipPath id="c1_8"><path d="M459.3 668.9V156.1h301V668.9Z"/></clipPath>
<clipPath id="c2_8"><path d="M1093.3 668.9V156.1h301V668.9Z"/></clipPath>
<style type="text/css"><![CDATA[
.g0_8{
fill: #FFF;
}
.g1_8{
fill: #000;
fill-opacity: 0.6;
}
]]></style>
</defs>
<g clip-path="url(#c0_8)">
<path fill-rule="evenodd" d="M.1 825H1466.7V0H.1V825Z" class="g0_8"/>
<image x="777" y="157" width="300" height="511" xlink:href="shade/1.png"/>
<image preserveAspectRatio="none" x="777" y="158" width="300" height="510" xlink:href="img/1.jpg"/>
<image x="459" y="156" width="302" height="513" xlink:href="shade/2.png"/>
</g>
<image clip-path="url(#c1_8)" preserveAspectRatio="none" x="459" y="156" width="301" height="513" xlink:href="img/2.jpg"/>
<image clip-path="url(#c0_8)" x="1093" y="156" width="302" height="513" xlink:href="shade/3.png"/>
<image clip-path="url(#c2_8)" preserveAspectRatio="none" x="1093" y="156" width="301" height="513" xlink:href="img/3.jpg"/>
<path fill-rule="evenodd" d="M459.3 668.9h301V511.8h-301V668.9Z" class="g1_8"/>
<path fill-rule="evenodd" d="M775.6 313.2h300.9V156.1H775.6V313.2Z" class="g1_8"/>
<path fill-rule="evenodd" d="M1093.3 629.4h301v-157h-301v157Z" class="g1_8"/>
<image clip-path="url(#c0_8)" preserveAspectRatio="none" x="80" y="68" width="111" height="21" xlink:href="img/4.png"/>
</svg>